<svg width="994" height="482" viewBox="0 0 994 482" fill="none" xmlns="http://www.w3.org/2000/svg">
<path d="M415.268 8.35377V11.2588C413.959 9.16447 411.925 7.88086 409.409 7.88086C404.033 7.88086 401 11.833 401 17.1364C401 22.4735 404.067 26.5608 409.478 26.5608C411.994 26.5608 413.993 25.2772 415.268 23.1829V26.0879H419.473V8.35377H415.268ZM410.305 23.0478C407.238 23.0478 405.48 20.2441 405.48 17.1364C405.48 14.0963 407.204 11.4277 410.374 11.4277C412.994 11.4277 415.234 13.2856 415.234 17.0688C415.234 20.7846 413.097 23.0478 410.305 23.0478Z" fill="#F8FFFB"/>
<path d="M423.094 8.35547V26.0896H427.574V8.35547H423.094Z" fill="#F8FFFB"/>
<path d="M435.832 12.7461V8.3548H431.352V26.0889H435.832V15.9551C435.832 13.3541 437.659 12.307 439.382 12.307C440.381 12.307 441.415 12.5772 441.967 12.7799V8.05078C439.037 8.05078 436.625 9.77353 435.832 12.7461Z" fill="#F8FFFB"/>
<path d="M443.062 13.7594C443.062 19.2655 446.923 23.1839 452.471 23.1839C458.055 23.1839 461.88 19.2655 461.88 13.7594C461.88 8.35475 458.055 4.50391 452.471 4.50391C446.923 4.50391 443.062 8.35475 443.062 13.7594ZM457.4 13.7594C457.4 17.2049 455.504 19.6708 452.471 19.6708C449.404 19.6708 447.543 17.2049 447.543 13.7594C447.543 10.4491 449.404 8.05073 452.471 8.05073C455.504 8.05073 457.4 10.4491 457.4 13.7594Z" fill="#F8FFFB"/>
<path d="M474.374 7.88086C471.755 7.88086 469.618 9.40093 468.48 11.833V8.35377H464V31.9993H468.48V22.9127C469.756 25.1083 472.134 26.5608 474.65 26.5608C479.544 26.5608 482.956 22.8113 482.956 17.4404C482.956 11.7993 479.406 7.88086 474.374 7.88086ZM473.581 23.2505C470.583 23.2505 468.48 20.7846 468.48 17.2715C468.48 13.6571 470.583 11.1237 473.581 11.1237C476.442 11.1237 478.475 13.7247 478.475 17.4066C478.475 20.8521 476.442 23.2505 473.581 23.2505Z" fill="#F8FFFB"/>
<path d="M484.391 19.9401C484.391 23.1491 487.286 26.5608 493.076 26.5608C498.9 26.5608 501.003 23.2167 501.003 20.6157C501.003 16.6297 496.212 15.9203 493.007 15.3123C490.836 14.9407 489.457 14.6367 489.457 13.4207C489.457 12.0357 491.008 11.1575 492.662 11.1575C494.902 11.1575 495.764 12.6775 495.833 14.2989H500.313C500.313 11.6641 498.418 7.88086 492.559 7.88086C487.492 7.88086 484.977 10.6845 484.977 13.6909C484.977 17.9809 489.836 18.42 493.041 19.028C494.902 19.3658 496.522 19.7712 496.522 21.0886C496.522 22.406 494.937 23.2842 493.248 23.2842C491.663 23.2842 488.871 22.406 488.871 19.9401H484.391Z" fill="#F8FFFB"/>
<path d="M425.409 6.19288C423.57 6.19288 422.25 4.89943 422.25 3.13563C422.25 1.37184 423.57 0 425.409 0C427.169 0 428.569 1.37184 428.569 3.13563C428.569 4.89943 427.169 6.19288 425.409 6.19288Z" fill="#F8FFFB"/>
<path d="M366 89C368.761 89 371 91.2386 371 94V100H369V94C369 92.4023 367.751 91.0963 366.176 91.0051L366 91C364.402 91 363.096 92.2489 363.005 93.8237L363 94V100H361V94C361 91.2386 363.239 89 366 89ZM359.5 92C359.779 92 360.05 92.0326 360.31 92.0942C360.142 92.594 360.039 93.122 360.009 93.6693L360 94L360.001 94.0856C359.888 94.0456 359.768 94.0187 359.644 94.0069L359.5 94C358.72 94 358.08 94.5949 358.007 95.3555L358 95.5V100H356V95.5C356 93.567 357.567 92 359.5 92ZM372.5 92C374.433 92 376 93.567 376 95.5V100H374V95.5C374 94.7203 373.405 94.0796 372.645 94.0069L372.5 94C372.325 94 372.157 94.03 372 94.0852L372 94C372 93.3343 371.892 92.694 371.691 92.0956C371.95 92.0326 372.221 92 372.5 92ZM359.5 86C360.881 86 362 87.1193 362 88.5C362 89.8807 360.881 91 359.5 91C358.119 91 357 89.8807 357 88.5C357 87.1193 358.119 86 359.5 86ZM372.5 86C373.881 86 375 87.1193 375 88.5C375 89.8807 373.881 91 372.5 91C371.119 91 370 89.8807 370 88.5C370 87.1193 371.119 86 372.5 86ZM359.5 88C359.224 88 359 88.2239 359 88.5C359 88.7761 359.224 89 359.5 89C359.776 89 360 88.7761 360 88.5C360 88.2239 359.776 88 359.5 88ZM372.5 88C372.224 88 372 88.2239 372 88.5C372 88.7761 372.224 89 372.5 89C372.776 89 373 88.7761 373 88.5C373 88.2239 372.776 88 372.5 88ZM366 80C368.209 80 370 81.7909 370 84C370 86.2091 368.209 88 366 88C363.791 88 362 86.2091 362 84C362 81.7909 363.791 80 366 80ZM366 82C364.895 82 364 82.8954 364 84C364 85.1046 364.895 86 366 86C367.105 86 368 85.1046 368 84C368 82.8954 367.105 82 366 82Z" fill="white"/>
<path d="M389.656 95V91.052L386.52 85.228H388.718L389.908 87.426L390.706 89.344L391.532 87.412L392.722 85.228H394.878L391.686 91.052V95H389.656Z" fill="white"/>
<path d="M399.826 95.168C398.976 95.168 398.23 94.9627 397.586 94.552C396.951 94.1413 396.456 93.558 396.102 92.802C395.756 92.046 395.584 91.15 395.584 90.114C395.584 89.0687 395.756 88.168 396.102 87.412C396.456 86.656 396.951 86.0773 397.586 85.676C398.23 85.2653 398.976 85.06 399.826 85.06C400.675 85.06 401.417 85.2653 402.052 85.676C402.686 86.0773 403.176 86.656 403.522 87.412C403.876 88.1587 404.054 89.0593 404.054 90.114C404.054 91.15 403.876 92.046 403.522 92.802C403.176 93.558 402.686 94.1413 402.052 94.552C401.417 94.9627 400.675 95.168 399.826 95.168ZM399.826 93.488C400.236 93.488 400.6 93.3573 400.918 93.096C401.244 92.8253 401.496 92.438 401.674 91.934C401.86 91.43 401.954 90.8233 401.954 90.114C401.954 89.3953 401.86 88.7887 401.674 88.294C401.496 87.79 401.244 87.4073 400.918 87.146C400.6 86.8753 400.236 86.74 399.826 86.74C399.415 86.74 399.046 86.8753 398.72 87.146C398.393 87.4073 398.136 87.79 397.95 88.294C397.772 88.798 397.684 89.4047 397.684 90.114C397.684 90.8233 397.772 91.43 397.95 91.934C398.136 92.438 398.393 92.8253 398.72 93.096C399.046 93.3573 399.415 93.488 399.826 93.488Z" fill="white"/>
<path d="M408.917 95.168C408.096 95.168 407.391 95.0187 406.803 94.72C406.215 94.412 405.763 93.9827 405.445 93.432C405.128 92.8813 404.969 92.242 404.969 91.514V85.228H407.013V91.514C407.013 91.9153 407.093 92.2607 407.251 92.55C407.41 92.8393 407.629 93.068 407.909 93.236C408.199 93.3947 408.535 93.474 408.917 93.474C409.309 93.474 409.645 93.3947 409.925 93.236C410.215 93.068 410.434 92.8393 410.583 92.55C410.742 92.2607 410.821 91.9153 410.821 91.514V85.228H412.865V91.514C412.865 92.242 412.707 92.8813 412.389 93.432C412.072 93.9827 411.619 94.412 411.031 94.72C410.443 95.0187 409.739 95.168 408.917 95.168Z" fill="white"/>
<path d="M415.909 91.206V89.526H418.205C418.531 89.526 418.816 89.47 419.059 89.358C419.301 89.246 419.493 89.0873 419.633 88.882C419.773 88.6673 419.843 88.4247 419.843 88.154C419.843 87.902 419.777 87.6827 419.647 87.496C419.525 87.3093 419.357 87.1647 419.143 87.062C418.928 86.9593 418.685 86.908 418.415 86.908H415.909V85.228H418.415C419.096 85.228 419.703 85.3447 420.235 85.578C420.767 85.8113 421.182 86.1473 421.481 86.586C421.789 87.0153 421.943 87.538 421.943 88.154C421.943 88.5367 421.854 88.91 421.677 89.274C421.499 89.6287 421.243 89.9553 420.907 90.254C420.571 90.5433 420.165 90.7767 419.689 90.954C419.222 91.122 418.69 91.206 418.093 91.206H415.909ZM414.453 95V85.228H416.483V95H414.453ZM419.871 95C419.852 94.58 419.759 94.16 419.591 93.74C419.432 93.3107 419.208 92.9 418.919 92.508C418.629 92.116 418.265 91.7613 417.827 91.444C417.397 91.1173 416.903 90.842 416.343 90.618L418.597 90.156C419.166 90.436 419.656 90.7673 420.067 91.15C420.487 91.5233 420.832 91.9247 421.103 92.354C421.383 92.774 421.588 93.2127 421.719 93.67C421.859 94.118 421.938 94.5613 421.957 95H419.871Z" fill="white"/>
<path d="M434.078 91.766V90.086H436.416C436.92 90.086 437.326 89.9367 437.634 89.638C437.942 89.3393 438.096 88.9473 438.096 88.462C438.096 87.9953 437.946 87.622 437.648 87.342C437.349 87.0527 436.952 86.908 436.458 86.908H434.078V85.228H436.472C437.218 85.228 437.872 85.3633 438.432 85.634C438.992 85.8953 439.426 86.2687 439.734 86.754C440.042 87.2393 440.196 87.8087 440.196 88.462C440.196 89.1247 440.037 89.7033 439.72 90.198C439.412 90.6927 438.978 91.08 438.418 91.36C437.858 91.6307 437.195 91.766 436.43 91.766H434.078ZM432.622 95V85.228H434.652V95H432.622Z" fill="white"/>
<path d="M442.077 95V85.228H444.107V93.32H448.965V95H442.077Z" fill="white"/>
<path d="M451.743 92.928V91.248H457.385V92.928H451.743ZM452.933 85.228H455.943L458.603 95H456.531L455.019 89.148L454.431 86.698L453.843 89.148L452.303 95H450.287L452.933 85.228Z" fill="white"/>
<path d="M462.5 95V91.052L459.364 85.228H461.562L462.752 87.426L463.55 89.344L464.376 87.412L465.566 85.228H467.722L464.53 91.052V95H462.5Z" fill="white"/>
<path d="M469.169 95V85.228H476.337V86.908H471.213V89.106H474.601V90.786H471.213V93.32H476.393V95H469.169Z" fill="white"/>
<path d="M479.647 91.206V89.526H481.943C482.27 89.526 482.554 89.47 482.797 89.358C483.04 89.246 483.231 89.0873 483.371 88.882C483.511 88.6673 483.581 88.4247 483.581 88.154C483.581 87.902 483.516 87.6827 483.385 87.496C483.264 87.3093 483.096 87.1647 482.881 87.062C482.666 86.9593 482.424 86.908 482.153 86.908H479.647V85.228H482.153C482.834 85.228 483.441 85.3447 483.973 85.578C484.505 85.8113 484.92 86.1473 485.219 86.586C485.527 87.0153 485.681 87.538 485.681 88.154C485.681 88.5367 485.592 88.91 485.415 89.274C485.238 89.6287 484.981 89.9553 484.645 90.254C484.309 90.5433 483.903 90.7767 483.427 90.954C482.96 91.122 482.428 91.206 481.831 91.206H479.647ZM478.191 95V85.228H480.221V95H478.191ZM483.609 95C483.59 94.58 483.497 94.16 483.329 93.74C483.17 93.3107 482.946 92.9 482.657 92.508C482.368 92.116 482.004 91.7613 481.565 91.444C481.136 91.1173 480.641 90.842 480.081 90.618L482.335 90.156C482.904 90.436 483.394 90.7673 483.805 91.15C484.225 91.5233 484.57 91.9247 484.841 92.354C485.121 92.774 485.326 93.2127 485.457 93.67C485.597 94.118 485.676 94.5613 485.695 95H483.609Z" fill="white"/>
<path d="M500.098 95.168C499.221 95.168 498.465 94.958 497.83 94.538C497.195 94.118 496.705 93.53 496.36 92.774C496.015 92.0087 495.842 91.122 495.842 90.114C495.842 89.0873 496.019 88.196 496.374 87.44C496.729 86.684 497.228 86.1007 497.872 85.69C498.525 85.27 499.291 85.06 500.168 85.06C500.859 85.06 501.493 85.1953 502.072 85.466C502.651 85.7367 503.122 86.1287 503.486 86.642C503.859 87.146 504.069 87.7573 504.116 88.476H501.89C501.834 87.9533 501.657 87.5333 501.358 87.216C501.059 86.8987 500.663 86.74 500.168 86.74C499.739 86.74 499.356 86.8707 499.02 87.132C498.684 87.3933 498.418 87.776 498.222 88.28C498.035 88.784 497.942 89.3953 497.942 90.114C497.942 90.8327 498.035 91.444 498.222 91.948C498.409 92.452 498.661 92.8347 498.978 93.096C499.305 93.3573 499.678 93.488 500.098 93.488C500.443 93.488 500.747 93.418 501.008 93.278C501.269 93.1287 501.479 92.9187 501.638 92.648C501.806 92.3773 501.909 92.0553 501.946 91.682H504.158C504.093 92.3913 503.887 93.0073 503.542 93.53C503.197 94.0527 502.735 94.4587 502.156 94.748C501.577 95.028 500.891 95.168 500.098 95.168Z" fill="white"/>
<path d="M506.375 92.928V91.248H512.017V92.928H506.375ZM507.565 85.228H510.575L513.235 95H511.163L509.651 89.148L509.063 86.698L508.475 89.148L506.935 95H504.919L507.565 85.228Z" fill="white"/>
<path d="M516.069 91.206V89.526H518.365C518.691 89.526 518.976 89.47 519.219 89.358C519.461 89.246 519.653 89.0873 519.793 88.882C519.933 88.6673 520.003 88.4247 520.003 88.154C520.003 87.902 519.937 87.6827 519.807 87.496C519.685 87.3093 519.517 87.1647 519.303 87.062C519.088 86.9593 518.845 86.908 518.575 86.908H516.069V85.228H518.575C519.256 85.228 519.863 85.3447 520.395 85.578C520.927 85.8113 521.342 86.1473 521.641 86.586C521.949 87.0153 522.103 87.538 522.103 88.154C522.103 88.5367 522.014 88.91 521.837 89.274C521.659 89.6287 521.403 89.9553 521.067 90.254C520.731 90.5433 520.325 90.7767 519.849 90.954C519.382 91.122 518.85 91.206 518.253 91.206H516.069ZM514.613 95V85.228H516.643V95H514.613ZM520.031 95C520.012 94.58 519.919 94.16 519.751 93.74C519.592 93.3107 519.368 92.9 519.079 92.508C518.789 92.116 518.425 91.7613 517.987 91.444C517.557 91.1173 517.063 90.842 516.503 90.618L518.757 90.156C519.326 90.436 519.816 90.7673 520.227 91.15C520.647 91.5233 520.992 91.9247 521.263 92.354C521.543 92.774 521.748 93.2127 521.879 93.67C522.019 94.118 522.098 94.5613 522.117 95H520.031Z" fill="white"/>
<path d="M523.564 95V85.228H526.756C527.484 85.228 528.138 85.3447 528.716 85.578C529.295 85.802 529.79 86.1287 530.2 86.558C530.611 86.978 530.924 87.4867 531.138 88.084C531.353 88.6813 531.46 89.3487 531.46 90.086C531.46 90.8327 531.353 91.5093 531.138 92.116C530.924 92.7133 530.611 93.2313 530.2 93.67C529.79 94.0993 529.295 94.4307 528.716 94.664C528.138 94.888 527.484 95 526.756 95H523.564ZM525.594 93.32H526.756C527.307 93.32 527.774 93.1893 528.156 92.928C528.548 92.6573 528.842 92.2793 529.038 91.794C529.244 91.3087 529.346 90.7393 529.346 90.086C529.346 89.4327 529.244 88.8727 529.038 88.406C528.842 87.93 528.548 87.5613 528.156 87.3C527.774 87.0387 527.307 86.908 526.756 86.908H525.594V93.32Z" fill="white"/>
<path d="M277.511 239.151C273.799 239.151 271.175 238.191 269.639 236.271C268.871 235.439 268.327 234.447 268.007 233.295C267.687 232.143 267.527 230.959 267.527 229.743C267.527 228.207 267.719 226.671 268.103 225.135C268.487 223.535 268.967 222.063 269.543 220.719C270.439 218.607 271.623 216.495 273.095 214.383C274.567 212.207 276.327 210.383 278.375 208.911C280.487 207.439 282.791 206.703 285.287 206.703C286.951 206.703 288.263 207.119 289.223 207.951C290.183 208.783 290.663 210.063 290.663 211.791C290.663 213.775 290.055 215.791 288.839 217.839C287.623 219.823 286.087 221.487 284.231 222.831C282.375 224.175 280.455 224.847 278.471 224.847C276.679 224.847 275.111 224.207 273.767 222.927C273.383 223.951 273.063 225.103 272.807 226.383C272.551 227.599 272.423 228.847 272.423 230.127C272.423 232.111 272.807 233.839 273.575 235.311C274.407 236.783 275.879 237.519 277.991 237.519C279.527 237.519 280.999 237.135 282.407 236.367C283.879 235.535 285.191 234.543 286.343 233.391C287.623 232.047 288.839 230.607 289.991 229.071C291.143 227.535 292.263 225.743 293.351 223.695C293.479 223.503 293.575 223.407 293.639 223.407C293.895 223.407 294.023 223.695 294.023 224.271C294.023 224.655 293.895 225.071 293.639 225.519C292.679 227.247 291.559 229.007 290.279 230.799C288.999 232.527 287.687 234.031 286.343 235.311C285.127 236.463 283.815 237.391 282.407 238.095C280.999 238.799 279.367 239.151 277.511 239.151ZM274.247 221.487C274.695 222.127 275.207 222.607 275.783 222.927C276.423 223.183 277.063 223.311 277.703 223.311C279.239 223.311 280.839 222.735 282.503 221.583C284.167 220.367 285.511 218.959 286.535 217.359C286.983 216.655 287.367 215.727 287.687 214.575C288.071 213.423 288.263 212.335 288.263 211.311C288.263 210.415 288.071 209.647 287.687 209.007C287.367 208.303 286.695 207.951 285.671 207.951C284.519 207.951 283.143 208.655 281.543 210.063C280.007 211.471 278.535 213.295 277.127 215.535C276.679 216.303 276.167 217.199 275.591 218.223C275.079 219.247 274.631 220.335 274.247 221.487Z" fill="white"/>
<path d="M186.568 246.832C185.8 246.448 185.192 245.904 184.744 245.2C184.36 244.496 184.168 243.792 184.168 243.088C184.168 242.384 184.36 241.808 184.744 241.36C184.936 241.104 185.16 240.944 185.416 240.88C185.736 240.88 185.832 241.04 185.704 241.36C185.512 242.32 185.96 243.216 187.048 244.048C188.136 244.88 189.128 245.424 190.024 245.68C190.984 245.872 191.944 245.968 192.904 245.968C194.888 245.968 196.648 245.68 198.184 245.104C200.488 244.336 202.76 242.768 205 240.4C207.304 238.032 209.448 235.344 211.432 232.336C213.352 229.392 215.24 226.064 217.096 222.352C219.016 218.576 220.936 214.704 222.856 210.736C224.84 206.704 226.952 202.832 229.192 199.12C231.432 195.344 233.832 191.984 236.392 189.04C239.016 186.032 241.896 183.728 245.032 182.128L227.08 178.96C225.672 178.704 224.072 178.544 222.28 178.48C220.488 178.352 218.6 178.288 216.616 178.288C213.096 178.288 209.576 178.512 206.056 178.96C202.536 179.344 199.72 180.016 197.608 180.976C193.896 182.64 190.696 184.944 188.008 187.888C185.32 190.768 183.976 194.384 183.976 198.736C183.976 200.528 184.264 202.064 184.84 203.344C185.48 204.56 186.28 205.488 187.24 206.128C188.328 206.768 189.448 207.088 190.6 207.088C192.008 207.088 193.448 206.672 194.92 205.84C196.392 204.944 197.672 203.664 198.76 202C199.272 201.168 199.752 199.952 200.2 198.352C200.712 196.752 200.968 195.12 200.968 193.456C200.968 192.56 200.872 191.696 200.68 190.864C200.552 190.032 200.264 189.296 199.816 188.656C199.688 188.4 199.624 188.272 199.624 188.272C199.624 188.08 199.72 187.984 199.912 187.984C200.168 187.984 200.392 188.144 200.584 188.464C200.904 188.912 201.224 189.616 201.544 190.576C201.928 191.472 202.184 192.304 202.312 193.072C202.376 193.456 202.408 193.84 202.408 194.224C202.472 194.608 202.504 194.992 202.504 195.376C202.504 196.656 202.344 197.968 202.024 199.312C201.704 200.592 201.192 201.776 200.488 202.864C199.464 204.592 198.088 205.904 196.36 206.8C194.632 207.632 192.84 208.048 190.984 208.048C189.512 208.048 188.104 207.76 186.76 207.184C184.776 206.224 183.304 204.848 182.344 203.056C181.448 201.264 181 199.312 181 197.2C181 195.792 181.16 194.384 181.48 192.976C181.864 191.504 182.376 190.096 183.016 188.752C184.104 186.384 185.608 184.304 187.528 182.512C189.448 180.72 191.368 179.312 193.288 178.288C196.488 176.56 199.688 175.344 202.888 174.64C206.152 173.936 209.448 173.584 212.776 173.584C215.528 173.584 218.312 173.776 221.128 174.16C223.944 174.544 226.792 175.088 229.672 175.792C234.728 177.008 239.848 178.16 245.032 179.248C250.216 180.272 255.496 181.072 260.872 181.648C263.112 178.96 265.48 176.528 267.976 174.352C270.536 172.112 273.224 170.256 276.04 168.784C277.704 167.952 279.464 167.28 281.32 166.768C283.176 166.256 284.968 166 286.696 166C289.576 166 291.784 166.8 293.32 168.4C294.856 170 295.624 171.824 295.624 173.872C295.624 175.28 295.24 176.688 294.472 178.096C293.704 179.504 292.488 180.72 290.824 181.744C288.648 183.024 286.28 183.888 283.72 184.336C281.16 184.784 278.504 185.008 275.752 185.008C273.512 185.008 271.24 184.912 268.936 184.72C266.632 184.528 264.392 184.368 262.216 184.24C260.232 187.184 258.376 190.256 256.648 193.456C254.984 196.592 253.48 199.632 252.136 202.576C250.792 205.456 249.608 208.048 248.584 210.352C247.816 212.208 247.144 213.776 246.568 215.056C246.056 216.272 245.576 217.392 245.128 218.416C244.744 219.44 244.296 220.592 243.784 221.872C244.808 220.336 245.96 218.672 247.24 216.88C248.584 215.024 249.768 213.584 250.792 212.56C252.264 211.088 253.736 209.84 255.208 208.816C256.68 207.792 258.12 207.216 259.528 207.088C261.704 206.896 263.272 207.184 264.232 207.952C265.192 208.656 265.672 209.712 265.672 211.12C265.672 212.528 265.288 214.096 264.52 215.824C263.688 217.808 262.696 219.792 261.544 221.776C260.392 223.76 259.336 225.68 258.376 227.536C258.12 228.048 257.64 229.04 256.936 230.512C256.296 231.92 255.88 233.264 255.688 234.544C255.688 234.608 255.656 234.704 255.592 234.832C255.592 234.96 255.592 235.088 255.592 235.216C255.592 235.92 255.784 236.464 256.168 236.848C256.552 237.168 257 237.328 257.512 237.328C258.6 237.328 259.624 236.976 260.584 236.272C261.544 235.568 262.376 234.8 263.08 233.968C264.552 232.368 265.896 230.608 267.112 228.688C268.328 226.768 269.544 224.72 270.76 222.544C270.952 222.288 271.144 222.16 271.336 222.16C271.592 222.16 271.72 222.352 271.72 222.736C271.72 223.056 271.656 223.312 271.528 223.504C270.376 225.616 269.128 227.728 267.784 229.84C266.504 231.952 264.936 233.936 263.08 235.792C262.248 236.624 261.288 237.392 260.2 238.096C259.112 238.736 257.896 239.056 256.552 239.056C254.376 239.056 252.84 238.448 251.944 237.232C251.112 235.952 250.696 234.544 250.696 233.008C250.696 231.792 250.92 230.576 251.368 229.36C252.456 226.544 253.96 223.856 255.88 221.296C257.8 218.736 259.4 216.08 260.68 213.328C261.128 212.496 261.352 211.728 261.352 211.024C261.352 210.256 261.128 209.68 260.68 209.296C260.232 208.912 259.752 208.72 259.24 208.72C258.024 208.72 256.68 209.264 255.208 210.352C253.8 211.376 252.424 212.688 251.08 214.288C249.864 215.696 248.616 217.328 247.336 219.184C246.056 220.976 244.84 222.896 243.688 224.944C242.6 226.8 241.48 228.752 240.328 230.8C239.176 232.784 238.248 234.48 237.544 235.888C237.032 236.976 236.488 237.68 235.912 238C235.336 238.32 234.792 238.48 234.28 238.48C234.024 238.48 233.768 238.448 233.512 238.384C233.256 238.384 233.032 238.384 232.84 238.384C233.416 236.208 234.472 233.2 236.008 229.36C237.544 225.456 239.4 220.88 241.576 215.632C243.688 210.512 246.184 205.168 249.064 199.6C252.008 193.968 255.336 188.752 259.048 183.952C257.96 183.76 256.648 183.568 255.112 183.376C253.64 183.184 252.232 182.992 250.888 182.8C249.544 182.608 248.52 182.48 247.816 182.416C245.704 183.376 243.496 185.2 241.192 187.888C238.376 191.216 235.944 194.768 233.896 198.544C231.848 202.256 229.96 206.096 228.232 210.064C226.504 213.968 224.712 217.84 222.856 221.68C221.064 225.52 218.92 229.2 216.424 232.72C214.184 235.856 211.656 238.672 208.84 241.168C206.024 243.664 202.824 245.552 199.24 246.832C197.256 247.536 194.888 247.888 192.136 247.888C191.048 247.888 190.024 247.792 189.064 247.6C188.104 247.472 187.272 247.216 186.568 246.832ZM263.848 181.936C265.576 182.064 267.592 182.256 269.896 182.512C272.264 182.704 274.632 182.8 277 182.8C279.432 182.8 281.832 182.64 284.2 182.32C286.568 181.936 288.584 181.232 290.248 180.208C291.464 179.44 292.328 178.576 292.84 177.616C293.416 176.656 293.704 175.664 293.704 174.64C293.704 172.848 292.936 171.248 291.4 169.84C289.864 168.368 287.848 167.632 285.352 167.632C284.136 167.632 282.824 167.76 281.416 168.016C280.072 168.272 278.664 168.752 277.192 169.456C274.824 170.544 272.52 172.208 270.28 174.448C268.04 176.624 265.896 179.12 263.848 181.936Z" fill="white"/>
<path d="M136.497 475V474.15C137.835 474.014 138.753 473.731 139.251 473.3C139.773 472.847 140.033 472.212 140.033 471.396V464.766L133.539 454.192C133.199 453.625 132.859 453.149 132.519 452.764C132.202 452.356 131.805 452.039 131.329 451.812C130.853 451.563 130.207 451.404 129.391 451.336V450.486H139.625V451.336C138.447 451.449 137.631 451.71 137.177 452.118C136.747 452.526 136.747 453.104 137.177 453.852L142.685 463.168L148.295 453.852C148.749 453.104 148.783 452.526 148.397 452.118C148.035 451.71 147.219 451.449 145.949 451.336V450.486H153.939V451.336C153.282 451.404 152.704 451.551 152.205 451.778C151.729 452.005 151.31 452.311 150.947 452.696C150.607 453.059 150.256 453.535 149.893 454.124L143.297 464.766V471.396C143.297 472.257 143.558 472.903 144.079 473.334C144.623 473.742 145.541 474.014 146.833 474.15V475H136.497Z" fill="white"/>
<path d="M159.803 475.272C158.171 475.272 156.72 474.898 155.451 474.15C154.204 473.402 153.218 472.371 152.493 471.056C151.767 469.741 151.405 468.223 151.405 466.5C151.405 465.231 151.609 464.063 152.017 462.998C152.425 461.933 153.003 461.015 153.751 460.244C154.499 459.451 155.383 458.85 156.403 458.442C157.423 458.011 158.556 457.796 159.803 457.796C161.457 457.796 162.908 458.17 164.155 458.918C165.401 459.643 166.376 460.663 167.079 461.978C167.781 463.27 168.133 464.777 168.133 466.5C168.133 467.792 167.929 468.982 167.521 470.07C167.113 471.135 166.535 472.065 165.787 472.858C165.061 473.629 164.189 474.229 163.169 474.66C162.149 475.068 161.027 475.272 159.803 475.272ZM159.803 474.15C160.415 474.15 160.981 474.037 161.503 473.81C162.047 473.583 162.523 473.255 162.931 472.824C163.339 472.371 163.69 471.838 163.985 471.226C164.279 470.591 164.495 469.877 164.631 469.084C164.789 468.291 164.869 467.429 164.869 466.5C164.869 464.959 164.665 463.621 164.257 462.488C163.849 461.355 163.259 460.482 162.489 459.87C161.741 459.235 160.845 458.918 159.803 458.918C159.168 458.918 158.579 459.031 158.035 459.258C157.513 459.485 157.037 459.825 156.607 460.278C156.199 460.709 155.847 461.241 155.553 461.876C155.258 462.488 155.031 463.191 154.873 463.984C154.737 464.755 154.669 465.593 154.669 466.5C154.669 468.041 154.873 469.39 155.281 470.546C155.711 471.702 156.301 472.597 157.049 473.232C157.819 473.844 158.737 474.15 159.803 474.15Z" fill="white"/>
<path d="M178.342 475.272C177.277 475.272 176.336 475.045 175.52 474.592C174.704 474.116 174.07 473.447 173.616 472.586C173.163 471.725 172.936 470.716 172.936 469.56V461.332C172.936 460.856 172.812 460.505 172.562 460.278C172.336 460.029 171.95 459.904 171.406 459.904H170.216V459.054L174.976 457.966H175.86V469.458C175.86 470.614 176.189 471.543 176.846 472.246C177.504 472.926 178.354 473.266 179.396 473.266C180.19 473.266 180.926 473.062 181.606 472.654C182.309 472.246 182.876 471.679 183.306 470.954C183.737 470.206 183.952 469.356 183.952 468.404V461.332C183.952 460.856 183.828 460.505 183.578 460.278C183.329 460.029 182.932 459.904 182.388 459.904H181.232V459.054L185.992 457.966H186.876V471.702C186.876 472.201 186.99 472.563 187.216 472.79C187.443 472.994 187.84 473.096 188.406 473.096H189.664V473.946L184.802 475.102H183.952V471.328C183.408 472.575 182.649 473.549 181.674 474.252C180.7 474.932 179.589 475.272 178.342 475.272Z" fill="white"/>
<path d="M216.069 475L209.745 458.918V458.068H215.797V458.918C214.935 459.009 214.323 459.224 213.961 459.564C213.621 459.904 213.564 460.403 213.791 461.06L218.075 472.756L217.123 473.436L221.645 461.026C221.781 460.663 221.803 460.335 221.713 460.04C221.645 459.723 221.463 459.473 221.169 459.292C220.874 459.088 220.432 458.963 219.843 458.918V458.068H225.045V458.918C224.614 458.963 224.217 459.19 223.855 459.598C223.492 459.983 223.175 460.505 222.903 461.162L217.497 475H216.069ZM205.869 475L200.463 461.162C200.236 460.55 199.907 460.04 199.477 459.632C199.069 459.201 198.593 458.963 198.049 458.918V458.068H205.597V458.918C204.758 459.009 204.157 459.224 203.795 459.564C203.432 459.904 203.375 460.403 203.625 461.06L207.909 472.756L206.957 473.436L211.343 461.604L212.227 462.624L207.331 475H205.869Z" fill="white"/>
<path d="M234.435 475.272C232.848 475.272 231.443 474.921 230.219 474.218C228.995 473.515 228.043 472.541 227.363 471.294C226.705 470.025 226.377 468.563 226.377 466.908C226.377 465.503 226.592 464.245 227.023 463.134C227.453 462.001 228.043 461.037 228.791 460.244C229.561 459.451 230.445 458.85 231.443 458.442C232.463 458.011 233.551 457.796 234.707 457.796C235.817 457.796 236.781 457.977 237.597 458.34C238.435 458.703 239.127 459.213 239.671 459.87C240.237 460.527 240.645 461.287 240.895 462.148C241.144 463.009 241.246 463.95 241.201 464.97H228.893V463.882H236.781C237.053 463.882 237.279 463.837 237.461 463.746C237.642 463.633 237.778 463.474 237.869 463.27C237.982 463.066 238.039 462.828 238.039 462.556C238.039 461.536 237.721 460.675 237.087 459.972C236.452 459.247 235.579 458.884 234.469 458.884C233.721 458.884 233.029 459.054 232.395 459.394C231.76 459.711 231.216 460.176 230.763 460.788C230.309 461.4 229.958 462.125 229.709 462.964C229.459 463.803 229.335 464.732 229.335 465.752C229.335 467.248 229.584 468.551 230.083 469.662C230.581 470.773 231.284 471.634 232.191 472.246C233.12 472.835 234.219 473.13 235.489 473.13C236.803 473.13 237.903 472.779 238.787 472.076C239.671 471.373 240.317 470.387 240.725 469.118H241.575C241.144 471.113 240.328 472.643 239.127 473.708C237.948 474.751 236.384 475.272 234.435 475.272Z" fill="white"/>
<path d="M249.583 475.272C248.721 475.272 247.905 475.102 247.135 474.762C246.387 474.422 245.775 473.923 245.299 473.266C244.845 472.609 244.619 471.827 244.619 470.92C244.619 470.104 244.789 469.39 245.129 468.778C245.491 468.166 246.092 467.622 246.931 467.146C247.792 466.647 248.982 466.137 250.501 465.616L253.323 464.698C253.844 464.494 254.207 464.211 254.411 463.848C254.637 463.485 254.751 463.055 254.751 462.556L255.057 465.208L251.555 466.432C250.376 466.863 249.435 467.373 248.733 467.962C248.03 468.529 247.679 469.322 247.679 470.342C247.679 470.999 247.826 471.555 248.121 472.008C248.415 472.461 248.789 472.801 249.243 473.028C249.719 473.232 250.217 473.334 250.739 473.334C251.351 473.334 251.963 473.164 252.575 472.824C253.209 472.461 253.731 471.951 254.139 471.294C254.547 470.637 254.751 469.866 254.751 468.982L255.057 470.58C254.83 471.668 254.433 472.563 253.867 473.266C253.323 473.946 252.665 474.456 251.895 474.796C251.147 475.113 250.376 475.272 249.583 475.272ZM254.751 462.522C254.751 461.343 254.411 460.437 253.731 459.802C253.073 459.167 252.201 458.85 251.113 458.85C250.07 458.85 249.265 459.099 248.699 459.598C248.155 460.074 247.883 460.629 247.883 461.264C247.883 461.536 247.905 461.763 247.951 461.944C247.996 462.103 248.019 462.307 248.019 462.556C248.019 462.987 247.86 463.338 247.543 463.61C247.225 463.859 246.851 463.984 246.421 463.984C245.967 463.984 245.593 463.837 245.299 463.542C245.027 463.247 244.891 462.873 244.891 462.42C244.891 461.604 245.174 460.845 245.741 460.142C246.307 459.439 247.078 458.873 248.053 458.442C249.05 458.011 250.183 457.796 251.453 457.796C252.699 457.796 253.787 458 254.717 458.408C255.646 458.816 256.371 459.417 256.893 460.21C257.414 461.003 257.675 461.967 257.675 463.1V472.076C257.675 472.461 257.777 472.779 257.981 473.028C258.207 473.255 258.468 473.368 258.763 473.368C258.989 473.368 259.227 473.266 259.477 473.062C259.749 472.835 259.941 472.45 260.055 471.906H260.939C260.848 472.79 260.599 473.481 260.191 473.98C259.805 474.479 259.375 474.819 258.899 475C258.423 475.181 257.981 475.272 257.573 475.272C257.119 475.272 256.666 475.17 256.213 474.966C255.782 474.762 255.431 474.445 255.159 474.014C254.887 473.561 254.751 472.971 254.751 472.246V462.522Z" fill="white"/>
<path d="M267.886 461.57C268.294 460.323 268.883 459.383 269.654 458.748C270.447 458.113 271.252 457.796 272.068 457.796C272.816 457.796 273.416 458 273.87 458.408C274.346 458.816 274.584 459.281 274.584 459.802C274.584 460.255 274.436 460.629 274.142 460.924C273.847 461.219 273.484 461.366 273.054 461.366C272.736 461.366 272.476 461.287 272.272 461.128C272.09 460.969 271.943 460.799 271.83 460.618C271.739 460.437 271.614 460.267 271.456 460.108C271.32 459.949 271.104 459.87 270.81 459.87C270.311 459.87 269.835 460.108 269.382 460.584C268.951 461.06 268.588 461.672 268.294 462.42C268.022 463.168 267.886 463.95 267.886 464.766V472.008C267.886 472.733 268.158 473.243 268.702 473.538C269.246 473.833 270.096 474.037 271.252 474.15V475H262.446V474.15C263.375 474.037 264.021 473.821 264.384 473.504C264.769 473.164 264.962 472.665 264.962 472.008V461.332C264.962 460.856 264.837 460.505 264.588 460.278C264.361 460.029 263.976 459.904 263.432 459.904H262.276V459.054L267.036 457.966H267.886V461.57Z" fill="white"/>
<path d="M292.804 475.272C291.218 475.272 289.812 474.921 288.588 474.218C287.364 473.515 286.412 472.541 285.732 471.294C285.075 470.025 284.746 468.563 284.746 466.908C284.746 465.503 284.962 464.245 285.392 463.134C285.823 462.001 286.412 461.037 287.16 460.244C287.931 459.451 288.815 458.85 289.812 458.442C290.832 458.011 291.92 457.796 293.076 457.796C294.187 457.796 295.15 457.977 295.966 458.34C296.805 458.703 297.496 459.213 298.04 459.87C298.607 460.527 299.015 461.287 299.264 462.148C299.514 463.009 299.616 463.95 299.57 464.97H287.262V463.882H295.15C295.422 463.882 295.649 463.837 295.83 463.746C296.012 463.633 296.148 463.474 296.238 463.27C296.352 463.066 296.408 462.828 296.408 462.556C296.408 461.536 296.091 460.675 295.456 459.972C294.822 459.247 293.949 458.884 292.838 458.884C292.09 458.884 291.399 459.054 290.764 459.394C290.13 459.711 289.586 460.176 289.132 460.788C288.679 461.4 288.328 462.125 288.078 462.964C287.829 463.803 287.704 464.732 287.704 465.752C287.704 467.248 287.954 468.551 288.452 469.662C288.951 470.773 289.654 471.634 290.56 472.246C291.49 472.835 292.589 473.13 293.858 473.13C295.173 473.13 296.272 472.779 297.156 472.076C298.04 471.373 298.686 470.387 299.094 469.118H299.944C299.514 471.113 298.698 472.643 297.496 473.708C296.318 474.751 294.754 475.272 292.804 475.272Z" fill="white"/>
<path d="M309.252 475L303.608 461.162C303.359 460.55 303.019 460.04 302.588 459.632C302.158 459.201 301.648 458.963 301.058 458.918V458.068H308.878V458.918C307.972 459.009 307.337 459.224 306.974 459.564C306.612 459.904 306.555 460.403 306.804 461.06L311.292 472.79L310.374 473.47L315.066 461.026C315.316 460.414 315.27 459.927 314.93 459.564C314.613 459.179 314.024 458.963 313.162 458.918V458.068H318.534V458.918C318.104 458.963 317.696 459.179 317.31 459.564C316.948 459.949 316.619 460.482 316.324 461.162L310.68 475H309.252Z" fill="white"/>
<path d="M327.916 475.272C326.329 475.272 324.924 474.921 323.7 474.218C322.476 473.515 321.524 472.541 320.844 471.294C320.187 470.025 319.858 468.563 319.858 466.908C319.858 465.503 320.073 464.245 320.504 463.134C320.935 462.001 321.524 461.037 322.272 460.244C323.043 459.451 323.927 458.85 324.924 458.442C325.944 458.011 327.032 457.796 328.188 457.796C329.299 457.796 330.262 457.977 331.078 458.34C331.917 458.703 332.608 459.213 333.152 459.87C333.719 460.527 334.127 461.287 334.376 462.148C334.625 463.009 334.727 463.95 334.682 464.97H322.374V463.882H330.262C330.534 463.882 330.761 463.837 330.942 463.746C331.123 463.633 331.259 463.474 331.35 463.27C331.463 463.066 331.52 462.828 331.52 462.556C331.52 461.536 331.203 460.675 330.568 459.972C329.933 459.247 329.061 458.884 327.95 458.884C327.202 458.884 326.511 459.054 325.876 459.394C325.241 459.711 324.697 460.176 324.244 460.788C323.791 461.4 323.439 462.125 323.19 462.964C322.941 463.803 322.816 464.732 322.816 465.752C322.816 467.248 323.065 468.551 323.564 469.662C324.063 470.773 324.765 471.634 325.672 472.246C326.601 472.835 327.701 473.13 328.97 473.13C330.285 473.13 331.384 472.779 332.268 472.076C333.152 471.373 333.798 470.387 334.206 469.118H335.056C334.625 471.113 333.809 472.643 332.608 473.708C331.429 474.751 329.865 475.272 327.916 475.272Z" fill="white"/>
<path d="M343.064 461.57C343.472 460.323 344.061 459.383 344.832 458.748C345.625 458.113 346.43 457.796 347.246 457.796C347.994 457.796 348.595 458 349.048 458.408C349.524 458.816 349.762 459.281 349.762 459.802C349.762 460.255 349.615 460.629 349.32 460.924C349.025 461.219 348.663 461.366 348.232 461.366C347.915 461.366 347.654 461.287 347.45 461.128C347.269 460.969 347.121 460.799 347.008 460.618C346.917 460.437 346.793 460.267 346.634 460.108C346.498 459.949 346.283 459.87 345.988 459.87C345.489 459.87 345.013 460.108 344.56 460.584C344.129 461.06 343.767 461.672 343.472 462.42C343.2 463.168 343.064 463.95 343.064 464.766V472.008C343.064 472.733 343.336 473.243 343.88 473.538C344.424 473.833 345.274 474.037 346.43 474.15V475H337.624V474.15C338.553 474.037 339.199 473.821 339.562 473.504C339.947 473.164 340.14 472.665 340.14 472.008V461.332C340.14 460.856 340.015 460.505 339.766 460.278C339.539 460.029 339.154 459.904 338.61 459.904H337.454V459.054L342.214 457.966H343.064V461.57Z" fill="white"/>
<path d="M354.524 481.63C353.663 481.63 352.949 481.426 352.382 481.018C351.816 480.61 351.532 480.123 351.532 479.556C351.532 479.125 351.691 478.751 352.008 478.434C352.326 478.117 352.7 477.958 353.13 477.958C353.47 477.958 353.731 478.015 353.912 478.128C354.116 478.264 354.286 478.411 354.422 478.57C354.581 478.751 354.774 478.91 355 479.046C355.227 479.182 355.533 479.25 355.918 479.25C356.644 479.25 357.233 478.967 357.686 478.4C358.14 477.833 358.536 477.131 358.876 476.292L364.962 461.026C365.212 460.414 365.166 459.927 364.826 459.564C364.509 459.179 363.908 458.963 363.024 458.918V458.068H368.43V458.918C367.977 458.963 367.569 459.179 367.206 459.564C366.844 459.949 366.515 460.482 366.22 461.162L359.896 476.564C359.647 477.176 359.364 477.777 359.046 478.366C358.729 478.978 358.355 479.522 357.924 479.998C357.494 480.497 356.995 480.893 356.428 481.188C355.862 481.483 355.227 481.63 354.524 481.63ZM359.59 475.544L353.402 461.162C353.153 460.55 352.813 460.04 352.382 459.632C351.952 459.201 351.453 458.963 350.886 458.918V458.068H358.672V458.918C357.788 459.009 357.154 459.224 356.768 459.564C356.383 459.904 356.326 460.403 356.598 461.06L361.086 472.042L359.59 475.544Z" fill="white"/>
<path d="M376.979 475V474.15C378.067 474.014 378.793 473.799 379.155 473.504C379.541 473.187 379.733 472.699 379.733 472.042V453.546C379.733 453.047 379.62 452.696 379.393 452.492C379.167 452.265 378.781 452.152 378.237 452.152H377.047V451.302L381.807 450.214H382.657V461.672C382.997 460.833 383.462 460.131 384.051 459.564C384.663 458.997 385.355 458.567 386.125 458.272C386.896 457.955 387.689 457.796 388.505 457.796C389.616 457.796 390.568 458.034 391.361 458.51C392.177 458.963 392.801 459.621 393.231 460.482C393.685 461.343 393.911 462.352 393.911 463.508V472.042C393.911 472.654 394.104 473.13 394.489 473.47C394.875 473.787 395.611 474.014 396.699 474.15V475H388.335V474.15C389.355 474.014 390.047 473.799 390.409 473.504C390.795 473.187 390.987 472.699 390.987 472.042V463.61C390.987 462.431 390.67 461.502 390.035 460.822C389.401 460.142 388.449 459.802 387.179 459.802C386.522 459.802 385.842 459.995 385.139 460.38C384.437 460.765 383.847 461.309 383.371 462.012C382.895 462.692 382.657 463.519 382.657 464.494V472.042C382.657 472.699 382.85 473.187 383.235 473.504C383.643 473.799 384.346 474.014 385.343 474.15V475H376.979Z" fill="white"/>
<path d="M403.891 475.272C403.03 475.272 402.214 475.102 401.443 474.762C400.695 474.422 400.083 473.923 399.607 473.266C399.154 472.609 398.927 471.827 398.927 470.92C398.927 470.104 399.097 469.39 399.437 468.778C399.8 468.166 400.4 467.622 401.239 467.146C402.1 466.647 403.29 466.137 404.809 465.616L407.631 464.698C408.152 464.494 408.515 464.211 408.719 463.848C408.946 463.485 409.059 463.055 409.059 462.556L409.365 465.208L405.863 466.432C404.684 466.863 403.744 467.373 403.041 467.962C402.338 468.529 401.987 469.322 401.987 470.342C401.987 470.999 402.134 471.555 402.429 472.008C402.724 472.461 403.098 472.801 403.551 473.028C404.027 473.232 404.526 473.334 405.047 473.334C405.659 473.334 406.271 473.164 406.883 472.824C407.518 472.461 408.039 471.951 408.447 471.294C408.855 470.637 409.059 469.866 409.059 468.982L409.365 470.58C409.138 471.668 408.742 472.563 408.175 473.266C407.631 473.946 406.974 474.456 406.203 474.796C405.455 475.113 404.684 475.272 403.891 475.272ZM409.059 462.522C409.059 461.343 408.719 460.437 408.039 459.802C407.382 459.167 406.509 458.85 405.421 458.85C404.378 458.85 403.574 459.099 403.007 459.598C402.463 460.074 402.191 460.629 402.191 461.264C402.191 461.536 402.214 461.763 402.259 461.944C402.304 462.103 402.327 462.307 402.327 462.556C402.327 462.987 402.168 463.338 401.851 463.61C401.534 463.859 401.16 463.984 400.729 463.984C400.276 463.984 399.902 463.837 399.607 463.542C399.335 463.247 399.199 462.873 399.199 462.42C399.199 461.604 399.482 460.845 400.049 460.142C400.616 459.439 401.386 458.873 402.361 458.442C403.358 458.011 404.492 457.796 405.761 457.796C407.008 457.796 408.096 458 409.025 458.408C409.954 458.816 410.68 459.417 411.201 460.21C411.722 461.003 411.983 461.967 411.983 463.1V472.076C411.983 472.461 412.085 472.779 412.289 473.028C412.516 473.255 412.776 473.368 413.071 473.368C413.298 473.368 413.536 473.266 413.785 473.062C414.057 472.835 414.25 472.45 414.363 471.906H415.247C415.156 472.79 414.907 473.481 414.499 473.98C414.114 474.479 413.683 474.819 413.207 475C412.731 475.181 412.289 475.272 411.881 475.272C411.428 475.272 410.974 475.17 410.521 474.966C410.09 474.762 409.739 474.445 409.467 474.014C409.195 473.561 409.059 472.971 409.059 472.246V462.522Z" fill="white"/>
<path d="M426.274 471.43H427.124C427.033 472.133 426.806 472.779 426.444 473.368C426.081 473.935 425.605 474.399 425.016 474.762C424.449 475.102 423.803 475.272 423.078 475.272C422.239 475.272 421.491 475.113 420.834 474.796C420.199 474.479 419.7 474.003 419.338 473.368C418.998 472.711 418.828 471.883 418.828 470.886V459.564H415.972V458.68C416.606 458.612 417.196 458.453 417.74 458.204C418.284 457.955 418.771 457.649 419.202 457.286C419.655 456.923 420.029 456.515 420.324 456.062C420.618 455.586 420.834 455.065 420.97 454.498H421.82V458.068H426.41V459.564H421.786V470.682C421.786 471.249 421.865 471.736 422.024 472.144C422.205 472.552 422.466 472.869 422.806 473.096C423.146 473.3 423.542 473.402 423.996 473.402C424.54 473.402 425.016 473.221 425.424 472.858C425.854 472.495 426.138 472.019 426.274 471.43Z" fill="white"/>
<path d="M442.895 475.272C442.034 475.272 441.218 475.102 440.447 474.762C439.699 474.422 439.087 473.923 438.611 473.266C438.158 472.609 437.931 471.827 437.931 470.92C437.931 470.104 438.101 469.39 438.441 468.778C438.804 468.166 439.405 467.622 440.243 467.146C441.105 466.647 442.295 466.137 443.813 465.616L446.635 464.698C447.157 464.494 447.519 464.211 447.723 463.848C447.95 463.485 448.063 463.055 448.063 462.556L448.369 465.208L444.867 466.432C443.689 466.863 442.748 467.373 442.045 467.962C441.343 468.529 440.991 469.322 440.991 470.342C440.991 470.999 441.139 471.555 441.433 472.008C441.728 472.461 442.102 472.801 442.555 473.028C443.031 473.232 443.53 473.334 444.051 473.334C444.663 473.334 445.275 473.164 445.887 472.824C446.522 472.461 447.043 471.951 447.451 471.294C447.859 470.637 448.063 469.866 448.063 468.982L448.369 470.58C448.143 471.668 447.746 472.563 447.179 473.266C446.635 473.946 445.978 474.456 445.207 474.796C444.459 475.113 443.689 475.272 442.895 475.272ZM448.063 462.522C448.063 461.343 447.723 460.437 447.043 459.802C446.386 459.167 445.513 458.85 444.425 458.85C443.383 458.85 442.578 459.099 442.011 459.598C441.467 460.074 441.195 460.629 441.195 461.264C441.195 461.536 441.218 461.763 441.263 461.944C441.309 462.103 441.331 462.307 441.331 462.556C441.331 462.987 441.173 463.338 440.855 463.61C440.538 463.859 440.164 463.984 439.733 463.984C439.28 463.984 438.906 463.837 438.611 463.542C438.339 463.247 438.203 462.873 438.203 462.42C438.203 461.604 438.487 460.845 439.053 460.142C439.62 459.439 440.391 458.873 441.365 458.442C442.363 458.011 443.496 457.796 444.765 457.796C446.012 457.796 447.1 458 448.029 458.408C448.959 458.816 449.684 459.417 450.205 460.21C450.727 461.003 450.987 461.967 450.987 463.1V472.076C450.987 472.461 451.089 472.779 451.293 473.028C451.52 473.255 451.781 473.368 452.075 473.368C452.302 473.368 452.54 473.266 452.789 473.062C453.061 472.835 453.254 472.45 453.367 471.906H454.251C454.161 472.79 453.911 473.481 453.503 473.98C453.118 474.479 452.687 474.819 452.211 475C451.735 475.181 451.293 475.272 450.885 475.272C450.432 475.272 449.979 475.17 449.525 474.966C449.095 474.762 448.743 474.445 448.471 474.014C448.199 473.561 448.063 472.971 448.063 472.246V462.522Z" fill="white"/>
<path d="M461.266 461.672C461.765 460.425 462.547 459.473 463.612 458.816C464.678 458.136 465.856 457.796 467.148 457.796C468.236 457.796 469.177 458.034 469.97 458.51C470.786 458.963 471.41 459.621 471.84 460.482C472.294 461.343 472.52 462.352 472.52 463.508V472.042C472.52 472.654 472.713 473.13 473.098 473.47C473.484 473.787 474.22 474.014 475.308 474.15V475H466.944V474.15C467.964 474.014 468.655 473.799 469.018 473.504C469.403 473.187 469.596 472.699 469.596 472.042V463.746C469.596 462.499 469.279 461.536 468.644 460.856C468.009 460.153 467.069 459.802 465.822 459.802C465.142 459.802 464.451 459.995 463.748 460.38C463.046 460.765 462.456 461.309 461.98 462.012C461.504 462.692 461.266 463.519 461.266 464.494V472.042C461.266 472.699 461.459 473.187 461.844 473.504C462.252 473.799 462.955 474.014 463.952 474.15V475H455.588V474.15C456.676 474.014 457.401 473.799 457.764 473.504C458.149 473.187 458.342 472.699 458.342 472.042V461.332C458.342 460.856 458.218 460.505 457.968 460.278C457.742 460.029 457.356 459.904 456.812 459.904H455.656V459.054L460.416 457.966H461.266V461.672Z" fill="white"/>
<path d="M484.257 475.272C482.874 475.272 481.661 474.898 480.619 474.15C479.576 473.402 478.76 472.382 478.171 471.09C477.604 469.775 477.321 468.291 477.321 466.636C477.321 465.299 477.525 464.097 477.933 463.032C478.341 461.944 478.907 461.015 479.633 460.244C480.381 459.451 481.242 458.85 482.217 458.442C483.191 458.011 484.234 457.796 485.345 457.796C486.319 457.796 487.237 457.966 488.099 458.306C488.983 458.623 489.753 459.077 490.411 459.666C491.068 460.233 491.555 460.913 491.873 461.706L490.173 464.528C490.173 463.689 490.059 462.941 489.833 462.284C489.629 461.604 489.323 461.015 488.915 460.516C488.529 460.017 488.053 459.643 487.487 459.394C486.943 459.122 486.342 458.986 485.685 458.986C484.891 458.986 484.177 459.167 483.543 459.53C482.908 459.893 482.353 460.403 481.877 461.06C481.423 461.717 481.072 462.499 480.823 463.406C480.573 464.313 480.449 465.299 480.449 466.364C480.449 467.747 480.653 468.971 481.061 470.036C481.469 471.101 482.047 471.94 482.795 472.552C483.543 473.141 484.415 473.436 485.413 473.436C486.365 473.436 487.192 473.153 487.895 472.586C488.62 472.019 489.175 471.305 489.561 470.444C489.969 469.56 490.173 468.653 490.173 467.724L490.309 470.376C490.105 471.305 489.731 472.144 489.187 472.892C488.643 473.617 487.951 474.195 487.113 474.626C486.274 475.057 485.322 475.272 484.257 475.272ZM490.173 475.102V453.546C490.173 453.047 490.059 452.696 489.833 452.492C489.606 452.265 489.221 452.152 488.677 452.152H487.487V451.302L492.247 450.214H493.097V471.702C493.097 472.201 493.21 472.563 493.437 472.79C493.686 472.994 494.094 473.096 494.661 473.096H495.885V473.946L491.057 475.102H490.173Z" fill="white"/>
<path d="M511.726 461.672C512.179 460.493 512.938 459.553 514.004 458.85C515.069 458.147 516.259 457.796 517.574 457.796C518.39 457.796 519.138 457.955 519.818 458.272C520.498 458.567 521.076 459.02 521.552 459.632C522.028 460.244 522.345 460.992 522.504 461.876C523.07 460.539 523.886 459.53 524.952 458.85C526.017 458.147 527.184 457.796 528.454 457.796C529.496 457.796 530.392 458.034 531.14 458.51C531.91 458.963 532.5 459.609 532.908 460.448C533.316 461.287 533.52 462.284 533.52 463.44V472.042C533.52 472.609 533.69 473.073 534.03 473.436C534.392 473.776 535.129 474.014 536.24 474.15V475H528.08V474.15C529.122 474.014 529.802 473.787 530.12 473.47C530.46 473.13 530.63 472.654 530.63 472.042V463.542C530.63 462.295 530.278 461.355 529.576 460.72C528.896 460.063 528.068 459.734 527.094 459.734C526.323 459.734 525.586 459.938 524.884 460.346C524.204 460.754 523.66 461.298 523.252 461.978C522.844 462.658 522.64 463.429 522.64 464.29V471.974C522.64 472.654 522.832 473.164 523.218 473.504C523.603 473.821 524.249 474.037 525.156 474.15V475H517.098V474.15C518.095 474.037 518.775 473.821 519.138 473.504C519.523 473.164 519.716 472.654 519.716 471.974V463.542C519.716 462.273 519.376 461.321 518.696 460.686C518.016 460.051 517.188 459.734 516.214 459.734C515.42 459.734 514.684 459.938 514.004 460.346C513.324 460.754 512.768 461.309 512.338 462.012C511.93 462.692 511.726 463.451 511.726 464.29V471.974C511.726 472.631 511.907 473.13 512.27 473.47C512.655 473.81 513.346 474.037 514.344 474.15V475H506.048V474.15C507.181 474.037 507.918 473.799 508.258 473.436C508.62 473.051 508.802 472.563 508.802 471.974V461.332C508.802 460.856 508.677 460.505 508.428 460.278C508.201 460.029 507.816 459.904 507.272 459.904H506.116V459.054L510.876 457.966H511.726V461.672Z" fill="white"/>
<path d="M543.541 475.272C542.679 475.272 541.863 475.102 541.093 474.762C540.345 474.422 539.733 473.923 539.257 473.266C538.803 472.609 538.577 471.827 538.577 470.92C538.577 470.104 538.747 469.39 539.087 468.778C539.449 468.166 540.05 467.622 540.889 467.146C541.75 466.647 542.94 466.137 544.459 465.616L547.281 464.698C547.802 464.494 548.165 464.211 548.369 463.848C548.595 463.485 548.709 463.055 548.709 462.556L549.015 465.208L545.513 466.432C544.334 466.863 543.393 467.373 542.691 467.962C541.988 468.529 541.637 469.322 541.637 470.342C541.637 470.999 541.784 471.555 542.079 472.008C542.373 472.461 542.747 472.801 543.201 473.028C543.677 473.232 544.175 473.334 544.697 473.334C545.309 473.334 545.921 473.164 546.533 472.824C547.167 472.461 547.689 471.951 548.097 471.294C548.505 470.637 548.709 469.866 548.709 468.982L549.015 470.58C548.788 471.668 548.391 472.563 547.825 473.266C547.281 473.946 546.623 474.456 545.853 474.796C545.105 475.113 544.334 475.272 543.541 475.272ZM548.709 462.522C548.709 461.343 548.369 460.437 547.689 459.802C547.031 459.167 546.159 458.85 545.071 458.85C544.028 458.85 543.223 459.099 542.657 459.598C542.113 460.074 541.841 460.629 541.841 461.264C541.841 461.536 541.863 461.763 541.909 461.944C541.954 462.103 541.977 462.307 541.977 462.556C541.977 462.987 541.818 463.338 541.501 463.61C541.183 463.859 540.809 463.984 540.379 463.984C539.925 463.984 539.551 463.837 539.257 463.542C538.985 463.247 538.849 462.873 538.849 462.42C538.849 461.604 539.132 460.845 539.699 460.142C540.265 459.439 541.036 458.873 542.011 458.442C543.008 458.011 544.141 457.796 545.411 457.796C546.657 457.796 547.745 458 548.675 458.408C549.604 458.816 550.329 459.417 550.851 460.21C551.372 461.003 551.633 461.967 551.633 463.1V472.076C551.633 472.461 551.735 472.779 551.939 473.028C552.165 473.255 552.426 473.368 552.721 473.368C552.947 473.368 553.185 473.266 553.435 473.062C553.707 472.835 553.899 472.45 554.013 471.906H554.897C554.806 472.79 554.557 473.481 554.149 473.98C553.763 474.479 553.333 474.819 552.857 475C552.381 475.181 551.939 475.272 551.531 475.272C551.077 475.272 550.624 475.17 550.171 474.966C549.74 474.762 549.389 474.445 549.117 474.014C548.845 473.561 548.709 472.971 548.709 472.246V462.522Z" fill="white"/>
<path d="M569.698 475L561.062 465.48L567.589 460.652C567.952 460.38 568.145 460.119 568.167 459.87C568.19 459.621 568.054 459.417 567.76 459.258C567.488 459.099 567.034 459.009 566.399 458.986V458.068H573.777V458.986C572.984 459.009 572.191 459.235 571.398 459.666C570.604 460.097 569.663 460.675 568.576 461.4L562.388 465.65L563.271 464.222L570.649 471.498C571.125 471.974 571.579 472.405 572.01 472.79C572.463 473.153 572.973 473.459 573.539 473.708C574.106 473.935 574.82 474.082 575.682 474.15V475H569.698ZM555.792 475V474.15C556.812 474.014 557.525 473.787 557.933 473.47C558.341 473.153 558.545 472.643 558.545 471.94V453.58C558.545 453.059 558.421 452.696 558.172 452.492C557.945 452.265 557.571 452.152 557.049 452.152H555.859V451.302L560.62 450.214H561.469V471.94C561.469 472.62 561.673 473.13 562.081 473.47C562.512 473.787 563.226 474.014 564.224 474.15V475H555.792Z" fill="white"/>
<path d="M583.733 475.272C582.146 475.272 580.741 474.921 579.517 474.218C578.293 473.515 577.341 472.541 576.661 471.294C576.003 470.025 575.675 468.563 575.675 466.908C575.675 465.503 575.89 464.245 576.321 463.134C576.752 462.001 577.341 461.037 578.089 460.244C578.86 459.451 579.744 458.85 580.741 458.442C581.761 458.011 582.849 457.796 584.005 457.796C585.115 457.796 586.079 457.977 586.895 458.34C587.734 458.703 588.425 459.213 588.969 459.87C589.536 460.527 589.944 461.287 590.193 462.148C590.442 463.009 590.544 463.95 590.499 464.97H578.191V463.882H586.079C586.351 463.882 586.578 463.837 586.759 463.746C586.94 463.633 587.076 463.474 587.167 463.27C587.28 463.066 587.337 462.828 587.337 462.556C587.337 461.536 587.019 460.675 586.385 459.972C585.75 459.247 584.878 458.884 583.767 458.884C583.019 458.884 582.328 459.054 581.693 459.394C581.058 459.711 580.514 460.176 580.061 460.788C579.608 461.4 579.256 462.125 579.007 462.964C578.758 463.803 578.633 464.732 578.633 465.752C578.633 467.248 578.882 468.551 579.381 469.662C579.88 470.773 580.582 471.634 581.489 472.246C582.418 472.835 583.518 473.13 584.787 473.13C586.102 473.13 587.201 472.779 588.085 472.076C588.969 471.373 589.615 470.387 590.023 469.118H590.873C590.442 471.113 589.626 472.643 588.425 473.708C587.246 474.751 585.682 475.272 583.733 475.272Z" fill="white"/>
<path d="M601.712 475V474.15C602.755 474.014 603.48 473.787 603.888 473.47C604.296 473.153 604.5 472.643 604.5 471.94V461.332C604.5 460.833 604.376 460.471 604.126 460.244C603.877 460.017 603.48 459.904 602.936 459.904H601.78V459.054L606.54 457.966H607.39V471.94C607.39 472.62 607.594 473.13 608.002 473.47C608.433 473.787 609.158 474.014 610.178 474.15V475H601.712ZM605.962 454.974C605.441 454.974 604.988 454.793 604.602 454.43C604.24 454.045 604.058 453.591 604.058 453.07C604.058 452.707 604.138 452.39 604.296 452.118C604.478 451.823 604.716 451.597 605.01 451.438C605.305 451.257 605.622 451.166 605.962 451.166C606.506 451.166 606.96 451.347 607.322 451.71C607.685 452.073 607.866 452.526 607.866 453.07C607.866 453.41 607.776 453.727 607.594 454.022C607.436 454.317 607.209 454.555 606.914 454.736C606.642 454.895 606.325 454.974 605.962 454.974Z" fill="white"/>
<path d="M621.67 471.43H622.52C622.43 472.133 622.203 472.779 621.84 473.368C621.478 473.935 621.002 474.399 620.412 474.762C619.846 475.102 619.2 475.272 618.474 475.272C617.636 475.272 616.888 475.113 616.23 474.796C615.596 474.479 615.097 474.003 614.734 473.368C614.394 472.711 614.224 471.883 614.224 470.886V459.564H611.368V458.68C612.003 458.612 612.592 458.453 613.136 458.204C613.68 457.955 614.168 457.649 614.598 457.286C615.052 456.923 615.426 456.515 615.72 456.062C616.015 455.586 616.23 455.065 616.366 454.498H617.216V458.068H621.806V459.564H617.182V470.682C617.182 471.249 617.262 471.736 617.42 472.144C617.602 472.552 617.862 472.869 618.202 473.096C618.542 473.3 618.939 473.402 619.392 473.402C619.936 473.402 620.412 473.221 620.82 472.858C621.251 472.495 621.534 472.019 621.67 471.43Z" fill="white"/>
<path d="M632.24 475V474.15C633.26 474.014 633.974 473.787 634.382 473.47C634.812 473.153 635.028 472.643 635.028 471.94V453.58C635.028 453.059 634.903 452.696 634.654 452.492C634.427 452.265 634.042 452.152 633.498 452.152H632.308V451.302L637.068 450.214H637.918V471.94C637.918 472.62 638.122 473.13 638.53 473.47C638.96 473.787 639.686 474.014 640.706 474.15V475H632.24Z" fill="white"/>
<path d="M651.29 475.272C649.658 475.272 648.207 474.898 646.938 474.15C645.691 473.402 644.705 472.371 643.98 471.056C643.254 469.741 642.892 468.223 642.892 466.5C642.892 465.231 643.096 464.063 643.504 462.998C643.912 461.933 644.49 461.015 645.238 460.244C645.986 459.451 646.87 458.85 647.89 458.442C648.91 458.011 650.043 457.796 651.29 457.796C652.944 457.796 654.395 458.17 655.642 458.918C656.888 459.643 657.863 460.663 658.566 461.978C659.268 463.27 659.62 464.777 659.62 466.5C659.62 467.792 659.416 468.982 659.008 470.07C658.6 471.135 658.022 472.065 657.274 472.858C656.548 473.629 655.676 474.229 654.656 474.66C653.636 475.068 652.514 475.272 651.29 475.272ZM651.29 474.15C651.902 474.15 652.468 474.037 652.99 473.81C653.534 473.583 654.01 473.255 654.418 472.824C654.826 472.371 655.177 471.838 655.472 471.226C655.766 470.591 655.982 469.877 656.118 469.084C656.276 468.291 656.356 467.429 656.356 466.5C656.356 464.959 656.152 463.621 655.744 462.488C655.336 461.355 654.746 460.482 653.976 459.87C653.228 459.235 652.332 458.918 651.29 458.918C650.655 458.918 650.066 459.031 649.522 459.258C649 459.485 648.524 459.825 648.094 460.278C647.686 460.709 647.334 461.241 647.04 461.876C646.745 462.488 646.518 463.191 646.36 463.984C646.224 464.755 646.156 465.593 646.156 466.5C646.156 468.041 646.36 469.39 646.768 470.546C647.198 471.702 647.788 472.597 648.536 473.232C649.306 473.844 650.224 474.15 651.29 474.15Z" fill="white"/>
<path d="M671.054 475.272C669.422 475.272 667.971 474.898 666.702 474.15C665.455 473.402 664.469 472.371 663.744 471.056C663.018 469.741 662.656 468.223 662.656 466.5C662.656 465.231 662.86 464.063 663.268 462.998C663.676 461.933 664.254 461.015 665.002 460.244C665.75 459.451 666.634 458.85 667.654 458.442C668.674 458.011 669.807 457.796 671.054 457.796C672.708 457.796 674.159 458.17 675.406 458.918C676.652 459.643 677.627 460.663 678.33 461.978C679.032 463.27 679.384 464.777 679.384 466.5C679.384 467.792 679.18 468.982 678.772 470.07C678.364 471.135 677.786 472.065 677.038 472.858C676.312 473.629 675.44 474.229 674.42 474.66C673.4 475.068 672.278 475.272 671.054 475.272ZM671.054 474.15C671.666 474.15 672.232 474.037 672.754 473.81C673.298 473.583 673.774 473.255 674.182 472.824C674.59 472.371 674.941 471.838 675.236 471.226C675.53 470.591 675.746 469.877 675.882 469.084C676.04 468.291 676.12 467.429 676.12 466.5C676.12 464.959 675.916 463.621 675.508 462.488C675.1 461.355 674.51 460.482 673.74 459.87C672.992 459.235 672.096 458.918 671.054 458.918C670.419 458.918 669.83 459.031 669.286 459.258C668.764 459.485 668.288 459.825 667.858 460.278C667.45 460.709 667.098 461.241 666.804 461.876C666.509 462.488 666.282 463.191 666.124 463.984C665.988 464.755 665.92 465.593 665.92 466.5C665.92 468.041 666.124 469.39 666.532 470.546C666.962 471.702 667.552 472.597 668.3 473.232C669.07 473.844 669.988 474.15 671.054 474.15Z" fill="white"/>
<path d="M695.509 475L686.873 465.48L693.401 460.652C693.764 460.38 693.957 460.119 693.979 459.87C694.002 459.621 693.866 459.417 693.571 459.258C693.299 459.099 692.846 459.009 692.211 458.986V458.068H699.589V458.986C698.796 459.009 698.003 459.235 697.209 459.666C696.416 460.097 695.475 460.675 694.387 461.4L688.199 465.65L689.083 464.222L696.461 471.498C696.937 471.974 697.391 472.405 697.821 472.79C698.275 473.153 698.785 473.459 699.351 473.708C699.918 473.935 700.632 474.082 701.493 474.15V475H695.509ZM681.603 475V474.15C682.623 474.014 683.337 473.787 683.745 473.47C684.153 473.153 684.357 472.643 684.357 471.94V453.58C684.357 453.059 684.233 452.696 683.983 452.492C683.757 452.265 683.383 452.152 682.861 452.152H681.671V451.302L686.431 450.214H687.281V471.94C687.281 472.62 687.485 473.13 687.893 473.47C688.324 473.787 689.038 474.014 690.035 474.15V475H681.603Z" fill="white"/>
<path d="M718.75 475.272C717.163 475.272 715.758 474.921 714.534 474.218C713.31 473.515 712.358 472.541 711.678 471.294C711.021 470.025 710.692 468.563 710.692 466.908C710.692 465.503 710.907 464.245 711.338 463.134C711.769 462.001 712.358 461.037 713.106 460.244C713.877 459.451 714.761 458.85 715.758 458.442C716.778 458.011 717.866 457.796 719.022 457.796C720.133 457.796 721.096 457.977 721.912 458.34C722.751 458.703 723.442 459.213 723.986 459.87C724.553 460.527 724.961 461.287 725.21 462.148C725.459 463.009 725.561 463.95 725.516 464.97H713.208V463.882H721.096C721.368 463.882 721.595 463.837 721.776 463.746C721.957 463.633 722.093 463.474 722.184 463.27C722.297 463.066 722.354 462.828 722.354 462.556C722.354 461.536 722.037 460.675 721.402 459.972C720.767 459.247 719.895 458.884 718.784 458.884C718.036 458.884 717.345 459.054 716.71 459.394C716.075 459.711 715.531 460.176 715.078 460.788C714.625 461.4 714.273 462.125 714.024 462.964C713.775 463.803 713.65 464.732 713.65 465.752C713.65 467.248 713.899 468.551 714.398 469.662C714.897 470.773 715.599 471.634 716.506 472.246C717.435 472.835 718.535 473.13 719.804 473.13C721.119 473.13 722.218 472.779 723.102 472.076C723.986 471.373 724.632 470.387 725.04 469.118H725.89C725.459 471.113 724.643 472.643 723.442 473.708C722.263 474.751 720.699 475.272 718.75 475.272Z" fill="white"/>
<path d="M733.898 475.272C733.037 475.272 732.221 475.102 731.45 474.762C730.702 474.422 730.09 473.923 729.614 473.266C729.161 472.609 728.934 471.827 728.934 470.92C728.934 470.104 729.104 469.39 729.444 468.778C729.807 468.166 730.407 467.622 731.246 467.146C732.107 466.647 733.297 466.137 734.816 465.616L737.638 464.698C738.159 464.494 738.522 464.211 738.726 463.848C738.953 463.485 739.066 463.055 739.066 462.556L739.372 465.208L735.87 466.432C734.691 466.863 733.751 467.373 733.048 467.962C732.345 468.529 731.994 469.322 731.994 470.342C731.994 470.999 732.141 471.555 732.436 472.008C732.731 472.461 733.105 472.801 733.558 473.028C734.034 473.232 734.533 473.334 735.054 473.334C735.666 473.334 736.278 473.164 736.89 472.824C737.525 472.461 738.046 471.951 738.454 471.294C738.862 470.637 739.066 469.866 739.066 468.982L739.372 470.58C739.145 471.668 738.749 472.563 738.182 473.266C737.638 473.946 736.981 474.456 736.21 474.796C735.462 475.113 734.691 475.272 733.898 475.272ZM739.066 462.522C739.066 461.343 738.726 460.437 738.046 459.802C737.389 459.167 736.516 458.85 735.428 458.85C734.385 458.85 733.581 459.099 733.014 459.598C732.47 460.074 732.198 460.629 732.198 461.264C732.198 461.536 732.221 461.763 732.266 461.944C732.311 462.103 732.334 462.307 732.334 462.556C732.334 462.987 732.175 463.338 731.858 463.61C731.541 463.859 731.167 463.984 730.736 463.984C730.283 463.984 729.909 463.837 729.614 463.542C729.342 463.247 729.206 462.873 729.206 462.42C729.206 461.604 729.489 460.845 730.056 460.142C730.623 459.439 731.393 458.873 732.368 458.442C733.365 458.011 734.499 457.796 735.768 457.796C737.015 457.796 738.103 458 739.032 458.408C739.961 458.816 740.687 459.417 741.208 460.21C741.729 461.003 741.99 461.967 741.99 463.1V472.076C741.99 472.461 742.092 472.779 742.296 473.028C742.523 473.255 742.783 473.368 743.078 473.368C743.305 473.368 743.543 473.266 743.792 473.062C744.064 472.835 744.257 472.45 744.37 471.906H745.254C745.163 472.79 744.914 473.481 744.506 473.98C744.121 474.479 743.69 474.819 743.214 475C742.738 475.181 742.296 475.272 741.888 475.272C741.435 475.272 740.981 475.17 740.528 474.966C740.097 474.762 739.746 474.445 739.474 474.014C739.202 473.561 739.066 472.971 739.066 472.246V462.522Z" fill="white"/>
<path d="M753.391 475.272C752.575 475.272 751.838 475.181 751.181 475C750.546 474.841 749.957 474.705 749.413 474.592C748.892 474.479 748.37 474.49 747.849 474.626L747.135 469.662H747.985C748.484 471.113 749.164 472.235 750.025 473.028C750.886 473.821 751.974 474.218 753.289 474.218C754.332 474.218 755.204 473.957 755.907 473.436C756.61 472.892 756.961 472.155 756.961 471.226C756.961 470.478 756.734 469.889 756.281 469.458C755.828 469.005 755.227 468.631 754.479 468.336C753.754 468.041 752.983 467.758 752.167 467.486C751.351 467.214 750.58 466.885 749.855 466.5C749.13 466.115 748.529 465.616 748.053 465.004C747.6 464.392 747.373 463.587 747.373 462.59C747.373 461.729 747.543 461.003 747.883 460.414C748.223 459.802 748.676 459.303 749.243 458.918C749.81 458.533 750.433 458.249 751.113 458.068C751.816 457.887 752.507 457.796 753.187 457.796C754.048 457.796 754.774 457.887 755.363 458.068C755.975 458.227 756.508 458.374 756.961 458.51C757.414 458.646 757.868 458.669 758.321 458.578L758.627 462.998H757.743C757.562 462.091 757.244 461.332 756.791 460.72C756.36 460.108 755.828 459.643 755.193 459.326C754.558 459.009 753.867 458.85 753.119 458.85C752.258 458.85 751.487 459.088 750.807 459.564C750.127 460.017 749.787 460.675 749.787 461.536C749.787 462.261 750.014 462.839 750.467 463.27C750.943 463.678 751.544 464.029 752.269 464.324C753.017 464.596 753.799 464.868 754.615 465.14C755.454 465.389 756.236 465.707 756.961 466.092C757.709 466.477 758.31 466.987 758.763 467.622C759.239 468.257 759.477 469.095 759.477 470.138C759.477 471.181 759.216 472.087 758.695 472.858C758.174 473.606 757.46 474.195 756.553 474.626C755.646 475.057 754.592 475.272 753.391 475.272Z" fill="white"/>
<path d="M764.524 481.63C763.663 481.63 762.949 481.426 762.382 481.018C761.816 480.61 761.532 480.123 761.532 479.556C761.532 479.125 761.691 478.751 762.008 478.434C762.326 478.117 762.7 477.958 763.13 477.958C763.47 477.958 763.731 478.015 763.912 478.128C764.116 478.264 764.286 478.411 764.422 478.57C764.581 478.751 764.774 478.91 765 479.046C765.227 479.182 765.533 479.25 765.918 479.25C766.644 479.25 767.233 478.967 767.686 478.4C768.14 477.833 768.536 477.131 768.876 476.292L774.962 461.026C775.212 460.414 775.166 459.927 774.826 459.564C774.509 459.179 773.908 458.963 773.024 458.918V458.068H778.43V458.918C777.977 458.963 777.569 459.179 777.206 459.564C776.844 459.949 776.515 460.482 776.22 461.162L769.896 476.564C769.647 477.176 769.364 477.777 769.046 478.366C768.729 478.978 768.355 479.522 767.924 479.998C767.494 480.497 766.995 480.893 766.428 481.188C765.862 481.483 765.227 481.63 764.524 481.63ZM769.59 475.544L763.402 461.162C763.153 460.55 762.813 460.04 762.382 459.632C761.952 459.201 761.453 458.963 760.886 458.918V458.068H768.672V458.918C767.788 459.009 767.154 459.224 766.768 459.564C766.383 459.904 766.326 460.403 766.598 461.06L771.086 472.042L769.59 475.544Z" fill="white"/>
<path d="M780.445 475.238C779.833 475.238 779.312 475.034 778.881 474.626C778.473 474.195 778.269 473.685 778.269 473.096C778.269 472.711 778.36 472.359 778.541 472.042C778.745 471.702 779.017 471.441 779.357 471.26C779.697 471.079 780.06 470.988 780.445 470.988C781.057 470.988 781.567 471.192 781.975 471.6C782.406 472.008 782.621 472.507 782.621 473.096C782.621 473.481 782.519 473.844 782.315 474.184C782.134 474.524 781.873 474.785 781.533 474.966C781.216 475.147 780.853 475.238 780.445 475.238Z" fill="white"/>
<path d="M436.182 268.896H395.789V228.721H364.392V268.896H324V156H364.392V200.074H395.789V156H436.182V268.896Z" fill="white"/>
<path d="M560.301 268.896H517.873L512.951 251.267H480.535L474.935 268.896H439.125L478.669 156H520.588L560.301 268.896ZM506.502 227.874L498.016 195.158L488.003 227.874H506.502Z" fill="white"/>
<path d="M657.87 186.512H624.436V268.896H584.044V186.512H550.61V156H657.87V186.512Z" fill="white"/>
<path d="M110.145 324.837L84.6877 338.228C80.1054 331.448 71.45 325.684 61.2671 325.684C49.0476 325.684 41.4104 332.126 41.4104 342.127V367.554C41.4104 377.555 49.0476 383.997 61.2671 383.997C71.45 383.997 80.6146 378.064 84.6877 371.453L109.127 384.844C103.017 400.779 83.33 414.001 58.5516 414.001C23.9298 414.001 0 393.829 0 366.537V343.144C0 315.852 23.9298 295.68 58.5516 295.68C83.33 295.68 103.865 308.902 110.145 324.837Z" fill="white"/>
<path d="M225.253 364.333C225.253 395.015 201.832 414.001 168.568 414.001C135.134 414.001 111.713 395.015 111.713 364.333V345.178C111.713 314.496 135.134 295.68 168.568 295.68C201.832 295.68 225.253 314.496 225.253 345.178V364.333ZM183.842 368.741V340.771C183.842 329.752 177.902 324.667 168.568 324.667C159.064 324.667 153.124 329.752 153.124 340.771V368.741C153.124 379.759 159.064 384.844 168.568 384.844C177.902 384.844 183.842 379.759 183.842 368.741Z" fill="white"/>
<path d="M330.689 411.289H234.291V298.392H274.683V380.098H330.689V411.289Z" fill="white"/>
<path d="M433.619 411.289H337.221V298.392H377.613V380.098H433.619V411.289Z" fill="white"/>
<path d="M536.548 411.289H440.15V298.392H536.548V327.549H480.542V344.67H517.37V362.638H480.542V379.928H536.548V411.289Z" fill="white"/>
<path d="M652.967 324.837L627.51 338.228C622.928 331.448 614.272 325.684 604.089 325.684C591.87 325.684 584.233 332.126 584.233 342.127V367.554C584.233 377.555 591.87 383.997 604.089 383.997C614.272 383.997 623.437 378.064 627.51 371.453L651.949 384.844C645.839 400.779 626.152 414.001 601.374 414.001C566.752 414.001 542.822 393.829 542.822 366.537V343.144C542.822 315.852 566.752 295.68 601.374 295.68C626.152 295.68 646.688 308.902 652.967 324.837Z" fill="white"/>
<path d="M760.098 328.905H726.665V411.289H686.272V328.905H652.839V298.392H760.098V328.905Z" fill="white"/>
<path d="M874.816 364.333C874.816 395.015 851.396 414.001 818.132 414.001C784.698 414.001 761.277 395.015 761.277 364.333V345.178C761.277 314.496 784.698 295.68 818.132 295.68C851.396 295.68 874.816 314.496 874.816 345.178V364.333ZM833.406 368.741V340.771C833.406 329.752 827.466 324.667 818.132 324.667C808.628 324.667 802.688 329.752 802.688 340.771V368.741C802.688 379.759 808.628 384.844 818.132 384.844C827.466 384.844 833.406 379.759 833.406 368.741Z" fill="white"/>
<path d="M994 411.289H958.699C952.929 411.289 949.535 402.982 949.535 393.829V378.403C949.535 373.317 947.328 368.741 940.37 368.741H924.247V411.289H883.855V298.392H950.214C972.955 298.392 988.399 311.106 988.399 328.566V332.465C988.399 343.653 981.102 353.484 968.882 356.705C982.629 359.248 988.909 369.249 988.909 379.759V392.473C988.909 399.592 990.775 405.695 994 410.78V411.289ZM948.516 340.093V335.855C948.516 328.905 945.122 326.023 936.806 326.023H924.247V349.925H936.806C945.122 349.925 948.516 346.704 948.516 340.093Z" fill="white"/>
</svg>
