<svg width="1194" height="536" viewBox="0 0 1194 536" fill="none" xmlns="http://www.w3.org/2000/svg">
<path d="M522.312 106C525.073 106 527.312 108.239 527.312 111V117H525.312V111C525.312 109.402 524.063 108.096 522.488 108.005L522.312 108C520.714 108 519.408 109.249 519.317 110.824L519.312 111V117H517.312V111C517.312 108.239 519.551 106 522.312 106ZM515.812 109C516.091 109 516.362 109.033 516.622 109.094C516.454 109.594 516.351 110.122 516.321 110.669L516.312 111L516.313 111.086C516.2 111.046 516.08 111.019 515.956 111.007L515.812 111C515.032 111 514.392 111.595 514.319 112.355L514.312 112.5V117H512.312V112.5C512.312 110.567 513.879 109 515.812 109ZM528.812 109C530.745 109 532.312 110.567 532.312 112.5V117H530.312V112.5C530.312 111.72 529.717 111.08 528.957 111.007L528.812 111C528.637 111 528.469 111.03 528.312 111.085L528.312 111C528.312 110.334 528.204 109.694 528.004 109.096C528.262 109.033 528.533 109 528.812 109ZM515.812 103C517.193 103 518.312 104.119 518.312 105.5C518.312 106.881 517.193 108 515.812 108C514.431 108 513.312 106.881 513.312 105.5C513.312 104.119 514.431 103 515.812 103ZM528.812 103C530.193 103 531.312 104.119 531.312 105.5C531.312 106.881 530.193 108 528.812 108C527.431 108 526.312 106.881 526.312 105.5C526.312 104.119 527.431 103 528.812 103ZM515.812 105C515.536 105 515.312 105.224 515.312 105.5C515.312 105.776 515.536 106 515.812 106C516.088 106 516.312 105.776 516.312 105.5C516.312 105.224 516.088 105 515.812 105ZM528.812 105C528.536 105 528.312 105.224 528.312 105.5C528.312 105.776 528.536 106 528.812 106C529.088 106 529.312 105.776 529.312 105.5C529.312 105.224 529.088 105 528.812 105ZM522.312 97C524.521 97 526.312 98.7909 526.312 101C526.312 103.209 524.521 105 522.312 105C520.103 105 518.312 103.209 518.312 101C518.312 98.7909 520.103 97 522.312 97ZM522.312 99C521.207 99 520.312 99.8954 520.312 101C520.312 102.105 521.207 103 522.312 103C523.417 103 524.312 102.105 524.312 101C524.312 99.8954 523.417 99 522.312 99Z" fill="white"/>
<path d="M545.968 112V108.052L542.832 102.228H545.03L546.22 104.426L547.018 106.344L547.844 104.412L549.034 102.228H551.19L547.998 108.052V112H545.968Z" fill="white"/>
<path d="M556.138 112.168C555.288 112.168 554.542 111.963 553.898 111.552C553.263 111.141 552.768 110.558 552.414 109.802C552.068 109.046 551.896 108.15 551.896 107.114C551.896 106.069 552.068 105.168 552.414 104.412C552.768 103.656 553.263 103.077 553.898 102.676C554.542 102.265 555.288 102.06 556.138 102.06C556.987 102.06 557.729 102.265 558.364 102.676C558.998 103.077 559.488 103.656 559.834 104.412C560.188 105.159 560.366 106.059 560.366 107.114C560.366 108.15 560.188 109.046 559.834 109.802C559.488 110.558 558.998 111.141 558.364 111.552C557.729 111.963 556.987 112.168 556.138 112.168ZM556.138 110.488C556.548 110.488 556.912 110.357 557.23 110.096C557.556 109.825 557.808 109.438 557.986 108.934C558.172 108.43 558.266 107.823 558.266 107.114C558.266 106.395 558.172 105.789 557.986 105.294C557.808 104.79 557.556 104.407 557.23 104.146C556.912 103.875 556.548 103.74 556.138 103.74C555.727 103.74 555.358 103.875 555.032 104.146C554.705 104.407 554.448 104.79 554.262 105.294C554.084 105.798 553.996 106.405 553.996 107.114C553.996 107.823 554.084 108.43 554.262 108.934C554.448 109.438 554.705 109.825 555.032 110.096C555.358 110.357 555.727 110.488 556.138 110.488Z" fill="white"/>
<path d="M565.229 112.168C564.408 112.168 563.703 112.019 563.115 111.72C562.527 111.412 562.075 110.983 561.757 110.432C561.44 109.881 561.281 109.242 561.281 108.514V102.228H563.325V108.514C563.325 108.915 563.405 109.261 563.563 109.55C563.722 109.839 563.941 110.068 564.221 110.236C564.511 110.395 564.847 110.474 565.229 110.474C565.621 110.474 565.957 110.395 566.237 110.236C566.527 110.068 566.746 109.839 566.895 109.55C567.054 109.261 567.133 108.915 567.133 108.514V102.228H569.177V108.514C569.177 109.242 569.019 109.881 568.701 110.432C568.384 110.983 567.931 111.412 567.343 111.72C566.755 112.019 566.051 112.168 565.229 112.168Z" fill="white"/>
<path d="M572.221 108.206V106.526H574.517C574.843 106.526 575.128 106.47 575.371 106.358C575.613 106.246 575.805 106.087 575.945 105.882C576.085 105.667 576.155 105.425 576.155 105.154C576.155 104.902 576.089 104.683 575.959 104.496C575.837 104.309 575.669 104.165 575.455 104.062C575.24 103.959 574.997 103.908 574.727 103.908H572.221V102.228H574.727C575.408 102.228 576.015 102.345 576.547 102.578C577.079 102.811 577.494 103.147 577.793 103.586C578.101 104.015 578.255 104.538 578.255 105.154C578.255 105.537 578.166 105.91 577.989 106.274C577.811 106.629 577.555 106.955 577.219 107.254C576.883 107.543 576.477 107.777 576.001 107.954C575.534 108.122 575.002 108.206 574.405 108.206H572.221ZM570.765 112V102.228H572.795V112H570.765ZM576.183 112C576.164 111.58 576.071 111.16 575.903 110.74C575.744 110.311 575.52 109.9 575.231 109.508C574.941 109.116 574.577 108.761 574.139 108.444C573.709 108.117 573.215 107.842 572.655 107.618L574.909 107.156C575.478 107.436 575.968 107.767 576.379 108.15C576.799 108.523 577.144 108.925 577.415 109.354C577.695 109.774 577.9 110.213 578.031 110.67C578.171 111.118 578.25 111.561 578.269 112H576.183Z" fill="white"/>
<path d="M590.39 108.766V107.086H592.728C593.232 107.086 593.638 106.937 593.946 106.638C594.254 106.339 594.408 105.947 594.408 105.462C594.408 104.995 594.258 104.622 593.96 104.342C593.661 104.053 593.264 103.908 592.77 103.908H590.39V102.228H592.784C593.53 102.228 594.184 102.363 594.744 102.634C595.304 102.895 595.738 103.269 596.046 103.754C596.354 104.239 596.508 104.809 596.508 105.462C596.508 106.125 596.349 106.703 596.032 107.198C595.724 107.693 595.29 108.08 594.73 108.36C594.17 108.631 593.507 108.766 592.742 108.766H590.39ZM588.934 112V102.228H590.964V112H588.934Z" fill="white"/>
<path d="M598.389 112V102.228H600.419V110.32H605.277V112H598.389Z" fill="white"/>
<path d="M608.055 109.928V108.248H613.697V109.928H608.055ZM609.245 102.228H612.255L614.915 112H612.843L611.331 106.148L610.743 103.698L610.155 106.148L608.615 112H606.599L609.245 102.228Z" fill="white"/>
<path d="M618.812 112V108.052L615.676 102.228H617.874L619.064 104.426L619.862 106.344L620.688 104.412L621.878 102.228H624.034L620.842 108.052V112H618.812Z" fill="white"/>
<path d="M625.482 112V102.228H632.649V103.908H627.525V106.106H630.913V107.786H627.525V110.32H632.706V112H625.482Z" fill="white"/>
<path d="M635.959 108.206V106.526H638.255C638.582 106.526 638.866 106.47 639.109 106.358C639.352 106.246 639.543 106.087 639.683 105.882C639.823 105.667 639.893 105.425 639.893 105.154C639.893 104.902 639.828 104.683 639.697 104.496C639.576 104.309 639.408 104.165 639.193 104.062C638.978 103.959 638.736 103.908 638.465 103.908H635.959V102.228H638.465C639.146 102.228 639.753 102.345 640.285 102.578C640.817 102.811 641.232 103.147 641.531 103.586C641.839 104.015 641.993 104.538 641.993 105.154C641.993 105.537 641.904 105.91 641.727 106.274C641.55 106.629 641.293 106.955 640.957 107.254C640.621 107.543 640.215 107.777 639.739 107.954C639.272 108.122 638.74 108.206 638.143 108.206H635.959ZM634.503 112V102.228H636.533V112H634.503ZM639.921 112C639.902 111.58 639.809 111.16 639.641 110.74C639.482 110.311 639.258 109.9 638.969 109.508C638.68 109.116 638.316 108.761 637.877 108.444C637.448 108.117 636.953 107.842 636.393 107.618L638.647 107.156C639.216 107.436 639.706 107.767 640.117 108.15C640.537 108.523 640.882 108.925 641.153 109.354C641.433 109.774 641.638 110.213 641.769 110.67C641.909 111.118 641.988 111.561 642.007 112H639.921Z" fill="white"/>
<path d="M656.41 112.168C655.533 112.168 654.777 111.958 654.142 111.538C653.507 111.118 653.017 110.53 652.672 109.774C652.327 109.009 652.154 108.122 652.154 107.114C652.154 106.087 652.331 105.196 652.686 104.44C653.041 103.684 653.54 103.101 654.184 102.69C654.837 102.27 655.603 102.06 656.48 102.06C657.171 102.06 657.805 102.195 658.384 102.466C658.963 102.737 659.434 103.129 659.798 103.642C660.171 104.146 660.381 104.757 660.428 105.476H658.202C658.146 104.953 657.969 104.533 657.67 104.216C657.371 103.899 656.975 103.74 656.48 103.74C656.051 103.74 655.668 103.871 655.332 104.132C654.996 104.393 654.73 104.776 654.534 105.28C654.347 105.784 654.254 106.395 654.254 107.114C654.254 107.833 654.347 108.444 654.534 108.948C654.721 109.452 654.973 109.835 655.29 110.096C655.617 110.357 655.99 110.488 656.41 110.488C656.755 110.488 657.059 110.418 657.32 110.278C657.581 110.129 657.791 109.919 657.95 109.648C658.118 109.377 658.221 109.055 658.258 108.682H660.47C660.405 109.391 660.199 110.007 659.854 110.53C659.509 111.053 659.047 111.459 658.468 111.748C657.889 112.028 657.203 112.168 656.41 112.168Z" fill="white"/>
<path d="M662.687 109.928V108.248H668.329V109.928H662.687ZM663.877 102.228H666.887L669.547 112H667.475L665.963 106.148L665.375 103.698L664.787 106.148L663.247 112H661.231L663.877 102.228Z" fill="white"/>
<path d="M672.381 108.206V106.526H674.677C675.003 106.526 675.288 106.47 675.531 106.358C675.773 106.246 675.965 106.087 676.105 105.882C676.245 105.667 676.315 105.425 676.315 105.154C676.315 104.902 676.25 104.683 676.119 104.496C675.998 104.309 675.829 104.165 675.615 104.062C675.4 103.959 675.158 103.908 674.887 103.908H672.381V102.228H674.887C675.568 102.228 676.175 102.345 676.707 102.578C677.239 102.811 677.654 103.147 677.953 103.586C678.261 104.015 678.415 104.538 678.415 105.154C678.415 105.537 678.326 105.91 678.149 106.274C677.971 106.629 677.715 106.955 677.379 107.254C677.043 107.543 676.637 107.777 676.161 107.954C675.694 108.122 675.162 108.206 674.565 108.206H672.381ZM670.925 112V102.228H672.955V112H670.925ZM676.343 112C676.324 111.58 676.231 111.16 676.063 110.74C675.904 110.311 675.68 109.9 675.391 109.508C675.101 109.116 674.737 108.761 674.299 108.444C673.869 108.117 673.375 107.842 672.815 107.618L675.069 107.156C675.638 107.436 676.128 107.767 676.539 108.15C676.959 108.523 677.304 108.925 677.575 109.354C677.855 109.774 678.06 110.213 678.191 110.67C678.331 111.118 678.41 111.561 678.429 112H676.343Z" fill="white"/>
<path d="M679.876 112V102.228H683.068C683.796 102.228 684.45 102.345 685.028 102.578C685.607 102.802 686.102 103.129 686.512 103.558C686.923 103.978 687.236 104.487 687.45 105.084C687.665 105.681 687.772 106.349 687.772 107.086C687.772 107.833 687.665 108.509 687.45 109.116C687.236 109.713 686.923 110.231 686.512 110.67C686.102 111.099 685.607 111.431 685.028 111.664C684.45 111.888 683.796 112 683.068 112H679.876ZM681.906 110.32H683.068C683.619 110.32 684.086 110.189 684.468 109.928C684.86 109.657 685.154 109.279 685.35 108.794C685.556 108.309 685.658 107.739 685.658 107.086C685.658 106.433 685.556 105.873 685.35 105.406C685.154 104.93 684.86 104.561 684.468 104.3C684.086 104.039 683.619 103.908 683.068 103.908H681.906V110.32Z" fill="white"/>
<path d="M96.5113 377.207C92.7993 377.207 90.1753 376.247 88.6393 374.327C87.8713 373.495 87.3273 372.503 87.0073 371.351C86.6873 370.199 86.5273 369.015 86.5273 367.799C86.5273 366.263 86.7193 364.727 87.1033 363.191C87.4873 361.591 87.9673 360.119 88.5433 358.775C89.4393 356.663 90.6233 354.551 92.0953 352.439C93.5673 350.263 95.3273 348.439 97.3753 346.967C99.4873 345.495 101.791 344.759 104.287 344.759C105.951 344.759 107.263 345.175 108.223 346.007C109.183 346.839 109.663 348.119 109.663 349.847C109.663 351.831 109.055 353.847 107.839 355.895C106.623 357.879 105.087 359.543 103.231 360.887C101.375 362.231 99.4553 362.903 97.4713 362.903C95.6793 362.903 94.1113 362.263 92.7673 360.983C92.3833 362.007 92.0633 363.159 91.8073 364.439C91.5513 365.655 91.4233 366.903 91.4233 368.183C91.4233 370.167 91.8073 371.895 92.5753 373.367C93.4073 374.839 94.8793 375.575 96.9913 375.575C98.5273 375.575 99.9993 375.191 101.407 374.423C102.879 373.591 104.191 372.599 105.343 371.447C106.623 370.103 107.839 368.663 108.991 367.127C110.143 365.591 111.263 363.799 112.351 361.751C112.479 361.559 112.575 361.463 112.639 361.463C112.895 361.463 113.023 361.751 113.023 362.327C113.023 362.711 112.895 363.127 112.639 363.575C111.679 365.303 110.559 367.063 109.279 368.855C107.999 370.583 106.687 372.087 105.343 373.367C104.127 374.519 102.815 375.447 101.407 376.151C99.9993 376.855 98.3673 377.207 96.5113 377.207ZM93.2473 359.543C93.6953 360.183 94.2073 360.663 94.7833 360.983C95.4233 361.239 96.0633 361.367 96.7033 361.367C98.2393 361.367 99.8393 360.791 101.503 359.639C103.167 358.423 104.511 357.015 105.535 355.415C105.983 354.711 106.367 353.783 106.687 352.631C107.071 351.479 107.263 350.391 107.263 349.367C107.263 348.471 107.071 347.703 106.687 347.063C106.367 346.359 105.695 346.007 104.671 346.007C103.519 346.007 102.143 346.711 100.543 348.119C99.0073 349.527 97.5353 351.351 96.1273 353.591C95.6793 354.359 95.1673 355.255 94.5913 356.279C94.0793 357.303 93.6313 358.391 93.2473 359.543Z" fill="white"/>
<path d="M5.568 384.888C4.8 384.504 4.192 383.96 3.744 383.256C3.36 382.552 3.168 381.848 3.168 381.144C3.168 380.44 3.36 379.864 3.744 379.416C3.936 379.16 4.16 379 4.416 378.936C4.736 378.936 4.832 379.096 4.704 379.416C4.512 380.376 4.96 381.272 6.048 382.104C7.136 382.936 8.128 383.48 9.024 383.736C9.984 383.928 10.944 384.024 11.904 384.024C13.888 384.024 15.648 383.736 17.184 383.16C19.488 382.392 21.76 380.824 24 378.456C26.304 376.088 28.448 373.4 30.432 370.392C32.352 367.448 34.24 364.12 36.096 360.408C38.016 356.632 39.936 352.76 41.856 348.792C43.84 344.76 45.952 340.888 48.192 337.176C50.432 333.4 52.832 330.04 55.392 327.096C58.016 324.088 60.896 321.784 64.032 320.184L46.08 317.016C44.672 316.76 43.072 316.6 41.28 316.536C39.488 316.408 37.6 316.344 35.616 316.344C32.096 316.344 28.576 316.568 25.056 317.016C21.536 317.4 18.72 318.072 16.608 319.032C12.896 320.696 9.696 323 7.008 325.944C4.32 328.824 2.976 332.44 2.976 336.792C2.976 338.584 3.264 340.12 3.84 341.4C4.48 342.616 5.28 343.544 6.24 344.184C7.328 344.824 8.448 345.144 9.6 345.144C11.008 345.144 12.448 344.728 13.92 343.896C15.392 343 16.672 341.72 17.76 340.056C18.272 339.224 18.752 338.008 19.2 336.408C19.712 334.808 19.968 333.176 19.968 331.512C19.968 330.616 19.872 329.752 19.68 328.92C19.552 328.088 19.264 327.352 18.816 326.712C18.688 326.456 18.624 326.328 18.624 326.328C18.624 326.136 18.72 326.04 18.912 326.04C19.168 326.04 19.392 326.2 19.584 326.52C19.904 326.968 20.224 327.672 20.544 328.632C20.928 329.528 21.184 330.36 21.312 331.128C21.376 331.512 21.408 331.896 21.408 332.28C21.472 332.664 21.504 333.048 21.504 333.432C21.504 334.712 21.344 336.024 21.024 337.368C20.704 338.648 20.192 339.832 19.488 340.92C18.464 342.648 17.088 343.96 15.36 344.856C13.632 345.688 11.84 346.104 9.984 346.104C8.512 346.104 7.104 345.816 5.76 345.24C3.776 344.28 2.304 342.904 1.344 341.112C0.448 339.32 0 337.368 0 335.256C0 333.848 0.16 332.44 0.48 331.032C0.864 329.56 1.376 328.152 2.016 326.808C3.104 324.44 4.608 322.36 6.528 320.568C8.448 318.776 10.368 317.368 12.288 316.344C15.488 314.616 18.688 313.4 21.888 312.696C25.152 311.992 28.448 311.64 31.776 311.64C34.528 311.64 37.312 311.832 40.128 312.216C42.944 312.6 45.792 313.144 48.672 313.848C53.728 315.064 58.848 316.216 64.032 317.304C69.216 318.328 74.496 319.128 79.872 319.704C82.112 317.016 84.48 314.584 86.976 312.408C89.536 310.168 92.224 308.312 95.04 306.84C96.704 306.008 98.464 305.336 100.32 304.824C102.176 304.312 103.968 304.056 105.696 304.056C108.576 304.056 110.784 304.856 112.32 306.456C113.856 308.056 114.624 309.88 114.624 311.928C114.624 313.336 114.24 314.744 113.472 316.152C112.704 317.56 111.488 318.776 109.824 319.8C107.648 321.08 105.28 321.944 102.72 322.392C100.16 322.84 97.504 323.064 94.752 323.064C92.512 323.064 90.24 322.968 87.936 322.776C85.632 322.584 83.392 322.424 81.216 322.296C79.232 325.24 77.376 328.312 75.648 331.512C73.984 334.648 72.48 337.688 71.136 340.632C69.792 343.512 68.608 346.104 67.584 348.408C66.816 350.264 66.144 351.832 65.568 353.112C65.056 354.328 64.576 355.448 64.128 356.472C63.744 357.496 63.296 358.648 62.784 359.928C63.808 358.392 64.96 356.728 66.24 354.936C67.584 353.08 68.768 351.64 69.792 350.616C71.264 349.144 72.736 347.896 74.208 346.872C75.68 345.848 77.12 345.272 78.528 345.144C80.704 344.952 82.272 345.24 83.232 346.008C84.192 346.712 84.672 347.768 84.672 349.176C84.672 350.584 84.288 352.152 83.52 353.88C82.688 355.864 81.696 357.848 80.544 359.832C79.392 361.816 78.336 363.736 77.376 365.592C77.12 366.104 76.64 367.096 75.936 368.568C75.296 369.976 74.88 371.32 74.688 372.6C74.688 372.664 74.656 372.76 74.592 372.888C74.592 373.016 74.592 373.144 74.592 373.272C74.592 373.976 74.784 374.52 75.168 374.904C75.552 375.224 76 375.384 76.512 375.384C77.6 375.384 78.624 375.032 79.584 374.328C80.544 373.624 81.376 372.856 82.08 372.024C83.552 370.424 84.896 368.664 86.112 366.744C87.328 364.824 88.544 362.776 89.76 360.6C89.952 360.344 90.144 360.216 90.336 360.216C90.592 360.216 90.72 360.408 90.72 360.792C90.72 361.112 90.656 361.368 90.528 361.56C89.376 363.672 88.128 365.784 86.784 367.896C85.504 370.008 83.936 371.992 82.08 373.848C81.248 374.68 80.288 375.448 79.2 376.152C78.112 376.792 76.896 377.112 75.552 377.112C73.376 377.112 71.84 376.504 70.944 375.288C70.112 374.008 69.696 372.6 69.696 371.064C69.696 369.848 69.92 368.632 70.368 367.416C71.456 364.6 72.96 361.912 74.88 359.352C76.8 356.792 78.4 354.136 79.68 351.384C80.128 350.552 80.352 349.784 80.352 349.08C80.352 348.312 80.128 347.736 79.68 347.352C79.232 346.968 78.752 346.776 78.24 346.776C77.024 346.776 75.68 347.32 74.208 348.408C72.8 349.432 71.424 350.744 70.08 352.344C68.864 353.752 67.616 355.384 66.336 357.24C65.056 359.032 63.84 360.952 62.688 363C61.6 364.856 60.48 366.808 59.328 368.856C58.176 370.84 57.248 372.536 56.544 373.944C56.032 375.032 55.488 375.736 54.912 376.056C54.336 376.376 53.792 376.536 53.28 376.536C53.024 376.536 52.768 376.504 52.512 376.44C52.256 376.44 52.032 376.44 51.84 376.44C52.416 374.264 53.472 371.256 55.008 367.416C56.544 363.512 58.4 358.936 60.576 353.688C62.688 348.568 65.184 343.224 68.064 337.656C71.008 332.024 74.336 326.808 78.048 322.008C76.96 321.816 75.648 321.624 74.112 321.432C72.64 321.24 71.232 321.048 69.888 320.856C68.544 320.664 67.52 320.536 66.816 320.472C64.704 321.432 62.496 323.256 60.192 325.944C57.376 329.272 54.944 332.824 52.896 336.6C50.848 340.312 48.96 344.152 47.232 348.12C45.504 352.024 43.712 355.896 41.856 359.736C40.064 363.576 37.92 367.256 35.424 370.776C33.184 373.912 30.656 376.728 27.84 379.224C25.024 381.72 21.824 383.608 18.24 384.888C16.256 385.592 13.888 385.944 11.136 385.944C10.048 385.944 9.024 385.848 8.064 385.656C7.104 385.528 6.272 385.272 5.568 384.888ZM82.848 319.992C84.576 320.12 86.592 320.312 88.896 320.568C91.264 320.76 93.632 320.856 96 320.856C98.432 320.856 100.832 320.696 103.2 320.376C105.568 319.992 107.584 319.288 109.248 318.264C110.464 317.496 111.328 316.632 111.84 315.672C112.416 314.712 112.704 313.72 112.704 312.696C112.704 310.904 111.936 309.304 110.4 307.896C108.864 306.424 106.848 305.688 104.352 305.688C103.136 305.688 101.824 305.816 100.416 306.072C99.072 306.328 97.664 306.808 96.192 307.512C93.824 308.6 91.52 310.264 89.28 312.504C87.04 314.68 84.896 317.176 82.848 319.992Z" fill="white"/>
<path d="M331.488 213.36H284.208V330H227.088V213.36H179.808V170.16H331.488V213.36Z" fill="white"/>
<path d="M497.482 330H447.562C439.402 330 434.602 318.24 434.602 305.28V283.44C434.602 276.24 431.482 269.76 421.642 269.76H398.842V330H341.722V170.16H435.562C467.722 170.16 489.562 188.16 489.562 212.88V218.4C489.562 234.24 479.242 248.16 461.962 252.72C481.402 256.32 490.282 270.48 490.282 285.36V303.36C490.282 313.44 492.922 322.08 497.482 329.28V330ZM433.162 229.2V223.2C433.162 213.36 428.362 209.28 416.602 209.28H398.842V243.12H416.602C428.362 243.12 433.162 238.56 433.162 229.2Z" fill="white"/>
<path d="M642.348 330H506.028V170.16H642.348V211.44H563.148V235.68H615.228V261.12H563.148V285.6H642.348V330Z" fill="white"/>
<path d="M813.924 330H766.164L720.564 270.96L709.524 256.56V330H657.444V170.16H706.164L751.284 230.16L761.844 244.08V170.16H813.924V330Z" fill="white"/>
<path d="M989.023 268.08C989.023 303.36 965.743 330 911.263 330H832.063V170.16H911.263C965.743 170.16 989.023 198.48 989.023 234V268.08ZM931.183 269.28V230.64C931.183 215.52 923.263 208.8 907.903 208.8H889.183V291.12H907.903C923.263 291.12 931.183 284.64 931.183 269.28Z" fill="white"/>
<path d="M273.253 482.32C273.253 512.32 241.333 535.84 198.373 535.84C163.813 535.84 137.413 523.6 115.813 506.32L142.453 475.6C159.973 489.76 182.773 498.64 199.573 498.64C213.733 498.64 218.293 493.36 218.293 486.64C218.293 465.52 126.373 474.64 126.373 420.16C126.373 392.56 154.453 368.32 198.853 368.32C231.733 368.32 256.213 381.28 273.733 398.32L243.493 424.24C229.333 412.72 213.013 405.52 198.133 405.52C186.373 405.52 180.133 409.84 180.133 416.08C180.133 437.44 273.253 430.48 273.253 482.32Z" fill="white"/>
<path d="M421.67 532H285.35V372.16H421.67V413.44H342.47V437.68H394.55V463.12H342.47V487.6H421.67V532Z" fill="white"/>
<path d="M580.526 415.36H533.246V532H476.126V415.36H428.846V372.16H580.526V415.36Z" fill="white"/>
<path d="M734.52 415.36H687.24V532H630.12V415.36H582.84V372.16H734.52V415.36Z" fill="white"/>
<path d="M881.073 532H744.753V372.16H881.073V413.44H801.873V437.68H853.953V463.12H801.873V487.6H881.073V532Z" fill="white"/>
<path d="M1051.93 532H1002.01C993.849 532 989.049 520.24 989.049 507.28V485.44C989.049 478.24 985.929 471.76 976.089 471.76H953.289V532H896.169V372.16H990.009C1022.17 372.16 1044.01 390.16 1044.01 414.88V420.4C1044.01 436.24 1033.69 450.16 1016.41 454.72C1035.85 458.32 1044.73 472.48 1044.73 487.36V505.36C1044.73 515.44 1047.37 524.08 1051.93 531.28V532ZM987.609 431.2V425.2C987.609 415.36 982.809 411.28 971.049 411.28H953.289V445.12H971.049C982.809 445.12 987.609 440.56 987.609 431.2Z" fill="white"/>
<path d="M1066.56 311V310.55C1067.26 310.478 1067.75 310.328 1068.01 310.1C1068.29 309.86 1068.43 309.524 1068.43 309.092V305.582L1064.99 299.984C1064.81 299.684 1064.63 299.432 1064.45 299.228C1064.28 299.012 1064.07 298.844 1063.82 298.724C1063.57 298.592 1063.23 298.508 1062.79 298.472V298.022H1068.21V298.472C1067.59 298.532 1067.16 298.67 1066.92 298.886C1066.69 299.102 1066.69 299.408 1066.92 299.804L1069.83 304.736L1072.8 299.804C1073.04 299.408 1073.06 299.102 1072.86 298.886C1072.66 298.67 1072.23 298.532 1071.56 298.472V298.022H1075.79V298.472C1075.44 298.508 1075.14 298.586 1074.87 298.706C1074.62 298.826 1074.4 298.988 1074.21 299.192C1074.03 299.384 1073.84 299.636 1073.65 299.948L1070.16 305.582V309.092C1070.16 309.548 1070.29 309.89 1070.57 310.118C1070.86 310.334 1071.34 310.478 1072.03 310.55V311H1066.56Z" fill="white"/>
<path d="M1078.89 311.144C1078.03 311.144 1077.26 310.946 1076.59 310.55C1075.93 310.154 1075.41 309.608 1075.02 308.912C1074.64 308.216 1074.45 307.412 1074.45 306.5C1074.45 305.828 1074.56 305.21 1074.77 304.646C1074.99 304.082 1075.29 303.596 1075.69 303.188C1076.09 302.768 1076.55 302.45 1077.09 302.234C1077.63 302.006 1078.23 301.892 1078.89 301.892C1079.77 301.892 1080.54 302.09 1081.2 302.486C1081.86 302.87 1082.37 303.41 1082.75 304.106C1083.12 304.79 1083.3 305.588 1083.3 306.5C1083.3 307.184 1083.2 307.814 1082.98 308.39C1082.76 308.954 1082.46 309.446 1082.06 309.866C1081.68 310.274 1081.22 310.592 1080.68 310.82C1080.14 311.036 1079.54 311.144 1078.89 311.144ZM1078.89 310.55C1079.22 310.55 1079.52 310.49 1079.79 310.37C1080.08 310.25 1080.33 310.076 1080.55 309.848C1080.77 309.608 1080.95 309.326 1081.11 309.002C1081.26 308.666 1081.38 308.288 1081.45 307.868C1081.53 307.448 1081.58 306.992 1081.58 306.5C1081.58 305.684 1081.47 304.976 1081.25 304.376C1081.04 303.776 1080.72 303.314 1080.32 302.99C1079.92 302.654 1079.45 302.486 1078.89 302.486C1078.56 302.486 1078.25 302.546 1077.96 302.666C1077.68 302.786 1077.43 302.966 1077.2 303.206C1076.99 303.434 1076.8 303.716 1076.64 304.052C1076.49 304.376 1076.37 304.748 1076.28 305.168C1076.21 305.576 1076.18 306.02 1076.18 306.5C1076.18 307.316 1076.28 308.03 1076.5 308.642C1076.73 309.254 1077.04 309.728 1077.44 310.064C1077.84 310.388 1078.33 310.55 1078.89 310.55Z" fill="white"/>
<path d="M1088.71 311.144C1088.15 311.144 1087.65 311.024 1087.22 310.784C1086.78 310.532 1086.45 310.178 1086.21 309.722C1085.97 309.266 1085.85 308.732 1085.85 308.12V303.764C1085.85 303.512 1085.78 303.326 1085.65 303.206C1085.53 303.074 1085.33 303.008 1085.04 303.008H1084.41V302.558L1086.93 301.982H1087.4V308.066C1087.4 308.678 1087.57 309.17 1087.92 309.542C1088.27 309.902 1088.72 310.082 1089.27 310.082C1089.69 310.082 1090.08 309.974 1090.44 309.758C1090.81 309.542 1091.11 309.242 1091.34 308.858C1091.57 308.462 1091.68 308.012 1091.68 307.508V303.764C1091.68 303.512 1091.61 303.326 1091.48 303.206C1091.35 303.074 1091.14 303.008 1090.85 303.008H1090.24V302.558L1092.76 301.982H1093.23V309.254C1093.23 309.518 1093.29 309.71 1093.41 309.83C1093.53 309.938 1093.74 309.992 1094.04 309.992H1094.7V310.442L1092.13 311.054H1091.68V309.056C1091.39 309.716 1090.99 310.232 1090.47 310.604C1089.96 310.964 1089.37 311.144 1088.71 311.144Z" fill="white"/>
<path d="M1098.62 303.89C1098.84 303.23 1099.15 302.732 1099.56 302.396C1099.98 302.06 1100.4 301.892 1100.84 301.892C1101.23 301.892 1101.55 302 1101.79 302.216C1102.04 302.432 1102.17 302.678 1102.17 302.954C1102.17 303.194 1102.09 303.392 1101.93 303.548C1101.78 303.704 1101.59 303.782 1101.36 303.782C1101.19 303.782 1101.05 303.74 1100.94 303.656C1100.85 303.572 1100.77 303.482 1100.71 303.386C1100.66 303.29 1100.59 303.2 1100.51 303.116C1100.44 303.032 1100.33 302.99 1100.17 302.99C1099.91 302.99 1099.65 303.116 1099.41 303.368C1099.19 303.62 1098.99 303.944 1098.84 304.34C1098.69 304.736 1098.62 305.15 1098.62 305.582V309.416C1098.62 309.8 1098.76 310.07 1099.05 310.226C1099.34 310.382 1099.79 310.49 1100.4 310.55V311H1095.74V310.55C1096.23 310.49 1096.58 310.376 1096.77 310.208C1096.97 310.028 1097.07 309.764 1097.07 309.416V303.764C1097.07 303.512 1097.01 303.326 1096.88 303.206C1096.76 303.074 1096.55 303.008 1096.26 303.008H1095.65V302.558L1098.17 301.982H1098.62V303.89Z" fill="white"/>
<path d="M1107.37 311V310.55C1107.93 310.478 1108.32 310.364 1108.52 310.208C1108.72 310.04 1108.83 309.782 1108.83 309.434V302.216H1110.37V309.434C1110.37 309.782 1110.51 310.046 1110.79 310.226C1111.08 310.406 1111.59 310.514 1112.32 310.55V311H1107.37ZM1107.21 302.828V302.36L1109.58 302.036H1115.81V302.828H1107.21ZM1113.04 311V310.55C1113.59 310.478 1113.97 310.358 1114.17 310.19C1114.39 310.022 1114.5 309.752 1114.5 309.38V303.566C1114.5 303.302 1114.43 303.116 1114.3 303.008C1114.18 302.888 1113.97 302.828 1113.69 302.828H1113.18V302.36L1115.59 302.036H1116.04V309.38C1116.04 309.74 1116.15 310.01 1116.37 310.19C1116.6 310.358 1116.97 310.478 1117.5 310.55V311H1113.04ZM1108.83 302.342L1108.75 301.676C1108.69 301.016 1108.77 300.446 1108.97 299.966C1109.19 299.474 1109.49 299.072 1109.89 298.76C1110.28 298.436 1110.72 298.196 1111.2 298.04C1111.69 297.872 1112.19 297.788 1112.68 297.788C1113.27 297.788 1113.81 297.872 1114.3 298.04C1114.79 298.196 1115.19 298.418 1115.49 298.706C1115.79 298.982 1115.94 299.3 1115.94 299.66C1115.94 299.936 1115.85 300.17 1115.67 300.362C1115.49 300.554 1115.26 300.65 1115 300.65C1114.72 300.65 1114.5 300.554 1114.32 300.362C1114.15 300.17 1114.06 299.942 1114.06 299.678C1114.06 299.222 1113.92 298.892 1113.63 298.688C1113.34 298.472 1112.98 298.364 1112.55 298.364C1112.31 298.364 1112.04 298.418 1111.72 298.526C1111.42 298.634 1111.14 298.808 1110.88 299.048C1110.61 299.288 1110.41 299.6 1110.27 299.984C1110.13 300.368 1110.11 300.836 1110.19 301.388L1110.34 302.288L1108.83 302.342Z" fill="white"/>
<path d="M1121.49 303.944C1121.75 303.284 1122.16 302.78 1122.73 302.432C1123.29 302.072 1123.92 301.892 1124.6 301.892C1125.18 301.892 1125.67 302.018 1126.09 302.27C1126.53 302.51 1126.86 302.858 1127.08 303.314C1127.32 303.77 1127.44 304.304 1127.44 304.916V309.434C1127.44 309.758 1127.55 310.01 1127.75 310.19C1127.95 310.358 1128.34 310.478 1128.92 310.55V311H1124.49V310.55C1125.03 310.478 1125.4 310.364 1125.59 310.208C1125.79 310.04 1125.9 309.782 1125.9 309.434V305.042C1125.9 304.382 1125.73 303.872 1125.39 303.512C1125.06 303.14 1124.56 302.954 1123.9 302.954C1123.54 302.954 1123.17 303.056 1122.8 303.26C1122.43 303.464 1122.12 303.752 1121.86 304.124C1121.61 304.484 1121.49 304.922 1121.49 305.438V309.434C1121.49 309.782 1121.59 310.04 1121.79 310.208C1122.01 310.364 1122.38 310.478 1122.91 310.55V311H1118.48V310.55C1119.06 310.478 1119.44 310.364 1119.63 310.208C1119.84 310.04 1119.94 309.782 1119.94 309.434V303.764C1119.94 303.512 1119.87 303.326 1119.74 303.206C1119.62 303.074 1119.42 303.008 1119.13 303.008H1118.52V302.558L1121.04 301.982H1121.49V303.944Z" fill="white"/>
<path d="M1133.35 314.51C1132.5 314.51 1131.79 314.426 1131.23 314.258C1130.66 314.09 1130.24 313.85 1129.95 313.538C1129.66 313.226 1129.52 312.86 1129.52 312.44C1129.52 312.02 1129.64 311.654 1129.9 311.342C1130.15 311.03 1130.49 310.784 1130.92 310.604C1131.35 310.412 1131.83 310.328 1132.36 310.352L1132.6 310.64C1132.39 310.616 1132.18 310.646 1131.97 310.73C1131.75 310.802 1131.55 310.91 1131.35 311.054C1131.17 311.198 1131.03 311.366 1130.92 311.558C1130.81 311.762 1130.76 311.984 1130.76 312.224C1130.76 312.5 1130.84 312.74 1130.99 312.944C1131.15 313.16 1131.37 313.334 1131.66 313.466C1131.95 313.61 1132.28 313.712 1132.67 313.772C1133.05 313.844 1133.47 313.88 1133.91 313.88C1134.52 313.88 1135.06 313.814 1135.51 313.682C1135.98 313.55 1136.35 313.358 1136.61 313.106C1136.87 312.854 1137.01 312.56 1137.01 312.224C1137.01 311.804 1136.84 311.498 1136.52 311.306C1136.21 311.126 1135.8 311.012 1135.3 310.964L1132.67 310.658C1131.89 310.562 1131.28 310.376 1130.83 310.1C1130.4 309.824 1130.18 309.452 1130.18 308.984C1130.18 308.684 1130.27 308.42 1130.44 308.192C1130.6 307.964 1130.88 307.778 1131.26 307.634C1131.65 307.49 1132.15 307.412 1132.78 307.4L1133.42 307.778C1132.66 307.778 1132.09 307.844 1131.73 307.976C1131.37 308.108 1131.19 308.3 1131.19 308.552C1131.19 308.744 1131.28 308.9 1131.44 309.02C1131.62 309.128 1131.88 309.206 1132.22 309.254L1135.51 309.578C1135.99 309.626 1136.43 309.734 1136.83 309.902C1137.23 310.058 1137.56 310.286 1137.8 310.586C1138.05 310.874 1138.18 311.246 1138.18 311.702C1138.18 312.134 1138.06 312.524 1137.83 312.872C1137.62 313.22 1137.3 313.514 1136.88 313.754C1136.46 313.994 1135.95 314.18 1135.35 314.312C1134.76 314.444 1134.1 314.51 1133.35 314.51ZM1133.6 307.778C1133.21 307.778 1132.8 307.724 1132.38 307.616C1131.97 307.496 1131.59 307.316 1131.25 307.076C1130.9 306.836 1130.62 306.53 1130.4 306.158C1130.2 305.786 1130.09 305.348 1130.09 304.844C1130.09 304.232 1130.26 303.71 1130.58 303.278C1130.9 302.834 1131.34 302.492 1131.88 302.252C1132.42 302.012 1133 301.892 1133.62 301.892C1134.23 301.892 1134.8 302.012 1135.33 302.252C1135.87 302.48 1136.3 302.816 1136.63 303.26C1136.96 303.692 1137.13 304.22 1137.13 304.844C1137.13 305.3 1137.04 305.714 1136.84 306.086C1136.65 306.446 1136.39 306.752 1136.07 307.004C1135.76 307.256 1135.39 307.448 1134.95 307.58C1134.53 307.712 1134.08 307.778 1133.6 307.778ZM1133.62 307.256C1133.83 307.256 1134.02 307.226 1134.22 307.166C1134.42 307.094 1134.6 306.992 1134.76 306.86C1134.92 306.716 1135.07 306.548 1135.19 306.356C1135.31 306.152 1135.4 305.93 1135.46 305.69C1135.53 305.438 1135.57 305.156 1135.57 304.844C1135.57 304.328 1135.48 303.89 1135.3 303.53C1135.12 303.17 1134.88 302.9 1134.58 302.72C1134.29 302.528 1133.97 302.432 1133.62 302.432C1133.42 302.432 1133.21 302.468 1133.01 302.54C1132.82 302.6 1132.64 302.696 1132.47 302.828C1132.3 302.96 1132.16 303.128 1132.04 303.332C1131.92 303.524 1131.82 303.746 1131.75 303.998C1131.69 304.25 1131.66 304.532 1131.66 304.844C1131.66 305.348 1131.75 305.78 1131.93 306.14C1132.11 306.5 1132.35 306.776 1132.65 306.968C1132.95 307.16 1133.27 307.256 1133.62 307.256ZM1135.69 302.54L1135.28 302.342C1135.58 301.826 1135.92 301.442 1136.3 301.19C1136.7 300.926 1137.08 300.794 1137.44 300.794C1137.81 300.794 1138.09 300.872 1138.28 301.028C1138.49 301.172 1138.59 301.364 1138.59 301.604C1138.59 301.808 1138.52 301.982 1138.37 302.126C1138.24 302.27 1138.08 302.342 1137.89 302.342C1137.78 302.342 1137.67 302.318 1137.55 302.27C1137.44 302.21 1137.35 302.132 1137.28 302.036C1137.22 301.94 1137.14 301.88 1137.04 301.856C1136.96 301.82 1136.87 301.802 1136.77 301.802C1136.59 301.802 1136.4 301.862 1136.2 301.982C1136 302.09 1135.84 302.276 1135.69 302.54Z" fill="white"/>
<path d="M1143.54 311.144C1142.7 311.144 1141.95 310.958 1141.3 310.586C1140.66 310.214 1140.15 309.698 1139.79 309.038C1139.44 308.366 1139.27 307.592 1139.27 306.716C1139.27 305.972 1139.38 305.306 1139.61 304.718C1139.84 304.118 1140.15 303.608 1140.55 303.188C1140.96 302.768 1141.42 302.45 1141.95 302.234C1142.49 302.006 1143.07 301.892 1143.68 301.892C1144.27 301.892 1144.78 301.988 1145.21 302.18C1145.65 302.372 1146.02 302.642 1146.31 302.99C1146.61 303.338 1146.82 303.74 1146.96 304.196C1147.09 304.652 1147.14 305.15 1147.12 305.69H1140.6V305.114H1144.78C1144.92 305.114 1145.04 305.09 1145.14 305.042C1145.23 304.982 1145.31 304.898 1145.35 304.79C1145.41 304.682 1145.44 304.556 1145.44 304.412C1145.44 303.872 1145.28 303.416 1144.94 303.044C1144.6 302.66 1144.14 302.468 1143.55 302.468C1143.16 302.468 1142.79 302.558 1142.46 302.738C1142.12 302.906 1141.83 303.152 1141.59 303.476C1141.35 303.8 1141.17 304.184 1141.03 304.628C1140.9 305.072 1140.84 305.564 1140.84 306.104C1140.84 306.896 1140.97 307.586 1141.23 308.174C1141.5 308.762 1141.87 309.218 1142.35 309.542C1142.84 309.854 1143.42 310.01 1144.09 310.01C1144.79 310.01 1145.37 309.824 1145.84 309.452C1146.31 309.08 1146.65 308.558 1146.87 307.886H1147.32C1147.09 308.942 1146.66 309.752 1146.02 310.316C1145.4 310.868 1144.57 311.144 1143.54 311.144Z" fill="white"/>
<path d="M1151.56 303.89C1151.77 303.23 1152.08 302.732 1152.49 302.396C1152.91 302.06 1153.34 301.892 1153.77 301.892C1154.17 301.892 1154.48 302 1154.72 302.216C1154.98 302.432 1155.1 302.678 1155.1 302.954C1155.1 303.194 1155.02 303.392 1154.87 303.548C1154.71 303.704 1154.52 303.782 1154.29 303.782C1154.12 303.782 1153.99 303.74 1153.88 303.656C1153.78 303.572 1153.7 303.482 1153.64 303.386C1153.6 303.29 1153.53 303.2 1153.45 303.116C1153.37 303.032 1153.26 302.99 1153.1 302.99C1152.84 302.99 1152.59 303.116 1152.35 303.368C1152.12 303.62 1151.93 303.944 1151.77 304.34C1151.63 304.736 1151.56 305.15 1151.56 305.582V309.416C1151.56 309.8 1151.7 310.07 1151.99 310.226C1152.28 310.382 1152.73 310.49 1153.34 310.55V311H1148.68V310.55C1149.17 310.49 1149.51 310.376 1149.7 310.208C1149.91 310.028 1150.01 309.764 1150.01 309.416V303.764C1150.01 303.512 1149.94 303.326 1149.81 303.206C1149.69 303.074 1149.49 303.008 1149.2 303.008H1148.59V302.558L1151.11 301.982H1151.56V303.89Z" fill="white"/>
<path d="M1156.91 301.82L1156.42 299.066C1156.37 298.838 1156.37 298.64 1156.4 298.472C1156.45 298.292 1156.54 298.148 1156.66 298.04C1156.79 297.932 1156.95 297.878 1157.14 297.878C1157.35 297.878 1157.51 297.932 1157.63 298.04C1157.75 298.148 1157.83 298.292 1157.86 298.472C1157.91 298.64 1157.91 298.838 1157.86 299.066L1157.38 301.82H1156.91Z" fill="white"/>
<path d="M1162.23 311.144C1161.8 311.144 1161.41 311.096 1161.06 311C1160.73 310.916 1160.41 310.844 1160.13 310.784C1159.85 310.724 1159.57 310.73 1159.3 310.802L1158.92 308.174H1159.37C1159.63 308.942 1159.99 309.536 1160.45 309.956C1160.91 310.376 1161.48 310.586 1162.18 310.586C1162.73 310.586 1163.19 310.448 1163.56 310.172C1163.94 309.884 1164.12 309.494 1164.12 309.002C1164.12 308.606 1164 308.294 1163.76 308.066C1163.52 307.826 1163.2 307.628 1162.81 307.472C1162.42 307.316 1162.02 307.166 1161.58 307.022C1161.15 306.878 1160.74 306.704 1160.36 306.5C1159.98 306.296 1159.66 306.032 1159.41 305.708C1159.17 305.384 1159.05 304.958 1159.05 304.43C1159.05 303.974 1159.14 303.59 1159.32 303.278C1159.5 302.954 1159.74 302.69 1160.04 302.486C1160.34 302.282 1160.67 302.132 1161.03 302.036C1161.4 301.94 1161.76 301.892 1162.12 301.892C1162.58 301.892 1162.96 301.94 1163.28 302.036C1163.6 302.12 1163.88 302.198 1164.12 302.27C1164.36 302.342 1164.6 302.354 1164.84 302.306L1165 304.646H1164.54C1164.44 304.166 1164.27 303.764 1164.03 303.44C1163.8 303.116 1163.52 302.87 1163.19 302.702C1162.85 302.534 1162.48 302.45 1162.09 302.45C1161.63 302.45 1161.22 302.576 1160.86 302.828C1160.5 303.068 1160.32 303.416 1160.32 303.872C1160.32 304.256 1160.44 304.562 1160.68 304.79C1160.94 305.006 1161.25 305.192 1161.64 305.348C1162.03 305.492 1162.45 305.636 1162.88 305.78C1163.32 305.912 1163.74 306.08 1164.12 306.284C1164.52 306.488 1164.84 306.758 1165.08 307.094C1165.33 307.43 1165.45 307.874 1165.45 308.426C1165.45 308.978 1165.32 309.458 1165.04 309.866C1164.76 310.262 1164.39 310.574 1163.91 310.802C1163.43 311.03 1162.87 311.144 1162.23 311.144Z" fill="white"/>
<path d="M1175.99 311.144C1175.13 311.144 1174.36 310.946 1173.69 310.55C1173.03 310.154 1172.51 309.608 1172.12 308.912C1171.74 308.216 1171.55 307.412 1171.55 306.5C1171.55 305.828 1171.66 305.21 1171.87 304.646C1172.09 304.082 1172.39 303.596 1172.79 303.188C1173.19 302.768 1173.65 302.45 1174.19 302.234C1174.73 302.006 1175.33 301.892 1175.99 301.892C1176.87 301.892 1177.64 302.09 1178.3 302.486C1178.96 302.87 1179.47 303.41 1179.85 304.106C1180.22 304.79 1180.4 305.588 1180.4 306.5C1180.4 307.184 1180.3 307.814 1180.08 308.39C1179.86 308.954 1179.56 309.446 1179.16 309.866C1178.78 310.274 1178.32 310.592 1177.78 310.82C1177.24 311.036 1176.64 311.144 1175.99 311.144ZM1175.99 310.55C1176.32 310.55 1176.62 310.49 1176.89 310.37C1177.18 310.25 1177.43 310.076 1177.65 309.848C1177.87 309.608 1178.05 309.326 1178.21 309.002C1178.36 308.666 1178.48 308.288 1178.55 307.868C1178.63 307.448 1178.68 306.992 1178.68 306.5C1178.68 305.684 1178.57 304.976 1178.35 304.376C1178.14 303.776 1177.82 303.314 1177.42 302.99C1177.02 302.654 1176.55 302.486 1175.99 302.486C1175.66 302.486 1175.35 302.546 1175.06 302.666C1174.78 302.786 1174.53 302.966 1174.3 303.206C1174.09 303.434 1173.9 303.716 1173.74 304.052C1173.59 304.376 1173.47 304.748 1173.38 305.168C1173.31 305.576 1173.28 306.02 1173.28 306.5C1173.28 307.316 1173.38 308.03 1173.6 308.642C1173.83 309.254 1174.14 309.728 1174.54 310.064C1174.94 310.388 1175.43 310.55 1175.99 310.55Z" fill="white"/>
<path d="M1184.82 303.944C1185.08 303.284 1185.5 302.78 1186.06 302.432C1186.62 302.072 1187.25 301.892 1187.93 301.892C1188.51 301.892 1189.01 302.018 1189.43 302.27C1189.86 302.51 1190.19 302.858 1190.42 303.314C1190.66 303.77 1190.78 304.304 1190.78 304.916V309.434C1190.78 309.758 1190.88 310.01 1191.08 310.19C1191.29 310.358 1191.68 310.478 1192.25 310.55V311H1187.82V310.55C1188.36 310.478 1188.73 310.364 1188.92 310.208C1189.13 310.04 1189.23 309.782 1189.23 309.434V305.042C1189.23 304.382 1189.06 303.872 1188.72 303.512C1188.39 303.14 1187.89 302.954 1187.23 302.954C1186.87 302.954 1186.5 303.056 1186.13 303.26C1185.76 303.464 1185.45 303.752 1185.2 304.124C1184.94 304.484 1184.82 304.922 1184.82 305.438V309.434C1184.82 309.782 1184.92 310.04 1185.12 310.208C1185.34 310.364 1185.71 310.478 1186.24 310.55V311H1181.81V310.55C1182.39 310.478 1182.77 310.364 1182.96 310.208C1183.17 310.04 1183.27 309.782 1183.27 309.434V303.764C1183.27 303.512 1183.2 303.326 1183.07 303.206C1182.95 303.074 1182.75 303.008 1182.46 303.008H1181.85V302.558L1184.37 301.982H1184.82V303.944Z" fill="white"/>
<path d="M1067.95 336.11H1068.4C1068.36 336.482 1068.24 336.824 1068.04 337.136C1067.85 337.436 1067.6 337.682 1067.29 337.874C1066.99 338.054 1066.65 338.144 1066.26 338.144C1065.82 338.144 1065.42 338.06 1065.07 337.892C1064.74 337.724 1064.47 337.472 1064.28 337.136C1064.1 336.788 1064.01 336.35 1064.01 335.822V329.828H1062.5V329.36C1062.84 329.324 1063.15 329.24 1063.44 329.108C1063.72 328.976 1063.98 328.814 1064.21 328.622C1064.45 328.43 1064.65 328.214 1064.8 327.974C1064.96 327.722 1065.07 327.446 1065.15 327.146H1065.6V329.036H1068.03V329.828H1065.58V335.714C1065.58 336.014 1065.62 336.272 1065.7 336.488C1065.8 336.704 1065.94 336.872 1066.12 336.992C1066.3 337.1 1066.51 337.154 1066.75 337.154C1067.04 337.154 1067.29 337.058 1067.5 336.866C1067.73 336.674 1067.88 336.422 1067.95 336.11Z" fill="white"/>
<path d="M1069.08 338V337.55C1069.66 337.478 1070.04 337.364 1070.23 337.208C1070.44 337.04 1070.54 336.782 1070.54 336.434V326.642C1070.54 326.378 1070.48 326.192 1070.36 326.084C1070.24 325.964 1070.04 325.904 1069.75 325.904H1069.12V325.454L1071.64 324.878H1072.09V330.944C1072.27 330.5 1072.51 330.128 1072.83 329.828C1073.15 329.528 1073.52 329.3 1073.92 329.144C1074.33 328.976 1074.75 328.892 1075.18 328.892C1075.77 328.892 1076.28 329.018 1076.7 329.27C1077.13 329.51 1077.46 329.858 1077.69 330.314C1077.93 330.77 1078.05 331.304 1078.05 331.916V336.434C1078.05 336.758 1078.15 337.01 1078.35 337.19C1078.56 337.358 1078.95 337.478 1079.52 337.55V338H1075.09V337.55C1075.63 337.478 1076 337.364 1076.19 337.208C1076.4 337.04 1076.5 336.782 1076.5 336.434V331.97C1076.5 331.346 1076.33 330.854 1075.99 330.494C1075.66 330.134 1075.15 329.954 1074.48 329.954C1074.13 329.954 1073.77 330.056 1073.4 330.26C1073.03 330.464 1072.72 330.752 1072.47 331.124C1072.21 331.484 1072.09 331.922 1072.09 332.438V336.434C1072.09 336.782 1072.19 337.04 1072.39 337.208C1072.61 337.364 1072.98 337.478 1073.51 337.55V338H1069.08Z" fill="white"/>
<path d="M1084.84 338.144C1084 338.144 1083.26 337.958 1082.61 337.586C1081.96 337.214 1081.46 336.698 1081.1 336.038C1080.75 335.366 1080.57 334.592 1080.57 333.716C1080.57 332.972 1080.69 332.306 1080.92 331.718C1081.14 331.118 1081.46 330.608 1081.85 330.188C1082.26 329.768 1082.73 329.45 1083.26 329.234C1083.8 329.006 1084.37 328.892 1084.98 328.892C1085.57 328.892 1086.08 328.988 1086.51 329.18C1086.96 329.372 1087.32 329.642 1087.61 329.99C1087.91 330.338 1088.13 330.74 1088.26 331.196C1088.39 331.652 1088.45 332.15 1088.42 332.69H1081.91V332.114H1086.08C1086.23 332.114 1086.35 332.09 1086.44 332.042C1086.54 331.982 1086.61 331.898 1086.66 331.79C1086.72 331.682 1086.75 331.556 1086.75 331.412C1086.75 330.872 1086.58 330.416 1086.24 330.044C1085.91 329.66 1085.45 329.468 1084.86 329.468C1084.46 329.468 1084.1 329.558 1083.76 329.738C1083.42 329.906 1083.14 330.152 1082.9 330.476C1082.66 330.8 1082.47 331.184 1082.34 331.628C1082.21 332.072 1082.14 332.564 1082.14 333.104C1082.14 333.896 1082.27 334.586 1082.54 335.174C1082.8 335.762 1083.17 336.218 1083.65 336.542C1084.14 336.854 1084.73 337.01 1085.4 337.01C1086.09 337.01 1086.68 336.824 1087.14 336.452C1087.61 336.08 1087.95 335.558 1088.17 334.886H1088.62C1088.39 335.942 1087.96 336.752 1087.32 337.316C1086.7 337.868 1085.87 338.144 1084.84 338.144Z" fill="white"/>
<path d="M1099.65 338.144C1099.16 338.144 1098.69 338.06 1098.23 337.892C1097.77 337.712 1097.37 337.466 1097.02 337.154C1096.68 336.842 1096.41 336.482 1096.21 336.074L1097.11 334.58C1097.11 335.024 1097.17 335.426 1097.28 335.786C1097.4 336.134 1097.56 336.44 1097.76 336.704C1097.98 336.968 1098.24 337.172 1098.54 337.316C1098.84 337.448 1099.16 337.514 1099.51 337.514C1099.92 337.514 1100.29 337.418 1100.62 337.226C1100.96 337.034 1101.25 336.764 1101.49 336.416C1101.74 336.068 1101.93 335.654 1102.06 335.174C1102.19 334.694 1102.26 334.172 1102.26 333.608C1102.26 332.876 1102.15 332.228 1101.94 331.664C1101.72 331.1 1101.42 330.662 1101.02 330.35C1100.64 330.026 1100.17 329.864 1099.63 329.864C1099.14 329.864 1098.7 330.014 1098.32 330.314C1097.94 330.614 1097.64 330.992 1097.42 331.448C1097.22 331.904 1097.11 332.384 1097.11 332.888L1097.04 331.484C1097.15 330.992 1097.35 330.554 1097.64 330.17C1097.94 329.774 1098.31 329.462 1098.77 329.234C1099.23 329.006 1099.74 328.892 1100.3 328.892C1101.04 328.892 1101.68 329.09 1102.21 329.486C1102.75 329.882 1103.17 330.428 1103.47 331.124C1103.77 331.82 1103.92 332.606 1103.92 333.482C1103.92 334.19 1103.81 334.832 1103.59 335.408C1103.38 335.972 1103.08 336.458 1102.69 336.866C1102.31 337.274 1101.86 337.592 1101.34 337.82C1100.83 338.036 1100.26 338.144 1099.65 338.144ZM1094.11 341.366V340.916C1094.66 340.844 1095.04 340.724 1095.24 340.556C1095.46 340.388 1095.57 340.112 1095.57 339.728V330.764C1095.57 330.512 1095.5 330.326 1095.37 330.206C1095.25 330.074 1095.04 330.008 1094.76 330.008H1094.12V329.558L1096.61 328.982H1097.11V339.728C1097.11 340.112 1097.25 340.388 1097.51 340.556C1097.79 340.736 1098.27 340.856 1098.95 340.916V341.366H1094.11Z" fill="white"/>
<path d="M1109.31 338.144C1108.75 338.144 1108.25 338.024 1107.82 337.784C1107.38 337.532 1107.05 337.178 1106.81 336.722C1106.57 336.266 1106.45 335.732 1106.45 335.12V330.764C1106.45 330.512 1106.38 330.326 1106.25 330.206C1106.13 330.074 1105.93 330.008 1105.64 330.008H1105.01V329.558L1107.53 328.982H1108V335.066C1108 335.678 1108.17 336.17 1108.52 336.542C1108.87 336.902 1109.32 337.082 1109.87 337.082C1110.29 337.082 1110.68 336.974 1111.04 336.758C1111.41 336.542 1111.71 336.242 1111.94 335.858C1112.17 335.462 1112.28 335.012 1112.28 334.508V330.764C1112.28 330.512 1112.21 330.326 1112.08 330.206C1111.95 330.074 1111.74 330.008 1111.45 330.008H1110.84V329.558L1113.36 328.982H1113.83V336.254C1113.83 336.518 1113.89 336.71 1114.01 336.83C1114.13 336.938 1114.34 336.992 1114.64 336.992H1115.3V337.442L1112.73 338.054H1112.28V336.056C1111.99 336.716 1111.59 337.232 1111.07 337.604C1110.56 337.964 1109.97 338.144 1109.31 338.144Z" fill="white"/>
<path d="M1116.02 338V337.55C1116.56 337.478 1116.94 337.358 1117.15 337.19C1117.38 337.022 1117.49 336.752 1117.49 336.38V326.66C1117.49 326.384 1117.43 326.192 1117.3 326.084C1117.18 325.964 1116.97 325.904 1116.68 325.904H1116.05V325.454L1118.57 324.878H1119.02V336.38C1119.02 336.74 1119.13 337.01 1119.35 337.19C1119.58 337.358 1119.96 337.478 1120.5 337.55V338H1116.02Z" fill="white"/>
<path d="M1125.06 338.144C1124.63 338.144 1124.24 338.096 1123.89 338C1123.55 337.916 1123.24 337.844 1122.95 337.784C1122.68 337.724 1122.4 337.73 1122.13 337.802L1121.75 335.174H1122.2C1122.46 335.942 1122.82 336.536 1123.28 336.956C1123.73 337.376 1124.31 337.586 1125.01 337.586C1125.56 337.586 1126.02 337.448 1126.39 337.172C1126.76 336.884 1126.95 336.494 1126.95 336.002C1126.95 335.606 1126.83 335.294 1126.59 335.066C1126.35 334.826 1126.03 334.628 1125.64 334.472C1125.25 334.316 1124.84 334.166 1124.41 334.022C1123.98 333.878 1123.57 333.704 1123.19 333.5C1122.8 333.296 1122.49 333.032 1122.23 332.708C1121.99 332.384 1121.87 331.958 1121.87 331.43C1121.87 330.974 1121.96 330.59 1122.14 330.278C1122.32 329.954 1122.56 329.69 1122.86 329.486C1123.16 329.282 1123.49 329.132 1123.85 329.036C1124.23 328.94 1124.59 328.892 1124.95 328.892C1125.41 328.892 1125.79 328.94 1126.1 329.036C1126.43 329.12 1126.71 329.198 1126.95 329.27C1127.19 329.342 1127.43 329.354 1127.67 329.306L1127.83 331.646H1127.36C1127.27 331.166 1127.1 330.764 1126.86 330.44C1126.63 330.116 1126.35 329.87 1126.01 329.702C1125.68 329.534 1125.31 329.45 1124.92 329.45C1124.46 329.45 1124.05 329.576 1123.69 329.828C1123.33 330.068 1123.15 330.416 1123.15 330.872C1123.15 331.256 1123.27 331.562 1123.51 331.79C1123.76 332.006 1124.08 332.192 1124.47 332.348C1124.86 332.492 1125.28 332.636 1125.71 332.78C1126.15 332.912 1126.57 333.08 1126.95 333.284C1127.35 333.488 1127.66 333.758 1127.9 334.094C1128.16 334.43 1128.28 334.874 1128.28 335.426C1128.28 335.978 1128.14 336.458 1127.87 336.866C1127.59 337.262 1127.21 337.574 1126.73 337.802C1126.25 338.03 1125.7 338.144 1125.06 338.144Z" fill="white"/>
<path d="M1134.19 338.144C1133.35 338.144 1132.61 337.958 1131.96 337.586C1131.31 337.214 1130.81 336.698 1130.45 336.038C1130.1 335.366 1129.92 334.592 1129.92 333.716C1129.92 332.972 1130.04 332.306 1130.27 331.718C1130.49 331.118 1130.81 330.608 1131.2 330.188C1131.61 329.768 1132.08 329.45 1132.61 329.234C1133.15 329.006 1133.72 328.892 1134.33 328.892C1134.92 328.892 1135.43 328.988 1135.86 329.18C1136.31 329.372 1136.67 329.642 1136.96 329.99C1137.26 330.338 1137.48 330.74 1137.61 331.196C1137.74 331.652 1137.8 332.15 1137.77 332.69H1131.26V332.114H1135.43C1135.58 332.114 1135.7 332.09 1135.79 332.042C1135.89 331.982 1135.96 331.898 1136.01 331.79C1136.07 331.682 1136.1 331.556 1136.1 331.412C1136.1 330.872 1135.93 330.416 1135.59 330.044C1135.26 329.66 1134.8 329.468 1134.21 329.468C1133.81 329.468 1133.45 329.558 1133.11 329.738C1132.77 329.906 1132.49 330.152 1132.25 330.476C1132.01 330.8 1131.82 331.184 1131.69 331.628C1131.56 332.072 1131.49 332.564 1131.49 333.104C1131.49 333.896 1131.62 334.586 1131.89 335.174C1132.15 335.762 1132.52 336.218 1133 336.542C1133.49 336.854 1134.08 337.01 1134.75 337.01C1135.44 337.01 1136.03 336.824 1136.49 336.452C1136.96 336.08 1137.3 335.558 1137.52 334.886H1137.97C1137.74 335.942 1137.31 336.752 1136.67 337.316C1136.05 337.868 1135.22 338.144 1134.19 338.144Z" fill="white"/>
<path d="M1140.67 338.126C1140.34 338.126 1140.07 338.018 1139.84 337.802C1139.62 337.574 1139.51 337.304 1139.51 336.992C1139.51 336.788 1139.56 336.602 1139.66 336.434C1139.77 336.254 1139.91 336.116 1140.09 336.02C1140.27 335.924 1140.46 335.876 1140.67 335.876C1140.99 335.876 1141.26 335.984 1141.48 336.2C1141.7 336.416 1141.82 336.68 1141.82 336.992C1141.82 337.196 1141.76 337.388 1141.66 337.568C1141.56 337.748 1141.42 337.886 1141.24 337.982C1141.07 338.078 1140.88 338.126 1140.67 338.126Z" fill="white"/>
<path d="M1146.23 338V337.55C1146.63 337.538 1147 337.412 1147.35 337.172C1147.71 336.92 1148.03 336.446 1148.32 335.75L1152.95 325.022H1154.08L1158.69 335.768C1158.96 336.404 1159.28 336.86 1159.62 337.136C1159.97 337.4 1160.39 337.538 1160.87 337.55V338H1155.16V337.55C1156.1 337.538 1156.68 337.418 1156.91 337.19C1157.15 336.95 1157.14 336.53 1156.89 335.93L1152.8 326.3L1153.23 326.156L1149.09 335.93C1148.84 336.542 1148.82 336.962 1149.04 337.19C1149.26 337.418 1149.81 337.538 1150.7 337.55V338H1146.23ZM1149.78 333.482L1150.01 332.744H1155.97L1156.19 333.482H1149.78Z" fill="white"/>
<path d="M1161.27 338V337.55C1161.81 337.478 1162.19 337.358 1162.41 337.19C1162.63 337.022 1162.75 336.752 1162.75 336.38V326.66C1162.75 326.384 1162.68 326.192 1162.55 326.084C1162.43 325.964 1162.23 325.904 1161.94 325.904H1161.31V325.454L1163.83 324.878H1164.28V336.38C1164.28 336.74 1164.39 337.01 1164.6 337.19C1164.83 337.358 1165.21 337.478 1165.75 337.55V338H1161.27Z" fill="white"/>
<path d="M1166.48 338V337.55C1167.02 337.478 1167.4 337.358 1167.61 337.19C1167.84 337.022 1167.96 336.752 1167.96 336.38V326.66C1167.96 326.384 1167.89 326.192 1167.76 326.084C1167.64 325.964 1167.43 325.904 1167.15 325.904H1166.52V325.454L1169.04 324.878H1169.49V336.38C1169.49 336.74 1169.59 337.01 1169.81 337.19C1170.04 337.358 1170.42 337.478 1170.96 337.55V338H1166.48Z" fill="white"/>
<path d="M1181.03 338.144C1180.17 338.144 1179.4 337.946 1178.73 337.55C1178.07 337.154 1177.55 336.608 1177.16 335.912C1176.78 335.216 1176.59 334.412 1176.59 333.5C1176.59 332.828 1176.7 332.21 1176.91 331.646C1177.13 331.082 1177.43 330.596 1177.83 330.188C1178.23 329.768 1178.69 329.45 1179.23 329.234C1179.77 329.006 1180.37 328.892 1181.03 328.892C1181.91 328.892 1182.68 329.09 1183.34 329.486C1184 329.87 1184.51 330.41 1184.89 331.106C1185.26 331.79 1185.44 332.588 1185.44 333.5C1185.44 334.184 1185.34 334.814 1185.12 335.39C1184.9 335.954 1184.6 336.446 1184.2 336.866C1183.82 337.274 1183.36 337.592 1182.82 337.82C1182.28 338.036 1181.68 338.144 1181.03 338.144ZM1181.03 337.55C1181.36 337.55 1181.66 337.49 1181.93 337.37C1182.22 337.25 1182.47 337.076 1182.69 336.848C1182.91 336.608 1183.09 336.326 1183.25 336.002C1183.4 335.666 1183.52 335.288 1183.59 334.868C1183.67 334.448 1183.72 333.992 1183.72 333.5C1183.72 332.684 1183.61 331.976 1183.39 331.376C1183.18 330.776 1182.86 330.314 1182.46 329.99C1182.06 329.654 1181.59 329.486 1181.03 329.486C1180.7 329.486 1180.39 329.546 1180.1 329.666C1179.82 329.786 1179.57 329.966 1179.34 330.206C1179.13 330.434 1178.94 330.716 1178.78 331.052C1178.63 331.376 1178.51 331.748 1178.42 332.168C1178.35 332.576 1178.32 333.02 1178.32 333.5C1178.32 334.316 1178.42 335.03 1178.64 335.642C1178.87 336.254 1179.18 336.728 1179.58 337.064C1179.98 337.388 1180.47 337.55 1181.03 337.55Z" fill="white"/>
<path d="M1188.36 329.342L1188.24 328.28C1188.18 327.776 1188.21 327.32 1188.33 326.912C1188.45 326.492 1188.64 326.132 1188.89 325.832C1189.15 325.52 1189.47 325.286 1189.84 325.13C1190.21 324.962 1190.63 324.878 1191.08 324.878C1191.52 324.878 1191.89 324.944 1192.22 325.076C1192.55 325.196 1192.82 325.358 1193.01 325.562C1193.2 325.754 1193.3 325.97 1193.3 326.21C1193.3 326.426 1193.22 326.612 1193.06 326.768C1192.92 326.912 1192.74 326.984 1192.52 326.984C1192.32 326.984 1192.14 326.918 1192 326.786C1191.86 326.654 1191.77 326.474 1191.75 326.246C1191.71 326.042 1191.64 325.862 1191.52 325.706C1191.41 325.538 1191.2 325.454 1190.9 325.454C1190.54 325.454 1190.26 325.568 1190.06 325.796C1189.85 326.012 1189.72 326.306 1189.64 326.678C1189.58 327.038 1189.58 327.428 1189.64 327.848L1189.86 329.288L1188.36 329.342ZM1186.73 329.828V329.36L1188.99 329.036H1192.36V329.828H1186.73ZM1189.9 329.198V336.434C1189.9 336.782 1190.03 337.046 1190.31 337.226C1190.6 337.406 1191.11 337.514 1191.84 337.55V338H1186.89V337.55C1187.45 337.478 1187.84 337.364 1188.04 337.208C1188.25 337.04 1188.35 336.782 1188.35 336.434V329.198H1189.9Z" fill="white"/>
<path d="M1077.95 368.51C1077.49 368.51 1077.12 368.402 1076.82 368.186C1076.52 367.97 1076.37 367.712 1076.37 367.412C1076.37 367.184 1076.45 366.986 1076.62 366.818C1076.79 366.65 1076.98 366.566 1077.21 366.566C1077.39 366.566 1077.53 366.596 1077.63 366.656C1077.73 366.728 1077.82 366.806 1077.9 366.89C1077.98 366.986 1078.08 367.07 1078.2 367.142C1078.32 367.214 1078.48 367.25 1078.69 367.25C1079.07 367.25 1079.38 367.1 1079.62 366.8C1079.86 366.5 1080.07 366.128 1080.25 365.684L1083.48 357.602C1083.61 357.278 1083.58 357.02 1083.4 356.828C1083.24 356.624 1082.92 356.51 1082.45 356.486V356.036H1085.31V356.486C1085.07 356.51 1084.86 356.624 1084.66 356.828C1084.47 357.032 1084.3 357.314 1084.14 357.674L1080.79 365.828C1080.66 366.152 1080.51 366.47 1080.34 366.782C1080.18 367.106 1079.98 367.394 1079.75 367.646C1079.52 367.91 1079.26 368.12 1078.96 368.276C1078.66 368.432 1078.32 368.51 1077.95 368.51ZM1080.63 365.288L1077.36 357.674C1077.22 357.35 1077.04 357.08 1076.82 356.864C1076.59 356.636 1076.32 356.51 1076.02 356.486V356.036H1080.15V356.486C1079.68 356.534 1079.34 356.648 1079.14 356.828C1078.93 357.008 1078.9 357.272 1079.05 357.62L1081.42 363.434L1080.63 365.288Z" fill="white"/>
<path d="M1090.44 365.144C1089.58 365.144 1088.81 364.946 1088.14 364.55C1087.48 364.154 1086.95 363.608 1086.57 362.912C1086.19 362.216 1085.99 361.412 1085.99 360.5C1085.99 359.828 1086.1 359.21 1086.32 358.646C1086.53 358.082 1086.84 357.596 1087.24 357.188C1087.63 356.768 1088.1 356.45 1088.64 356.234C1089.18 356.006 1089.78 355.892 1090.44 355.892C1091.32 355.892 1092.08 356.09 1092.74 356.486C1093.4 356.87 1093.92 357.41 1094.29 358.106C1094.66 358.79 1094.85 359.588 1094.85 360.5C1094.85 361.184 1094.74 361.814 1094.53 362.39C1094.31 362.954 1094 363.446 1093.61 363.866C1093.22 364.274 1092.76 364.592 1092.22 364.82C1091.68 365.036 1091.09 365.144 1090.44 365.144ZM1090.44 364.55C1090.76 364.55 1091.06 364.49 1091.34 364.37C1091.63 364.25 1091.88 364.076 1092.1 363.848C1092.31 363.608 1092.5 363.326 1092.65 363.002C1092.81 362.666 1092.92 362.288 1093 361.868C1093.08 361.448 1093.12 360.992 1093.12 360.5C1093.12 359.684 1093.01 358.976 1092.8 358.376C1092.58 357.776 1092.27 357.314 1091.86 356.99C1091.47 356.654 1090.99 356.486 1090.44 356.486C1090.1 356.486 1089.79 356.546 1089.5 356.666C1089.23 356.786 1088.98 356.966 1088.75 357.206C1088.53 357.434 1088.35 357.716 1088.19 358.052C1088.03 358.376 1087.91 358.748 1087.83 359.168C1087.76 359.576 1087.72 360.02 1087.72 360.5C1087.72 361.316 1087.83 362.03 1088.05 362.642C1088.27 363.254 1088.59 363.728 1088.98 364.064C1089.39 364.388 1089.88 364.55 1090.44 364.55Z" fill="white"/>
<path d="M1100.26 365.144C1099.69 365.144 1099.19 365.024 1098.76 364.784C1098.33 364.532 1097.99 364.178 1097.75 363.722C1097.51 363.266 1097.39 362.732 1097.39 362.12V357.764C1097.39 357.512 1097.33 357.326 1097.2 357.206C1097.08 357.074 1096.87 357.008 1096.58 357.008H1095.95V356.558L1098.47 355.982H1098.94V362.066C1098.94 362.678 1099.12 363.17 1099.46 363.542C1099.81 363.902 1100.26 364.082 1100.81 364.082C1101.23 364.082 1101.62 363.974 1101.98 363.758C1102.36 363.542 1102.66 363.242 1102.88 362.858C1103.11 362.462 1103.23 362.012 1103.23 361.508V357.764C1103.23 357.512 1103.16 357.326 1103.03 357.206C1102.9 357.074 1102.69 357.008 1102.4 357.008H1101.79V356.558L1104.31 355.982H1104.77V363.254C1104.77 363.518 1104.83 363.71 1104.95 363.83C1105.07 363.938 1105.28 363.992 1105.58 363.992H1106.25V364.442L1103.68 365.054H1103.23V363.056C1102.94 363.716 1102.54 364.232 1102.02 364.604C1101.5 364.964 1100.92 365.144 1100.26 365.144Z" fill="white"/>
<path d="M1110.17 357.89C1110.38 357.23 1110.7 356.732 1111.1 356.396C1111.52 356.06 1111.95 355.892 1112.38 355.892C1112.78 355.892 1113.1 356 1113.34 356.216C1113.59 356.432 1113.71 356.678 1113.71 356.954C1113.71 357.194 1113.64 357.392 1113.48 357.548C1113.32 357.704 1113.13 357.782 1112.9 357.782C1112.74 357.782 1112.6 357.74 1112.49 357.656C1112.39 357.572 1112.32 357.482 1112.26 357.386C1112.21 357.29 1112.14 357.2 1112.06 357.116C1111.99 357.032 1111.87 356.99 1111.72 356.99C1111.45 356.99 1111.2 357.116 1110.96 357.368C1110.73 357.62 1110.54 357.944 1110.38 358.34C1110.24 358.736 1110.17 359.15 1110.17 359.582V363.416C1110.17 363.8 1110.31 364.07 1110.6 364.226C1110.89 364.382 1111.34 364.49 1111.95 364.55V365H1107.29V364.55C1107.78 364.49 1108.12 364.376 1108.31 364.208C1108.52 364.028 1108.62 363.764 1108.62 363.416V357.764C1108.62 357.512 1108.55 357.326 1108.42 357.206C1108.3 357.074 1108.1 357.008 1107.81 357.008H1107.2V356.558L1109.72 355.982H1110.17V357.89Z" fill="white"/>
<path d="M1118.91 365V364.55C1119.48 364.478 1119.86 364.364 1120.07 364.208C1120.27 364.04 1120.37 363.782 1120.37 363.434V356.216H1121.92V363.434C1121.92 363.782 1122.06 364.046 1122.33 364.226C1122.62 364.406 1123.13 364.514 1123.86 364.55V365H1118.91ZM1118.75 356.828V356.36L1121.13 356.036H1127.36V356.828H1118.75ZM1124.58 365V364.55C1125.14 364.478 1125.51 364.358 1125.72 364.19C1125.93 364.022 1126.04 363.752 1126.04 363.38V357.566C1126.04 357.302 1125.98 357.116 1125.84 357.008C1125.72 356.888 1125.52 356.828 1125.23 356.828H1124.73V356.36L1127.14 356.036H1127.59V363.38C1127.59 363.74 1127.7 364.01 1127.91 364.19C1128.14 364.358 1128.52 364.478 1129.05 364.55V365H1124.58ZM1120.37 356.342L1120.3 355.676C1120.24 355.016 1120.31 354.446 1120.52 353.966C1120.73 353.474 1121.04 353.072 1121.43 352.76C1121.83 352.436 1122.27 352.196 1122.75 352.04C1123.24 351.872 1123.73 351.788 1124.22 351.788C1124.81 351.788 1125.35 351.872 1125.84 352.04C1126.34 352.196 1126.73 352.418 1127.03 352.706C1127.33 352.982 1127.48 353.3 1127.48 353.66C1127.48 353.936 1127.39 354.17 1127.21 354.362C1127.03 354.554 1126.81 354.65 1126.55 354.65C1126.27 354.65 1126.04 354.554 1125.86 354.362C1125.69 354.17 1125.61 353.942 1125.61 353.678C1125.61 353.222 1125.47 352.892 1125.18 352.688C1124.89 352.472 1124.53 352.364 1124.1 352.364C1123.86 352.364 1123.58 352.418 1123.27 352.526C1122.97 352.634 1122.69 352.808 1122.42 353.048C1122.16 353.288 1121.96 353.6 1121.81 353.984C1121.68 354.368 1121.66 354.836 1121.74 355.388L1121.88 356.288L1120.37 356.342Z" fill="white"/>
<path d="M1133.03 357.944C1133.3 357.284 1133.71 356.78 1134.27 356.432C1134.84 356.072 1135.46 355.892 1136.15 355.892C1136.72 355.892 1137.22 356.018 1137.64 356.27C1138.07 356.51 1138.4 356.858 1138.63 357.314C1138.87 357.77 1138.99 358.304 1138.99 358.916V363.434C1138.99 363.758 1139.09 364.01 1139.3 364.19C1139.5 364.358 1139.89 364.478 1140.47 364.55V365H1136.04V364.55C1136.58 364.478 1136.94 364.364 1137.14 364.208C1137.34 364.04 1137.44 363.782 1137.44 363.434V359.042C1137.44 358.382 1137.27 357.872 1136.94 357.512C1136.6 357.14 1136.1 356.954 1135.44 356.954C1135.08 356.954 1134.72 357.056 1134.35 357.26C1133.97 357.464 1133.66 357.752 1133.41 358.124C1133.16 358.484 1133.03 358.922 1133.03 359.438V363.434C1133.03 363.782 1133.13 364.04 1133.34 364.208C1133.55 364.364 1133.93 364.478 1134.45 364.55V365H1130.03V364.55C1130.6 364.478 1130.99 364.364 1131.18 364.208C1131.38 364.04 1131.48 363.782 1131.48 363.434V357.764C1131.48 357.512 1131.42 357.326 1131.29 357.206C1131.17 357.074 1130.96 357.008 1130.67 357.008H1130.06V356.558L1132.58 355.982H1133.03V357.944Z" fill="white"/>
<path d="M1144.9 368.51C1144.05 368.51 1143.34 368.426 1142.77 368.258C1142.21 368.09 1141.78 367.85 1141.5 367.538C1141.21 367.226 1141.06 366.86 1141.06 366.44C1141.06 366.02 1141.19 365.654 1141.44 365.342C1141.69 365.03 1142.04 364.784 1142.47 364.604C1142.9 364.412 1143.38 364.328 1143.91 364.352L1144.14 364.64C1143.94 364.616 1143.73 364.646 1143.51 364.73C1143.3 364.802 1143.09 364.91 1142.9 365.054C1142.72 365.198 1142.58 365.366 1142.47 365.558C1142.36 365.762 1142.31 365.984 1142.31 366.224C1142.31 366.5 1142.38 366.74 1142.54 366.944C1142.7 367.16 1142.92 367.334 1143.21 367.466C1143.49 367.61 1143.83 367.712 1144.21 367.772C1144.6 367.844 1145.01 367.88 1145.46 367.88C1146.07 367.88 1146.6 367.814 1147.06 367.682C1147.53 367.55 1147.89 367.358 1148.16 367.106C1148.42 366.854 1148.55 366.56 1148.55 366.224C1148.55 365.804 1148.39 365.498 1148.07 365.306C1147.75 365.126 1147.35 365.012 1146.84 364.964L1144.21 364.658C1143.43 364.562 1142.82 364.376 1142.38 364.1C1141.95 363.824 1141.73 363.452 1141.73 362.984C1141.73 362.684 1141.81 362.42 1141.98 362.192C1142.15 361.964 1142.43 361.778 1142.81 361.634C1143.19 361.49 1143.7 361.412 1144.32 361.4L1144.97 361.778C1144.2 361.778 1143.64 361.844 1143.28 361.976C1142.92 362.108 1142.74 362.3 1142.74 362.552C1142.74 362.744 1142.82 362.9 1142.99 363.02C1143.17 363.128 1143.43 363.206 1143.76 363.254L1147.06 363.578C1147.54 363.626 1147.98 363.734 1148.37 363.902C1148.78 364.058 1149.1 364.286 1149.34 364.586C1149.6 364.874 1149.72 365.246 1149.72 365.702C1149.72 366.134 1149.61 366.524 1149.38 366.872C1149.16 367.22 1148.85 367.514 1148.43 367.754C1148.01 367.994 1147.5 368.18 1146.9 368.312C1146.31 368.444 1145.64 368.51 1144.9 368.51ZM1145.15 361.778C1144.75 361.778 1144.35 361.724 1143.93 361.616C1143.52 361.496 1143.14 361.316 1142.79 361.076C1142.44 360.836 1142.16 360.53 1141.95 360.158C1141.74 359.786 1141.64 359.348 1141.64 358.844C1141.64 358.232 1141.8 357.71 1142.13 357.278C1142.45 356.834 1142.88 356.492 1143.42 356.252C1143.96 356.012 1144.54 355.892 1145.17 355.892C1145.78 355.892 1146.35 356.012 1146.88 356.252C1147.42 356.48 1147.85 356.816 1148.17 357.26C1148.51 357.692 1148.68 358.22 1148.68 358.844C1148.68 359.3 1148.58 359.714 1148.39 360.086C1148.2 360.446 1147.94 360.752 1147.62 361.004C1147.3 361.256 1146.93 361.448 1146.5 361.58C1146.08 361.712 1145.63 361.778 1145.15 361.778ZM1145.17 361.256C1145.37 361.256 1145.57 361.226 1145.76 361.166C1145.97 361.094 1146.15 360.992 1146.3 360.86C1146.47 360.716 1146.61 360.548 1146.73 360.356C1146.85 360.152 1146.94 359.93 1147 359.69C1147.08 359.438 1147.11 359.156 1147.11 358.844C1147.11 358.328 1147.02 357.89 1146.84 357.53C1146.66 357.17 1146.42 356.9 1146.12 356.72C1145.83 356.528 1145.52 356.432 1145.17 356.432C1144.96 356.432 1144.76 356.468 1144.56 356.54C1144.36 356.6 1144.18 356.696 1144.02 356.828C1143.85 356.96 1143.7 357.128 1143.58 357.332C1143.46 357.524 1143.37 357.746 1143.3 357.998C1143.24 358.25 1143.21 358.532 1143.21 358.844C1143.21 359.348 1143.3 359.78 1143.48 360.14C1143.66 360.5 1143.9 360.776 1144.2 360.968C1144.5 361.16 1144.82 361.256 1145.17 361.256ZM1147.24 356.54L1146.82 356.342C1147.12 355.826 1147.47 355.442 1147.85 355.19C1148.25 354.926 1148.62 354.794 1148.98 354.794C1149.36 354.794 1149.64 354.872 1149.83 355.028C1150.03 355.172 1150.14 355.364 1150.14 355.604C1150.14 355.808 1150.06 355.982 1149.92 356.126C1149.79 356.27 1149.63 356.342 1149.43 356.342C1149.33 356.342 1149.21 356.318 1149.09 356.27C1148.98 356.21 1148.89 356.132 1148.82 356.036C1148.76 355.94 1148.68 355.88 1148.59 355.856C1148.5 355.82 1148.41 355.802 1148.32 355.802C1148.14 355.802 1147.95 355.862 1147.74 355.982C1147.55 356.09 1147.38 356.276 1147.24 356.54Z" fill="white"/>
<path d="M1155.08 365.144C1154.24 365.144 1153.5 364.958 1152.85 364.586C1152.2 364.214 1151.7 363.698 1151.34 363.038C1150.99 362.366 1150.82 361.592 1150.82 360.716C1150.82 359.972 1150.93 359.306 1151.16 358.718C1151.39 358.118 1151.7 357.608 1152.1 357.188C1152.5 356.768 1152.97 356.45 1153.5 356.234C1154.04 356.006 1154.62 355.892 1155.23 355.892C1155.82 355.892 1156.33 355.988 1156.76 356.18C1157.2 356.372 1157.57 356.642 1157.86 356.99C1158.16 357.338 1158.37 357.74 1158.5 358.196C1158.64 358.652 1158.69 359.15 1158.67 359.69H1152.15V359.114H1156.33C1156.47 359.114 1156.59 359.09 1156.69 359.042C1156.78 358.982 1156.85 358.898 1156.9 358.79C1156.96 358.682 1156.99 358.556 1156.99 358.412C1156.99 357.872 1156.82 357.416 1156.49 357.044C1156.15 356.66 1155.69 356.468 1155.1 356.468C1154.71 356.468 1154.34 356.558 1154 356.738C1153.67 356.906 1153.38 357.152 1153.14 357.476C1152.9 357.8 1152.71 358.184 1152.58 358.628C1152.45 359.072 1152.38 359.564 1152.38 360.104C1152.38 360.896 1152.52 361.586 1152.78 362.174C1153.04 362.762 1153.42 363.218 1153.9 363.542C1154.39 363.854 1154.97 364.01 1155.64 364.01C1156.34 364.01 1156.92 363.824 1157.39 363.452C1157.86 363.08 1158.2 362.558 1158.41 361.886H1158.86C1158.64 362.942 1158.2 363.752 1157.57 364.316C1156.94 364.868 1156.12 365.144 1155.08 365.144Z" fill="white"/>
<path d="M1163.1 357.89C1163.32 357.23 1163.63 356.732 1164.04 356.396C1164.46 356.06 1164.88 355.892 1165.32 355.892C1165.71 355.892 1166.03 356 1166.27 356.216C1166.52 356.432 1166.65 356.678 1166.65 356.954C1166.65 357.194 1166.57 357.392 1166.41 357.548C1166.26 357.704 1166.07 357.782 1165.84 357.782C1165.67 357.782 1165.53 357.74 1165.42 357.656C1165.33 357.572 1165.25 357.482 1165.19 357.386C1165.14 357.29 1165.08 357.2 1164.99 357.116C1164.92 357.032 1164.81 356.99 1164.65 356.99C1164.39 356.99 1164.13 357.116 1163.89 357.368C1163.67 357.62 1163.47 357.944 1163.32 358.34C1163.17 358.736 1163.1 359.15 1163.1 359.582V363.416C1163.1 363.8 1163.25 364.07 1163.53 364.226C1163.82 364.382 1164.27 364.49 1164.88 364.55V365H1160.22V364.55C1160.71 364.49 1161.06 364.376 1161.25 364.208C1161.45 364.028 1161.55 363.764 1161.55 363.416V357.764C1161.55 357.512 1161.49 357.326 1161.36 357.206C1161.24 357.074 1161.03 357.008 1160.74 357.008H1160.13V356.558L1162.65 355.982H1163.1V357.89Z" fill="white"/>
<path d="M1171.14 365.144C1170.71 365.144 1170.32 365.096 1169.97 365C1169.63 364.916 1169.32 364.844 1169.03 364.784C1168.76 364.724 1168.48 364.73 1168.2 364.802L1167.83 362.174H1168.28C1168.54 362.942 1168.9 363.536 1169.36 363.956C1169.81 364.376 1170.39 364.586 1171.08 364.586C1171.64 364.586 1172.1 364.448 1172.47 364.172C1172.84 363.884 1173.03 363.494 1173.03 363.002C1173.03 362.606 1172.91 362.294 1172.67 362.066C1172.43 361.826 1172.11 361.628 1171.71 361.472C1171.33 361.316 1170.92 361.166 1170.49 361.022C1170.06 360.878 1169.65 360.704 1169.27 360.5C1168.88 360.296 1168.56 360.032 1168.31 359.708C1168.07 359.384 1167.95 358.958 1167.95 358.43C1167.95 357.974 1168.04 357.59 1168.22 357.278C1168.4 356.954 1168.64 356.69 1168.94 356.486C1169.24 356.282 1169.57 356.132 1169.93 356.036C1170.3 355.94 1170.67 355.892 1171.03 355.892C1171.49 355.892 1171.87 355.94 1172.18 356.036C1172.51 356.12 1172.79 356.198 1173.03 356.27C1173.27 356.342 1173.51 356.354 1173.75 356.306L1173.91 358.646H1173.44C1173.35 358.166 1173.18 357.764 1172.94 357.44C1172.71 357.116 1172.43 356.87 1172.09 356.702C1171.76 356.534 1171.39 356.45 1170.99 356.45C1170.54 356.45 1170.13 356.576 1169.77 356.828C1169.41 357.068 1169.23 357.416 1169.23 357.872C1169.23 358.256 1169.35 358.562 1169.59 358.79C1169.84 359.006 1170.16 359.192 1170.54 359.348C1170.94 359.492 1171.35 359.636 1171.79 359.78C1172.23 359.912 1172.64 360.08 1173.03 360.284C1173.42 360.488 1173.74 360.758 1173.98 361.094C1174.23 361.43 1174.36 361.874 1174.36 362.426C1174.36 362.978 1174.22 363.458 1173.95 363.866C1173.67 364.262 1173.29 364.574 1172.81 364.802C1172.33 365.03 1171.77 365.144 1171.14 365.144Z" fill="white"/>
<path d="M1177.39 365.126C1177.06 365.126 1176.79 365.018 1176.56 364.802C1176.34 364.574 1176.24 364.304 1176.24 363.992C1176.24 363.788 1176.28 363.602 1176.38 363.434C1176.49 363.254 1176.63 363.116 1176.81 363.02C1176.99 362.924 1177.18 362.876 1177.39 362.876C1177.71 362.876 1177.98 362.984 1178.2 363.2C1178.43 363.416 1178.54 363.68 1178.54 363.992C1178.54 364.196 1178.49 364.388 1178.38 364.568C1178.28 364.748 1178.14 364.886 1177.96 364.982C1177.8 365.078 1177.6 365.126 1177.39 365.126Z" fill="white"/>
<path d="M1066.56 392V391.55C1066.96 391.538 1067.33 391.412 1067.68 391.172C1068.04 390.92 1068.36 390.446 1068.65 389.75L1073.28 379.022H1074.41L1079.02 389.768C1079.3 390.404 1079.61 390.86 1079.96 391.136C1080.3 391.4 1080.72 391.538 1081.2 391.55V392H1075.49V391.55C1076.43 391.538 1077.01 391.418 1077.24 391.19C1077.48 390.95 1077.47 390.53 1077.22 389.93L1073.13 380.3L1073.57 380.156L1069.43 389.93C1069.17 390.542 1069.16 390.962 1069.37 391.19C1069.59 391.418 1070.14 391.538 1071.03 391.55V392H1066.56ZM1070.11 387.482L1070.34 386.744H1076.3L1076.52 387.482H1070.11Z" fill="white"/>
<path d="M1084.81 384.944C1085.07 384.284 1085.49 383.78 1086.05 383.432C1086.62 383.072 1087.24 382.892 1087.92 382.892C1088.5 382.892 1089 383.018 1089.42 383.27C1089.85 383.51 1090.18 383.858 1090.41 384.314C1090.65 384.77 1090.77 385.304 1090.77 385.916V390.434C1090.77 390.758 1090.87 391.01 1091.07 391.19C1091.28 391.358 1091.67 391.478 1092.24 391.55V392H1087.82V391.55C1088.36 391.478 1088.72 391.364 1088.91 391.208C1089.12 391.04 1089.22 390.782 1089.22 390.434V386.042C1089.22 385.382 1089.05 384.872 1088.72 384.512C1088.38 384.14 1087.88 383.954 1087.22 383.954C1086.86 383.954 1086.5 384.056 1086.12 384.26C1085.75 384.464 1085.44 384.752 1085.19 385.124C1084.94 385.484 1084.81 385.922 1084.81 386.438V390.434C1084.81 390.782 1084.91 391.04 1085.12 391.208C1085.33 391.364 1085.7 391.478 1086.23 391.55V392H1081.8V391.55C1082.38 391.478 1082.76 391.364 1082.96 391.208C1083.16 391.04 1083.26 390.782 1083.26 390.434V384.764C1083.26 384.512 1083.2 384.326 1083.06 384.206C1082.94 384.074 1082.74 384.008 1082.45 384.008H1081.84V383.558L1084.36 382.982H1084.81V384.944Z" fill="white"/>
<path d="M1096.98 392.144C1096.25 392.144 1095.61 391.946 1095.06 391.55C1094.5 391.154 1094.07 390.614 1093.76 389.93C1093.46 389.234 1093.31 388.448 1093.31 387.572C1093.31 386.864 1093.42 386.228 1093.63 385.664C1093.85 385.088 1094.15 384.596 1094.53 384.188C1094.93 383.768 1095.39 383.45 1095.9 383.234C1096.42 383.006 1096.97 382.892 1097.56 382.892C1098.07 382.892 1098.56 382.982 1099.02 383.162C1099.48 383.33 1099.89 383.57 1100.24 383.882C1100.59 384.182 1100.85 384.542 1101.01 384.962L1100.11 386.456C1100.11 386.012 1100.05 385.616 1099.93 385.268C1099.83 384.908 1099.66 384.596 1099.45 384.332C1099.24 384.068 1098.99 383.87 1098.69 383.738C1098.4 383.594 1098.09 383.522 1097.74 383.522C1097.32 383.522 1096.94 383.618 1096.6 383.81C1096.27 384.002 1095.97 384.272 1095.72 384.62C1095.48 384.968 1095.3 385.382 1095.16 385.862C1095.03 386.342 1094.97 386.864 1094.97 387.428C1094.97 388.16 1095.07 388.808 1095.29 389.372C1095.51 389.936 1095.81 390.38 1096.21 390.704C1096.6 391.016 1097.07 391.172 1097.59 391.172C1098.1 391.172 1098.54 391.022 1098.91 390.722C1099.29 390.422 1099.59 390.044 1099.79 389.588C1100.01 389.12 1100.11 388.64 1100.11 388.148L1100.19 389.552C1100.08 390.044 1099.88 390.488 1099.59 390.884C1099.3 391.268 1098.94 391.574 1098.49 391.802C1098.05 392.03 1097.55 392.144 1096.98 392.144ZM1100.11 392.054V380.642C1100.11 380.378 1100.05 380.192 1099.93 380.084C1099.81 379.964 1099.61 379.904 1099.32 379.904H1098.69V379.454L1101.21 378.878H1101.66V390.254C1101.66 390.518 1101.72 390.71 1101.84 390.83C1101.97 390.938 1102.19 390.992 1102.49 390.992H1103.14V391.442L1100.58 392.054H1100.11Z" fill="white"/>
<path d="M1109.43 395.51C1108.97 395.51 1108.6 395.402 1108.3 395.186C1108 394.97 1107.85 394.712 1107.85 394.412C1107.85 394.184 1107.93 393.986 1108.1 393.818C1108.27 393.65 1108.46 393.566 1108.69 393.566C1108.87 393.566 1109.01 393.596 1109.11 393.656C1109.21 393.728 1109.3 393.806 1109.38 393.89C1109.46 393.986 1109.56 394.07 1109.68 394.142C1109.8 394.214 1109.96 394.25 1110.17 394.25C1110.55 394.25 1110.86 394.1 1111.1 393.8C1111.34 393.5 1111.55 393.128 1111.73 392.684L1114.96 384.602C1115.09 384.278 1115.06 384.02 1114.88 383.828C1114.72 383.624 1114.4 383.51 1113.93 383.486V383.036H1116.79V383.486C1116.55 383.51 1116.34 383.624 1116.14 383.828C1115.95 384.032 1115.78 384.314 1115.62 384.674L1112.27 392.828C1112.14 393.152 1111.99 393.47 1111.82 393.782C1111.66 394.106 1111.46 394.394 1111.23 394.646C1111 394.91 1110.74 395.12 1110.44 395.276C1110.14 395.432 1109.8 395.51 1109.43 395.51ZM1112.11 392.288L1108.84 384.674C1108.7 384.35 1108.52 384.08 1108.3 383.864C1108.07 383.636 1107.8 383.51 1107.5 383.486V383.036H1111.63V383.486C1111.16 383.534 1110.82 383.648 1110.62 383.828C1110.41 384.008 1110.38 384.272 1110.53 384.62L1112.9 390.434L1112.11 392.288Z" fill="white"/>
<path d="M1121.92 392.144C1121.06 392.144 1120.29 391.946 1119.62 391.55C1118.96 391.154 1118.43 390.608 1118.05 389.912C1117.67 389.216 1117.47 388.412 1117.47 387.5C1117.47 386.828 1117.58 386.21 1117.8 385.646C1118.01 385.082 1118.32 384.596 1118.72 384.188C1119.11 383.768 1119.58 383.45 1120.12 383.234C1120.66 383.006 1121.26 382.892 1121.92 382.892C1122.8 382.892 1123.56 383.09 1124.22 383.486C1124.88 383.87 1125.4 384.41 1125.77 385.106C1126.14 385.79 1126.33 386.588 1126.33 387.5C1126.33 388.184 1126.22 388.814 1126.01 389.39C1125.79 389.954 1125.48 390.446 1125.09 390.866C1124.7 391.274 1124.24 391.592 1123.7 391.82C1123.16 392.036 1122.57 392.144 1121.92 392.144ZM1121.92 391.55C1122.24 391.55 1122.54 391.49 1122.82 391.37C1123.11 391.25 1123.36 391.076 1123.58 390.848C1123.79 390.608 1123.98 390.326 1124.13 390.002C1124.29 389.666 1124.4 389.288 1124.48 388.868C1124.56 388.448 1124.6 387.992 1124.6 387.5C1124.6 386.684 1124.49 385.976 1124.28 385.376C1124.06 384.776 1123.75 384.314 1123.34 383.99C1122.95 383.654 1122.47 383.486 1121.92 383.486C1121.58 383.486 1121.27 383.546 1120.98 383.666C1120.71 383.786 1120.46 383.966 1120.23 384.206C1120.01 384.434 1119.83 384.716 1119.67 385.052C1119.51 385.376 1119.39 385.748 1119.31 386.168C1119.24 386.576 1119.2 387.02 1119.2 387.5C1119.2 388.316 1119.31 389.03 1119.53 389.642C1119.75 390.254 1120.07 390.728 1120.46 391.064C1120.87 391.388 1121.36 391.55 1121.92 391.55Z" fill="white"/>
<path d="M1131.74 392.144C1131.17 392.144 1130.67 392.024 1130.24 391.784C1129.81 391.532 1129.47 391.178 1129.23 390.722C1128.99 390.266 1128.87 389.732 1128.87 389.12V384.764C1128.87 384.512 1128.81 384.326 1128.68 384.206C1128.56 384.074 1128.35 384.008 1128.06 384.008H1127.43V383.558L1129.95 382.982H1130.42V389.066C1130.42 389.678 1130.6 390.17 1130.94 390.542C1131.29 390.902 1131.74 391.082 1132.29 391.082C1132.71 391.082 1133.1 390.974 1133.46 390.758C1133.84 390.542 1134.14 390.242 1134.36 389.858C1134.59 389.462 1134.71 389.012 1134.71 388.508V384.764C1134.71 384.512 1134.64 384.326 1134.51 384.206C1134.38 384.074 1134.17 384.008 1133.88 384.008H1133.27V383.558L1135.79 382.982H1136.25V390.254C1136.25 390.518 1136.31 390.71 1136.43 390.83C1136.55 390.938 1136.76 390.992 1137.06 390.992H1137.73V391.442L1135.16 392.054H1134.71V390.056C1134.42 390.716 1134.02 391.232 1133.5 391.604C1132.98 391.964 1132.4 392.144 1131.74 392.144Z" fill="white"/>
<path d="M1141.65 384.89C1141.86 384.23 1142.18 383.732 1142.58 383.396C1143 383.06 1143.43 382.892 1143.86 382.892C1144.26 382.892 1144.58 383 1144.82 383.216C1145.07 383.432 1145.19 383.678 1145.19 383.954C1145.19 384.194 1145.11 384.392 1144.96 384.548C1144.8 384.704 1144.61 384.782 1144.38 384.782C1144.22 384.782 1144.08 384.74 1143.97 384.656C1143.87 384.572 1143.79 384.482 1143.73 384.386C1143.69 384.29 1143.62 384.2 1143.54 384.116C1143.46 384.032 1143.35 383.99 1143.2 383.99C1142.93 383.99 1142.68 384.116 1142.44 384.368C1142.21 384.62 1142.02 384.944 1141.86 385.34C1141.72 385.736 1141.65 386.15 1141.65 386.582V390.416C1141.65 390.8 1141.79 391.07 1142.08 391.226C1142.37 391.382 1142.82 391.49 1143.43 391.55V392H1138.77V391.55C1139.26 391.49 1139.6 391.376 1139.79 391.208C1140 391.028 1140.1 390.764 1140.1 390.416V384.764C1140.1 384.512 1140.03 384.326 1139.9 384.206C1139.78 384.074 1139.58 384.008 1139.29 384.008H1138.68V383.558L1141.2 382.982H1141.65V384.89Z" fill="white"/>
<path d="M1155.49 390.11H1155.94C1155.89 390.482 1155.77 390.824 1155.58 391.136C1155.39 391.436 1155.13 391.682 1154.82 391.874C1154.52 392.054 1154.18 392.144 1153.8 392.144C1153.35 392.144 1152.96 392.06 1152.61 391.892C1152.27 391.724 1152.01 391.472 1151.82 391.136C1151.64 390.788 1151.55 390.35 1151.55 389.822V383.828H1150.03V383.36C1150.37 383.324 1150.68 383.24 1150.97 383.108C1151.26 382.976 1151.52 382.814 1151.74 382.622C1151.98 382.43 1152.18 382.214 1152.34 381.974C1152.49 381.722 1152.61 381.446 1152.68 381.146H1153.13V383.036H1155.56V383.828H1153.11V389.714C1153.11 390.014 1153.15 390.272 1153.24 390.488C1153.33 390.704 1153.47 390.872 1153.65 390.992C1153.83 391.1 1154.04 391.154 1154.28 391.154C1154.57 391.154 1154.82 391.058 1155.04 390.866C1155.27 390.674 1155.42 390.422 1155.49 390.11Z" fill="white"/>
<path d="M1161.33 392.144C1160.47 392.144 1159.7 391.946 1159.03 391.55C1158.37 391.154 1157.85 390.608 1157.46 389.912C1157.08 389.216 1156.89 388.412 1156.89 387.5C1156.89 386.828 1157 386.21 1157.21 385.646C1157.43 385.082 1157.73 384.596 1158.13 384.188C1158.53 383.768 1158.99 383.45 1159.53 383.234C1160.07 383.006 1160.67 382.892 1161.33 382.892C1162.21 382.892 1162.98 383.09 1163.64 383.486C1164.3 383.87 1164.81 384.41 1165.19 385.106C1165.56 385.79 1165.74 386.588 1165.74 387.5C1165.74 388.184 1165.64 388.814 1165.42 389.39C1165.2 389.954 1164.9 390.446 1164.5 390.866C1164.12 391.274 1163.66 391.592 1163.12 391.82C1162.58 392.036 1161.98 392.144 1161.33 392.144ZM1161.33 391.55C1161.66 391.55 1161.96 391.49 1162.23 391.37C1162.52 391.25 1162.77 391.076 1162.99 390.848C1163.21 390.608 1163.39 390.326 1163.55 390.002C1163.7 389.666 1163.82 389.288 1163.89 388.868C1163.97 388.448 1164.02 387.992 1164.02 387.5C1164.02 386.684 1163.91 385.976 1163.69 385.376C1163.48 384.776 1163.16 384.314 1162.76 383.99C1162.36 383.654 1161.89 383.486 1161.33 383.486C1161 383.486 1160.69 383.546 1160.4 383.666C1160.12 383.786 1159.87 383.966 1159.64 384.206C1159.43 384.434 1159.24 384.716 1159.08 385.052C1158.93 385.376 1158.81 385.748 1158.72 386.168C1158.65 386.576 1158.62 387.02 1158.62 387.5C1158.62 388.316 1158.72 389.03 1158.94 389.642C1159.17 390.254 1159.48 390.728 1159.88 391.064C1160.28 391.388 1160.77 391.55 1161.33 391.55Z" fill="white"/>
<path d="M1171.63 392.144C1170.79 392.144 1170.05 391.958 1169.4 391.586C1168.75 391.214 1168.25 390.698 1167.89 390.038C1167.54 389.366 1167.37 388.592 1167.37 387.716C1167.37 386.972 1167.48 386.306 1167.71 385.718C1167.94 385.118 1168.25 384.608 1168.65 384.188C1169.05 383.768 1169.52 383.45 1170.05 383.234C1170.59 383.006 1171.17 382.892 1171.78 382.892C1172.37 382.892 1172.88 382.988 1173.31 383.18C1173.75 383.372 1174.12 383.642 1174.41 383.99C1174.71 384.338 1174.92 384.74 1175.05 385.196C1175.19 385.652 1175.24 386.15 1175.22 386.69H1168.7V386.114H1172.88C1173.02 386.114 1173.14 386.09 1173.24 386.042C1173.33 385.982 1173.4 385.898 1173.45 385.79C1173.51 385.682 1173.54 385.556 1173.54 385.412C1173.54 384.872 1173.37 384.416 1173.04 384.044C1172.7 383.66 1172.24 383.468 1171.65 383.468C1171.26 383.468 1170.89 383.558 1170.55 383.738C1170.22 383.906 1169.93 384.152 1169.69 384.476C1169.45 384.8 1169.26 385.184 1169.13 385.628C1169 386.072 1168.93 386.564 1168.93 387.104C1168.93 387.896 1169.07 388.586 1169.33 389.174C1169.59 389.762 1169.97 390.218 1170.45 390.542C1170.94 390.854 1171.52 391.01 1172.19 391.01C1172.89 391.01 1173.47 390.824 1173.94 390.452C1174.41 390.08 1174.75 389.558 1174.96 388.886H1175.41C1175.19 389.942 1174.75 390.752 1174.12 391.316C1173.49 391.868 1172.67 392.144 1171.63 392.144Z" fill="white"/>
<path d="M1180.28 392.144C1179.85 392.144 1179.46 392.096 1179.11 392C1178.78 391.916 1178.47 391.844 1178.18 391.784C1177.9 391.724 1177.63 391.73 1177.35 391.802L1176.97 389.174H1177.42C1177.69 389.942 1178.05 390.536 1178.5 390.956C1178.96 391.376 1179.53 391.586 1180.23 391.586C1180.78 391.586 1181.24 391.448 1181.62 391.172C1181.99 390.884 1182.17 390.494 1182.17 390.002C1182.17 389.606 1182.05 389.294 1181.81 389.066C1181.57 388.826 1181.26 388.628 1180.86 388.472C1180.48 388.316 1180.07 388.166 1179.64 388.022C1179.2 387.878 1178.8 387.704 1178.41 387.5C1178.03 387.296 1177.71 387.032 1177.46 386.708C1177.22 386.384 1177.1 385.958 1177.1 385.43C1177.1 384.974 1177.19 384.59 1177.37 384.278C1177.55 383.954 1177.79 383.69 1178.09 383.486C1178.39 383.282 1178.72 383.132 1179.08 383.036C1179.45 382.94 1179.82 382.892 1180.18 382.892C1180.63 382.892 1181.02 382.94 1181.33 383.036C1181.65 383.12 1181.93 383.198 1182.17 383.27C1182.41 383.342 1182.65 383.354 1182.89 383.306L1183.06 385.646H1182.59C1182.49 385.166 1182.32 384.764 1182.08 384.44C1181.86 384.116 1181.57 383.87 1181.24 383.702C1180.9 383.534 1180.54 383.45 1180.14 383.45C1179.68 383.45 1179.28 383.576 1178.92 383.828C1178.56 384.068 1178.38 384.416 1178.38 384.872C1178.38 385.256 1178.5 385.562 1178.74 385.79C1178.99 386.006 1179.31 386.192 1179.69 386.348C1180.09 386.492 1180.5 386.636 1180.93 386.78C1181.38 386.912 1181.79 387.08 1182.17 387.284C1182.57 387.488 1182.89 387.758 1183.13 388.094C1183.38 388.43 1183.51 388.874 1183.51 389.426C1183.51 389.978 1183.37 390.458 1183.09 390.866C1182.82 391.262 1182.44 391.574 1181.96 391.802C1181.48 392.03 1180.92 392.144 1180.28 392.144Z" fill="white"/>
<path d="M1186.53 392.126C1186.21 392.126 1185.93 392.018 1185.71 391.802C1185.49 391.574 1185.38 391.304 1185.38 390.992C1185.38 390.788 1185.43 390.602 1185.53 390.434C1185.63 390.254 1185.78 390.116 1185.96 390.02C1186.14 389.924 1186.33 389.876 1186.53 389.876C1186.86 389.876 1187.13 389.984 1187.34 390.2C1187.57 390.416 1187.69 390.68 1187.69 390.992C1187.69 391.196 1187.63 391.388 1187.52 391.568C1187.43 391.748 1187.29 391.886 1187.11 391.982C1186.94 392.078 1186.75 392.126 1186.53 392.126Z" fill="white"/>
<path d="M568.917 8.35377V11.2588C567.607 9.16447 565.574 7.88086 563.058 7.88086C557.681 7.88086 554.648 11.833 554.648 17.1364C554.648 22.4735 557.716 26.5608 563.127 26.5608C565.643 26.5608 567.642 25.2772 568.917 23.1829V26.0879H573.121V8.35377H568.917ZM563.954 23.0478C560.887 23.0478 559.129 20.2441 559.129 17.1364C559.129 14.0963 560.852 11.4277 564.023 11.4277C566.642 11.4277 568.882 13.2855 568.882 17.0688C568.882 20.7846 566.745 23.0478 563.954 23.0478Z" fill="#F8FFFB"/>
<path d="M576.742 8.35547V26.0896H581.223V8.35547H576.742Z" fill="#F8FFFB"/>
<path d="M589.48 12.7461V8.3548H585V26.0889H589.48V15.9551C589.48 13.3541 591.307 12.307 593.03 12.307C594.03 12.307 595.064 12.5772 595.615 12.7799V8.05078C592.686 8.05078 590.273 9.77353 589.48 12.7461Z" fill="#F8FFFB"/>
<path d="M596.711 13.7594C596.711 19.2655 600.571 23.1839 606.12 23.1839C611.703 23.1839 615.529 19.2655 615.529 13.7594C615.529 8.35475 611.703 4.50391 606.12 4.50391C600.571 4.50391 596.711 8.35475 596.711 13.7594ZM611.048 13.7594C611.048 17.2049 609.153 19.6708 606.12 19.6708C603.052 19.6708 601.191 17.2049 601.191 13.7594C601.191 10.4491 603.052 8.05073 606.12 8.05073C609.153 8.05073 611.048 10.4491 611.048 13.7594Z" fill="#F8FFFB"/>
<path d="M628.022 7.88086C625.403 7.88086 623.266 9.40093 622.129 11.833V8.35377H617.648V31.9993H622.129V22.9127C623.404 25.1083 625.782 26.5608 628.298 26.5608C633.192 26.5608 636.604 22.8113 636.604 17.4404C636.604 11.7993 633.054 7.88086 628.022 7.88086ZM627.23 23.2505C624.231 23.2505 622.129 20.7846 622.129 17.2715C622.129 13.6571 624.231 11.1237 627.23 11.1237C630.09 11.1237 632.124 13.7247 632.124 17.4066C632.124 20.8521 630.09 23.2505 627.23 23.2505Z" fill="#F8FFFB"/>
<path d="M638.039 19.9401C638.039 23.1491 640.934 26.5608 646.724 26.5608C652.549 26.5608 654.651 23.2167 654.651 20.6157C654.651 16.6297 649.86 15.9203 646.655 15.3123C644.484 14.9407 643.105 14.6367 643.105 13.4207C643.105 12.0357 644.656 11.1575 646.311 11.1575C648.551 11.1575 649.412 12.6775 649.481 14.2989H653.962C653.962 11.6641 652.066 7.88086 646.207 7.88086C641.141 7.88086 638.625 10.6845 638.625 13.6909C638.625 17.9809 643.484 18.42 646.69 19.028C648.551 19.3658 650.171 19.7712 650.171 21.0886C650.171 22.406 648.585 23.2842 646.896 23.2842C645.311 23.2842 642.519 22.406 642.519 19.9401H638.039Z" fill="#F8FFFB"/>
<path d="M579.058 6.19288C577.218 6.19288 575.898 4.89943 575.898 3.13563C575.898 1.37184 577.218 0 579.058 0C580.817 0 582.217 1.37184 582.217 3.13563C582.217 4.89943 580.817 6.19288 579.058 6.19288Z" fill="#F8FFFB"/>
</svg>
