<svg width="1101" height="593" viewBox="0 0 1101 593" fill="none" xmlns="http://www.w3.org/2000/svg">
<path d="M476.812 163C479.573 163 481.812 165.239 481.812 168V174H479.812V168C479.812 166.402 478.563 165.096 476.988 165.005L476.812 165C475.214 165 473.908 166.249 473.817 167.824L473.812 168V174H471.812V168C471.812 165.239 474.051 163 476.812 163ZM470.312 166C470.591 166 470.862 166.033 471.122 166.094C470.954 166.594 470.851 167.122 470.821 167.669L470.812 168L470.813 168.086C470.7 168.046 470.58 168.019 470.456 168.007L470.312 168C469.532 168 468.892 168.595 468.819 169.355L468.812 169.5V174H466.812V169.5C466.812 167.567 468.379 166 470.312 166ZM483.312 166C485.245 166 486.812 167.567 486.812 169.5V174H484.812V169.5C484.812 168.72 484.217 168.08 483.457 168.007L483.312 168C483.137 168 482.969 168.03 482.812 168.085L482.812 168C482.812 167.334 482.704 166.694 482.504 166.096C482.762 166.033 483.033 166 483.312 166ZM470.312 160C471.693 160 472.812 161.119 472.812 162.5C472.812 163.881 471.693 165 470.312 165C468.931 165 467.812 163.881 467.812 162.5C467.812 161.119 468.931 160 470.312 160ZM483.312 160C484.693 160 485.812 161.119 485.812 162.5C485.812 163.881 484.693 165 483.312 165C481.931 165 480.812 163.881 480.812 162.5C480.812 161.119 481.931 160 483.312 160ZM470.312 162C470.036 162 469.812 162.224 469.812 162.5C469.812 162.776 470.036 163 470.312 163C470.588 163 470.812 162.776 470.812 162.5C470.812 162.224 470.588 162 470.312 162ZM483.312 162C483.036 162 482.812 162.224 482.812 162.5C482.812 162.776 483.036 163 483.312 163C483.588 163 483.812 162.776 483.812 162.5C483.812 162.224 483.588 162 483.312 162ZM476.812 154C479.021 154 480.812 155.791 480.812 158C480.812 160.209 479.021 162 476.812 162C474.603 162 472.812 160.209 472.812 158C472.812 155.791 474.603 154 476.812 154ZM476.812 156C475.707 156 474.812 156.895 474.812 158C474.812 159.105 475.707 160 476.812 160C477.917 160 478.812 159.105 478.812 158C478.812 156.895 477.917 156 476.812 156Z" fill="white"/>
<path d="M500.468 169V165.052L497.332 159.228H499.53L500.72 161.426L501.518 163.344L502.344 161.412L503.534 159.228H505.69L502.498 165.052V169H500.468Z" fill="white"/>
<path d="M510.638 169.168C509.788 169.168 509.042 168.963 508.398 168.552C507.763 168.141 507.268 167.558 506.914 166.802C506.568 166.046 506.396 165.15 506.396 164.114C506.396 163.069 506.568 162.168 506.914 161.412C507.268 160.656 507.763 160.077 508.398 159.676C509.042 159.265 509.788 159.06 510.638 159.06C511.487 159.06 512.229 159.265 512.864 159.676C513.498 160.077 513.988 160.656 514.334 161.412C514.688 162.159 514.866 163.059 514.866 164.114C514.866 165.15 514.688 166.046 514.334 166.802C513.988 167.558 513.498 168.141 512.864 168.552C512.229 168.963 511.487 169.168 510.638 169.168ZM510.638 167.488C511.048 167.488 511.412 167.357 511.73 167.096C512.056 166.825 512.308 166.438 512.486 165.934C512.672 165.43 512.766 164.823 512.766 164.114C512.766 163.395 512.672 162.789 512.486 162.294C512.308 161.79 512.056 161.407 511.73 161.146C511.412 160.875 511.048 160.74 510.638 160.74C510.227 160.74 509.858 160.875 509.532 161.146C509.205 161.407 508.948 161.79 508.762 162.294C508.584 162.798 508.496 163.405 508.496 164.114C508.496 164.823 508.584 165.43 508.762 165.934C508.948 166.438 509.205 166.825 509.532 167.096C509.858 167.357 510.227 167.488 510.638 167.488Z" fill="white"/>
<path d="M519.729 169.168C518.908 169.168 518.203 169.019 517.615 168.72C517.027 168.412 516.575 167.983 516.257 167.432C515.94 166.881 515.781 166.242 515.781 165.514V159.228H517.825V165.514C517.825 165.915 517.905 166.261 518.063 166.55C518.222 166.839 518.441 167.068 518.721 167.236C519.011 167.395 519.347 167.474 519.729 167.474C520.121 167.474 520.457 167.395 520.737 167.236C521.027 167.068 521.246 166.839 521.395 166.55C521.554 166.261 521.633 165.915 521.633 165.514V159.228H523.677V165.514C523.677 166.242 523.519 166.881 523.201 167.432C522.884 167.983 522.431 168.412 521.843 168.72C521.255 169.019 520.551 169.168 519.729 169.168Z" fill="white"/>
<path d="M526.721 165.206V163.526H529.017C529.343 163.526 529.628 163.47 529.871 163.358C530.113 163.246 530.305 163.087 530.445 162.882C530.585 162.667 530.655 162.425 530.655 162.154C530.655 161.902 530.589 161.683 530.459 161.496C530.337 161.309 530.169 161.165 529.955 161.062C529.74 160.959 529.497 160.908 529.227 160.908H526.721V159.228H529.227C529.908 159.228 530.515 159.345 531.047 159.578C531.579 159.811 531.994 160.147 532.293 160.586C532.601 161.015 532.755 161.538 532.755 162.154C532.755 162.537 532.666 162.91 532.489 163.274C532.311 163.629 532.055 163.955 531.719 164.254C531.383 164.543 530.977 164.777 530.501 164.954C530.034 165.122 529.502 165.206 528.905 165.206H526.721ZM525.265 169V159.228H527.295V169H525.265ZM530.683 169C530.664 168.58 530.571 168.16 530.403 167.74C530.244 167.311 530.02 166.9 529.731 166.508C529.441 166.116 529.077 165.761 528.639 165.444C528.209 165.117 527.715 164.842 527.155 164.618L529.409 164.156C529.978 164.436 530.468 164.767 530.879 165.15C531.299 165.523 531.644 165.925 531.915 166.354C532.195 166.774 532.4 167.213 532.531 167.67C532.671 168.118 532.75 168.561 532.769 169H530.683Z" fill="white"/>
<path d="M544.89 165.766V164.086H547.228C547.732 164.086 548.138 163.937 548.446 163.638C548.754 163.339 548.908 162.947 548.908 162.462C548.908 161.995 548.758 161.622 548.46 161.342C548.161 161.053 547.764 160.908 547.27 160.908H544.89V159.228H547.284C548.03 159.228 548.684 159.363 549.244 159.634C549.804 159.895 550.238 160.269 550.546 160.754C550.854 161.239 551.008 161.809 551.008 162.462C551.008 163.125 550.849 163.703 550.532 164.198C550.224 164.693 549.79 165.08 549.23 165.36C548.67 165.631 548.007 165.766 547.242 165.766H544.89ZM543.434 169V159.228H545.464V169H543.434Z" fill="white"/>
<path d="M552.889 169V159.228H554.919V167.32H559.777V169H552.889Z" fill="white"/>
<path d="M562.555 166.928V165.248H568.197V166.928H562.555ZM563.745 159.228H566.755L569.415 169H567.343L565.831 163.148L565.243 160.698L564.655 163.148L563.115 169H561.099L563.745 159.228Z" fill="white"/>
<path d="M573.312 169V165.052L570.176 159.228H572.374L573.564 161.426L574.362 163.344L575.188 161.412L576.378 159.228H578.534L575.342 165.052V169H573.312Z" fill="white"/>
<path d="M579.982 169V159.228H587.149V160.908H582.025V163.106H585.413V164.786H582.025V167.32H587.206V169H579.982Z" fill="white"/>
<path d="M590.459 165.206V163.526H592.755C593.082 163.526 593.366 163.47 593.609 163.358C593.852 163.246 594.043 163.087 594.183 162.882C594.323 162.667 594.393 162.425 594.393 162.154C594.393 161.902 594.328 161.683 594.197 161.496C594.076 161.309 593.908 161.165 593.693 161.062C593.478 160.959 593.236 160.908 592.965 160.908H590.459V159.228H592.965C593.646 159.228 594.253 159.345 594.785 159.578C595.317 159.811 595.732 160.147 596.031 160.586C596.339 161.015 596.493 161.538 596.493 162.154C596.493 162.537 596.404 162.91 596.227 163.274C596.05 163.629 595.793 163.955 595.457 164.254C595.121 164.543 594.715 164.777 594.239 164.954C593.772 165.122 593.24 165.206 592.643 165.206H590.459ZM589.003 169V159.228H591.033V169H589.003ZM594.421 169C594.402 168.58 594.309 168.16 594.141 167.74C593.982 167.311 593.758 166.9 593.469 166.508C593.18 166.116 592.816 165.761 592.377 165.444C591.948 165.117 591.453 164.842 590.893 164.618L593.147 164.156C593.716 164.436 594.206 164.767 594.617 165.15C595.037 165.523 595.382 165.925 595.653 166.354C595.933 166.774 596.138 167.213 596.269 167.67C596.409 168.118 596.488 168.561 596.507 169H594.421Z" fill="white"/>
<path d="M610.91 169.168C610.033 169.168 609.277 168.958 608.642 168.538C608.007 168.118 607.517 167.53 607.172 166.774C606.827 166.009 606.654 165.122 606.654 164.114C606.654 163.087 606.831 162.196 607.186 161.44C607.541 160.684 608.04 160.101 608.684 159.69C609.337 159.27 610.103 159.06 610.98 159.06C611.671 159.06 612.305 159.195 612.884 159.466C613.463 159.737 613.934 160.129 614.298 160.642C614.671 161.146 614.881 161.757 614.928 162.476H612.702C612.646 161.953 612.469 161.533 612.17 161.216C611.871 160.899 611.475 160.74 610.98 160.74C610.551 160.74 610.168 160.871 609.832 161.132C609.496 161.393 609.23 161.776 609.034 162.28C608.847 162.784 608.754 163.395 608.754 164.114C608.754 164.833 608.847 165.444 609.034 165.948C609.221 166.452 609.473 166.835 609.79 167.096C610.117 167.357 610.49 167.488 610.91 167.488C611.255 167.488 611.559 167.418 611.82 167.278C612.081 167.129 612.291 166.919 612.45 166.648C612.618 166.377 612.721 166.055 612.758 165.682H614.97C614.905 166.391 614.699 167.007 614.354 167.53C614.009 168.053 613.547 168.459 612.968 168.748C612.389 169.028 611.703 169.168 610.91 169.168Z" fill="white"/>
<path d="M617.187 166.928V165.248H622.829V166.928H617.187ZM618.377 159.228H621.387L624.047 169H621.975L620.463 163.148L619.875 160.698L619.287 163.148L617.747 169H615.731L618.377 159.228Z" fill="white"/>
<path d="M626.881 165.206V163.526H629.177C629.503 163.526 629.788 163.47 630.031 163.358C630.273 163.246 630.465 163.087 630.605 162.882C630.745 162.667 630.815 162.425 630.815 162.154C630.815 161.902 630.75 161.683 630.619 161.496C630.498 161.309 630.329 161.165 630.115 161.062C629.9 160.959 629.658 160.908 629.387 160.908H626.881V159.228H629.387C630.068 159.228 630.675 159.345 631.207 159.578C631.739 159.811 632.154 160.147 632.453 160.586C632.761 161.015 632.915 161.538 632.915 162.154C632.915 162.537 632.826 162.91 632.649 163.274C632.471 163.629 632.215 163.955 631.879 164.254C631.543 164.543 631.137 164.777 630.661 164.954C630.194 165.122 629.662 165.206 629.065 165.206H626.881ZM625.425 169V159.228H627.455V169H625.425ZM630.843 169C630.824 168.58 630.731 168.16 630.563 167.74C630.404 167.311 630.18 166.9 629.891 166.508C629.601 166.116 629.237 165.761 628.799 165.444C628.369 165.117 627.875 164.842 627.315 164.618L629.569 164.156C630.138 164.436 630.628 164.767 631.039 165.15C631.459 165.523 631.804 165.925 632.075 166.354C632.355 166.774 632.56 167.213 632.691 167.67C632.831 168.118 632.91 168.561 632.929 169H630.843Z" fill="white"/>
<path d="M634.376 169V159.228H637.568C638.296 159.228 638.95 159.345 639.528 159.578C640.107 159.802 640.602 160.129 641.012 160.558C641.423 160.978 641.736 161.487 641.95 162.084C642.165 162.681 642.272 163.349 642.272 164.086C642.272 164.833 642.165 165.509 641.95 166.116C641.736 166.713 641.423 167.231 641.012 167.67C640.602 168.099 640.107 168.431 639.528 168.664C638.95 168.888 638.296 169 637.568 169H634.376ZM636.406 167.32H637.568C638.119 167.32 638.586 167.189 638.968 166.928C639.36 166.657 639.654 166.279 639.85 165.794C640.056 165.309 640.158 164.739 640.158 164.086C640.158 163.433 640.056 162.873 639.85 162.406C639.654 161.93 639.36 161.561 638.968 161.3C638.586 161.039 638.119 160.908 637.568 160.908H636.406V167.32Z" fill="white"/>
<path d="M96.5113 434.207C92.7993 434.207 90.1753 433.247 88.6393 431.327C87.8713 430.495 87.3273 429.503 87.0073 428.351C86.6873 427.199 86.5273 426.015 86.5273 424.799C86.5273 423.263 86.7193 421.727 87.1033 420.191C87.4873 418.591 87.9673 417.119 88.5433 415.775C89.4393 413.663 90.6233 411.551 92.0953 409.439C93.5673 407.263 95.3273 405.439 97.3753 403.967C99.4873 402.495 101.791 401.759 104.287 401.759C105.951 401.759 107.263 402.175 108.223 403.007C109.183 403.839 109.663 405.119 109.663 406.847C109.663 408.831 109.055 410.847 107.839 412.895C106.623 414.879 105.087 416.543 103.231 417.887C101.375 419.231 99.4553 419.903 97.4713 419.903C95.6793 419.903 94.1113 419.263 92.7673 417.983C92.3833 419.007 92.0633 420.159 91.8073 421.439C91.5513 422.655 91.4233 423.903 91.4233 425.183C91.4233 427.167 91.8073 428.895 92.5753 430.367C93.4073 431.839 94.8793 432.575 96.9913 432.575C98.5273 432.575 99.9993 432.191 101.407 431.423C102.879 430.591 104.191 429.599 105.343 428.447C106.623 427.103 107.839 425.663 108.991 424.127C110.143 422.591 111.263 420.799 112.351 418.751C112.479 418.559 112.575 418.463 112.639 418.463C112.895 418.463 113.023 418.751 113.023 419.327C113.023 419.711 112.895 420.127 112.639 420.575C111.679 422.303 110.559 424.063 109.279 425.855C107.999 427.583 106.687 429.087 105.343 430.367C104.127 431.519 102.815 432.447 101.407 433.151C99.9993 433.855 98.3673 434.207 96.5113 434.207ZM93.2473 416.543C93.6953 417.183 94.2073 417.663 94.7833 417.983C95.4233 418.239 96.0633 418.367 96.7033 418.367C98.2393 418.367 99.8393 417.791 101.503 416.639C103.167 415.423 104.511 414.015 105.535 412.415C105.983 411.711 106.367 410.783 106.687 409.631C107.071 408.479 107.263 407.391 107.263 406.367C107.263 405.471 107.071 404.703 106.687 404.063C106.367 403.359 105.695 403.007 104.671 403.007C103.519 403.007 102.143 403.711 100.543 405.119C99.0073 406.527 97.5353 408.351 96.1273 410.591C95.6793 411.359 95.1673 412.255 94.5913 413.279C94.0793 414.303 93.6313 415.391 93.2473 416.543Z" fill="white"/>
<path d="M5.568 441.888C4.8 441.504 4.192 440.96 3.744 440.256C3.36 439.552 3.168 438.848 3.168 438.144C3.168 437.44 3.36 436.864 3.744 436.416C3.936 436.16 4.16 436 4.416 435.936C4.736 435.936 4.832 436.096 4.704 436.416C4.512 437.376 4.96 438.272 6.048 439.104C7.136 439.936 8.128 440.48 9.024 440.736C9.984 440.928 10.944 441.024 11.904 441.024C13.888 441.024 15.648 440.736 17.184 440.16C19.488 439.392 21.76 437.824 24 435.456C26.304 433.088 28.448 430.4 30.432 427.392C32.352 424.448 34.24 421.12 36.096 417.408C38.016 413.632 39.936 409.76 41.856 405.792C43.84 401.76 45.952 397.888 48.192 394.176C50.432 390.4 52.832 387.04 55.392 384.096C58.016 381.088 60.896 378.784 64.032 377.184L46.08 374.016C44.672 373.76 43.072 373.6 41.28 373.536C39.488 373.408 37.6 373.344 35.616 373.344C32.096 373.344 28.576 373.568 25.056 374.016C21.536 374.4 18.72 375.072 16.608 376.032C12.896 377.696 9.696 380 7.008 382.944C4.32 385.824 2.976 389.44 2.976 393.792C2.976 395.584 3.264 397.12 3.84 398.4C4.48 399.616 5.28 400.544 6.24 401.184C7.328 401.824 8.448 402.144 9.6 402.144C11.008 402.144 12.448 401.728 13.92 400.896C15.392 400 16.672 398.72 17.76 397.056C18.272 396.224 18.752 395.008 19.2 393.408C19.712 391.808 19.968 390.176 19.968 388.512C19.968 387.616 19.872 386.752 19.68 385.92C19.552 385.088 19.264 384.352 18.816 383.712C18.688 383.456 18.624 383.328 18.624 383.328C18.624 383.136 18.72 383.04 18.912 383.04C19.168 383.04 19.392 383.2 19.584 383.52C19.904 383.968 20.224 384.672 20.544 385.632C20.928 386.528 21.184 387.36 21.312 388.128C21.376 388.512 21.408 388.896 21.408 389.28C21.472 389.664 21.504 390.048 21.504 390.432C21.504 391.712 21.344 393.024 21.024 394.368C20.704 395.648 20.192 396.832 19.488 397.92C18.464 399.648 17.088 400.96 15.36 401.856C13.632 402.688 11.84 403.104 9.984 403.104C8.512 403.104 7.104 402.816 5.76 402.24C3.776 401.28 2.304 399.904 1.344 398.112C0.448 396.32 0 394.368 0 392.256C0 390.848 0.16 389.44 0.48 388.032C0.864 386.56 1.376 385.152 2.016 383.808C3.104 381.44 4.608 379.36 6.528 377.568C8.448 375.776 10.368 374.368 12.288 373.344C15.488 371.616 18.688 370.4 21.888 369.696C25.152 368.992 28.448 368.64 31.776 368.64C34.528 368.64 37.312 368.832 40.128 369.216C42.944 369.6 45.792 370.144 48.672 370.848C53.728 372.064 58.848 373.216 64.032 374.304C69.216 375.328 74.496 376.128 79.872 376.704C82.112 374.016 84.48 371.584 86.976 369.408C89.536 367.168 92.224 365.312 95.04 363.84C96.704 363.008 98.464 362.336 100.32 361.824C102.176 361.312 103.968 361.056 105.696 361.056C108.576 361.056 110.784 361.856 112.32 363.456C113.856 365.056 114.624 366.88 114.624 368.928C114.624 370.336 114.24 371.744 113.472 373.152C112.704 374.56 111.488 375.776 109.824 376.8C107.648 378.08 105.28 378.944 102.72 379.392C100.16 379.84 97.504 380.064 94.752 380.064C92.512 380.064 90.24 379.968 87.936 379.776C85.632 379.584 83.392 379.424 81.216 379.296C79.232 382.24 77.376 385.312 75.648 388.512C73.984 391.648 72.48 394.688 71.136 397.632C69.792 400.512 68.608 403.104 67.584 405.408C66.816 407.264 66.144 408.832 65.568 410.112C65.056 411.328 64.576 412.448 64.128 413.472C63.744 414.496 63.296 415.648 62.784 416.928C63.808 415.392 64.96 413.728 66.24 411.936C67.584 410.08 68.768 408.64 69.792 407.616C71.264 406.144 72.736 404.896 74.208 403.872C75.68 402.848 77.12 402.272 78.528 402.144C80.704 401.952 82.272 402.24 83.232 403.008C84.192 403.712 84.672 404.768 84.672 406.176C84.672 407.584 84.288 409.152 83.52 410.88C82.688 412.864 81.696 414.848 80.544 416.832C79.392 418.816 78.336 420.736 77.376 422.592C77.12 423.104 76.64 424.096 75.936 425.568C75.296 426.976 74.88 428.32 74.688 429.6C74.688 429.664 74.656 429.76 74.592 429.888C74.592 430.016 74.592 430.144 74.592 430.272C74.592 430.976 74.784 431.52 75.168 431.904C75.552 432.224 76 432.384 76.512 432.384C77.6 432.384 78.624 432.032 79.584 431.328C80.544 430.624 81.376 429.856 82.08 429.024C83.552 427.424 84.896 425.664 86.112 423.744C87.328 421.824 88.544 419.776 89.76 417.6C89.952 417.344 90.144 417.216 90.336 417.216C90.592 417.216 90.72 417.408 90.72 417.792C90.72 418.112 90.656 418.368 90.528 418.56C89.376 420.672 88.128 422.784 86.784 424.896C85.504 427.008 83.936 428.992 82.08 430.848C81.248 431.68 80.288 432.448 79.2 433.152C78.112 433.792 76.896 434.112 75.552 434.112C73.376 434.112 71.84 433.504 70.944 432.288C70.112 431.008 69.696 429.6 69.696 428.064C69.696 426.848 69.92 425.632 70.368 424.416C71.456 421.6 72.96 418.912 74.88 416.352C76.8 413.792 78.4 411.136 79.68 408.384C80.128 407.552 80.352 406.784 80.352 406.08C80.352 405.312 80.128 404.736 79.68 404.352C79.232 403.968 78.752 403.776 78.24 403.776C77.024 403.776 75.68 404.32 74.208 405.408C72.8 406.432 71.424 407.744 70.08 409.344C68.864 410.752 67.616 412.384 66.336 414.24C65.056 416.032 63.84 417.952 62.688 420C61.6 421.856 60.48 423.808 59.328 425.856C58.176 427.84 57.248 429.536 56.544 430.944C56.032 432.032 55.488 432.736 54.912 433.056C54.336 433.376 53.792 433.536 53.28 433.536C53.024 433.536 52.768 433.504 52.512 433.44C52.256 433.44 52.032 433.44 51.84 433.44C52.416 431.264 53.472 428.256 55.008 424.416C56.544 420.512 58.4 415.936 60.576 410.688C62.688 405.568 65.184 400.224 68.064 394.656C71.008 389.024 74.336 383.808 78.048 379.008C76.96 378.816 75.648 378.624 74.112 378.432C72.64 378.24 71.232 378.048 69.888 377.856C68.544 377.664 67.52 377.536 66.816 377.472C64.704 378.432 62.496 380.256 60.192 382.944C57.376 386.272 54.944 389.824 52.896 393.6C50.848 397.312 48.96 401.152 47.232 405.12C45.504 409.024 43.712 412.896 41.856 416.736C40.064 420.576 37.92 424.256 35.424 427.776C33.184 430.912 30.656 433.728 27.84 436.224C25.024 438.72 21.824 440.608 18.24 441.888C16.256 442.592 13.888 442.944 11.136 442.944C10.048 442.944 9.024 442.848 8.064 442.656C7.104 442.528 6.272 442.272 5.568 441.888ZM82.848 376.992C84.576 377.12 86.592 377.312 88.896 377.568C91.264 377.76 93.632 377.856 96 377.856C98.432 377.856 100.832 377.696 103.2 377.376C105.568 376.992 107.584 376.288 109.248 375.264C110.464 374.496 111.328 373.632 111.84 372.672C112.416 371.712 112.704 370.72 112.704 369.696C112.704 367.904 111.936 366.304 110.4 364.896C108.864 363.424 106.848 362.688 104.352 362.688C103.136 362.688 101.824 362.816 100.416 363.072C99.072 363.328 97.664 363.808 96.192 364.512C93.824 365.6 91.52 367.264 89.28 369.504C87.04 371.68 84.896 374.176 82.848 376.992Z" fill="white"/>
<path d="M283.547 387H260.987L254.027 363.72C243.227 380.28 223.307 390.84 199.067 390.84C150.587 390.84 123.227 361.56 123.227 326.52V287.88C123.227 253.32 157.787 223.32 206.747 223.32C242.747 223.32 271.307 241.56 281.867 264.84L244.187 284.52C238.187 273.72 225.227 265.8 211.067 265.8C194.027 265.8 181.787 274.68 181.787 288.36V326.52C181.787 339 190.907 348.6 206.267 348.6C220.667 348.6 228.107 341.88 228.107 331.32V328.68H208.907V306.12H283.547V387Z" fill="white"/>
<path d="M451.609 320.52C451.609 363.96 418.489 390.84 371.449 390.84C324.169 390.84 291.049 363.96 291.049 320.52V293.4C291.049 249.96 324.169 223.32 371.449 223.32C418.489 223.32 451.609 249.96 451.609 293.4V320.52ZM393.049 326.76V287.16C393.049 271.56 384.649 264.36 371.449 264.36C358.009 264.36 349.609 271.56 349.609 287.16V326.76C349.609 342.36 358.009 349.56 371.449 349.56C384.649 349.56 393.049 342.36 393.049 326.76Z" fill="white"/>
<path d="M534.598 329.88H463.078V301.32H534.598V329.88Z" fill="white"/>
<path d="M706.388 387H683.828L676.868 363.72C666.068 380.28 646.148 390.84 621.908 390.84C573.428 390.84 546.068 361.56 546.068 326.52V287.88C546.068 253.32 580.628 223.32 629.588 223.32C665.588 223.32 694.148 241.56 704.708 264.84L667.028 284.52C661.028 273.72 648.068 265.8 633.908 265.8C616.868 265.8 604.628 274.68 604.628 288.36V326.52C604.628 339 613.748 348.6 629.108 348.6C643.508 348.6 650.948 341.88 650.948 331.32V328.68H631.748V306.12H706.388V387Z" fill="white"/>
<path d="M874.45 320.52C874.45 363.96 841.33 390.84 794.29 390.84C747.01 390.84 713.89 363.96 713.89 320.52V293.4C713.89 249.96 747.01 223.32 794.29 223.32C841.33 223.32 874.45 249.96 874.45 293.4V320.52ZM815.89 326.76V287.16C815.89 271.56 807.49 264.36 794.29 264.36C780.85 264.36 772.45 271.56 772.45 287.16V326.76C772.45 342.36 780.85 349.56 794.29 349.56C807.49 349.56 815.89 342.36 815.89 326.76Z" fill="white"/>
<path d="M957.439 329.88H885.919V301.32H957.439V329.88Z" fill="white"/>
<path d="M378.361 589H355.801L348.841 565.72C338.041 582.28 318.121 592.84 293.881 592.84C245.401 592.84 218.041 563.56 218.041 528.52V489.88C218.041 455.32 252.601 425.32 301.561 425.32C337.561 425.32 366.121 443.56 376.681 466.84L339.001 486.52C333.001 475.72 320.041 467.8 305.881 467.8C288.841 467.8 276.601 476.68 276.601 490.36V528.52C276.601 541 285.721 550.6 301.081 550.6C315.481 550.6 322.921 543.88 322.921 533.32V530.68H303.721V508.12H378.361V589Z" fill="white"/>
<path d="M546.423 522.52C546.423 565.96 513.303 592.84 466.263 592.84C418.983 592.84 385.863 565.96 385.863 522.52V495.4C385.863 451.96 418.983 425.32 466.263 425.32C513.303 425.32 546.423 451.96 546.423 495.4V522.52ZM487.863 528.76V489.16C487.863 473.56 479.463 466.36 466.263 466.36C452.823 466.36 444.423 473.56 444.423 489.16V528.76C444.423 544.36 452.823 551.56 466.263 551.56C479.463 551.56 487.863 544.36 487.863 528.76Z" fill="white"/>
<path d="M695.525 589H559.205V429.16H695.525V470.44H616.325V494.68H668.405V520.12H616.325V544.6H695.525V589Z" fill="white"/>
<path d="M866.381 589H816.461C808.301 589 803.501 577.24 803.501 564.28V542.44C803.501 535.24 800.381 528.76 790.541 528.76H767.741V589H710.621V429.16H804.461C836.621 429.16 858.461 447.16 858.461 471.88V477.4C858.461 493.24 848.141 507.16 830.861 511.72C850.301 515.32 859.181 529.48 859.181 544.36V562.36C859.181 572.44 861.821 581.08 866.381 588.28V589ZM802.061 488.2V482.2C802.061 472.36 797.261 468.28 785.501 468.28H767.741V502.12H785.501C797.261 502.12 802.061 497.56 802.061 488.2Z" fill="white"/>
<path d="M975.661 368V367.55C976.369 367.478 976.855 367.328 977.119 367.1C977.395 366.86 977.533 366.524 977.533 366.092V362.582L974.095 356.984C973.915 356.684 973.735 356.432 973.555 356.228C973.387 356.012 973.177 355.844 972.925 355.724C972.673 355.592 972.331 355.508 971.899 355.472V355.022H977.317V355.472C976.693 355.532 976.261 355.67 976.021 355.886C975.793 356.102 975.793 356.408 976.021 356.804L978.938 361.736L981.907 356.804C982.147 356.408 982.165 356.102 981.961 355.886C981.769 355.67 981.337 355.532 980.665 355.472V355.022H984.895V355.472C984.547 355.508 984.241 355.586 983.977 355.706C983.725 355.826 983.503 355.988 983.311 356.192C983.131 356.384 982.945 356.636 982.753 356.948L979.261 362.582V366.092C979.261 366.548 979.399 366.89 979.675 367.118C979.963 367.334 980.449 367.478 981.133 367.55V368H975.661Z" fill="white"/>
<path d="M988 368.144C987.136 368.144 986.367 367.946 985.695 367.55C985.035 367.154 984.514 366.608 984.13 365.912C983.746 365.216 983.553 364.412 983.553 363.5C983.553 362.828 983.662 362.21 983.878 361.646C984.094 361.082 984.399 360.596 984.795 360.188C985.191 359.768 985.659 359.45 986.199 359.234C986.739 359.006 987.34 358.892 988 358.892C988.876 358.892 989.643 359.09 990.303 359.486C990.963 359.87 991.48 360.41 991.852 361.106C992.224 361.79 992.409 362.588 992.409 363.5C992.409 364.184 992.302 364.814 992.086 365.39C991.87 365.954 991.563 366.446 991.167 366.866C990.783 367.274 990.321 367.592 989.781 367.82C989.241 368.036 988.648 368.144 988 368.144ZM988 367.55C988.324 367.55 988.623 367.49 988.899 367.37C989.187 367.25 989.439 367.076 989.655 366.848C989.871 366.608 990.058 366.326 990.214 366.002C990.37 365.666 990.483 365.288 990.555 364.868C990.639 364.448 990.681 363.992 990.681 363.5C990.681 362.684 990.573 361.976 990.357 361.376C990.141 360.776 989.83 360.314 989.422 359.99C989.026 359.654 988.552 359.486 988 359.486C987.664 359.486 987.351 359.546 987.063 359.666C986.787 359.786 986.535 359.966 986.307 360.206C986.091 360.434 985.906 360.716 985.75 361.052C985.594 361.376 985.473 361.748 985.389 362.168C985.317 362.576 985.281 363.02 985.281 363.5C985.281 364.316 985.389 365.03 985.605 365.642C985.833 366.254 986.146 366.728 986.542 367.064C986.95 367.388 987.436 367.55 988 367.55Z" fill="white"/>
<path d="M997.815 368.144C997.251 368.144 996.753 368.024 996.321 367.784C995.889 367.532 995.553 367.178 995.313 366.722C995.073 366.266 994.953 365.732 994.953 365.12V360.764C994.953 360.512 994.887 360.326 994.755 360.206C994.635 360.074 994.431 360.008 994.143 360.008H993.513V359.558L996.033 358.982H996.501V365.066C996.501 365.678 996.675 366.17 997.023 366.542C997.371 366.902 997.821 367.082 998.373 367.082C998.793 367.082 999.183 366.974 999.543 366.758C999.915 366.542 1000.21 366.242 1000.44 365.858C1000.67 365.462 1000.78 365.012 1000.78 364.508V360.764C1000.78 360.512 1000.72 360.326 1000.59 360.206C1000.45 360.074 1000.24 360.008 999.957 360.008H999.345V359.558L1001.86 358.982H1002.33V366.254C1002.33 366.518 1002.39 366.71 1002.51 366.83C1002.63 366.938 1002.84 366.992 1003.14 366.992H1003.81V367.442L1001.23 368.054H1000.78V366.056C1000.5 366.716 1000.09 367.232 999.579 367.604C999.063 367.964 998.475 368.144 997.815 368.144Z" fill="white"/>
<path d="M1014.19 368.144C1013.71 368.144 1013.24 368.06 1012.77 367.892C1012.32 367.712 1011.91 367.466 1011.57 367.154C1011.22 366.842 1010.95 366.482 1010.76 366.074L1011.66 364.58C1011.66 365.024 1011.72 365.426 1011.84 365.786C1011.96 366.134 1012.12 366.44 1012.32 366.704C1012.53 366.968 1012.78 367.172 1013.08 367.316C1013.38 367.448 1013.7 367.514 1014.05 367.514C1014.47 367.514 1014.85 367.418 1015.18 367.226C1015.52 367.034 1015.81 366.764 1016.05 366.416C1016.29 366.068 1016.47 365.654 1016.61 365.174C1016.74 364.694 1016.8 364.172 1016.8 363.608C1016.8 362.876 1016.7 362.228 1016.48 361.664C1016.26 361.1 1015.96 360.662 1015.56 360.35C1015.18 360.026 1014.72 359.864 1014.19 359.864C1013.69 359.864 1013.25 360.014 1012.86 360.314C1012.49 360.614 1012.2 360.992 1011.98 361.448C1011.76 361.904 1011.66 362.384 1011.66 362.888L1011.58 361.484C1011.69 360.992 1011.9 360.554 1012.2 360.17C1012.5 359.774 1012.87 359.462 1013.31 359.234C1013.77 359.006 1014.28 358.892 1014.84 358.892C1015.59 358.892 1016.23 359.09 1016.77 359.486C1017.31 359.882 1017.72 360.428 1018.01 361.124C1018.31 361.82 1018.46 362.606 1018.46 363.482C1018.46 364.19 1018.35 364.832 1018.14 365.408C1017.92 365.972 1017.62 366.458 1017.24 366.866C1016.85 367.274 1016.4 367.592 1015.89 367.82C1015.37 368.036 1014.81 368.144 1014.19 368.144ZM1010.11 368.054V356.696C1010.11 356.444 1010.05 356.252 1009.93 356.12C1009.81 355.976 1009.6 355.904 1009.32 355.904H1008.69V355.454L1011.21 354.878H1011.66V366.488L1010.58 368.054H1010.11Z" fill="white"/>
<path d="M1023.86 368.144C1023.3 368.144 1022.8 368.024 1022.37 367.784C1021.93 367.532 1021.6 367.178 1021.36 366.722C1021.12 366.266 1021 365.732 1021 365.12V360.764C1021 360.512 1020.93 360.326 1020.8 360.206C1020.68 360.074 1020.48 360.008 1020.19 360.008H1019.56V359.558L1022.08 358.982H1022.55V365.066C1022.55 365.678 1022.72 366.17 1023.07 366.542C1023.42 366.902 1023.87 367.082 1024.42 367.082C1024.84 367.082 1025.23 366.974 1025.59 366.758C1025.96 366.542 1026.26 366.242 1026.49 365.858C1026.72 365.462 1026.83 365.012 1026.83 364.508V360.764C1026.83 360.512 1026.76 360.326 1026.63 360.206C1026.5 360.074 1026.29 360.008 1026 360.008H1025.39V359.558L1027.91 358.982H1028.38V366.254C1028.38 366.518 1028.44 366.71 1028.56 366.83C1028.68 366.938 1028.89 366.992 1029.19 366.992H1029.85V367.442L1027.28 368.054H1026.83V366.056C1026.54 366.716 1026.14 367.232 1025.62 367.604C1025.11 367.964 1024.52 368.144 1023.86 368.144Z" fill="white"/>
<path d="M1030.8 368V367.55C1031.35 367.478 1031.74 367.358 1031.95 367.19C1032.17 367.022 1032.28 366.752 1032.28 366.38V360.764C1032.28 360.5 1032.21 360.308 1032.08 360.188C1031.95 360.068 1031.74 360.008 1031.45 360.008H1030.84V359.558L1033.36 358.982H1033.81V366.38C1033.81 366.74 1033.92 367.01 1034.13 367.19C1034.36 367.358 1034.74 367.478 1035.28 367.55V368H1030.8ZM1033.05 357.398C1032.78 357.398 1032.54 357.302 1032.33 357.11C1032.14 356.906 1032.04 356.666 1032.04 356.39C1032.04 356.198 1032.09 356.03 1032.17 355.886C1032.27 355.73 1032.39 355.61 1032.55 355.526C1032.7 355.43 1032.87 355.382 1033.05 355.382C1033.34 355.382 1033.58 355.478 1033.77 355.67C1033.96 355.862 1034.06 356.102 1034.06 356.39C1034.06 356.57 1034.01 356.738 1033.92 356.894C1033.83 357.05 1033.71 357.176 1033.56 357.272C1033.41 357.356 1033.24 357.398 1033.05 357.398Z" fill="white"/>
<path d="M1036 368V367.55C1036.54 367.478 1036.92 367.358 1037.14 367.19C1037.37 367.022 1037.48 366.752 1037.48 366.38V356.66C1037.48 356.384 1037.41 356.192 1037.28 356.084C1037.16 355.964 1036.96 355.904 1036.67 355.904H1036.04V355.454L1038.56 354.878H1039.01V366.38C1039.01 366.74 1039.12 367.01 1039.33 367.19C1039.56 367.358 1039.95 367.478 1040.49 367.55V368H1036Z" fill="white"/>
<path d="M1045.33 368.144C1044.6 368.144 1043.96 367.946 1043.41 367.55C1042.86 367.154 1042.42 366.614 1042.11 365.93C1041.81 365.234 1041.66 364.448 1041.66 363.572C1041.66 362.864 1041.77 362.228 1041.99 361.664C1042.2 361.088 1042.5 360.596 1042.89 360.188C1043.28 359.768 1043.74 359.45 1044.25 359.234C1044.77 359.006 1045.32 358.892 1045.91 358.892C1046.43 358.892 1046.91 358.982 1047.37 359.162C1047.84 359.33 1048.24 359.57 1048.59 359.882C1048.94 360.182 1049.2 360.542 1049.37 360.962L1048.47 362.456C1048.47 362.012 1048.41 361.616 1048.29 361.268C1048.18 360.908 1048.02 360.596 1047.8 360.332C1047.6 360.068 1047.34 359.87 1047.04 359.738C1046.76 359.594 1046.44 359.522 1046.09 359.522C1045.67 359.522 1045.29 359.618 1044.96 359.81C1044.62 360.002 1044.33 360.272 1044.07 360.62C1043.83 360.968 1043.65 361.382 1043.52 361.862C1043.38 362.342 1043.32 362.864 1043.32 363.428C1043.32 364.16 1043.43 364.808 1043.64 365.372C1043.86 365.936 1044.16 366.38 1044.56 366.704C1044.96 367.016 1045.42 367.172 1045.95 367.172C1046.45 367.172 1046.89 367.022 1047.26 366.722C1047.64 366.422 1047.94 366.044 1048.14 365.588C1048.36 365.12 1048.47 364.64 1048.47 364.148L1048.54 365.552C1048.43 366.044 1048.23 366.488 1047.94 366.884C1047.66 367.268 1047.29 367.574 1046.85 367.802C1046.4 368.03 1045.9 368.144 1045.33 368.144ZM1048.47 368.054V356.642C1048.47 356.378 1048.41 356.192 1048.29 356.084C1048.17 355.964 1047.96 355.904 1047.67 355.904H1047.04V355.454L1049.56 354.878H1050.01V366.254C1050.01 366.518 1050.07 366.71 1050.19 366.83C1050.33 366.938 1050.54 366.992 1050.84 366.992H1051.49V367.442L1048.93 368.054H1048.47Z" fill="white"/>
<path d="M1065.43 368L1062.08 359.486V359.036H1065.29V359.486C1064.83 359.534 1064.51 359.648 1064.32 359.828C1064.14 360.008 1064.11 360.272 1064.23 360.62L1066.49 366.812L1065.99 367.172L1068.38 360.602C1068.46 360.41 1068.47 360.236 1068.42 360.08C1068.38 359.912 1068.29 359.78 1068.13 359.684C1067.98 359.576 1067.74 359.51 1067.43 359.486V359.036H1070.18V359.486C1069.96 359.51 1069.75 359.63 1069.55 359.846C1069.36 360.05 1069.19 360.326 1069.05 360.674L1066.19 368H1065.43ZM1060.03 368L1057.17 360.674C1057.05 360.35 1056.88 360.08 1056.65 359.864C1056.43 359.636 1056.18 359.51 1055.89 359.486V359.036H1059.89V359.486C1059.44 359.534 1059.13 359.648 1058.93 359.828C1058.74 360.008 1058.71 360.272 1058.84 360.62L1061.11 366.812L1060.61 367.172L1062.93 360.908L1063.4 361.448L1060.81 368H1060.03Z" fill="white"/>
<path d="M1070.54 368V367.55C1071.12 367.478 1071.5 367.364 1071.7 367.208C1071.9 367.04 1072 366.782 1072 366.434V356.642C1072 356.378 1071.94 356.192 1071.82 356.084C1071.7 355.964 1071.5 355.904 1071.21 355.904H1070.58V355.454L1073.1 354.878H1073.55V360.944C1073.73 360.5 1073.98 360.128 1074.29 359.828C1074.61 359.528 1074.98 359.3 1075.39 359.144C1075.79 358.976 1076.21 358.892 1076.65 358.892C1077.23 358.892 1077.74 359.018 1078.16 359.27C1078.59 359.51 1078.92 359.858 1079.15 360.314C1079.39 360.77 1079.51 361.304 1079.51 361.916V366.434C1079.51 366.758 1079.61 367.01 1079.81 367.19C1080.02 367.358 1080.41 367.478 1080.98 367.55V368H1076.56V367.55C1077.1 367.478 1077.46 367.364 1077.65 367.208C1077.86 367.04 1077.96 366.782 1077.96 366.434V361.97C1077.96 361.346 1077.79 360.854 1077.46 360.494C1077.12 360.134 1076.62 359.954 1075.94 359.954C1075.6 359.954 1075.24 360.056 1074.86 360.26C1074.49 360.464 1074.18 360.752 1073.93 361.124C1073.68 361.484 1073.55 361.922 1073.55 362.438V366.434C1073.55 366.782 1073.65 367.04 1073.86 367.208C1074.07 367.364 1074.44 367.478 1074.97 367.55V368H1070.54Z" fill="white"/>
<path d="M1081.82 368V367.55C1082.37 367.478 1082.76 367.358 1082.97 367.19C1083.19 367.022 1083.3 366.752 1083.3 366.38V360.764C1083.3 360.5 1083.23 360.308 1083.1 360.188C1082.97 360.068 1082.76 360.008 1082.47 360.008H1081.86V359.558L1084.38 358.982H1084.83V366.38C1084.83 366.74 1084.94 367.01 1085.15 367.19C1085.38 367.358 1085.76 367.478 1086.3 367.55V368H1081.82ZM1084.07 357.398C1083.8 357.398 1083.56 357.302 1083.35 357.11C1083.16 356.906 1083.06 356.666 1083.06 356.39C1083.06 356.198 1083.11 356.03 1083.19 355.886C1083.29 355.73 1083.41 355.61 1083.57 355.526C1083.72 355.43 1083.89 355.382 1084.07 355.382C1084.36 355.382 1084.6 355.478 1084.79 355.67C1084.98 355.862 1085.08 356.102 1085.08 356.39C1085.08 356.57 1085.03 356.738 1084.94 356.894C1084.85 357.05 1084.73 357.176 1084.58 357.272C1084.43 357.356 1084.26 357.398 1084.07 357.398Z" fill="white"/>
<path d="M1087.02 368V367.55C1087.56 367.478 1087.94 367.358 1088.16 367.19C1088.39 367.022 1088.5 366.752 1088.5 366.38V356.66C1088.5 356.384 1088.43 356.192 1088.3 356.084C1088.18 355.964 1087.98 355.904 1087.69 355.904H1087.06V355.454L1089.58 354.878H1090.03V366.38C1090.03 366.74 1090.14 367.01 1090.35 367.19C1090.58 367.358 1090.97 367.478 1091.51 367.55V368H1087.02Z" fill="white"/>
<path d="M1096.95 368.144C1096.11 368.144 1095.36 367.958 1094.71 367.586C1094.07 367.214 1093.56 366.698 1093.2 366.038C1092.86 365.366 1092.68 364.592 1092.68 363.716C1092.68 362.972 1092.8 362.306 1093.02 361.718C1093.25 361.118 1093.56 360.608 1093.96 360.188C1094.37 359.768 1094.84 359.45 1095.36 359.234C1095.9 359.006 1096.48 358.892 1097.09 358.892C1097.68 358.892 1098.19 358.988 1098.62 359.18C1099.06 359.372 1099.43 359.642 1099.72 359.99C1100.02 360.338 1100.24 360.74 1100.37 361.196C1100.5 361.652 1100.55 362.15 1100.53 362.69H1094.01V362.114H1098.19C1098.33 362.114 1098.45 362.09 1098.55 362.042C1098.65 361.982 1098.72 361.898 1098.77 361.79C1098.83 361.682 1098.85 361.556 1098.85 361.412C1098.85 360.872 1098.69 360.416 1098.35 360.044C1098.02 359.66 1097.55 359.468 1096.96 359.468C1096.57 359.468 1096.2 359.558 1095.87 359.738C1095.53 359.906 1095.24 360.152 1095 360.476C1094.76 360.8 1094.58 361.184 1094.45 361.628C1094.31 362.072 1094.25 362.564 1094.25 363.104C1094.25 363.896 1094.38 364.586 1094.64 365.174C1094.91 365.762 1095.28 366.218 1095.76 366.542C1096.25 366.854 1096.83 367.01 1097.51 367.01C1098.2 367.01 1098.78 366.824 1099.25 366.452C1099.72 366.08 1100.06 365.558 1100.28 364.886H1100.73C1100.5 365.942 1100.07 366.752 1099.43 367.316C1098.81 367.868 1097.98 368.144 1096.95 368.144Z" fill="white"/>
<path d="M982.201 395.144C981.337 395.144 980.569 394.946 979.897 394.55C979.237 394.154 978.715 393.608 978.331 392.912C977.947 392.216 977.755 391.412 977.755 390.5C977.755 389.828 977.863 389.21 978.079 388.646C978.295 388.082 978.601 387.596 978.997 387.188C979.393 386.768 979.861 386.45 980.401 386.234C980.941 386.006 981.541 385.892 982.201 385.892C983.077 385.892 983.845 386.09 984.505 386.486C985.165 386.87 985.681 387.41 986.053 388.106C986.425 388.79 986.611 389.588 986.611 390.5C986.611 391.184 986.503 391.814 986.287 392.39C986.071 392.954 985.765 393.446 985.369 393.866C984.985 394.274 984.523 394.592 983.983 394.82C983.443 395.036 982.849 395.144 982.201 395.144ZM982.201 394.55C982.525 394.55 982.825 394.49 983.101 394.37C983.389 394.25 983.641 394.076 983.857 393.848C984.073 393.608 984.259 393.326 984.415 393.002C984.571 392.666 984.685 392.288 984.757 391.868C984.841 391.448 984.883 390.992 984.883 390.5C984.883 389.684 984.775 388.976 984.559 388.376C984.343 387.776 984.031 387.314 983.623 386.99C983.227 386.654 982.753 386.486 982.201 386.486C981.865 386.486 981.553 386.546 981.265 386.666C980.989 386.786 980.737 386.966 980.509 387.206C980.293 387.434 980.107 387.716 979.951 388.052C979.795 388.376 979.675 388.748 979.591 389.168C979.519 389.576 979.483 390.02 979.483 390.5C979.483 391.316 979.591 392.03 979.807 392.642C980.035 393.254 980.347 393.728 980.743 394.064C981.151 394.388 981.637 394.55 982.201 394.55Z" fill="white"/>
<path d="M993.15 393.11H993.6C993.552 393.482 993.432 393.824 993.24 394.136C993.048 394.436 992.796 394.682 992.484 394.874C992.184 395.054 991.842 395.144 991.458 395.144C991.014 395.144 990.618 395.06 990.27 394.892C989.934 394.724 989.67 394.472 989.478 394.136C989.298 393.788 989.208 393.35 989.208 392.822V386.828H987.696V386.36C988.032 386.324 988.344 386.24 988.632 386.108C988.92 385.976 989.178 385.814 989.406 385.622C989.646 385.43 989.844 385.214 990 384.974C990.156 384.722 990.27 384.446 990.342 384.146H990.792V386.036H993.222V386.828H990.774V392.714C990.774 393.014 990.816 393.272 990.9 393.488C990.996 393.704 991.134 393.872 991.314 393.992C991.494 394.1 991.704 394.154 991.944 394.154C992.232 394.154 992.484 394.058 992.7 393.866C992.928 393.674 993.078 393.422 993.15 393.11Z" fill="white"/>
<path d="M994.277 395V394.55C994.853 394.478 995.237 394.364 995.429 394.208C995.633 394.04 995.735 393.782 995.735 393.434V383.642C995.735 383.378 995.675 383.192 995.555 383.084C995.435 382.964 995.231 382.904 994.943 382.904H994.313V382.454L996.833 381.878H997.283V387.944C997.463 387.5 997.709 387.128 998.021 386.828C998.345 386.528 998.711 386.3 999.119 386.144C999.527 385.976 999.947 385.892 1000.38 385.892C1000.97 385.892 1001.47 386.018 1001.89 386.27C1002.32 386.51 1002.65 386.858 1002.88 387.314C1003.12 387.77 1003.24 388.304 1003.24 388.916V393.434C1003.24 393.758 1003.34 394.01 1003.55 394.19C1003.75 394.358 1004.14 394.478 1004.72 394.55V395H1000.29V394.55C1000.83 394.478 1001.19 394.364 1001.39 394.208C1001.59 394.04 1001.69 393.782 1001.69 393.434V388.97C1001.69 388.346 1001.52 387.854 1001.19 387.494C1000.85 387.134 1000.35 386.954 999.677 386.954C999.329 386.954 998.969 387.056 998.597 387.26C998.225 387.464 997.913 387.752 997.661 388.124C997.409 388.484 997.283 388.922 997.283 389.438V393.434C997.283 393.782 997.385 394.04 997.589 394.208C997.805 394.364 998.177 394.478 998.705 394.55V395H994.277Z" fill="white"/>
<path d="M1010.04 395.144C1009.2 395.144 1008.45 394.958 1007.8 394.586C1007.16 394.214 1006.65 393.698 1006.29 393.038C1005.94 392.366 1005.77 391.592 1005.77 390.716C1005.77 389.972 1005.88 389.306 1006.11 388.718C1006.34 388.118 1006.65 387.608 1007.05 387.188C1007.46 386.768 1007.92 386.45 1008.45 386.234C1008.99 386.006 1009.57 385.892 1010.18 385.892C1010.77 385.892 1011.28 385.988 1011.71 386.18C1012.15 386.372 1012.52 386.642 1012.81 386.99C1013.11 387.338 1013.32 387.74 1013.46 388.196C1013.59 388.652 1013.64 389.15 1013.62 389.69H1007.1V389.114H1011.28C1011.42 389.114 1011.54 389.09 1011.64 389.042C1011.73 388.982 1011.81 388.898 1011.85 388.79C1011.91 388.682 1011.94 388.556 1011.94 388.412C1011.94 387.872 1011.78 387.416 1011.44 387.044C1011.1 386.66 1010.64 386.468 1010.05 386.468C1009.66 386.468 1009.29 386.558 1008.96 386.738C1008.62 386.906 1008.33 387.152 1008.09 387.476C1007.85 387.8 1007.67 388.184 1007.53 388.628C1007.4 389.072 1007.34 389.564 1007.34 390.104C1007.34 390.896 1007.47 391.586 1007.73 392.174C1008 392.762 1008.37 393.218 1008.85 393.542C1009.34 393.854 1009.92 394.01 1010.59 394.01C1011.29 394.01 1011.87 393.824 1012.34 393.452C1012.81 393.08 1013.15 392.558 1013.37 391.886H1013.82C1013.59 392.942 1013.16 393.752 1012.52 394.316C1011.9 394.868 1011.07 395.144 1010.04 395.144Z" fill="white"/>
<path d="M1018.06 387.89C1018.27 387.23 1018.58 386.732 1018.99 386.396C1019.41 386.06 1019.84 385.892 1020.27 385.892C1020.67 385.892 1020.98 386 1021.22 386.216C1021.48 386.432 1021.6 386.678 1021.6 386.954C1021.6 387.194 1021.52 387.392 1021.37 387.548C1021.21 387.704 1021.02 387.782 1020.79 387.782C1020.62 387.782 1020.49 387.74 1020.38 387.656C1020.28 387.572 1020.2 387.482 1020.14 387.386C1020.1 387.29 1020.03 387.2 1019.95 387.116C1019.87 387.032 1019.76 386.99 1019.6 386.99C1019.34 386.99 1019.09 387.116 1018.85 387.368C1018.62 387.62 1018.43 387.944 1018.27 388.34C1018.13 388.736 1018.06 389.15 1018.06 389.582V393.416C1018.06 393.8 1018.2 394.07 1018.49 394.226C1018.78 394.382 1019.23 394.49 1019.84 394.55V395H1015.18V394.55C1015.67 394.49 1016.01 394.376 1016.2 394.208C1016.41 394.028 1016.51 393.764 1016.51 393.416V387.764C1016.51 387.512 1016.44 387.326 1016.31 387.206C1016.19 387.074 1015.99 387.008 1015.7 387.008H1015.09V386.558L1017.61 385.982H1018.06V387.89Z" fill="white"/>
<path d="M1026.09 395.144C1025.66 395.144 1025.27 395.096 1024.92 395C1024.58 394.916 1024.27 394.844 1023.98 394.784C1023.71 394.724 1023.43 394.73 1023.16 394.802L1022.78 392.174H1023.23C1023.49 392.942 1023.85 393.536 1024.31 393.956C1024.76 394.376 1025.34 394.586 1026.04 394.586C1026.59 394.586 1027.05 394.448 1027.42 394.172C1027.79 393.884 1027.98 393.494 1027.98 393.002C1027.98 392.606 1027.86 392.294 1027.62 392.066C1027.38 391.826 1027.06 391.628 1026.67 391.472C1026.28 391.316 1025.87 391.166 1025.44 391.022C1025.01 390.878 1024.6 390.704 1024.22 390.5C1023.83 390.296 1023.52 390.032 1023.26 389.708C1023.02 389.384 1022.9 388.958 1022.9 388.43C1022.9 387.974 1022.99 387.59 1023.17 387.278C1023.35 386.954 1023.59 386.69 1023.89 386.486C1024.19 386.282 1024.52 386.132 1024.88 386.036C1025.26 385.94 1025.62 385.892 1025.98 385.892C1026.44 385.892 1026.82 385.94 1027.13 386.036C1027.46 386.12 1027.74 386.198 1027.98 386.27C1028.22 386.342 1028.46 386.354 1028.7 386.306L1028.86 388.646H1028.39C1028.3 388.166 1028.13 387.764 1027.89 387.44C1027.66 387.116 1027.38 386.87 1027.04 386.702C1026.71 386.534 1026.34 386.45 1025.95 386.45C1025.49 386.45 1025.08 386.576 1024.72 386.828C1024.36 387.068 1024.18 387.416 1024.18 387.872C1024.18 388.256 1024.3 388.562 1024.54 388.79C1024.79 389.006 1025.11 389.192 1025.5 389.348C1025.89 389.492 1026.31 389.636 1026.74 389.78C1027.18 389.912 1027.6 390.08 1027.98 390.284C1028.38 390.488 1028.69 390.758 1028.93 391.094C1029.19 391.43 1029.31 391.874 1029.31 392.426C1029.31 392.978 1029.17 393.458 1028.9 393.866C1028.62 394.262 1028.24 394.574 1027.76 394.802C1027.28 395.03 1026.73 395.144 1026.09 395.144Z" fill="white"/>
<path d="M1038.18 395.144C1037.72 395.144 1037.29 395.054 1036.88 394.874C1036.49 394.694 1036.16 394.43 1035.91 394.082C1035.67 393.734 1035.55 393.32 1035.55 392.84C1035.55 392.408 1035.64 392.03 1035.82 391.706C1036.01 391.382 1036.33 391.094 1036.77 390.842C1037.23 390.578 1037.86 390.308 1038.66 390.032L1040.16 389.546C1040.43 389.438 1040.63 389.288 1040.73 389.096C1040.85 388.904 1040.91 388.676 1040.91 388.412L1041.08 389.816L1039.22 390.464C1038.6 390.692 1038.1 390.962 1037.73 391.274C1037.36 391.574 1037.17 391.994 1037.17 392.534C1037.17 392.882 1037.25 393.176 1037.4 393.416C1037.56 393.656 1037.76 393.836 1038 393.956C1038.25 394.064 1038.51 394.118 1038.79 394.118C1039.11 394.118 1039.44 394.028 1039.76 393.848C1040.1 393.656 1040.37 393.386 1040.59 393.038C1040.81 392.69 1040.91 392.282 1040.91 391.814L1041.08 392.66C1040.96 393.236 1040.75 393.71 1040.45 394.082C1040.16 394.442 1039.81 394.712 1039.4 394.892C1039.01 395.06 1038.6 395.144 1038.18 395.144ZM1040.91 388.394C1040.91 387.77 1040.73 387.29 1040.37 386.954C1040.03 386.618 1039.56 386.45 1038.99 386.45C1038.44 386.45 1038.01 386.582 1037.71 386.846C1037.42 387.098 1037.28 387.392 1037.28 387.728C1037.28 387.872 1037.29 387.992 1037.31 388.088C1037.34 388.172 1037.35 388.28 1037.35 388.412C1037.35 388.64 1037.27 388.826 1037.1 388.97C1036.93 389.102 1036.73 389.168 1036.5 389.168C1036.26 389.168 1036.07 389.09 1035.91 388.934C1035.77 388.778 1035.69 388.58 1035.69 388.34C1035.69 387.908 1035.84 387.506 1036.14 387.134C1036.44 386.762 1036.85 386.462 1037.37 386.234C1037.9 386.006 1038.5 385.892 1039.17 385.892C1039.83 385.892 1040.4 386 1040.9 386.216C1041.39 386.432 1041.77 386.75 1042.05 387.17C1042.32 387.59 1042.46 388.1 1042.46 388.7V393.452C1042.46 393.656 1042.52 393.824 1042.62 393.956C1042.74 394.076 1042.88 394.136 1043.04 394.136C1043.16 394.136 1043.28 394.082 1043.42 393.974C1043.56 393.854 1043.66 393.65 1043.72 393.362H1044.19C1044.14 393.83 1044.01 394.196 1043.79 394.46C1043.59 394.724 1043.36 394.904 1043.11 395C1042.86 395.096 1042.62 395.144 1042.41 395.144C1042.17 395.144 1041.93 395.09 1041.69 394.982C1041.46 394.874 1041.27 394.706 1041.13 394.478C1040.99 394.238 1040.91 393.926 1040.91 393.542V388.394Z" fill="white"/>
<path d="M1047.87 387.89C1048.08 387.23 1048.4 386.732 1048.8 386.396C1049.22 386.06 1049.65 385.892 1050.08 385.892C1050.48 385.892 1050.8 386 1051.04 386.216C1051.29 386.432 1051.41 386.678 1051.41 386.954C1051.41 387.194 1051.34 387.392 1051.18 387.548C1051.02 387.704 1050.83 387.782 1050.6 387.782C1050.44 387.782 1050.3 387.74 1050.19 387.656C1050.09 387.572 1050.02 387.482 1049.96 387.386C1049.91 387.29 1049.84 387.2 1049.76 387.116C1049.69 387.032 1049.57 386.99 1049.42 386.99C1049.15 386.99 1048.9 387.116 1048.66 387.368C1048.43 387.62 1048.24 387.944 1048.08 388.34C1047.94 388.736 1047.87 389.15 1047.87 389.582V393.416C1047.87 393.8 1048.01 394.07 1048.3 394.226C1048.59 394.382 1049.04 394.49 1049.65 394.55V395H1044.99V394.55C1045.48 394.49 1045.82 394.376 1046.01 394.208C1046.22 394.028 1046.32 393.764 1046.32 393.416V387.764C1046.32 387.512 1046.25 387.326 1046.12 387.206C1046 387.074 1045.8 387.008 1045.51 387.008H1044.9V386.558L1047.42 385.982H1047.87V387.89Z" fill="white"/>
<path d="M1056.59 395.144C1055.75 395.144 1055.01 394.958 1054.36 394.586C1053.71 394.214 1053.21 393.698 1052.85 393.038C1052.5 392.366 1052.32 391.592 1052.32 390.716C1052.32 389.972 1052.44 389.306 1052.67 388.718C1052.89 388.118 1053.21 387.608 1053.6 387.188C1054.01 386.768 1054.48 386.45 1055.01 386.234C1055.55 386.006 1056.12 385.892 1056.73 385.892C1057.32 385.892 1057.83 385.988 1058.26 386.18C1058.71 386.372 1059.07 386.642 1059.36 386.99C1059.66 387.338 1059.88 387.74 1060.01 388.196C1060.14 388.652 1060.2 389.15 1060.17 389.69H1053.66V389.114H1057.83C1057.98 389.114 1058.1 389.09 1058.19 389.042C1058.29 388.982 1058.36 388.898 1058.41 388.79C1058.47 388.682 1058.5 388.556 1058.5 388.412C1058.5 387.872 1058.33 387.416 1057.99 387.044C1057.66 386.66 1057.2 386.468 1056.61 386.468C1056.21 386.468 1055.85 386.558 1055.51 386.738C1055.17 386.906 1054.89 387.152 1054.65 387.476C1054.41 387.8 1054.22 388.184 1054.09 388.628C1053.96 389.072 1053.89 389.564 1053.89 390.104C1053.89 390.896 1054.02 391.586 1054.29 392.174C1054.55 392.762 1054.92 393.218 1055.4 393.542C1055.89 393.854 1056.48 394.01 1057.15 394.01C1057.84 394.01 1058.43 393.824 1058.89 393.452C1059.36 393.08 1059.7 392.558 1059.92 391.886H1060.37C1060.14 392.942 1059.71 393.752 1059.07 394.316C1058.45 394.868 1057.62 395.144 1056.59 395.144Z" fill="white"/>
<path d="M1069.71 395.144C1069.28 395.144 1068.89 395.096 1068.54 395C1068.2 394.916 1067.89 394.844 1067.6 394.784C1067.33 394.724 1067.05 394.73 1066.78 394.802L1066.4 392.174H1066.85C1067.11 392.942 1067.47 393.536 1067.93 393.956C1068.38 394.376 1068.96 394.586 1069.66 394.586C1070.21 394.586 1070.67 394.448 1071.04 394.172C1071.41 393.884 1071.6 393.494 1071.6 393.002C1071.6 392.606 1071.48 392.294 1071.24 392.066C1071 391.826 1070.68 391.628 1070.29 391.472C1069.9 391.316 1069.49 391.166 1069.06 391.022C1068.63 390.878 1068.22 390.704 1067.84 390.5C1067.45 390.296 1067.14 390.032 1066.88 389.708C1066.64 389.384 1066.52 388.958 1066.52 388.43C1066.52 387.974 1066.61 387.59 1066.79 387.278C1066.97 386.954 1067.21 386.69 1067.51 386.486C1067.81 386.282 1068.14 386.132 1068.5 386.036C1068.88 385.94 1069.24 385.892 1069.6 385.892C1070.06 385.892 1070.44 385.94 1070.75 386.036C1071.08 386.12 1071.36 386.198 1071.6 386.27C1071.84 386.342 1072.08 386.354 1072.32 386.306L1072.48 388.646H1072.01C1071.92 388.166 1071.75 387.764 1071.51 387.44C1071.28 387.116 1071 386.87 1070.66 386.702C1070.33 386.534 1069.96 386.45 1069.57 386.45C1069.11 386.45 1068.7 386.576 1068.34 386.828C1067.98 387.068 1067.8 387.416 1067.8 387.872C1067.8 388.256 1067.92 388.562 1068.16 388.79C1068.41 389.006 1068.73 389.192 1069.12 389.348C1069.51 389.492 1069.93 389.636 1070.36 389.78C1070.8 389.912 1071.22 390.08 1071.6 390.284C1072 390.488 1072.31 390.758 1072.55 391.094C1072.81 391.43 1072.93 391.874 1072.93 392.426C1072.93 392.978 1072.79 393.458 1072.52 393.866C1072.24 394.262 1071.86 394.574 1071.38 394.802C1070.9 395.03 1070.35 395.144 1069.71 395.144Z" fill="white"/>
<path d="M1079.49 393.11H1079.94C1079.89 393.482 1079.77 393.824 1079.58 394.136C1079.39 394.436 1079.13 394.682 1078.82 394.874C1078.52 395.054 1078.18 395.144 1077.8 395.144C1077.35 395.144 1076.96 395.06 1076.61 394.892C1076.27 394.724 1076.01 394.472 1075.82 394.136C1075.64 393.788 1075.55 393.35 1075.55 392.822V386.828H1074.03V386.36C1074.37 386.324 1074.68 386.24 1074.97 386.108C1075.26 385.976 1075.52 385.814 1075.74 385.622C1075.98 385.43 1076.18 385.214 1076.34 384.974C1076.49 384.722 1076.61 384.446 1076.68 384.146H1077.13V386.036H1079.56V386.828H1077.11V392.714C1077.11 393.014 1077.15 393.272 1077.24 393.488C1077.33 393.704 1077.47 393.872 1077.65 393.992C1077.83 394.1 1078.04 394.154 1078.28 394.154C1078.57 394.154 1078.82 394.058 1079.04 393.866C1079.27 393.674 1079.42 393.422 1079.49 393.11Z" fill="white"/>
<path d="M1080.85 395V394.55C1081.4 394.478 1081.78 394.358 1082 394.19C1082.22 394.022 1082.32 393.752 1082.32 393.38V387.764C1082.32 387.5 1082.26 387.308 1082.13 387.188C1081.99 387.068 1081.78 387.008 1081.5 387.008H1080.88V386.558L1083.4 385.982H1083.85V393.38C1083.85 393.74 1083.96 394.01 1084.18 394.19C1084.41 394.358 1084.79 394.478 1085.33 394.55V395H1080.85ZM1083.1 384.398C1082.82 384.398 1082.58 384.302 1082.38 384.11C1082.19 383.906 1082.09 383.666 1082.09 383.39C1082.09 383.198 1082.13 383.03 1082.22 382.886C1082.31 382.73 1082.44 382.61 1082.59 382.526C1082.75 382.43 1082.92 382.382 1083.1 382.382C1083.39 382.382 1083.63 382.478 1083.82 382.67C1084.01 382.862 1084.11 383.102 1084.11 383.39C1084.11 383.57 1084.06 383.738 1083.96 383.894C1083.88 384.05 1083.76 384.176 1083.6 384.272C1083.46 384.356 1083.29 384.398 1083.1 384.398Z" fill="white"/>
<path d="M1086.05 395V394.55C1086.59 394.478 1086.97 394.358 1087.18 394.19C1087.41 394.022 1087.53 393.752 1087.53 393.38V383.66C1087.53 383.384 1087.46 383.192 1087.33 383.084C1087.21 382.964 1087 382.904 1086.72 382.904H1086.09V382.454L1088.61 381.878H1089.06V393.38C1089.06 393.74 1089.16 394.01 1089.38 394.19C1089.61 394.358 1089.99 394.478 1090.53 394.55V395H1086.05Z" fill="white"/>
<path d="M1091.26 395V394.55C1091.8 394.478 1092.18 394.358 1092.39 394.19C1092.62 394.022 1092.73 393.752 1092.73 393.38V383.66C1092.73 383.384 1092.67 383.192 1092.54 383.084C1092.42 382.964 1092.21 382.904 1091.92 382.904H1091.29V382.454L1093.81 381.878H1094.26V393.38C1094.26 393.74 1094.37 394.01 1094.59 394.19C1094.82 394.358 1095.2 394.478 1095.74 394.55V395H1091.26Z" fill="white"/>
<path d="M1012.54 422.144C1012.08 422.144 1011.65 422.054 1011.24 421.874C1010.85 421.694 1010.52 421.43 1010.27 421.082C1010.03 420.734 1009.91 420.32 1009.91 419.84C1009.91 419.408 1010 419.03 1010.18 418.706C1010.37 418.382 1010.69 418.094 1011.14 417.842C1011.59 417.578 1012.22 417.308 1013.03 417.032L1014.52 416.546C1014.8 416.438 1014.99 416.288 1015.1 416.096C1015.22 415.904 1015.28 415.676 1015.28 415.412L1015.44 416.816L1013.58 417.464C1012.96 417.692 1012.46 417.962 1012.09 418.274C1011.72 418.574 1011.53 418.994 1011.53 419.534C1011.53 419.882 1011.61 420.176 1011.77 420.416C1011.92 420.656 1012.12 420.836 1012.36 420.956C1012.61 421.064 1012.88 421.118 1013.15 421.118C1013.48 421.118 1013.8 421.028 1014.12 420.848C1014.46 420.656 1014.74 420.386 1014.95 420.038C1015.17 419.69 1015.28 419.282 1015.28 418.814L1015.44 419.66C1015.32 420.236 1015.11 420.71 1014.81 421.082C1014.52 421.442 1014.17 421.712 1013.76 421.892C1013.37 422.06 1012.96 422.144 1012.54 422.144ZM1015.28 415.394C1015.28 414.77 1015.1 414.29 1014.74 413.954C1014.39 413.618 1013.93 413.45 1013.35 413.45C1012.8 413.45 1012.37 413.582 1012.07 413.846C1011.78 414.098 1011.64 414.392 1011.64 414.728C1011.64 414.872 1011.65 414.992 1011.68 415.088C1011.7 415.172 1011.71 415.28 1011.71 415.412C1011.71 415.64 1011.63 415.826 1011.46 415.97C1011.29 416.102 1011.09 416.168 1010.87 416.168C1010.63 416.168 1010.43 416.09 1010.27 415.934C1010.13 415.778 1010.06 415.58 1010.06 415.34C1010.06 414.908 1010.21 414.506 1010.51 414.134C1010.81 413.762 1011.21 413.462 1011.73 413.234C1012.26 413.006 1012.86 412.892 1013.53 412.892C1014.19 412.892 1014.77 413 1015.26 413.216C1015.75 413.432 1016.13 413.75 1016.41 414.17C1016.69 414.59 1016.82 415.1 1016.82 415.7V420.452C1016.82 420.656 1016.88 420.824 1016.99 420.956C1017.11 421.076 1017.24 421.136 1017.4 421.136C1017.52 421.136 1017.65 421.082 1017.78 420.974C1017.92 420.854 1018.02 420.65 1018.08 420.362H1018.55C1018.5 420.83 1018.37 421.196 1018.16 421.46C1017.95 421.724 1017.72 421.904 1017.47 422C1017.22 422.096 1016.99 422.144 1016.77 422.144C1016.53 422.144 1016.29 422.09 1016.05 421.982C1015.82 421.874 1015.64 421.706 1015.49 421.478C1015.35 421.238 1015.28 420.926 1015.28 420.542V415.394Z" fill="white"/>
<path d="M1022.86 422.144C1022.43 422.144 1022.04 422.096 1021.69 422C1021.35 421.916 1021.04 421.844 1020.75 421.784C1020.48 421.724 1020.2 421.73 1019.93 421.802L1019.55 419.174H1020C1020.26 419.942 1020.62 420.536 1021.08 420.956C1021.53 421.376 1022.11 421.586 1022.81 421.586C1023.36 421.586 1023.82 421.448 1024.19 421.172C1024.56 420.884 1024.75 420.494 1024.75 420.002C1024.75 419.606 1024.63 419.294 1024.39 419.066C1024.15 418.826 1023.83 418.628 1023.44 418.472C1023.05 418.316 1022.64 418.166 1022.21 418.022C1021.78 417.878 1021.37 417.704 1020.99 417.5C1020.6 417.296 1020.29 417.032 1020.03 416.708C1019.79 416.384 1019.67 415.958 1019.67 415.43C1019.67 414.974 1019.76 414.59 1019.94 414.278C1020.12 413.954 1020.36 413.69 1020.66 413.486C1020.96 413.282 1021.29 413.132 1021.65 413.036C1022.03 412.94 1022.39 412.892 1022.75 412.892C1023.21 412.892 1023.59 412.94 1023.9 413.036C1024.23 413.12 1024.51 413.198 1024.75 413.27C1024.99 413.342 1025.23 413.354 1025.47 413.306L1025.63 415.646H1025.16C1025.07 415.166 1024.9 414.764 1024.66 414.44C1024.43 414.116 1024.15 413.87 1023.81 413.702C1023.48 413.534 1023.11 413.45 1022.72 413.45C1022.26 413.45 1021.85 413.576 1021.49 413.828C1021.13 414.068 1020.95 414.416 1020.95 414.872C1020.95 415.256 1021.07 415.562 1021.31 415.79C1021.56 416.006 1021.88 416.192 1022.27 416.348C1022.66 416.492 1023.08 416.636 1023.51 416.78C1023.95 416.912 1024.37 417.08 1024.75 417.284C1025.15 417.488 1025.46 417.758 1025.7 418.094C1025.96 418.43 1026.08 418.874 1026.08 419.426C1026.08 419.978 1025.94 420.458 1025.67 420.866C1025.39 421.262 1025.01 421.574 1024.53 421.802C1024.05 422.03 1023.5 422.144 1022.86 422.144Z" fill="white"/>
<path d="M1034.64 422L1030.06 416.96L1033.52 414.404C1033.71 414.26 1033.81 414.122 1033.83 413.99C1033.84 413.858 1033.77 413.75 1033.61 413.666C1033.47 413.582 1033.23 413.534 1032.89 413.522V413.036H1036.8V413.522C1036.38 413.534 1035.96 413.654 1035.54 413.882C1035.12 414.11 1034.62 414.416 1034.04 414.8L1030.77 417.05L1031.23 416.294L1035.14 420.146C1035.39 420.398 1035.63 420.626 1035.86 420.83C1036.1 421.022 1036.37 421.184 1036.67 421.316C1036.97 421.436 1037.35 421.514 1037.8 421.55V422H1034.64ZM1027.27 422V421.55C1027.81 421.478 1028.19 421.358 1028.41 421.19C1028.62 421.022 1028.73 420.752 1028.73 420.38V410.66C1028.73 410.384 1028.67 410.192 1028.53 410.084C1028.41 409.964 1028.22 409.904 1027.94 409.904H1027.31V409.454L1029.83 408.878H1030.28V420.38C1030.28 420.74 1030.39 421.01 1030.6 421.19C1030.83 421.358 1031.21 421.478 1031.74 421.55V422H1027.27Z" fill="white"/>
<path d="M1038.27 422V421.55C1038.82 421.478 1039.21 421.358 1039.42 421.19C1039.64 421.022 1039.75 420.752 1039.75 420.38V414.764C1039.75 414.5 1039.68 414.308 1039.55 414.188C1039.42 414.068 1039.21 414.008 1038.92 414.008H1038.31V413.558L1040.83 412.982H1041.28V420.38C1041.28 420.74 1041.38 421.01 1041.6 421.19C1041.83 421.358 1042.21 421.478 1042.75 421.55V422H1038.27ZM1040.52 411.398C1040.24 411.398 1040 411.302 1039.8 411.11C1039.61 410.906 1039.51 410.666 1039.51 410.39C1039.51 410.198 1039.55 410.03 1039.64 409.886C1039.73 409.73 1039.86 409.61 1040.02 409.526C1040.17 409.43 1040.34 409.382 1040.52 409.382C1040.81 409.382 1041.05 409.478 1041.24 409.67C1041.43 409.862 1041.53 410.102 1041.53 410.39C1041.53 410.57 1041.48 410.738 1041.38 410.894C1041.3 411.05 1041.18 411.176 1041.02 411.272C1040.88 411.356 1040.71 411.398 1040.52 411.398Z" fill="white"/>
<path d="M1046.71 414.944C1046.98 414.284 1047.39 413.78 1047.95 413.432C1048.52 413.072 1049.14 412.892 1049.83 412.892C1050.4 412.892 1050.9 413.018 1051.32 413.27C1051.75 413.51 1052.08 413.858 1052.31 414.314C1052.55 414.77 1052.67 415.304 1052.67 415.916V420.434C1052.67 420.758 1052.77 421.01 1052.98 421.19C1053.18 421.358 1053.57 421.478 1054.15 421.55V422H1049.72V421.55C1050.26 421.478 1050.62 421.364 1050.82 421.208C1051.02 421.04 1051.12 420.782 1051.12 420.434V416.042C1051.12 415.382 1050.95 414.872 1050.62 414.512C1050.28 414.14 1049.78 413.954 1049.12 413.954C1048.76 413.954 1048.4 414.056 1048.03 414.26C1047.65 414.464 1047.34 414.752 1047.09 415.124C1046.84 415.484 1046.71 415.922 1046.71 416.438V420.434C1046.71 420.782 1046.81 421.04 1047.02 421.208C1047.23 421.364 1047.61 421.478 1048.13 421.55V422H1043.71V421.55C1044.28 421.478 1044.67 421.364 1044.86 421.208C1045.06 421.04 1045.16 420.782 1045.16 420.434V414.764C1045.16 414.512 1045.1 414.326 1044.97 414.206C1044.85 414.074 1044.64 414.008 1044.35 414.008H1043.74V413.558L1046.26 412.982H1046.71V414.944Z" fill="white"/>
<path d="M1058.58 425.51C1057.73 425.51 1057.02 425.426 1056.45 425.258C1055.89 425.09 1055.46 424.85 1055.18 424.538C1054.89 424.226 1054.74 423.86 1054.74 423.44C1054.74 423.02 1054.87 422.654 1055.12 422.342C1055.37 422.03 1055.72 421.784 1056.15 421.604C1056.58 421.412 1057.06 421.328 1057.59 421.352L1057.82 421.64C1057.62 421.616 1057.41 421.646 1057.19 421.73C1056.98 421.802 1056.77 421.91 1056.58 422.054C1056.4 422.198 1056.26 422.366 1056.15 422.558C1056.04 422.762 1055.99 422.984 1055.99 423.224C1055.99 423.5 1056.06 423.74 1056.22 423.944C1056.38 424.16 1056.6 424.334 1056.89 424.466C1057.17 424.61 1057.51 424.712 1057.89 424.772C1058.28 424.844 1058.69 424.88 1059.14 424.88C1059.75 424.88 1060.28 424.814 1060.74 424.682C1061.21 424.55 1061.57 424.358 1061.84 424.106C1062.1 423.854 1062.23 423.56 1062.23 423.224C1062.23 422.804 1062.07 422.498 1061.75 422.306C1061.43 422.126 1061.03 422.012 1060.52 421.964L1057.89 421.658C1057.11 421.562 1056.5 421.376 1056.06 421.1C1055.63 420.824 1055.41 420.452 1055.41 419.984C1055.41 419.684 1055.49 419.42 1055.66 419.192C1055.83 418.964 1056.11 418.778 1056.49 418.634C1056.87 418.49 1057.38 418.412 1058 418.4L1058.65 418.778C1057.88 418.778 1057.32 418.844 1056.96 418.976C1056.6 419.108 1056.42 419.3 1056.42 419.552C1056.42 419.744 1056.5 419.9 1056.67 420.02C1056.85 420.128 1057.11 420.206 1057.44 420.254L1060.74 420.578C1061.22 420.626 1061.66 420.734 1062.05 420.902C1062.46 421.058 1062.78 421.286 1063.02 421.586C1063.28 421.874 1063.4 422.246 1063.4 422.702C1063.4 423.134 1063.29 423.524 1063.06 423.872C1062.84 424.22 1062.53 424.514 1062.11 424.754C1061.69 424.994 1061.18 425.18 1060.58 425.312C1059.99 425.444 1059.32 425.51 1058.58 425.51ZM1058.83 418.778C1058.43 418.778 1058.03 418.724 1057.61 418.616C1057.2 418.496 1056.82 418.316 1056.47 418.076C1056.12 417.836 1055.84 417.53 1055.63 417.158C1055.42 416.786 1055.32 416.348 1055.32 415.844C1055.32 415.232 1055.48 414.71 1055.81 414.278C1056.13 413.834 1056.56 413.492 1057.1 413.252C1057.64 413.012 1058.22 412.892 1058.85 412.892C1059.46 412.892 1060.03 413.012 1060.56 413.252C1061.1 413.48 1061.53 413.816 1061.85 414.26C1062.19 414.692 1062.36 415.22 1062.36 415.844C1062.36 416.3 1062.26 416.714 1062.07 417.086C1061.88 417.446 1061.62 417.752 1061.3 418.004C1060.98 418.256 1060.61 418.448 1060.18 418.58C1059.76 418.712 1059.31 418.778 1058.83 418.778ZM1058.85 418.256C1059.05 418.256 1059.25 418.226 1059.44 418.166C1059.65 418.094 1059.83 417.992 1059.98 417.86C1060.15 417.716 1060.29 417.548 1060.41 417.356C1060.53 417.152 1060.62 416.93 1060.68 416.69C1060.76 416.438 1060.79 416.156 1060.79 415.844C1060.79 415.328 1060.7 414.89 1060.52 414.53C1060.34 414.17 1060.1 413.9 1059.8 413.72C1059.51 413.528 1059.2 413.432 1058.85 413.432C1058.64 413.432 1058.44 413.468 1058.24 413.54C1058.04 413.6 1057.86 413.696 1057.7 413.828C1057.53 413.96 1057.38 414.128 1057.26 414.332C1057.14 414.524 1057.05 414.746 1056.98 414.998C1056.92 415.25 1056.89 415.532 1056.89 415.844C1056.89 416.348 1056.98 416.78 1057.16 417.14C1057.34 417.5 1057.58 417.776 1057.88 417.968C1058.18 418.16 1058.5 418.256 1058.85 418.256ZM1060.92 413.54L1060.5 413.342C1060.8 412.826 1061.15 412.442 1061.53 412.19C1061.93 411.926 1062.3 411.794 1062.66 411.794C1063.04 411.794 1063.32 411.872 1063.51 412.028C1063.71 412.172 1063.82 412.364 1063.82 412.604C1063.82 412.808 1063.74 412.982 1063.6 413.126C1063.47 413.27 1063.31 413.342 1063.11 413.342C1063.01 413.342 1062.89 413.318 1062.77 413.27C1062.66 413.21 1062.57 413.132 1062.5 413.036C1062.44 412.94 1062.36 412.88 1062.27 412.856C1062.18 412.82 1062.09 412.802 1062 412.802C1061.82 412.802 1061.63 412.862 1061.42 412.982C1061.23 413.09 1061.06 413.276 1060.92 413.54Z" fill="white"/>
<path d="M998.273 449.144C997.541 449.144 996.899 448.946 996.347 448.55C995.795 448.154 995.363 447.614 995.051 446.93C994.751 446.234 994.601 445.448 994.601 444.572C994.601 443.864 994.709 443.228 994.925 442.664C995.141 442.088 995.441 441.596 995.825 441.188C996.221 440.768 996.677 440.45 997.193 440.234C997.709 440.006 998.261 439.892 998.849 439.892C999.365 439.892 999.851 439.982 1000.31 440.162C1000.78 440.33 1001.18 440.57 1001.53 440.882C1001.88 441.182 1002.14 441.542 1002.31 441.962L1001.41 443.456C1001.41 443.012 1001.35 442.616 1001.23 442.268C1001.12 441.908 1000.96 441.596 1000.74 441.332C1000.54 441.068 1000.28 440.87 999.983 440.738C999.695 440.594 999.377 440.522 999.029 440.522C998.609 440.522 998.231 440.618 997.895 440.81C997.559 441.002 997.265 441.272 997.013 441.62C996.773 441.968 996.587 442.382 996.455 442.862C996.323 443.342 996.257 443.864 996.257 444.428C996.257 445.16 996.365 445.808 996.581 446.372C996.797 446.936 997.103 447.38 997.499 447.704C997.895 448.016 998.357 448.172 998.885 448.172C999.389 448.172 999.827 448.022 1000.2 447.722C1000.58 447.422 1000.88 447.044 1001.08 446.588C1001.3 446.12 1001.41 445.64 1001.41 445.148L1001.48 446.552C1001.37 447.044 1001.17 447.488 1000.88 447.884C1000.6 448.268 1000.23 448.574 999.785 448.802C999.341 449.03 998.837 449.144 998.273 449.144ZM999.587 452.366V451.916C1000.31 451.844 1000.79 451.718 1001.03 451.538C1001.28 451.37 1001.41 451.106 1001.41 450.746V441.548L1002.5 439.982H1002.95V450.746C1002.95 451.118 1003.06 451.388 1003.28 451.556C1003.49 451.724 1003.87 451.844 1004.41 451.916V452.366H999.587Z" fill="white"/>
<path d="M1009 449.144C1008.44 449.144 1007.94 449.024 1007.51 448.784C1007.08 448.532 1006.74 448.178 1006.5 447.722C1006.26 447.266 1006.14 446.732 1006.14 446.12V441.764C1006.14 441.512 1006.07 441.326 1005.94 441.206C1005.82 441.074 1005.62 441.008 1005.33 441.008H1004.7V440.558L1007.22 439.982H1007.69V446.066C1007.69 446.678 1007.86 447.17 1008.21 447.542C1008.56 447.902 1009.01 448.082 1009.56 448.082C1009.98 448.082 1010.37 447.974 1010.73 447.758C1011.1 447.542 1011.4 447.242 1011.63 446.858C1011.86 446.462 1011.97 446.012 1011.97 445.508V441.764C1011.97 441.512 1011.91 441.326 1011.77 441.206C1011.64 441.074 1011.43 441.008 1011.14 441.008H1010.53V440.558L1013.05 439.982H1013.52V447.254C1013.52 447.518 1013.58 447.71 1013.7 447.83C1013.82 447.938 1014.03 447.992 1014.33 447.992H1015V448.442L1012.42 449.054H1011.97V447.056C1011.68 447.716 1011.28 448.232 1010.77 448.604C1010.25 448.964 1009.66 449.144 1009 449.144Z" fill="white"/>
<path d="M1020.43 449.144C1019.59 449.144 1018.84 448.958 1018.19 448.586C1017.55 448.214 1017.04 447.698 1016.68 447.038C1016.33 446.366 1016.16 445.592 1016.16 444.716C1016.16 443.972 1016.27 443.306 1016.5 442.718C1016.73 442.118 1017.04 441.608 1017.44 441.188C1017.85 440.768 1018.31 440.45 1018.84 440.234C1019.38 440.006 1019.96 439.892 1020.57 439.892C1021.16 439.892 1021.67 439.988 1022.1 440.18C1022.54 440.372 1022.91 440.642 1023.2 440.99C1023.5 441.338 1023.71 441.74 1023.85 442.196C1023.98 442.652 1024.03 443.15 1024.01 443.69H1017.49V443.114H1021.67C1021.81 443.114 1021.93 443.09 1022.03 443.042C1022.12 442.982 1022.2 442.898 1022.24 442.79C1022.3 442.682 1022.33 442.556 1022.33 442.412C1022.33 441.872 1022.17 441.416 1021.83 441.044C1021.49 440.66 1021.03 440.468 1020.44 440.468C1020.05 440.468 1019.68 440.558 1019.35 440.738C1019.01 440.906 1018.72 441.152 1018.48 441.476C1018.24 441.8 1018.06 442.184 1017.92 442.628C1017.79 443.072 1017.73 443.564 1017.73 444.104C1017.73 444.896 1017.86 445.586 1018.12 446.174C1018.39 446.762 1018.76 447.218 1019.24 447.542C1019.73 447.854 1020.31 448.01 1020.98 448.01C1021.68 448.01 1022.26 447.824 1022.73 447.452C1023.2 447.08 1023.54 446.558 1023.76 445.886H1024.21C1023.98 446.942 1023.55 447.752 1022.91 448.316C1022.29 448.868 1021.46 449.144 1020.43 449.144Z" fill="white"/>
<path d="M1029.08 449.144C1028.64 449.144 1028.25 449.096 1027.91 449C1027.57 448.916 1027.26 448.844 1026.97 448.784C1026.69 448.724 1026.42 448.73 1026.14 448.802L1025.76 446.174H1026.21C1026.48 446.942 1026.84 447.536 1027.29 447.956C1027.75 448.376 1028.33 448.586 1029.02 448.586C1029.57 448.586 1030.04 448.448 1030.41 448.172C1030.78 447.884 1030.97 447.494 1030.97 447.002C1030.97 446.606 1030.85 446.294 1030.61 446.066C1030.37 445.826 1030.05 445.628 1029.65 445.472C1029.27 445.316 1028.86 445.166 1028.43 445.022C1028 444.878 1027.59 444.704 1027.2 444.5C1026.82 444.296 1026.5 444.032 1026.25 443.708C1026.01 443.384 1025.89 442.958 1025.89 442.43C1025.89 441.974 1025.98 441.59 1026.16 441.278C1026.34 440.954 1026.58 440.69 1026.88 440.486C1027.18 440.282 1027.51 440.132 1027.87 440.036C1028.24 439.94 1028.61 439.892 1028.97 439.892C1029.42 439.892 1029.81 439.94 1030.12 440.036C1030.44 440.12 1030.73 440.198 1030.97 440.27C1031.21 440.342 1031.45 440.354 1031.69 440.306L1031.85 442.646H1031.38C1031.28 442.166 1031.12 441.764 1030.88 441.44C1030.65 441.116 1030.37 440.87 1030.03 440.702C1029.69 440.534 1029.33 440.45 1028.93 440.45C1028.48 440.45 1028.07 440.576 1027.71 440.828C1027.35 441.068 1027.17 441.416 1027.17 441.872C1027.17 442.256 1027.29 442.562 1027.53 442.79C1027.78 443.006 1028.1 443.192 1028.48 443.348C1028.88 443.492 1029.29 443.636 1029.72 443.78C1030.17 443.912 1030.58 444.08 1030.97 444.284C1031.36 444.488 1031.68 444.758 1031.92 445.094C1032.17 445.43 1032.3 445.874 1032.3 446.426C1032.3 446.978 1032.16 447.458 1031.88 447.866C1031.61 448.262 1031.23 448.574 1030.75 448.802C1030.27 449.03 1029.71 449.144 1029.08 449.144Z" fill="white"/>
<path d="M1038.85 447.11H1039.3C1039.26 447.482 1039.14 447.824 1038.94 448.136C1038.75 448.436 1038.5 448.682 1038.19 448.874C1037.89 449.054 1037.55 449.144 1037.16 449.144C1036.72 449.144 1036.32 449.06 1035.97 448.892C1035.64 448.724 1035.37 448.472 1035.18 448.136C1035 447.788 1034.91 447.35 1034.91 446.822V440.828H1033.4V440.36C1033.74 440.324 1034.05 440.24 1034.34 440.108C1034.62 439.976 1034.88 439.814 1035.11 439.622C1035.35 439.43 1035.55 439.214 1035.7 438.974C1035.86 438.722 1035.97 438.446 1036.05 438.146H1036.5V440.036H1038.93V440.828H1036.48V446.714C1036.48 447.014 1036.52 447.272 1036.6 447.488C1036.7 447.704 1036.84 447.872 1037.02 447.992C1037.2 448.1 1037.41 448.154 1037.65 448.154C1037.94 448.154 1038.19 448.058 1038.4 447.866C1038.63 447.674 1038.78 447.422 1038.85 447.11Z" fill="white"/>
<path d="M1040.22 449V448.55C1040.77 448.478 1041.15 448.358 1041.37 448.19C1041.58 448.022 1041.69 447.752 1041.69 447.38V441.764C1041.69 441.5 1041.63 441.308 1041.49 441.188C1041.36 441.068 1041.15 441.008 1040.86 441.008H1040.25V440.558L1042.77 439.982H1043.22V447.38C1043.22 447.74 1043.33 448.01 1043.55 448.19C1043.77 448.358 1044.16 448.478 1044.7 448.55V449H1040.22ZM1042.47 438.398C1042.19 438.398 1041.95 438.302 1041.75 438.11C1041.55 437.906 1041.46 437.666 1041.46 437.39C1041.46 437.198 1041.5 437.03 1041.58 436.886C1041.68 436.73 1041.81 436.61 1041.96 436.526C1042.12 436.43 1042.29 436.382 1042.47 436.382C1042.75 436.382 1042.99 436.478 1043.19 436.67C1043.38 436.862 1043.47 437.102 1043.47 437.39C1043.47 437.57 1043.43 437.738 1043.33 437.894C1043.25 438.05 1043.13 438.176 1042.97 438.272C1042.83 438.356 1042.66 438.398 1042.47 438.398Z" fill="white"/>
<path d="M1050.29 449.144C1049.43 449.144 1048.66 448.946 1047.99 448.55C1047.33 448.154 1046.81 447.608 1046.42 446.912C1046.04 446.216 1045.85 445.412 1045.85 444.5C1045.85 443.828 1045.96 443.21 1046.17 442.646C1046.39 442.082 1046.69 441.596 1047.09 441.188C1047.49 440.768 1047.95 440.45 1048.49 440.234C1049.03 440.006 1049.63 439.892 1050.29 439.892C1051.17 439.892 1051.94 440.09 1052.6 440.486C1053.26 440.87 1053.77 441.41 1054.15 442.106C1054.52 442.79 1054.7 443.588 1054.7 444.5C1054.7 445.184 1054.6 445.814 1054.38 446.39C1054.16 446.954 1053.86 447.446 1053.46 447.866C1053.08 448.274 1052.62 448.592 1052.08 448.82C1051.54 449.036 1050.94 449.144 1050.29 449.144ZM1050.29 448.55C1050.62 448.55 1050.92 448.49 1051.19 448.37C1051.48 448.25 1051.73 448.076 1051.95 447.848C1052.17 447.608 1052.35 447.326 1052.51 447.002C1052.66 446.666 1052.78 446.288 1052.85 445.868C1052.93 445.448 1052.98 444.992 1052.98 444.5C1052.98 443.684 1052.87 442.976 1052.65 442.376C1052.44 441.776 1052.12 441.314 1051.72 440.99C1051.32 440.654 1050.85 440.486 1050.29 440.486C1049.96 440.486 1049.65 440.546 1049.36 440.666C1049.08 440.786 1048.83 440.966 1048.6 441.206C1048.39 441.434 1048.2 441.716 1048.04 442.052C1047.89 442.376 1047.77 442.748 1047.68 443.168C1047.61 443.576 1047.58 444.02 1047.58 444.5C1047.58 445.316 1047.69 446.03 1047.9 446.642C1048.13 447.254 1048.44 447.728 1048.84 448.064C1049.24 448.388 1049.73 448.55 1050.29 448.55Z" fill="white"/>
<path d="M1059.12 441.944C1059.38 441.284 1059.8 440.78 1060.36 440.432C1060.93 440.072 1061.55 439.892 1062.23 439.892C1062.81 439.892 1063.31 440.018 1063.73 440.27C1064.16 440.51 1064.49 440.858 1064.72 441.314C1064.96 441.77 1065.08 442.304 1065.08 442.916V447.434C1065.08 447.758 1065.18 448.01 1065.38 448.19C1065.59 448.358 1065.98 448.478 1066.55 448.55V449H1062.13V448.55C1062.67 448.478 1063.03 448.364 1063.22 448.208C1063.43 448.04 1063.53 447.782 1063.53 447.434V443.042C1063.53 442.382 1063.36 441.872 1063.03 441.512C1062.69 441.14 1062.19 440.954 1061.53 440.954C1061.17 440.954 1060.81 441.056 1060.43 441.26C1060.06 441.464 1059.75 441.752 1059.5 442.124C1059.25 442.484 1059.12 442.922 1059.12 443.438V447.434C1059.12 447.782 1059.22 448.04 1059.43 448.208C1059.64 448.364 1060.01 448.478 1060.54 448.55V449H1056.11V448.55C1056.69 448.478 1057.07 448.364 1057.27 448.208C1057.47 448.04 1057.57 447.782 1057.57 447.434V441.764C1057.57 441.512 1057.51 441.326 1057.37 441.206C1057.25 441.074 1057.05 441.008 1056.76 441.008H1056.15V440.558L1058.67 439.982H1059.12V441.944Z" fill="white"/>
<path d="M1071 449.144C1070.57 449.144 1070.18 449.096 1069.83 449C1069.5 448.916 1069.19 448.844 1068.9 448.784C1068.62 448.724 1068.35 448.73 1068.07 448.802L1067.69 446.174H1068.14C1068.41 446.942 1068.77 447.536 1069.22 447.956C1069.68 448.376 1070.25 448.586 1070.95 448.586C1071.5 448.586 1071.96 448.448 1072.34 448.172C1072.71 447.884 1072.89 447.494 1072.89 447.002C1072.89 446.606 1072.77 446.294 1072.53 446.066C1072.29 445.826 1071.98 445.628 1071.58 445.472C1071.2 445.316 1070.79 445.166 1070.36 445.022C1069.92 444.878 1069.52 444.704 1069.13 444.5C1068.75 444.296 1068.43 444.032 1068.18 443.708C1067.94 443.384 1067.82 442.958 1067.82 442.43C1067.82 441.974 1067.91 441.59 1068.09 441.278C1068.27 440.954 1068.51 440.69 1068.81 440.486C1069.11 440.282 1069.44 440.132 1069.8 440.036C1070.17 439.94 1070.54 439.892 1070.9 439.892C1071.35 439.892 1071.74 439.94 1072.05 440.036C1072.37 440.12 1072.65 440.198 1072.89 440.27C1073.13 440.342 1073.37 440.354 1073.61 440.306L1073.78 442.646H1073.31C1073.21 442.166 1073.04 441.764 1072.8 441.44C1072.58 441.116 1072.29 440.87 1071.96 440.702C1071.62 440.534 1071.26 440.45 1070.86 440.45C1070.4 440.45 1070 440.576 1069.64 440.828C1069.28 441.068 1069.1 441.416 1069.1 441.872C1069.1 442.256 1069.22 442.562 1069.46 442.79C1069.71 443.006 1070.03 443.192 1070.41 443.348C1070.81 443.492 1071.22 443.636 1071.65 443.78C1072.1 443.912 1072.51 444.08 1072.89 444.284C1073.29 444.488 1073.61 444.758 1073.85 445.094C1074.1 445.43 1074.23 445.874 1074.23 446.426C1074.23 446.978 1074.09 447.458 1073.81 447.866C1073.54 448.262 1073.16 448.574 1072.68 448.802C1072.2 449.03 1071.64 449.144 1071 449.144Z" fill="white"/>
<path d="M1077.25 449.126C1076.93 449.126 1076.65 449.018 1076.43 448.802C1076.21 448.574 1076.1 448.304 1076.1 447.992C1076.1 447.788 1076.15 447.602 1076.25 447.434C1076.35 447.254 1076.5 447.116 1076.68 447.02C1076.86 446.924 1077.05 446.876 1077.25 446.876C1077.58 446.876 1077.85 446.984 1078.06 447.2C1078.29 447.416 1078.41 447.68 1078.41 447.992C1078.41 448.196 1078.35 448.388 1078.24 448.568C1078.15 448.748 1078.01 448.886 1077.83 448.982C1077.66 449.078 1077.47 449.126 1077.25 449.126Z" fill="white"/>
<path d="M526.081 8.35377V11.2588C524.771 9.16447 522.738 7.88086 520.222 7.88086C514.845 7.88086 511.812 11.833 511.812 17.1364C511.812 22.4735 514.88 26.5608 520.291 26.5608C522.807 26.5608 524.806 25.2772 526.081 23.1829V26.0879H530.286V8.35377H526.081ZM521.118 23.0478C518.051 23.0478 516.293 20.2441 516.293 17.1364C516.293 14.0963 518.016 11.4277 521.187 11.4277C523.806 11.4277 526.046 13.2855 526.046 17.0688C526.046 20.7846 523.91 23.0478 521.118 23.0478Z" fill="#F8FFFB"/>
<path d="M533.906 8.35547V26.0896H538.387V8.35547H533.906Z" fill="#F8FFFB"/>
<path d="M546.644 12.7461V8.3548H542.164V26.0889H546.644V15.9551C546.644 13.3541 548.471 12.307 550.194 12.307C551.194 12.307 552.228 12.5772 552.779 12.7799V8.05078C549.85 8.05078 547.437 9.77353 546.644 12.7461Z" fill="#F8FFFB"/>
<path d="M553.875 13.7594C553.875 19.2655 557.735 23.1839 563.284 23.1839C568.867 23.1839 572.693 19.2655 572.693 13.7594C572.693 8.35475 568.867 4.50391 563.284 4.50391C557.735 4.50391 553.875 8.35475 553.875 13.7594ZM568.212 13.7594C568.212 17.2049 566.317 19.6708 563.284 19.6708C560.216 19.6708 558.355 17.2049 558.355 13.7594C558.355 10.4491 560.216 8.05073 563.284 8.05073C566.317 8.05073 568.212 10.4491 568.212 13.7594Z" fill="#F8FFFB"/>
<path d="M585.186 7.88086C582.567 7.88086 580.43 9.40093 579.293 11.833V8.35377H574.812V31.9993H579.293V22.9127C580.568 25.1083 582.946 26.5608 585.462 26.5608C590.356 26.5608 593.768 22.8113 593.768 17.4404C593.768 11.7993 590.218 7.88086 585.186 7.88086ZM584.394 23.2505C581.395 23.2505 579.293 20.7846 579.293 17.2715C579.293 13.6571 581.395 11.1237 584.394 11.1237C587.254 11.1237 589.288 13.7247 589.288 17.4066C589.288 20.8521 587.254 23.2505 584.394 23.2505Z" fill="#F8FFFB"/>
<path d="M595.203 19.9401C595.203 23.1491 598.098 26.5608 603.888 26.5608C609.713 26.5608 611.815 23.2167 611.815 20.6157C611.815 16.6297 607.024 15.9203 603.819 15.3123C601.648 14.9407 600.269 14.6367 600.269 13.4207C600.269 12.0357 601.82 11.1575 603.475 11.1575C605.715 11.1575 606.576 12.6775 606.645 14.2989H611.126C611.126 11.6641 609.23 7.88086 603.371 7.88086C598.305 7.88086 595.789 10.6845 595.789 13.6909C595.789 17.9809 600.649 18.42 603.854 19.028C605.715 19.3658 607.335 19.7712 607.335 21.0886C607.335 22.406 605.749 23.2842 604.061 23.2842C602.475 23.2842 599.684 22.406 599.684 19.9401H595.203Z" fill="#F8FFFB"/>
<path d="M536.222 6.19288C534.382 6.19288 533.062 4.89943 533.062 3.13563C533.062 1.37184 534.382 0 536.222 0C537.981 0 539.381 1.37184 539.381 3.13563C539.381 4.89943 537.981 6.19288 536.222 6.19288Z" fill="#F8FFFB"/>
</svg>
