<svg width="1060" height="254" viewBox="0 0 1060 254" fill="none" xmlns="http://www.w3.org/2000/svg">
<path d="M1059.31 246.533H855.037V7.04395H1059.31V68.894H940.629V105.213H1018.67V143.33H940.629V180.008H1059.31V246.533Z" fill="white"/>
<path d="M847.993 158.744C847.993 206.852 810.816 246.533 732.853 246.533C655.251 246.533 615.548 206.852 615.548 158.744V7.04395H701.812V154.881C701.812 173.141 714.084 184.378 736.102 184.378C758.48 184.378 770.391 173.141 770.391 154.881V7.04395H847.993V158.744Z" fill="white"/>
<path d="M608.504 246.533H404.234V7.04395H489.826V180.368H608.504V246.533Z" fill="white"/>
<path d="M397.19 246.533H363.093L352.444 212.525C336.074 237.592 305.879 253.577 269.136 253.577C195.651 253.577 154.179 209.255 154.179 156.215V97.7251C154.179 45.4113 206.565 0 280.778 0C335.346 0 378.637 27.6101 394.644 62.8492L337.529 92.639C328.434 76.291 308.789 64.3024 287.326 64.3024C261.497 64.3024 242.944 77.7441 242.944 98.4517V156.215C242.944 175.106 256.768 189.638 280.05 189.638C301.877 189.638 313.155 179.465 313.155 163.481V159.484H284.052V125.335H397.19V246.533Z" fill="white"/>
<path d="M171.053 173.827C165.018 173.827 160.753 172.267 158.256 169.146C157.007 167.793 156.123 166.18 155.603 164.308C155.082 162.435 154.822 160.51 154.822 158.533C154.822 156.037 155.134 153.54 155.759 151.043C156.383 148.442 157.163 146.049 158.1 143.864C159.556 140.431 161.481 136.997 163.874 133.564C166.267 130.027 169.128 127.061 172.457 124.668C175.89 122.276 179.636 121.079 183.693 121.079C186.399 121.079 188.531 121.755 190.092 123.108C191.653 124.46 192.433 126.541 192.433 129.35C192.433 132.576 191.444 135.853 189.468 139.182C187.491 142.407 184.994 145.112 181.977 147.297C178.96 149.482 175.838 150.574 172.613 150.574C169.7 150.574 167.151 149.534 164.966 147.453C164.342 149.118 163.822 150.991 163.406 153.071C162.99 155.048 162.781 157.077 162.781 159.158C162.781 162.383 163.406 165.192 164.654 167.585C166.007 169.978 168.4 171.174 171.833 171.174C174.33 171.174 176.723 170.55 179.012 169.302C181.405 167.949 183.537 166.336 185.41 164.464C187.491 162.279 189.468 159.938 191.34 157.441C193.213 154.944 195.034 152.031 196.803 148.702C197.011 148.39 197.167 148.234 197.271 148.234C197.687 148.234 197.895 148.702 197.895 149.638C197.895 150.262 197.687 150.939 197.271 151.667C195.71 154.476 193.889 157.337 191.809 160.25C189.728 163.059 187.595 165.504 185.41 167.585C183.433 169.458 181.301 170.966 179.012 172.111C176.723 173.255 174.07 173.827 171.053 173.827ZM165.747 145.112C166.475 146.153 167.307 146.933 168.244 147.453C169.284 147.869 170.324 148.077 171.365 148.077C173.862 148.077 176.463 147.141 179.168 145.268C181.873 143.292 184.058 141.003 185.722 138.402C186.451 137.257 187.075 135.749 187.595 133.876C188.219 132.003 188.531 130.235 188.531 128.57C188.531 127.113 188.219 125.865 187.595 124.825C187.075 123.68 185.982 123.108 184.318 123.108C182.445 123.108 180.208 124.252 177.607 126.541C175.11 128.83 172.717 131.795 170.428 135.437C169.7 136.685 168.868 138.142 167.931 139.806C167.099 141.471 166.371 143.24 165.747 145.112Z" fill="white"/>
<path d="M20.0952 186.309C18.8467 185.684 17.8583 184.8 17.13 183.656C16.5058 182.511 16.1937 181.367 16.1937 180.222C16.1937 179.078 16.5058 178.142 17.13 177.413C17.4422 176.997 17.8063 176.737 18.2225 176.633C18.7427 176.633 18.8987 176.893 18.6906 177.413C18.3785 178.974 19.1068 180.43 20.8755 181.783C22.6442 183.136 24.2568 184.02 25.7133 184.436C27.2739 184.748 28.8345 184.904 30.3951 184.904C33.6204 184.904 36.4815 184.436 38.9784 183.5C42.7239 182.251 46.4173 179.702 50.0587 175.853C53.8041 172.003 57.2895 167.634 60.5147 162.744C63.6359 157.958 66.7051 152.548 69.7223 146.513C72.8435 140.375 75.9646 134.081 79.0858 127.63C82.3111 121.076 85.7444 114.781 89.3858 108.747C93.0272 102.609 96.9287 97.1465 101.09 92.3606C105.356 87.4708 110.038 83.7253 115.136 81.1243L85.9525 75.9743C83.6636 75.5582 81.0626 75.2981 78.1495 75.194C75.2364 74.986 72.1672 74.8819 68.9419 74.8819C63.2198 74.8819 57.4976 75.2461 51.7754 75.9743C46.0532 76.5986 41.4754 77.691 38.0421 79.2516C32.0078 81.9566 26.8058 85.7021 22.4361 90.4879C18.0664 95.1697 15.8816 101.048 15.8816 108.123C15.8816 111.036 16.3497 113.533 17.2861 115.614C18.3265 117.59 19.627 119.099 21.1876 120.139C22.9563 121.18 24.777 121.7 26.6497 121.7C28.9386 121.7 31.2795 121.024 33.6724 119.671C36.0653 118.215 38.1461 116.134 39.9148 113.429C40.7471 112.076 41.5274 110.099 42.2557 107.498C43.088 104.897 43.5042 102.244 43.5042 99.5394C43.5042 98.0828 43.3481 96.6783 43.036 95.3258C42.8279 93.9733 42.3597 92.7768 41.6315 91.7364C41.4234 91.3202 41.3193 91.1122 41.3193 91.1122C41.3193 90.8 41.4754 90.644 41.7875 90.644C42.2037 90.644 42.5678 90.9041 42.8799 91.4243C43.4001 92.1526 43.9203 93.297 44.4405 94.8576C45.0648 96.3142 45.4809 97.6667 45.689 98.9152C45.7931 99.5394 45.8451 100.164 45.8451 100.788C45.9491 101.412 46.0011 102.036 46.0011 102.661C46.0011 104.741 45.741 106.874 45.2208 109.059C44.7006 111.14 43.8683 113.065 42.7239 114.833C41.0592 117.642 38.8224 119.775 36.0133 121.232C33.2042 122.584 30.2911 123.261 27.2739 123.261C24.881 123.261 22.5921 122.792 20.4073 121.856C17.1821 120.295 14.7891 118.059 13.2285 115.145C11.772 112.232 11.0437 109.059 11.0437 105.626C11.0437 103.337 11.3038 101.048 11.824 98.7591C12.4482 96.3662 13.2806 94.0773 14.321 91.8925C16.0896 88.043 18.5346 84.6617 21.6558 81.7486C24.777 78.8354 27.8982 76.5466 31.0194 74.8819C36.2214 72.0728 41.4234 70.0961 46.6254 68.9516C51.9314 67.8072 57.2895 67.235 62.6996 67.235C67.1733 67.235 71.699 67.5471 76.2768 68.1713C80.8545 68.7956 85.4843 69.6799 90.1661 70.8244C98.3853 72.8011 106.708 74.6738 115.136 76.4425C123.563 78.1072 132.146 79.4077 140.886 80.344C144.527 75.9743 148.376 72.0208 152.434 68.4835C156.596 64.8421 160.965 61.8249 165.543 59.432C168.248 58.0795 171.109 56.987 174.126 56.1547C177.144 55.3224 180.057 54.9062 182.866 54.9062C187.548 54.9062 191.137 56.2067 193.634 58.8077C196.131 61.4087 197.379 64.3739 197.379 67.7032C197.379 69.992 196.755 72.2809 195.507 74.5698C194.258 76.8587 192.281 78.8354 189.576 80.5001C186.039 82.5809 182.189 83.9854 178.028 84.7137C173.866 85.442 169.549 85.8061 165.075 85.8061C161.433 85.8061 157.74 85.6501 153.995 85.3379C150.249 85.0258 146.608 84.7657 143.07 84.5576C139.845 89.3435 136.828 94.3374 134.019 99.5394C131.314 104.637 128.869 109.579 126.684 114.365C124.499 119.047 122.575 123.261 120.91 127.006C119.661 130.023 118.569 132.572 117.633 134.653C116.8 136.63 116.02 138.45 115.292 140.115C114.668 141.78 113.939 143.652 113.107 145.733C114.772 143.236 116.644 140.531 118.725 137.618C120.91 134.601 122.835 132.26 124.499 130.595C126.892 128.202 129.285 126.174 131.678 124.509C134.071 122.844 136.412 121.908 138.701 121.7C142.238 121.388 144.787 121.856 146.348 123.104C147.908 124.249 148.689 125.966 148.689 128.254C148.689 130.543 148.064 133.092 146.816 135.901C145.463 139.127 143.851 142.352 141.978 145.577C140.105 148.802 138.389 151.924 136.828 154.941C136.412 155.773 135.632 157.386 134.487 159.779C133.447 162.067 132.77 164.252 132.458 166.333C132.458 166.437 132.406 166.593 132.302 166.801C132.302 167.009 132.302 167.217 132.302 167.425C132.302 168.57 132.614 169.454 133.239 170.078C133.863 170.599 134.591 170.859 135.423 170.859C137.192 170.859 138.857 170.287 140.417 169.142C141.978 167.998 143.331 166.749 144.475 165.397C146.868 162.796 149.053 159.935 151.029 156.813C153.006 153.692 154.983 150.363 156.96 146.826C157.272 146.409 157.584 146.201 157.896 146.201C158.312 146.201 158.52 146.513 158.52 147.138C158.52 147.658 158.416 148.074 158.208 148.386C156.336 151.819 154.307 155.253 152.122 158.686C150.041 162.119 147.492 165.345 144.475 168.362C143.122 169.714 141.562 170.963 139.793 172.107C138.024 173.148 136.048 173.668 133.863 173.668C130.326 173.668 127.829 172.679 126.372 170.703C125.019 168.622 124.343 166.333 124.343 163.836C124.343 161.859 124.707 159.883 125.436 157.906C127.204 153.328 129.649 148.958 132.77 144.797C135.892 140.635 138.493 136.318 140.573 131.844C141.302 130.491 141.666 129.243 141.666 128.098C141.666 126.85 141.302 125.914 140.573 125.289C139.845 124.665 139.065 124.353 138.233 124.353C136.256 124.353 134.071 125.237 131.678 127.006C129.389 128.671 127.152 130.803 124.967 133.404C122.991 135.693 120.962 138.346 118.881 141.363C116.8 144.277 114.824 147.398 112.951 150.727C111.182 153.744 109.361 156.917 107.489 160.247C105.616 163.472 104.107 166.229 102.963 168.518C102.131 170.287 101.246 171.431 100.31 171.951C99.3736 172.471 98.4893 172.732 97.657 172.732C97.2408 172.732 96.8247 172.679 96.4085 172.575C95.9924 172.575 95.6282 172.575 95.3161 172.575C96.2524 169.038 97.9691 164.148 100.466 157.906C102.963 151.559 105.98 144.121 109.518 135.589C112.951 127.266 117.008 118.579 121.69 109.527C126.476 100.372 131.886 91.8925 137.92 84.0895C136.152 83.7773 134.019 83.4652 131.522 83.1531C129.129 82.841 126.84 82.5289 124.655 82.2167C122.471 81.9046 120.806 81.6965 119.661 81.5925C116.228 83.1531 112.639 86.1182 108.893 90.4879C104.316 95.898 100.362 101.672 97.0327 107.811C93.7035 113.845 90.6343 120.087 87.8252 126.538C85.0161 132.884 82.103 139.179 79.0858 145.421C76.1727 151.663 72.6874 157.646 68.6298 163.368C64.9884 168.466 60.8788 173.044 56.3011 177.101C51.7233 181.159 46.5213 184.228 40.6951 186.309C37.4699 187.453 33.6204 188.025 29.1467 188.025C27.378 188.025 25.7133 187.869 24.1527 187.557C22.5921 187.349 21.2396 186.933 20.0952 186.309ZM145.723 80.8122C148.533 81.0203 151.81 81.3324 155.555 81.7486C159.405 82.0607 163.254 82.2167 167.104 82.2167C171.057 82.2167 174.959 81.9566 178.808 81.4364C182.658 80.8122 185.935 79.6678 188.64 78.0031C190.617 76.7546 192.021 75.3501 192.854 73.7895C193.79 72.2289 194.258 70.6163 194.258 68.9516C194.258 66.0385 193.01 63.4375 190.513 61.1486C188.016 58.7557 184.738 57.5593 180.681 57.5593C178.704 57.5593 176.571 57.7673 174.282 58.1835C172.098 58.5997 169.809 59.38 167.416 60.5244C163.566 62.2931 159.821 64.9981 156.179 68.6395C152.538 72.1769 149.053 76.2344 145.723 80.8122Z" fill="white"/>
<path d="M196.803 148.689C195.035 152.018 193.214 154.932 191.342 157.429C189.469 159.925 187.489 162.267 185.409 164.452C183.536 166.324 181.404 167.935 179.011 169.287C176.723 170.536 174.33 171.162 171.834 171.162C168.4 171.162 166.008 169.964 164.656 167.571C163.563 165.478 162.949 163.066 162.812 160.335L162.781 159.145C162.781 157.064 162.991 155.034 163.407 153.057C163.823 150.977 164.341 149.105 164.965 147.441C167.15 149.522 169.701 150.56 172.614 150.56C175.839 150.56 178.959 149.467 181.976 147.282C184.993 145.098 187.49 142.394 189.467 139.169C191.444 135.84 192.432 132.561 192.432 129.336C192.432 126.527 191.653 124.446 190.093 123.094C188.532 121.741 186.397 121.064 183.692 121.064C179.635 121.065 175.889 122.262 172.456 124.655C169.128 127.048 166.267 130.013 163.875 133.549C161.482 136.982 159.557 140.417 158.1 143.85L157.426 145.528C157.274 145.933 157.135 146.346 156.993 146.763C156.979 146.78 156.965 146.797 156.951 146.815C154.975 150.352 152.999 153.682 151.022 156.803C150.036 158.359 148.998 159.85 147.909 161.277C147.822 160.364 147.779 159.444 147.779 158.519C147.779 155.429 148.165 152.36 148.924 149.322C149.627 146.405 150.521 143.649 151.624 141.074C153.279 137.178 155.431 133.356 158.038 129.604L159.132 128.06C161.747 124.525 164.818 121.471 168.346 118.935L168.387 118.904L168.429 118.877L169.295 118.296C173.65 115.486 178.495 114.021 183.692 114.021C187.316 114.021 191.016 114.885 194.096 117.274L194.705 117.773L195.352 118.371C198.451 121.44 199.475 125.511 199.476 129.336C199.476 133.492 198.343 137.478 196.373 141.236C196.657 141.2 196.957 141.178 197.271 141.178C198.791 141.178 200.389 141.638 201.77 142.674C203.064 143.644 203.785 144.829 204.177 145.711C204.887 147.309 204.937 148.853 204.937 149.625C204.937 151.825 204.209 153.708 203.386 155.148L203.383 155.145C201.689 158.186 199.74 161.251 197.539 164.331L197.47 164.428C195.186 167.512 192.788 170.272 190.268 172.672L190.255 172.686C187.807 175.004 185.109 176.925 182.162 178.398C178.735 180.112 174.968 180.857 171.053 180.857C164.159 180.857 157.488 179.112 153.079 173.907C151.286 171.964 149.98 169.717 149.144 167.251L148.817 166.178C148.623 165.479 148.455 164.775 148.315 164.067C149.717 162.329 150.989 160.537 152.116 158.677C153.191 156.987 154.225 155.294 155.225 153.604C154.956 155.242 154.823 156.881 154.822 158.519C154.822 160.496 155.083 162.421 155.603 164.294C156.123 166.166 157.006 167.78 158.255 169.133C160.752 172.254 165.019 173.814 171.053 173.814C174.07 173.814 176.723 173.242 179.011 172.097C181.3 170.953 183.432 169.444 185.409 167.571C187.593 165.49 189.728 163.044 191.809 160.235C193.89 157.323 195.711 154.462 197.271 151.654C197.583 151.108 197.778 150.59 197.856 150.103L197.894 149.625C197.894 148.688 197.687 148.222 197.271 148.221C197.167 148.221 197.011 148.377 196.803 148.689ZM184.318 123.094C185.982 123.094 187.076 123.666 187.596 124.81C188.22 125.85 188.531 127.099 188.532 128.555C188.532 130.22 188.22 131.99 187.596 133.862C187.076 135.735 186.45 137.244 185.722 138.388C184.057 140.989 181.871 143.277 179.166 145.253C176.462 147.126 173.862 148.063 171.366 148.063C170.325 148.063 169.283 147.857 168.243 147.441C167.307 146.921 166.474 146.139 165.746 145.099C166.37 143.226 167.098 141.456 167.93 139.792C168.866 138.128 169.699 136.672 170.427 135.424C172.716 131.782 175.111 128.815 177.608 126.526C180.209 124.238 182.446 123.094 184.318 123.094ZM169.846 159.981C169.93 161.681 170.274 162.985 170.747 164.001C170.915 164.047 171.254 164.118 171.834 164.118C173.086 164.118 174.31 163.818 175.596 163.124C177.416 162.09 179.001 160.881 180.384 159.506C182.198 157.595 183.933 155.544 185.587 153.35C181.692 156.041 177.335 157.604 172.614 157.604C171.689 157.604 170.782 157.536 169.897 157.405C169.855 157.976 169.825 158.556 169.825 159.145L169.846 159.981Z" fill="#586605"/>
<path d="M165.529 147.933C165.443 149.066 165.147 150.417 164.387 151.757L164.391 151.761C164.032 152.419 163.66 153.074 163.29 153.732C163.331 153.51 163.368 153.288 163.414 153.068C163.83 150.988 164.348 149.115 164.972 147.451C165.152 147.623 165.344 147.776 165.529 147.933ZM34.5002 89.2643C31.9871 90.984 29.7047 92.9757 27.6387 95.2384L27.5836 95.2934C24.5633 98.5297 22.9235 102.629 22.9233 108.122C22.9233 110.14 23.2286 111.541 23.6146 112.497C24.1109 113.396 24.5807 113.886 24.9525 114.169C25.6518 114.546 26.1905 114.657 26.6481 114.657C27.4816 114.657 28.6066 114.42 30.1047 113.591C31.4175 112.771 32.7168 111.53 33.9499 109.67C34.2859 109.099 34.8421 107.856 35.4735 105.601L35.5079 105.474L35.5457 105.354L35.7624 104.635C36.2304 102.957 36.4605 101.264 36.4606 99.5411L36.44 98.8429C36.4152 98.3869 36.367 97.9496 36.2955 97.529L36.1717 96.9099L36.1132 96.6554L36.0754 96.3975C36.047 96.2129 36.0073 96.0794 35.9688 95.9813L35.8622 95.775L35.5629 95.3519L35.3325 94.8876C35.1242 94.4711 35.3902 95.003 35.1949 94.6125C35.1273 94.4772 35.2048 94.6356 35.1399 94.5058C35.1097 94.4455 35.1223 94.474 35.0952 94.4199C35.0434 94.3162 35.1118 94.4462 35.0642 94.3511C35.0574 94.3375 35.0563 94.3352 35.0505 94.3236C35.0419 94.3064 35.0511 94.3282 35.0436 94.3132C35.0407 94.3073 35.0431 94.3121 35.0402 94.3064L35.0367 94.3029L35.023 94.272L34.2766 92.7758V91.1112C34.2767 90.6209 34.326 89.978 34.5002 89.2643ZM180.68 57.5603C184.737 57.5603 188.016 58.7549 190.513 61.1475C193.01 63.4363 194.258 66.0385 194.258 68.9514C194.258 70.616 193.791 72.23 192.855 73.7906C192.023 75.3512 190.615 76.7553 188.638 78.0038C185.934 79.668 182.657 80.8121 178.809 81.4363C174.959 81.9564 171.058 82.217 167.104 82.217C163.255 82.217 159.405 82.0614 155.555 81.7493C151.81 81.3331 148.531 81.0218 145.722 80.8138C149.051 76.2361 152.536 72.1758 156.178 68.6385C159.819 64.9975 163.565 62.2937 167.414 60.525C169.807 59.3806 172.098 58.599 174.282 58.1828C176.571 57.7668 178.703 57.5604 180.68 57.5603ZM180.68 64.6041C179.203 64.6042 177.511 64.7551 175.586 65.1028C174.101 65.387 172.396 65.9491 170.454 66.8775L170.406 66.9016L170.355 66.9257C167.408 68.2797 164.335 70.4483 161.161 73.6221L161.086 73.6909C160.657 74.1077 160.229 74.5327 159.803 74.9669C162.237 75.0981 164.671 75.1732 167.104 75.1732C170.713 75.1732 174.265 74.9363 177.763 74.4682C180.832 73.9618 183.15 73.0945 184.893 72.0331C186.143 71.2402 186.535 70.6648 186.637 70.4751L186.723 70.3169L186.812 70.1655C187.155 69.5942 187.214 69.2218 187.214 68.9514L187.17 68.4527C187.063 67.9121 186.728 67.2352 185.753 66.341L185.694 66.2894L185.639 66.2344C184.678 65.3134 183.258 64.6041 180.68 64.6041ZM156.958 146.825C154.982 150.363 153.006 153.692 151.029 156.813C149.052 159.934 146.866 162.797 144.474 165.398C143.329 166.75 141.978 167.999 140.419 169.143C138.858 170.287 137.193 170.859 135.425 170.859C134.592 170.859 133.861 170.599 133.237 170.079C132.614 169.455 132.302 168.57 132.302 167.427V166.801C132.406 166.593 132.456 166.437 132.456 166.333C132.769 164.252 133.445 162.067 134.486 159.778L136.828 154.942C138.388 151.925 140.104 148.802 141.977 145.577C143.849 142.352 145.463 139.127 146.816 135.902C148.064 133.093 148.686 130.545 148.687 128.256C148.687 125.967 147.908 124.248 146.348 123.104C144.787 121.856 142.236 121.389 138.699 121.701C136.411 121.909 134.071 122.847 131.679 124.511C129.286 126.175 126.891 128.202 124.498 130.595C122.833 132.26 120.908 134.601 118.723 137.618C116.642 140.531 114.771 143.238 113.107 145.735C113.939 143.654 114.666 141.78 115.291 140.115C116.019 138.45 116.8 136.63 117.633 134.653C118.569 132.573 119.662 130.024 120.91 127.008C122.575 123.262 124.5 119.046 126.685 114.365C128.87 109.58 131.313 104.638 134.018 99.5411C136.827 94.3394 139.845 89.3448 143.07 84.5592C146.607 84.7673 150.249 85.0244 153.994 85.3365C157.739 85.6486 161.434 85.8077 165.075 85.8077C169.549 85.8077 173.866 85.4422 178.028 84.714C182.189 83.9857 186.04 82.5815 189.577 80.5008C192.282 78.8364 194.258 76.8597 195.507 74.5713C196.755 72.2825 197.378 69.9918 197.378 67.703C197.378 64.3739 196.129 61.4097 193.632 58.8088C191.136 56.2083 187.548 54.9054 182.867 54.9051C180.058 54.9051 177.144 55.3216 174.128 56.1536C171.111 56.9859 168.248 58.0789 165.543 59.4313C160.965 61.8242 156.594 64.8423 152.432 68.4837C148.375 72.0205 144.527 75.9738 140.886 80.3426C132.147 79.4062 123.563 78.107 115.136 76.4424C106.709 74.6737 98.3851 72.8026 90.1661 70.8259C85.4848 69.6816 80.8553 68.7949 76.278 68.1707C72.272 67.6244 68.3042 67.3172 64.3778 67.249L62.6994 67.2352C57.2894 67.2352 51.9299 67.807 46.6239 68.9514C41.4225 70.0958 36.2209 72.0723 31.0196 74.8809L29.8502 75.5344C27.1185 77.1276 24.3858 79.1997 21.6542 81.7493C18.5337 84.662 16.09 88.0432 14.3215 91.8919C13.2811 94.0768 12.4488 96.3674 11.8245 98.7603C11.3045 101.049 11.0439 103.337 11.0438 105.625C11.0438 109.058 11.7713 112.232 13.2278 115.145C14.7882 118.058 17.1811 120.295 20.4057 121.856C22.5906 122.792 24.8812 123.262 27.2741 123.262C30.2911 123.262 33.2046 122.585 36.0135 121.233C38.8226 119.776 41.059 117.641 42.7237 114.832C43.8678 113.064 44.7005 111.138 45.2206 109.058C45.7406 106.873 46.0014 104.741 46.0014 102.661C46.0014 102.037 45.9471 101.413 45.8432 100.79C45.8432 100.165 45.7924 99.5393 45.6884 98.9151C45.4803 97.6667 45.0641 96.3131 44.4399 94.8567C43.9198 93.2967 43.3985 92.1523 42.8784 91.4242C42.5667 90.9049 42.2037 90.6439 41.7882 90.6434C41.4765 90.6434 41.3208 90.7999 41.3204 91.1112C41.3204 91.1112 41.4219 91.321 41.63 91.7372C42.358 92.7772 42.8285 93.9725 43.0367 95.3244C43.3488 96.6769 43.5044 98.0845 43.5044 99.5411C43.5043 102.246 43.0881 104.899 42.2559 107.5C41.5277 110.1 40.746 112.077 39.9137 113.429C38.1451 116.134 36.0641 118.215 33.6713 119.672C31.2786 121.024 28.9368 121.701 26.6481 121.701C24.7759 121.701 22.9547 121.18 21.1864 120.139C19.6261 119.099 18.3265 117.59 17.2862 115.613C16.35 113.532 15.8795 111.035 15.8795 108.122C15.8797 101.048 18.0658 95.1702 22.4349 90.4887C26.5318 86.0017 31.3614 82.4296 36.9215 79.7716L38.0427 79.2523C41.0465 77.887 44.9258 76.8777 49.6815 76.2291L51.7761 75.9746C57.4979 75.2464 63.22 74.8809 68.9419 74.8809L71.3322 74.9015C73.6922 74.9405 75.9645 75.0378 78.149 75.1939C81.0621 75.2979 83.664 75.5584 85.9529 75.9746L115.136 81.1233C110.038 83.7242 105.355 87.47 101.09 92.3597C96.9279 97.1455 93.0268 102.61 89.3854 108.748C85.7442 114.782 82.3096 121.076 79.0845 127.63C75.9636 134.08 72.8435 140.374 69.7226 146.512C66.7057 152.546 63.6363 157.957 60.5155 162.743C57.2904 167.632 53.8051 172.004 50.0598 175.853C46.4185 179.703 42.7235 182.251 38.9782 183.499C36.4813 184.435 33.6188 184.906 30.3936 184.906C28.8334 184.906 27.2728 184.747 25.7126 184.435C24.2563 184.018 22.6418 183.135 20.8735 181.783C19.3263 180.599 18.5747 179.336 18.6207 177.993L18.6895 177.415C18.8976 176.895 18.7419 176.634 18.2217 176.634C17.8058 176.738 17.44 176.999 17.128 177.415C16.5049 178.143 16.1927 179.078 16.1925 180.221C16.1925 181.366 16.5038 182.513 17.128 183.657C17.8563 184.802 18.8478 185.685 20.0962 186.309C21.2401 186.933 22.5916 187.349 24.1512 187.558C25.7114 187.87 27.3769 188.025 29.1451 188.025C33.6187 188.025 37.4693 187.453 40.6945 186.309C46.5207 184.228 51.7245 181.159 56.3022 177.102C60.3074 173.552 63.9544 169.603 67.2428 165.257L68.6289 163.369C72.6862 157.647 76.1715 151.664 79.0845 145.422C82.1017 139.18 85.0148 132.883 87.8239 126.537C90.6329 120.086 93.7019 113.843 97.0311 107.809C100.36 101.671 104.316 95.8985 108.893 90.4887C112.639 86.119 116.229 83.1517 119.662 81.5911C120.806 81.6951 122.472 81.905 124.656 82.217C126.84 82.5291 129.129 82.8405 131.521 83.1525C134.018 83.4646 136.153 83.7759 137.922 84.088C131.887 91.891 126.477 100.373 121.691 109.529C117.01 118.58 112.949 127.266 109.516 135.589C105.979 144.12 102.964 151.56 100.467 157.907C97.9701 164.149 96.2512 169.038 95.3148 172.576H96.4085C96.8246 172.68 97.241 172.73 97.657 172.73C98.4888 172.73 99.3731 172.473 100.309 171.953C101.245 171.433 102.132 170.286 102.964 168.517C104.108 166.229 105.614 163.47 107.487 160.246C108.423 158.581 109.348 156.956 110.259 155.369L112.952 150.729C114.825 147.4 116.8 144.277 118.881 141.364C120.962 138.347 122.989 135.694 124.965 133.405C127.15 130.804 129.39 128.672 131.679 127.008C134.071 125.239 136.255 124.353 138.231 124.353C139.063 124.353 139.845 124.664 140.573 125.288C141.301 125.912 141.667 126.85 141.667 128.098C141.667 129.242 141.301 130.491 140.573 131.843C138.493 136.317 135.89 140.635 132.769 144.796C129.648 148.958 127.205 153.329 125.437 157.907L125.179 158.646C124.621 160.376 124.343 162.106 124.343 163.836L124.374 164.762C124.522 166.901 125.188 168.884 126.372 170.705C127.829 172.681 130.327 173.669 133.863 173.669C136.048 173.669 138.024 173.148 139.793 172.108C141.561 170.964 143.121 169.715 144.474 168.363C147.491 165.345 150.042 162.121 152.123 158.688C153.198 156.998 154.232 155.305 155.232 153.615C154.963 155.253 154.829 156.891 154.829 158.529C154.829 160.506 155.09 162.431 155.61 164.304C155.73 164.735 155.871 165.152 156.03 165.556C154.097 168.295 151.904 170.892 149.454 173.343C147.718 175.079 145.763 176.634 143.621 178.02L143.493 178.103L143.363 178.178C140.441 179.897 137.219 180.713 133.863 180.713C129.13 180.713 124.001 179.359 120.701 174.88L120.577 174.715L120.467 174.543C118.367 171.312 117.299 167.687 117.299 163.836C117.299 160.976 117.83 158.177 118.826 155.472L118.843 155.42L118.864 155.369C119.248 154.376 119.668 153.397 120.106 152.425C119.765 153.003 119.425 153.588 119.091 154.182L119.06 154.234L119.026 154.289C117.28 157.266 115.48 160.403 113.626 163.699L113.605 163.743L113.581 163.785C111.752 166.935 110.318 169.554 109.261 171.668C108.244 173.793 106.581 176.526 103.731 178.11C102.041 179.048 99.9817 179.774 97.657 179.774C97.0149 179.774 96.3814 179.718 95.7585 179.62H86.1662L88.5049 170.773C89.5513 166.82 91.3943 161.617 93.9253 155.29C96.4383 148.903 99.4657 141.439 103.005 132.903C106.525 124.37 110.672 115.5 115.435 106.293L115.449 106.265C118.518 100.394 121.837 94.7796 125.413 89.4259C124.822 89.3435 124.236 89.271 123.659 89.1886C122.655 89.0452 121.788 88.931 121.052 88.8378C119.163 90.0211 116.881 91.9943 114.242 95.0733C109.983 100.111 106.314 105.475 103.225 111.17L103.212 111.19L103.201 111.214C99.9803 117.052 97.0063 123.097 94.283 129.35L94.2658 129.388C91.438 135.777 88.501 142.112 85.4645 148.397L85.468 148.401C82.3726 155.033 78.6738 161.383 74.376 167.444L74.3623 167.461C70.4207 172.98 65.9561 177.954 60.9729 182.371C55.7137 187.033 49.7282 190.564 43.0642 192.944L43.0504 192.947C38.8767 194.428 34.1884 195.069 29.1451 195.069C27.0879 195.069 25.0781 194.888 23.1262 194.522C20.9962 194.229 18.8967 193.632 16.9457 192.607C16.9135 192.59 16.8815 192.575 16.8494 192.558C16.8074 192.536 16.7641 192.516 16.7222 192.493C14.7575 191.47 13.0684 190.05 11.7489 188.259L11.1882 187.437L11.061 187.238L10.9475 187.028C9.97699 185.249 9.32634 183.271 9.17967 181.143L9.14871 180.221L9.18311 179.282C9.34554 177.077 10.1023 174.791 11.7833 172.83C12.8521 171.537 14.4083 170.327 16.5124 169.8L17.355 169.59H18.2217C19.156 169.59 22.7076 169.767 24.7703 173.205C25.4969 174.417 25.7652 175.611 25.8124 176.658C26.5965 177.202 27.1391 177.468 27.4564 177.59C28.4472 177.767 29.4239 177.862 30.3936 177.862C32.946 177.862 34.9455 177.491 36.5053 176.906L36.6257 176.858L36.7495 176.816C39.0831 176.039 41.8362 174.294 44.9421 171.011L45.0108 170.942C48.4181 167.44 51.6264 163.425 54.6273 158.877C57.574 154.356 60.5082 149.192 63.4217 143.365L63.4423 143.321C66.5417 137.225 69.644 130.973 72.7458 124.562L72.7664 124.521C76.0772 117.793 79.6072 111.322 83.3562 105.109C87.1797 98.6694 91.3147 92.8709 95.7757 87.7406L95.7826 87.7303L96.6837 86.7157C97.1343 86.2204 97.5916 85.7364 98.0526 85.2609L84.7285 82.9118L84.6907 82.9049C83.2772 82.648 81.656 82.4523 79.8137 82.3305L77.8979 82.2342L77.7707 82.2308L77.6469 82.2205C74.9171 82.0255 72.0164 81.9247 68.9419 81.9247C63.5194 81.9247 58.093 82.2723 52.6634 82.9634L52.5396 82.9771C49.5679 83.3013 47.084 83.7528 45.0349 84.2806C46.7388 85.0423 47.9067 86.3065 48.6119 87.3313C49.6955 88.8488 50.4537 90.6843 51.0332 92.3838C51.7647 94.14 52.3325 95.9364 52.6359 97.756C52.7701 98.5615 52.8465 99.3749 52.8732 100.191C52.9841 101.009 53.0452 101.833 53.0452 102.661L53.028 103.665C52.9552 106.004 52.6295 108.349 52.0718 110.691L52.065 110.729L52.0546 110.767C51.3726 113.495 50.2758 116.054 48.7804 118.42L48.7838 118.423C46.4703 122.327 43.2738 125.403 39.2568 127.486L39.1639 127.534L39.0676 127.579C35.3384 129.374 31.3845 130.306 27.2741 130.306C24.351 130.306 21.5092 129.8 18.7892 128.793L17.6336 128.332L17.4857 128.267L17.3378 128.198C12.8928 126.047 9.34265 122.807 7.01975 118.471L6.9716 118.385L6.92689 118.296C4.95492 114.352 4 110.091 4 105.625C4.00006 102.798 4.32261 99.9865 4.95614 97.1989L4.98022 97.0888L5.00773 96.9822C5.73372 94.1992 6.70755 91.5204 7.9243 88.9513C10.0786 84.2628 13.0639 80.1338 16.8494 76.6006C20.33 73.352 23.9434 70.6717 27.704 68.666C33.4092 65.5886 39.2143 63.37 45.1106 62.0727L45.1415 62.0659C50.9334 60.8168 56.789 60.1914 62.6994 60.1914C67.5013 60.1914 72.3447 60.5265 77.2273 61.1923C82.0484 61.8497 86.9104 62.778 91.8101 63.9747C99.9408 65.9302 108.179 67.7852 116.518 69.5361C123.557 70.9259 130.712 72.0537 137.983 72.9239C141.107 69.4134 144.381 66.1599 147.806 63.1733C152.355 59.1947 157.178 55.8554 162.279 53.1889L162.338 53.1614L162.393 53.1304C165.52 51.5667 168.811 50.3139 172.253 49.3643C175.812 48.3827 179.358 47.8613 182.867 47.8613C188.49 47.8616 193.815 49.3584 197.911 53.1407L198.716 53.9283C202.357 57.7216 204.421 62.3965 204.421 67.703C204.421 71.3254 203.424 74.7643 201.691 77.9419C199.739 81.5204 196.791 84.3309 193.268 86.499L193.209 86.5369L193.147 86.5712C188.861 89.0925 184.21 90.7818 179.242 91.6512C174.657 92.4536 169.932 92.8515 165.075 92.8515C161.232 92.8515 157.343 92.6841 153.409 92.3562C151.133 92.1666 148.897 92.0045 146.702 91.8541C144.427 95.412 142.266 99.0912 140.216 102.888C137.909 107.236 135.808 111.457 133.901 115.548C135.243 115.11 136.631 114.815 138.063 114.685H138.08L139.638 114.585C143.255 114.445 147.28 114.969 150.51 117.426C150.538 117.446 150.567 117.47 150.596 117.491C150.645 117.53 150.698 117.565 150.747 117.605C154.291 120.325 155.731 124.275 155.731 128.256L155.689 129.584C155.488 132.64 154.605 135.675 153.309 138.622C152.829 139.766 152.312 140.906 151.775 142.045C152.782 140.894 154.792 139.159 157.897 139.159C158.654 139.159 159.435 139.28 160.202 139.52C159.421 140.967 158.721 142.413 158.107 143.861C157.708 144.793 157.342 145.766 157 146.774C156.986 146.791 156.972 146.807 156.958 146.825Z" fill="#586605"/>
</svg>
