<svg width="1041" height="389" viewBox="0 0 1041 389" fill="none" xmlns="http://www.w3.org/2000/svg">
<path d="M446.812 161C449.573 161 451.812 163.239 451.812 166V172H449.812V166C449.812 164.402 448.563 163.096 446.988 163.005L446.812 163C445.214 163 443.908 164.249 443.817 165.824L443.812 166V172H441.812V166C441.812 163.239 444.051 161 446.812 161ZM440.312 164C440.591 164 440.862 164.033 441.122 164.094C440.954 164.594 440.851 165.122 440.821 165.669L440.812 166L440.813 166.086C440.7 166.046 440.58 166.019 440.456 166.007L440.312 166C439.532 166 438.892 166.595 438.819 167.355L438.812 167.5V172H436.812V167.5C436.812 165.567 438.379 164 440.312 164ZM453.312 164C455.245 164 456.812 165.567 456.812 167.5V172H454.812V167.5C454.812 166.72 454.217 166.08 453.457 166.007L453.312 166C453.137 166 452.969 166.03 452.812 166.085L452.812 166C452.812 165.334 452.704 164.694 452.504 164.096C452.762 164.033 453.033 164 453.312 164ZM440.312 158C441.693 158 442.812 159.119 442.812 160.5C442.812 161.881 441.693 163 440.312 163C438.931 163 437.812 161.881 437.812 160.5C437.812 159.119 438.931 158 440.312 158ZM453.312 158C454.693 158 455.812 159.119 455.812 160.5C455.812 161.881 454.693 163 453.312 163C451.931 163 450.812 161.881 450.812 160.5C450.812 159.119 451.931 158 453.312 158ZM440.312 160C440.036 160 439.812 160.224 439.812 160.5C439.812 160.776 440.036 161 440.312 161C440.588 161 440.812 160.776 440.812 160.5C440.812 160.224 440.588 160 440.312 160ZM453.312 160C453.036 160 452.812 160.224 452.812 160.5C452.812 160.776 453.036 161 453.312 161C453.588 161 453.812 160.776 453.812 160.5C453.812 160.224 453.588 160 453.312 160ZM446.812 152C449.021 152 450.812 153.791 450.812 156C450.812 158.209 449.021 160 446.812 160C444.603 160 442.812 158.209 442.812 156C442.812 153.791 444.603 152 446.812 152ZM446.812 154C445.707 154 444.812 154.895 444.812 156C444.812 157.105 445.707 158 446.812 158C447.917 158 448.812 157.105 448.812 156C448.812 154.895 447.917 154 446.812 154Z" fill="white"/>
<path d="M470.468 167V163.052L467.332 157.228H469.53L470.72 159.426L471.518 161.344L472.344 159.412L473.534 157.228H475.69L472.498 163.052V167H470.468Z" fill="white"/>
<path d="M480.638 167.168C479.788 167.168 479.042 166.963 478.398 166.552C477.763 166.141 477.268 165.558 476.914 164.802C476.568 164.046 476.396 163.15 476.396 162.114C476.396 161.069 476.568 160.168 476.914 159.412C477.268 158.656 477.763 158.077 478.398 157.676C479.042 157.265 479.788 157.06 480.638 157.06C481.487 157.06 482.229 157.265 482.864 157.676C483.498 158.077 483.988 158.656 484.334 159.412C484.688 160.159 484.866 161.059 484.866 162.114C484.866 163.15 484.688 164.046 484.334 164.802C483.988 165.558 483.498 166.141 482.864 166.552C482.229 166.963 481.487 167.168 480.638 167.168ZM480.638 165.488C481.048 165.488 481.412 165.357 481.73 165.096C482.056 164.825 482.308 164.438 482.486 163.934C482.672 163.43 482.766 162.823 482.766 162.114C482.766 161.395 482.672 160.789 482.486 160.294C482.308 159.79 482.056 159.407 481.73 159.146C481.412 158.875 481.048 158.74 480.638 158.74C480.227 158.74 479.858 158.875 479.532 159.146C479.205 159.407 478.948 159.79 478.762 160.294C478.584 160.798 478.496 161.405 478.496 162.114C478.496 162.823 478.584 163.43 478.762 163.934C478.948 164.438 479.205 164.825 479.532 165.096C479.858 165.357 480.227 165.488 480.638 165.488Z" fill="white"/>
<path d="M489.729 167.168C488.908 167.168 488.203 167.019 487.615 166.72C487.027 166.412 486.575 165.983 486.257 165.432C485.94 164.881 485.781 164.242 485.781 163.514V157.228H487.825V163.514C487.825 163.915 487.905 164.261 488.063 164.55C488.222 164.839 488.441 165.068 488.721 165.236C489.011 165.395 489.347 165.474 489.729 165.474C490.121 165.474 490.457 165.395 490.737 165.236C491.027 165.068 491.246 164.839 491.395 164.55C491.554 164.261 491.633 163.915 491.633 163.514V157.228H493.677V163.514C493.677 164.242 493.519 164.881 493.201 165.432C492.884 165.983 492.431 166.412 491.843 166.72C491.255 167.019 490.551 167.168 489.729 167.168Z" fill="white"/>
<path d="M496.721 163.206V161.526H499.017C499.343 161.526 499.628 161.47 499.871 161.358C500.113 161.246 500.305 161.087 500.445 160.882C500.585 160.667 500.655 160.425 500.655 160.154C500.655 159.902 500.589 159.683 500.459 159.496C500.337 159.309 500.169 159.165 499.955 159.062C499.74 158.959 499.497 158.908 499.227 158.908H496.721V157.228H499.227C499.908 157.228 500.515 157.345 501.047 157.578C501.579 157.811 501.994 158.147 502.293 158.586C502.601 159.015 502.755 159.538 502.755 160.154C502.755 160.537 502.666 160.91 502.489 161.274C502.311 161.629 502.055 161.955 501.719 162.254C501.383 162.543 500.977 162.777 500.501 162.954C500.034 163.122 499.502 163.206 498.905 163.206H496.721ZM495.265 167V157.228H497.295V167H495.265ZM500.683 167C500.664 166.58 500.571 166.16 500.403 165.74C500.244 165.311 500.02 164.9 499.731 164.508C499.441 164.116 499.077 163.761 498.639 163.444C498.209 163.117 497.715 162.842 497.155 162.618L499.409 162.156C499.978 162.436 500.468 162.767 500.879 163.15C501.299 163.523 501.644 163.925 501.915 164.354C502.195 164.774 502.4 165.213 502.531 165.67C502.671 166.118 502.75 166.561 502.769 167H500.683Z" fill="white"/>
<path d="M514.89 163.766V162.086H517.228C517.732 162.086 518.138 161.937 518.446 161.638C518.754 161.339 518.908 160.947 518.908 160.462C518.908 159.995 518.758 159.622 518.46 159.342C518.161 159.053 517.764 158.908 517.27 158.908H514.89V157.228H517.284C518.03 157.228 518.684 157.363 519.244 157.634C519.804 157.895 520.238 158.269 520.546 158.754C520.854 159.239 521.008 159.809 521.008 160.462C521.008 161.125 520.849 161.703 520.532 162.198C520.224 162.693 519.79 163.08 519.23 163.36C518.67 163.631 518.007 163.766 517.242 163.766H514.89ZM513.434 167V157.228H515.464V167H513.434Z" fill="white"/>
<path d="M522.889 167V157.228H524.919V165.32H529.777V167H522.889Z" fill="white"/>
<path d="M532.555 164.928V163.248H538.197V164.928H532.555ZM533.745 157.228H536.755L539.415 167H537.343L535.831 161.148L535.243 158.698L534.655 161.148L533.115 167H531.099L533.745 157.228Z" fill="white"/>
<path d="M543.312 167V163.052L540.176 157.228H542.374L543.564 159.426L544.362 161.344L545.188 159.412L546.378 157.228H548.534L545.342 163.052V167H543.312Z" fill="white"/>
<path d="M549.982 167V157.228H557.149V158.908H552.025V161.106H555.413V162.786H552.025V165.32H557.206V167H549.982Z" fill="white"/>
<path d="M560.459 163.206V161.526H562.755C563.082 161.526 563.366 161.47 563.609 161.358C563.852 161.246 564.043 161.087 564.183 160.882C564.323 160.667 564.393 160.425 564.393 160.154C564.393 159.902 564.328 159.683 564.197 159.496C564.076 159.309 563.908 159.165 563.693 159.062C563.478 158.959 563.236 158.908 562.965 158.908H560.459V157.228H562.965C563.646 157.228 564.253 157.345 564.785 157.578C565.317 157.811 565.732 158.147 566.031 158.586C566.339 159.015 566.493 159.538 566.493 160.154C566.493 160.537 566.404 160.91 566.227 161.274C566.05 161.629 565.793 161.955 565.457 162.254C565.121 162.543 564.715 162.777 564.239 162.954C563.772 163.122 563.24 163.206 562.643 163.206H560.459ZM559.003 167V157.228H561.033V167H559.003ZM564.421 167C564.402 166.58 564.309 166.16 564.141 165.74C563.982 165.311 563.758 164.9 563.469 164.508C563.18 164.116 562.816 163.761 562.377 163.444C561.948 163.117 561.453 162.842 560.893 162.618L563.147 162.156C563.716 162.436 564.206 162.767 564.617 163.15C565.037 163.523 565.382 163.925 565.653 164.354C565.933 164.774 566.138 165.213 566.269 165.67C566.409 166.118 566.488 166.561 566.507 167H564.421Z" fill="white"/>
<path d="M580.91 167.168C580.033 167.168 579.277 166.958 578.642 166.538C578.007 166.118 577.517 165.53 577.172 164.774C576.827 164.009 576.654 163.122 576.654 162.114C576.654 161.087 576.831 160.196 577.186 159.44C577.541 158.684 578.04 158.101 578.684 157.69C579.337 157.27 580.103 157.06 580.98 157.06C581.671 157.06 582.305 157.195 582.884 157.466C583.463 157.737 583.934 158.129 584.298 158.642C584.671 159.146 584.881 159.757 584.928 160.476H582.702C582.646 159.953 582.469 159.533 582.17 159.216C581.871 158.899 581.475 158.74 580.98 158.74C580.551 158.74 580.168 158.871 579.832 159.132C579.496 159.393 579.23 159.776 579.034 160.28C578.847 160.784 578.754 161.395 578.754 162.114C578.754 162.833 578.847 163.444 579.034 163.948C579.221 164.452 579.473 164.835 579.79 165.096C580.117 165.357 580.49 165.488 580.91 165.488C581.255 165.488 581.559 165.418 581.82 165.278C582.081 165.129 582.291 164.919 582.45 164.648C582.618 164.377 582.721 164.055 582.758 163.682H584.97C584.905 164.391 584.699 165.007 584.354 165.53C584.009 166.053 583.547 166.459 582.968 166.748C582.389 167.028 581.703 167.168 580.91 167.168Z" fill="white"/>
<path d="M587.187 164.928V163.248H592.829V164.928H587.187ZM588.377 157.228H591.387L594.047 167H591.975L590.463 161.148L589.875 158.698L589.287 161.148L587.747 167H585.731L588.377 157.228Z" fill="white"/>
<path d="M596.881 163.206V161.526H599.177C599.503 161.526 599.788 161.47 600.031 161.358C600.273 161.246 600.465 161.087 600.605 160.882C600.745 160.667 600.815 160.425 600.815 160.154C600.815 159.902 600.75 159.683 600.619 159.496C600.498 159.309 600.329 159.165 600.115 159.062C599.9 158.959 599.658 158.908 599.387 158.908H596.881V157.228H599.387C600.068 157.228 600.675 157.345 601.207 157.578C601.739 157.811 602.154 158.147 602.453 158.586C602.761 159.015 602.915 159.538 602.915 160.154C602.915 160.537 602.826 160.91 602.649 161.274C602.471 161.629 602.215 161.955 601.879 162.254C601.543 162.543 601.137 162.777 600.661 162.954C600.194 163.122 599.662 163.206 599.065 163.206H596.881ZM595.425 167V157.228H597.455V167H595.425ZM600.843 167C600.824 166.58 600.731 166.16 600.563 165.74C600.404 165.311 600.18 164.9 599.891 164.508C599.601 164.116 599.237 163.761 598.799 163.444C598.369 163.117 597.875 162.842 597.315 162.618L599.569 162.156C600.138 162.436 600.628 162.767 601.039 163.15C601.459 163.523 601.804 163.925 602.075 164.354C602.355 164.774 602.56 165.213 602.691 165.67C602.831 166.118 602.91 166.561 602.929 167H600.843Z" fill="white"/>
<path d="M604.376 167V157.228H607.568C608.296 157.228 608.95 157.345 609.528 157.578C610.107 157.802 610.602 158.129 611.012 158.558C611.423 158.978 611.736 159.487 611.95 160.084C612.165 160.681 612.272 161.349 612.272 162.086C612.272 162.833 612.165 163.509 611.95 164.116C611.736 164.713 611.423 165.231 611.012 165.67C610.602 166.099 610.107 166.431 609.528 166.664C608.95 166.888 608.296 167 607.568 167H604.376ZM606.406 165.32H607.568C608.119 165.32 608.586 165.189 608.968 164.928C609.36 164.657 609.654 164.279 609.85 163.794C610.056 163.309 610.158 162.739 610.158 162.086C610.158 161.433 610.056 160.873 609.85 160.406C609.654 159.93 609.36 159.561 608.968 159.3C608.586 159.039 608.119 158.908 607.568 158.908H606.406V165.32Z" fill="white"/>
<path d="M96.5113 331.207C92.7993 331.207 90.1753 330.247 88.6393 328.327C87.8713 327.495 87.3273 326.503 87.0073 325.351C86.6873 324.199 86.5273 323.015 86.5273 321.799C86.5273 320.263 86.7193 318.727 87.1033 317.191C87.4873 315.591 87.9673 314.119 88.5433 312.775C89.4393 310.663 90.6233 308.551 92.0953 306.439C93.5673 304.263 95.3273 302.439 97.3753 300.967C99.4873 299.495 101.791 298.759 104.287 298.759C105.951 298.759 107.263 299.175 108.223 300.007C109.183 300.839 109.663 302.119 109.663 303.847C109.663 305.831 109.055 307.847 107.839 309.895C106.623 311.879 105.087 313.543 103.231 314.887C101.375 316.231 99.4553 316.903 97.4713 316.903C95.6793 316.903 94.1113 316.263 92.7673 314.983C92.3833 316.007 92.0633 317.159 91.8073 318.439C91.5513 319.655 91.4233 320.903 91.4233 322.183C91.4233 324.167 91.8073 325.895 92.5753 327.367C93.4073 328.839 94.8793 329.575 96.9913 329.575C98.5273 329.575 99.9993 329.191 101.407 328.423C102.879 327.591 104.191 326.599 105.343 325.447C106.623 324.103 107.839 322.663 108.991 321.127C110.143 319.591 111.263 317.799 112.351 315.751C112.479 315.559 112.575 315.463 112.639 315.463C112.895 315.463 113.023 315.751 113.023 316.327C113.023 316.711 112.895 317.127 112.639 317.575C111.679 319.303 110.559 321.063 109.279 322.855C107.999 324.583 106.687 326.087 105.343 327.367C104.127 328.519 102.815 329.447 101.407 330.151C99.9993 330.855 98.3673 331.207 96.5113 331.207ZM93.2473 313.543C93.6953 314.183 94.2073 314.663 94.7833 314.983C95.4233 315.239 96.0633 315.367 96.7033 315.367C98.2393 315.367 99.8393 314.791 101.503 313.639C103.167 312.423 104.511 311.015 105.535 309.415C105.983 308.711 106.367 307.783 106.687 306.631C107.071 305.479 107.263 304.391 107.263 303.367C107.263 302.471 107.071 301.703 106.687 301.063C106.367 300.359 105.695 300.007 104.671 300.007C103.519 300.007 102.143 300.711 100.543 302.119C99.0073 303.527 97.5353 305.351 96.1273 307.591C95.6793 308.359 95.1673 309.255 94.5913 310.279C94.0793 311.303 93.6313 312.391 93.2473 313.543Z" fill="white"/>
<path d="M5.568 338.888C4.8 338.504 4.192 337.96 3.744 337.256C3.36 336.552 3.168 335.848 3.168 335.144C3.168 334.44 3.36 333.864 3.744 333.416C3.936 333.16 4.16 333 4.416 332.936C4.736 332.936 4.832 333.096 4.704 333.416C4.512 334.376 4.96 335.272 6.048 336.104C7.136 336.936 8.128 337.48 9.024 337.736C9.984 337.928 10.944 338.024 11.904 338.024C13.888 338.024 15.648 337.736 17.184 337.16C19.488 336.392 21.76 334.824 24 332.456C26.304 330.088 28.448 327.4 30.432 324.392C32.352 321.448 34.24 318.12 36.096 314.408C38.016 310.632 39.936 306.76 41.856 302.792C43.84 298.76 45.952 294.888 48.192 291.176C50.432 287.4 52.832 284.04 55.392 281.096C58.016 278.088 60.896 275.784 64.032 274.184L46.08 271.016C44.672 270.76 43.072 270.6 41.28 270.536C39.488 270.408 37.6 270.344 35.616 270.344C32.096 270.344 28.576 270.568 25.056 271.016C21.536 271.4 18.72 272.072 16.608 273.032C12.896 274.696 9.696 277 7.008 279.944C4.32 282.824 2.976 286.44 2.976 290.792C2.976 292.584 3.264 294.12 3.84 295.4C4.48 296.616 5.28 297.544 6.24 298.184C7.328 298.824 8.448 299.144 9.6 299.144C11.008 299.144 12.448 298.728 13.92 297.896C15.392 297 16.672 295.72 17.76 294.056C18.272 293.224 18.752 292.008 19.2 290.408C19.712 288.808 19.968 287.176 19.968 285.512C19.968 284.616 19.872 283.752 19.68 282.92C19.552 282.088 19.264 281.352 18.816 280.712C18.688 280.456 18.624 280.328 18.624 280.328C18.624 280.136 18.72 280.04 18.912 280.04C19.168 280.04 19.392 280.2 19.584 280.52C19.904 280.968 20.224 281.672 20.544 282.632C20.928 283.528 21.184 284.36 21.312 285.128C21.376 285.512 21.408 285.896 21.408 286.28C21.472 286.664 21.504 287.048 21.504 287.432C21.504 288.712 21.344 290.024 21.024 291.368C20.704 292.648 20.192 293.832 19.488 294.92C18.464 296.648 17.088 297.96 15.36 298.856C13.632 299.688 11.84 300.104 9.984 300.104C8.512 300.104 7.104 299.816 5.76 299.24C3.776 298.28 2.304 296.904 1.344 295.112C0.448 293.32 0 291.368 0 289.256C0 287.848 0.16 286.44 0.48 285.032C0.864 283.56 1.376 282.152 2.016 280.808C3.104 278.44 4.608 276.36 6.528 274.568C8.448 272.776 10.368 271.368 12.288 270.344C15.488 268.616 18.688 267.4 21.888 266.696C25.152 265.992 28.448 265.64 31.776 265.64C34.528 265.64 37.312 265.832 40.128 266.216C42.944 266.6 45.792 267.144 48.672 267.848C53.728 269.064 58.848 270.216 64.032 271.304C69.216 272.328 74.496 273.128 79.872 273.704C82.112 271.016 84.48 268.584 86.976 266.408C89.536 264.168 92.224 262.312 95.04 260.84C96.704 260.008 98.464 259.336 100.32 258.824C102.176 258.312 103.968 258.056 105.696 258.056C108.576 258.056 110.784 258.856 112.32 260.456C113.856 262.056 114.624 263.88 114.624 265.928C114.624 267.336 114.24 268.744 113.472 270.152C112.704 271.56 111.488 272.776 109.824 273.8C107.648 275.08 105.28 275.944 102.72 276.392C100.16 276.84 97.504 277.064 94.752 277.064C92.512 277.064 90.24 276.968 87.936 276.776C85.632 276.584 83.392 276.424 81.216 276.296C79.232 279.24 77.376 282.312 75.648 285.512C73.984 288.648 72.48 291.688 71.136 294.632C69.792 297.512 68.608 300.104 67.584 302.408C66.816 304.264 66.144 305.832 65.568 307.112C65.056 308.328 64.576 309.448 64.128 310.472C63.744 311.496 63.296 312.648 62.784 313.928C63.808 312.392 64.96 310.728 66.24 308.936C67.584 307.08 68.768 305.64 69.792 304.616C71.264 303.144 72.736 301.896 74.208 300.872C75.68 299.848 77.12 299.272 78.528 299.144C80.704 298.952 82.272 299.24 83.232 300.008C84.192 300.712 84.672 301.768 84.672 303.176C84.672 304.584 84.288 306.152 83.52 307.88C82.688 309.864 81.696 311.848 80.544 313.832C79.392 315.816 78.336 317.736 77.376 319.592C77.12 320.104 76.64 321.096 75.936 322.568C75.296 323.976 74.88 325.32 74.688 326.6C74.688 326.664 74.656 326.76 74.592 326.888C74.592 327.016 74.592 327.144 74.592 327.272C74.592 327.976 74.784 328.52 75.168 328.904C75.552 329.224 76 329.384 76.512 329.384C77.6 329.384 78.624 329.032 79.584 328.328C80.544 327.624 81.376 326.856 82.08 326.024C83.552 324.424 84.896 322.664 86.112 320.744C87.328 318.824 88.544 316.776 89.76 314.6C89.952 314.344 90.144 314.216 90.336 314.216C90.592 314.216 90.72 314.408 90.72 314.792C90.72 315.112 90.656 315.368 90.528 315.56C89.376 317.672 88.128 319.784 86.784 321.896C85.504 324.008 83.936 325.992 82.08 327.848C81.248 328.68 80.288 329.448 79.2 330.152C78.112 330.792 76.896 331.112 75.552 331.112C73.376 331.112 71.84 330.504 70.944 329.288C70.112 328.008 69.696 326.6 69.696 325.064C69.696 323.848 69.92 322.632 70.368 321.416C71.456 318.6 72.96 315.912 74.88 313.352C76.8 310.792 78.4 308.136 79.68 305.384C80.128 304.552 80.352 303.784 80.352 303.08C80.352 302.312 80.128 301.736 79.68 301.352C79.232 300.968 78.752 300.776 78.24 300.776C77.024 300.776 75.68 301.32 74.208 302.408C72.8 303.432 71.424 304.744 70.08 306.344C68.864 307.752 67.616 309.384 66.336 311.24C65.056 313.032 63.84 314.952 62.688 317C61.6 318.856 60.48 320.808 59.328 322.856C58.176 324.84 57.248 326.536 56.544 327.944C56.032 329.032 55.488 329.736 54.912 330.056C54.336 330.376 53.792 330.536 53.28 330.536C53.024 330.536 52.768 330.504 52.512 330.44C52.256 330.44 52.032 330.44 51.84 330.44C52.416 328.264 53.472 325.256 55.008 321.416C56.544 317.512 58.4 312.936 60.576 307.688C62.688 302.568 65.184 297.224 68.064 291.656C71.008 286.024 74.336 280.808 78.048 276.008C76.96 275.816 75.648 275.624 74.112 275.432C72.64 275.24 71.232 275.048 69.888 274.856C68.544 274.664 67.52 274.536 66.816 274.472C64.704 275.432 62.496 277.256 60.192 279.944C57.376 283.272 54.944 286.824 52.896 290.6C50.848 294.312 48.96 298.152 47.232 302.12C45.504 306.024 43.712 309.896 41.856 313.736C40.064 317.576 37.92 321.256 35.424 324.776C33.184 327.912 30.656 330.728 27.84 333.224C25.024 335.72 21.824 337.608 18.24 338.888C16.256 339.592 13.888 339.944 11.136 339.944C10.048 339.944 9.024 339.848 8.064 339.656C7.104 339.528 6.272 339.272 5.568 338.888ZM82.848 273.992C84.576 274.12 86.592 274.312 88.896 274.568C91.264 274.76 93.632 274.856 96 274.856C98.432 274.856 100.832 274.696 103.2 274.376C105.568 273.992 107.584 273.288 109.248 272.264C110.464 271.496 111.328 270.632 111.84 269.672C112.416 268.712 112.704 267.72 112.704 266.696C112.704 264.904 111.936 263.304 110.4 261.896C108.864 260.424 106.848 259.688 104.352 259.688C103.136 259.688 101.824 259.816 100.416 260.072C99.072 260.328 97.664 260.808 96.192 261.512C93.824 262.6 91.52 264.264 89.28 266.504C87.04 268.68 84.896 271.176 82.848 273.992Z" fill="white"/>
<path d="M279.226 262.6L243.226 281.56C236.746 271.96 224.506 263.8 210.106 263.8C192.826 263.8 182.026 272.92 182.026 287.08V323.08C182.026 337.24 192.826 346.36 210.106 346.36C224.506 346.36 237.466 337.96 243.226 328.6L277.786 347.56C269.146 370.12 241.306 388.84 206.266 388.84C157.306 388.84 123.466 360.28 123.466 321.64V288.52C123.466 249.88 157.306 221.32 206.266 221.32C241.306 221.32 270.346 240.04 279.226 262.6Z" fill="white"/>
<path d="M442.724 385H392.804C384.644 385 379.844 373.24 379.844 360.28V338.44C379.844 331.24 376.724 324.76 366.884 324.76H344.084V385H286.964V225.16H380.804C412.964 225.16 434.804 243.16 434.804 267.88V273.4C434.804 289.24 424.484 303.16 407.204 307.72C426.644 311.32 435.524 325.48 435.524 340.36V358.36C435.524 368.44 438.164 377.08 442.724 384.28V385ZM378.404 284.2V278.2C378.404 268.36 373.604 264.28 361.844 264.28H344.084V298.12H361.844C373.604 298.12 378.404 293.56 378.404 284.2Z" fill="white"/>
<path d="M608.471 385H548.471L541.511 360.04H495.671L487.751 385H437.111L493.031 225.16H552.311L608.471 385ZM532.391 326.92L520.391 280.6L506.231 326.92H532.391Z" fill="white"/>
<path d="M747.147 265.48H670.587V290.92H714.027V324.76H670.587V385H613.467V225.16H747.147V265.48Z" fill="white"/>
<path d="M899.268 268.36H851.988V385H794.868V268.36H747.588V225.16H899.268V268.36Z" fill="white"/>
<path d="M915.661 265V264.55C916.369 264.478 916.855 264.328 917.119 264.1C917.395 263.86 917.533 263.524 917.533 263.092V259.582L914.095 253.984C913.915 253.684 913.735 253.432 913.555 253.228C913.387 253.012 913.177 252.844 912.925 252.724C912.673 252.592 912.331 252.508 911.899 252.472V252.022H917.317V252.472C916.693 252.532 916.261 252.67 916.021 252.886C915.793 253.102 915.793 253.408 916.021 253.804L918.938 258.736L921.907 253.804C922.147 253.408 922.165 253.102 921.961 252.886C921.769 252.67 921.337 252.532 920.665 252.472V252.022H924.895V252.472C924.547 252.508 924.241 252.586 923.977 252.706C923.725 252.826 923.503 252.988 923.311 253.192C923.131 253.384 922.945 253.636 922.753 253.948L919.261 259.582V263.092C919.261 263.548 919.399 263.89 919.675 264.118C919.963 264.334 920.449 264.478 921.133 264.55V265H915.661Z" fill="white"/>
<path d="M928 265.144C927.136 265.144 926.367 264.946 925.695 264.55C925.035 264.154 924.514 263.608 924.13 262.912C923.746 262.216 923.553 261.412 923.553 260.5C923.553 259.828 923.662 259.21 923.878 258.646C924.094 258.082 924.399 257.596 924.795 257.188C925.191 256.768 925.659 256.45 926.199 256.234C926.739 256.006 927.34 255.892 928 255.892C928.876 255.892 929.643 256.09 930.303 256.486C930.963 256.87 931.48 257.41 931.852 258.106C932.224 258.79 932.409 259.588 932.409 260.5C932.409 261.184 932.302 261.814 932.086 262.39C931.87 262.954 931.563 263.446 931.167 263.866C930.783 264.274 930.321 264.592 929.781 264.82C929.241 265.036 928.648 265.144 928 265.144ZM928 264.55C928.324 264.55 928.623 264.49 928.899 264.37C929.187 264.25 929.439 264.076 929.655 263.848C929.871 263.608 930.058 263.326 930.214 263.002C930.37 262.666 930.483 262.288 930.555 261.868C930.639 261.448 930.681 260.992 930.681 260.5C930.681 259.684 930.573 258.976 930.357 258.376C930.141 257.776 929.83 257.314 929.422 256.99C929.026 256.654 928.552 256.486 928 256.486C927.664 256.486 927.351 256.546 927.063 256.666C926.787 256.786 926.535 256.966 926.307 257.206C926.091 257.434 925.906 257.716 925.75 258.052C925.594 258.376 925.473 258.748 925.389 259.168C925.317 259.576 925.281 260.02 925.281 260.5C925.281 261.316 925.389 262.03 925.605 262.642C925.833 263.254 926.146 263.728 926.542 264.064C926.95 264.388 927.436 264.55 928 264.55Z" fill="white"/>
<path d="M937.815 265.144C937.251 265.144 936.753 265.024 936.321 264.784C935.889 264.532 935.553 264.178 935.313 263.722C935.073 263.266 934.953 262.732 934.953 262.12V257.764C934.953 257.512 934.887 257.326 934.755 257.206C934.635 257.074 934.431 257.008 934.143 257.008H933.513V256.558L936.033 255.982H936.501V262.066C936.501 262.678 936.675 263.17 937.023 263.542C937.371 263.902 937.821 264.082 938.373 264.082C938.793 264.082 939.183 263.974 939.543 263.758C939.915 263.542 940.215 263.242 940.443 262.858C940.671 262.462 940.785 262.012 940.785 261.508V257.764C940.785 257.512 940.719 257.326 940.587 257.206C940.455 257.074 940.245 257.008 939.957 257.008H939.345V256.558L941.865 255.982H942.333V263.254C942.333 263.518 942.393 263.71 942.513 263.83C942.633 263.938 942.843 263.992 943.143 263.992H943.809V264.442L941.235 265.054H940.785V263.056C940.497 263.716 940.095 264.232 939.579 264.604C939.063 264.964 938.475 265.144 937.815 265.144Z" fill="white"/>
<path d="M954.194 265.144C953.714 265.144 953.24 265.06 952.772 264.892C952.316 264.712 951.914 264.466 951.566 264.154C951.218 263.842 950.948 263.482 950.756 263.074L951.656 261.58C951.656 262.024 951.716 262.426 951.836 262.786C951.956 263.134 952.118 263.44 952.322 263.704C952.526 263.968 952.778 264.172 953.078 264.316C953.378 264.448 953.702 264.514 954.05 264.514C954.47 264.514 954.848 264.418 955.184 264.226C955.52 264.034 955.808 263.764 956.048 263.416C956.288 263.068 956.474 262.654 956.606 262.174C956.738 261.694 956.804 261.172 956.804 260.608C956.804 259.876 956.696 259.228 956.48 258.664C956.264 258.1 955.958 257.662 955.562 257.35C955.178 257.026 954.722 256.864 954.194 256.864C953.69 256.864 953.246 257.014 952.862 257.314C952.49 257.614 952.196 257.992 951.98 258.448C951.764 258.904 951.656 259.384 951.656 259.888L951.584 258.484C951.692 257.992 951.896 257.554 952.196 257.17C952.496 256.774 952.868 256.462 953.312 256.234C953.768 256.006 954.278 255.892 954.842 255.892C955.586 255.892 956.228 256.09 956.768 256.486C957.308 256.882 957.722 257.428 958.01 258.124C958.31 258.82 958.46 259.606 958.46 260.482C958.46 261.19 958.352 261.832 958.136 262.408C957.92 262.972 957.62 263.458 957.236 263.866C956.852 264.274 956.402 264.592 955.886 264.82C955.37 265.036 954.806 265.144 954.194 265.144ZM950.108 265.054V253.696C950.108 253.444 950.048 253.252 949.928 253.12C949.808 252.976 949.604 252.904 949.316 252.904H948.686V252.454L951.206 251.878H951.656V263.488L950.576 265.054H950.108Z" fill="white"/>
<path d="M963.861 265.144C963.297 265.144 962.799 265.024 962.367 264.784C961.935 264.532 961.599 264.178 961.359 263.722C961.119 263.266 960.999 262.732 960.999 262.12V257.764C960.999 257.512 960.933 257.326 960.801 257.206C960.681 257.074 960.477 257.008 960.189 257.008H959.559V256.558L962.079 255.982H962.547V262.066C962.547 262.678 962.721 263.17 963.069 263.542C963.417 263.902 963.867 264.082 964.419 264.082C964.839 264.082 965.229 263.974 965.589 263.758C965.961 263.542 966.261 263.242 966.489 262.858C966.717 262.462 966.831 262.012 966.831 261.508V257.764C966.831 257.512 966.765 257.326 966.633 257.206C966.501 257.074 966.291 257.008 966.003 257.008H965.391V256.558L967.911 255.982H968.379V263.254C968.379 263.518 968.439 263.71 968.559 263.83C968.679 263.938 968.889 263.992 969.189 263.992H969.855V264.442L967.281 265.054H966.831V263.056C966.543 263.716 966.141 264.232 965.625 264.604C965.109 264.964 964.521 265.144 963.861 265.144Z" fill="white"/>
<path d="M970.802 265V264.55C971.354 264.478 971.738 264.358 971.954 264.19C972.17 264.022 972.278 263.752 972.278 263.38V257.764C972.278 257.5 972.212 257.308 972.08 257.188C971.948 257.068 971.738 257.008 971.45 257.008H970.838V256.558L973.358 255.982H973.808V263.38C973.808 263.74 973.916 264.01 974.132 264.19C974.36 264.358 974.744 264.478 975.284 264.55V265H970.802ZM973.052 254.398C972.776 254.398 972.536 254.302 972.332 254.11C972.14 253.906 972.044 253.666 972.044 253.39C972.044 253.198 972.086 253.03 972.17 252.886C972.266 252.73 972.392 252.61 972.548 252.526C972.704 252.43 972.872 252.382 973.052 252.382C973.34 252.382 973.58 252.478 973.772 252.67C973.964 252.862 974.06 253.102 974.06 253.39C974.06 253.57 974.012 253.738 973.916 253.894C973.832 254.05 973.712 254.176 973.556 254.272C973.412 254.356 973.244 254.398 973.052 254.398Z" fill="white"/>
<path d="M976.004 265V264.55C976.544 264.478 976.922 264.358 977.138 264.19C977.366 264.022 977.48 263.752 977.48 263.38V253.66C977.48 253.384 977.414 253.192 977.282 253.084C977.162 252.964 976.958 252.904 976.67 252.904H976.04V252.454L978.56 251.878H979.01V263.38C979.01 263.74 979.118 264.01 979.334 264.19C979.562 264.358 979.946 264.478 980.486 264.55V265H976.004Z" fill="white"/>
<path d="M985.334 265.144C984.602 265.144 983.96 264.946 983.408 264.55C982.856 264.154 982.424 263.614 982.112 262.93C981.812 262.234 981.662 261.448 981.662 260.572C981.662 259.864 981.77 259.228 981.986 258.664C982.202 258.088 982.502 257.596 982.886 257.188C983.282 256.768 983.738 256.45 984.254 256.234C984.77 256.006 985.322 255.892 985.91 255.892C986.426 255.892 986.912 255.982 987.368 256.162C987.836 256.33 988.244 256.57 988.592 256.882C988.94 257.182 989.198 257.542 989.366 257.962L988.466 259.456C988.466 259.012 988.406 258.616 988.286 258.268C988.178 257.908 988.016 257.596 987.8 257.332C987.596 257.068 987.344 256.87 987.044 256.738C986.756 256.594 986.438 256.522 986.09 256.522C985.67 256.522 985.292 256.618 984.956 256.81C984.62 257.002 984.326 257.272 984.074 257.62C983.834 257.968 983.648 258.382 983.516 258.862C983.384 259.342 983.318 259.864 983.318 260.428C983.318 261.16 983.426 261.808 983.642 262.372C983.858 262.936 984.164 263.38 984.56 263.704C984.956 264.016 985.418 264.172 985.946 264.172C986.45 264.172 986.888 264.022 987.26 263.722C987.644 263.422 987.938 263.044 988.142 262.588C988.358 262.12 988.466 261.64 988.466 261.148L988.538 262.552C988.43 263.044 988.232 263.488 987.944 263.884C987.656 264.268 987.29 264.574 986.846 264.802C986.402 265.03 985.898 265.144 985.334 265.144ZM988.466 265.054V253.642C988.466 253.378 988.406 253.192 988.286 253.084C988.166 252.964 987.962 252.904 987.674 252.904H987.044V252.454L989.564 251.878H990.014V263.254C990.014 263.518 990.074 263.71 990.194 263.83C990.326 263.938 990.542 263.992 990.842 263.992H991.49V264.442L988.934 265.054H988.466Z" fill="white"/>
<path d="M1005.43 265L1002.08 256.486V256.036H1005.29V256.486C1004.83 256.534 1004.51 256.648 1004.32 256.828C1004.14 257.008 1004.11 257.272 1004.23 257.62L1006.49 263.812L1005.99 264.172L1008.38 257.602C1008.46 257.41 1008.47 257.236 1008.42 257.08C1008.38 256.912 1008.29 256.78 1008.13 256.684C1007.98 256.576 1007.74 256.51 1007.43 256.486V256.036H1010.18V256.486C1009.96 256.51 1009.75 256.63 1009.55 256.846C1009.36 257.05 1009.19 257.326 1009.05 257.674L1006.19 265H1005.43ZM1000.03 265L997.17 257.674C997.05 257.35 996.876 257.08 996.648 256.864C996.432 256.636 996.18 256.51 995.892 256.486V256.036H999.888V256.486C999.444 256.534 999.126 256.648 998.934 256.828C998.742 257.008 998.712 257.272 998.844 257.62L1001.11 263.812L1000.61 264.172L1002.93 257.908L1003.4 258.448L1000.81 265H1000.03Z" fill="white"/>
<path d="M1010.54 265V264.55C1011.12 264.478 1011.5 264.364 1011.7 264.208C1011.9 264.04 1012 263.782 1012 263.434V253.642C1012 253.378 1011.94 253.192 1011.82 253.084C1011.7 252.964 1011.5 252.904 1011.21 252.904H1010.58V252.454L1013.1 251.878H1013.55V257.944C1013.73 257.5 1013.98 257.128 1014.29 256.828C1014.61 256.528 1014.98 256.3 1015.39 256.144C1015.79 255.976 1016.21 255.892 1016.65 255.892C1017.23 255.892 1017.74 256.018 1018.16 256.27C1018.59 256.51 1018.92 256.858 1019.15 257.314C1019.39 257.77 1019.51 258.304 1019.51 258.916V263.434C1019.51 263.758 1019.61 264.01 1019.81 264.19C1020.02 264.358 1020.41 264.478 1020.98 264.55V265H1016.56V264.55C1017.1 264.478 1017.46 264.364 1017.65 264.208C1017.86 264.04 1017.96 263.782 1017.96 263.434V258.97C1017.96 258.346 1017.79 257.854 1017.46 257.494C1017.12 257.134 1016.62 256.954 1015.94 256.954C1015.6 256.954 1015.24 257.056 1014.86 257.26C1014.49 257.464 1014.18 257.752 1013.93 258.124C1013.68 258.484 1013.55 258.922 1013.55 259.438V263.434C1013.55 263.782 1013.65 264.04 1013.86 264.208C1014.07 264.364 1014.44 264.478 1014.97 264.55V265H1010.54Z" fill="white"/>
<path d="M1021.82 265V264.55C1022.37 264.478 1022.76 264.358 1022.97 264.19C1023.19 264.022 1023.3 263.752 1023.3 263.38V257.764C1023.3 257.5 1023.23 257.308 1023.1 257.188C1022.97 257.068 1022.76 257.008 1022.47 257.008H1021.86V256.558L1024.38 255.982H1024.83V263.38C1024.83 263.74 1024.94 264.01 1025.15 264.19C1025.38 264.358 1025.76 264.478 1026.3 264.55V265H1021.82ZM1024.07 254.398C1023.8 254.398 1023.56 254.302 1023.35 254.11C1023.16 253.906 1023.06 253.666 1023.06 253.39C1023.06 253.198 1023.11 253.03 1023.19 252.886C1023.29 252.73 1023.41 252.61 1023.57 252.526C1023.72 252.43 1023.89 252.382 1024.07 252.382C1024.36 252.382 1024.6 252.478 1024.79 252.67C1024.98 252.862 1025.08 253.102 1025.08 253.39C1025.08 253.57 1025.03 253.738 1024.94 253.894C1024.85 254.05 1024.73 254.176 1024.58 254.272C1024.43 254.356 1024.26 254.398 1024.07 254.398Z" fill="white"/>
<path d="M1027.02 265V264.55C1027.56 264.478 1027.94 264.358 1028.16 264.19C1028.39 264.022 1028.5 263.752 1028.5 263.38V253.66C1028.5 253.384 1028.43 253.192 1028.3 253.084C1028.18 252.964 1027.98 252.904 1027.69 252.904H1027.06V252.454L1029.58 251.878H1030.03V263.38C1030.03 263.74 1030.14 264.01 1030.35 264.19C1030.58 264.358 1030.97 264.478 1031.51 264.55V265H1027.02Z" fill="white"/>
<path d="M1036.95 265.144C1036.11 265.144 1035.36 264.958 1034.71 264.586C1034.07 264.214 1033.56 263.698 1033.2 263.038C1032.86 262.366 1032.68 261.592 1032.68 260.716C1032.68 259.972 1032.8 259.306 1033.02 258.718C1033.25 258.118 1033.56 257.608 1033.96 257.188C1034.37 256.768 1034.84 256.45 1035.36 256.234C1035.9 256.006 1036.48 255.892 1037.09 255.892C1037.68 255.892 1038.19 255.988 1038.62 256.18C1039.06 256.372 1039.43 256.642 1039.72 256.99C1040.02 257.338 1040.24 257.74 1040.37 258.196C1040.5 258.652 1040.55 259.15 1040.53 259.69H1034.01V259.114H1038.19C1038.33 259.114 1038.45 259.09 1038.55 259.042C1038.65 258.982 1038.72 258.898 1038.77 258.79C1038.83 258.682 1038.85 258.556 1038.85 258.412C1038.85 257.872 1038.69 257.416 1038.35 257.044C1038.02 256.66 1037.55 256.468 1036.96 256.468C1036.57 256.468 1036.2 256.558 1035.87 256.738C1035.53 256.906 1035.24 257.152 1035 257.476C1034.76 257.8 1034.58 258.184 1034.45 258.628C1034.31 259.072 1034.25 259.564 1034.25 260.104C1034.25 260.896 1034.38 261.586 1034.64 262.174C1034.91 262.762 1035.28 263.218 1035.76 263.542C1036.25 263.854 1036.83 264.01 1037.51 264.01C1038.2 264.01 1038.78 263.824 1039.25 263.452C1039.72 263.08 1040.06 262.558 1040.28 261.886H1040.73C1040.5 262.942 1040.07 263.752 1039.43 264.316C1038.81 264.868 1037.98 265.144 1036.95 265.144Z" fill="white"/>
<path d="M922.201 292.144C921.337 292.144 920.569 291.946 919.897 291.55C919.237 291.154 918.715 290.608 918.331 289.912C917.947 289.216 917.755 288.412 917.755 287.5C917.755 286.828 917.863 286.21 918.079 285.646C918.295 285.082 918.601 284.596 918.997 284.188C919.393 283.768 919.861 283.45 920.401 283.234C920.941 283.006 921.541 282.892 922.201 282.892C923.077 282.892 923.845 283.09 924.505 283.486C925.165 283.87 925.681 284.41 926.053 285.106C926.425 285.79 926.611 286.588 926.611 287.5C926.611 288.184 926.503 288.814 926.287 289.39C926.071 289.954 925.765 290.446 925.369 290.866C924.985 291.274 924.523 291.592 923.983 291.82C923.443 292.036 922.849 292.144 922.201 292.144ZM922.201 291.55C922.525 291.55 922.825 291.49 923.101 291.37C923.389 291.25 923.641 291.076 923.857 290.848C924.073 290.608 924.259 290.326 924.415 290.002C924.571 289.666 924.685 289.288 924.757 288.868C924.841 288.448 924.883 287.992 924.883 287.5C924.883 286.684 924.775 285.976 924.559 285.376C924.343 284.776 924.031 284.314 923.623 283.99C923.227 283.654 922.753 283.486 922.201 283.486C921.865 283.486 921.553 283.546 921.265 283.666C920.989 283.786 920.737 283.966 920.509 284.206C920.293 284.434 920.107 284.716 919.951 285.052C919.795 285.376 919.675 285.748 919.591 286.168C919.519 286.576 919.483 287.02 919.483 287.5C919.483 288.316 919.591 289.03 919.807 289.642C920.035 290.254 920.347 290.728 920.743 291.064C921.151 291.388 921.637 291.55 922.201 291.55Z" fill="white"/>
<path d="M933.15 290.11H933.6C933.552 290.482 933.432 290.824 933.24 291.136C933.048 291.436 932.796 291.682 932.484 291.874C932.184 292.054 931.842 292.144 931.458 292.144C931.014 292.144 930.618 292.06 930.27 291.892C929.934 291.724 929.67 291.472 929.478 291.136C929.298 290.788 929.208 290.35 929.208 289.822V283.828H927.696V283.36C928.032 283.324 928.344 283.24 928.632 283.108C928.92 282.976 929.178 282.814 929.406 282.622C929.646 282.43 929.844 282.214 930 281.974C930.156 281.722 930.27 281.446 930.342 281.146H930.792V283.036H933.222V283.828H930.774V289.714C930.774 290.014 930.816 290.272 930.9 290.488C930.996 290.704 931.134 290.872 931.314 290.992C931.494 291.1 931.704 291.154 931.944 291.154C932.232 291.154 932.484 291.058 932.7 290.866C932.928 290.674 933.078 290.422 933.15 290.11Z" fill="white"/>
<path d="M934.277 292V291.55C934.853 291.478 935.237 291.364 935.429 291.208C935.633 291.04 935.735 290.782 935.735 290.434V280.642C935.735 280.378 935.675 280.192 935.555 280.084C935.435 279.964 935.231 279.904 934.943 279.904H934.313V279.454L936.833 278.878H937.283V284.944C937.463 284.5 937.709 284.128 938.021 283.828C938.345 283.528 938.711 283.3 939.119 283.144C939.527 282.976 939.947 282.892 940.379 282.892C940.967 282.892 941.471 283.018 941.891 283.27C942.323 283.51 942.653 283.858 942.881 284.314C943.121 284.77 943.241 285.304 943.241 285.916V290.434C943.241 290.758 943.343 291.01 943.547 291.19C943.751 291.358 944.141 291.478 944.717 291.55V292H940.289V291.55C940.829 291.478 941.195 291.364 941.387 291.208C941.591 291.04 941.693 290.782 941.693 290.434V285.97C941.693 285.346 941.525 284.854 941.189 284.494C940.853 284.134 940.349 283.954 939.677 283.954C939.329 283.954 938.969 284.056 938.597 284.26C938.225 284.464 937.913 284.752 937.661 285.124C937.409 285.484 937.283 285.922 937.283 286.438V290.434C937.283 290.782 937.385 291.04 937.589 291.208C937.805 291.364 938.177 291.478 938.705 291.55V292H934.277Z" fill="white"/>
<path d="M950.036 292.144C949.196 292.144 948.452 291.958 947.804 291.586C947.156 291.214 946.652 290.698 946.292 290.038C945.944 289.366 945.77 288.592 945.77 287.716C945.77 286.972 945.884 286.306 946.112 285.718C946.34 285.118 946.652 284.608 947.048 284.188C947.456 283.768 947.924 283.45 948.452 283.234C948.992 283.006 949.568 282.892 950.18 282.892C950.768 282.892 951.278 282.988 951.71 283.18C952.154 283.372 952.52 283.642 952.808 283.99C953.108 284.338 953.324 284.74 953.456 285.196C953.588 285.652 953.642 286.15 953.618 286.69H947.102V286.114H951.278C951.422 286.114 951.542 286.09 951.638 286.042C951.734 285.982 951.806 285.898 951.854 285.79C951.914 285.682 951.944 285.556 951.944 285.412C951.944 284.872 951.776 284.416 951.44 284.044C951.104 283.66 950.642 283.468 950.054 283.468C949.658 283.468 949.292 283.558 948.956 283.738C948.62 283.906 948.332 284.152 948.092 284.476C947.852 284.8 947.666 285.184 947.534 285.628C947.402 286.072 947.336 286.564 947.336 287.104C947.336 287.896 947.468 288.586 947.732 289.174C947.996 289.762 948.368 290.218 948.848 290.542C949.34 290.854 949.922 291.01 950.594 291.01C951.29 291.01 951.872 290.824 952.34 290.452C952.808 290.08 953.15 289.558 953.366 288.886H953.816C953.588 289.942 953.156 290.752 952.52 291.316C951.896 291.868 951.068 292.144 950.036 292.144Z" fill="white"/>
<path d="M958.056 284.89C958.272 284.23 958.584 283.732 958.992 283.396C959.412 283.06 959.838 282.892 960.27 282.892C960.666 282.892 960.984 283 961.224 283.216C961.476 283.432 961.602 283.678 961.602 283.954C961.602 284.194 961.524 284.392 961.368 284.548C961.212 284.704 961.02 284.782 960.792 284.782C960.624 284.782 960.486 284.74 960.378 284.656C960.282 284.572 960.204 284.482 960.144 284.386C960.096 284.29 960.03 284.2 959.946 284.116C959.874 284.032 959.76 283.99 959.604 283.99C959.34 283.99 959.088 284.116 958.848 284.368C958.62 284.62 958.428 284.944 958.272 285.34C958.128 285.736 958.056 286.15 958.056 286.582V290.416C958.056 290.8 958.2 291.07 958.488 291.226C958.776 291.382 959.226 291.49 959.838 291.55V292H955.176V291.55C955.668 291.49 956.01 291.376 956.202 291.208C956.406 291.028 956.508 290.764 956.508 290.416V284.764C956.508 284.512 956.442 284.326 956.31 284.206C956.19 284.074 955.986 284.008 955.698 284.008H955.086V283.558L957.606 282.982H958.056V284.89Z" fill="white"/>
<path d="M966.09 292.144C965.658 292.144 965.268 292.096 964.92 292C964.584 291.916 964.272 291.844 963.984 291.784C963.708 291.724 963.432 291.73 963.156 291.802L962.778 289.174H963.228C963.492 289.942 963.852 290.536 964.308 290.956C964.764 291.376 965.34 291.586 966.036 291.586C966.588 291.586 967.05 291.448 967.422 291.172C967.794 290.884 967.98 290.494 967.98 290.002C967.98 289.606 967.86 289.294 967.62 289.066C967.38 288.826 967.062 288.628 966.666 288.472C966.282 288.316 965.874 288.166 965.442 288.022C965.01 287.878 964.602 287.704 964.218 287.5C963.834 287.296 963.516 287.032 963.264 286.708C963.024 286.384 962.904 285.958 962.904 285.43C962.904 284.974 962.994 284.59 963.174 284.278C963.354 283.954 963.594 283.69 963.894 283.486C964.194 283.282 964.524 283.132 964.884 283.036C965.256 282.94 965.622 282.892 965.982 282.892C966.438 282.892 966.822 282.94 967.134 283.036C967.458 283.12 967.74 283.198 967.98 283.27C968.22 283.342 968.46 283.354 968.7 283.306L968.862 285.646H968.394C968.298 285.166 968.13 284.764 967.89 284.44C967.662 284.116 967.38 283.87 967.044 283.702C966.708 283.534 966.342 283.45 965.946 283.45C965.49 283.45 965.082 283.576 964.722 283.828C964.362 284.068 964.182 284.416 964.182 284.872C964.182 285.256 964.302 285.562 964.542 285.79C964.794 286.006 965.112 286.192 965.496 286.348C965.892 286.492 966.306 286.636 966.738 286.78C967.182 286.912 967.596 287.08 967.98 287.284C968.376 287.488 968.694 287.758 968.934 288.094C969.186 288.43 969.312 288.874 969.312 289.426C969.312 289.978 969.174 290.458 968.898 290.866C968.622 291.262 968.244 291.574 967.764 291.802C967.284 292.03 966.726 292.144 966.09 292.144Z" fill="white"/>
<path d="M978.178 292.144C977.722 292.144 977.29 292.054 976.882 291.874C976.486 291.694 976.162 291.43 975.91 291.082C975.67 290.734 975.55 290.32 975.55 289.84C975.55 289.408 975.64 289.03 975.82 288.706C976.012 288.382 976.33 288.094 976.774 287.842C977.23 287.578 977.86 287.308 978.664 287.032L980.158 286.546C980.434 286.438 980.626 286.288 980.734 286.096C980.854 285.904 980.914 285.676 980.914 285.412L981.076 286.816L979.222 287.464C978.598 287.692 978.1 287.962 977.728 288.274C977.356 288.574 977.17 288.994 977.17 289.534C977.17 289.882 977.248 290.176 977.404 290.416C977.56 290.656 977.758 290.836 977.998 290.956C978.25 291.064 978.514 291.118 978.79 291.118C979.114 291.118 979.438 291.028 979.762 290.848C980.098 290.656 980.374 290.386 980.59 290.038C980.806 289.69 980.914 289.282 980.914 288.814L981.076 289.66C980.956 290.236 980.746 290.71 980.446 291.082C980.158 291.442 979.81 291.712 979.402 291.892C979.006 292.06 978.598 292.144 978.178 292.144ZM980.914 285.394C980.914 284.77 980.734 284.29 980.374 283.954C980.026 283.618 979.564 283.45 978.988 283.45C978.436 283.45 978.01 283.582 977.71 283.846C977.422 284.098 977.278 284.392 977.278 284.728C977.278 284.872 977.29 284.992 977.314 285.088C977.338 285.172 977.35 285.28 977.35 285.412C977.35 285.64 977.266 285.826 977.098 285.97C976.93 286.102 976.732 286.168 976.504 286.168C976.264 286.168 976.066 286.09 975.91 285.934C975.766 285.778 975.694 285.58 975.694 285.34C975.694 284.908 975.844 284.506 976.144 284.134C976.444 283.762 976.852 283.462 977.368 283.234C977.896 283.006 978.496 282.892 979.168 282.892C979.828 282.892 980.404 283 980.896 283.216C981.388 283.432 981.772 283.75 982.048 284.17C982.324 284.59 982.462 285.1 982.462 285.7V290.452C982.462 290.656 982.516 290.824 982.624 290.956C982.744 291.076 982.882 291.136 983.038 291.136C983.158 291.136 983.284 291.082 983.416 290.974C983.56 290.854 983.662 290.65 983.722 290.362H984.19C984.142 290.83 984.01 291.196 983.794 291.46C983.59 291.724 983.362 291.904 983.11 292C982.858 292.096 982.624 292.144 982.408 292.144C982.168 292.144 981.928 292.09 981.688 291.982C981.46 291.874 981.274 291.706 981.13 291.478C980.986 291.238 980.914 290.926 980.914 290.542V285.394Z" fill="white"/>
<path d="M987.868 284.89C988.084 284.23 988.396 283.732 988.804 283.396C989.224 283.06 989.65 282.892 990.082 282.892C990.478 282.892 990.796 283 991.036 283.216C991.288 283.432 991.414 283.678 991.414 283.954C991.414 284.194 991.336 284.392 991.18 284.548C991.024 284.704 990.832 284.782 990.604 284.782C990.436 284.782 990.298 284.74 990.19 284.656C990.094 284.572 990.016 284.482 989.956 284.386C989.908 284.29 989.842 284.2 989.758 284.116C989.686 284.032 989.572 283.99 989.416 283.99C989.152 283.99 988.9 284.116 988.66 284.368C988.432 284.62 988.24 284.944 988.084 285.34C987.94 285.736 987.868 286.15 987.868 286.582V290.416C987.868 290.8 988.012 291.07 988.3 291.226C988.588 291.382 989.038 291.49 989.65 291.55V292H984.988V291.55C985.48 291.49 985.822 291.376 986.014 291.208C986.218 291.028 986.32 290.764 986.32 290.416V284.764C986.32 284.512 986.254 284.326 986.122 284.206C986.002 284.074 985.798 284.008 985.51 284.008H984.898V283.558L987.418 282.982H987.868V284.89Z" fill="white"/>
<path d="M996.591 292.144C995.751 292.144 995.007 291.958 994.359 291.586C993.711 291.214 993.207 290.698 992.847 290.038C992.499 289.366 992.325 288.592 992.325 287.716C992.325 286.972 992.439 286.306 992.667 285.718C992.895 285.118 993.207 284.608 993.603 284.188C994.011 283.768 994.479 283.45 995.007 283.234C995.547 283.006 996.123 282.892 996.735 282.892C997.323 282.892 997.833 282.988 998.265 283.18C998.709 283.372 999.075 283.642 999.363 283.99C999.663 284.338 999.879 284.74 1000.01 285.196C1000.14 285.652 1000.2 286.15 1000.17 286.69H993.657V286.114H997.833C997.977 286.114 998.097 286.09 998.193 286.042C998.289 285.982 998.361 285.898 998.409 285.79C998.469 285.682 998.499 285.556 998.499 285.412C998.499 284.872 998.331 284.416 997.995 284.044C997.659 283.66 997.197 283.468 996.609 283.468C996.213 283.468 995.847 283.558 995.511 283.738C995.175 283.906 994.887 284.152 994.647 284.476C994.407 284.8 994.221 285.184 994.089 285.628C993.957 286.072 993.891 286.564 993.891 287.104C993.891 287.896 994.023 288.586 994.287 289.174C994.551 289.762 994.923 290.218 995.403 290.542C995.895 290.854 996.477 291.01 997.149 291.01C997.845 291.01 998.427 290.824 998.895 290.452C999.363 290.08 999.705 289.558 999.921 288.886H1000.37C1000.14 289.942 999.711 290.752 999.075 291.316C998.451 291.868 997.623 292.144 996.591 292.144Z" fill="white"/>
<path d="M1009.71 292.144C1009.28 292.144 1008.89 292.096 1008.54 292C1008.2 291.916 1007.89 291.844 1007.6 291.784C1007.33 291.724 1007.05 291.73 1006.78 291.802L1006.4 289.174H1006.85C1007.11 289.942 1007.47 290.536 1007.93 290.956C1008.38 291.376 1008.96 291.586 1009.66 291.586C1010.21 291.586 1010.67 291.448 1011.04 291.172C1011.41 290.884 1011.6 290.494 1011.6 290.002C1011.6 289.606 1011.48 289.294 1011.24 289.066C1011 288.826 1010.68 288.628 1010.29 288.472C1009.9 288.316 1009.49 288.166 1009.06 288.022C1008.63 287.878 1008.22 287.704 1007.84 287.5C1007.45 287.296 1007.14 287.032 1006.88 286.708C1006.64 286.384 1006.52 285.958 1006.52 285.43C1006.52 284.974 1006.61 284.59 1006.79 284.278C1006.97 283.954 1007.21 283.69 1007.51 283.486C1007.81 283.282 1008.14 283.132 1008.5 283.036C1008.88 282.94 1009.24 282.892 1009.6 282.892C1010.06 282.892 1010.44 282.94 1010.75 283.036C1011.08 283.12 1011.36 283.198 1011.6 283.27C1011.84 283.342 1012.08 283.354 1012.32 283.306L1012.48 285.646H1012.01C1011.92 285.166 1011.75 284.764 1011.51 284.44C1011.28 284.116 1011 283.87 1010.66 283.702C1010.33 283.534 1009.96 283.45 1009.57 283.45C1009.11 283.45 1008.7 283.576 1008.34 283.828C1007.98 284.068 1007.8 284.416 1007.8 284.872C1007.8 285.256 1007.92 285.562 1008.16 285.79C1008.41 286.006 1008.73 286.192 1009.12 286.348C1009.51 286.492 1009.93 286.636 1010.36 286.78C1010.8 286.912 1011.22 287.08 1011.6 287.284C1012 287.488 1012.31 287.758 1012.55 288.094C1012.81 288.43 1012.93 288.874 1012.93 289.426C1012.93 289.978 1012.79 290.458 1012.52 290.866C1012.24 291.262 1011.86 291.574 1011.38 291.802C1010.9 292.03 1010.35 292.144 1009.71 292.144Z" fill="white"/>
<path d="M1019.49 290.11H1019.94C1019.89 290.482 1019.77 290.824 1019.58 291.136C1019.39 291.436 1019.13 291.682 1018.82 291.874C1018.52 292.054 1018.18 292.144 1017.8 292.144C1017.35 292.144 1016.96 292.06 1016.61 291.892C1016.27 291.724 1016.01 291.472 1015.82 291.136C1015.64 290.788 1015.55 290.35 1015.55 289.822V283.828H1014.03V283.36C1014.37 283.324 1014.68 283.24 1014.97 283.108C1015.26 282.976 1015.52 282.814 1015.74 282.622C1015.98 282.43 1016.18 282.214 1016.34 281.974C1016.49 281.722 1016.61 281.446 1016.68 281.146H1017.13V283.036H1019.56V283.828H1017.11V289.714C1017.11 290.014 1017.15 290.272 1017.24 290.488C1017.33 290.704 1017.47 290.872 1017.65 290.992C1017.83 291.1 1018.04 291.154 1018.28 291.154C1018.57 291.154 1018.82 291.058 1019.04 290.866C1019.27 290.674 1019.42 290.422 1019.49 290.11Z" fill="white"/>
<path d="M1020.85 292V291.55C1021.4 291.478 1021.78 291.358 1022 291.19C1022.22 291.022 1022.32 290.752 1022.32 290.38V284.764C1022.32 284.5 1022.26 284.308 1022.13 284.188C1021.99 284.068 1021.78 284.008 1021.5 284.008H1020.88V283.558L1023.4 282.982H1023.85V290.38C1023.85 290.74 1023.96 291.01 1024.18 291.19C1024.41 291.358 1024.79 291.478 1025.33 291.55V292H1020.85ZM1023.1 281.398C1022.82 281.398 1022.58 281.302 1022.38 281.11C1022.19 280.906 1022.09 280.666 1022.09 280.39C1022.09 280.198 1022.13 280.03 1022.22 279.886C1022.31 279.73 1022.44 279.61 1022.59 279.526C1022.75 279.43 1022.92 279.382 1023.1 279.382C1023.39 279.382 1023.63 279.478 1023.82 279.67C1024.01 279.862 1024.11 280.102 1024.11 280.39C1024.11 280.57 1024.06 280.738 1023.96 280.894C1023.88 281.05 1023.76 281.176 1023.6 281.272C1023.46 281.356 1023.29 281.398 1023.1 281.398Z" fill="white"/>
<path d="M1026.05 292V291.55C1026.59 291.478 1026.97 291.358 1027.18 291.19C1027.41 291.022 1027.53 290.752 1027.53 290.38V280.66C1027.53 280.384 1027.46 280.192 1027.33 280.084C1027.21 279.964 1027 279.904 1026.72 279.904H1026.09V279.454L1028.61 278.878H1029.06V290.38C1029.06 290.74 1029.16 291.01 1029.38 291.19C1029.61 291.358 1029.99 291.478 1030.53 291.55V292H1026.05Z" fill="white"/>
<path d="M1031.26 292V291.55C1031.8 291.478 1032.18 291.358 1032.39 291.19C1032.62 291.022 1032.73 290.752 1032.73 290.38V280.66C1032.73 280.384 1032.67 280.192 1032.54 280.084C1032.42 279.964 1032.21 279.904 1031.92 279.904H1031.29V279.454L1033.81 278.878H1034.26V290.38C1034.26 290.74 1034.37 291.01 1034.59 291.19C1034.82 291.358 1035.2 291.478 1035.74 291.55V292H1031.26Z" fill="white"/>
<path d="M952.54 319.144C952.084 319.144 951.652 319.054 951.244 318.874C950.848 318.694 950.524 318.43 950.272 318.082C950.032 317.734 949.912 317.32 949.912 316.84C949.912 316.408 950.002 316.03 950.182 315.706C950.374 315.382 950.692 315.094 951.136 314.842C951.592 314.578 952.222 314.308 953.026 314.032L954.52 313.546C954.796 313.438 954.988 313.288 955.096 313.096C955.216 312.904 955.276 312.676 955.276 312.412L955.438 313.816L953.584 314.464C952.96 314.692 952.462 314.962 952.09 315.274C951.718 315.574 951.532 315.994 951.532 316.534C951.532 316.882 951.61 317.176 951.766 317.416C951.922 317.656 952.12 317.836 952.36 317.956C952.612 318.064 952.876 318.118 953.152 318.118C953.476 318.118 953.8 318.028 954.124 317.848C954.46 317.656 954.736 317.386 954.952 317.038C955.168 316.69 955.276 316.282 955.276 315.814L955.438 316.66C955.318 317.236 955.108 317.71 954.808 318.082C954.52 318.442 954.172 318.712 953.764 318.892C953.368 319.06 952.96 319.144 952.54 319.144ZM955.276 312.394C955.276 311.77 955.096 311.29 954.736 310.954C954.388 310.618 953.926 310.45 953.35 310.45C952.798 310.45 952.372 310.582 952.072 310.846C951.784 311.098 951.64 311.392 951.64 311.728C951.64 311.872 951.652 311.992 951.676 312.088C951.7 312.172 951.712 312.28 951.712 312.412C951.712 312.64 951.628 312.826 951.46 312.97C951.292 313.102 951.094 313.168 950.866 313.168C950.626 313.168 950.428 313.09 950.272 312.934C950.128 312.778 950.056 312.58 950.056 312.34C950.056 311.908 950.206 311.506 950.506 311.134C950.806 310.762 951.214 310.462 951.73 310.234C952.258 310.006 952.858 309.892 953.53 309.892C954.19 309.892 954.766 310 955.258 310.216C955.75 310.432 956.134 310.75 956.41 311.17C956.686 311.59 956.824 312.1 956.824 312.7V317.452C956.824 317.656 956.878 317.824 956.986 317.956C957.106 318.076 957.244 318.136 957.4 318.136C957.52 318.136 957.646 318.082 957.778 317.974C957.922 317.854 958.024 317.65 958.084 317.362H958.552C958.504 317.83 958.372 318.196 958.156 318.46C957.952 318.724 957.724 318.904 957.472 319C957.22 319.096 956.986 319.144 956.77 319.144C956.53 319.144 956.29 319.09 956.05 318.982C955.822 318.874 955.636 318.706 955.492 318.478C955.348 318.238 955.276 317.926 955.276 317.542V312.394Z" fill="white"/>
<path d="M962.86 319.144C962.428 319.144 962.038 319.096 961.69 319C961.354 318.916 961.042 318.844 960.754 318.784C960.478 318.724 960.202 318.73 959.926 318.802L959.548 316.174H959.998C960.262 316.942 960.622 317.536 961.078 317.956C961.534 318.376 962.11 318.586 962.806 318.586C963.358 318.586 963.82 318.448 964.192 318.172C964.564 317.884 964.75 317.494 964.75 317.002C964.75 316.606 964.63 316.294 964.39 316.066C964.15 315.826 963.832 315.628 963.436 315.472C963.052 315.316 962.644 315.166 962.212 315.022C961.78 314.878 961.372 314.704 960.988 314.5C960.604 314.296 960.286 314.032 960.034 313.708C959.794 313.384 959.674 312.958 959.674 312.43C959.674 311.974 959.764 311.59 959.944 311.278C960.124 310.954 960.364 310.69 960.664 310.486C960.964 310.282 961.294 310.132 961.654 310.036C962.026 309.94 962.392 309.892 962.752 309.892C963.208 309.892 963.592 309.94 963.904 310.036C964.228 310.12 964.51 310.198 964.75 310.27C964.99 310.342 965.23 310.354 965.47 310.306L965.632 312.646H965.164C965.068 312.166 964.9 311.764 964.66 311.44C964.432 311.116 964.15 310.87 963.814 310.702C963.478 310.534 963.112 310.45 962.716 310.45C962.26 310.45 961.852 310.576 961.492 310.828C961.132 311.068 960.952 311.416 960.952 311.872C960.952 312.256 961.072 312.562 961.312 312.79C961.564 313.006 961.882 313.192 962.266 313.348C962.662 313.492 963.076 313.636 963.508 313.78C963.952 313.912 964.366 314.08 964.75 314.284C965.146 314.488 965.464 314.758 965.704 315.094C965.956 315.43 966.082 315.874 966.082 316.426C966.082 316.978 965.944 317.458 965.668 317.866C965.392 318.262 965.014 318.574 964.534 318.802C964.054 319.03 963.496 319.144 962.86 319.144Z" fill="white"/>
<path d="M974.637 319L970.065 313.96L973.521 311.404C973.713 311.26 973.815 311.122 973.827 310.99C973.839 310.858 973.767 310.75 973.611 310.666C973.467 310.582 973.227 310.534 972.891 310.522V310.036H976.797V310.522C976.377 310.534 975.957 310.654 975.537 310.882C975.117 311.11 974.619 311.416 974.043 311.8L970.767 314.05L971.235 313.294L975.141 317.146C975.393 317.398 975.633 317.626 975.861 317.83C976.101 318.022 976.371 318.184 976.671 318.316C976.971 318.436 977.349 318.514 977.805 318.55V319H974.637ZM967.275 319V318.55C967.815 318.478 968.193 318.358 968.409 318.19C968.625 318.022 968.733 317.752 968.733 317.38V307.66C968.733 307.384 968.667 307.192 968.535 307.084C968.415 306.964 968.217 306.904 967.941 306.904H967.311V306.454L969.831 305.878H970.281V317.38C970.281 317.74 970.389 318.01 970.605 318.19C970.833 318.358 971.211 318.478 971.739 318.55V319H967.275Z" fill="white"/>
<path d="M978.271 319V318.55C978.823 318.478 979.207 318.358 979.423 318.19C979.639 318.022 979.747 317.752 979.747 317.38V311.764C979.747 311.5 979.681 311.308 979.549 311.188C979.417 311.068 979.207 311.008 978.919 311.008H978.307V310.558L980.827 309.982H981.277V317.38C981.277 317.74 981.385 318.01 981.601 318.19C981.829 318.358 982.213 318.478 982.753 318.55V319H978.271ZM980.521 308.398C980.245 308.398 980.005 308.302 979.801 308.11C979.609 307.906 979.513 307.666 979.513 307.39C979.513 307.198 979.555 307.03 979.639 306.886C979.735 306.73 979.861 306.61 980.017 306.526C980.173 306.43 980.341 306.382 980.521 306.382C980.809 306.382 981.049 306.478 981.241 306.67C981.433 306.862 981.529 307.102 981.529 307.39C981.529 307.57 981.481 307.738 981.385 307.894C981.301 308.05 981.181 308.176 981.025 308.272C980.881 308.356 980.713 308.398 980.521 308.398Z" fill="white"/>
<path d="M986.712 311.944C986.976 311.284 987.39 310.78 987.954 310.432C988.518 310.072 989.142 309.892 989.826 309.892C990.402 309.892 990.9 310.018 991.32 310.27C991.752 310.51 992.082 310.858 992.31 311.314C992.55 311.77 992.67 312.304 992.67 312.916V317.434C992.67 317.758 992.772 318.01 992.976 318.19C993.18 318.358 993.57 318.478 994.146 318.55V319H989.718V318.55C990.258 318.478 990.624 318.364 990.816 318.208C991.02 318.04 991.122 317.782 991.122 317.434V313.042C991.122 312.382 990.954 311.872 990.618 311.512C990.282 311.14 989.784 310.954 989.124 310.954C988.764 310.954 988.398 311.056 988.026 311.26C987.654 311.464 987.342 311.752 987.09 312.124C986.838 312.484 986.712 312.922 986.712 313.438V317.434C986.712 317.782 986.814 318.04 987.018 318.208C987.234 318.364 987.606 318.478 988.134 318.55V319H983.706V318.55C984.282 318.478 984.666 318.364 984.858 318.208C985.062 318.04 985.164 317.782 985.164 317.434V311.764C985.164 311.512 985.098 311.326 984.966 311.206C984.846 311.074 984.642 311.008 984.354 311.008H983.742V310.558L986.262 309.982H986.712V311.944Z" fill="white"/>
<path d="M998.578 322.51C997.726 322.51 997.018 322.426 996.454 322.258C995.89 322.09 995.464 321.85 995.176 321.538C994.888 321.226 994.744 320.86 994.744 320.44C994.744 320.02 994.87 319.654 995.122 319.342C995.374 319.03 995.716 318.784 996.148 318.604C996.58 318.412 997.06 318.328 997.588 318.352L997.822 318.64C997.618 318.616 997.408 318.646 997.192 318.73C996.976 318.802 996.772 318.91 996.58 319.054C996.4 319.198 996.256 319.366 996.148 319.558C996.04 319.762 995.986 319.984 995.986 320.224C995.986 320.5 996.064 320.74 996.22 320.944C996.376 321.16 996.598 321.334 996.886 321.466C997.174 321.61 997.51 321.712 997.894 321.772C998.278 321.844 998.692 321.88 999.136 321.88C999.748 321.88 1000.28 321.814 1000.74 321.682C1001.21 321.55 1001.57 321.358 1001.84 321.106C1002.1 320.854 1002.23 320.56 1002.23 320.224C1002.23 319.804 1002.07 319.498 1001.75 319.306C1001.43 319.126 1001.03 319.012 1000.52 318.964L997.894 318.658C997.114 318.562 996.502 318.376 996.058 318.1C995.626 317.824 995.41 317.452 995.41 316.984C995.41 316.684 995.494 316.42 995.662 316.192C995.83 315.964 996.106 315.778 996.49 315.634C996.874 315.49 997.378 315.412 998.002 315.4L998.65 315.778C997.882 315.778 997.318 315.844 996.958 315.976C996.598 316.108 996.418 316.3 996.418 316.552C996.418 316.744 996.502 316.9 996.67 317.02C996.85 317.128 997.108 317.206 997.444 317.254L1000.74 317.578C1001.22 317.626 1001.66 317.734 1002.05 317.902C1002.46 318.058 1002.78 318.286 1003.02 318.586C1003.28 318.874 1003.4 319.246 1003.4 319.702C1003.4 320.134 1003.29 320.524 1003.06 320.872C1002.84 321.22 1002.53 321.514 1002.11 321.754C1001.69 321.994 1001.18 322.18 1000.58 322.312C999.988 322.444 999.322 322.51 998.578 322.51ZM998.83 315.778C998.434 315.778 998.026 315.724 997.606 315.616C997.198 315.496 996.82 315.316 996.472 315.076C996.124 314.836 995.842 314.53 995.626 314.158C995.422 313.786 995.32 313.348 995.32 312.844C995.32 312.232 995.482 311.71 995.806 311.278C996.13 310.834 996.562 310.492 997.102 310.252C997.642 310.012 998.224 309.892 998.848 309.892C999.46 309.892 1000.03 310.012 1000.56 310.252C1001.1 310.48 1001.53 310.816 1001.85 311.26C1002.19 311.692 1002.36 312.22 1002.36 312.844C1002.36 313.3 1002.26 313.714 1002.07 314.086C1001.88 314.446 1001.62 314.752 1001.3 315.004C1000.98 315.256 1000.61 315.448 1000.18 315.58C999.76 315.712 999.31 315.778 998.83 315.778ZM998.848 315.256C999.052 315.256 999.25 315.226 999.442 315.166C999.646 315.094 999.826 314.992 999.982 314.86C1000.15 314.716 1000.29 314.548 1000.41 314.356C1000.53 314.152 1000.62 313.93 1000.68 313.69C1000.76 313.438 1000.79 313.156 1000.79 312.844C1000.79 312.328 1000.7 311.89 1000.52 311.53C1000.34 311.17 1000.1 310.9 999.802 310.72C999.514 310.528 999.196 310.432 998.848 310.432C998.644 310.432 998.44 310.468 998.236 310.54C998.044 310.6 997.864 310.696 997.696 310.828C997.528 310.96 997.384 311.128 997.264 311.332C997.144 311.524 997.048 311.746 996.976 311.998C996.916 312.25 996.886 312.532 996.886 312.844C996.886 313.348 996.976 313.78 997.156 314.14C997.336 314.5 997.576 314.776 997.876 314.968C998.176 315.16 998.5 315.256 998.848 315.256ZM1000.92 310.54L1000.5 310.342C1000.8 309.826 1001.15 309.442 1001.53 309.19C1001.93 308.926 1002.3 308.794 1002.66 308.794C1003.04 308.794 1003.32 308.872 1003.51 309.028C1003.71 309.172 1003.82 309.364 1003.82 309.604C1003.82 309.808 1003.74 309.982 1003.6 310.126C1003.47 310.27 1003.31 310.342 1003.11 310.342C1003.01 310.342 1002.89 310.318 1002.77 310.27C1002.66 310.21 1002.57 310.132 1002.5 310.036C1002.44 309.94 1002.36 309.88 1002.27 309.856C1002.18 309.82 1002.09 309.802 1002 309.802C1001.82 309.802 1001.63 309.862 1001.42 309.982C1001.23 310.09 1001.06 310.276 1000.92 310.54Z" fill="white"/>
<path d="M938.273 346.144C937.541 346.144 936.899 345.946 936.347 345.55C935.795 345.154 935.363 344.614 935.051 343.93C934.751 343.234 934.601 342.448 934.601 341.572C934.601 340.864 934.709 340.228 934.925 339.664C935.141 339.088 935.441 338.596 935.825 338.188C936.221 337.768 936.677 337.45 937.193 337.234C937.709 337.006 938.261 336.892 938.849 336.892C939.365 336.892 939.851 336.982 940.307 337.162C940.775 337.33 941.183 337.57 941.531 337.882C941.879 338.182 942.137 338.542 942.305 338.962L941.405 340.456C941.405 340.012 941.345 339.616 941.225 339.268C941.117 338.908 940.955 338.596 940.739 338.332C940.535 338.068 940.283 337.87 939.983 337.738C939.695 337.594 939.377 337.522 939.029 337.522C938.609 337.522 938.231 337.618 937.895 337.81C937.559 338.002 937.265 338.272 937.013 338.62C936.773 338.968 936.587 339.382 936.455 339.862C936.323 340.342 936.257 340.864 936.257 341.428C936.257 342.16 936.365 342.808 936.581 343.372C936.797 343.936 937.103 344.38 937.499 344.704C937.895 345.016 938.357 345.172 938.885 345.172C939.389 345.172 939.827 345.022 940.199 344.722C940.583 344.422 940.877 344.044 941.081 343.588C941.297 343.12 941.405 342.64 941.405 342.148L941.477 343.552C941.369 344.044 941.171 344.488 940.883 344.884C940.595 345.268 940.229 345.574 939.785 345.802C939.341 346.03 938.837 346.144 938.273 346.144ZM939.587 349.366V348.916C940.307 348.844 940.787 348.718 941.027 348.538C941.279 348.37 941.405 348.106 941.405 347.746V338.548L942.503 336.982H942.953V347.746C942.953 348.118 943.061 348.388 943.277 348.556C943.493 348.724 943.871 348.844 944.411 348.916V349.366H939.587Z" fill="white"/>
<path d="M949.003 346.144C948.439 346.144 947.941 346.024 947.509 345.784C947.077 345.532 946.741 345.178 946.501 344.722C946.261 344.266 946.141 343.732 946.141 343.12V338.764C946.141 338.512 946.075 338.326 945.943 338.206C945.823 338.074 945.619 338.008 945.331 338.008H944.701V337.558L947.221 336.982H947.689V343.066C947.689 343.678 947.863 344.17 948.211 344.542C948.559 344.902 949.009 345.082 949.561 345.082C949.981 345.082 950.371 344.974 950.731 344.758C951.103 344.542 951.403 344.242 951.631 343.858C951.859 343.462 951.973 343.012 951.973 342.508V338.764C951.973 338.512 951.907 338.326 951.775 338.206C951.643 338.074 951.433 338.008 951.145 338.008H950.533V337.558L953.053 336.982H953.521V344.254C953.521 344.518 953.581 344.71 953.701 344.83C953.821 344.938 954.031 344.992 954.331 344.992H954.997V345.442L952.423 346.054H951.973V344.056C951.685 344.716 951.283 345.232 950.767 345.604C950.251 345.964 949.663 346.144 949.003 346.144Z" fill="white"/>
<path d="M960.427 346.144C959.587 346.144 958.843 345.958 958.195 345.586C957.547 345.214 957.043 344.698 956.683 344.038C956.335 343.366 956.161 342.592 956.161 341.716C956.161 340.972 956.275 340.306 956.503 339.718C956.731 339.118 957.043 338.608 957.439 338.188C957.847 337.768 958.315 337.45 958.843 337.234C959.383 337.006 959.959 336.892 960.571 336.892C961.159 336.892 961.669 336.988 962.101 337.18C962.545 337.372 962.911 337.642 963.199 337.99C963.499 338.338 963.715 338.74 963.847 339.196C963.979 339.652 964.033 340.15 964.009 340.69H957.493V340.114H961.669C961.813 340.114 961.933 340.09 962.029 340.042C962.125 339.982 962.197 339.898 962.245 339.79C962.305 339.682 962.335 339.556 962.335 339.412C962.335 338.872 962.167 338.416 961.831 338.044C961.495 337.66 961.033 337.468 960.445 337.468C960.049 337.468 959.683 337.558 959.347 337.738C959.011 337.906 958.723 338.152 958.483 338.476C958.243 338.8 958.057 339.184 957.925 339.628C957.793 340.072 957.727 340.564 957.727 341.104C957.727 341.896 957.859 342.586 958.123 343.174C958.387 343.762 958.759 344.218 959.239 344.542C959.731 344.854 960.313 345.01 960.985 345.01C961.681 345.01 962.263 344.824 962.731 344.452C963.199 344.08 963.541 343.558 963.757 342.886H964.207C963.979 343.942 963.547 344.752 962.911 345.316C962.287 345.868 961.459 346.144 960.427 346.144Z" fill="white"/>
<path d="M969.076 346.144C968.644 346.144 968.254 346.096 967.906 346C967.57 345.916 967.258 345.844 966.97 345.784C966.694 345.724 966.418 345.73 966.142 345.802L965.764 343.174H966.214C966.478 343.942 966.838 344.536 967.294 344.956C967.75 345.376 968.326 345.586 969.022 345.586C969.574 345.586 970.036 345.448 970.408 345.172C970.78 344.884 970.966 344.494 970.966 344.002C970.966 343.606 970.846 343.294 970.606 343.066C970.366 342.826 970.048 342.628 969.652 342.472C969.268 342.316 968.86 342.166 968.428 342.022C967.996 341.878 967.588 341.704 967.204 341.5C966.82 341.296 966.502 341.032 966.25 340.708C966.01 340.384 965.89 339.958 965.89 339.43C965.89 338.974 965.98 338.59 966.16 338.278C966.34 337.954 966.58 337.69 966.88 337.486C967.18 337.282 967.51 337.132 967.87 337.036C968.242 336.94 968.608 336.892 968.968 336.892C969.424 336.892 969.808 336.94 970.12 337.036C970.444 337.12 970.726 337.198 970.966 337.27C971.206 337.342 971.446 337.354 971.686 337.306L971.848 339.646H971.38C971.284 339.166 971.116 338.764 970.876 338.44C970.648 338.116 970.366 337.87 970.03 337.702C969.694 337.534 969.328 337.45 968.932 337.45C968.476 337.45 968.068 337.576 967.708 337.828C967.348 338.068 967.168 338.416 967.168 338.872C967.168 339.256 967.288 339.562 967.528 339.79C967.78 340.006 968.098 340.192 968.482 340.348C968.878 340.492 969.292 340.636 969.724 340.78C970.168 340.912 970.582 341.08 970.966 341.284C971.362 341.488 971.68 341.758 971.92 342.094C972.172 342.43 972.298 342.874 972.298 343.426C972.298 343.978 972.16 344.458 971.884 344.866C971.608 345.262 971.23 345.574 970.75 345.802C970.27 346.03 969.712 346.144 969.076 346.144Z" fill="white"/>
<path d="M978.855 344.11H979.305C979.257 344.482 979.137 344.824 978.945 345.136C978.753 345.436 978.501 345.682 978.189 345.874C977.889 346.054 977.547 346.144 977.163 346.144C976.719 346.144 976.323 346.06 975.975 345.892C975.639 345.724 975.375 345.472 975.183 345.136C975.003 344.788 974.913 344.35 974.913 343.822V337.828H973.401V337.36C973.737 337.324 974.049 337.24 974.337 337.108C974.625 336.976 974.883 336.814 975.111 336.622C975.351 336.43 975.549 336.214 975.705 335.974C975.861 335.722 975.975 335.446 976.047 335.146H976.497V337.036H978.927V337.828H976.479V343.714C976.479 344.014 976.521 344.272 976.605 344.488C976.701 344.704 976.839 344.872 977.019 344.992C977.199 345.1 977.409 345.154 977.649 345.154C977.937 345.154 978.189 345.058 978.405 344.866C978.633 344.674 978.783 344.422 978.855 344.11Z" fill="white"/>
<path d="M980.215 346V345.55C980.767 345.478 981.151 345.358 981.367 345.19C981.583 345.022 981.691 344.752 981.691 344.38V338.764C981.691 338.5 981.625 338.308 981.493 338.188C981.361 338.068 981.151 338.008 980.863 338.008H980.251V337.558L982.771 336.982H983.221V344.38C983.221 344.74 983.329 345.01 983.545 345.19C983.773 345.358 984.157 345.478 984.697 345.55V346H980.215ZM982.465 335.398C982.189 335.398 981.949 335.302 981.745 335.11C981.553 334.906 981.457 334.666 981.457 334.39C981.457 334.198 981.499 334.03 981.583 333.886C981.679 333.73 981.805 333.61 981.961 333.526C982.117 333.43 982.285 333.382 982.465 333.382C982.753 333.382 982.993 333.478 983.185 333.67C983.377 333.862 983.473 334.102 983.473 334.39C983.473 334.57 983.425 334.738 983.329 334.894C983.245 335.05 983.125 335.176 982.969 335.272C982.825 335.356 982.657 335.398 982.465 335.398Z" fill="white"/>
<path d="M990.295 346.144C989.431 346.144 988.663 345.946 987.991 345.55C987.331 345.154 986.809 344.608 986.425 343.912C986.041 343.216 985.849 342.412 985.849 341.5C985.849 340.828 985.957 340.21 986.173 339.646C986.389 339.082 986.695 338.596 987.091 338.188C987.487 337.768 987.955 337.45 988.495 337.234C989.035 337.006 989.635 336.892 990.295 336.892C991.171 336.892 991.939 337.09 992.599 337.486C993.259 337.87 993.775 338.41 994.147 339.106C994.519 339.79 994.705 340.588 994.705 341.5C994.705 342.184 994.597 342.814 994.381 343.39C994.165 343.954 993.859 344.446 993.463 344.866C993.079 345.274 992.617 345.592 992.077 345.82C991.537 346.036 990.943 346.144 990.295 346.144ZM990.295 345.55C990.619 345.55 990.919 345.49 991.195 345.37C991.483 345.25 991.735 345.076 991.951 344.848C992.167 344.608 992.353 344.326 992.509 344.002C992.665 343.666 992.779 343.288 992.851 342.868C992.935 342.448 992.977 341.992 992.977 341.5C992.977 340.684 992.869 339.976 992.653 339.376C992.437 338.776 992.125 338.314 991.717 337.99C991.321 337.654 990.847 337.486 990.295 337.486C989.959 337.486 989.647 337.546 989.359 337.666C989.083 337.786 988.831 337.966 988.603 338.206C988.387 338.434 988.201 338.716 988.045 339.052C987.889 339.376 987.769 339.748 987.685 340.168C987.613 340.576 987.577 341.02 987.577 341.5C987.577 342.316 987.685 343.03 987.901 343.642C988.129 344.254 988.441 344.728 988.837 345.064C989.245 345.388 989.731 345.55 990.295 345.55Z" fill="white"/>
<path d="M999.12 338.944C999.384 338.284 999.798 337.78 1000.36 337.432C1000.93 337.072 1001.55 336.892 1002.23 336.892C1002.81 336.892 1003.31 337.018 1003.73 337.27C1004.16 337.51 1004.49 337.858 1004.72 338.314C1004.96 338.77 1005.08 339.304 1005.08 339.916V344.434C1005.08 344.758 1005.18 345.01 1005.38 345.19C1005.59 345.358 1005.98 345.478 1006.55 345.55V346H1002.13V345.55C1002.67 345.478 1003.03 345.364 1003.22 345.208C1003.43 345.04 1003.53 344.782 1003.53 344.434V340.042C1003.53 339.382 1003.36 338.872 1003.03 338.512C1002.69 338.14 1002.19 337.954 1001.53 337.954C1001.17 337.954 1000.81 338.056 1000.43 338.26C1000.06 338.464 999.75 338.752 999.498 339.124C999.246 339.484 999.12 339.922 999.12 340.438V344.434C999.12 344.782 999.222 345.04 999.426 345.208C999.642 345.364 1000.01 345.478 1000.54 345.55V346H996.114V345.55C996.69 345.478 997.074 345.364 997.266 345.208C997.47 345.04 997.572 344.782 997.572 344.434V338.764C997.572 338.512 997.506 338.326 997.374 338.206C997.254 338.074 997.05 338.008 996.762 338.008H996.15V337.558L998.67 336.982H999.12V338.944Z" fill="white"/>
<path d="M1011 346.144C1010.57 346.144 1010.18 346.096 1009.83 346C1009.5 345.916 1009.19 345.844 1008.9 345.784C1008.62 345.724 1008.35 345.73 1008.07 345.802L1007.69 343.174H1008.14C1008.41 343.942 1008.77 344.536 1009.22 344.956C1009.68 345.376 1010.25 345.586 1010.95 345.586C1011.5 345.586 1011.96 345.448 1012.34 345.172C1012.71 344.884 1012.89 344.494 1012.89 344.002C1012.89 343.606 1012.77 343.294 1012.53 343.066C1012.29 342.826 1011.98 342.628 1011.58 342.472C1011.2 342.316 1010.79 342.166 1010.36 342.022C1009.92 341.878 1009.52 341.704 1009.13 341.5C1008.75 341.296 1008.43 341.032 1008.18 340.708C1007.94 340.384 1007.82 339.958 1007.82 339.43C1007.82 338.974 1007.91 338.59 1008.09 338.278C1008.27 337.954 1008.51 337.69 1008.81 337.486C1009.11 337.282 1009.44 337.132 1009.8 337.036C1010.17 336.94 1010.54 336.892 1010.9 336.892C1011.35 336.892 1011.74 336.94 1012.05 337.036C1012.37 337.12 1012.65 337.198 1012.89 337.27C1013.13 337.342 1013.37 337.354 1013.61 337.306L1013.78 339.646H1013.31C1013.21 339.166 1013.04 338.764 1012.8 338.44C1012.58 338.116 1012.29 337.87 1011.96 337.702C1011.62 337.534 1011.26 337.45 1010.86 337.45C1010.4 337.45 1010 337.576 1009.64 337.828C1009.28 338.068 1009.1 338.416 1009.1 338.872C1009.1 339.256 1009.22 339.562 1009.46 339.79C1009.71 340.006 1010.03 340.192 1010.41 340.348C1010.81 340.492 1011.22 340.636 1011.65 340.78C1012.1 340.912 1012.51 341.08 1012.89 341.284C1013.29 341.488 1013.61 341.758 1013.85 342.094C1014.1 342.43 1014.23 342.874 1014.23 343.426C1014.23 343.978 1014.09 344.458 1013.81 344.866C1013.54 345.262 1013.16 345.574 1012.68 345.802C1012.2 346.03 1011.64 346.144 1011 346.144Z" fill="white"/>
<path d="M1017.25 346.126C1016.93 346.126 1016.65 346.018 1016.43 345.802C1016.21 345.574 1016.1 345.304 1016.1 344.992C1016.1 344.788 1016.15 344.602 1016.25 344.434C1016.35 344.254 1016.5 344.116 1016.68 344.02C1016.86 343.924 1017.05 343.876 1017.25 343.876C1017.58 343.876 1017.85 343.984 1018.06 344.2C1018.29 344.416 1018.41 344.68 1018.41 344.992C1018.41 345.196 1018.35 345.388 1018.24 345.568C1018.15 345.748 1018.01 345.886 1017.83 345.982C1017.66 346.078 1017.47 346.126 1017.25 346.126Z" fill="white"/>
<path d="M492.632 8.35377V11.2588C491.322 9.16447 489.289 7.88086 486.773 7.88086C481.396 7.88086 478.363 11.833 478.363 17.1364C478.363 22.4735 481.431 26.5608 486.842 26.5608C489.357 26.5608 491.356 25.2772 492.632 23.1829V26.0879H496.836V8.35377H492.632ZM487.669 23.0478C484.601 23.0478 482.844 20.2441 482.844 17.1364C482.844 14.0963 484.567 11.4277 487.738 11.4277C490.357 11.4277 492.597 13.2855 492.597 17.0688C492.597 20.7846 490.46 23.0478 487.669 23.0478Z" fill="#F8FFFB"/>
<path d="M500.457 8.35547V26.0896H504.937V8.35547H500.457Z" fill="#F8FFFB"/>
<path d="M513.195 12.7461V8.3548H508.715V26.0889H513.195V15.9551C513.195 13.3541 515.022 12.307 516.745 12.307C517.745 12.307 518.778 12.5772 519.33 12.7799V8.05078C516.4 8.05078 513.988 9.77353 513.195 12.7461Z" fill="#F8FFFB"/>
<path d="M520.426 13.7594C520.426 19.2655 524.286 23.1839 529.835 23.1839C535.418 23.1839 539.244 19.2655 539.244 13.7594C539.244 8.35475 535.418 4.50391 529.835 4.50391C524.286 4.50391 520.426 8.35475 520.426 13.7594ZM534.763 13.7594C534.763 17.2049 532.867 19.6708 529.835 19.6708C526.767 19.6708 524.906 17.2049 524.906 13.7594C524.906 10.4491 526.767 8.05073 529.835 8.05073C532.867 8.05073 534.763 10.4491 534.763 13.7594Z" fill="#F8FFFB"/>
<path d="M551.737 7.88086C549.118 7.88086 546.981 9.40093 545.844 11.833V8.35377H541.363V31.9993H545.844V22.9127C547.119 25.1083 549.497 26.5608 552.013 26.5608C556.907 26.5608 560.319 22.8113 560.319 17.4404C560.319 11.7993 556.769 7.88086 551.737 7.88086ZM550.944 23.2505C547.946 23.2505 545.844 20.7846 545.844 17.2715C545.844 13.6571 547.946 11.1237 550.944 11.1237C553.805 11.1237 555.838 13.7247 555.838 17.4066C555.838 20.8521 553.805 23.2505 550.944 23.2505Z" fill="#F8FFFB"/>
<path d="M561.754 19.9401C561.754 23.1491 564.649 26.5608 570.439 26.5608C576.263 26.5608 578.366 23.2167 578.366 20.6157C578.366 16.6297 573.575 15.9203 570.37 15.3123C568.199 14.9407 566.82 14.6367 566.82 13.4207C566.82 12.0357 568.371 11.1575 570.025 11.1575C572.266 11.1575 573.127 12.6775 573.196 14.2989H577.677C577.677 11.6641 575.781 7.88086 569.922 7.88086C564.856 7.88086 562.34 10.6845 562.34 13.6909C562.34 17.9809 567.199 18.42 570.405 19.028C572.266 19.3658 573.885 19.7712 573.885 21.0886C573.885 22.406 572.3 23.2842 570.611 23.2842C569.026 23.2842 566.234 22.406 566.234 19.9401H561.754Z" fill="#F8FFFB"/>
<path d="M502.773 6.19288C500.933 6.19288 499.613 4.89943 499.613 3.13563C499.613 1.37184 500.933 0 502.773 0C504.532 0 505.932 1.37184 505.932 3.13563C505.932 4.89943 504.532 6.19288 502.773 6.19288Z" fill="#F8FFFB"/>
</svg>
