<svg width="1133" height="212" viewBox="0 0 1133 212" fill="none" xmlns="http://www.w3.org/2000/svg">
<path d="M1133 54.4134H1073.64V205.56H1001.92V54.4134H942.555V3.02344H1133V54.4134Z" fill="white"/>
<path d="M936.509 54.1138H841.289V86.3494H895.317V129.229H841.289V205.56H770.247V3.02344H936.509V54.1138Z" fill="white"/>
<path d="M764.201 205.56H687.993L679.153 173.933H620.929L610.87 205.56H546.55L617.576 3.02344H692.87L764.201 205.56ZM667.569 131.966L652.327 73.2727L634.342 131.966H667.569Z" fill="white"/>
<path d="M540.504 205.56H477.53C467.236 205.56 461.181 190.659 461.181 174.237V146.563C461.181 137.44 457.245 129.229 444.832 129.229H416.07V205.56H344.013V3.02344H462.392C502.962 3.02344 530.513 25.8316 530.513 57.1549V64.1494C530.513 84.2207 517.494 101.859 495.696 107.637C520.219 112.199 531.421 130.141 531.421 148.996V171.804C531.421 184.577 534.752 195.525 540.504 204.648V205.56ZM459.364 77.8344V70.2316C459.364 57.7631 453.309 52.5933 438.474 52.5933H416.07V95.4727H438.474C453.309 95.4727 459.364 89.6946 459.364 77.8344Z" fill="white"/>
<path d="M337.967 52.1435L292.553 76.0932C284.379 63.9668 268.938 53.6594 250.772 53.6594C228.974 53.6594 215.349 65.1794 215.349 83.0659V128.54C215.349 146.426 228.974 157.946 250.772 157.946C268.938 157.946 285.287 147.336 292.553 135.513L336.15 159.462C325.251 187.959 290.131 211.606 245.928 211.606C184.165 211.606 141.476 175.53 141.476 126.721V84.8848C141.476 36.0761 184.165 0 245.928 0C290.131 0 326.765 23.6465 337.967 52.1435Z" fill="white"/>
<path d="M130.033 146.554C125.358 146.554 122.053 145.345 120.118 142.926C119.151 141.878 118.465 140.629 118.062 139.178C117.659 137.727 117.458 136.235 117.458 134.704C117.458 132.769 117.7 130.834 118.183 128.9C118.667 126.884 119.272 125.03 119.997 123.338C121.126 120.677 122.617 118.017 124.471 115.357C126.325 112.616 128.542 110.319 131.121 108.465C133.782 106.611 136.684 105.684 139.828 105.684C141.923 105.684 143.576 106.208 144.785 107.256C145.994 108.303 146.599 109.916 146.599 112.092C146.599 114.591 145.833 117.13 144.301 119.71C142.77 122.209 140.835 124.305 138.497 125.998C136.16 127.691 133.741 128.537 131.242 128.537C128.985 128.537 127.01 127.731 125.317 126.119C124.834 127.408 124.431 128.859 124.108 130.472C123.786 132.003 123.625 133.575 123.625 135.187C123.625 137.686 124.108 139.863 125.076 141.717C126.124 143.571 127.978 144.498 130.638 144.498C132.572 144.498 134.427 144.014 136.2 143.047C138.054 141.999 139.707 140.75 141.158 139.299C142.77 137.606 144.301 135.792 145.752 133.857C147.203 131.923 148.614 129.666 149.985 127.086C150.146 126.844 150.267 126.723 150.347 126.723C150.67 126.723 150.831 127.086 150.831 127.812C150.831 128.295 150.67 128.819 150.347 129.383C149.138 131.56 147.727 133.777 146.115 136.034C144.503 138.21 142.85 140.105 141.158 141.717C139.626 143.168 137.973 144.337 136.2 145.224C134.427 146.11 132.371 146.554 130.033 146.554ZM125.922 124.305C126.486 125.111 127.131 125.716 127.857 126.119C128.663 126.441 129.469 126.602 130.275 126.602C132.21 126.602 134.225 125.877 136.321 124.426C138.417 122.894 140.11 121.121 141.399 119.105C141.964 118.219 142.447 117.05 142.85 115.599C143.334 114.148 143.576 112.777 143.576 111.488C143.576 110.359 143.334 109.392 142.85 108.586C142.447 107.699 141.601 107.256 140.311 107.256C138.86 107.256 137.127 108.142 135.112 109.916C133.177 111.689 131.323 113.987 129.55 116.808C128.985 117.775 128.34 118.904 127.615 120.194C126.97 121.483 126.406 122.854 125.922 124.305Z" fill="white"/>
<path d="M13.0591 156.225C12.0918 155.741 11.326 155.056 10.7617 154.169C10.278 153.282 10.0362 152.396 10.0362 151.509C10.0362 150.622 10.278 149.897 10.7617 149.332C11.0035 149.01 11.2857 148.808 11.6081 148.728C12.0112 148.728 12.1321 148.929 11.9709 149.332C11.729 150.542 12.2933 151.67 13.6637 152.718C15.0341 153.766 16.2836 154.451 17.4121 154.774C18.6213 155.016 19.8305 155.136 21.0397 155.136C23.5386 155.136 25.7555 154.774 27.6901 154.048C30.5922 153.081 33.4539 151.106 36.2753 148.123C39.1773 145.141 41.8778 141.755 44.3768 137.966C46.7951 134.258 49.1732 130.066 51.5109 125.391C53.9293 120.635 56.3476 115.758 58.766 110.76C61.2649 105.681 63.9251 100.804 66.7465 96.1287C69.5679 91.3726 72.5909 87.1405 75.8153 83.4323C79.1204 79.6436 82.7479 76.7416 86.6979 74.7263L64.0863 70.736C62.3129 70.4135 60.2976 70.212 58.0405 70.1314C55.7833 69.9702 53.4053 69.8896 50.9063 69.8896C46.4727 69.8896 42.039 70.1717 37.6054 70.736C33.1717 71.2197 29.6248 72.0661 26.9646 73.2752C22.2892 75.3712 18.2586 78.2732 14.8729 81.9813C11.4872 85.6088 9.79434 90.1634 9.79434 95.645C9.79434 97.9021 10.1571 99.8368 10.8826 101.449C11.6887 102.981 12.6964 104.15 13.9055 104.956C15.2759 105.762 16.6866 106.165 18.1377 106.165C19.9111 106.165 21.7249 105.641 23.5789 104.593C25.433 103.464 27.0452 101.852 28.4156 99.7562C29.0605 98.7082 29.6651 97.1766 30.2294 95.1613C30.8743 93.146 31.1968 91.0904 31.1968 88.9945C31.1968 87.866 31.0758 86.7777 30.834 85.7298C30.6728 84.6818 30.31 83.7548 29.7457 82.9487C29.5845 82.6262 29.5039 82.465 29.5039 82.465C29.5039 82.2231 29.6248 82.1022 29.8667 82.1022C30.1891 82.1022 30.4712 82.3038 30.7131 82.7068C31.1161 83.2711 31.5192 84.1578 31.9223 85.367C32.4059 86.4956 32.7284 87.5435 32.8896 88.5109C32.9702 88.9945 33.0105 89.4782 33.0105 89.9619C33.0911 90.4455 33.1314 90.9292 33.1314 91.4129C33.1314 93.0251 32.9299 94.6777 32.5268 96.3705C32.1238 97.9827 31.4789 99.4741 30.5922 100.844C29.3024 103.021 27.5692 104.674 25.3927 105.802C23.2162 106.85 20.9591 107.374 18.6213 107.374C16.7673 107.374 14.9938 107.011 13.301 106.286C10.802 105.077 8.94792 103.343 7.73874 101.086C6.61018 98.8292 6.0459 96.3705 6.0459 93.7103C6.0459 91.9369 6.24743 90.1634 6.65049 88.3899C7.13416 86.5359 7.77905 84.7624 8.58517 83.0696C9.95557 80.0869 11.8499 77.4671 14.2683 75.2099C16.6866 72.9528 19.105 71.1793 21.5233 69.8896C25.5539 67.713 29.5845 66.1814 33.6151 65.2947C37.7263 64.408 41.8778 63.9646 46.0696 63.9646C49.5359 63.9646 53.0425 64.2064 56.5894 64.6901C60.1364 65.1738 63.7236 65.859 67.3511 66.7457C73.7194 68.2773 80.1684 69.7283 86.6979 71.0987C93.2275 72.3885 99.8779 73.3962 106.649 74.1217C109.471 70.736 112.453 67.6727 115.597 64.9319C118.822 62.1105 122.207 59.7728 125.754 57.9187C127.85 56.8708 130.067 56.0243 132.405 55.3794C134.742 54.7346 137 54.4121 139.176 54.4121C142.804 54.4121 145.585 55.4198 147.519 57.435C149.454 59.4503 150.421 61.7478 150.421 64.3273C150.421 66.1008 149.938 67.8743 148.97 69.6477C148.003 71.4212 146.471 72.9528 144.376 74.2426C141.635 75.8548 138.652 76.9431 135.428 77.5074C132.203 78.0716 128.858 78.3538 125.392 78.3538C122.57 78.3538 119.708 78.2329 116.806 77.991C113.904 77.7492 111.083 77.5477 108.342 77.3864C105.843 81.0946 103.505 84.9639 101.329 88.9945C99.233 92.9445 97.3387 96.7736 95.6458 100.482C93.953 104.109 92.4617 107.374 91.1719 110.276C90.2045 112.614 89.3581 114.589 88.6326 116.201C87.9877 117.733 87.3831 119.143 86.8188 120.433C86.3352 121.723 85.7709 123.174 85.126 124.786C86.4158 122.851 87.8668 120.756 89.479 118.498C91.1719 116.161 92.6632 114.347 93.953 113.057C95.807 111.203 97.6611 109.631 99.5152 108.341C101.369 107.052 103.183 106.326 104.956 106.165C107.697 105.923 109.672 106.286 110.881 107.253C112.091 108.14 112.695 109.47 112.695 111.243C112.695 113.017 112.212 114.992 111.244 117.168C110.196 119.667 108.947 122.166 107.496 124.665C106.045 127.164 104.715 129.583 103.505 131.92C103.183 132.565 102.578 133.815 101.692 135.669C100.886 137.442 100.362 139.135 100.12 140.747C100.12 140.828 100.079 140.949 99.9988 141.11C99.9988 141.271 99.9988 141.432 99.9988 141.594C99.9988 142.48 100.241 143.166 100.724 143.649C101.208 144.052 101.772 144.254 102.417 144.254C103.788 144.254 105.077 143.81 106.287 142.924C107.496 142.037 108.544 141.07 109.43 140.022C111.284 138.006 112.977 135.79 114.509 133.371C116.041 130.953 117.572 128.373 119.104 125.633C119.346 125.31 119.587 125.149 119.829 125.149C120.152 125.149 120.313 125.391 120.313 125.874C120.313 126.277 120.232 126.6 120.071 126.842C118.62 129.502 117.048 132.162 115.355 134.822C113.743 137.482 111.768 139.981 109.43 142.319C108.382 143.367 107.173 144.334 105.803 145.221C104.432 146.027 102.901 146.43 101.208 146.43C98.4672 146.43 96.5325 145.665 95.404 144.133C94.356 142.521 93.832 140.747 93.832 138.813C93.832 137.281 94.1142 135.749 94.6785 134.218C96.0489 130.671 97.9432 127.285 100.362 124.061C102.78 120.836 104.795 117.491 106.407 114.024C106.972 112.977 107.254 112.009 107.254 111.122C107.254 110.155 106.972 109.43 106.407 108.946C105.843 108.462 105.239 108.22 104.594 108.22C103.062 108.22 101.369 108.906 99.5152 110.276C97.7417 111.566 96.0086 113.218 94.3157 115.234C92.7841 117.007 91.2122 119.063 89.5999 121.4C87.9877 123.658 86.4561 126.076 85.0051 128.655C83.6347 130.993 82.224 133.452 80.773 136.031C79.3219 138.53 78.1531 140.667 77.2663 142.44C76.6214 143.81 75.9363 144.697 75.2107 145.1C74.4852 145.503 73.8 145.705 73.1551 145.705C72.8327 145.705 72.5103 145.665 72.1878 145.584C71.8654 145.584 71.5832 145.584 71.3414 145.584C72.0669 142.843 73.397 139.054 75.3317 134.218C77.2663 129.3 79.6041 123.537 82.3449 116.926C85.0051 110.478 88.1489 103.746 91.7764 96.7333C95.4846 89.6394 99.6764 83.0696 104.352 77.0237C102.981 76.7819 101.329 76.54 99.3943 76.2982C97.5402 76.0564 95.7667 75.8145 94.0739 75.5727C92.381 75.3308 91.0912 75.1696 90.2045 75.089C87.5443 76.2982 84.7632 78.5956 81.8612 81.9813C78.3143 86.1731 75.251 90.6471 72.6715 95.4032C70.0919 100.079 67.7139 104.915 65.5373 109.913C63.3608 114.831 61.1037 119.708 58.766 124.544C56.5088 129.381 53.8083 134.016 50.6645 138.45C47.8431 142.4 44.6589 145.947 41.112 149.091C37.5651 152.234 33.5345 154.612 29.0202 156.225C26.5213 157.111 23.5386 157.555 20.0723 157.555C18.7019 157.555 17.4121 157.434 16.203 157.192C14.9938 157.031 13.9458 156.708 13.0591 156.225ZM110.398 74.4844C112.574 74.6456 115.114 74.8875 118.016 75.2099C120.998 75.4518 123.981 75.5727 126.963 75.5727C130.027 75.5727 133.05 75.3711 136.032 74.9681C139.015 74.4844 141.554 73.5977 143.65 72.3079C145.182 71.3406 146.27 70.2523 146.915 69.0431C147.64 67.834 148.003 66.5845 148.003 65.2947C148.003 63.0376 147.036 61.0223 145.101 59.2488C143.166 57.3947 140.627 56.4677 137.483 56.4677C135.952 56.4677 134.299 56.6289 132.526 56.9514C130.833 57.2738 129.059 57.8784 127.205 58.7651C124.223 60.1355 121.321 62.2314 118.499 65.0529C115.678 67.7937 112.977 70.9375 110.398 74.4844Z" fill="white"/>
<path d="M140.313 107.258C141.442 107.258 142.231 107.597 142.68 108.276L143.023 108.896C143.393 109.637 143.578 110.501 143.578 111.488C143.578 112.778 143.335 114.15 142.852 115.601C142.449 117.052 141.963 118.221 141.399 119.108C140.109 121.123 138.417 122.896 136.322 124.427C134.226 125.878 132.21 126.603 130.276 126.603C129.47 126.603 128.664 126.441 127.858 126.119C127.133 125.716 126.488 125.112 125.924 124.306C126.408 122.856 126.971 121.484 127.616 120.194C128.341 118.905 128.986 117.778 129.55 116.811C131.323 113.99 133.18 111.691 135.114 109.918C137.129 108.145 138.862 107.258 140.313 107.258ZM129.671 135.188C129.671 136.592 129.894 137.639 130.214 138.432C130.321 138.443 130.461 138.453 130.639 138.453C131.506 138.453 132.358 138.248 133.272 137.756C134.632 136.982 135.815 136.081 136.844 135.058C137.534 134.33 138.212 133.578 138.872 132.797C136.504 133.941 133.952 134.585 131.244 134.586C130.718 134.586 130.199 134.556 129.688 134.503C129.68 134.729 129.671 134.958 129.671 135.188ZM149.987 127.087C148.616 129.667 147.205 131.925 145.754 133.859C144.303 135.794 142.772 137.607 141.16 139.3C139.709 140.751 138.055 142.001 136.201 143.049C134.427 144.016 132.573 144.499 130.639 144.499C127.979 144.499 126.125 143.572 125.077 141.718C124.11 139.864 123.625 137.686 123.625 135.188C123.625 133.576 123.786 132.004 124.109 130.473C124.431 128.861 124.835 127.409 125.319 126.119C127.012 127.731 128.987 128.54 131.244 128.54C133.743 128.539 136.16 127.691 138.497 125.998C140.835 124.305 142.77 122.211 144.301 119.713C145.833 117.133 146.601 114.592 146.601 112.094C146.601 109.917 145.994 108.306 144.785 107.258C143.576 106.21 141.924 105.685 139.829 105.685C136.685 105.685 133.783 106.612 131.123 108.465C128.543 110.319 126.326 112.618 124.472 115.359C122.618 118.018 121.128 120.678 119.999 123.338C119.69 124.061 119.406 124.815 119.14 125.596C119.13 125.61 119.118 125.624 119.108 125.638C117.577 128.378 116.046 130.957 114.515 133.375C113.597 134.824 112.619 136.198 111.586 137.502C111.473 136.578 111.412 135.646 111.412 134.707C111.412 132.263 111.718 129.835 112.318 127.436C112.87 125.149 113.572 122.985 114.441 120.959C115.75 117.877 117.452 114.858 119.512 111.902C121.74 108.625 124.435 105.827 127.595 103.556L127.631 103.532L127.666 103.506C131.306 100.969 135.408 99.6387 139.829 99.6387C142.727 99.6387 145.732 100.33 148.248 102.281L148.747 102.688C151.711 105.257 152.647 108.827 152.647 112.094L152.632 112.802C152.526 115.546 151.798 118.181 150.613 120.687C151.828 120.737 153.089 121.132 154.188 121.956C155.292 122.785 155.904 123.795 156.236 124.542C156.837 125.895 156.877 127.19 156.877 127.813C156.877 129.616 156.288 131.151 155.631 132.318C154.3 134.715 152.765 137.129 151.035 139.551L150.976 139.634C149.189 142.046 147.308 144.21 145.328 146.096L145.317 146.108C143.381 147.942 141.243 149.464 138.905 150.633C136.154 152.008 133.143 152.602 130.034 152.602C124.618 152.602 119.252 151.232 115.678 147.029C114.229 145.459 113.177 143.644 112.504 141.659L112.238 140.797C112.127 140.396 112.029 139.994 111.94 139.589C113.219 138.063 114.362 136.478 115.362 134.828C116.2 133.51 117.006 132.19 117.785 130.872C117.574 132.15 117.458 133.428 117.458 134.707L117.496 135.846C117.572 136.98 117.761 138.091 118.063 139.179C118.466 140.63 119.15 141.88 120.118 142.928C122.052 145.346 125.358 146.556 130.034 146.556C132.371 146.556 134.427 146.111 136.201 145.225C137.974 144.338 139.628 143.169 141.16 141.718C142.853 140.106 144.505 138.211 146.117 136.035C147.729 133.778 149.138 131.56 150.347 129.384C150.589 128.96 150.741 128.56 150.802 128.182L150.831 127.813C150.831 127.088 150.669 126.724 150.347 126.724C150.266 126.725 150.147 126.847 149.987 127.087Z" fill="#5A3480"/>
<path d="M125.313 126.116C125.628 126.416 125.956 126.681 126.29 126.925C126.185 127.782 125.926 128.76 125.375 129.736L125.378 129.739C124.856 130.695 124.314 131.647 123.763 132.602C123.843 131.883 123.955 131.173 124.103 130.471C124.425 128.858 124.83 127.406 125.313 126.116ZM126.078 123.849C126.171 124.178 126.237 124.487 126.279 124.77C126.156 124.622 126.034 124.469 125.918 124.304C125.969 124.151 126.025 124 126.078 123.849ZM23.4603 82.3133C21.9766 83.4302 20.6002 84.675 19.3362 86.0595L19.3155 86.0831L19.2919 86.1067C17.0641 88.4936 15.8409 91.5235 15.8409 95.6478L15.8527 96.2294C15.9025 97.4182 16.1081 98.2454 16.3369 98.8125C16.65 99.3647 16.9293 99.6623 17.1339 99.828C17.5809 100.064 17.8942 100.12 18.1376 100.12C18.6611 100.12 19.4251 99.9749 20.4993 99.3852C21.4331 98.8024 22.3783 97.9083 23.292 96.5335C23.5152 96.1497 23.9285 95.2434 24.4079 93.5312L24.4374 93.4249L24.4699 93.3186C24.9257 91.8938 25.1488 90.4606 25.1488 88.9968L25.137 88.4861C25.1099 87.9893 25.0426 87.5249 24.9422 87.0897L24.892 86.8713L24.8566 86.6499C24.8392 86.5374 24.8186 86.4757 24.8094 86.4521C24.801 86.4309 24.7954 86.4221 24.7916 86.4167L24.5378 86.0536L24.337 85.655C24.327 85.6349 24.3169 85.6148 24.3075 85.596C24.3052 85.5913 24.3069 85.5918 24.3045 85.5871L24.3016 85.5842V85.5812L24.2986 85.5753L24.2957 85.5724V85.5665C24.2913 85.5577 24.2911 85.5632 24.2868 85.5547C24.2835 85.548 24.2872 85.5524 24.2839 85.5458V85.5428L24.2809 85.5399C24.2681 85.5142 24.2821 85.5393 24.2691 85.5133L24.2632 85.5074V85.5045L24.2603 85.5015L24.2544 85.4897V85.4838H24.2514L24.2307 85.4425C24.2235 85.428 24.2291 85.4332 24.2219 85.4189C24.2187 85.4125 24.2189 85.4159 24.216 85.41L24.213 85.407V85.4041L24.2101 85.4011V85.3982L24.2071 85.3923L24.2042 85.3893V85.3834L24.2012 85.3775L24.1953 85.3687L24.1924 85.3628L24.1894 85.3598L24.1865 85.3539V85.351C24.1842 85.3464 24.1858 85.3496 24.1835 85.3451V85.3421H24.1806L24.1776 85.3362V85.3332C24.1748 85.3277 24.1741 85.3292 24.1717 85.3244C24.1689 85.3188 24.1655 85.312 24.1628 85.3067C24.1579 85.2968 24.1651 85.3083 24.1599 85.2978L24.1569 85.2949V85.2919C24.147 85.2721 24.1379 85.2538 24.1304 85.2388C24.1178 85.2136 24.1198 85.2205 24.1097 85.2004V85.1945H24.1068V85.1915L24.1038 85.1886L24.1009 85.1768H24.0979V85.1709H24.095L23.4573 83.8926V82.4668C23.4573 82.4175 23.459 82.3661 23.4603 82.3133ZM137.482 56.4677C140.626 56.4677 143.166 57.3975 145.101 59.2515C147.035 61.0248 148.003 63.0407 148.003 65.2974C148.003 66.5866 147.639 67.835 146.914 69.0436C146.269 70.2528 145.18 71.3413 143.649 72.3086C141.553 73.5982 139.014 74.4848 136.032 74.9685C133.05 75.3715 130.026 75.5736 126.963 75.5736C123.981 75.5736 120.998 75.4523 118.016 75.2105C115.114 74.8881 112.573 74.6485 110.396 74.4873C112.976 70.9404 115.678 67.7961 118.5 65.0553C121.321 62.234 124.223 60.1378 127.206 58.7674C129.059 57.8808 130.832 57.2743 132.525 56.9519C134.298 56.6295 135.95 56.4678 137.482 56.4677ZM137.482 62.5136C136.379 62.5137 135.105 62.6278 133.644 62.8915C132.552 63.1007 131.279 63.5185 129.812 64.2199L129.73 64.2612C127.522 65.2757 125.195 66.9095 122.774 69.33L122.742 69.3595L122.712 69.392C122.697 69.407 122.681 69.4212 122.665 69.4362C124.098 69.4953 125.531 69.5278 126.963 69.5278C129.733 69.5277 132.458 69.3464 135.141 68.9875C137.462 68.6031 139.182 67.9497 140.454 67.172C141.336 66.6091 141.558 66.2401 141.579 66.2008L141.65 66.065L141.73 65.9351C141.945 65.5767 141.957 65.3909 141.957 65.2974L141.936 65.0465C141.893 64.8035 141.756 64.4681 141.317 64.0015L141.015 63.7062L140.965 63.662L140.918 63.6147C140.302 63.0241 139.356 62.5136 137.482 62.5136ZM119.102 125.635C117.571 128.375 116.04 130.955 114.509 133.373C112.977 135.791 111.285 138.008 109.431 140.024C108.544 141.071 107.496 142.039 106.287 142.926C105.078 143.812 103.787 144.254 102.417 144.254C101.772 144.254 101.206 144.055 100.722 143.652C100.239 143.168 99.9991 142.481 99.9991 141.594V141.11C100.079 140.95 100.12 140.83 100.12 140.75C100.362 139.138 100.884 137.443 101.691 135.669L103.506 131.923C104.413 130.17 105.386 128.37 106.429 126.527L107.494 124.667C108.945 122.168 110.196 119.668 111.244 117.169C112.211 114.992 112.696 113.017 112.696 111.244C112.696 109.471 112.089 108.142 110.88 107.255C109.671 106.288 107.696 105.924 104.956 106.166C103.182 106.327 101.369 107.052 99.5149 108.342C97.6609 109.632 95.8072 111.205 93.9532 113.059C92.6634 114.349 91.1707 116.162 89.4778 118.5C87.8658 120.757 86.4161 122.853 85.1264 124.788C85.7713 123.176 86.3343 121.723 86.818 120.434C87.382 119.144 87.986 117.734 88.6306 116.203C89.356 114.591 90.2051 112.616 91.1723 110.278C92.4621 107.376 93.952 104.111 95.6447 100.483C97.3374 96.7755 99.2318 92.9464 101.328 88.9968C103.504 84.9665 105.843 81.0971 108.342 77.3892C111.082 77.5504 113.904 77.7496 116.805 77.9914C119.707 78.2332 122.569 78.3545 125.39 78.3545C128.856 78.3545 132.203 78.0745 135.427 77.5102C138.651 76.946 141.634 75.8572 144.375 74.2452C146.471 72.9554 148.004 71.4223 148.971 69.6488C149.938 67.8757 150.421 66.1022 150.421 64.3291C150.421 61.7496 149.454 59.4513 147.519 57.436C145.584 55.421 142.803 54.4132 139.176 54.4131C137 54.4131 134.742 54.7365 132.404 55.3814C130.066 56.0262 127.849 56.8722 125.753 57.9201C122.206 59.7741 118.822 62.1131 115.598 64.9343C112.454 67.6751 109.472 70.7385 106.65 74.1242C99.8787 73.3987 93.2265 72.391 86.697 71.1012C80.1679 69.7309 73.7198 68.2784 67.3519 66.7469C63.7244 65.8602 60.1355 65.1759 56.5886 64.6922C53.0422 64.2086 49.5361 63.9661 46.0703 63.966C41.8787 63.966 37.7264 64.4108 33.6154 65.2974C29.5851 66.1841 25.554 67.7146 21.5237 69.8909C19.1054 71.1806 16.6857 72.9535 14.2674 75.2105C11.8491 77.4677 9.95507 80.0893 8.58468 83.0719C7.77873 84.7646 7.13466 86.5378 6.65106 88.3916C6.24803 90.1649 6.04591 91.938 6.04588 93.7113C6.04588 96.3715 6.60886 98.8314 7.73743 101.089C8.94645 103.345 10.8008 105.078 13.2992 106.287C14.992 107.013 16.7677 107.376 18.6218 107.376C20.9589 107.376 23.215 106.851 25.3909 105.803C27.5674 104.674 29.3027 103.023 30.5925 100.846C31.4792 99.4761 32.1231 97.9833 32.5261 96.3711C32.929 94.6786 33.1313 93.0265 33.1313 91.4146C33.1313 90.9309 33.0909 90.4458 33.0103 89.9621C33.0102 89.479 32.9697 88.9958 32.8892 88.5126C32.728 87.5453 32.4046 86.4972 31.9209 85.3687C31.5181 84.1601 31.1164 83.2732 30.7135 82.7088C30.4718 82.3059 30.1886 82.1038 29.8663 82.1037C29.6245 82.1037 29.5032 82.2249 29.5032 82.4668C29.5067 82.4737 29.5876 82.6356 29.7452 82.9509C30.3088 83.7562 30.6702 84.6822 30.8316 85.7288L30.8346 85.7318C31.0763 86.7795 31.1947 87.8685 31.1947 88.9968C31.1946 91.0924 30.8742 93.1487 30.2294 95.1637C29.6652 97.1786 29.0587 98.7093 28.4139 99.7572C27.0435 101.853 25.4323 103.467 23.5783 104.596C21.7247 105.643 19.9107 106.166 18.1376 106.166C16.6866 106.166 15.2747 105.762 13.9043 104.956C12.6958 104.15 11.6872 102.983 10.8814 101.452C10.156 99.8398 9.79518 97.9044 9.79503 95.6478C9.79503 90.1662 11.4869 85.6102 14.8726 81.9826C18.2583 78.2746 22.289 75.3728 26.9644 73.2769C29.2919 72.219 32.298 71.4385 35.983 70.9359L37.6037 70.7381C42.0374 70.1738 46.4722 69.8909 50.9058 69.8909C53.4047 69.8909 55.7839 69.9717 58.041 70.1329C60.2977 70.2136 62.3138 70.4157 64.0869 70.7381L86.697 74.7264C82.747 76.7417 79.1206 79.6463 75.8156 83.4351C72.5915 87.1428 69.5679 91.3736 66.7467 96.129C63.9253 100.805 61.2632 105.684 58.7643 110.763C56.3462 115.76 53.9291 120.638 51.511 125.393C49.1733 130.068 46.7941 134.261 44.3758 137.969C41.8772 141.757 39.1768 145.142 36.2753 148.124C33.4542 151.106 30.5922 153.082 27.6906 154.049C25.756 154.774 23.5383 155.138 21.0395 155.138C19.8304 155.138 18.6206 155.017 17.4114 154.775C16.5455 154.528 15.6093 154.065 14.601 153.391L13.6623 152.721C12.2921 151.673 11.7292 150.543 11.9707 149.335C12.1319 148.932 12.0106 148.729 11.6076 148.729C11.2852 148.81 11.0022 149.012 10.7604 149.335C10.2771 149.899 10.0342 150.624 10.0342 151.51C10.0342 152.397 10.2769 153.284 10.7604 154.17C11.3243 155.056 12.0906 155.741 13.0571 156.225C13.9435 156.708 14.9925 157.032 16.2011 157.193C17.4101 157.435 18.701 157.556 20.0713 157.556C23.5375 157.556 26.5201 157.111 29.019 156.225C33.5331 154.613 37.564 152.236 41.1108 149.092C44.6577 145.949 47.8423 142.4 50.6638 138.45C53.8073 134.017 56.5073 129.382 58.7643 124.546C61.1019 119.709 63.3599 114.832 65.5364 109.915C67.7128 104.918 70.0921 100.081 72.6716 95.4058C75.2511 90.6497 78.3145 86.1744 81.8614 81.9826C84.7633 78.5972 87.544 76.2986 90.204 75.0895C91.0908 75.1701 92.3814 75.3318 94.0742 75.5736C95.7668 75.8154 97.5401 76.0581 99.3939 76.2999C101.328 76.5416 102.98 76.7843 104.35 77.0261C99.6753 83.0717 95.4825 89.6408 91.7745 96.7342C88.1474 103.747 85.0056 110.478 82.3456 116.927C79.6048 123.537 77.2661 129.303 75.3314 134.22C73.3968 139.056 72.0657 142.845 71.3402 145.585H72.1874C72.5098 145.666 72.8333 145.706 73.1557 145.706C73.8003 145.706 74.4853 145.504 75.2104 145.101C75.9357 144.698 76.6203 143.811 77.265 142.441C78.1518 140.668 79.3211 138.531 80.7721 136.032C82.223 133.453 83.6351 130.996 85.0054 128.658C86.4564 126.079 87.9867 123.659 89.5989 121.402C91.2111 119.064 92.7847 117.008 94.3163 115.235C96.0089 113.22 97.7417 111.568 99.5149 110.278C101.369 108.908 103.061 108.221 104.593 108.221C105.237 108.221 105.844 108.463 106.408 108.947C106.972 109.43 107.252 110.156 107.252 111.123C107.252 112.009 106.972 112.977 106.408 114.025C104.796 117.491 102.78 120.837 100.362 124.062L99.4795 125.278C97.4778 128.135 95.8757 131.116 94.6764 134.22C94.1125 135.751 93.8322 137.282 93.8322 138.813L93.8558 139.531C93.9702 141.188 94.486 142.722 95.4027 144.133C96.5311 145.664 98.4662 146.432 101.206 146.433C102.899 146.433 104.432 146.028 105.803 145.222C107.173 144.336 108.383 143.368 109.431 142.32C111.768 139.983 113.744 137.485 115.356 134.825C116.194 133.507 117 132.187 117.779 130.869C117.568 132.148 117.452 133.426 117.452 134.704C117.452 136.235 117.654 137.726 118.057 139.176C118.213 139.739 118.415 140.271 118.656 140.773C117.189 142.818 115.54 144.76 113.706 146.595C112.328 147.973 110.778 149.205 109.086 150.3L108.979 150.368L108.867 150.433C106.507 151.821 103.905 152.479 101.206 152.479C97.4394 152.478 93.2455 151.399 90.5347 147.72L90.4313 147.578L90.3339 147.43C88.6444 144.831 87.7863 141.91 87.7863 138.813C87.7863 137.643 87.8966 136.486 88.111 135.348C87.4306 136.534 86.7421 137.751 86.0416 138.996L86.0209 139.032L86.0003 139.07C84.587 141.504 83.4846 143.523 82.6733 145.146L82.6703 145.143C81.8651 146.824 80.5122 149.071 78.1477 150.385C76.7757 151.148 75.0812 151.752 73.1557 151.752C72.6428 151.752 72.1358 151.708 71.6383 151.631H63.4876L65.495 144.038C66.315 140.941 67.7526 136.883 69.7165 131.973C71.6659 127.019 74.0158 121.231 76.7602 114.612C79.4936 107.987 82.7096 101.1 86.4047 93.9563L86.4165 93.9327C88.6546 89.6512 91.0725 85.549 93.658 81.6195L93.2181 81.5605C92.5329 81.4626 91.9322 81.3796 91.4114 81.3125C90.0497 82.1989 88.3895 83.6573 86.4519 85.9178C83.179 89.7897 80.3586 93.9113 77.9853 98.287L77.9765 98.3047L77.9647 98.3254C75.4782 102.832 73.1831 107.499 71.0804 112.327L71.0656 112.363C68.8731 117.316 66.5946 122.227 64.2404 127.099L64.2434 127.102C61.8299 132.274 58.9467 137.224 55.5967 141.948L55.5849 141.966C52.506 146.277 49.0174 150.163 45.1227 153.615C40.9909 157.277 36.2864 160.05 31.053 161.919L31.0412 161.925C27.7283 163.101 24.0262 163.602 20.0713 163.602C18.4422 163.602 16.8457 163.459 15.2918 163.168C13.6024 162.932 11.9248 162.453 10.3559 161.63V161.633C10.3329 161.621 10.311 161.606 10.288 161.595C10.2473 161.573 10.2046 161.555 10.164 161.533V161.53C8.56911 160.697 7.19406 159.545 6.11968 158.087L5.65915 157.417L5.54993 157.243L5.45251 157.066C4.6653 155.623 4.13523 154.008 4.01484 152.266L3.98827 151.51L4.01779 150.74C4.1513 148.926 4.77264 147.03 6.16987 145.399C7.06273 144.322 8.37005 143.306 10.1404 142.864L10.8637 142.683H11.6076C12.3879 142.683 15.4202 142.83 17.1841 145.768C17.7384 146.692 17.9797 147.605 18.055 148.425C18.4541 148.686 18.7362 148.828 18.9081 148.901C19.628 149.027 20.337 149.092 21.0395 149.092C22.9608 149.092 24.4379 148.814 25.568 148.39L25.6714 148.349L25.7776 148.313C27.4677 147.75 29.5211 146.467 31.8826 143.971L31.9121 143.938L31.9416 143.909C34.5557 141.222 37.0225 138.139 39.3307 134.639C41.5973 131.161 43.856 127.182 46.1028 122.689L46.1205 122.651C48.52 117.932 50.922 113.09 53.3236 108.126L53.3413 108.091C55.9136 102.863 58.6552 97.834 61.5688 93.0057C64.5463 87.9912 67.7705 83.4709 71.2516 79.4674L71.2575 79.4586C71.5959 79.0707 71.9445 78.6955 72.2908 78.322L63.036 76.6925L63.0035 76.6866C61.9339 76.4921 60.7009 76.3428 59.2927 76.2497L57.8255 76.1759L57.7163 76.17L57.61 76.1641C55.5102 76.0141 53.2756 75.9367 50.9058 75.9367C46.7296 75.9367 42.5507 76.2015 38.3683 76.7338L38.3152 76.7427L38.2591 76.7486C36.6236 76.927 35.1878 77.1551 33.9343 77.4157C34.682 77.9794 35.2427 78.6301 35.6317 79.1929C36.5 80.4085 37.1009 81.8563 37.5535 83.1694C38.1449 84.5797 38.6053 86.0353 38.8524 87.5178C38.96 88.1632 39.0224 88.8146 39.0443 89.4691C39.1296 90.1133 39.1772 90.7622 39.1772 91.4146L39.1654 92.2087C39.1077 94.064 38.8475 95.922 38.4067 97.7734L38.4008 97.8058L38.3919 97.8383C37.8499 100.006 36.9794 102.042 35.7911 103.926C33.9442 107.042 31.3883 109.504 28.1747 111.17L28.095 111.211L28.0153 111.25C25.049 112.678 21.8979 113.422 18.6218 113.422C16.2881 113.422 14.0165 113.019 11.8438 112.215L10.9198 111.843L10.7928 111.79L10.6659 111.731C7.34125 110.122 4.63046 107.742 2.76906 104.584L2.4089 103.943L2.36758 103.866L2.3292 103.793C0.758137 100.651 0 97.2578 0 93.7113C3.56619e-05 91.4757 0.255351 89.253 0.755735 87.0514L0.776399 86.9569L0.800016 86.8654C1.37791 84.6501 2.15249 82.5161 3.12626 80.4712H3.12921C4.82801 76.7997 7.1752 73.5616 10.1434 70.7913C12.87 68.2465 15.7109 66.1388 18.6779 64.5564C23.1407 62.1495 27.6897 60.4082 32.3165 59.3903L32.3401 59.3873C36.8688 58.4106 41.4486 57.9201 46.0703 57.9201C49.3493 57.9202 52.652 58.1216 55.9775 58.5194L57.4063 58.7025C61.1614 59.2145 64.9462 59.9379 68.7601 60.8693H68.763C75.0551 62.3826 81.4296 63.8154 87.8837 65.1705C93.2232 66.2248 98.6501 67.0832 104.164 67.7506C106.536 65.1034 109.02 62.6459 111.616 60.3822L112.962 59.2397C116.124 56.6244 119.452 54.3913 122.952 52.5621L123.002 52.5355L123.049 52.5119C125.507 51.2827 128.093 50.2995 130.795 49.5539C133.598 48.7808 136.399 48.3672 139.176 48.3672C143.934 48.3673 148.491 49.7208 151.879 53.2499C154.796 56.2887 156.467 60.0523 156.467 64.3291L156.428 65.4155C156.255 67.9337 155.487 70.3253 154.276 72.5448C152.705 75.4247 150.34 77.6719 147.542 79.3936L147.492 79.4232L147.439 79.4556C144.056 81.4456 140.385 82.7792 136.469 83.4646C132.881 84.0925 129.185 84.4004 125.39 84.4004C122.396 84.4004 119.367 84.2719 116.303 84.0166C114.665 83.8801 113.054 83.7608 111.471 83.6506C109.784 86.3046 108.173 89.0432 106.647 91.8692C105.081 94.8215 103.634 97.6955 102.308 100.492C102.993 100.329 103.694 100.209 104.409 100.144H104.424L105.655 100.064C108.521 99.9526 111.797 100.363 114.452 102.379H114.455C114.49 102.404 114.522 102.433 114.556 102.458C114.588 102.484 114.624 102.506 114.656 102.532H114.653C117.565 104.771 118.742 108.017 118.742 111.244L118.704 112.315C118.542 114.764 117.838 117.179 116.817 119.504L116.82 119.507C116.762 119.646 116.694 119.783 116.634 119.923C117.483 119.454 118.544 119.105 119.828 119.105C120.508 119.105 121.213 119.216 121.901 119.445C121.178 120.741 120.544 122.039 119.994 123.335C119.684 124.058 119.4 124.813 119.135 125.594C119.124 125.607 119.112 125.621 119.102 125.635Z" fill="#5A3480"/>
</svg>
