<svg width="1854" height="240" viewBox="0 0 1854 240" fill="none" xmlns="http://www.w3.org/2000/svg">
<path d="M440.733 230.782H359.395V103.263L345.954 141.034L313.901 230.782H264.272L232.564 139.994L219.812 102.916V230.782H146.402V0H257.379L288.397 90.4416L295.635 111.579L302.873 90.4416L333.202 0H440.733V230.782Z" fill="white"/>
<path d="M1853.53 230.782H1767.62L1729.44 150.39L1703.88 183.655V230.782H1622.75V0H1703.88V98.4116L1764.56 0H1849.78L1785.01 92.5208L1853.53 230.782Z" fill="white"/>
<path d="M1614.25 59.1404L1562.68 86.3037C1553.39 72.5501 1535.86 60.8596 1515.23 60.8596C1490.47 60.8596 1475 73.9255 1475 94.212V145.788C1475 166.074 1490.47 179.14 1515.23 179.14C1535.86 179.14 1554.43 167.106 1562.68 153.696L1612.19 180.86C1599.81 213.181 1559.93 240 1509.73 240C1439.58 240 1391.1 199.083 1391.1 143.725V96.2751C1391.1 40.9169 1439.58 0 1509.73 0C1559.93 0 1601.53 26.8195 1614.25 59.1404Z" fill="white"/>
<path d="M1380.93 230.782H1300.66V0H1380.93V230.782Z" fill="white"/>
<path d="M1290.28 230.782H1219.53C1207.97 230.782 1201.16 213.803 1201.16 195.091V163.557C1201.16 153.162 1196.74 143.806 1182.8 143.806H1150.48V230.782H1069.53V0.000118256H1202.52C1248.1 0.000118256 1279.05 25.9891 1279.05 61.6806V69.6506C1279.05 92.5209 1264.43 112.619 1239.94 119.203C1267.49 124.401 1280.07 144.845 1280.07 166.33V192.319C1280.07 206.872 1283.82 219.347 1290.28 229.743V230.782ZM1199.12 85.244V76.581C1199.12 62.3737 1192.32 56.4828 1175.65 56.4828H1150.48V105.342H1175.65C1192.32 105.342 1199.12 98.7582 1199.12 85.244Z" fill="white"/>
<path d="M865.506 0.000118256L778.239 230.782H699.87L614.656 0.000118256H701.923L745.385 136.182L790.217 0.000118256H865.506Z" fill="white"/>
<path d="M1053.47 70.3064V0H888.517L857 83.3533V231H1053.47V156.467H947.658V137.646H1017.23V88.8081H947.658V70.3064H1053.47Z" fill="white"/>
<path d="M595.526 0.000118256H511.067L455.967 157.025V230.78H503.54L514.822 194.744H580.133L590.055 230.78H678.881L595.526 0.000118256ZM529.876 146.916L550.06 80.0418L567.152 146.916H529.876Z" fill="white"/>
<path d="M154.721 167.01C149.157 167.01 145.224 165.571 142.922 162.693C141.771 161.446 140.956 159.959 140.476 158.233C139.996 156.506 139.756 154.732 139.756 152.909C139.756 150.607 140.044 148.305 140.62 146.002C141.195 143.604 141.915 141.398 142.778 139.384C144.121 136.218 145.896 133.053 148.102 129.887C150.308 126.626 152.946 123.892 156.016 121.686C159.181 119.479 162.634 118.376 166.375 118.376C168.869 118.376 170.836 119 172.275 120.247C173.714 121.494 174.433 123.412 174.433 126.002C174.433 128.976 173.522 131.998 171.699 135.067C169.877 138.041 167.574 140.535 164.793 142.549C162.011 144.564 159.133 145.571 156.159 145.571C153.474 145.571 151.123 144.612 149.109 142.693C148.534 144.228 148.054 145.955 147.67 147.873C147.287 149.696 147.095 151.566 147.095 153.485C147.095 156.458 147.67 159.048 148.821 161.254C150.068 163.461 152.275 164.564 155.44 164.564C157.742 164.564 159.948 163.988 162.059 162.837C164.265 161.59 166.231 160.103 167.958 158.377C169.877 156.362 171.699 154.204 173.426 151.902C175.152 149.6 176.831 146.914 178.462 143.844C178.654 143.556 178.798 143.413 178.893 143.413C179.277 143.413 179.469 143.844 179.469 144.708C179.469 145.283 179.277 145.907 178.893 146.578C177.455 149.168 175.776 151.806 173.857 154.492C171.939 157.082 169.973 159.336 167.958 161.254C166.136 162.981 164.169 164.372 162.059 165.427C159.948 166.482 157.502 167.01 154.721 167.01ZM149.828 140.535C150.5 141.494 151.267 142.213 152.131 142.693C153.09 143.077 154.049 143.269 155.008 143.269C157.311 143.269 159.709 142.405 162.203 140.679C164.697 138.856 166.711 136.746 168.246 134.348C168.917 133.293 169.493 131.902 169.973 130.175C170.548 128.448 170.836 126.818 170.836 125.283C170.836 123.94 170.548 122.789 169.973 121.83C169.493 120.774 168.486 120.247 166.951 120.247C165.224 120.247 163.162 121.302 160.764 123.412C158.462 125.523 156.255 128.257 154.145 131.614C153.474 132.765 152.706 134.108 151.843 135.643C151.076 137.177 150.404 138.808 149.828 140.535Z" fill="white"/>
<path d="M15.53 178.511C14.3789 177.936 13.4676 177.12 12.7961 176.065C12.2206 175.01 11.9328 173.955 11.9328 172.9C11.9328 171.844 12.2206 170.981 12.7961 170.31C13.0839 169.926 13.4196 169.686 13.8033 169.59C14.2829 169.59 14.4268 169.83 14.235 170.31C13.9472 171.749 14.6187 173.091 16.2494 174.338C17.8801 175.585 19.3669 176.401 20.7099 176.785C22.1487 177.072 23.5876 177.216 25.0264 177.216C28.0001 177.216 30.638 176.785 32.9402 175.921C36.3934 174.77 39.7987 172.42 43.1561 168.871C46.6093 165.322 49.8228 161.293 52.7964 156.784C55.6741 152.372 58.5039 147.384 61.2857 141.82C64.1634 136.161 67.0411 130.357 69.9189 124.41C72.8925 118.367 76.058 112.563 79.4153 107C82.7727 101.34 86.3698 96.3043 90.2068 91.8918C94.1397 87.3834 98.4562 83.9301 103.157 81.532L76.2498 76.7838C74.1395 76.4001 71.7414 76.1603 69.0555 76.0644C66.3697 75.8725 63.5399 75.7766 60.5663 75.7766C55.2904 75.7766 50.0146 76.1123 44.7388 76.7838C39.463 77.3593 35.2423 78.3665 32.0768 79.8054C26.5133 82.2994 21.7171 85.7527 17.6882 90.1652C13.6594 94.4818 11.645 99.9015 11.645 106.424C11.645 109.11 12.0767 111.412 12.94 113.331C13.8992 115.153 15.0983 116.544 16.5372 117.504C18.1679 118.463 19.8465 118.942 21.5732 118.942C23.6835 118.942 25.8418 118.319 28.048 117.072C30.2543 115.729 32.1728 113.81 33.8035 111.316C34.5709 110.069 35.2903 108.247 35.9618 105.849C36.7292 103.451 37.1129 101.005 37.1129 98.5106C37.1129 97.1676 36.969 95.8727 36.6812 94.6257C36.4893 93.3786 36.0577 92.2755 35.3862 91.3163C35.1944 90.9326 35.0984 90.7407 35.0984 90.7407C35.0984 90.453 35.2423 90.3091 35.5301 90.3091C35.9138 90.3091 36.2495 90.5489 36.5373 91.0285C37.0169 91.7 37.4965 92.7551 37.9762 94.194C38.5517 95.5369 38.9354 96.7839 39.1273 97.935C39.2232 98.5106 39.2711 99.0861 39.2711 99.6617C39.3671 100.237 39.415 100.813 39.415 101.388C39.415 103.307 39.1752 105.273 38.6956 107.288C38.216 109.206 37.4486 110.981 36.3934 112.611C34.8586 115.201 32.7963 117.168 30.2063 118.511C27.6164 119.758 24.9305 120.381 22.1487 120.381C19.9425 120.381 17.8321 119.95 15.8177 119.086C12.8441 117.647 10.6378 115.585 9.19897 112.899C7.85604 110.213 7.18457 107.288 7.18457 104.122C7.18457 102.012 7.42438 99.9015 7.904 97.7911C8.47954 95.5849 9.24694 93.4746 10.2062 91.4602C11.8369 87.911 14.0911 84.7934 16.9688 82.1076C19.8465 79.4217 22.7243 77.3114 25.602 75.7766C30.3982 73.1866 35.1944 71.3641 39.9906 70.3089C44.8827 69.2538 49.8228 68.7262 54.8108 68.7262C58.9356 68.7262 63.1082 69.014 67.3289 69.5895C71.5496 70.165 75.8182 70.9804 80.1348 72.0356C87.7128 73.8581 95.3867 75.5847 103.157 77.2154C110.926 78.7502 118.84 79.9493 126.898 80.8126C130.255 76.7838 133.804 73.1387 137.545 69.8773C141.382 66.5199 145.411 63.7381 149.632 61.5319C152.126 60.2849 154.764 59.2777 157.545 58.5103C160.327 57.7429 163.013 57.3592 165.603 57.3592C169.92 57.3592 173.229 58.5582 175.531 60.9563C177.833 63.3544 178.984 66.0883 178.984 69.1578C178.984 71.2682 178.409 73.3785 177.258 75.4888C176.107 77.5991 174.284 79.4217 171.79 80.9565C168.529 82.875 164.98 84.1699 161.143 84.8414C157.306 85.5129 153.325 85.8486 149.2 85.8486C145.843 85.8486 142.437 85.7047 138.984 85.417C135.531 85.1292 132.174 84.8894 128.912 84.6975C125.938 89.11 123.157 93.7144 120.567 98.5106C118.073 103.211 115.818 107.767 113.804 112.18C111.79 116.496 110.015 120.381 108.48 123.835C107.329 126.616 106.322 128.966 105.459 130.885C104.691 132.707 103.972 134.386 103.3 135.921C102.725 137.456 102.053 139.182 101.286 141.101C102.821 138.799 104.547 136.305 106.466 133.619C108.48 130.837 110.255 128.679 111.79 127.144C113.996 124.938 116.202 123.067 118.408 121.532C120.615 119.998 122.773 119.134 124.883 118.942C128.145 118.655 130.495 119.086 131.934 120.237C133.373 121.293 134.092 122.875 134.092 124.986C134.092 127.096 133.516 129.446 132.365 132.036C131.118 135.01 129.632 137.983 127.905 140.957C126.178 143.931 124.596 146.808 123.157 149.59C122.773 150.357 122.054 151.844 120.998 154.051C120.039 156.161 119.416 158.175 119.128 160.094C119.128 160.19 119.08 160.334 118.984 160.525C118.984 160.717 118.984 160.909 118.984 161.101C118.984 162.156 119.272 162.971 119.847 163.547C120.423 164.027 121.094 164.266 121.862 164.266C123.492 164.266 125.027 163.739 126.466 162.684C127.905 161.629 129.152 160.477 130.207 159.23C132.413 156.832 134.428 154.194 136.25 151.317C138.073 148.439 139.895 145.369 141.718 142.108C142.006 141.724 142.293 141.532 142.581 141.532C142.965 141.532 143.157 141.82 143.157 142.396C143.157 142.875 143.061 143.259 142.869 143.547C141.142 146.712 139.272 149.878 137.257 153.043C135.339 156.209 132.989 159.182 130.207 161.964C128.96 163.211 127.521 164.362 125.89 165.418C124.26 166.377 122.437 166.856 120.423 166.856C117.161 166.856 114.859 165.945 113.516 164.123C112.269 162.204 111.646 160.094 111.646 157.792C111.646 155.969 111.982 154.146 112.653 152.324C114.284 148.103 116.538 144.074 119.416 140.238C122.293 136.401 124.691 132.42 126.61 128.295C127.281 127.048 127.617 125.897 127.617 124.842C127.617 123.691 127.281 122.827 126.61 122.252C125.938 121.676 125.219 121.388 124.452 121.388C122.629 121.388 120.615 122.204 118.408 123.835C116.298 125.369 114.236 127.336 112.221 129.734C110.399 131.844 108.528 134.29 106.61 137.072C104.691 139.758 102.869 142.636 101.142 145.705C99.5114 148.487 97.8327 151.413 96.1061 154.482C94.3795 157.456 92.9886 159.998 91.9334 162.108C91.166 163.739 90.3507 164.794 89.4873 165.274C88.624 165.753 87.8087 165.993 87.0413 165.993C86.6576 165.993 86.2739 165.945 85.8902 165.849C85.5065 165.849 85.1708 165.849 84.883 165.849C85.7463 162.588 87.3291 158.079 89.6312 152.324C91.9334 146.473 94.7152 139.614 97.9766 131.748C101.142 124.074 104.883 116.065 109.2 107.719C113.612 99.278 118.6 91.4602 124.164 84.2659C122.533 83.9781 120.567 83.6903 118.265 83.4026C116.058 83.1148 113.948 82.827 111.934 82.5392C109.919 82.2515 108.384 82.0596 107.329 81.9637C104.164 83.4026 100.854 86.1364 97.4011 90.1652C93.1804 95.1532 89.5353 100.477 86.4657 106.137C83.3962 111.7 80.5664 117.456 77.9765 123.403C75.3865 129.254 72.7007 135.058 69.9189 140.813C67.233 146.568 64.0195 152.084 60.2785 157.36C56.9212 162.06 53.1322 166.281 48.9115 170.022C44.6908 173.763 39.8946 176.593 34.5229 178.511C31.5493 179.566 28.0001 180.094 23.8753 180.094C22.2446 180.094 20.7099 179.95 19.271 179.662C17.8321 179.47 16.5851 179.087 15.53 178.511ZM131.358 81.2443C133.948 81.4361 136.97 81.7239 140.423 82.1076C143.972 82.3953 147.521 82.5392 151.071 82.5392C154.716 82.5392 158.313 82.2994 161.862 81.8198C165.411 81.2443 168.433 80.1891 170.927 78.6543C172.749 77.5032 174.044 76.2083 174.812 74.7694C175.675 73.3305 176.107 71.8437 176.107 70.3089C176.107 67.6231 174.956 65.225 172.653 63.1146C170.351 60.9084 167.33 59.8052 163.589 59.8052C161.766 59.8052 159.8 59.9971 157.689 60.3808C155.675 60.7645 153.565 61.4839 151.358 62.5391C147.809 64.1698 144.356 66.6638 140.999 70.0212C137.641 73.2826 134.428 77.0236 131.358 81.2443Z" fill="white"/>
<path d="M166.963 120.244C168.306 120.244 169.245 120.648 169.78 121.456L170.188 122.194C170.628 123.075 170.848 124.104 170.848 125.278C170.848 126.813 170.559 128.445 169.984 130.172C169.504 131.898 168.927 133.29 168.256 134.345C166.721 136.742 164.707 138.853 162.213 140.675C159.72 142.401 157.321 143.264 155.019 143.264C154.06 143.264 153.101 143.071 152.142 142.688C151.279 142.208 150.513 141.49 149.841 140.531C150.417 138.805 151.087 137.172 151.854 135.638C152.717 134.104 153.484 132.762 154.155 131.612C156.265 128.255 158.475 125.52 160.777 123.409C163.175 121.299 165.236 120.244 166.963 120.244ZM154.299 153.479C154.299 155.15 154.565 156.396 154.945 157.34C155.073 157.353 155.24 157.365 155.451 157.365C156.484 157.365 157.497 157.121 158.585 156.535C160.203 155.614 161.61 154.542 162.835 153.325C163.657 152.459 164.462 151.564 165.249 150.634C162.43 151.996 159.393 152.763 156.171 152.763C155.545 152.763 154.927 152.727 154.32 152.664C154.31 152.934 154.299 153.205 154.299 153.479ZM178.474 143.84C176.844 146.91 175.164 149.596 173.437 151.899C171.711 154.2 169.889 156.359 167.971 158.373C166.244 160.099 164.276 161.587 162.069 162.834C159.959 163.985 157.753 164.559 155.451 164.559C152.286 164.559 150.08 163.456 148.833 161.25C147.682 159.044 147.105 156.453 147.105 153.479C147.105 151.561 147.297 149.691 147.681 147.869C148.065 145.951 148.546 144.223 149.121 142.688C151.136 144.606 153.486 145.568 156.171 145.568C159.145 145.568 162.021 144.558 164.802 142.544C167.584 140.53 169.886 138.038 171.709 135.065C173.531 131.995 174.445 128.972 174.445 125.998C174.445 123.409 173.724 121.491 172.285 120.244C170.846 118.997 168.881 118.372 166.387 118.372C162.646 118.372 159.193 119.475 156.027 121.681C152.958 123.887 150.319 126.622 148.113 129.884C145.907 133.048 144.134 136.214 142.791 139.379C142.423 140.238 142.085 141.136 141.769 142.066C141.756 142.082 141.742 142.099 141.73 142.115C139.908 145.376 138.086 148.445 136.264 151.322C135.172 153.046 134.009 154.682 132.779 156.233C132.645 155.134 132.572 154.024 132.572 152.907C132.572 149.999 132.937 147.11 133.651 144.255C134.307 141.534 135.143 138.959 136.176 136.547C137.734 132.88 139.76 129.288 142.211 125.77C144.862 121.871 148.069 118.542 151.83 115.839L151.872 115.811L151.914 115.779C156.246 112.761 161.126 111.178 166.387 111.178C169.835 111.178 173.411 112 176.405 114.322L176.999 114.806C180.526 117.863 181.639 122.111 181.64 125.998L181.622 126.841C181.496 130.107 180.63 133.242 179.219 136.224C180.666 136.284 182.165 136.754 183.473 137.735C184.787 138.72 185.516 139.923 185.911 140.812C186.626 142.422 186.673 143.963 186.673 144.704C186.673 146.85 185.973 148.675 185.191 150.065C183.606 152.917 181.78 155.789 179.721 158.671L179.651 158.77C177.525 161.641 175.287 164.215 172.931 166.459L172.917 166.473C170.613 168.656 168.07 170.467 165.287 171.858C162.014 173.495 158.431 174.202 154.731 174.202C148.287 174.201 141.901 172.571 137.648 167.569C135.925 165.702 134.672 163.542 133.872 161.179L133.556 160.154C133.423 159.677 133.306 159.198 133.201 158.717C134.723 156.901 136.082 155.014 137.272 153.051C138.27 151.483 139.229 149.912 140.156 148.344C139.905 149.865 139.766 151.385 139.766 152.907L139.812 154.263C139.902 155.612 140.127 156.934 140.487 158.229C140.966 159.955 141.781 161.443 142.932 162.69C145.234 165.568 149.168 167.007 154.731 167.007C157.513 167.007 159.959 166.478 162.069 165.423C164.18 164.368 166.148 162.976 167.971 161.25C169.985 159.332 171.951 157.077 173.869 154.487C175.787 151.802 177.464 149.163 178.903 146.573C179.191 146.069 179.372 145.593 179.444 145.143L179.479 144.704C179.479 143.841 179.287 143.408 178.903 143.408C178.807 143.41 178.665 143.555 178.474 143.84Z" fill="#008C44"/>
<path d="M149.117 142.678C149.491 143.035 149.882 143.351 150.28 143.641C150.154 144.66 149.846 145.824 149.191 146.985L149.194 146.988C148.573 148.127 147.928 149.26 147.273 150.396C147.368 149.541 147.501 148.695 147.677 147.86C148.06 145.941 148.541 144.213 149.117 142.678ZM150.027 139.98C150.138 140.371 150.216 140.74 150.266 141.076C150.12 140.9 149.974 140.718 149.837 140.521C149.898 140.339 149.964 140.16 150.027 139.98ZM27.9168 90.5546C26.1513 91.8838 24.5135 93.365 23.0094 95.0124L22.9848 95.0405L22.9567 95.0686C20.3057 97.909 18.8501 101.514 18.8501 106.422L18.8642 107.114C18.9234 108.529 19.1681 109.513 19.4403 110.188C19.8129 110.845 20.1453 111.199 20.3888 111.396C20.9207 111.677 21.2934 111.744 21.5831 111.744C22.206 111.744 23.1152 111.571 24.3934 110.869C25.5046 110.176 26.6293 109.112 27.7166 107.476C27.9822 107.019 28.4739 105.941 29.0444 103.903L29.0795 103.777L29.1182 103.651C29.6606 101.955 29.926 100.25 29.9261 98.5077L29.9121 97.9C29.8798 97.3088 29.7997 96.7562 29.6802 96.2384L29.6205 95.9785L29.5784 95.715C29.5577 95.5811 29.5332 95.5077 29.5222 95.4797C29.5122 95.4544 29.5056 95.4439 29.5011 95.4375L29.199 95.0054L28.9601 94.5312C28.9482 94.5073 28.9362 94.4834 28.925 94.4609C28.9222 94.4554 28.9242 94.4559 28.9215 94.4504L28.918 94.4469V94.4434L28.9144 94.4363L28.9109 94.4328V94.4258C28.9057 94.4154 28.9055 94.4219 28.9004 94.4118C28.8964 94.4038 28.9008 94.4091 28.8969 94.4012V94.3977L28.8934 94.3942C28.8781 94.3636 28.8948 94.3935 28.8793 94.3626L28.8723 94.3555V94.352L28.8688 94.3485L28.8617 94.3345V94.3274H28.8582L28.8336 94.2783C28.825 94.261 28.8317 94.2673 28.8231 94.2502C28.8193 94.2426 28.8196 94.2467 28.8161 94.2396L28.8126 94.2361V94.2326L28.8091 94.2291V94.2256L28.8055 94.2185L28.802 94.215V94.208L28.7985 94.201L28.7915 94.1904L28.788 94.1834L28.7845 94.1799L28.781 94.1729V94.1694C28.7783 94.164 28.7801 94.1677 28.7774 94.1623V94.1588H28.7739L28.7704 94.1518V94.1483C28.7671 94.1416 28.7662 94.1435 28.7634 94.1377C28.76 94.131 28.756 94.123 28.7528 94.1167C28.747 94.1049 28.7556 94.1186 28.7493 94.1061L28.7458 94.1026V94.0991C28.734 94.0755 28.7231 94.0537 28.7142 94.0359C28.6992 94.0059 28.7016 94.0142 28.6896 93.9902V93.9832H28.6861V93.9797L28.6826 93.9762L28.6791 93.9621H28.6756V93.9551H28.6721L27.9133 92.434V90.7373C27.9133 90.6787 27.9153 90.6175 27.9168 90.5546ZM163.597 59.7997C167.338 59.7997 170.361 60.9061 172.663 63.1123C174.965 65.2224 176.117 67.6212 176.117 70.3066C176.116 71.8407 175.683 73.3262 174.82 74.7644C174.053 76.2033 172.758 77.4985 170.935 78.6496C168.441 80.1842 165.421 81.2392 161.872 81.8147C158.323 82.2943 154.725 82.5348 151.081 82.5348C147.532 82.5348 143.982 82.3905 140.433 82.1028C136.98 81.7191 133.956 81.434 131.366 81.2421C134.436 77.0215 137.652 73.28 141.009 70.0186C144.367 66.6613 147.819 64.1669 151.369 62.5362C153.575 61.4812 155.684 60.7595 157.699 60.3758C159.808 59.9923 161.775 59.7998 163.597 59.7997ZM163.597 66.994C162.285 66.9941 160.769 67.1299 159.03 67.4437C157.731 67.6927 156.215 68.1899 154.47 69.0244L154.372 69.0736C151.745 70.2808 148.976 72.2249 146.096 75.1052L146.057 75.1403L146.022 75.1789C146.004 75.1968 145.984 75.2137 145.966 75.2316C147.671 75.3019 149.376 75.3405 151.081 75.3405C154.376 75.3405 157.618 75.1247 160.811 74.6977C163.573 74.2402 165.62 73.4627 167.134 72.5373C168.183 71.8674 168.447 71.4284 168.473 71.3816L168.557 71.22L168.652 71.0654C168.908 70.6389 168.922 70.4179 168.922 70.3066L168.898 70.008C168.846 69.7189 168.683 69.3198 168.16 68.7645L167.802 68.4132L167.742 68.3605L167.686 68.3043C166.952 67.6014 165.827 66.994 163.597 66.994ZM141.726 142.106C139.904 145.366 138.082 148.436 136.26 151.313C134.437 154.19 132.424 156.829 130.218 159.227C129.163 160.474 127.915 161.625 126.477 162.68C125.038 163.735 123.502 164.261 121.871 164.261C121.104 164.261 120.43 164.024 119.855 163.544C119.279 162.969 118.994 162.151 118.994 161.096V160.52C119.089 160.33 119.138 160.187 119.138 160.091C119.426 158.173 120.048 156.156 121.007 154.046L123.167 149.588C124.246 147.502 125.404 145.36 126.645 143.166L127.913 140.953C129.64 137.98 131.128 135.004 132.375 132.031C133.525 129.441 134.103 127.09 134.103 124.98C134.103 122.871 133.381 121.29 131.943 120.235C130.504 119.084 128.154 118.651 124.892 118.938C122.782 119.13 120.624 119.993 118.418 121.527C116.212 123.062 114.006 124.935 111.8 127.141C110.265 128.676 108.489 130.833 106.474 133.615C104.556 136.301 102.831 138.795 101.297 141.097C102.064 139.179 102.734 137.451 103.309 135.916C103.981 134.382 104.699 132.704 105.466 130.882C106.33 128.964 107.34 126.613 108.491 123.832C110.026 120.379 111.798 116.493 113.813 112.176C115.827 107.764 118.081 103.208 120.575 98.5077C123.165 93.7119 125.948 89.1074 128.922 84.6952C132.183 84.8871 135.54 85.1241 138.993 85.4118C142.446 85.6996 145.851 85.8439 149.208 85.8439C153.333 85.8439 157.315 85.5107 161.152 84.8393C164.988 84.1678 168.538 82.8723 171.799 80.9541C174.293 79.4193 176.118 77.5949 177.269 75.4846C178.419 73.3747 178.993 71.2643 178.994 69.1544C178.994 66.0849 177.843 63.35 175.54 60.9519C173.238 58.5542 169.929 57.3549 165.613 57.3548C163.023 57.3548 160.336 57.7396 157.555 58.507C154.773 59.2744 152.134 60.2811 149.64 61.528C145.42 63.7342 141.393 66.5175 137.556 69.8746C133.815 73.136 130.266 76.7813 126.909 80.81C118.851 79.9467 110.935 78.7477 103.165 77.2129C95.3961 75.5823 87.7232 73.8538 80.1457 72.0314C75.8291 70.9763 71.5585 70.162 67.3379 69.5865C63.1178 69.011 58.9458 68.7224 54.8216 68.7223C49.8338 68.7223 44.8928 69.2516 40.001 70.3066C35.2051 71.3617 30.4083 73.1829 25.6124 75.7726C22.7348 77.3073 19.8554 79.417 16.9778 82.1028C14.1001 84.7886 11.8463 87.9083 10.2156 91.4575C9.25655 93.4716 8.49013 95.5817 7.91467 97.7876C7.4351 99.8977 7.19458 102.008 7.19454 104.118C7.19454 107.283 7.86446 110.21 9.2074 112.896C10.6461 115.582 12.8527 117.644 15.8256 119.082C17.84 119.946 19.953 120.379 22.1592 120.379C24.9403 120.378 27.6249 119.753 30.2142 118.506C32.8041 117.163 34.869 115.198 36.4038 112.608C37.459 110.978 38.2251 109.201 38.7047 107.283C39.1842 105.269 39.4248 103.303 39.4249 101.385C39.4249 100.809 39.3768 100.232 39.2808 99.6564C39.2808 99.0815 39.2326 98.5065 39.1368 97.9316C38.945 96.7805 38.5601 95.5334 37.9846 94.1904C37.5052 92.7523 37.0272 91.6969 36.5478 91.0254C36.2601 90.5459 35.9232 90.3054 35.5397 90.3052C35.2519 90.3052 35.1076 90.4495 35.1076 90.7373C35.1117 90.7456 35.208 90.9382 35.3956 91.3134C36.0663 92.2717 36.4963 93.3736 36.6884 94.619L36.6919 94.6225C36.9795 95.8692 37.1204 97.1651 37.1204 98.5077C37.1203 101.001 36.739 103.448 35.9717 105.846C35.3003 108.244 34.5786 110.065 33.8113 111.312C32.1807 113.806 30.2635 115.727 28.0573 117.07C25.8515 118.316 23.693 118.938 21.5831 118.938C19.8565 118.938 18.1764 118.457 16.5457 117.498C15.1076 116.539 13.9075 115.15 12.9486 113.328C12.0854 111.41 11.656 109.107 11.6559 106.422C11.6559 99.8993 13.6691 94.4778 17.6979 90.1612C21.7267 85.7488 26.5231 82.2958 32.0865 79.8018C34.8561 78.543 38.4333 77.6142 42.8183 77.0162L44.7468 76.7808C50.0226 76.1093 55.2999 75.7726 60.5757 75.7726C63.5493 75.7726 66.3804 75.8688 69.0662 76.0607C71.7515 76.1566 74.1506 76.3972 76.2605 76.7808L103.165 81.5266C98.4651 83.9247 94.1499 87.3811 90.217 91.8895C86.3805 96.3016 82.7826 101.336 79.4256 106.995C76.0682 112.558 72.9005 118.365 69.9269 124.408C67.0494 130.355 64.1732 136.159 61.2958 141.818C58.5141 147.381 55.6829 152.37 52.8053 156.782C49.8321 161.29 46.6187 165.318 43.166 168.866C39.8091 172.415 36.4035 174.765 32.9507 175.917C30.6487 176.78 28.0097 177.213 25.0363 177.213C23.5974 177.213 22.1578 177.069 20.719 176.781C19.6886 176.486 18.5746 175.936 17.3748 175.133L16.2577 174.336C14.6272 173.089 13.9574 171.745 14.2448 170.307C14.4366 169.827 14.2922 169.587 13.8127 169.587C13.429 169.682 13.0923 169.923 12.8045 170.307C12.2295 170.978 11.9404 171.841 11.9404 172.896C11.9404 173.951 12.2293 175.006 12.8045 176.061C13.4756 177.115 14.3874 177.93 15.5375 178.506C16.5923 179.081 17.8405 179.466 19.2787 179.658C20.7174 179.946 22.2536 180.09 23.8841 180.09C28.0087 180.09 31.5578 179.561 34.5315 178.506C39.9029 176.587 44.6996 173.759 48.9201 170.019C53.1407 166.278 56.9303 162.055 60.2876 157.355C64.0283 152.079 67.2412 146.564 69.9269 140.809C72.7085 135.054 75.3955 129.251 77.9853 123.4C80.5751 117.453 83.4064 111.697 86.4759 106.134C89.5454 100.475 93.1907 95.1493 97.4113 90.1612C100.864 86.1327 104.173 83.3975 107.339 81.9587C108.394 82.0547 109.93 82.2471 111.944 82.5348C113.958 82.8226 116.068 83.1113 118.274 83.399C120.576 83.6867 122.542 83.9754 124.172 84.2632C118.609 91.4571 113.62 99.274 109.207 107.715C104.891 116.059 101.153 124.069 97.9874 131.743C94.726 139.608 91.9431 146.47 89.6409 152.321C87.3389 158.076 85.7548 162.584 84.8916 165.845H85.8997C86.2834 165.941 86.6684 165.989 87.052 165.989C87.8189 165.989 88.6341 165.749 89.4969 165.269C90.36 164.79 91.1746 163.734 91.9418 162.104C92.997 159.994 94.3885 157.451 96.1151 154.478C97.8415 151.409 99.5219 148.484 101.152 145.703C102.879 142.633 104.7 139.754 106.618 137.068C108.537 134.286 110.409 131.84 112.232 129.73C114.246 127.332 116.308 125.366 118.418 123.832C120.624 122.201 122.638 121.384 124.46 121.383C125.228 121.383 125.949 121.672 126.621 122.247C127.291 122.823 127.625 123.686 127.625 124.836C127.625 125.891 127.291 127.043 126.621 128.29C124.702 132.414 122.304 136.397 119.426 140.233L118.376 141.681C115.994 145.08 114.088 148.627 112.661 152.321C111.99 154.143 111.656 155.965 111.656 157.787L111.684 158.641C111.82 160.613 112.434 162.438 113.525 164.117C114.868 165.939 117.17 166.853 120.431 166.854C122.445 166.854 124.27 166.373 125.9 165.413C127.531 164.358 128.971 163.207 130.218 161.96C132.999 159.179 135.35 156.206 137.268 153.041C138.266 151.473 139.225 149.902 140.152 148.334C139.901 149.855 139.762 151.376 139.762 152.897C139.762 154.719 140.003 156.493 140.482 158.219C140.668 158.889 140.908 159.522 141.195 160.119C139.45 162.552 137.487 164.864 135.304 167.047C133.665 168.686 131.82 170.152 129.807 171.455L129.68 171.536L129.547 171.613C126.738 173.265 123.642 174.048 120.431 174.048C115.948 174.048 110.958 172.763 107.732 168.385L107.609 168.217L107.493 168.041C105.483 164.948 104.462 161.472 104.462 157.787C104.462 156.394 104.593 155.018 104.848 153.663C104.038 155.075 103.219 156.523 102.386 158.005L102.361 158.047L102.336 158.093C100.655 160.989 99.3428 163.391 98.3774 165.322L98.3738 165.318C97.4157 167.319 95.8058 169.993 92.9922 171.557C91.3596 172.464 89.3432 173.183 87.052 173.184C86.4416 173.184 85.8383 173.131 85.2464 173.04H75.5474L77.9361 164.005C78.9119 160.319 80.6225 155.49 82.9595 149.648C85.2792 143.753 88.0754 136.865 91.3411 128.989C94.5937 121.105 98.4206 112.91 102.818 104.409L102.832 104.381C105.495 99.2864 108.372 94.405 111.449 89.7291L110.925 89.6589C110.11 89.5424 109.395 89.4437 108.775 89.3638C107.155 90.4186 105.179 92.1539 102.874 94.8438C98.9792 99.4513 95.623 104.356 92.799 109.563L92.7884 109.584L92.7744 109.608C89.8156 114.971 87.0845 120.524 84.5824 126.27L84.5649 126.312C81.9559 132.206 79.2445 138.05 76.4432 143.848L76.4467 143.851C73.5748 150.006 70.1439 155.896 66.1576 161.518L66.1435 161.539C62.4798 166.668 58.3286 171.292 53.694 175.4C48.7774 179.758 43.1792 183.058 36.9518 185.282L36.9378 185.289C32.9956 186.688 28.5903 187.284 23.8841 187.284C21.9455 187.284 20.0458 187.115 18.1968 186.768C16.1864 186.487 14.1901 185.917 12.3233 184.938V184.941C12.2959 184.927 12.2698 184.909 12.2425 184.896C12.194 184.87 12.1432 184.848 12.095 184.822V184.818C10.1971 183.828 8.56083 182.457 7.28236 180.722L6.73436 179.925L6.60438 179.718L6.48846 179.507C5.55172 177.789 4.92096 175.868 4.77771 173.795L4.74609 172.896L4.78122 171.979C4.94009 169.821 5.67945 167.564 7.34208 165.624C8.40454 164.342 9.9602 163.133 12.0669 162.607L12.9275 162.392H13.8127C14.7412 162.392 18.3495 162.567 20.4485 166.063C21.1081 167.162 21.3952 168.249 21.4848 169.225C21.9598 169.535 22.2954 169.704 22.5 169.79C23.3565 169.94 24.2003 170.019 25.0363 170.019C27.3224 170.019 29.0801 169.687 30.425 169.183L30.5479 169.133L30.6744 169.091C32.6854 168.421 35.1289 166.894 37.9389 163.924L37.9741 163.885L38.0092 163.85C41.1198 160.653 44.0552 156.984 46.8018 152.82C49.4989 148.681 52.1868 143.947 54.8603 138.6L54.8814 138.554C57.7366 132.939 60.5949 127.177 63.4527 121.271L63.4738 121.229C66.5347 115.008 69.797 109.024 73.2641 103.278C76.8072 97.3111 80.6438 91.9322 84.7862 87.1683L84.7932 87.1577C85.1959 86.6961 85.6107 86.2497 86.0227 85.8053L75.0099 83.8662L74.9713 83.8592C73.6985 83.6278 72.2313 83.4501 70.5557 83.3393L68.8098 83.2515L68.6798 83.2444L68.5533 83.2374C66.0546 83.0589 63.3956 82.9669 60.5757 82.9669C55.6061 82.9669 50.6335 83.282 45.6566 83.9154L45.5934 83.9259L45.5267 83.9329C43.5806 84.1453 41.872 84.4167 40.3804 84.7268C41.2702 85.3975 41.9373 86.1718 42.4002 86.8416C43.4334 88.2881 44.1484 90.0108 44.6871 91.5734C45.3908 93.2516 45.9387 94.9837 46.2327 96.7478C46.3607 97.5158 46.435 98.2909 46.4611 99.0698C46.5625 99.8363 46.6192 100.608 46.6192 101.385L46.6051 102.33C46.5365 104.537 46.2268 106.748 45.7023 108.951L45.6953 108.99L45.6847 109.029C45.0398 111.609 44.0039 114.031 42.5899 116.272C40.3922 119.981 37.3508 122.91 33.5268 124.893L33.4319 124.942L33.3371 124.988C29.8073 126.687 26.0577 127.573 22.1592 127.573C19.3823 127.573 16.6791 127.093 14.0938 126.136L12.9942 125.694L12.8432 125.63L12.6921 125.56C8.73598 123.646 5.51027 120.813 3.29529 117.056L2.86672 116.293L2.81754 116.202L2.77188 116.114C0.90239 112.375 0.000244141 108.338 0.000244141 104.118C0.000286577 101.458 0.304099 98.8127 0.899531 96.1928L0.924121 96.0803L0.952224 95.9715C1.63989 93.3354 2.56161 90.796 3.72034 88.3626H3.72386C5.74533 83.9937 8.53837 80.1406 12.0704 76.844C15.3149 73.8159 18.6954 71.3079 22.226 69.4249C27.5365 66.5607 32.9497 64.4887 38.4553 63.2774L38.4834 63.2739C43.8723 62.1116 49.322 61.528 54.8216 61.528C58.7234 61.5281 62.6536 61.7677 66.6107 62.2412L68.311 62.4589C72.7793 63.0683 77.283 63.9291 81.8213 65.0374H81.8249C89.3121 66.8381 96.8975 68.5431 104.578 70.1556C110.931 71.4102 117.389 72.4316 123.951 73.2258C126.773 70.0757 129.728 67.1515 132.817 64.4578L134.419 63.0983C138.182 59.9861 142.143 57.3289 146.307 55.1522L146.366 55.1206L146.422 55.0925C149.348 53.6299 152.425 52.4598 155.64 51.5727C158.975 50.6527 162.308 50.1605 165.613 50.1605C171.275 50.1606 176.697 51.7712 180.729 55.9707C184.2 59.5867 186.188 64.0652 186.188 69.1544L186.142 70.4471C185.936 73.4437 185.022 76.2896 183.581 78.9307C181.712 82.3576 178.898 85.0316 175.569 87.0805L175.509 87.1156L175.446 87.1542C171.42 89.5222 167.052 91.1091 162.392 91.9247C158.122 92.6718 153.724 93.0382 149.208 93.0382C145.646 93.0382 142.041 92.8853 138.396 92.5816C136.446 92.4191 134.529 92.2771 132.645 92.146C130.637 95.3041 128.721 98.563 126.905 101.926C125.042 105.439 123.32 108.859 121.741 112.187C122.557 111.993 123.391 111.85 124.242 111.772H124.26L125.725 111.677C129.135 111.545 133.033 112.033 136.193 114.431H136.197C136.237 114.461 136.276 114.496 136.316 114.526C136.355 114.557 136.397 114.583 136.435 114.614H136.432C139.897 117.278 141.297 121.14 141.297 124.98L141.252 126.256C141.059 129.17 140.221 132.044 139.007 134.809L139.01 134.813C138.941 134.979 138.86 135.142 138.789 135.308C139.799 134.75 141.062 134.335 142.59 134.335C143.399 134.335 144.238 134.467 145.056 134.739C144.196 136.282 143.441 137.826 142.787 139.369C142.418 140.229 142.08 141.127 141.764 142.056C141.752 142.072 141.738 142.089 141.726 142.106Z" fill="#008C44"/>
</svg>
