<svg width="643" height="928" viewBox="0 0 643 928" fill="none" xmlns="http://www.w3.org/2000/svg">
<rect x="1" y="1" width="640.857" height="926" rx="8.64286" fill="white"/>
<rect x="1" y="1" width="640.857" height="926" rx="8.64286" fill="#002910"/>
<rect x="1" y="1" width="640.857" height="926" rx="8.64286" stroke="#002910" stroke-width="2"/>
<path d="M226.172 362.369V370.108C222.675 364.529 217.247 361.109 210.53 361.109C196.175 361.109 188.078 371.638 188.078 385.767C188.078 399.985 196.267 410.874 210.714 410.874C217.431 410.874 222.767 407.454 226.172 401.875V409.614H237.398V362.369H226.172ZM212.922 401.515C204.733 401.515 200.04 394.046 200.04 385.767C200.04 377.668 204.641 370.558 213.106 370.558C220.099 370.558 226.08 375.508 226.08 385.587C226.08 395.486 220.375 401.515 212.922 401.515Z" fill="white"/>
<path d="M247.055 362.355V409.6H259.017V362.355H247.055Z" fill="white"/>
<path d="M281.079 374.052V362.353H269.117V409.598H281.079V382.601C281.079 375.671 285.956 372.882 290.556 372.882C293.225 372.882 295.985 373.602 297.458 374.142V361.543C289.636 361.543 283.195 366.132 281.079 374.052Z" fill="white"/>
<path d="M300.367 376.743C300.367 391.412 310.673 401.851 325.487 401.851C340.393 401.851 350.608 391.412 350.608 376.743C350.608 362.345 340.393 352.086 325.487 352.086C310.673 352.086 300.367 362.345 300.367 376.743ZM338.645 376.743C338.645 385.922 333.584 392.492 325.487 392.492C317.298 392.492 312.329 385.922 312.329 376.743C312.329 367.924 317.298 361.535 325.487 361.535C333.584 361.535 338.645 367.924 338.645 376.743Z" fill="white"/>
<path d="M383.993 361.109C377 361.109 371.295 365.159 368.259 371.638V362.369H356.297V425.363H368.259V401.155C371.663 407.004 378.012 410.874 384.729 410.874C397.795 410.874 406.905 400.885 406.905 386.577C406.905 371.548 397.427 361.109 383.993 361.109ZM381.877 402.055C373.872 402.055 368.259 395.486 368.259 386.127C368.259 376.498 373.872 369.748 381.877 369.748C389.514 369.748 394.943 376.678 394.943 386.487C394.943 395.666 389.514 402.055 381.877 402.055Z" fill="white"/>
<path d="M410.711 393.236C410.711 401.785 418.44 410.874 433.899 410.874C449.449 410.874 455.062 401.965 455.062 395.036C455.062 384.417 442.272 382.527 433.714 380.907C427.918 379.917 424.237 379.107 424.237 375.868C424.237 372.178 428.378 369.838 432.794 369.838C438.775 369.838 441.076 373.888 441.26 378.208H453.222C453.222 371.188 448.161 361.109 432.518 361.109C418.992 361.109 412.275 368.579 412.275 376.588C412.275 388.017 425.249 389.186 433.807 390.806C438.775 391.706 443.1 392.786 443.1 396.296C443.1 399.805 438.867 402.145 434.359 402.145C430.126 402.145 422.673 399.805 422.673 393.236H410.711Z" fill="white"/>
<path d="M253.255 356.596C248.344 356.596 244.82 353.15 244.82 348.451C244.82 343.752 248.344 340.098 253.255 340.098C257.953 340.098 261.69 343.752 261.69 348.451C261.69 353.15 257.953 356.596 253.255 356.596Z" fill="white"/>
<path d="M88.3975 498.458H83.9131V471.395L82.5052 478.018L77.7601 498.458H72.9107L68.2698 478.018L66.8098 471.395V498.458H62.4297V463.73H69.3127L74.0579 485.422L75.4657 492.044L76.8736 485.37L81.5145 463.73H88.3975V498.458Z" fill="#75FFB9"/>
<path d="M111.521 498.458H106.515L104.69 489.959H97.181L95.3559 498.458H90.5586L98.4324 463.73H103.647L111.521 498.458ZM103.803 485.735L100.935 471.5L98.0674 485.735H103.803Z" fill="#75FFB9"/>
<path d="M133.525 498.823H132.43C128.519 498.823 127.163 497.728 127.163 494.13V487.351C127.163 484.953 126.068 483.336 123.566 483.336H118.664V498.458H113.71V463.73H123.774C129.406 463.73 131.909 466.546 131.909 471.5V475.306C131.909 478.695 130.761 480.729 127.424 481.407C130.709 481.928 132.065 484.692 132.065 487.456V493.765C132.065 494.704 132.482 495.121 133.525 495.121V498.823ZM126.955 475.619V471.395C126.955 469.414 126.121 468.006 123.774 468.006H118.664V479.582H123.253C125.651 479.582 126.955 478.226 126.955 475.619Z" fill="#75FFB9"/>
<path d="M155.8 498.458H150.429L143.859 482.971L141.095 487.716V498.458H136.193V463.73H141.095V480.625L150.533 463.73H155.8L147.039 478.643L155.8 498.458Z" fill="#75FFB9"/>
<path d="M174.434 498.458H158.269V463.73H174.434V468.214H163.171V478.122H171.305V482.398H163.171V493.974H174.434V498.458Z" fill="#75FFB9"/>
<path d="M194.748 468.267H187.656V498.458H182.703V468.267H175.559V463.73H194.748V468.267Z" fill="#75FFB9"/>
<path d="M202.129 498.458H197.176V463.73H202.129V498.458Z" fill="#75FFB9"/>
<path d="M226.332 498.458H222.838L214.235 481.563L211.314 475.462V498.458H206.622V463.73H210.637L218.875 480.938L221.639 487.038V463.73H226.332V498.458Z" fill="#75FFB9"/>
<path d="M249.608 498.458H247.157L246.219 495.799C245.019 498.041 242.568 499.24 239.44 499.24C233.391 499.24 230.419 495.017 230.419 489.698V472.49C230.419 467.38 233.6 463 240.118 463C246.688 463 249.399 466.911 249.399 472.49V474.524H244.706V471.917C244.706 469.57 243.351 467.38 240.118 467.38C236.885 467.38 235.373 469.674 235.373 472.021V490.167C235.373 492.566 236.833 494.86 240.118 494.86C243.403 494.86 244.915 492.566 244.915 490.167V484.796H240.274V480.625H249.608V498.458Z" fill="#75FFB9"/>
<path d="M278.036 468.267H270.945V498.458H265.991V468.267H258.847V463.73H278.036V468.267Z" fill="#75FFB9"/>
<path d="M296.629 498.458H280.464V463.73H296.629V468.214H285.365V478.122H293.5V482.398H285.365V493.974H296.629V498.458Z" fill="#75FFB9"/>
<path d="M318.403 498.458H313.397L311.572 489.959H304.063L302.238 498.458H297.441L305.315 463.73H310.529L318.403 498.458ZM310.686 485.735L307.818 471.5L304.95 485.735H310.686Z" fill="#75FFB9"/>
<path d="M346.56 498.458H342.076V471.395L340.668 478.018L335.923 498.458H331.073L326.433 478.018L324.973 471.395V498.458H320.592V463.73H327.476L332.221 485.422L333.629 492.044L335.036 485.37L339.677 463.73H346.56V498.458Z" fill="#75FFB9"/>
<path d="M369.006 489.802C369.006 495.538 364.938 499.24 359.463 499.24C353.727 499.24 349.921 495.486 349.921 490.428V488.029H354.822V489.646C354.822 493.192 356.439 495.017 359.515 495.017C362.54 495.017 364.104 493.192 364.104 490.532C364.104 487.456 362.748 485.526 358.368 482.763C354.457 480.26 350.338 476.87 350.338 471.865C350.338 466.911 353.623 463 359.515 463C365.147 463 368.745 466.702 368.745 471.812V474.055H364.052V472.438C364.052 469.518 362.644 467.224 359.359 467.224C356.647 467.224 355.24 468.84 355.24 471.187C355.24 474.263 356.647 475.88 361.653 479.113C366.711 482.398 369.006 485.318 369.006 489.802Z" fill="#75FFB9"/>
<path d="M432.716 463.73L421.61 498.458H409.982L404.663 480.416L399.031 498.458H388.133L377.079 463.73H390.01L395.225 483.493L400.439 463.73H411.077L416.187 483.858L421.818 463.73H432.716Z" fill="#F5F5F5"/>
<path d="M446.823 498.458H434.412V463.73H446.823V498.458Z" fill="#F5F5F5"/>
<path d="M485.75 498.458H475.374L465.466 485.631L463.068 482.502V498.458H451.752V463.73H462.338L472.141 476.766L474.435 479.79V463.73H485.75V498.458Z" fill="#F5F5F5"/>
<path d="M517.748 498.458H512.847V483.232H502.991V498.458H498.038V463.73H502.991V478.8H512.847V463.73H517.748V498.458Z" fill="#75FFB9"/>
<path d="M538.519 498.458H522.354V463.73H538.519V468.214H527.256V478.122H535.39V482.398H527.256V493.974H538.519V498.458Z" fill="#75FFB9"/>
<path d="M561.597 498.823H560.502C556.591 498.823 555.235 497.728 555.235 494.13V487.351C555.235 484.953 554.14 483.336 551.637 483.336H546.736V498.458H541.782V463.73H551.846C557.477 463.73 559.98 466.546 559.98 471.5V475.306C559.98 478.695 558.833 480.729 555.496 481.407C558.781 481.928 560.137 484.692 560.137 487.456V493.765C560.137 494.704 560.554 495.121 561.597 495.121V498.823ZM555.026 475.619V471.395C555.026 469.414 554.192 468.006 551.846 468.006H546.736V479.582H551.324C553.723 479.582 555.026 478.226 555.026 475.619Z" fill="#75FFB9"/>
<path d="M580.43 498.458H564.265V463.73H580.43V468.214H569.166V478.122H577.301V482.398H569.166V493.974H580.43V498.458Z" fill="#75FFB9"/>
</svg>
