<svg width="305" height="73" viewBox="0 0 305 73" fill="none" xmlns="http://www.w3.org/2000/svg">
<g filter="url(#filter0_d_1529_13127)">
<path d="M2.32 49.72C2 49.56 1.74667 49.3333 1.56 49.04C1.4 48.7467 1.32 48.4533 1.32 48.16C1.32 47.8667 1.4 47.6267 1.56 47.44C1.64 47.3333 1.73333 47.2667 1.84 47.24C1.97333 47.24 2.01333 47.3067 1.96 47.44C1.88 47.84 2.06667 48.2133 2.52 48.56C2.97333 48.9067 3.38667 49.1333 3.76 49.24C4.16 49.32 4.56 49.36 4.96 49.36C5.78667 49.36 6.52 49.24 7.16 49C8.12 48.68 9.06667 48.0267 10 47.04C10.96 46.0533 11.8533 44.9333 12.68 43.68C13.48 42.4533 14.2667 41.0667 15.04 39.52C15.84 37.9467 16.64 36.3333 17.44 34.68C18.2667 33 19.1467 31.3867 20.08 29.84C21.0133 28.2667 22.0133 26.8667 23.08 25.64C24.1733 24.3867 25.3733 23.4267 26.68 22.76L19.2 21.44C18.6133 21.3333 17.9467 21.2667 17.2 21.24C16.4533 21.1867 15.6667 21.16 14.84 21.16C13.3733 21.16 11.9067 21.2533 10.44 21.44C8.97333 21.6 7.8 21.88 6.92 22.28C5.37333 22.9733 4.04 23.9333 2.92 25.16C1.8 26.36 1.24 27.8667 1.24 29.68C1.24 30.4267 1.36 31.0667 1.6 31.6C1.86667 32.1067 2.2 32.4933 2.6 32.76C3.05333 33.0267 3.52 33.16 4 33.16C4.58667 33.16 5.18667 32.9867 5.8 32.64C6.41333 32.2667 6.94667 31.7333 7.4 31.04C7.61333 30.6933 7.81333 30.1867 8 29.52C8.21333 28.8533 8.32 28.1733 8.32 27.48C8.32 27.1067 8.28 26.7467 8.2 26.4C8.14667 26.0533 8.02667 25.7467 7.84 25.48C7.78667 25.3733 7.76 25.32 7.76 25.32C7.76 25.24 7.8 25.2 7.88 25.2C7.98667 25.2 8.08 25.2667 8.16 25.4C8.29333 25.5867 8.42667 25.88 8.56 26.28C8.72 26.6533 8.82667 27 8.88 27.32C8.90667 27.48 8.92 27.64 8.92 27.8C8.94667 27.96 8.96 28.12 8.96 28.28C8.96 28.8133 8.89333 29.36 8.76 29.92C8.62667 30.4533 8.41333 30.9467 8.12 31.4C7.69333 32.12 7.12 32.6667 6.4 33.04C5.68 33.3867 4.93333 33.56 4.16 33.56C3.54667 33.56 2.96 33.44 2.4 33.2C1.57333 32.8 0.96 32.2267 0.56 31.48C0.186667 30.7333 0 29.92 0 29.04C0 28.4533 0.0666667 27.8667 0.2 27.28C0.36 26.6667 0.573333 26.08 0.84 25.52C1.29333 24.5333 1.92 23.6667 2.72 22.92C3.52 22.1733 4.32 21.5867 5.12 21.16C6.45333 20.44 7.78667 19.9333 9.12 19.64C10.48 19.3467 11.8533 19.2 13.24 19.2C14.3867 19.2 15.5467 19.28 16.72 19.44C17.8933 19.6 19.08 19.8267 20.28 20.12C22.3867 20.6267 24.52 21.1067 26.68 21.56C28.84 21.9867 31.04 22.32 33.28 22.56C34.2133 21.44 35.2 20.4267 36.24 19.52C37.3067 18.5867 38.4267 17.8133 39.6 17.2C40.2933 16.8533 41.0267 16.5733 41.8 16.36C42.5733 16.1467 43.32 16.04 44.04 16.04C45.24 16.04 46.16 16.3733 46.8 17.04C47.44 17.7067 47.76 18.4667 47.76 19.32C47.76 19.9067 47.6 20.4933 47.28 21.08C46.96 21.6667 46.4533 22.1733 45.76 22.6C44.8533 23.1333 43.8667 23.4933 42.8 23.68C41.7333 23.8667 40.6267 23.96 39.48 23.96C38.5467 23.96 37.6 23.92 36.64 23.84C35.68 23.76 34.7467 23.6933 33.84 23.64C33.0133 24.8667 32.24 26.1467 31.52 27.48C30.8267 28.7867 30.2 30.0533 29.64 31.28C29.08 32.48 28.5867 33.56 28.16 34.52C27.84 35.2933 27.56 35.9467 27.32 36.48C27.1067 36.9867 26.9067 37.4533 26.72 37.88C26.56 38.3067 26.3733 38.7867 26.16 39.32C26.5867 38.68 27.0667 37.9867 27.6 37.24C28.16 36.4667 28.6533 35.8667 29.08 35.44C29.6933 34.8267 30.3067 34.3067 30.92 33.88C31.5333 33.4533 32.1333 33.2133 32.72 33.16C33.6267 33.08 34.28 33.2 34.68 33.52C35.08 33.8133 35.28 34.2533 35.28 34.84C35.28 35.4267 35.12 36.08 34.8 36.8C34.4533 37.6267 34.04 38.4533 33.56 39.28C33.08 40.1067 32.64 40.9067 32.24 41.68C32.1333 41.8933 31.9333 42.3067 31.64 42.92C31.3733 43.5067 31.2 44.0667 31.12 44.6C31.12 44.6267 31.1067 44.6667 31.08 44.72C31.08 44.7733 31.08 44.8267 31.08 44.88C31.08 45.1733 31.16 45.4 31.32 45.56C31.48 45.6933 31.6667 45.76 31.88 45.76C32.3333 45.76 32.76 45.6133 33.16 45.32C33.56 45.0267 33.9067 44.7067 34.2 44.36C34.8133 43.6933 35.3733 42.96 35.88 42.16C36.3867 41.36 36.8933 40.5067 37.4 39.6C37.48 39.4933 37.56 39.44 37.64 39.44C37.7467 39.44 37.8 39.52 37.8 39.68C37.8 39.8133 37.7733 39.92 37.72 40C37.24 40.88 36.72 41.76 36.16 42.64C35.6267 43.52 34.9733 44.3467 34.2 45.12C33.8533 45.4667 33.4533 45.7867 33 46.08C32.5467 46.3467 32.04 46.48 31.48 46.48C30.5733 46.48 29.9333 46.2267 29.56 45.72C29.2133 45.1867 29.04 44.6 29.04 43.96C29.04 43.4533 29.1333 42.9467 29.32 42.44C29.7733 41.2667 30.4 40.1467 31.2 39.08C32 38.0133 32.6667 36.9067 33.2 35.76C33.3867 35.4133 33.48 35.0933 33.48 34.8C33.48 34.48 33.3867 34.24 33.2 34.08C33.0133 33.92 32.8133 33.84 32.6 33.84C32.0933 33.84 31.5333 34.0667 30.92 34.52C30.3333 34.9467 29.76 35.4933 29.2 36.16C28.6933 36.7467 28.1733 37.4267 27.64 38.2C27.1067 38.9467 26.6 39.7467 26.12 40.6C25.6667 41.3733 25.2 42.1867 24.72 43.04C24.24 43.8667 23.8533 44.5733 23.56 45.16C23.3467 45.6133 23.12 45.9067 22.88 46.04C22.64 46.1733 22.4133 46.24 22.2 46.24C22.0933 46.24 21.9867 46.2267 21.88 46.2C21.7733 46.2 21.68 46.2 21.6 46.2C21.84 45.2933 22.28 44.04 22.92 42.44C23.56 40.8133 24.3333 38.9067 25.24 36.72C26.12 34.5867 27.16 32.36 28.36 30.04C29.5867 27.6933 30.9733 25.52 32.52 23.52C32.0667 23.44 31.52 23.36 30.88 23.28C30.2667 23.2 29.68 23.12 29.12 23.04C28.56 22.96 28.1333 22.9067 27.84 22.88C26.96 23.28 26.04 24.04 25.08 25.16C23.9067 26.5467 22.8933 28.0267 22.04 29.6C21.1867 31.1467 20.4 32.7467 19.68 34.4C18.96 36.0267 18.2133 37.64 17.44 39.24C16.6933 40.84 15.8 42.3733 14.76 43.84C13.8267 45.1467 12.7733 46.32 11.6 47.36C10.4267 48.4 9.09333 49.1867 7.6 49.72C6.77333 50.0133 5.78667 50.16 4.64 50.16C4.18667 50.16 3.76 50.12 3.36 50.04C2.96 49.9867 2.61333 49.88 2.32 49.72ZM34.52 22.68C35.24 22.7333 36.08 22.8133 37.04 22.92C38.0267 23 39.0133 23.04 40 23.04C41.0133 23.04 42.0133 22.9733 43 22.84C43.9867 22.68 44.8267 22.3867 45.52 21.96C46.0267 21.64 46.3867 21.28 46.6 20.88C46.84 20.48 46.96 20.0667 46.96 19.64C46.96 18.8933 46.64 18.2267 46 17.64C45.36 17.0267 44.52 16.72 43.48 16.72C42.9733 16.72 42.4267 16.7733 41.84 16.88C41.28 16.9867 40.6933 17.1867 40.08 17.48C39.0933 17.9333 38.1333 18.6267 37.2 19.56C36.2667 20.4667 35.3733 21.5067 34.52 22.68Z" fill="#000D05"/>
<path d="M41.4141 46.52C39.8674 46.52 38.7741 46.12 38.1341 45.32C37.8141 44.9733 37.5874 44.56 37.4541 44.08C37.3207 43.6 37.2541 43.1067 37.2541 42.6C37.2541 41.96 37.3341 41.32 37.4941 40.68C37.6541 40.0133 37.8541 39.4 38.0941 38.84C38.4674 37.96 38.9607 37.08 39.5741 36.2C40.1874 35.2933 40.9207 34.5333 41.7741 33.92C42.6541 33.3067 43.6141 33 44.6541 33C45.3474 33 45.8941 33.1733 46.2941 33.52C46.6941 33.8667 46.8941 34.4 46.8941 35.12C46.8941 35.9467 46.6407 36.7867 46.1341 37.64C45.6274 38.4667 44.9874 39.16 44.2141 39.72C43.4407 40.28 42.6407 40.56 41.8141 40.56C41.0674 40.56 40.4141 40.2933 39.8541 39.76C39.6941 40.1867 39.5607 40.6667 39.4541 41.2C39.3474 41.7067 39.2941 42.2267 39.2941 42.76C39.2941 43.5867 39.4541 44.3067 39.7741 44.92C40.1207 45.5333 40.7341 45.84 41.6141 45.84C42.2541 45.84 42.8674 45.68 43.4541 45.36C44.0674 45.0133 44.6141 44.6 45.0941 44.12C45.6274 43.56 46.1341 42.96 46.6141 42.32C47.0941 41.68 47.5607 40.9333 48.0141 40.08C48.0674 40 48.1074 39.96 48.1341 39.96C48.2407 39.96 48.2941 40.08 48.2941 40.32C48.2941 40.48 48.2407 40.6533 48.1341 40.84C47.7341 41.56 47.2674 42.2933 46.7341 43.04C46.2007 43.76 45.6541 44.3867 45.0941 44.92C44.5874 45.4 44.0407 45.7867 43.4541 46.08C42.8674 46.3733 42.1874 46.52 41.4141 46.52ZM40.0541 39.16C40.2407 39.4267 40.4541 39.6267 40.6941 39.76C40.9607 39.8667 41.2274 39.92 41.4941 39.92C42.1341 39.92 42.8007 39.68 43.4941 39.2C44.1874 38.6933 44.7474 38.1067 45.1741 37.44C45.3607 37.1467 45.5207 36.76 45.6541 36.28C45.8141 35.8 45.8941 35.3467 45.8941 34.92C45.8941 34.5467 45.8141 34.2267 45.6541 33.96C45.5207 33.6667 45.2407 33.52 44.8141 33.52C44.3341 33.52 43.7607 33.8133 43.0941 34.4C42.4541 34.9867 41.8407 35.7467 41.2541 36.68C41.0674 37 40.8541 37.3733 40.6141 37.8C40.4007 38.2267 40.2141 38.68 40.0541 39.16Z" fill="#000D05"/>
<path d="M108.1 68.2H98.7L95.8 58.5C91.3 65.4 83 69.8 72.9 69.8C52.7 69.8 41.3 57.6 41.3 43V26.9C41.3 12.5 55.7 0 76.1 0C91.1 0 103 7.6 107.4 17.3L91.7 25.5C89.2 21 83.8 17.7 77.9 17.7C70.8 17.7 65.7 21.4 65.7 27.1V43C65.7 48.2 69.5 52.2 75.9 52.2C81.9 52.2 85 49.4 85 45V43.9H77V34.5H108.1V68.2Z" fill="black"/>
<path d="M170.326 68.2H113.526V1.6H137.326V49.8H170.326V68.2Z" fill="black"/>
<path d="M237.481 44.8C237.481 58.5 227.181 69.8 205.581 69.8C184.081 69.8 173.081 58.5 173.081 44.8V1.6H196.981V43.7C196.981 48.9 200.381 52.1 206.481 52.1C212.681 52.1 215.981 48.9 215.981 43.7V1.6H237.481V44.8Z" fill="black"/>
<path d="M300.802 68.2H244.002V1.6H300.802V18.8H267.802V28.9H289.502V39.5H267.802V49.7H300.802V68.2Z" fill="black"/>
</g>
<defs>
<filter id="filter0_d_1529_13127" x="0" y="0" width="304.801" height="72.8008" filterUnits="userSpaceOnUse" color-interpolation-filters="sRGB">
<feFlood flood-opacity="0" result="BackgroundImageFix"/>
<feColorMatrix in="SourceAlpha" type="matrix" values="0 0 0 0 0 0 0 0 0 0 0 0 0 0 0 0 0 0 127 0" result="hardAlpha"/>
<feOffset dx="4" dy="3"/>
<feComposite in2="hardAlpha" operator="out"/>
<feColorMatrix type="matrix" values="0 0 0 0 1 0 0 0 0 1 0 0 0 0 1 0 0 0 1 0"/>
<feBlend mode="normal" in2="BackgroundImageFix" result="effect1_dropShadow_1529_13127"/>
<feBlend mode="normal" in="SourceGraphic" in2="effect1_dropShadow_1529_13127" result="shape"/>
</filter>
</defs>
</svg>
