<svg width="398" height="168" viewBox="0 0 398 168" fill="none" xmlns="http://www.w3.org/2000/svg">
<g filter="url(#filter0_d_1439_9540)">
<path d="M112.593 78.0008H103.193L100.293 68.3008C95.793 75.2008 87.493 79.6008 77.393 79.6008C57.193 79.6008 45.793 67.4008 45.793 52.8008V36.7008C45.793 22.3008 60.193 9.80078 80.593 9.80078C95.593 9.80078 107.493 17.4008 111.893 27.1008L96.193 35.3008C93.693 30.8008 88.293 27.5008 82.393 27.5008C75.293 27.5008 70.193 31.2008 70.193 36.9008V52.8008C70.193 58.0008 73.993 62.0008 80.393 62.0008C86.393 62.0008 89.493 59.2008 89.493 54.8008V53.7008H81.493V44.3008H112.593V78.0008Z" fill="black"/>
<path d="M182.619 50.3008C182.619 68.4008 168.819 79.6008 149.219 79.6008C129.519 79.6008 115.719 68.4008 115.719 50.3008V39.0008C115.719 20.9008 129.519 9.80078 149.219 9.80078C168.819 9.80078 182.619 20.9008 182.619 39.0008V50.3008ZM158.219 52.9008V36.4008C158.219 29.9008 154.719 26.9008 149.219 26.9008C143.619 26.9008 140.119 29.9008 140.119 36.4008V52.9008C140.119 59.4008 143.619 62.4008 149.219 62.4008C154.719 62.4008 158.219 59.4008 158.219 52.9008Z" fill="black"/>
<path d="M217.198 54.2008H187.398V42.3008H217.198V54.2008Z" fill="black"/>
<path d="M288.777 78.0008H279.377L276.477 68.3008C271.977 75.2008 263.677 79.6008 253.577 79.6008C233.377 79.6008 221.977 67.4008 221.977 52.8008V36.7008C221.977 22.3008 236.377 9.80078 256.777 9.80078C271.777 9.80078 283.677 17.4008 288.077 27.1008L272.377 35.3008C269.877 30.8008 264.477 27.5008 258.577 27.5008C251.477 27.5008 246.377 31.2008 246.377 36.9008V52.8008C246.377 58.0008 250.177 62.0008 256.577 62.0008C262.577 62.0008 265.677 59.2008 265.677 54.8008V53.7008H257.677V44.3008H288.777V78.0008Z" fill="black"/>
<path d="M358.802 50.3008C358.802 68.4008 345.002 79.6008 325.402 79.6008C305.702 79.6008 291.902 68.4008 291.902 50.3008V39.0008C291.902 20.9008 305.702 9.80078 325.402 9.80078C345.002 9.80078 358.802 20.9008 358.802 39.0008V50.3008ZM334.402 52.9008V36.4008C334.402 29.9008 330.902 26.9008 325.402 26.9008C319.802 26.9008 316.302 29.9008 316.302 36.4008V52.9008C316.302 59.4008 319.802 62.4008 325.402 62.4008C330.902 62.4008 334.402 59.4008 334.402 52.9008Z" fill="black"/>
<path d="M393.381 54.2008H363.581V42.3008H393.381V54.2008Z" fill="black"/>
<path d="M112.593 162.001H103.193L100.293 152.301C95.793 159.201 87.493 163.601 77.393 163.601C57.193 163.601 45.793 151.401 45.793 136.801V120.701C45.793 106.301 60.193 93.8008 80.593 93.8008C95.593 93.8008 107.493 101.401 111.893 111.101L96.193 119.301C93.693 114.801 88.293 111.501 82.393 111.501C75.293 111.501 70.193 115.201 70.193 120.901V136.801C70.193 142.001 73.993 146.001 80.393 146.001C86.393 146.001 89.493 143.201 89.493 138.801V137.701H81.493V128.301H112.593V162.001Z" fill="black"/>
<path d="M182.619 134.301C182.619 152.401 168.819 163.601 149.219 163.601C129.519 163.601 115.719 152.401 115.719 134.301V123.001C115.719 104.901 129.519 93.8008 149.219 93.8008C168.819 93.8008 182.619 104.901 182.619 123.001V134.301ZM158.219 136.901V120.401C158.219 113.901 154.719 110.901 149.219 110.901C143.619 110.901 140.119 113.901 140.119 120.401V136.901C140.119 143.401 143.619 146.401 149.219 146.401C154.719 146.401 158.219 143.401 158.219 136.901Z" fill="black"/>
<path d="M244.745 162.001H187.945V95.4008H244.745V112.601H211.745V122.701H233.445V133.301H211.745V143.501H244.745V162.001Z" fill="black"/>
<path d="M315.934 162.001H295.134C291.734 162.001 289.734 157.101 289.734 151.701V142.601C289.734 139.601 288.434 136.901 284.334 136.901H274.834V162.001H251.034V95.4008H290.134C303.534 95.4008 312.634 102.901 312.634 113.201V115.501C312.634 122.101 308.334 127.901 301.134 129.801C309.234 131.301 312.934 137.201 312.934 143.401V150.901C312.934 155.101 314.034 158.701 315.934 161.701V162.001ZM289.134 120.001V117.501C289.134 113.401 287.134 111.701 282.234 111.701H274.834V125.801H282.234C287.134 125.801 289.134 123.901 289.134 120.001Z" fill="black"/>
</g>
<mask id="path-2-outside-1_1439_9540" maskUnits="userSpaceOnUse" x="0" y="13" width="53" height="39" fill="black">
<rect fill="white" y="13" width="53" height="39"/>
<path d="M4.32 48.68C4 48.52 3.74667 48.2933 3.56 48C3.4 47.7067 3.32 47.4133 3.32 47.12C3.32 46.8267 3.4 46.5867 3.56 46.4C3.64 46.2933 3.73333 46.2267 3.84 46.2C3.97333 46.2 4.01333 46.2667 3.96 46.4C3.88 46.8 4.06667 47.1733 4.52 47.52C4.97333 47.8667 5.38667 48.0933 5.76 48.2C6.16 48.28 6.56 48.32 6.96 48.32C7.78667 48.32 8.52 48.2 9.16 47.96C10.12 47.64 11.0667 46.9867 12 46C12.96 45.0133 13.8533 43.8933 14.68 42.64C15.48 41.4133 16.2667 40.0267 17.04 38.48C17.84 36.9067 18.64 35.2933 19.44 33.64C20.2667 31.96 21.1467 30.3467 22.08 28.8C23.0133 27.2267 24.0133 25.8267 25.08 24.6C26.1733 23.3467 27.3733 22.3867 28.68 21.72L21.2 20.4C20.6133 20.2933 19.9467 20.2267 19.2 20.2C18.4533 20.1467 17.6667 20.12 16.84 20.12C15.3733 20.12 13.9067 20.2133 12.44 20.4C10.9733 20.56 9.8 20.84 8.92 21.24C7.37333 21.9333 6.04 22.8933 4.92 24.12C3.8 25.32 3.24 26.8267 3.24 28.64C3.24 29.3867 3.36 30.0267 3.6 30.56C3.86667 31.0667 4.2 31.4533 4.6 31.72C5.05333 31.9867 5.52 32.12 6 32.12C6.58667 32.12 7.18667 31.9467 7.8 31.6C8.41333 31.2267 8.94667 30.6933 9.4 30C9.61333 29.6533 9.81333 29.1467 10 28.48C10.2133 27.8133 10.32 27.1333 10.32 26.44C10.32 26.0667 10.28 25.7067 10.2 25.36C10.1467 25.0133 10.0267 24.7067 9.84 24.44C9.78667 24.3333 9.76 24.28 9.76 24.28C9.76 24.2 9.8 24.16 9.88 24.16C9.98667 24.16 10.08 24.2267 10.16 24.36C10.2933 24.5467 10.4267 24.84 10.56 25.24C10.72 25.6133 10.8267 25.96 10.88 26.28C10.9067 26.44 10.92 26.6 10.92 26.76C10.9467 26.92 10.96 27.08 10.96 27.24C10.96 27.7733 10.8933 28.32 10.76 28.88C10.6267 29.4133 10.4133 29.9067 10.12 30.36C9.69333 31.08 9.12 31.6267 8.4 32C7.68 32.3467 6.93333 32.52 6.16 32.52C5.54667 32.52 4.96 32.4 4.4 32.16C3.57333 31.76 2.96 31.1867 2.56 30.44C2.18667 29.6933 2 28.88 2 28C2 27.4133 2.06667 26.8267 2.2 26.24C2.36 25.6267 2.57333 25.04 2.84 24.48C3.29333 23.4933 3.92 22.6267 4.72 21.88C5.52 21.1333 6.32 20.5467 7.12 20.12C8.45333 19.4 9.78667 18.8933 11.12 18.6C12.48 18.3067 13.8533 18.16 15.24 18.16C16.3867 18.16 17.5467 18.24 18.72 18.4C19.8933 18.56 21.08 18.7867 22.28 19.08C24.3867 19.5867 26.52 20.0667 28.68 20.52C30.84 20.9467 33.04 21.28 35.28 21.52C36.2133 20.4 37.2 19.3867 38.24 18.48C39.3067 17.5467 40.4267 16.7733 41.6 16.16C42.2933 15.8133 43.0267 15.5333 43.8 15.32C44.5733 15.1067 45.32 15 46.04 15C47.24 15 48.16 15.3333 48.8 16C49.44 16.6667 49.76 17.4267 49.76 18.28C49.76 18.8667 49.6 19.4533 49.28 20.04C48.96 20.6267 48.4533 21.1333 47.76 21.56C46.8533 22.0933 45.8667 22.4533 44.8 22.64C43.7333 22.8267 42.6267 22.92 41.48 22.92C40.5467 22.92 39.6 22.88 38.64 22.8C37.68 22.72 36.7467 22.6533 35.84 22.6C35.0133 23.8267 34.24 25.1067 33.52 26.44C32.8267 27.7467 32.2 29.0133 31.64 30.24C31.08 31.44 30.5867 32.52 30.16 33.48C29.84 34.2533 29.56 34.9067 29.32 35.44C29.1067 35.9467 28.9067 36.4133 28.72 36.84C28.56 37.2667 28.3733 37.7467 28.16 38.28C28.5867 37.64 29.0667 36.9467 29.6 36.2C30.16 35.4267 30.6533 34.8267 31.08 34.4C31.6933 33.7867 32.3067 33.2667 32.92 32.84C33.5333 32.4133 34.1333 32.1733 34.72 32.12C35.6267 32.04 36.28 32.16 36.68 32.48C37.08 32.7733 37.28 33.2133 37.28 33.8C37.28 34.3867 37.12 35.04 36.8 35.76C36.4533 36.5867 36.04 37.4133 35.56 38.24C35.08 39.0667 34.64 39.8667 34.24 40.64C34.1333 40.8533 33.9333 41.2667 33.64 41.88C33.3733 42.4667 33.2 43.0267 33.12 43.56C33.12 43.5867 33.1067 43.6267 33.08 43.68C33.08 43.7333 33.08 43.7867 33.08 43.84C33.08 44.1333 33.16 44.36 33.32 44.52C33.48 44.6533 33.6667 44.72 33.88 44.72C34.3333 44.72 34.76 44.5733 35.16 44.28C35.56 43.9867 35.9067 43.6667 36.2 43.32C36.8133 42.6533 37.3733 41.92 37.88 41.12C38.3867 40.32 38.8933 39.4667 39.4 38.56C39.48 38.4533 39.56 38.4 39.64 38.4C39.7467 38.4 39.8 38.48 39.8 38.64C39.8 38.7733 39.7733 38.88 39.72 38.96C39.24 39.84 38.72 40.72 38.16 41.6C37.6267 42.48 36.9733 43.3067 36.2 44.08C35.8533 44.4267 35.4533 44.7467 35 45.04C34.5467 45.3067 34.04 45.44 33.48 45.44C32.5733 45.44 31.9333 45.1867 31.56 44.68C31.2133 44.1467 31.04 43.56 31.04 42.92C31.04 42.4133 31.1333 41.9067 31.32 41.4C31.7733 40.2267 32.4 39.1067 33.2 38.04C34 36.9733 34.6667 35.8667 35.2 34.72C35.3867 34.3733 35.48 34.0533 35.48 33.76C35.48 33.44 35.3867 33.2 35.2 33.04C35.0133 32.88 34.8133 32.8 34.6 32.8C34.0933 32.8 33.5333 33.0267 32.92 33.48C32.3333 33.9067 31.76 34.4533 31.2 35.12C30.6933 35.7067 30.1733 36.3867 29.64 37.16C29.1067 37.9067 28.6 38.7067 28.12 39.56C27.6667 40.3333 27.2 41.1467 26.72 42C26.24 42.8267 25.8533 43.5333 25.56 44.12C25.3467 44.5733 25.12 44.8667 24.88 45C24.64 45.1333 24.4133 45.2 24.2 45.2C24.0933 45.2 23.9867 45.1867 23.88 45.16C23.7733 45.16 23.68 45.16 23.6 45.16C23.84 44.2533 24.28 43 24.92 41.4C25.56 39.7733 26.3333 37.8667 27.24 35.68C28.12 33.5467 29.16 31.32 30.36 29C31.5867 26.6533 32.9733 24.48 34.52 22.48C34.0667 22.4 33.52 22.32 32.88 22.24C32.2667 22.16 31.68 22.08 31.12 22C30.56 21.92 30.1333 21.8667 29.84 21.84C28.96 22.24 28.04 23 27.08 24.12C25.9067 25.5067 24.8933 26.9867 24.04 28.56C23.1867 30.1067 22.4 31.7067 21.68 33.36C20.96 34.9867 20.2133 36.6 19.44 38.2C18.6933 39.8 17.8 41.3333 16.76 42.8C15.8267 44.1067 14.7733 45.28 13.6 46.32C12.4267 47.36 11.0933 48.1467 9.6 48.68C8.77333 48.9733 7.78667 49.12 6.64 49.12C6.18667 49.12 5.76 49.08 5.36 49C4.96 48.9467 4.61333 48.84 4.32 48.68ZM36.52 21.64C37.24 21.6933 38.08 21.7733 39.04 21.88C40.0267 21.96 41.0133 22 42 22C43.0133 22 44.0133 21.9333 45 21.8C45.9867 21.64 46.8267 21.3467 47.52 20.92C48.0267 20.6 48.3867 20.24 48.6 19.84C48.84 19.44 48.96 19.0267 48.96 18.6C48.96 17.8533 48.64 17.1867 48 16.6C47.36 15.9867 46.52 15.68 45.48 15.68C44.9733 15.68 44.4267 15.7333 43.84 15.84C43.28 15.9467 42.6933 16.1467 42.08 16.44C41.0933 16.8933 40.1333 17.5867 39.2 18.52C38.2667 19.4267 37.3733 20.4667 36.52 21.64Z"/>
<path d="M43.4141 45.48C41.8674 45.48 40.7741 45.08 40.1341 44.28C39.8141 43.9333 39.5874 43.52 39.4541 43.04C39.3207 42.56 39.2541 42.0667 39.2541 41.56C39.2541 40.92 39.3341 40.28 39.4941 39.64C39.6541 38.9733 39.8541 38.36 40.0941 37.8C40.4674 36.92 40.9607 36.04 41.5741 35.16C42.1874 34.2533 42.9207 33.4933 43.7741 32.88C44.6541 32.2667 45.6141 31.96 46.6541 31.96C47.3474 31.96 47.8941 32.1333 48.2941 32.48C48.6941 32.8267 48.8941 33.36 48.8941 34.08C48.8941 34.9067 48.6407 35.7467 48.1341 36.6C47.6274 37.4267 46.9874 38.12 46.2141 38.68C45.4407 39.24 44.6407 39.52 43.8141 39.52C43.0674 39.52 42.4141 39.2533 41.8541 38.72C41.6941 39.1467 41.5607 39.6267 41.4541 40.16C41.3474 40.6667 41.2941 41.1867 41.2941 41.72C41.2941 42.5467 41.4541 43.2667 41.7741 43.88C42.1207 44.4933 42.7341 44.8 43.6141 44.8C44.2541 44.8 44.8674 44.64 45.4541 44.32C46.0674 43.9733 46.6141 43.56 47.0941 43.08C47.6274 42.52 48.1341 41.92 48.6141 41.28C49.0941 40.64 49.5607 39.8933 50.0141 39.04C50.0674 38.96 50.1074 38.92 50.1341 38.92C50.2407 38.92 50.2941 39.04 50.2941 39.28C50.2941 39.44 50.2407 39.6133 50.1341 39.8C49.7341 40.52 49.2674 41.2533 48.7341 42C48.2007 42.72 47.6541 43.3467 47.0941 43.88C46.5874 44.36 46.0407 44.7467 45.4541 45.04C44.8674 45.3333 44.1874 45.48 43.4141 45.48ZM42.0541 38.12C42.2407 38.3867 42.4541 38.5867 42.6941 38.72C42.9607 38.8267 43.2274 38.88 43.4941 38.88C44.1341 38.88 44.8007 38.64 45.4941 38.16C46.1874 37.6533 46.7474 37.0667 47.1741 36.4C47.3607 36.1067 47.5207 35.72 47.6541 35.24C47.8141 34.76 47.8941 34.3067 47.8941 33.88C47.8941 33.5067 47.8141 33.1867 47.6541 32.92C47.5207 32.6267 47.2407 32.48 46.8141 32.48C46.3341 32.48 45.7607 32.7733 45.0941 33.36C44.4541 33.9467 43.8407 34.7067 43.2541 35.64C43.0674 35.96 42.8541 36.3333 42.6141 36.76C42.4007 37.1867 42.2141 37.64 42.0541 38.12Z"/>
</mask>
<path d="M4.32 48.68C4 48.52 3.74667 48.2933 3.56 48C3.4 47.7067 3.32 47.4133 3.32 47.12C3.32 46.8267 3.4 46.5867 3.56 46.4C3.64 46.2933 3.73333 46.2267 3.84 46.2C3.97333 46.2 4.01333 46.2667 3.96 46.4C3.88 46.8 4.06667 47.1733 4.52 47.52C4.97333 47.8667 5.38667 48.0933 5.76 48.2C6.16 48.28 6.56 48.32 6.96 48.32C7.78667 48.32 8.52 48.2 9.16 47.96C10.12 47.64 11.0667 46.9867 12 46C12.96 45.0133 13.8533 43.8933 14.68 42.64C15.48 41.4133 16.2667 40.0267 17.04 38.48C17.84 36.9067 18.64 35.2933 19.44 33.64C20.2667 31.96 21.1467 30.3467 22.08 28.8C23.0133 27.2267 24.0133 25.8267 25.08 24.6C26.1733 23.3467 27.3733 22.3867 28.68 21.72L21.2 20.4C20.6133 20.2933 19.9467 20.2267 19.2 20.2C18.4533 20.1467 17.6667 20.12 16.84 20.12C15.3733 20.12 13.9067 20.2133 12.44 20.4C10.9733 20.56 9.8 20.84 8.92 21.24C7.37333 21.9333 6.04 22.8933 4.92 24.12C3.8 25.32 3.24 26.8267 3.24 28.64C3.24 29.3867 3.36 30.0267 3.6 30.56C3.86667 31.0667 4.2 31.4533 4.6 31.72C5.05333 31.9867 5.52 32.12 6 32.12C6.58667 32.12 7.18667 31.9467 7.8 31.6C8.41333 31.2267 8.94667 30.6933 9.4 30C9.61333 29.6533 9.81333 29.1467 10 28.48C10.2133 27.8133 10.32 27.1333 10.32 26.44C10.32 26.0667 10.28 25.7067 10.2 25.36C10.1467 25.0133 10.0267 24.7067 9.84 24.44C9.78667 24.3333 9.76 24.28 9.76 24.28C9.76 24.2 9.8 24.16 9.88 24.16C9.98667 24.16 10.08 24.2267 10.16 24.36C10.2933 24.5467 10.4267 24.84 10.56 25.24C10.72 25.6133 10.8267 25.96 10.88 26.28C10.9067 26.44 10.92 26.6 10.92 26.76C10.9467 26.92 10.96 27.08 10.96 27.24C10.96 27.7733 10.8933 28.32 10.76 28.88C10.6267 29.4133 10.4133 29.9067 10.12 30.36C9.69333 31.08 9.12 31.6267 8.4 32C7.68 32.3467 6.93333 32.52 6.16 32.52C5.54667 32.52 4.96 32.4 4.4 32.16C3.57333 31.76 2.96 31.1867 2.56 30.44C2.18667 29.6933 2 28.88 2 28C2 27.4133 2.06667 26.8267 2.2 26.24C2.36 25.6267 2.57333 25.04 2.84 24.48C3.29333 23.4933 3.92 22.6267 4.72 21.88C5.52 21.1333 6.32 20.5467 7.12 20.12C8.45333 19.4 9.78667 18.8933 11.12 18.6C12.48 18.3067 13.8533 18.16 15.24 18.16C16.3867 18.16 17.5467 18.24 18.72 18.4C19.8933 18.56 21.08 18.7867 22.28 19.08C24.3867 19.5867 26.52 20.0667 28.68 20.52C30.84 20.9467 33.04 21.28 35.28 21.52C36.2133 20.4 37.2 19.3867 38.24 18.48C39.3067 17.5467 40.4267 16.7733 41.6 16.16C42.2933 15.8133 43.0267 15.5333 43.8 15.32C44.5733 15.1067 45.32 15 46.04 15C47.24 15 48.16 15.3333 48.8 16C49.44 16.6667 49.76 17.4267 49.76 18.28C49.76 18.8667 49.6 19.4533 49.28 20.04C48.96 20.6267 48.4533 21.1333 47.76 21.56C46.8533 22.0933 45.8667 22.4533 44.8 22.64C43.7333 22.8267 42.6267 22.92 41.48 22.92C40.5467 22.92 39.6 22.88 38.64 22.8C37.68 22.72 36.7467 22.6533 35.84 22.6C35.0133 23.8267 34.24 25.1067 33.52 26.44C32.8267 27.7467 32.2 29.0133 31.64 30.24C31.08 31.44 30.5867 32.52 30.16 33.48C29.84 34.2533 29.56 34.9067 29.32 35.44C29.1067 35.9467 28.9067 36.4133 28.72 36.84C28.56 37.2667 28.3733 37.7467 28.16 38.28C28.5867 37.64 29.0667 36.9467 29.6 36.2C30.16 35.4267 30.6533 34.8267 31.08 34.4C31.6933 33.7867 32.3067 33.2667 32.92 32.84C33.5333 32.4133 34.1333 32.1733 34.72 32.12C35.6267 32.04 36.28 32.16 36.68 32.48C37.08 32.7733 37.28 33.2133 37.28 33.8C37.28 34.3867 37.12 35.04 36.8 35.76C36.4533 36.5867 36.04 37.4133 35.56 38.24C35.08 39.0667 34.64 39.8667 34.24 40.64C34.1333 40.8533 33.9333 41.2667 33.64 41.88C33.3733 42.4667 33.2 43.0267 33.12 43.56C33.12 43.5867 33.1067 43.6267 33.08 43.68C33.08 43.7333 33.08 43.7867 33.08 43.84C33.08 44.1333 33.16 44.36 33.32 44.52C33.48 44.6533 33.6667 44.72 33.88 44.72C34.3333 44.72 34.76 44.5733 35.16 44.28C35.56 43.9867 35.9067 43.6667 36.2 43.32C36.8133 42.6533 37.3733 41.92 37.88 41.12C38.3867 40.32 38.8933 39.4667 39.4 38.56C39.48 38.4533 39.56 38.4 39.64 38.4C39.7467 38.4 39.8 38.48 39.8 38.64C39.8 38.7733 39.7733 38.88 39.72 38.96C39.24 39.84 38.72 40.72 38.16 41.6C37.6267 42.48 36.9733 43.3067 36.2 44.08C35.8533 44.4267 35.4533 44.7467 35 45.04C34.5467 45.3067 34.04 45.44 33.48 45.44C32.5733 45.44 31.9333 45.1867 31.56 44.68C31.2133 44.1467 31.04 43.56 31.04 42.92C31.04 42.4133 31.1333 41.9067 31.32 41.4C31.7733 40.2267 32.4 39.1067 33.2 38.04C34 36.9733 34.6667 35.8667 35.2 34.72C35.3867 34.3733 35.48 34.0533 35.48 33.76C35.48 33.44 35.3867 33.2 35.2 33.04C35.0133 32.88 34.8133 32.8 34.6 32.8C34.0933 32.8 33.5333 33.0267 32.92 33.48C32.3333 33.9067 31.76 34.4533 31.2 35.12C30.6933 35.7067 30.1733 36.3867 29.64 37.16C29.1067 37.9067 28.6 38.7067 28.12 39.56C27.6667 40.3333 27.2 41.1467 26.72 42C26.24 42.8267 25.8533 43.5333 25.56 44.12C25.3467 44.5733 25.12 44.8667 24.88 45C24.64 45.1333 24.4133 45.2 24.2 45.2C24.0933 45.2 23.9867 45.1867 23.88 45.16C23.7733 45.16 23.68 45.16 23.6 45.16C23.84 44.2533 24.28 43 24.92 41.4C25.56 39.7733 26.3333 37.8667 27.24 35.68C28.12 33.5467 29.16 31.32 30.36 29C31.5867 26.6533 32.9733 24.48 34.52 22.48C34.0667 22.4 33.52 22.32 32.88 22.24C32.2667 22.16 31.68 22.08 31.12 22C30.56 21.92 30.1333 21.8667 29.84 21.84C28.96 22.24 28.04 23 27.08 24.12C25.9067 25.5067 24.8933 26.9867 24.04 28.56C23.1867 30.1067 22.4 31.7067 21.68 33.36C20.96 34.9867 20.2133 36.6 19.44 38.2C18.6933 39.8 17.8 41.3333 16.76 42.8C15.8267 44.1067 14.7733 45.28 13.6 46.32C12.4267 47.36 11.0933 48.1467 9.6 48.68C8.77333 48.9733 7.78667 49.12 6.64 49.12C6.18667 49.12 5.76 49.08 5.36 49C4.96 48.9467 4.61333 48.84 4.32 48.68ZM36.52 21.64C37.24 21.6933 38.08 21.7733 39.04 21.88C40.0267 21.96 41.0133 22 42 22C43.0133 22 44.0133 21.9333 45 21.8C45.9867 21.64 46.8267 21.3467 47.52 20.92C48.0267 20.6 48.3867 20.24 48.6 19.84C48.84 19.44 48.96 19.0267 48.96 18.6C48.96 17.8533 48.64 17.1867 48 16.6C47.36 15.9867 46.52 15.68 45.48 15.68C44.9733 15.68 44.4267 15.7333 43.84 15.84C43.28 15.9467 42.6933 16.1467 42.08 16.44C41.0933 16.8933 40.1333 17.5867 39.2 18.52C38.2667 19.4267 37.3733 20.4667 36.52 21.64Z" fill="#000D05"/>
<path d="M43.4141 45.48C41.8674 45.48 40.7741 45.08 40.1341 44.28C39.8141 43.9333 39.5874 43.52 39.4541 43.04C39.3207 42.56 39.2541 42.0667 39.2541 41.56C39.2541 40.92 39.3341 40.28 39.4941 39.64C39.6541 38.9733 39.8541 38.36 40.0941 37.8C40.4674 36.92 40.9607 36.04 41.5741 35.16C42.1874 34.2533 42.9207 33.4933 43.7741 32.88C44.6541 32.2667 45.6141 31.96 46.6541 31.96C47.3474 31.96 47.8941 32.1333 48.2941 32.48C48.6941 32.8267 48.8941 33.36 48.8941 34.08C48.8941 34.9067 48.6407 35.7467 48.1341 36.6C47.6274 37.4267 46.9874 38.12 46.2141 38.68C45.4407 39.24 44.6407 39.52 43.8141 39.52C43.0674 39.52 42.4141 39.2533 41.8541 38.72C41.6941 39.1467 41.5607 39.6267 41.4541 40.16C41.3474 40.6667 41.2941 41.1867 41.2941 41.72C41.2941 42.5467 41.4541 43.2667 41.7741 43.88C42.1207 44.4933 42.7341 44.8 43.6141 44.8C44.2541 44.8 44.8674 44.64 45.4541 44.32C46.0674 43.9733 46.6141 43.56 47.0941 43.08C47.6274 42.52 48.1341 41.92 48.6141 41.28C49.0941 40.64 49.5607 39.8933 50.0141 39.04C50.0674 38.96 50.1074 38.92 50.1341 38.92C50.2407 38.92 50.2941 39.04 50.2941 39.28C50.2941 39.44 50.2407 39.6133 50.1341 39.8C49.7341 40.52 49.2674 41.2533 48.7341 42C48.2007 42.72 47.6541 43.3467 47.0941 43.88C46.5874 44.36 46.0407 44.7467 45.4541 45.04C44.8674 45.3333 44.1874 45.48 43.4141 45.48ZM42.0541 38.12C42.2407 38.3867 42.4541 38.5867 42.6941 38.72C42.9607 38.8267 43.2274 38.88 43.4941 38.88C44.1341 38.88 44.8007 38.64 45.4941 38.16C46.1874 37.6533 46.7474 37.0667 47.1741 36.4C47.3607 36.1067 47.5207 35.72 47.6541 35.24C47.8141 34.76 47.8941 34.3067 47.8941 33.88C47.8941 33.5067 47.8141 33.1867 47.6541 32.92C47.5207 32.6267 47.2407 32.48 46.8141 32.48C46.3341 32.48 45.7607 32.7733 45.0941 33.36C44.4541 33.9467 43.8407 34.7067 43.2541 35.64C43.0674 35.96 42.8541 36.3333 42.6141 36.76C42.4007 37.1867 42.2141 37.64 42.0541 38.12Z" fill="#000D05"/>
<path d="M4.32 48.68C4 48.52 3.74667 48.2933 3.56 48C3.4 47.7067 3.32 47.4133 3.32 47.12C3.32 46.8267 3.4 46.5867 3.56 46.4C3.64 46.2933 3.73333 46.2267 3.84 46.2C3.97333 46.2 4.01333 46.2667 3.96 46.4C3.88 46.8 4.06667 47.1733 4.52 47.52C4.97333 47.8667 5.38667 48.0933 5.76 48.2C6.16 48.28 6.56 48.32 6.96 48.32C7.78667 48.32 8.52 48.2 9.16 47.96C10.12 47.64 11.0667 46.9867 12 46C12.96 45.0133 13.8533 43.8933 14.68 42.64C15.48 41.4133 16.2667 40.0267 17.04 38.48C17.84 36.9067 18.64 35.2933 19.44 33.64C20.2667 31.96 21.1467 30.3467 22.08 28.8C23.0133 27.2267 24.0133 25.8267 25.08 24.6C26.1733 23.3467 27.3733 22.3867 28.68 21.72L21.2 20.4C20.6133 20.2933 19.9467 20.2267 19.2 20.2C18.4533 20.1467 17.6667 20.12 16.84 20.12C15.3733 20.12 13.9067 20.2133 12.44 20.4C10.9733 20.56 9.8 20.84 8.92 21.24C7.37333 21.9333 6.04 22.8933 4.92 24.12C3.8 25.32 3.24 26.8267 3.24 28.64C3.24 29.3867 3.36 30.0267 3.6 30.56C3.86667 31.0667 4.2 31.4533 4.6 31.72C5.05333 31.9867 5.52 32.12 6 32.12C6.58667 32.12 7.18667 31.9467 7.8 31.6C8.41333 31.2267 8.94667 30.6933 9.4 30C9.61333 29.6533 9.81333 29.1467 10 28.48C10.2133 27.8133 10.32 27.1333 10.32 26.44C10.32 26.0667 10.28 25.7067 10.2 25.36C10.1467 25.0133 10.0267 24.7067 9.84 24.44C9.78667 24.3333 9.76 24.28 9.76 24.28C9.76 24.2 9.8 24.16 9.88 24.16C9.98667 24.16 10.08 24.2267 10.16 24.36C10.2933 24.5467 10.4267 24.84 10.56 25.24C10.72 25.6133 10.8267 25.96 10.88 26.28C10.9067 26.44 10.92 26.6 10.92 26.76C10.9467 26.92 10.96 27.08 10.96 27.24C10.96 27.7733 10.8933 28.32 10.76 28.88C10.6267 29.4133 10.4133 29.9067 10.12 30.36C9.69333 31.08 9.12 31.6267 8.4 32C7.68 32.3467 6.93333 32.52 6.16 32.52C5.54667 32.52 4.96 32.4 4.4 32.16C3.57333 31.76 2.96 31.1867 2.56 30.44C2.18667 29.6933 2 28.88 2 28C2 27.4133 2.06667 26.8267 2.2 26.24C2.36 25.6267 2.57333 25.04 2.84 24.48C3.29333 23.4933 3.92 22.6267 4.72 21.88C5.52 21.1333 6.32 20.5467 7.12 20.12C8.45333 19.4 9.78667 18.8933 11.12 18.6C12.48 18.3067 13.8533 18.16 15.24 18.16C16.3867 18.16 17.5467 18.24 18.72 18.4C19.8933 18.56 21.08 18.7867 22.28 19.08C24.3867 19.5867 26.52 20.0667 28.68 20.52C30.84 20.9467 33.04 21.28 35.28 21.52C36.2133 20.4 37.2 19.3867 38.24 18.48C39.3067 17.5467 40.4267 16.7733 41.6 16.16C42.2933 15.8133 43.0267 15.5333 43.8 15.32C44.5733 15.1067 45.32 15 46.04 15C47.24 15 48.16 15.3333 48.8 16C49.44 16.6667 49.76 17.4267 49.76 18.28C49.76 18.8667 49.6 19.4533 49.28 20.04C48.96 20.6267 48.4533 21.1333 47.76 21.56C46.8533 22.0933 45.8667 22.4533 44.8 22.64C43.7333 22.8267 42.6267 22.92 41.48 22.92C40.5467 22.92 39.6 22.88 38.64 22.8C37.68 22.72 36.7467 22.6533 35.84 22.6C35.0133 23.8267 34.24 25.1067 33.52 26.44C32.8267 27.7467 32.2 29.0133 31.64 30.24C31.08 31.44 30.5867 32.52 30.16 33.48C29.84 34.2533 29.56 34.9067 29.32 35.44C29.1067 35.9467 28.9067 36.4133 28.72 36.84C28.56 37.2667 28.3733 37.7467 28.16 38.28C28.5867 37.64 29.0667 36.9467 29.6 36.2C30.16 35.4267 30.6533 34.8267 31.08 34.4C31.6933 33.7867 32.3067 33.2667 32.92 32.84C33.5333 32.4133 34.1333 32.1733 34.72 32.12C35.6267 32.04 36.28 32.16 36.68 32.48C37.08 32.7733 37.28 33.2133 37.28 33.8C37.28 34.3867 37.12 35.04 36.8 35.76C36.4533 36.5867 36.04 37.4133 35.56 38.24C35.08 39.0667 34.64 39.8667 34.24 40.64C34.1333 40.8533 33.9333 41.2667 33.64 41.88C33.3733 42.4667 33.2 43.0267 33.12 43.56C33.12 43.5867 33.1067 43.6267 33.08 43.68C33.08 43.7333 33.08 43.7867 33.08 43.84C33.08 44.1333 33.16 44.36 33.32 44.52C33.48 44.6533 33.6667 44.72 33.88 44.72C34.3333 44.72 34.76 44.5733 35.16 44.28C35.56 43.9867 35.9067 43.6667 36.2 43.32C36.8133 42.6533 37.3733 41.92 37.88 41.12C38.3867 40.32 38.8933 39.4667 39.4 38.56C39.48 38.4533 39.56 38.4 39.64 38.4C39.7467 38.4 39.8 38.48 39.8 38.64C39.8 38.7733 39.7733 38.88 39.72 38.96C39.24 39.84 38.72 40.72 38.16 41.6C37.6267 42.48 36.9733 43.3067 36.2 44.08C35.8533 44.4267 35.4533 44.7467 35 45.04C34.5467 45.3067 34.04 45.44 33.48 45.44C32.5733 45.44 31.9333 45.1867 31.56 44.68C31.2133 44.1467 31.04 43.56 31.04 42.92C31.04 42.4133 31.1333 41.9067 31.32 41.4C31.7733 40.2267 32.4 39.1067 33.2 38.04C34 36.9733 34.6667 35.8667 35.2 34.72C35.3867 34.3733 35.48 34.0533 35.48 33.76C35.48 33.44 35.3867 33.2 35.2 33.04C35.0133 32.88 34.8133 32.8 34.6 32.8C34.0933 32.8 33.5333 33.0267 32.92 33.48C32.3333 33.9067 31.76 34.4533 31.2 35.12C30.6933 35.7067 30.1733 36.3867 29.64 37.16C29.1067 37.9067 28.6 38.7067 28.12 39.56C27.6667 40.3333 27.2 41.1467 26.72 42C26.24 42.8267 25.8533 43.5333 25.56 44.12C25.3467 44.5733 25.12 44.8667 24.88 45C24.64 45.1333 24.4133 45.2 24.2 45.2C24.0933 45.2 23.9867 45.1867 23.88 45.16C23.7733 45.16 23.68 45.16 23.6 45.16C23.84 44.2533 24.28 43 24.92 41.4C25.56 39.7733 26.3333 37.8667 27.24 35.68C28.12 33.5467 29.16 31.32 30.36 29C31.5867 26.6533 32.9733 24.48 34.52 22.48C34.0667 22.4 33.52 22.32 32.88 22.24C32.2667 22.16 31.68 22.08 31.12 22C30.56 21.92 30.1333 21.8667 29.84 21.84C28.96 22.24 28.04 23 27.08 24.12C25.9067 25.5067 24.8933 26.9867 24.04 28.56C23.1867 30.1067 22.4 31.7067 21.68 33.36C20.96 34.9867 20.2133 36.6 19.44 38.2C18.6933 39.8 17.8 41.3333 16.76 42.8C15.8267 44.1067 14.7733 45.28 13.6 46.32C12.4267 47.36 11.0933 48.1467 9.6 48.68C8.77333 48.9733 7.78667 49.12 6.64 49.12C6.18667 49.12 5.76 49.08 5.36 49C4.96 48.9467 4.61333 48.84 4.32 48.68ZM36.52 21.64C37.24 21.6933 38.08 21.7733 39.04 21.88C40.0267 21.96 41.0133 22 42 22C43.0133 22 44.0133 21.9333 45 21.8C45.9867 21.64 46.8267 21.3467 47.52 20.92C48.0267 20.6 48.3867 20.24 48.6 19.84C48.84 19.44 48.96 19.0267 48.96 18.6C48.96 17.8533 48.64 17.1867 48 16.6C47.36 15.9867 46.52 15.68 45.48 15.68C44.9733 15.68 44.4267 15.7333 43.84 15.84C43.28 15.9467 42.6933 16.1467 42.08 16.44C41.0933 16.8933 40.1333 17.5867 39.2 18.52C38.2667 19.4267 37.3733 20.4667 36.52 21.64Z" stroke="#FFE2E2" stroke-width="4" mask="url(#path-2-outside-1_1439_9540)"/>
<path d="M43.4141 45.48C41.8674 45.48 40.7741 45.08 40.1341 44.28C39.8141 43.9333 39.5874 43.52 39.4541 43.04C39.3207 42.56 39.2541 42.0667 39.2541 41.56C39.2541 40.92 39.3341 40.28 39.4941 39.64C39.6541 38.9733 39.8541 38.36 40.0941 37.8C40.4674 36.92 40.9607 36.04 41.5741 35.16C42.1874 34.2533 42.9207 33.4933 43.7741 32.88C44.6541 32.2667 45.6141 31.96 46.6541 31.96C47.3474 31.96 47.8941 32.1333 48.2941 32.48C48.6941 32.8267 48.8941 33.36 48.8941 34.08C48.8941 34.9067 48.6407 35.7467 48.1341 36.6C47.6274 37.4267 46.9874 38.12 46.2141 38.68C45.4407 39.24 44.6407 39.52 43.8141 39.52C43.0674 39.52 42.4141 39.2533 41.8541 38.72C41.6941 39.1467 41.5607 39.6267 41.4541 40.16C41.3474 40.6667 41.2941 41.1867 41.2941 41.72C41.2941 42.5467 41.4541 43.2667 41.7741 43.88C42.1207 44.4933 42.7341 44.8 43.6141 44.8C44.2541 44.8 44.8674 44.64 45.4541 44.32C46.0674 43.9733 46.6141 43.56 47.0941 43.08C47.6274 42.52 48.1341 41.92 48.6141 41.28C49.0941 40.64 49.5607 39.8933 50.0141 39.04C50.0674 38.96 50.1074 38.92 50.1341 38.92C50.2407 38.92 50.2941 39.04 50.2941 39.28C50.2941 39.44 50.2407 39.6133 50.1341 39.8C49.7341 40.52 49.2674 41.2533 48.7341 42C48.2007 42.72 47.6541 43.3467 47.0941 43.88C46.5874 44.36 46.0407 44.7467 45.4541 45.04C44.8674 45.3333 44.1874 45.48 43.4141 45.48ZM42.0541 38.12C42.2407 38.3867 42.4541 38.5867 42.6941 38.72C42.9607 38.8267 43.2274 38.88 43.4941 38.88C44.1341 38.88 44.8007 38.64 45.4941 38.16C46.1874 37.6533 46.7474 37.0667 47.1741 36.4C47.3607 36.1067 47.5207 35.72 47.6541 35.24C47.8141 34.76 47.8941 34.3067 47.8941 33.88C47.8941 33.5067 47.8141 33.1867 47.6541 32.92C47.5207 32.6267 47.2407 32.48 46.8141 32.48C46.3341 32.48 45.7607 32.7733 45.0941 33.36C44.4541 33.9467 43.8407 34.7067 43.2541 35.64C43.0674 35.96 42.8541 36.3333 42.6141 36.76C42.4007 37.1867 42.2141 37.64 42.0541 38.12Z" stroke="#FFE2E2" stroke-width="4" mask="url(#path-2-outside-1_1439_9540)"/>
<defs>
<filter id="filter0_d_1439_9540" x="45.793" y="9.80078" width="351.59" height="156.801" filterUnits="userSpaceOnUse" color-interpolation-filters="sRGB">
<feFlood flood-opacity="0" result="BackgroundImageFix"/>
<feColorMatrix in="SourceAlpha" type="matrix" values="0 0 0 0 0 0 0 0 0 0 0 0 0 0 0 0 0 0 127 0" result="hardAlpha"/>
<feOffset dx="4" dy="3"/>
<feComposite in2="hardAlpha" operator="out"/>
<feColorMatrix type="matrix" values="0 0 0 0 1 0 0 0 0 1 0 0 0 0 1 0 0 0 1 0"/>
<feBlend mode="normal" in2="BackgroundImageFix" result="effect1_dropShadow_1439_9540"/>
<feBlend mode="normal" in="SourceGraphic" in2="effect1_dropShadow_1439_9540" result="shape"/>
</filter>
</defs>
</svg>
