<svg width="382" height="84" viewBox="0 0 382 84" fill="none" xmlns="http://www.w3.org/2000/svg">
<g filter="url(#filter0_d_1439_9576)">
<path d="M111.694 77.9984H87.8938V54.2984H69.3937V77.9984H45.5938V11.3984H69.3937V37.3984H87.8938V11.3984H111.694V77.9984Z" fill="black"/>
<path d="M176.128 77.9984H119.328V11.3984H176.128V28.5984H143.128V38.6984H164.828V49.2984H143.128V59.4984H176.128V77.9984Z" fill="black"/>
<path d="M247.918 77.9984H222.918L220.018 67.5984H200.918L197.618 77.9984H176.518L199.818 11.3984H224.518L247.918 77.9984ZM216.218 53.7984L211.218 34.4984L205.318 53.7984H216.218Z" fill="black"/>
<path d="M314.9 77.9984H294.1C290.7 77.9984 288.7 73.0984 288.7 67.6984V58.5984C288.7 55.5984 287.4 52.8984 283.3 52.8984H273.8V77.9984H250V11.3984H289.1C302.5 11.3984 311.6 18.8984 311.6 29.1984V31.4984C311.6 38.0984 307.3 43.8984 300.1 45.7984C308.2 47.2984 311.9 53.1984 311.9 59.3984V66.8984C311.9 71.0984 313 74.6984 314.9 77.6984V77.9984ZM288.1 35.9984V33.4984C288.1 29.3984 286.1 27.6984 281.2 27.6984H273.8V41.7984H281.2C286.1 41.7984 288.1 39.8984 288.1 35.9984Z" fill="black"/>
<path d="M377.58 29.3984H357.88V77.9984H334.08V29.3984H314.38V11.3984H377.58V29.3984Z" fill="black"/>
</g>
<mask id="path-2-outside-1_1439_9576" maskUnits="userSpaceOnUse" x="0" y="7.83984" width="53" height="39" fill="black">
<rect fill="white" y="7.83984" width="53" height="39"/>
<path d="M4.32 43.5198C4 43.3598 3.74667 43.1332 3.56 42.8398C3.4 42.5465 3.32 42.2532 3.32 41.9598C3.32 41.6665 3.4 41.4265 3.56 41.2398C3.64 41.1332 3.73333 41.0665 3.84 41.0398C3.97333 41.0398 4.01333 41.1065 3.96 41.2398C3.88 41.6398 4.06667 42.0132 4.52 42.3598C4.97333 42.7065 5.38667 42.9332 5.76 43.0398C6.16 43.1198 6.56 43.1598 6.96 43.1598C7.78667 43.1598 8.52 43.0398 9.16 42.7998C10.12 42.4798 11.0667 41.8265 12 40.8398C12.96 39.8532 13.8533 38.7332 14.68 37.4798C15.48 36.2532 16.2667 34.8665 17.04 33.3198C17.84 31.7465 18.64 30.1332 19.44 28.4798C20.2667 26.7998 21.1467 25.1865 22.08 23.6398C23.0133 22.0665 24.0133 20.6665 25.08 19.4398C26.1733 18.1865 27.3733 17.2265 28.68 16.5598L21.2 15.2398C20.6133 15.1332 19.9467 15.0665 19.2 15.0398C18.4533 14.9865 17.6667 14.9598 16.84 14.9598C15.3733 14.9598 13.9067 15.0532 12.44 15.2398C10.9733 15.3998 9.8 15.6798 8.92 16.0798C7.37333 16.7732 6.04 17.7332 4.92 18.9598C3.8 20.1598 3.24 21.6665 3.24 23.4798C3.24 24.2265 3.36 24.8665 3.6 25.3998C3.86667 25.9065 4.2 26.2932 4.6 26.5598C5.05333 26.8265 5.52 26.9598 6 26.9598C6.58667 26.9598 7.18667 26.7865 7.8 26.4398C8.41333 26.0665 8.94667 25.5332 9.4 24.8398C9.61333 24.4932 9.81333 23.9865 10 23.3198C10.2133 22.6532 10.32 21.9732 10.32 21.2798C10.32 20.9065 10.28 20.5465 10.2 20.1998C10.1467 19.8532 10.0267 19.5465 9.84 19.2798C9.78667 19.1732 9.76 19.1198 9.76 19.1198C9.76 19.0398 9.8 18.9998 9.88 18.9998C9.98667 18.9998 10.08 19.0665 10.16 19.1998C10.2933 19.3865 10.4267 19.6798 10.56 20.0798C10.72 20.4532 10.8267 20.7998 10.88 21.1198C10.9067 21.2798 10.92 21.4398 10.92 21.5998C10.9467 21.7598 10.96 21.9198 10.96 22.0798C10.96 22.6132 10.8933 23.1598 10.76 23.7198C10.6267 24.2532 10.4133 24.7465 10.12 25.1998C9.69333 25.9198 9.12 26.4665 8.4 26.8398C7.68 27.1865 6.93333 27.3598 6.16 27.3598C5.54667 27.3598 4.96 27.2398 4.4 26.9998C3.57333 26.5998 2.96 26.0265 2.56 25.2798C2.18667 24.5332 2 23.7198 2 22.8398C2 22.2532 2.06667 21.6665 2.2 21.0798C2.36 20.4665 2.57333 19.8798 2.84 19.3198C3.29333 18.3332 3.92 17.4665 4.72 16.7198C5.52 15.9732 6.32 15.3865 7.12 14.9598C8.45333 14.2398 9.78667 13.7332 11.12 13.4398C12.48 13.1465 13.8533 12.9998 15.24 12.9998C16.3867 12.9998 17.5467 13.0798 18.72 13.2398C19.8933 13.3998 21.08 13.6265 22.28 13.9198C24.3867 14.4265 26.52 14.9065 28.68 15.3598C30.84 15.7865 33.04 16.1198 35.28 16.3598C36.2133 15.2398 37.2 14.2265 38.24 13.3198C39.3067 12.3865 40.4267 11.6132 41.6 10.9998C42.2933 10.6532 43.0267 10.3732 43.8 10.1598C44.5733 9.94651 45.32 9.83984 46.04 9.83984C47.24 9.83984 48.16 10.1732 48.8 10.8398C49.44 11.5065 49.76 12.2665 49.76 13.1198C49.76 13.7065 49.6 14.2932 49.28 14.8798C48.96 15.4665 48.4533 15.9732 47.76 16.3998C46.8533 16.9332 45.8667 17.2932 44.8 17.4798C43.7333 17.6665 42.6267 17.7598 41.48 17.7598C40.5467 17.7598 39.6 17.7198 38.64 17.6398C37.68 17.5598 36.7467 17.4932 35.84 17.4398C35.0133 18.6665 34.24 19.9465 33.52 21.2798C32.8267 22.5865 32.2 23.8532 31.64 25.0798C31.08 26.2798 30.5867 27.3598 30.16 28.3198C29.84 29.0932 29.56 29.7465 29.32 30.2798C29.1067 30.7865 28.9067 31.2532 28.72 31.6798C28.56 32.1065 28.3733 32.5865 28.16 33.1198C28.5867 32.4798 29.0667 31.7865 29.6 31.0398C30.16 30.2665 30.6533 29.6665 31.08 29.2398C31.6933 28.6265 32.3067 28.1065 32.92 27.6798C33.5333 27.2532 34.1333 27.0132 34.72 26.9598C35.6267 26.8798 36.28 26.9998 36.68 27.3198C37.08 27.6132 37.28 28.0532 37.28 28.6398C37.28 29.2265 37.12 29.8798 36.8 30.5998C36.4533 31.4265 36.04 32.2532 35.56 33.0798C35.08 33.9065 34.64 34.7065 34.24 35.4798C34.1333 35.6932 33.9333 36.1065 33.64 36.7198C33.3733 37.3065 33.2 37.8665 33.12 38.3998C33.12 38.4265 33.1067 38.4665 33.08 38.5198C33.08 38.5732 33.08 38.6265 33.08 38.6798C33.08 38.9732 33.16 39.1998 33.32 39.3598C33.48 39.4932 33.6667 39.5598 33.88 39.5598C34.3333 39.5598 34.76 39.4132 35.16 39.1198C35.56 38.8265 35.9067 38.5065 36.2 38.1598C36.8133 37.4932 37.3733 36.7598 37.88 35.9598C38.3867 35.1598 38.8933 34.3065 39.4 33.3998C39.48 33.2932 39.56 33.2398 39.64 33.2398C39.7467 33.2398 39.8 33.3198 39.8 33.4798C39.8 33.6132 39.7733 33.7198 39.72 33.7998C39.24 34.6798 38.72 35.5598 38.16 36.4398C37.6267 37.3198 36.9733 38.1465 36.2 38.9198C35.8533 39.2665 35.4533 39.5865 35 39.8798C34.5467 40.1465 34.04 40.2798 33.48 40.2798C32.5733 40.2798 31.9333 40.0265 31.56 39.5198C31.2133 38.9865 31.04 38.3998 31.04 37.7598C31.04 37.2532 31.1333 36.7465 31.32 36.2398C31.7733 35.0665 32.4 33.9465 33.2 32.8798C34 31.8132 34.6667 30.7065 35.2 29.5598C35.3867 29.2132 35.48 28.8932 35.48 28.5998C35.48 28.2798 35.3867 28.0398 35.2 27.8798C35.0133 27.7198 34.8133 27.6398 34.6 27.6398C34.0933 27.6398 33.5333 27.8665 32.92 28.3198C32.3333 28.7465 31.76 29.2932 31.2 29.9598C30.6933 30.5465 30.1733 31.2265 29.64 31.9998C29.1067 32.7465 28.6 33.5465 28.12 34.3998C27.6667 35.1732 27.2 35.9865 26.72 36.8398C26.24 37.6665 25.8533 38.3732 25.56 38.9598C25.3467 39.4132 25.12 39.7065 24.88 39.8398C24.64 39.9732 24.4133 40.0398 24.2 40.0398C24.0933 40.0398 23.9867 40.0265 23.88 39.9998C23.7733 39.9998 23.68 39.9998 23.6 39.9998C23.84 39.0932 24.28 37.8398 24.92 36.2398C25.56 34.6132 26.3333 32.7065 27.24 30.5198C28.12 28.3865 29.16 26.1598 30.36 23.8398C31.5867 21.4932 32.9733 19.3198 34.52 17.3198C34.0667 17.2398 33.52 17.1598 32.88 17.0798C32.2667 16.9998 31.68 16.9198 31.12 16.8398C30.56 16.7598 30.1333 16.7065 29.84 16.6798C28.96 17.0798 28.04 17.8398 27.08 18.9598C25.9067 20.3465 24.8933 21.8265 24.04 23.3998C23.1867 24.9465 22.4 26.5465 21.68 28.1998C20.96 29.8265 20.2133 31.4398 19.44 33.0398C18.6933 34.6398 17.8 36.1732 16.76 37.6398C15.8267 38.9465 14.7733 40.1198 13.6 41.1598C12.4267 42.1998 11.0933 42.9865 9.6 43.5198C8.77333 43.8132 7.78667 43.9598 6.64 43.9598C6.18667 43.9598 5.76 43.9198 5.36 43.8398C4.96 43.7865 4.61333 43.6798 4.32 43.5198ZM36.52 16.4798C37.24 16.5332 38.08 16.6132 39.04 16.7198C40.0267 16.7998 41.0133 16.8398 42 16.8398C43.0133 16.8398 44.0133 16.7732 45 16.6398C45.9867 16.4798 46.8267 16.1865 47.52 15.7598C48.0267 15.4398 48.3867 15.0798 48.6 14.6798C48.84 14.2798 48.96 13.8665 48.96 13.4398C48.96 12.6932 48.64 12.0265 48 11.4398C47.36 10.8265 46.52 10.5198 45.48 10.5198C44.9733 10.5198 44.4267 10.5732 43.84 10.6798C43.28 10.7865 42.6933 10.9865 42.08 11.2798C41.0933 11.7332 40.1333 12.4265 39.2 13.3598C38.2667 14.2665 37.3733 15.3065 36.52 16.4798Z"/>
<path d="M43.4141 40.3198C41.8674 40.3198 40.7741 39.9198 40.1341 39.1198C39.8141 38.7732 39.5874 38.3598 39.4541 37.8798C39.3207 37.3998 39.2541 36.9065 39.2541 36.3998C39.2541 35.7598 39.3341 35.1198 39.4941 34.4798C39.6541 33.8132 39.8541 33.1998 40.0941 32.6398C40.4674 31.7598 40.9607 30.8798 41.5741 29.9998C42.1874 29.0932 42.9207 28.3332 43.7741 27.7198C44.6541 27.1065 45.6141 26.7998 46.6541 26.7998C47.3474 26.7998 47.8941 26.9732 48.2941 27.3198C48.6941 27.6665 48.8941 28.1998 48.8941 28.9198C48.8941 29.7465 48.6407 30.5865 48.1341 31.4398C47.6274 32.2665 46.9874 32.9598 46.2141 33.5198C45.4407 34.0798 44.6407 34.3598 43.8141 34.3598C43.0674 34.3598 42.4141 34.0932 41.8541 33.5598C41.6941 33.9865 41.5607 34.4665 41.4541 34.9998C41.3474 35.5065 41.2941 36.0265 41.2941 36.5598C41.2941 37.3865 41.4541 38.1065 41.7741 38.7198C42.1207 39.3332 42.7341 39.6398 43.6141 39.6398C44.2541 39.6398 44.8674 39.4798 45.4541 39.1598C46.0674 38.8132 46.6141 38.3998 47.0941 37.9198C47.6274 37.3598 48.1341 36.7598 48.6141 36.1198C49.0941 35.4798 49.5607 34.7332 50.0141 33.8798C50.0674 33.7998 50.1074 33.7598 50.1341 33.7598C50.2407 33.7598 50.2941 33.8798 50.2941 34.1198C50.2941 34.2798 50.2407 34.4532 50.1341 34.6398C49.7341 35.3598 49.2674 36.0932 48.7341 36.8398C48.2007 37.5598 47.6541 38.1865 47.0941 38.7198C46.5874 39.1998 46.0407 39.5865 45.4541 39.8798C44.8674 40.1732 44.1874 40.3198 43.4141 40.3198ZM42.0541 32.9598C42.2407 33.2265 42.4541 33.4265 42.6941 33.5598C42.9607 33.6665 43.2274 33.7198 43.4941 33.7198C44.1341 33.7198 44.8007 33.4798 45.4941 32.9998C46.1874 32.4932 46.7474 31.9065 47.1741 31.2398C47.3607 30.9465 47.5207 30.5598 47.6541 30.0798C47.8141 29.5998 47.8941 29.1465 47.8941 28.7198C47.8941 28.3465 47.8141 28.0265 47.6541 27.7598C47.5207 27.4665 47.2407 27.3198 46.8141 27.3198C46.3341 27.3198 45.7607 27.6132 45.0941 28.1998C44.4541 28.7865 43.8407 29.5465 43.2541 30.4798C43.0674 30.7998 42.8541 31.1732 42.6141 31.5998C42.4007 32.0265 42.2141 32.4798 42.0541 32.9598Z"/>
</mask>
<path d="M4.32 43.5198C4 43.3598 3.74667 43.1332 3.56 42.8398C3.4 42.5465 3.32 42.2532 3.32 41.9598C3.32 41.6665 3.4 41.4265 3.56 41.2398C3.64 41.1332 3.73333 41.0665 3.84 41.0398C3.97333 41.0398 4.01333 41.1065 3.96 41.2398C3.88 41.6398 4.06667 42.0132 4.52 42.3598C4.97333 42.7065 5.38667 42.9332 5.76 43.0398C6.16 43.1198 6.56 43.1598 6.96 43.1598C7.78667 43.1598 8.52 43.0398 9.16 42.7998C10.12 42.4798 11.0667 41.8265 12 40.8398C12.96 39.8532 13.8533 38.7332 14.68 37.4798C15.48 36.2532 16.2667 34.8665 17.04 33.3198C17.84 31.7465 18.64 30.1332 19.44 28.4798C20.2667 26.7998 21.1467 25.1865 22.08 23.6398C23.0133 22.0665 24.0133 20.6665 25.08 19.4398C26.1733 18.1865 27.3733 17.2265 28.68 16.5598L21.2 15.2398C20.6133 15.1332 19.9467 15.0665 19.2 15.0398C18.4533 14.9865 17.6667 14.9598 16.84 14.9598C15.3733 14.9598 13.9067 15.0532 12.44 15.2398C10.9733 15.3998 9.8 15.6798 8.92 16.0798C7.37333 16.7732 6.04 17.7332 4.92 18.9598C3.8 20.1598 3.24 21.6665 3.24 23.4798C3.24 24.2265 3.36 24.8665 3.6 25.3998C3.86667 25.9065 4.2 26.2932 4.6 26.5598C5.05333 26.8265 5.52 26.9598 6 26.9598C6.58667 26.9598 7.18667 26.7865 7.8 26.4398C8.41333 26.0665 8.94667 25.5332 9.4 24.8398C9.61333 24.4932 9.81333 23.9865 10 23.3198C10.2133 22.6532 10.32 21.9732 10.32 21.2798C10.32 20.9065 10.28 20.5465 10.2 20.1998C10.1467 19.8532 10.0267 19.5465 9.84 19.2798C9.78667 19.1732 9.76 19.1198 9.76 19.1198C9.76 19.0398 9.8 18.9998 9.88 18.9998C9.98667 18.9998 10.08 19.0665 10.16 19.1998C10.2933 19.3865 10.4267 19.6798 10.56 20.0798C10.72 20.4532 10.8267 20.7998 10.88 21.1198C10.9067 21.2798 10.92 21.4398 10.92 21.5998C10.9467 21.7598 10.96 21.9198 10.96 22.0798C10.96 22.6132 10.8933 23.1598 10.76 23.7198C10.6267 24.2532 10.4133 24.7465 10.12 25.1998C9.69333 25.9198 9.12 26.4665 8.4 26.8398C7.68 27.1865 6.93333 27.3598 6.16 27.3598C5.54667 27.3598 4.96 27.2398 4.4 26.9998C3.57333 26.5998 2.96 26.0265 2.56 25.2798C2.18667 24.5332 2 23.7198 2 22.8398C2 22.2532 2.06667 21.6665 2.2 21.0798C2.36 20.4665 2.57333 19.8798 2.84 19.3198C3.29333 18.3332 3.92 17.4665 4.72 16.7198C5.52 15.9732 6.32 15.3865 7.12 14.9598C8.45333 14.2398 9.78667 13.7332 11.12 13.4398C12.48 13.1465 13.8533 12.9998 15.24 12.9998C16.3867 12.9998 17.5467 13.0798 18.72 13.2398C19.8933 13.3998 21.08 13.6265 22.28 13.9198C24.3867 14.4265 26.52 14.9065 28.68 15.3598C30.84 15.7865 33.04 16.1198 35.28 16.3598C36.2133 15.2398 37.2 14.2265 38.24 13.3198C39.3067 12.3865 40.4267 11.6132 41.6 10.9998C42.2933 10.6532 43.0267 10.3732 43.8 10.1598C44.5733 9.94651 45.32 9.83984 46.04 9.83984C47.24 9.83984 48.16 10.1732 48.8 10.8398C49.44 11.5065 49.76 12.2665 49.76 13.1198C49.76 13.7065 49.6 14.2932 49.28 14.8798C48.96 15.4665 48.4533 15.9732 47.76 16.3998C46.8533 16.9332 45.8667 17.2932 44.8 17.4798C43.7333 17.6665 42.6267 17.7598 41.48 17.7598C40.5467 17.7598 39.6 17.7198 38.64 17.6398C37.68 17.5598 36.7467 17.4932 35.84 17.4398C35.0133 18.6665 34.24 19.9465 33.52 21.2798C32.8267 22.5865 32.2 23.8532 31.64 25.0798C31.08 26.2798 30.5867 27.3598 30.16 28.3198C29.84 29.0932 29.56 29.7465 29.32 30.2798C29.1067 30.7865 28.9067 31.2532 28.72 31.6798C28.56 32.1065 28.3733 32.5865 28.16 33.1198C28.5867 32.4798 29.0667 31.7865 29.6 31.0398C30.16 30.2665 30.6533 29.6665 31.08 29.2398C31.6933 28.6265 32.3067 28.1065 32.92 27.6798C33.5333 27.2532 34.1333 27.0132 34.72 26.9598C35.6267 26.8798 36.28 26.9998 36.68 27.3198C37.08 27.6132 37.28 28.0532 37.28 28.6398C37.28 29.2265 37.12 29.8798 36.8 30.5998C36.4533 31.4265 36.04 32.2532 35.56 33.0798C35.08 33.9065 34.64 34.7065 34.24 35.4798C34.1333 35.6932 33.9333 36.1065 33.64 36.7198C33.3733 37.3065 33.2 37.8665 33.12 38.3998C33.12 38.4265 33.1067 38.4665 33.08 38.5198C33.08 38.5732 33.08 38.6265 33.08 38.6798C33.08 38.9732 33.16 39.1998 33.32 39.3598C33.48 39.4932 33.6667 39.5598 33.88 39.5598C34.3333 39.5598 34.76 39.4132 35.16 39.1198C35.56 38.8265 35.9067 38.5065 36.2 38.1598C36.8133 37.4932 37.3733 36.7598 37.88 35.9598C38.3867 35.1598 38.8933 34.3065 39.4 33.3998C39.48 33.2932 39.56 33.2398 39.64 33.2398C39.7467 33.2398 39.8 33.3198 39.8 33.4798C39.8 33.6132 39.7733 33.7198 39.72 33.7998C39.24 34.6798 38.72 35.5598 38.16 36.4398C37.6267 37.3198 36.9733 38.1465 36.2 38.9198C35.8533 39.2665 35.4533 39.5865 35 39.8798C34.5467 40.1465 34.04 40.2798 33.48 40.2798C32.5733 40.2798 31.9333 40.0265 31.56 39.5198C31.2133 38.9865 31.04 38.3998 31.04 37.7598C31.04 37.2532 31.1333 36.7465 31.32 36.2398C31.7733 35.0665 32.4 33.9465 33.2 32.8798C34 31.8132 34.6667 30.7065 35.2 29.5598C35.3867 29.2132 35.48 28.8932 35.48 28.5998C35.48 28.2798 35.3867 28.0398 35.2 27.8798C35.0133 27.7198 34.8133 27.6398 34.6 27.6398C34.0933 27.6398 33.5333 27.8665 32.92 28.3198C32.3333 28.7465 31.76 29.2932 31.2 29.9598C30.6933 30.5465 30.1733 31.2265 29.64 31.9998C29.1067 32.7465 28.6 33.5465 28.12 34.3998C27.6667 35.1732 27.2 35.9865 26.72 36.8398C26.24 37.6665 25.8533 38.3732 25.56 38.9598C25.3467 39.4132 25.12 39.7065 24.88 39.8398C24.64 39.9732 24.4133 40.0398 24.2 40.0398C24.0933 40.0398 23.9867 40.0265 23.88 39.9998C23.7733 39.9998 23.68 39.9998 23.6 39.9998C23.84 39.0932 24.28 37.8398 24.92 36.2398C25.56 34.6132 26.3333 32.7065 27.24 30.5198C28.12 28.3865 29.16 26.1598 30.36 23.8398C31.5867 21.4932 32.9733 19.3198 34.52 17.3198C34.0667 17.2398 33.52 17.1598 32.88 17.0798C32.2667 16.9998 31.68 16.9198 31.12 16.8398C30.56 16.7598 30.1333 16.7065 29.84 16.6798C28.96 17.0798 28.04 17.8398 27.08 18.9598C25.9067 20.3465 24.8933 21.8265 24.04 23.3998C23.1867 24.9465 22.4 26.5465 21.68 28.1998C20.96 29.8265 20.2133 31.4398 19.44 33.0398C18.6933 34.6398 17.8 36.1732 16.76 37.6398C15.8267 38.9465 14.7733 40.1198 13.6 41.1598C12.4267 42.1998 11.0933 42.9865 9.6 43.5198C8.77333 43.8132 7.78667 43.9598 6.64 43.9598C6.18667 43.9598 5.76 43.9198 5.36 43.8398C4.96 43.7865 4.61333 43.6798 4.32 43.5198ZM36.52 16.4798C37.24 16.5332 38.08 16.6132 39.04 16.7198C40.0267 16.7998 41.0133 16.8398 42 16.8398C43.0133 16.8398 44.0133 16.7732 45 16.6398C45.9867 16.4798 46.8267 16.1865 47.52 15.7598C48.0267 15.4398 48.3867 15.0798 48.6 14.6798C48.84 14.2798 48.96 13.8665 48.96 13.4398C48.96 12.6932 48.64 12.0265 48 11.4398C47.36 10.8265 46.52 10.5198 45.48 10.5198C44.9733 10.5198 44.4267 10.5732 43.84 10.6798C43.28 10.7865 42.6933 10.9865 42.08 11.2798C41.0933 11.7332 40.1333 12.4265 39.2 13.3598C38.2667 14.2665 37.3733 15.3065 36.52 16.4798Z" fill="#000D05"/>
<path d="M43.4141 40.3198C41.8674 40.3198 40.7741 39.9198 40.1341 39.1198C39.8141 38.7732 39.5874 38.3598 39.4541 37.8798C39.3207 37.3998 39.2541 36.9065 39.2541 36.3998C39.2541 35.7598 39.3341 35.1198 39.4941 34.4798C39.6541 33.8132 39.8541 33.1998 40.0941 32.6398C40.4674 31.7598 40.9607 30.8798 41.5741 29.9998C42.1874 29.0932 42.9207 28.3332 43.7741 27.7198C44.6541 27.1065 45.6141 26.7998 46.6541 26.7998C47.3474 26.7998 47.8941 26.9732 48.2941 27.3198C48.6941 27.6665 48.8941 28.1998 48.8941 28.9198C48.8941 29.7465 48.6407 30.5865 48.1341 31.4398C47.6274 32.2665 46.9874 32.9598 46.2141 33.5198C45.4407 34.0798 44.6407 34.3598 43.8141 34.3598C43.0674 34.3598 42.4141 34.0932 41.8541 33.5598C41.6941 33.9865 41.5607 34.4665 41.4541 34.9998C41.3474 35.5065 41.2941 36.0265 41.2941 36.5598C41.2941 37.3865 41.4541 38.1065 41.7741 38.7198C42.1207 39.3332 42.7341 39.6398 43.6141 39.6398C44.2541 39.6398 44.8674 39.4798 45.4541 39.1598C46.0674 38.8132 46.6141 38.3998 47.0941 37.9198C47.6274 37.3598 48.1341 36.7598 48.6141 36.1198C49.0941 35.4798 49.5607 34.7332 50.0141 33.8798C50.0674 33.7998 50.1074 33.7598 50.1341 33.7598C50.2407 33.7598 50.2941 33.8798 50.2941 34.1198C50.2941 34.2798 50.2407 34.4532 50.1341 34.6398C49.7341 35.3598 49.2674 36.0932 48.7341 36.8398C48.2007 37.5598 47.6541 38.1865 47.0941 38.7198C46.5874 39.1998 46.0407 39.5865 45.4541 39.8798C44.8674 40.1732 44.1874 40.3198 43.4141 40.3198ZM42.0541 32.9598C42.2407 33.2265 42.4541 33.4265 42.6941 33.5598C42.9607 33.6665 43.2274 33.7198 43.4941 33.7198C44.1341 33.7198 44.8007 33.4798 45.4941 32.9998C46.1874 32.4932 46.7474 31.9065 47.1741 31.2398C47.3607 30.9465 47.5207 30.5598 47.6541 30.0798C47.8141 29.5998 47.8941 29.1465 47.8941 28.7198C47.8941 28.3465 47.8141 28.0265 47.6541 27.7598C47.5207 27.4665 47.2407 27.3198 46.8141 27.3198C46.3341 27.3198 45.7607 27.6132 45.0941 28.1998C44.4541 28.7865 43.8407 29.5465 43.2541 30.4798C43.0674 30.7998 42.8541 31.1732 42.6141 31.5998C42.4007 32.0265 42.2141 32.4798 42.0541 32.9598Z" fill="#000D05"/>
<path d="M4.32 43.5198C4 43.3598 3.74667 43.1332 3.56 42.8398C3.4 42.5465 3.32 42.2532 3.32 41.9598C3.32 41.6665 3.4 41.4265 3.56 41.2398C3.64 41.1332 3.73333 41.0665 3.84 41.0398C3.97333 41.0398 4.01333 41.1065 3.96 41.2398C3.88 41.6398 4.06667 42.0132 4.52 42.3598C4.97333 42.7065 5.38667 42.9332 5.76 43.0398C6.16 43.1198 6.56 43.1598 6.96 43.1598C7.78667 43.1598 8.52 43.0398 9.16 42.7998C10.12 42.4798 11.0667 41.8265 12 40.8398C12.96 39.8532 13.8533 38.7332 14.68 37.4798C15.48 36.2532 16.2667 34.8665 17.04 33.3198C17.84 31.7465 18.64 30.1332 19.44 28.4798C20.2667 26.7998 21.1467 25.1865 22.08 23.6398C23.0133 22.0665 24.0133 20.6665 25.08 19.4398C26.1733 18.1865 27.3733 17.2265 28.68 16.5598L21.2 15.2398C20.6133 15.1332 19.9467 15.0665 19.2 15.0398C18.4533 14.9865 17.6667 14.9598 16.84 14.9598C15.3733 14.9598 13.9067 15.0532 12.44 15.2398C10.9733 15.3998 9.8 15.6798 8.92 16.0798C7.37333 16.7732 6.04 17.7332 4.92 18.9598C3.8 20.1598 3.24 21.6665 3.24 23.4798C3.24 24.2265 3.36 24.8665 3.6 25.3998C3.86667 25.9065 4.2 26.2932 4.6 26.5598C5.05333 26.8265 5.52 26.9598 6 26.9598C6.58667 26.9598 7.18667 26.7865 7.8 26.4398C8.41333 26.0665 8.94667 25.5332 9.4 24.8398C9.61333 24.4932 9.81333 23.9865 10 23.3198C10.2133 22.6532 10.32 21.9732 10.32 21.2798C10.32 20.9065 10.28 20.5465 10.2 20.1998C10.1467 19.8532 10.0267 19.5465 9.84 19.2798C9.78667 19.1732 9.76 19.1198 9.76 19.1198C9.76 19.0398 9.8 18.9998 9.88 18.9998C9.98667 18.9998 10.08 19.0665 10.16 19.1998C10.2933 19.3865 10.4267 19.6798 10.56 20.0798C10.72 20.4532 10.8267 20.7998 10.88 21.1198C10.9067 21.2798 10.92 21.4398 10.92 21.5998C10.9467 21.7598 10.96 21.9198 10.96 22.0798C10.96 22.6132 10.8933 23.1598 10.76 23.7198C10.6267 24.2532 10.4133 24.7465 10.12 25.1998C9.69333 25.9198 9.12 26.4665 8.4 26.8398C7.68 27.1865 6.93333 27.3598 6.16 27.3598C5.54667 27.3598 4.96 27.2398 4.4 26.9998C3.57333 26.5998 2.96 26.0265 2.56 25.2798C2.18667 24.5332 2 23.7198 2 22.8398C2 22.2532 2.06667 21.6665 2.2 21.0798C2.36 20.4665 2.57333 19.8798 2.84 19.3198C3.29333 18.3332 3.92 17.4665 4.72 16.7198C5.52 15.9732 6.32 15.3865 7.12 14.9598C8.45333 14.2398 9.78667 13.7332 11.12 13.4398C12.48 13.1465 13.8533 12.9998 15.24 12.9998C16.3867 12.9998 17.5467 13.0798 18.72 13.2398C19.8933 13.3998 21.08 13.6265 22.28 13.9198C24.3867 14.4265 26.52 14.9065 28.68 15.3598C30.84 15.7865 33.04 16.1198 35.28 16.3598C36.2133 15.2398 37.2 14.2265 38.24 13.3198C39.3067 12.3865 40.4267 11.6132 41.6 10.9998C42.2933 10.6532 43.0267 10.3732 43.8 10.1598C44.5733 9.94651 45.32 9.83984 46.04 9.83984C47.24 9.83984 48.16 10.1732 48.8 10.8398C49.44 11.5065 49.76 12.2665 49.76 13.1198C49.76 13.7065 49.6 14.2932 49.28 14.8798C48.96 15.4665 48.4533 15.9732 47.76 16.3998C46.8533 16.9332 45.8667 17.2932 44.8 17.4798C43.7333 17.6665 42.6267 17.7598 41.48 17.7598C40.5467 17.7598 39.6 17.7198 38.64 17.6398C37.68 17.5598 36.7467 17.4932 35.84 17.4398C35.0133 18.6665 34.24 19.9465 33.52 21.2798C32.8267 22.5865 32.2 23.8532 31.64 25.0798C31.08 26.2798 30.5867 27.3598 30.16 28.3198C29.84 29.0932 29.56 29.7465 29.32 30.2798C29.1067 30.7865 28.9067 31.2532 28.72 31.6798C28.56 32.1065 28.3733 32.5865 28.16 33.1198C28.5867 32.4798 29.0667 31.7865 29.6 31.0398C30.16 30.2665 30.6533 29.6665 31.08 29.2398C31.6933 28.6265 32.3067 28.1065 32.92 27.6798C33.5333 27.2532 34.1333 27.0132 34.72 26.9598C35.6267 26.8798 36.28 26.9998 36.68 27.3198C37.08 27.6132 37.28 28.0532 37.28 28.6398C37.28 29.2265 37.12 29.8798 36.8 30.5998C36.4533 31.4265 36.04 32.2532 35.56 33.0798C35.08 33.9065 34.64 34.7065 34.24 35.4798C34.1333 35.6932 33.9333 36.1065 33.64 36.7198C33.3733 37.3065 33.2 37.8665 33.12 38.3998C33.12 38.4265 33.1067 38.4665 33.08 38.5198C33.08 38.5732 33.08 38.6265 33.08 38.6798C33.08 38.9732 33.16 39.1998 33.32 39.3598C33.48 39.4932 33.6667 39.5598 33.88 39.5598C34.3333 39.5598 34.76 39.4132 35.16 39.1198C35.56 38.8265 35.9067 38.5065 36.2 38.1598C36.8133 37.4932 37.3733 36.7598 37.88 35.9598C38.3867 35.1598 38.8933 34.3065 39.4 33.3998C39.48 33.2932 39.56 33.2398 39.64 33.2398C39.7467 33.2398 39.8 33.3198 39.8 33.4798C39.8 33.6132 39.7733 33.7198 39.72 33.7998C39.24 34.6798 38.72 35.5598 38.16 36.4398C37.6267 37.3198 36.9733 38.1465 36.2 38.9198C35.8533 39.2665 35.4533 39.5865 35 39.8798C34.5467 40.1465 34.04 40.2798 33.48 40.2798C32.5733 40.2798 31.9333 40.0265 31.56 39.5198C31.2133 38.9865 31.04 38.3998 31.04 37.7598C31.04 37.2532 31.1333 36.7465 31.32 36.2398C31.7733 35.0665 32.4 33.9465 33.2 32.8798C34 31.8132 34.6667 30.7065 35.2 29.5598C35.3867 29.2132 35.48 28.8932 35.48 28.5998C35.48 28.2798 35.3867 28.0398 35.2 27.8798C35.0133 27.7198 34.8133 27.6398 34.6 27.6398C34.0933 27.6398 33.5333 27.8665 32.92 28.3198C32.3333 28.7465 31.76 29.2932 31.2 29.9598C30.6933 30.5465 30.1733 31.2265 29.64 31.9998C29.1067 32.7465 28.6 33.5465 28.12 34.3998C27.6667 35.1732 27.2 35.9865 26.72 36.8398C26.24 37.6665 25.8533 38.3732 25.56 38.9598C25.3467 39.4132 25.12 39.7065 24.88 39.8398C24.64 39.9732 24.4133 40.0398 24.2 40.0398C24.0933 40.0398 23.9867 40.0265 23.88 39.9998C23.7733 39.9998 23.68 39.9998 23.6 39.9998C23.84 39.0932 24.28 37.8398 24.92 36.2398C25.56 34.6132 26.3333 32.7065 27.24 30.5198C28.12 28.3865 29.16 26.1598 30.36 23.8398C31.5867 21.4932 32.9733 19.3198 34.52 17.3198C34.0667 17.2398 33.52 17.1598 32.88 17.0798C32.2667 16.9998 31.68 16.9198 31.12 16.8398C30.56 16.7598 30.1333 16.7065 29.84 16.6798C28.96 17.0798 28.04 17.8398 27.08 18.9598C25.9067 20.3465 24.8933 21.8265 24.04 23.3998C23.1867 24.9465 22.4 26.5465 21.68 28.1998C20.96 29.8265 20.2133 31.4398 19.44 33.0398C18.6933 34.6398 17.8 36.1732 16.76 37.6398C15.8267 38.9465 14.7733 40.1198 13.6 41.1598C12.4267 42.1998 11.0933 42.9865 9.6 43.5198C8.77333 43.8132 7.78667 43.9598 6.64 43.9598C6.18667 43.9598 5.76 43.9198 5.36 43.8398C4.96 43.7865 4.61333 43.6798 4.32 43.5198ZM36.52 16.4798C37.24 16.5332 38.08 16.6132 39.04 16.7198C40.0267 16.7998 41.0133 16.8398 42 16.8398C43.0133 16.8398 44.0133 16.7732 45 16.6398C45.9867 16.4798 46.8267 16.1865 47.52 15.7598C48.0267 15.4398 48.3867 15.0798 48.6 14.6798C48.84 14.2798 48.96 13.8665 48.96 13.4398C48.96 12.6932 48.64 12.0265 48 11.4398C47.36 10.8265 46.52 10.5198 45.48 10.5198C44.9733 10.5198 44.4267 10.5732 43.84 10.6798C43.28 10.7865 42.6933 10.9865 42.08 11.2798C41.0933 11.7332 40.1333 12.4265 39.2 13.3598C38.2667 14.2665 37.3733 15.3065 36.52 16.4798Z" stroke="#DFEAE3" stroke-width="4" mask="url(#path-2-outside-1_1439_9576)"/>
<path d="M43.4141 40.3198C41.8674 40.3198 40.7741 39.9198 40.1341 39.1198C39.8141 38.7732 39.5874 38.3598 39.4541 37.8798C39.3207 37.3998 39.2541 36.9065 39.2541 36.3998C39.2541 35.7598 39.3341 35.1198 39.4941 34.4798C39.6541 33.8132 39.8541 33.1998 40.0941 32.6398C40.4674 31.7598 40.9607 30.8798 41.5741 29.9998C42.1874 29.0932 42.9207 28.3332 43.7741 27.7198C44.6541 27.1065 45.6141 26.7998 46.6541 26.7998C47.3474 26.7998 47.8941 26.9732 48.2941 27.3198C48.6941 27.6665 48.8941 28.1998 48.8941 28.9198C48.8941 29.7465 48.6407 30.5865 48.1341 31.4398C47.6274 32.2665 46.9874 32.9598 46.2141 33.5198C45.4407 34.0798 44.6407 34.3598 43.8141 34.3598C43.0674 34.3598 42.4141 34.0932 41.8541 33.5598C41.6941 33.9865 41.5607 34.4665 41.4541 34.9998C41.3474 35.5065 41.2941 36.0265 41.2941 36.5598C41.2941 37.3865 41.4541 38.1065 41.7741 38.7198C42.1207 39.3332 42.7341 39.6398 43.6141 39.6398C44.2541 39.6398 44.8674 39.4798 45.4541 39.1598C46.0674 38.8132 46.6141 38.3998 47.0941 37.9198C47.6274 37.3598 48.1341 36.7598 48.6141 36.1198C49.0941 35.4798 49.5607 34.7332 50.0141 33.8798C50.0674 33.7998 50.1074 33.7598 50.1341 33.7598C50.2407 33.7598 50.2941 33.8798 50.2941 34.1198C50.2941 34.2798 50.2407 34.4532 50.1341 34.6398C49.7341 35.3598 49.2674 36.0932 48.7341 36.8398C48.2007 37.5598 47.6541 38.1865 47.0941 38.7198C46.5874 39.1998 46.0407 39.5865 45.4541 39.8798C44.8674 40.1732 44.1874 40.3198 43.4141 40.3198ZM42.0541 32.9598C42.2407 33.2265 42.4541 33.4265 42.6941 33.5598C42.9607 33.6665 43.2274 33.7198 43.4941 33.7198C44.1341 33.7198 44.8007 33.4798 45.4941 32.9998C46.1874 32.4932 46.7474 31.9065 47.1741 31.2398C47.3607 30.9465 47.5207 30.5598 47.6541 30.0798C47.8141 29.5998 47.8941 29.1465 47.8941 28.7198C47.8941 28.3465 47.8141 28.0265 47.6541 27.7598C47.5207 27.4665 47.2407 27.3198 46.8141 27.3198C46.3341 27.3198 45.7607 27.6132 45.0941 28.1998C44.4541 28.7865 43.8407 29.5465 43.2541 30.4798C43.0674 30.7998 42.8541 31.1732 42.6141 31.5998C42.4007 32.0265 42.2141 32.4798 42.0541 32.9598Z" stroke="#DFEAE3" stroke-width="4" mask="url(#path-2-outside-1_1439_9576)"/>
<defs>
<filter id="filter0_d_1439_9576" x="45.5938" y="11.3984" width="335.984" height="69.6016" filterUnits="userSpaceOnUse" color-interpolation-filters="sRGB">
<feFlood flood-opacity="0" result="BackgroundImageFix"/>
<feColorMatrix in="SourceAlpha" type="matrix" values="0 0 0 0 0 0 0 0 0 0 0 0 0 0 0 0 0 0 127 0" result="hardAlpha"/>
<feOffset dx="4" dy="3"/>
<feComposite in2="hardAlpha" operator="out"/>
<feColorMatrix type="matrix" values="0 0 0 0 1 0 0 0 0 1 0 0 0 0 1 0 0 0 1 0"/>
<feBlend mode="normal" in2="BackgroundImageFix" result="effect1_dropShadow_1439_9576"/>
<feBlend mode="normal" in="SourceGraphic" in2="effect1_dropShadow_1439_9576" result="shape"/>
</filter>
</defs>
</svg>
