<svg width="1318" height="240" viewBox="0 0 1318 240" fill="none" xmlns="http://www.w3.org/2000/svg">
<path d="M1317.77 64.8649H1247.42V240H1162.44V64.8649H1092.1V0H1317.77V64.8649Z" fill="#0D020A"/>
<path d="M1093.64 240H1019.01C1006.81 240 999.64 222.342 999.64 202.883V170.09C999.64 159.279 994.976 149.55 980.267 149.55H946.184V240H860.799V0H1001.07C1049.15 0 1081.8 27.027 1081.8 64.1441V72.4324C1081.8 96.2162 1066.37 117.117 1040.54 123.964C1069.6 129.369 1082.87 150.631 1082.87 172.973V200C1082.87 215.135 1086.82 228.108 1093.64 238.919V240ZM997.487 88.6486V79.6396C997.487 64.8649 990.312 58.7387 972.733 58.7387H946.184V109.55H972.733C990.312 109.55 997.487 102.703 997.487 88.6486Z" fill="#0D020A"/>
<path d="M615.399 240H414.802V0H615.399V61.982H498.854V98.3784H575.491V136.577H498.854V173.333H615.399V240Z" fill="#0D020A"/>
<path d="M766.933 0H679.182L621.935 173.407V239.775H671.362L683.083 202.334H750.94L761.249 239.775H853.537L766.933 0ZM698.724 152.642L719.695 83.1612L737.453 152.642H698.724Z" fill="#0D020A"/>
<path d="M407.617 240H322.492V154.595H256.323V240H171.199V0H256.323V93.6937H322.492V0H407.617V240Z" fill="#0D020A"/>
<path d="M166.264 115.779C167.602 115.779 168.537 116.18 169.07 116.986L169.475 117.72C169.914 118.598 170.133 119.622 170.133 120.792C170.133 122.32 169.846 123.945 169.272 125.664C168.795 127.384 168.22 128.769 167.551 129.82C166.023 132.208 164.018 134.309 161.535 136.124C159.051 137.843 156.663 138.702 154.37 138.702C153.415 138.702 152.461 138.51 151.505 138.128C150.646 137.651 149.883 136.935 149.214 135.98C149.787 134.261 150.455 132.636 151.219 131.108C152.078 129.58 152.842 128.244 153.51 127.099C155.611 123.755 157.811 121.032 160.104 118.931C162.492 116.829 164.545 115.779 166.264 115.779ZM153.653 148.875C153.653 150.538 153.918 151.779 154.297 152.719C154.424 152.732 154.59 152.743 154.801 152.743C155.829 152.743 156.838 152.501 157.921 151.918C159.533 151.001 160.934 149.933 162.154 148.721C162.972 147.859 163.774 146.967 164.557 146.041C161.751 147.397 158.726 148.161 155.518 148.161C154.894 148.161 154.279 148.126 153.674 148.063C153.664 148.331 153.653 148.602 153.653 148.875ZM177.727 139.276C176.104 142.332 174.431 145.008 172.711 147.3C170.992 149.592 169.178 151.742 167.268 153.747C165.549 155.467 163.588 156.948 161.391 158.19C159.29 159.336 157.093 159.908 154.801 159.908C151.648 159.908 149.452 158.809 148.21 156.612C147.064 154.416 146.489 151.835 146.489 148.875C146.489 146.965 146.681 145.102 147.063 143.288C147.445 141.378 147.924 139.657 148.497 138.128C150.503 140.039 152.843 140.997 155.518 140.997C158.479 140.997 161.343 139.991 164.113 137.985C166.882 135.979 169.175 133.498 170.99 130.537C172.805 127.481 173.715 124.47 173.715 121.509C173.715 118.93 172.997 117.02 171.564 115.779C170.131 114.537 168.174 113.914 165.69 113.914C161.965 113.914 158.526 115.013 155.374 117.209C152.318 119.406 149.69 122.13 147.493 125.378C145.296 128.529 143.531 131.681 142.193 134.833C141.827 135.689 141.49 136.583 141.175 137.509C141.163 137.525 141.149 137.542 141.137 137.558C139.322 140.805 137.508 143.862 135.694 146.727C134.607 148.443 133.448 150.072 132.224 151.617C132.09 150.522 132.017 149.417 132.017 148.304C132.017 145.409 132.381 142.531 133.091 139.688C133.745 136.979 134.577 134.415 135.606 132.014C137.158 128.361 139.175 124.784 141.616 121.281C144.256 117.399 147.45 114.083 151.194 111.392L151.236 111.364L151.278 111.333C155.592 108.326 160.452 106.75 165.69 106.75C169.124 106.75 172.686 107.569 175.667 109.881L176.258 110.364C179.77 113.408 180.879 117.638 180.879 121.509L180.862 122.348C180.736 125.6 179.874 128.722 178.469 131.692C179.91 131.751 181.403 132.219 182.705 133.196C184.014 134.177 184.74 135.375 185.133 136.26C185.845 137.863 185.892 139.398 185.892 140.136C185.892 142.273 185.194 144.091 184.416 145.474C182.838 148.315 181.019 151.175 178.969 154.045L178.899 154.143C176.782 157.002 174.554 159.566 172.207 161.8L172.193 161.814C169.899 163.987 167.367 165.791 164.595 167.177C161.336 168.806 157.768 169.51 154.084 169.51C147.666 169.51 141.307 167.886 137.072 162.906C135.356 161.046 134.109 158.895 133.312 156.542L132.997 155.521C132.865 155.047 132.749 154.569 132.644 154.09C134.159 152.282 135.513 150.403 136.698 148.448C137.692 146.886 138.646 145.322 139.57 143.76C139.32 145.275 139.182 146.789 139.182 148.304L139.227 149.655C139.317 150.998 139.54 152.314 139.899 153.604C140.376 155.323 141.187 156.805 142.333 158.047C144.626 160.912 148.544 162.346 154.084 162.346C156.854 162.346 159.29 161.819 161.391 160.768C163.493 159.717 165.453 158.332 167.268 156.612C169.274 154.702 171.231 152.457 173.141 149.878C175.052 147.204 176.721 144.576 178.154 141.997C178.441 141.495 178.621 141.021 178.693 140.573L178.728 140.136C178.728 139.276 178.536 138.845 178.154 138.845C178.059 138.847 177.917 138.991 177.727 139.276Z" fill="white"/>
<path d="M148.492 138.123C148.865 138.477 149.255 138.792 149.65 139.081C149.525 140.096 149.219 141.255 148.566 142.411L148.569 142.415C147.951 143.548 147.308 144.676 146.656 145.808C146.751 144.956 146.883 144.114 147.058 143.282C147.44 141.372 147.919 139.651 148.492 138.123ZM149.398 135.436C149.509 135.825 149.587 136.192 149.636 136.527C149.491 136.352 149.346 136.17 149.209 135.975C149.27 135.794 149.336 135.615 149.398 135.436ZM27.7997 86.2172C26.0416 87.5408 24.4106 89.0159 22.9128 90.6564L22.8883 90.6844L22.8603 90.7123C20.2205 93.5407 18.771 97.1311 18.771 102.018L18.785 102.707C18.8439 104.116 19.0876 105.096 19.3587 105.768C19.7297 106.423 20.0607 106.775 20.3032 106.972C20.8328 107.251 21.204 107.318 21.4925 107.318C22.1128 107.318 23.0181 107.146 24.291 106.447C25.3976 105.756 26.5175 104.697 27.6003 103.068C27.8648 102.613 28.3545 101.539 28.9226 99.5101L28.9576 99.3842L28.996 99.2583C29.5362 97.5699 29.8005 95.8715 29.8006 94.137L29.7866 93.5318C29.7545 92.9431 29.6747 92.3929 29.5557 91.8772L29.4963 91.6184L29.4543 91.356C29.4337 91.2227 29.4093 91.1496 29.3983 91.1216C29.3884 91.0965 29.3818 91.086 29.3773 91.0796L29.0765 90.6494L28.8386 90.1771C28.8267 90.1533 28.8148 90.1295 28.8036 90.1072C28.8009 90.1016 28.8029 90.1022 28.8001 90.0967L28.7966 90.0932V90.0897L28.7931 90.0827L28.7896 90.0792V90.0722C28.7845 90.0618 28.7842 90.0683 28.7792 90.0582C28.7752 90.0503 28.7796 90.0556 28.7757 90.0477V90.0442L28.7722 90.0407C28.7569 90.0102 28.7736 90.04 28.7582 90.0092L28.7512 90.0022V89.9987L28.7477 89.9952L28.7407 89.9812V89.9742H28.7372L28.7127 89.9253C28.7041 89.9081 28.7107 89.9143 28.7022 89.8973C28.6984 89.8897 28.6987 89.8938 28.6952 89.8868L28.6917 89.8833V89.8798L28.6882 89.8763V89.8728L28.6847 89.8658L28.6812 89.8623V89.8553L28.6777 89.8483L28.6707 89.8378L28.6672 89.8308L28.6637 89.8273L28.6602 89.8203V89.8168C28.6575 89.8114 28.6594 89.8152 28.6567 89.8098V89.8063H28.6532L28.6497 89.7993V89.7958C28.6464 89.7892 28.6456 89.791 28.6427 89.7853C28.6394 89.7787 28.6354 89.7706 28.6322 89.7643C28.6264 89.7526 28.635 89.7663 28.6287 89.7538L28.6252 89.7503V89.7469C28.6135 89.7233 28.6026 89.7016 28.5938 89.6839C28.5788 89.6541 28.5812 89.6623 28.5693 89.6384V89.6314H28.5658V89.6279L28.5623 89.6244L28.5588 89.6104H28.5553V89.6034H28.5518L27.7962 88.0887V86.3991C27.7962 86.3408 27.7982 86.2798 27.7997 86.2172ZM162.912 55.5911C166.637 55.5911 169.648 56.6928 171.94 58.8898C174.232 60.991 175.379 63.3798 175.379 66.054C175.379 67.5816 174.947 69.0609 174.088 70.4931C173.324 71.926 172.034 73.2158 170.219 74.3621C167.736 75.8902 164.728 76.9407 161.194 77.5139C157.66 77.9915 154.077 78.231 150.448 78.231C146.914 78.231 143.379 78.0872 139.845 77.8007C136.406 77.4186 133.395 77.1347 130.816 76.9437C133.873 72.7407 137.075 69.0149 140.419 65.7671C143.762 62.4239 147.2 59.94 150.735 58.3161C152.931 57.2655 155.032 56.5468 157.038 56.1648C159.139 55.7828 161.097 55.5911 162.912 55.5911ZM162.912 62.7552C161.605 62.7553 160.095 62.8906 158.364 63.203C157.07 63.451 155.561 63.9461 153.823 64.7772L153.726 64.8261C151.109 66.0282 148.352 67.9642 145.484 70.8324L145.445 70.8674L145.41 70.9059C145.392 70.9237 145.373 70.9405 145.354 70.9584C147.052 71.0283 148.75 71.0668 150.448 71.0668C153.729 71.0668 156.958 70.8519 160.138 70.4267C162.888 69.9711 164.927 69.1968 166.434 68.2753C167.479 67.6083 167.742 67.1711 167.767 67.1244L167.851 66.9635L167.945 66.8096C168.2 66.3849 168.215 66.1648 168.215 66.054L168.19 65.7566C168.139 65.4687 167.977 65.0713 167.456 64.5183L167.099 64.1685L167.039 64.116L166.983 64.0601C166.253 63.3601 165.132 62.7552 162.912 62.7552ZM141.132 137.552C139.318 140.799 137.504 143.856 135.689 146.721C133.874 149.586 131.869 152.214 129.672 154.602C128.622 155.844 127.379 156.99 125.947 158.041C124.514 159.092 122.985 159.615 121.361 159.615C120.597 159.615 119.926 159.379 119.353 158.901C118.78 158.328 118.496 157.514 118.496 156.463V155.89C118.59 155.7 118.639 155.558 118.639 155.463C118.926 153.552 119.545 151.544 120.5 149.443L122.652 145.003C123.726 142.926 124.879 140.793 126.115 138.609L127.378 136.405C129.097 133.444 130.578 130.481 131.82 127.52C132.966 124.941 133.541 122.6 133.541 120.499C133.541 118.398 132.822 116.824 131.39 115.773C129.957 114.627 127.617 114.196 124.369 114.482C122.268 114.673 120.119 115.532 117.922 117.06C115.725 118.589 113.529 120.453 111.332 122.65C109.803 124.179 108.034 126.327 106.028 129.097C104.118 131.772 102.4 134.256 100.872 136.548C101.636 134.638 102.304 132.917 102.877 131.389C103.545 129.861 104.261 128.19 105.024 126.376C105.884 124.465 106.89 122.125 108.036 119.355C109.565 115.916 111.33 112.047 113.336 107.748C115.342 103.355 117.587 98.8172 120.07 94.137C122.649 89.3613 125.421 84.7761 128.382 80.3823C131.629 80.5734 134.972 80.8094 138.411 81.096C141.849 81.3825 145.24 81.5262 148.583 81.5262C152.691 81.5262 156.656 81.1944 160.477 80.5258C164.298 79.8572 167.832 78.567 171.08 76.6568C173.563 75.1285 175.38 73.3117 176.526 71.2102C177.672 69.1092 178.244 67.0076 178.244 64.9066C178.244 61.8499 177.098 59.1265 174.805 56.7385C172.513 54.3507 169.217 53.1565 164.92 53.1564C162.34 53.1564 159.665 53.5396 156.895 54.3038C154.125 55.0679 151.497 56.0704 149.014 57.3121C144.811 59.5091 140.801 62.2807 136.98 65.6237C133.255 68.8715 129.72 72.5015 126.377 76.5134C118.353 75.6537 110.471 74.4597 102.733 72.9313C94.9965 71.3076 87.3557 69.5863 79.8099 67.7716C75.5114 66.7208 71.2587 65.91 67.0557 65.3369C62.8533 64.7638 58.6988 64.4764 54.5919 64.4763C49.625 64.4763 44.7047 65.0034 39.8333 66.054C35.0574 67.1047 30.2807 68.9182 25.5049 71.4971C22.6393 73.0254 19.772 75.1262 16.9065 77.8007C14.0408 80.4753 11.7965 83.5819 10.1726 87.1163C9.21755 89.1219 8.45435 91.2232 7.8813 93.4199C7.40373 95.5212 7.16422 97.6222 7.16418 99.7235C7.16418 102.876 7.8313 105.791 9.16861 108.465C10.6013 111.139 12.7986 113.193 15.7591 114.626C17.7651 115.485 19.8692 115.916 22.0662 115.916C24.8356 115.916 27.509 115.293 30.0875 114.052C32.6665 112.715 34.7228 110.758 36.2512 108.179C37.3019 106.555 38.0648 104.786 38.5424 102.875C39.0199 100.87 39.2595 98.9121 39.2596 97.002C39.2596 96.4288 39.2117 95.854 39.1161 95.2809C39.1161 94.7084 39.0681 94.1358 38.9727 93.5633C38.7817 92.417 38.3985 91.1751 37.8253 89.8378C37.348 88.4057 36.872 87.3547 36.3946 86.686C36.1081 86.2085 35.7726 85.969 35.3906 85.9689C35.1041 85.9689 34.9604 86.1126 34.9604 86.3991C34.9645 86.4074 35.0604 86.5992 35.2472 86.9728C35.915 87.9271 36.3433 89.0243 36.5345 90.2646L36.538 90.2681C36.8244 91.5096 36.9648 92.8 36.9648 94.137C36.9647 96.6202 36.585 99.0569 35.8209 101.445C35.1523 103.832 34.4336 105.646 33.6695 106.888C32.0457 109.371 30.1365 111.284 27.9396 112.621C25.7431 113.863 23.5936 114.482 21.4925 114.482C19.7731 114.482 18.1001 114.003 16.4762 113.048C15.0441 112.093 13.849 110.71 12.8941 108.896C12.0346 106.986 11.607 104.692 11.6068 102.018C11.6068 95.5228 13.6117 90.1239 17.6236 85.8254C21.6355 81.4315 26.4118 77.993 31.952 75.5094C34.71 74.2558 38.2721 73.3309 42.6388 72.7354L44.5592 72.501C49.813 71.8324 55.0681 71.4971 60.3218 71.4971C63.283 71.4971 66.1022 71.5929 68.7768 71.7839C71.4509 71.8795 73.8399 72.119 75.941 72.501L102.733 77.227C98.0526 79.6151 93.7555 83.057 89.8391 87.5465C86.0186 91.9401 82.4358 96.9534 79.0928 102.589C75.7495 108.129 72.5951 113.911 69.6339 119.929C66.7685 125.85 63.9043 131.63 61.0389 137.266C58.2689 142.806 55.4495 147.774 52.584 152.168C49.6232 156.656 46.4233 160.667 42.9851 164.201C39.6422 167.735 36.2508 170.075 32.8125 171.222C30.5201 172.082 27.8922 172.513 24.9312 172.513C23.4984 172.513 22.0648 172.369 20.632 172.082C19.6059 171.789 18.4966 171.241 17.3018 170.442L16.1894 169.648C14.5658 168.406 13.8987 167.068 14.1849 165.635C14.376 165.158 14.2322 164.918 13.7547 164.918C13.3726 165.014 13.0373 165.253 12.7507 165.635C12.1781 166.304 11.8902 167.163 11.8902 168.213C11.8902 169.264 12.1779 170.315 12.7507 171.365C13.419 172.415 14.3269 173.227 15.4722 173.8C16.5226 174.373 17.7656 174.756 19.1978 174.947C20.6304 175.234 22.1601 175.378 23.7838 175.378C27.8912 175.378 31.4255 174.851 34.3867 173.8C39.7356 171.89 44.5122 169.074 48.715 165.349C52.918 161.623 56.6917 157.418 60.035 152.738C63.76 147.484 66.9594 141.992 69.6339 136.262C72.4039 130.53 75.0796 124.751 77.6586 118.925C80.2376 113.003 83.057 107.272 86.1136 101.731C89.1703 96.0956 92.8003 90.7926 97.0033 85.8254C100.442 81.8138 103.737 79.0901 106.889 77.6573C107.94 77.7528 109.469 77.9444 111.475 78.231C113.481 78.5175 115.582 78.805 117.779 79.0915C120.071 79.378 122.028 79.6656 123.652 79.9521C118.112 87.1159 113.144 94.9001 108.75 103.306C104.452 111.615 100.729 119.592 97.577 127.233C94.3292 135.066 91.5579 141.898 89.2654 147.725C86.973 153.456 85.3956 157.945 84.5359 161.193H85.5399C85.9219 161.288 86.3053 161.336 86.6873 161.336C87.451 161.336 88.2628 161.096 89.122 160.619C89.9815 160.141 90.7927 159.091 91.5567 157.467C92.6074 155.366 93.9931 152.834 95.7125 149.873C97.4317 146.816 99.1051 143.904 100.729 141.134C102.448 138.078 104.262 135.211 106.172 132.536C108.082 129.766 109.947 127.33 111.762 125.228C113.768 122.841 115.821 120.883 117.922 119.355C120.119 117.731 122.124 116.917 123.939 116.917C124.703 116.917 125.422 117.204 126.09 117.777C126.758 118.35 127.09 119.21 127.091 120.356C127.091 121.406 126.758 122.553 126.09 123.794C124.18 127.901 121.791 131.867 118.926 135.688L117.88 137.129C115.508 140.514 113.61 144.047 112.189 147.725C111.52 149.539 111.188 151.354 111.188 153.168L111.216 154.018C111.352 155.982 111.963 157.8 113.049 159.472C114.386 161.286 116.679 162.196 119.927 162.197C121.933 162.197 123.749 161.718 125.373 160.762C126.997 159.712 128.431 158.565 129.672 157.324C132.442 154.554 134.783 151.594 136.693 148.442C137.687 146.881 138.642 145.316 139.565 143.755C139.315 145.269 139.177 146.784 139.177 148.299C139.177 150.113 139.417 151.88 139.894 153.598C140.079 154.265 140.318 154.896 140.604 155.491C138.866 157.913 136.912 160.215 134.738 162.389C133.105 164.022 131.268 165.482 129.263 166.779L129.137 166.86L129.004 166.937C126.208 168.582 123.124 169.361 119.927 169.361C115.463 169.361 110.493 168.081 107.281 163.722L107.158 163.554L107.043 163.379C105.041 160.299 104.024 156.838 104.024 153.168C104.024 151.781 104.155 150.411 104.409 149.061C103.603 150.467 102.787 151.909 101.957 153.385L101.932 153.427L101.908 153.472C100.233 156.356 98.9266 158.749 97.9653 160.672L97.9618 160.668C97.0076 162.66 95.4045 165.323 92.6026 166.881C90.9768 167.784 88.9689 168.5 86.6873 168.5C86.0794 168.5 85.4787 168.448 84.8892 168.357H75.2309L77.6096 159.36C78.5813 155.689 80.2847 150.881 82.6119 145.063C84.9219 139.193 87.7064 132.333 90.9585 124.49C94.1975 116.639 98.0083 108.479 102.387 100.014L102.401 99.9859C105.053 94.9124 107.918 90.0514 110.982 85.3952L110.461 85.3252C109.649 85.2092 108.937 85.1109 108.32 85.0314C106.706 86.0817 104.739 87.8098 102.443 90.4885C98.5645 95.0766 95.2225 99.9606 92.4102 105.146L92.3997 105.167L92.3857 105.191C89.4394 110.531 86.7197 116.061 84.2281 121.783L84.2106 121.825C81.6125 127.694 78.9125 133.513 76.1229 139.287L76.1264 139.291C73.2665 145.419 69.85 151.285 65.8804 156.883L65.8664 156.904C62.218 162.012 58.0841 166.617 53.469 170.708C48.573 175.047 42.9982 178.333 36.7969 180.548L36.7829 180.555C32.8572 181.948 28.4703 182.542 23.7838 182.542C21.8534 182.542 19.9616 182.373 18.1203 182.028C16.1184 181.748 14.1305 181.18 12.2715 180.205V180.209C12.2442 180.195 12.2182 180.177 12.191 180.163C12.1427 180.137 12.0922 180.116 12.0441 180.09V180.086C10.1541 179.1 8.52474 177.735 7.25163 176.007L6.70592 175.213L6.57649 175.007L6.46105 174.797C5.52824 173.087 4.90011 171.173 4.75746 169.109L4.72598 168.213L4.76096 167.3C4.91916 165.151 5.65543 162.904 7.3111 160.972C8.36912 159.695 9.91826 158.492 12.0161 157.967L12.8731 157.754H13.7547C14.6792 157.754 18.2724 157.928 20.3626 161.41C21.0195 162.504 21.3054 163.586 21.3946 164.558C21.8676 164.867 22.2018 165.035 22.4056 165.121C23.2585 165.27 24.0987 165.349 24.9312 165.349C27.2078 165.348 28.9581 165.018 30.2973 164.516L30.4198 164.467L30.5457 164.425C32.5484 163.757 34.9815 162.237 37.7799 159.279L37.8148 159.241L37.8498 159.206C40.9474 156.022 43.8705 152.368 46.6056 148.222C49.2915 144.1 51.968 139.386 54.6304 134.061L54.6514 134.016C57.4947 128.424 60.341 122.686 63.1868 116.805L63.2078 116.763C66.2559 110.569 69.5045 104.609 72.9571 98.8875C76.4854 92.9454 80.3059 87.589 84.431 82.845L84.438 82.8345C84.8389 82.3749 85.2521 81.9303 85.6623 81.4878L74.6957 79.5568L74.6572 79.5498C73.3897 79.3194 71.9286 79.1424 70.26 79.0321L68.5215 78.9446L68.392 78.9376L68.2661 78.9306C65.7778 78.7529 63.13 78.6613 60.3218 78.6613C55.3731 78.6613 50.4213 78.975 45.4653 79.6058L45.4023 79.6163L45.3358 79.6232C43.3979 79.8347 41.6964 80.105 40.2111 80.4138C41.0972 81.0817 41.7615 81.8528 42.2225 82.5197C43.2514 83.9601 43.9634 85.6757 44.4998 87.2317C45.2006 88.9029 45.7461 90.6278 46.0389 92.3844C46.1664 93.1492 46.2403 93.9211 46.2663 94.6967C46.3674 95.4601 46.4237 96.2289 46.4237 97.002L46.4097 97.943C46.3415 100.142 46.0331 102.343 45.5107 104.537L45.5037 104.575L45.4932 104.614C44.851 107.183 43.8194 109.595 42.4114 111.827C40.2228 115.52 37.1942 118.437 33.3862 120.411L33.2917 120.46L33.1973 120.506C29.6823 122.198 25.9484 123.08 22.0662 123.081C19.3009 123.081 16.6091 122.603 14.0345 121.65L12.9396 121.209L12.7892 121.146L12.6388 121.076C8.69916 119.17 5.48695 116.349 3.28125 112.607L2.85448 111.848L2.8055 111.757L2.76003 111.67C0.898369 107.946 0 103.926 0 99.7235C4.22582e-05 97.0745 0.302583 94.4407 0.895522 91.8317L0.920009 91.7198L0.947994 91.6114C1.63278 88.9864 2.55064 86.4576 3.70452 84.0344H3.70802C5.72104 79.6838 8.50239 75.8467 12.0196 72.564C15.2506 69.5485 18.6169 67.051 22.1327 65.176C27.421 62.3238 32.8115 60.2604 38.2941 59.0542L38.3221 59.0507C43.6884 57.8933 49.1153 57.3121 54.5919 57.3121C58.4774 57.3122 62.391 57.5508 66.3316 58.0223L68.0247 58.2392C72.4744 58.846 76.9592 59.7031 81.4785 60.8068H81.482C88.938 62.6 96.4916 64.2978 104.139 65.9036C110.467 67.1529 116.897 68.17 123.432 68.9609C126.242 65.824 129.185 62.912 132.261 60.2296L133.856 58.8758C137.603 55.7767 141.547 53.1306 145.694 50.963L145.753 50.9316L145.809 50.9036C148.722 49.447 151.786 48.2819 154.988 47.3984C158.309 46.4823 161.628 45.9922 164.92 45.9922C170.557 45.9923 175.957 47.5962 179.972 51.7781C183.429 55.3789 185.408 59.8387 185.408 64.9066L185.363 66.1939C185.158 69.1779 184.247 72.0119 182.813 74.6419C180.951 78.0545 178.149 80.7173 174.833 82.7576L174.774 82.7926L174.711 82.831C170.702 85.1891 166.352 86.7694 161.712 87.5815C157.46 88.3255 153.08 88.6904 148.583 88.6904C145.036 88.6904 141.446 88.5382 137.816 88.2357C135.875 88.0739 133.966 87.9325 132.09 87.8019C130.09 90.9468 128.182 94.192 126.374 97.5407C124.518 101.039 122.804 104.445 121.231 107.759C122.044 107.566 122.875 107.423 123.722 107.346H123.74L125.198 107.252C128.594 107.119 132.476 107.606 135.623 109.994H135.626C135.667 110.024 135.705 110.058 135.745 110.089C135.784 110.119 135.826 110.145 135.864 110.176H135.861C139.311 112.829 140.705 116.675 140.705 120.499L140.66 121.769C140.468 124.671 139.634 127.533 138.425 130.287L138.428 130.29C138.359 130.456 138.278 130.618 138.208 130.783C139.214 130.228 140.471 129.815 141.993 129.814C142.798 129.814 143.634 129.946 144.448 130.217C143.592 131.753 142.841 133.291 142.189 134.827C141.822 135.683 141.485 136.578 141.171 137.503C141.158 137.519 141.144 137.536 141.132 137.552Z" fill="white"/>
<path d="M154.096 162.344C148.555 162.344 144.639 160.911 142.346 158.045C141.2 156.804 140.388 155.323 139.911 153.604C139.433 151.884 139.194 150.117 139.194 148.302C139.194 146.01 139.481 143.717 140.054 141.425C140.627 139.036 141.343 136.839 142.203 134.833C143.54 131.681 145.308 128.529 147.505 125.377C149.702 122.129 152.328 119.407 155.385 117.21C158.537 115.013 161.976 113.914 165.702 113.914C168.185 113.914 170.143 114.535 171.576 115.777C173.009 117.019 173.725 118.929 173.725 121.508C173.725 124.469 172.818 127.478 171.003 130.535C169.188 133.496 166.896 135.98 164.125 137.986C161.355 139.992 158.49 140.995 155.528 140.995C152.854 140.995 150.514 140.039 148.508 138.129C147.934 139.657 147.457 141.377 147.075 143.287C146.693 145.102 146.502 146.965 146.502 148.875C146.502 151.836 147.075 154.416 148.221 156.613C149.463 158.81 151.66 159.908 154.812 159.908C157.105 159.908 159.302 159.335 161.403 158.189C163.6 156.947 165.558 155.466 167.278 153.747C169.188 151.741 171.003 149.592 172.722 147.299C174.442 145.007 176.114 142.332 177.737 139.275C177.928 138.989 178.072 138.845 178.167 138.845C178.549 138.845 178.74 139.275 178.74 140.135C178.74 140.708 178.549 141.329 178.167 141.998C176.734 144.577 175.063 147.204 173.152 149.878C171.242 152.457 169.284 154.702 167.278 156.613C165.463 158.332 163.505 159.717 161.403 160.768C159.302 161.819 156.866 162.344 154.096 162.344ZM149.224 135.98C149.893 136.935 150.657 137.651 151.516 138.129C152.472 138.511 153.427 138.702 154.382 138.702C156.675 138.702 159.063 137.842 161.546 136.123C164.03 134.308 166.036 132.207 167.564 129.819C168.233 128.768 168.806 127.383 169.284 125.663C169.857 123.944 170.143 122.32 170.143 120.792C170.143 119.454 169.857 118.308 169.284 117.353C168.806 116.302 167.803 115.777 166.275 115.777C164.555 115.777 162.502 116.827 160.113 118.929C157.821 121.03 155.624 123.753 153.522 127.096C152.854 128.242 152.09 129.58 151.23 131.108C150.466 132.636 149.797 134.26 149.224 135.98Z" fill="#0D020A"/>
<path d="M15.5082 173.817C14.3619 173.244 13.4545 172.432 12.7858 171.381C12.2127 170.33 11.9261 169.279 11.9261 168.229C11.9261 167.178 12.2127 166.318 12.7858 165.649C13.0724 165.267 13.4067 165.029 13.7888 164.933C14.2664 164.933 14.4097 165.172 14.2187 165.649C13.9321 167.082 14.6007 168.42 16.2246 169.661C17.8485 170.903 19.3291 171.715 20.6664 172.097C22.0992 172.384 23.5321 172.527 24.9649 172.527C27.9261 172.527 30.553 172.097 32.8455 171.238C36.2843 170.091 39.6754 167.751 43.0187 164.217C46.4575 160.682 49.6575 156.67 52.6187 152.181C55.4843 147.787 58.3022 142.82 61.0724 137.279C63.9381 131.644 66.8037 125.864 69.6694 119.942C72.6306 113.924 75.7828 108.145 79.1261 102.605C82.4694 96.9689 86.0515 91.954 89.8724 87.5599C93.7888 83.0704 98.0873 79.6316 102.768 77.2435L75.9739 72.5152C73.8724 72.1331 71.4843 71.8943 68.8097 71.7987C66.1351 71.6077 63.3172 71.5122 60.356 71.5122C55.1022 71.5122 49.8485 71.8465 44.5948 72.5152C39.341 73.0883 35.1381 74.0913 31.9858 75.5241C26.4455 78.0077 21.6694 81.4465 17.6575 85.8405C13.6455 90.139 11.6395 95.5361 11.6395 102.032C11.6395 104.706 12.0694 106.999 12.9291 108.909C13.8843 110.724 15.0784 112.109 16.5112 113.064C18.1351 114.02 19.8067 114.497 21.5261 114.497C23.6276 114.497 25.7769 113.876 27.9739 112.635C30.1709 111.297 32.0813 109.387 33.7052 106.903C34.4694 105.661 35.1858 103.847 35.8545 101.458C36.6187 99.0704 37.0007 96.6346 37.0007 94.151C37.0007 92.8137 36.8575 91.5241 36.5709 90.2823C36.3798 89.0405 35.95 87.942 35.2813 86.9868C35.0903 86.6047 34.9948 86.4137 34.9948 86.4137C34.9948 86.1271 35.1381 85.9838 35.4246 85.9838C35.8067 85.9838 36.141 86.2226 36.4276 86.7002C36.9052 87.3689 37.3828 88.4196 37.8604 89.8525C38.4336 91.1898 38.8157 92.4316 39.0067 93.5778C39.1022 94.151 39.15 94.7241 39.15 95.2973C39.2455 95.8704 39.2933 96.4435 39.2933 97.0167C39.2933 98.9271 39.0545 100.885 38.5769 102.891C38.0993 104.802 37.3351 106.569 36.2843 108.193C34.756 110.772 32.7022 112.73 30.1231 114.067C27.544 115.309 24.8694 115.93 22.0992 115.93C19.9022 115.93 17.8007 115.5 15.7948 114.641C12.8336 113.208 10.6366 111.154 9.20372 108.479C7.86641 105.805 7.19775 102.891 7.19775 99.739C7.19775 97.6375 7.43656 95.5361 7.91417 93.4346C8.48731 91.2375 9.25149 89.1361 10.2067 87.1301C11.8306 83.5958 14.0754 80.4913 16.941 77.8167C19.8067 75.142 22.6724 73.0405 25.5381 71.5122C30.3142 68.9331 35.0903 67.1181 39.8664 66.0674C44.7381 65.0166 49.6575 64.4913 54.6246 64.4913C58.7321 64.4913 62.8873 64.7778 67.0903 65.351C71.2933 65.9241 75.544 66.7361 79.8425 67.7868C87.3888 69.6017 95.0306 71.3211 102.768 72.945C110.505 74.4734 118.386 75.6674 126.41 76.5271C129.753 72.5152 133.287 68.8853 137.013 65.6375C140.834 62.2943 144.846 59.5241 149.049 57.3271C151.532 56.0853 154.159 55.0823 156.929 54.3181C159.699 53.554 162.374 53.1719 164.953 53.1719C169.252 53.1719 172.547 54.3659 174.84 56.754C177.132 59.142 178.278 61.8644 178.278 64.9211C178.278 67.0226 177.705 69.1241 176.559 71.2256C175.413 73.3271 173.598 75.142 171.114 76.6704C167.866 78.5808 164.332 79.8704 160.511 80.539C156.69 81.2077 152.726 81.542 148.619 81.542C145.275 81.542 141.884 81.3987 138.446 81.1122C135.007 80.8256 131.663 80.5868 128.416 80.3958C125.454 84.7898 122.684 89.3749 120.105 94.151C117.622 98.8316 115.377 103.369 113.371 107.763C111.365 112.061 109.598 115.93 108.069 119.369C106.923 122.139 105.92 124.479 105.06 126.39C104.296 128.205 103.58 129.876 102.911 131.405C102.338 132.933 101.669 134.652 100.905 136.563C102.434 134.27 104.153 131.787 106.063 129.112C108.069 126.342 109.837 124.193 111.365 122.664C113.562 120.467 115.759 118.605 117.956 117.076C120.153 115.548 122.302 114.688 124.404 114.497C127.652 114.211 129.992 114.641 131.425 115.787C132.857 116.838 133.574 118.414 133.574 120.515C133.574 122.617 133.001 124.957 131.854 127.536C130.613 130.497 129.132 133.458 127.413 136.42C125.693 139.381 124.117 142.247 122.684 145.017C122.302 145.781 121.586 147.261 120.535 149.458C119.58 151.56 118.959 153.566 118.672 155.476C118.672 155.572 118.625 155.715 118.529 155.906C118.529 156.097 118.529 156.288 118.529 156.479C118.529 157.53 118.816 158.342 119.389 158.915C119.962 159.393 120.631 159.632 121.395 159.632C123.019 159.632 124.547 159.106 125.98 158.055C127.413 157.005 128.654 155.858 129.705 154.617C131.902 152.229 133.908 149.602 135.723 146.736C137.538 143.87 139.353 140.814 141.168 137.566C141.454 137.184 141.741 136.993 142.028 136.993C142.41 136.993 142.601 137.279 142.601 137.852C142.601 138.33 142.505 138.712 142.314 138.999C140.595 142.151 138.732 145.303 136.726 148.455C134.816 151.608 132.475 154.569 129.705 157.339C128.463 158.581 127.031 159.727 125.407 160.778C123.783 161.733 121.968 162.211 119.962 162.211C116.714 162.211 114.422 161.303 113.084 159.488C111.843 157.578 111.222 155.476 111.222 153.184C111.222 151.369 111.556 149.554 112.225 147.739C113.849 143.536 116.093 139.524 118.959 135.703C121.825 131.882 124.213 127.918 126.123 123.811C126.792 122.569 127.126 121.423 127.126 120.372C127.126 119.226 126.792 118.366 126.123 117.793C125.454 117.22 124.738 116.933 123.974 116.933C122.159 116.933 120.153 117.745 117.956 119.369C115.854 120.897 113.801 122.855 111.795 125.244C109.98 127.345 108.117 129.781 106.207 132.551C104.296 135.226 102.481 138.091 100.762 141.148C99.1381 143.918 97.4664 146.832 95.747 149.888C94.0276 152.849 92.6425 155.381 91.5918 157.482C90.8276 159.106 90.0157 160.157 89.156 160.635C88.2963 161.112 87.4843 161.351 86.7201 161.351C86.3381 161.351 85.956 161.303 85.5739 161.208C85.1918 161.208 84.8575 161.208 84.5709 161.208C85.4306 157.96 87.0067 153.47 89.2993 147.739C91.5918 141.912 94.3619 135.082 97.6097 127.249C100.762 119.608 104.487 111.632 108.786 103.321C113.18 94.9152 118.147 87.1301 123.687 79.9659C122.063 79.6793 120.105 79.3928 117.813 79.1062C115.616 78.8196 113.514 78.5331 111.508 78.2465C109.502 77.9599 107.974 77.7689 106.923 77.6734C103.771 79.1062 100.475 81.8286 97.0366 85.8405C92.8336 90.8077 89.2037 96.1092 86.147 101.745C83.0903 107.285 80.2724 113.017 77.6933 118.939C75.1142 124.766 72.4396 130.545 69.6694 136.276C66.9948 142.008 63.7948 147.5 60.0694 152.754C56.7261 157.435 52.953 161.638 48.75 165.363C44.547 169.088 39.7709 171.906 34.4216 173.817C31.4604 174.867 27.9261 175.393 23.8187 175.393C22.1948 175.393 20.6664 175.249 19.2336 174.963C17.8007 174.772 16.5589 174.39 15.5082 173.817ZM130.851 76.9569C133.431 77.148 136.44 77.4346 139.878 77.8167C143.413 78.1032 146.947 78.2465 150.481 78.2465C154.111 78.2465 157.693 78.0077 161.228 77.5301C164.762 76.9569 167.771 75.9062 170.254 74.3778C172.069 73.2316 173.359 71.942 174.123 70.5092C174.983 69.0764 175.413 67.5958 175.413 66.0674C175.413 63.3928 174.266 61.0047 171.974 58.9032C169.681 56.7062 166.672 55.6077 162.947 55.6077C161.132 55.6077 159.174 55.7987 157.072 56.1808C155.066 56.5629 152.965 57.2793 150.768 58.3301C147.234 59.954 143.795 62.4375 140.452 65.7808C137.108 69.0286 133.908 72.754 130.851 76.9569Z" fill="#0D020A"/>
</svg>
