<svg width="369" height="73" viewBox="0 0 369 73" fill="none" xmlns="http://www.w3.org/2000/svg">
<g filter="url(#filter0_d_1529_13133)">
<path d="M2.32 33.72C2 33.56 1.74667 33.3333 1.56 33.04C1.4 32.7467 1.32 32.4533 1.32 32.16C1.32 31.8667 1.4 31.6267 1.56 31.44C1.64 31.3333 1.73333 31.2667 1.84 31.24C1.97333 31.24 2.01333 31.3067 1.96 31.44C1.88 31.84 2.06667 32.2133 2.52 32.56C2.97333 32.9067 3.38667 33.1333 3.76 33.24C4.16 33.32 4.56 33.36 4.96 33.36C5.78667 33.36 6.52 33.24 7.16 33C8.12 32.68 9.06667 32.0267 10 31.04C10.96 30.0533 11.8533 28.9333 12.68 27.68C13.48 26.4533 14.2667 25.0667 15.04 23.52C15.84 21.9467 16.64 20.3333 17.44 18.68C18.2667 17 19.1467 15.3867 20.08 13.84C21.0133 12.2667 22.0133 10.8667 23.08 9.64C24.1733 8.38667 25.3733 7.42667 26.68 6.76L19.2 5.44C18.6133 5.33334 17.9467 5.26667 17.2 5.24C16.4533 5.18667 15.6667 5.16 14.84 5.16C13.3733 5.16 11.9067 5.25334 10.44 5.44C8.97333 5.6 7.8 5.88 6.92 6.28C5.37333 6.97334 4.04 7.93334 2.92 9.16C1.8 10.36 1.24 11.8667 1.24 13.68C1.24 14.4267 1.36 15.0667 1.6 15.6C1.86667 16.1067 2.2 16.4933 2.6 16.76C3.05333 17.0267 3.52 17.16 4 17.16C4.58667 17.16 5.18667 16.9867 5.8 16.64C6.41333 16.2667 6.94667 15.7333 7.4 15.04C7.61333 14.6933 7.81333 14.1867 8 13.52C8.21333 12.8533 8.32 12.1733 8.32 11.48C8.32 11.1067 8.28 10.7467 8.2 10.4C8.14667 10.0533 8.02667 9.74667 7.84 9.48C7.78667 9.37334 7.76 9.32 7.76 9.32C7.76 9.24 7.8 9.2 7.88 9.2C7.98667 9.2 8.08 9.26667 8.16 9.4C8.29333 9.58667 8.42667 9.88 8.56 10.28C8.72 10.6533 8.82667 11 8.88 11.32C8.90667 11.48 8.92 11.64 8.92 11.8C8.94667 11.96 8.96 12.12 8.96 12.28C8.96 12.8133 8.89333 13.36 8.76 13.92C8.62667 14.4533 8.41333 14.9467 8.12 15.4C7.69333 16.12 7.12 16.6667 6.4 17.04C5.68 17.3867 4.93333 17.56 4.16 17.56C3.54667 17.56 2.96 17.44 2.4 17.2C1.57333 16.8 0.96 16.2267 0.56 15.48C0.186667 14.7333 0 13.92 0 13.04C0 12.4533 0.0666667 11.8667 0.2 11.28C0.36 10.6667 0.573333 10.08 0.84 9.52C1.29333 8.53334 1.92 7.66667 2.72 6.92C3.52 6.17334 4.32 5.58667 5.12 5.16C6.45333 4.44 7.78667 3.93334 9.12 3.64C10.48 3.34667 11.8533 3.2 13.24 3.2C14.3867 3.2 15.5467 3.28 16.72 3.44C17.8933 3.6 19.08 3.82667 20.28 4.12C22.3867 4.62667 24.52 5.10667 26.68 5.56C28.84 5.98667 31.04 6.32 33.28 6.56C34.2133 5.44 35.2 4.42667 36.24 3.52C37.3067 2.58667 38.4267 1.81334 39.6 1.2C40.2933 0.853336 41.0267 0.573336 41.8 0.360002C42.5733 0.14667 43.32 0.0400038 44.04 0.0400038C45.24 0.0400038 46.16 0.373337 46.8 1.04C47.44 1.70667 47.76 2.46667 47.76 3.32C47.76 3.90667 47.6 4.49334 47.28 5.08C46.96 5.66667 46.4533 6.17334 45.76 6.6C44.8533 7.13334 43.8667 7.49334 42.8 7.68C41.7333 7.86667 40.6267 7.96 39.48 7.96C38.5467 7.96 37.6 7.92 36.64 7.84C35.68 7.76 34.7467 7.69334 33.84 7.64C33.0133 8.86667 32.24 10.1467 31.52 11.48C30.8267 12.7867 30.2 14.0533 29.64 15.28C29.08 16.48 28.5867 17.56 28.16 18.52C27.84 19.2933 27.56 19.9467 27.32 20.48C27.1067 20.9867 26.9067 21.4533 26.72 21.88C26.56 22.3067 26.3733 22.7867 26.16 23.32C26.5867 22.68 27.0667 21.9867 27.6 21.24C28.16 20.4667 28.6533 19.8667 29.08 19.44C29.6933 18.8267 30.3067 18.3067 30.92 17.88C31.5333 17.4533 32.1333 17.2133 32.72 17.16C33.6267 17.08 34.28 17.2 34.68 17.52C35.08 17.8133 35.28 18.2533 35.28 18.84C35.28 19.4267 35.12 20.08 34.8 20.8C34.4533 21.6267 34.04 22.4533 33.56 23.28C33.08 24.1067 32.64 24.9067 32.24 25.68C32.1333 25.8933 31.9333 26.3067 31.64 26.92C31.3733 27.5067 31.2 28.0667 31.12 28.6C31.12 28.6267 31.1067 28.6667 31.08 28.72C31.08 28.7733 31.08 28.8267 31.08 28.88C31.08 29.1733 31.16 29.4 31.32 29.56C31.48 29.6933 31.6667 29.76 31.88 29.76C32.3333 29.76 32.76 29.6133 33.16 29.32C33.56 29.0267 33.9067 28.7067 34.2 28.36C34.8133 27.6933 35.3733 26.96 35.88 26.16C36.3867 25.36 36.8933 24.5067 37.4 23.6C37.48 23.4933 37.56 23.44 37.64 23.44C37.7467 23.44 37.8 23.52 37.8 23.68C37.8 23.8133 37.7733 23.92 37.72 24C37.24 24.88 36.72 25.76 36.16 26.64C35.6267 27.52 34.9733 28.3467 34.2 29.12C33.8533 29.4667 33.4533 29.7867 33 30.08C32.5467 30.3467 32.04 30.48 31.48 30.48C30.5733 30.48 29.9333 30.2267 29.56 29.72C29.2133 29.1867 29.04 28.6 29.04 27.96C29.04 27.4533 29.1333 26.9467 29.32 26.44C29.7733 25.2667 30.4 24.1467 31.2 23.08C32 22.0133 32.6667 20.9067 33.2 19.76C33.3867 19.4133 33.48 19.0933 33.48 18.8C33.48 18.48 33.3867 18.24 33.2 18.08C33.0133 17.92 32.8133 17.84 32.6 17.84C32.0933 17.84 31.5333 18.0667 30.92 18.52C30.3333 18.9467 29.76 19.4933 29.2 20.16C28.6933 20.7467 28.1733 21.4267 27.64 22.2C27.1067 22.9467 26.6 23.7467 26.12 24.6C25.6667 25.3733 25.2 26.1867 24.72 27.04C24.24 27.8667 23.8533 28.5733 23.56 29.16C23.3467 29.6133 23.12 29.9067 22.88 30.04C22.64 30.1733 22.4133 30.24 22.2 30.24C22.0933 30.24 21.9867 30.2267 21.88 30.2C21.7733 30.2 21.68 30.2 21.6 30.2C21.84 29.2933 22.28 28.04 22.92 26.44C23.56 24.8133 24.3333 22.9067 25.24 20.72C26.12 18.5867 27.16 16.36 28.36 14.04C29.5867 11.6933 30.9733 9.52 32.52 7.52C32.0667 7.44 31.52 7.36 30.88 7.28C30.2667 7.2 29.68 7.12 29.12 7.04C28.56 6.96 28.1333 6.90667 27.84 6.88C26.96 7.28 26.04 8.04 25.08 9.16C23.9067 10.5467 22.8933 12.0267 22.04 13.6C21.1867 15.1467 20.4 16.7467 19.68 18.4C18.96 20.0267 18.2133 21.64 17.44 23.24C16.6933 24.84 15.8 26.3733 14.76 27.84C13.8267 29.1467 12.7733 30.32 11.6 31.36C10.4267 32.4 9.09333 33.1867 7.6 33.72C6.77333 34.0133 5.78667 34.16 4.64 34.16C4.18667 34.16 3.76 34.12 3.36 34.04C2.96 33.9867 2.61333 33.88 2.32 33.72ZM34.52 6.68C35.24 6.73334 36.08 6.81334 37.04 6.92C38.0267 7 39.0133 7.04 40 7.04C41.0133 7.04 42.0133 6.97334 43 6.84C43.9867 6.68 44.8267 6.38667 45.52 5.96C46.0267 5.64 46.3867 5.28 46.6 4.88C46.84 4.48 46.96 4.06667 46.96 3.64C46.96 2.89334 46.64 2.22667 46 1.64C45.36 1.02667 44.52 0.720002 43.48 0.720002C42.9733 0.720002 42.4267 0.773336 41.84 0.880002C41.28 0.986669 40.6933 1.18667 40.08 1.48C39.0933 1.93334 38.1333 2.62667 37.2 3.56C36.2667 4.46667 35.3733 5.50667 34.52 6.68Z" fill="#000D05"/>
<path d="M41.4141 30.52C39.8674 30.52 38.7741 30.12 38.1341 29.32C37.8141 28.9733 37.5874 28.56 37.4541 28.08C37.3207 27.6 37.2541 27.1067 37.2541 26.6C37.2541 25.96 37.3341 25.32 37.4941 24.68C37.6541 24.0133 37.8541 23.4 38.0941 22.84C38.4674 21.96 38.9607 21.08 39.5741 20.2C40.1874 19.2933 40.9207 18.5333 41.7741 17.92C42.6541 17.3067 43.6141 17 44.6541 17C45.3474 17 45.8941 17.1733 46.2941 17.52C46.6941 17.8667 46.8941 18.4 46.8941 19.12C46.8941 19.9467 46.6407 20.7867 46.1341 21.64C45.6274 22.4667 44.9874 23.16 44.2141 23.72C43.4407 24.28 42.6407 24.56 41.8141 24.56C41.0674 24.56 40.4141 24.2933 39.8541 23.76C39.6941 24.1867 39.5607 24.6667 39.4541 25.2C39.3474 25.7067 39.2941 26.2267 39.2941 26.76C39.2941 27.5867 39.4541 28.3067 39.7741 28.92C40.1207 29.5333 40.7341 29.84 41.6141 29.84C42.2541 29.84 42.8674 29.68 43.4541 29.36C44.0674 29.0133 44.6141 28.6 45.0941 28.12C45.6274 27.56 46.1341 26.96 46.6141 26.32C47.0941 25.68 47.5607 24.9333 48.0141 24.08C48.0674 24 48.1074 23.96 48.1341 23.96C48.2407 23.96 48.2941 24.08 48.2941 24.32C48.2941 24.48 48.2407 24.6533 48.1341 24.84C47.7341 25.56 47.2674 26.2933 46.7341 27.04C46.2007 27.76 45.6541 28.3867 45.0941 28.92C44.5874 29.4 44.0407 29.7867 43.4541 30.08C42.8674 30.3733 42.1874 30.52 41.4141 30.52ZM40.0541 23.16C40.2407 23.4267 40.4541 23.6267 40.6941 23.76C40.9607 23.8667 41.2274 23.92 41.4941 23.92C42.1341 23.92 42.8007 23.68 43.4941 23.2C44.1874 22.6933 44.7474 22.1067 45.1741 21.44C45.3607 21.1467 45.5207 20.76 45.6541 20.28C45.8141 19.8 45.8941 19.3467 45.8941 18.92C45.8941 18.5467 45.8141 18.2267 45.6541 17.96C45.5207 17.6667 45.2407 17.52 44.8141 17.52C44.3341 17.52 43.7607 17.8133 43.0941 18.4C42.4541 18.9867 41.8407 19.7467 41.2541 20.68C41.0674 21 40.8541 21.3733 40.6141 21.8C40.4007 22.2267 40.2141 22.68 40.0541 23.16Z" fill="#000D05"/>
<path d="M106.2 17.2L91.2 25.1C88.5 21.1 83.4 17.7 77.4 17.7C70.2 17.7 65.7 21.5 65.7 27.4V42.4C65.7 48.3 70.2 52.1 77.4 52.1C83.4 52.1 88.8 48.6 91.2 44.7L105.6 52.6C102 62 90.4 69.8 75.8 69.8C55.4 69.8 41.3 57.9 41.3 41.8V28C41.3 11.9 55.4 0 75.8 0C90.4 0 102.5 7.8 106.2 17.2Z" fill="black"/>
<path d="M174.324 68.2H153.524C150.124 68.2 148.124 63.3 148.124 57.9V48.8C148.124 45.8 146.824 43.1 142.724 43.1H133.224V68.2H109.424V1.6H148.524C161.924 1.6 171.024 9.1 171.024 19.4V21.7C171.024 28.3 166.724 34.1 159.524 36C167.624 37.5 171.324 43.4 171.324 49.6V57.1C171.324 61.3 172.424 64.9 174.324 67.9V68.2ZM147.524 26.2V23.7C147.524 19.6 145.524 17.9 140.624 17.9H133.224V32H140.624C145.524 32 147.524 30.1 147.524 26.2Z" fill="black"/>
<path d="M243.385 68.2H218.385L215.485 57.8H196.385L193.085 68.2H171.985L195.285 1.6H219.985L243.385 68.2ZM211.685 44L206.685 24.7L200.785 44H211.685Z" fill="black"/>
<path d="M301.167 18.4H269.267V29H287.367V43.1H269.267V68.2H245.467V1.6H301.167V18.4Z" fill="black"/>
<path d="M364.551 19.6H344.851V68.2H321.051V19.6H301.351V1.6H364.551V19.6Z" fill="black"/>
</g>
<defs>
<filter id="filter0_d_1529_13133" x="0" y="0" width="368.551" height="72.8008" filterUnits="userSpaceOnUse" color-interpolation-filters="sRGB">
<feFlood flood-opacity="0" result="BackgroundImageFix"/>
<feColorMatrix in="SourceAlpha" type="matrix" values="0 0 0 0 0 0 0 0 0 0 0 0 0 0 0 0 0 0 127 0" result="hardAlpha"/>
<feOffset dx="4" dy="3"/>
<feComposite in2="hardAlpha" operator="out"/>
<feColorMatrix type="matrix" values="0 0 0 0 1 0 0 0 0 1 0 0 0 0 1 0 0 0 1 0"/>
<feBlend mode="normal" in2="BackgroundImageFix" result="effect1_dropShadow_1529_13133"/>
<feBlend mode="normal" in="SourceGraphic" in2="effect1_dropShadow_1529_13133" result="shape"/>
</filter>
</defs>
</svg>
