<svg width="600" height="600" viewBox="0 0 600 600" fill="none" xmlns="http://www.w3.org/2000/svg">
<g clip-path="url(#clip0_1324_2243)">
<rect width="600" height="600" fill="#DDD3F2"/>
<path d="M497.966 128C506.926 147.942 523.198 163.684 543.425 171.98L546 173.036L540.856 175.146C522.203 182.795 506.962 196.958 497.966 215C488.941 196.899 473.939 182.473 455.5 174.163L453 173.036C472.98 164.032 488.985 147.99 497.966 128Z" fill="white"/>
<path d="M415.379 179.793L347.665 294.586L415.379 409.379L300.586 341.665L185.793 409.379L253.507 294.586L185.793 179.793L300.586 247.507L415.379 179.793Z" fill="white"/>
<path d="M300.5 59L325.479 269.521L536 294.5L325.479 319.479L300.5 530L275.521 319.479L65 294.5L275.521 269.521L300.5 59Z" fill="white"/>
</g>
<defs>
<clipPath id="clip0_1324_2243">
<rect width="600" height="600" fill="white"/>
</clipPath>
</defs>
</svg>
