<svg width="1854" height="240" viewBox="0 0 1854 240" fill="none" xmlns="http://www.w3.org/2000/svg">
<path d="M440.733 230.782H359.395V103.263L345.954 141.034L313.902 230.782H264.272L232.564 139.994L219.812 102.916V230.782H146.402V0H257.379L288.398 90.4416L295.635 111.579L302.873 90.4416L333.202 0H440.733V230.782Z" fill="#000D05"/>
<path d="M1853.53 230.782H1767.62L1729.44 150.39L1703.88 183.655V230.782H1622.75V0H1703.88V98.4116L1764.56 0H1849.78L1785.01 92.5208L1853.53 230.782Z" fill="#000D05"/>
<path d="M1614.25 59.1404L1562.68 86.3037C1553.39 72.5502 1535.86 60.8596 1515.23 60.8596C1490.47 60.8596 1475 73.9255 1475 94.212V145.788C1475 166.074 1490.47 179.14 1515.23 179.14C1535.86 179.14 1554.43 167.106 1562.68 153.696L1612.19 180.86C1599.81 213.181 1559.93 240 1509.73 240C1439.58 240 1391.1 199.083 1391.1 143.725V96.2751C1391.1 40.9169 1439.58 0 1509.73 0C1559.93 0 1601.53 26.8195 1614.25 59.1404Z" fill="#000D05"/>
<path d="M1380.93 230.782H1300.66V0H1380.93V230.782Z" fill="#000D05"/>
<path d="M1290.28 230.782H1219.53C1207.97 230.782 1201.16 213.803 1201.16 195.091V163.557C1201.16 153.162 1196.74 143.806 1182.8 143.806H1150.48V230.782H1069.53V0H1202.52C1248.1 0 1279.05 25.989 1279.05 61.6805V69.6505C1279.05 92.5208 1264.43 112.619 1239.94 119.203C1267.49 124.401 1280.08 144.845 1280.08 166.329V192.318C1280.08 206.872 1283.82 219.347 1290.28 229.743V230.782ZM1199.12 85.2439V76.5809C1199.12 62.3735 1192.32 56.4827 1175.65 56.4827H1150.48V105.342H1175.65C1192.32 105.342 1199.12 98.7581 1199.12 85.2439Z" fill="#000D05"/>
<path d="M865.506 0L778.239 230.782H699.87L614.656 0H701.923L745.385 136.182L790.217 0H865.506Z" fill="#000D05"/>
<path d="M595.527 0H511.067L455.968 157.025V230.78H503.541L514.822 194.744H580.133L590.056 230.78H678.881L595.527 0ZM529.876 146.916L550.06 80.0417L567.153 146.916H529.876Z" fill="#000D05"/>
<path d="M1052.64 59.6023V0H868.97L858.64 27.3035V230.78H1052.64V166.676H939.922V131.336H1014.03V94.6024H939.922V59.6023H1052.64Z" fill="#000D05"/>
<path d="M154.72 167.01C149.157 167.01 145.224 165.572 142.922 162.694C141.771 161.447 140.955 159.96 140.476 158.233C139.996 156.507 139.756 154.732 139.756 152.91C139.756 150.607 140.044 148.305 140.62 146.003C141.195 143.605 141.915 141.399 142.778 139.384C144.121 136.219 145.895 133.053 148.102 129.888C150.308 126.626 152.946 123.893 156.015 121.686C159.181 119.48 162.634 118.377 166.375 118.377C168.869 118.377 170.836 119 172.275 120.247C173.713 121.494 174.433 123.413 174.433 126.003C174.433 128.977 173.522 131.998 171.699 135.068C169.876 138.041 167.574 140.535 164.793 142.55C162.011 144.564 159.133 145.571 156.159 145.571C153.473 145.571 151.123 144.612 149.109 142.694C148.533 144.228 148.054 145.955 147.67 147.874C147.286 149.696 147.095 151.567 147.095 153.485C147.095 156.459 147.67 159.049 148.821 161.255C150.068 163.461 152.274 164.564 155.44 164.564C157.742 164.564 159.948 163.989 162.059 162.838C164.265 161.591 166.231 160.104 167.958 158.377C169.876 156.363 171.699 154.205 173.426 151.902C175.152 149.6 176.831 146.914 178.462 143.845C178.654 143.557 178.797 143.413 178.893 143.413C179.277 143.413 179.469 143.845 179.469 144.708C179.469 145.284 179.277 145.907 178.893 146.579C177.454 149.169 175.776 151.806 173.857 154.492C171.939 157.082 169.972 159.337 167.958 161.255C166.135 162.982 164.169 164.373 162.059 165.428C159.948 166.483 157.502 167.01 154.72 167.01ZM149.828 140.535C150.5 141.495 151.267 142.214 152.131 142.694C153.09 143.077 154.049 143.269 155.008 143.269C157.31 143.269 159.709 142.406 162.203 140.679C164.697 138.857 166.711 136.746 168.246 134.348C168.917 133.293 169.493 131.902 169.972 130.176C170.548 128.449 170.836 126.818 170.836 125.283C170.836 123.941 170.548 122.789 169.972 121.83C169.493 120.775 168.486 120.247 166.951 120.247C165.224 120.247 163.162 121.303 160.764 123.413C158.462 125.523 156.255 128.257 154.145 131.614C153.473 132.766 152.706 134.108 151.843 135.643C151.075 137.178 150.404 138.809 149.828 140.535Z" fill="#000D05"/>
<path d="M15.53 178.511C14.3789 177.936 13.4676 177.12 12.7961 176.065C12.2206 175.01 11.9328 173.955 11.9328 172.9C11.9328 171.845 12.2206 170.981 12.7961 170.31C13.0839 169.926 13.4196 169.686 13.8033 169.59C14.2829 169.59 14.4268 169.83 14.235 170.31C13.9472 171.749 14.6187 173.092 16.2494 174.339C17.8801 175.586 19.3669 176.401 20.7099 176.785C22.1487 177.073 23.5876 177.216 25.0264 177.216C28.0001 177.216 30.638 176.785 32.9402 175.921C36.3934 174.77 39.7987 172.42 43.1561 168.871C46.6093 165.322 49.8228 161.293 52.7964 156.785C55.6741 152.372 58.5039 147.384 61.2857 141.82C64.1634 136.161 67.0411 130.358 69.9189 124.41C72.8925 118.367 76.058 112.564 79.4153 107C82.7727 101.341 86.3698 96.3045 90.2068 91.892C94.1397 87.3836 98.4562 83.9303 103.157 81.5322L76.2498 76.784C74.1395 76.4003 71.7414 76.1605 69.0555 76.0645C66.3697 75.8727 63.5399 75.7768 60.5663 75.7768C55.2904 75.7768 50.0146 76.1125 44.7388 76.784C39.463 77.3595 35.2423 78.3667 32.0768 79.8056C26.5133 82.2996 21.7171 85.7529 17.6882 90.1654C13.6594 94.4819 11.645 99.9017 11.645 106.424C11.645 109.11 12.0767 111.413 12.94 113.331C13.8992 115.154 15.0983 116.544 16.5372 117.504C18.1679 118.463 19.8465 118.943 21.5732 118.943C23.6835 118.943 25.8418 118.319 28.048 117.072C30.2543 115.729 32.1728 113.811 33.8035 111.317C34.5709 110.07 35.2903 108.247 35.9618 105.849C36.7292 103.451 37.1129 101.005 37.1129 98.5108C37.1129 97.1678 36.969 95.8728 36.6812 94.6258C36.4893 93.3788 36.0577 92.2757 35.3862 91.3165C35.1944 90.9328 35.0985 90.7409 35.0985 90.7409C35.0985 90.4531 35.2423 90.3093 35.5301 90.3093C35.9138 90.3093 36.2495 90.5491 36.5373 91.0287C37.0169 91.7002 37.4965 92.7553 37.9762 94.1942C38.5517 95.5371 38.9354 96.7841 39.1273 97.9352C39.2232 98.5108 39.2711 99.0863 39.2711 99.6618C39.3671 100.237 39.415 100.813 39.415 101.388C39.415 103.307 39.1752 105.273 38.6956 107.288C38.216 109.206 37.4486 110.981 36.3934 112.612C34.8586 115.202 32.7963 117.168 30.2063 118.511C27.6164 119.758 24.9305 120.381 22.1487 120.381C19.9425 120.381 17.8321 119.95 15.8177 119.086C12.8441 117.648 10.6378 115.585 9.19897 112.899C7.85604 110.213 7.18457 107.288 7.18457 104.122C7.18457 102.012 7.42438 99.9017 7.904 97.7913C8.47954 95.5851 9.24694 93.4748 10.2062 91.4603C11.8369 87.9112 14.0911 84.7936 16.9688 82.1078C19.8465 79.4219 22.7243 77.3116 25.602 75.7768C30.3982 73.1868 35.1944 71.3643 39.9906 70.3091C44.8827 69.2539 49.8228 68.7264 54.8108 68.7264C58.9356 68.7264 63.1082 69.0141 67.3289 69.5897C71.5496 70.1652 75.8182 70.9806 80.1348 72.0357C87.7128 73.8583 95.3867 75.5849 103.157 77.2156C110.926 78.7504 118.84 79.9495 126.898 80.8128C130.255 76.784 133.804 73.1389 137.545 69.8774C141.382 66.5201 145.411 63.7383 149.632 61.5321C152.126 60.2851 154.764 59.2778 157.545 58.5105C160.327 57.7431 163.013 57.3594 165.603 57.3594C169.92 57.3594 173.229 58.5584 175.531 60.9565C177.833 63.3546 178.984 66.0885 178.984 69.158C178.984 71.2683 178.409 73.3787 177.258 75.489C176.107 77.5993 174.284 79.4219 171.79 80.9567C168.529 82.8751 164.98 84.1701 161.143 84.8416C157.306 85.5131 153.325 85.8488 149.2 85.8488C145.843 85.8488 142.437 85.7049 138.984 85.4171C135.531 85.1294 132.174 84.8896 128.912 84.6977C125.938 89.1102 123.157 93.7146 120.567 98.5108C118.073 103.211 115.818 107.767 113.804 112.18C111.79 116.497 110.015 120.381 108.48 123.835C107.329 126.616 106.322 128.967 105.459 130.885C104.691 132.708 103.972 134.386 103.3 135.921C102.725 137.456 102.053 139.183 101.286 141.101C102.821 138.799 104.547 136.305 106.466 133.619C108.48 130.837 110.255 128.679 111.79 127.144C113.996 124.938 116.202 123.067 118.408 121.533C120.615 119.998 122.773 119.134 124.883 118.943C128.145 118.655 130.495 119.086 131.934 120.238C133.373 121.293 134.092 122.875 134.092 124.986C134.092 127.096 133.516 129.446 132.365 132.036C131.118 135.01 129.632 137.983 127.905 140.957C126.178 143.931 124.596 146.808 123.157 149.59C122.773 150.358 122.054 151.844 120.998 154.051C120.039 156.161 119.416 158.175 119.128 160.094C119.128 160.19 119.08 160.334 118.984 160.526C118.984 160.717 118.984 160.909 118.984 161.101C118.984 162.156 119.272 162.972 119.847 163.547C120.423 164.027 121.094 164.267 121.862 164.267C123.492 164.267 125.027 163.739 126.466 162.684C127.905 161.629 129.152 160.478 130.207 159.231C132.413 156.833 134.428 154.195 136.25 151.317C138.073 148.439 139.895 145.37 141.718 142.108C142.006 141.725 142.293 141.533 142.581 141.533C142.965 141.533 143.157 141.82 143.157 142.396C143.157 142.876 143.061 143.259 142.869 143.547C141.142 146.713 139.272 149.878 137.257 153.044C135.339 156.209 132.989 159.183 130.207 161.964C128.96 163.211 127.521 164.363 125.89 165.418C124.26 166.377 122.437 166.857 120.423 166.857C117.161 166.857 114.859 165.945 113.516 164.123C112.269 162.204 111.646 160.094 111.646 157.792C111.646 155.969 111.982 154.147 112.653 152.324C114.284 148.103 116.538 144.075 119.416 140.238C122.293 136.401 124.691 132.42 126.61 128.295C127.281 127.048 127.617 125.897 127.617 124.842C127.617 123.691 127.281 122.827 126.61 122.252C125.938 121.676 125.219 121.389 124.452 121.389C122.629 121.389 120.615 122.204 118.408 123.835C116.298 125.369 114.236 127.336 112.221 129.734C110.399 131.844 108.528 134.29 106.61 137.072C104.691 139.758 102.869 142.636 101.142 145.705C99.5114 148.487 97.8327 151.413 96.1061 154.482C94.3795 157.456 92.9886 159.998 91.9334 162.108C91.166 163.739 90.3507 164.794 89.4873 165.274C88.624 165.753 87.8087 165.993 87.0413 165.993C86.6576 165.993 86.2739 165.945 85.8902 165.849C85.5065 165.849 85.1708 165.849 84.883 165.849C85.7463 162.588 87.3291 158.08 89.6312 152.324C91.9334 146.473 94.7152 139.614 97.9766 131.748C101.142 124.074 104.883 116.065 109.2 107.719C113.612 99.2782 118.6 91.4603 124.164 84.266C122.533 83.9783 120.567 83.6905 118.265 83.4027C116.058 83.115 113.948 82.8272 111.934 82.5394C109.919 82.2516 108.384 82.0598 107.329 81.9639C104.164 83.4027 100.854 86.1366 97.4011 90.1654C93.1804 95.1534 89.5353 100.477 86.4657 106.137C83.3962 111.7 80.5664 117.456 77.9765 123.403C75.3865 129.254 72.7006 135.058 69.9189 140.813C67.233 146.569 64.0195 152.084 60.2785 157.36C56.9212 162.06 53.1322 166.281 48.9115 170.022C44.6909 173.763 39.8946 176.593 34.5229 178.511C31.5493 179.567 28.0001 180.094 23.8753 180.094C22.2446 180.094 20.7099 179.95 19.271 179.662C17.8321 179.471 16.5851 179.087 15.53 178.511ZM131.358 81.2444C133.948 81.4363 136.97 81.7241 140.423 82.1078C143.972 82.3955 147.521 82.5394 151.071 82.5394C154.716 82.5394 158.313 82.2996 161.862 81.82C165.411 81.2444 168.433 80.1893 170.927 78.6545C172.749 77.5034 174.044 76.2084 174.812 74.7696C175.675 73.3307 176.107 71.8439 176.107 70.3091C176.107 67.6232 174.956 65.2251 172.653 63.1148C170.351 60.9086 167.33 59.8054 163.589 59.8054C161.766 59.8054 159.8 59.9973 157.689 60.381C155.675 60.7647 153.565 61.4841 151.358 62.5393C147.809 64.17 144.356 66.664 140.999 70.0213C137.641 73.2828 134.428 77.0238 131.358 81.2444Z" fill="#000D05"/>
<path d="M166.962 120.244C168.306 120.245 169.245 120.648 169.78 121.456L170.187 122.194C170.628 123.075 170.848 124.104 170.848 125.278C170.848 126.813 170.559 128.445 169.984 130.172C169.504 131.898 168.927 133.29 168.255 134.345C166.721 136.742 164.707 138.853 162.213 140.675C159.719 142.402 157.321 143.264 155.019 143.264C154.06 143.264 153.101 143.072 152.142 142.688C151.279 142.208 150.512 141.49 149.841 140.531C150.416 138.805 151.086 137.172 151.854 135.638C152.716 134.104 153.484 132.762 154.155 131.612C156.265 128.255 158.474 125.52 160.776 123.409C163.174 121.299 165.236 120.244 166.962 120.244ZM154.299 153.479C154.299 155.15 154.564 156.396 154.945 157.34C155.073 157.353 155.24 157.365 155.451 157.365C156.483 157.365 157.497 157.121 158.584 156.536C160.203 155.614 161.61 154.542 162.835 153.325C163.656 152.459 164.462 151.564 165.248 150.634C162.43 151.996 159.393 152.763 156.171 152.763C155.545 152.763 154.927 152.727 154.32 152.664C154.309 152.934 154.299 153.205 154.299 153.479ZM178.474 143.84C176.843 146.91 175.163 149.596 173.437 151.899C171.71 154.2 169.889 156.359 167.971 158.373C166.244 160.099 164.275 161.587 162.069 162.834C159.959 163.985 157.753 164.559 155.451 164.559C152.285 164.559 150.08 163.456 148.833 161.25C147.682 159.044 147.104 156.453 147.104 153.479C147.105 151.561 147.297 149.691 147.681 147.869C148.064 145.951 148.545 144.223 149.121 142.688C151.135 144.606 153.485 145.568 156.171 145.568C159.144 145.568 162.021 144.558 164.802 142.544C167.583 140.53 169.886 138.038 171.708 135.065C173.531 131.995 174.445 128.972 174.445 125.998C174.445 123.409 173.723 121.491 172.284 120.244C170.846 118.997 168.88 118.372 166.386 118.372C162.646 118.372 159.192 119.475 156.027 121.681C152.957 123.887 150.319 126.622 148.113 129.884C145.907 133.049 144.133 136.214 142.791 139.379C142.422 140.239 142.084 141.137 141.768 142.066C141.756 142.082 141.742 142.099 141.73 142.115C139.908 145.376 138.086 148.445 136.264 151.322C135.172 153.046 134.008 154.682 132.779 156.233C132.644 155.134 132.572 154.025 132.572 152.907C132.572 149.999 132.937 147.11 133.65 144.255C134.307 141.534 135.143 138.959 136.176 136.547C137.734 132.88 139.759 129.288 142.211 125.77C144.862 121.871 148.069 118.542 151.829 115.839L151.871 115.811L151.913 115.78C156.245 112.761 161.126 111.178 166.386 111.178C169.835 111.178 173.411 112 176.405 114.322L176.999 114.806C180.525 117.863 181.639 122.111 181.639 125.998L181.622 126.841C181.496 130.107 180.63 133.242 179.219 136.224C180.665 136.284 182.165 136.754 183.473 137.735C184.787 138.72 185.516 139.923 185.911 140.812C186.626 142.422 186.673 143.963 186.673 144.704C186.673 146.85 185.972 148.676 185.191 150.065C183.606 152.917 181.78 155.789 179.721 158.671L179.651 158.77C177.524 161.641 175.287 164.215 172.931 166.459L172.917 166.473C170.613 168.656 168.07 170.467 165.287 171.859C162.014 173.495 158.43 174.202 154.731 174.202C148.286 174.201 141.901 172.571 137.648 167.569C135.924 165.702 134.672 163.542 133.872 161.18L133.555 160.154C133.423 159.677 133.306 159.198 133.201 158.717C134.723 156.901 136.082 155.014 137.272 153.051C138.27 151.483 139.229 149.912 140.156 148.344C139.905 149.865 139.766 151.386 139.766 152.907L139.812 154.263C139.902 155.612 140.127 156.934 140.486 158.229C140.966 159.955 141.78 161.443 142.931 162.69C145.233 165.568 149.168 167.007 154.731 167.007C157.512 167.007 159.959 166.478 162.069 165.423C164.179 164.368 166.148 162.976 167.971 161.25C169.985 159.332 171.951 157.077 173.869 154.488C175.787 151.802 177.464 149.163 178.903 146.573C179.191 146.069 179.372 145.593 179.444 145.143L179.479 144.704C179.479 143.841 179.286 143.408 178.903 143.408C178.807 143.41 178.664 143.555 178.474 143.84Z" fill="white"/>
<path d="M149.117 142.679C149.491 143.035 149.882 143.351 150.279 143.641C150.154 144.66 149.846 145.825 149.19 146.986L149.194 146.989C148.573 148.127 147.928 149.26 147.272 150.397C147.368 149.541 147.5 148.695 147.676 147.86C148.06 145.942 148.541 144.214 149.117 142.679ZM150.026 139.981C150.138 140.372 150.216 140.74 150.265 141.077C150.12 140.901 149.974 140.718 149.837 140.522C149.897 140.34 149.964 140.161 150.026 139.981ZM27.9165 90.5553C26.1511 91.8844 24.5133 93.3657 23.0091 95.0131L22.9845 95.0412L22.9564 95.0693C20.3055 97.9096 18.8499 101.515 18.8499 106.423L18.864 107.115C18.9231 108.529 19.1679 109.514 19.4401 110.189C19.8127 110.846 20.145 111.2 20.3885 111.397C20.9204 111.678 21.2932 111.745 21.5829 111.745C22.2058 111.745 23.1149 111.572 24.3932 110.87C25.5044 110.177 26.629 109.113 27.7163 107.477C27.982 107.02 28.4737 105.942 29.0442 103.904L29.0793 103.778L29.1179 103.651C29.6603 101.956 29.9258 100.25 29.9259 98.5084L29.9118 97.9006C29.8796 97.3094 29.7995 96.7569 29.68 96.2391L29.6203 95.9791L29.5781 95.7157C29.5575 95.5818 29.5329 95.5084 29.5219 95.4803C29.5119 95.455 29.5053 95.4446 29.5008 95.4381L29.1987 95.0061L28.9599 94.5318C28.9479 94.5079 28.9359 94.484 28.9247 94.4616C28.922 94.456 28.924 94.4566 28.9212 94.451L28.9177 94.4475V94.444L28.9142 94.437L28.9107 94.4335V94.4264C28.9055 94.416 28.9052 94.4225 28.9001 94.4124C28.8962 94.4045 28.9006 94.4098 28.8966 94.4019V94.3983L28.8931 94.3948C28.8778 94.3642 28.8945 94.3942 28.8791 94.3632L28.872 94.3562V94.3527L28.8685 94.3492L28.8615 94.3351V94.3281H28.858L28.8334 94.2789C28.8248 94.2617 28.8314 94.2679 28.8229 94.2508C28.8191 94.2432 28.8194 94.2473 28.8158 94.2403L28.8123 94.2367V94.2332L28.8088 94.2297V94.2262L28.8053 94.2192L28.8018 94.2157V94.2086L28.7983 94.2016L28.7912 94.1911L28.7877 94.1841L28.7842 94.1805L28.7807 94.1735V94.17C28.778 94.1646 28.7799 94.1684 28.7772 94.163V94.1595H28.7737L28.7702 94.1524V94.1489C28.7668 94.1423 28.766 94.1441 28.7631 94.1384C28.7598 94.1317 28.7558 94.1236 28.7526 94.1173C28.7467 94.1055 28.7553 94.1193 28.7491 94.1068L28.7456 94.1033V94.0997C28.7338 94.0761 28.7229 94.0543 28.714 94.0365C28.699 94.0066 28.7013 94.0148 28.6894 93.9908V93.9838H28.6859V93.9803L28.6823 93.9768L28.6788 93.9627H28.6753V93.9557H28.6718L27.913 92.4347V90.738C27.913 90.6794 27.915 90.6182 27.9165 90.5553ZM163.597 59.8004C167.338 59.8004 170.361 60.9067 172.663 63.113C174.965 65.2231 176.116 67.6219 176.116 70.3073C176.116 71.8413 175.683 73.3269 174.82 74.7651C174.053 76.2039 172.757 77.4992 170.935 78.6503C168.441 80.1848 165.42 81.2398 161.872 81.8153C158.323 82.2949 154.725 82.5354 151.08 82.5355C147.531 82.5355 143.982 82.3911 140.433 82.1034C136.98 81.7197 133.956 81.4346 131.366 81.2427C134.436 77.0221 137.652 73.2806 141.009 70.0192C144.366 66.6619 147.819 64.1676 151.368 62.5369C153.574 61.4818 155.684 60.7601 157.698 60.3765C159.808 59.9929 161.774 59.8004 163.597 59.8004ZM163.597 66.9947C162.285 66.9947 160.768 67.1306 159.03 67.4443C157.73 67.6933 156.215 68.1905 154.47 69.0251L154.372 69.0743C151.745 70.2814 148.976 72.2256 146.096 75.1058L146.057 75.1409L146.022 75.1796C146.003 75.1975 145.984 75.2144 145.966 75.2323C147.671 75.3025 149.376 75.3412 151.08 75.3412C154.375 75.3411 157.618 75.1254 160.811 74.6983C163.573 74.2408 165.62 73.4633 167.134 72.5379C168.183 71.8681 168.447 71.429 168.472 71.3822L168.557 71.2206L168.651 71.066C168.907 70.6396 168.922 70.4185 168.922 70.3073L168.897 70.0087C168.846 69.7195 168.683 69.3204 168.16 68.7651L167.801 68.4139L167.742 68.3612L167.685 68.305C166.952 67.6021 165.827 66.9947 163.597 66.9947ZM141.726 142.106C139.903 145.367 138.082 148.436 136.26 151.313C134.437 154.191 132.424 156.83 130.218 159.228C129.162 160.475 127.915 161.626 126.476 162.681C125.038 163.736 123.502 164.262 121.871 164.262C121.104 164.262 120.43 164.025 119.855 163.545C119.279 162.97 118.994 162.152 118.994 161.097V160.521C119.089 160.33 119.138 160.188 119.138 160.092C119.426 158.173 120.048 156.157 121.007 154.046L123.167 149.589C124.246 147.503 125.404 145.361 126.645 143.167L127.913 140.954C129.64 137.98 131.127 135.005 132.374 132.031C133.525 129.442 134.103 127.091 134.103 124.981C134.102 122.872 133.381 121.29 131.942 120.235C130.503 119.084 128.153 118.651 124.892 118.939C122.782 119.131 120.624 119.994 118.418 121.528C116.212 123.063 114.006 124.935 111.8 127.142C110.265 128.676 108.489 130.834 106.474 133.616C104.556 136.301 102.831 138.796 101.296 141.098C102.064 139.18 102.734 137.451 103.309 135.917C103.98 134.382 104.699 132.704 105.466 130.883C106.329 128.964 107.34 126.614 108.491 123.832C110.025 120.379 111.798 116.493 113.813 112.177C115.827 107.765 118.081 103.208 120.575 98.5084C123.165 93.7125 125.948 89.1081 128.921 84.6959C132.182 84.8877 135.54 85.1247 138.993 85.4125C142.445 85.7002 145.851 85.8445 149.208 85.8446C153.333 85.8446 157.315 85.5113 161.152 84.8399C164.988 84.1685 168.538 82.8729 171.799 80.9547C174.293 79.4199 176.117 77.5955 177.268 75.4852C178.419 73.3754 178.993 71.2649 178.993 69.1551C178.993 66.0855 177.842 63.3507 175.54 60.9526C173.238 58.5548 169.929 57.3556 165.613 57.3554C163.023 57.3554 160.336 57.7403 157.554 58.5076C154.773 59.275 152.134 60.2817 149.64 61.5287C145.42 63.7348 141.393 66.5181 137.556 69.8752C133.815 73.1366 130.266 76.7819 126.908 80.8107C118.851 79.9474 110.935 78.7483 103.165 77.2135C95.3958 75.5829 87.7229 73.8545 80.1455 72.0321C75.8289 70.9769 71.5583 70.1627 67.3376 69.5871C63.1176 69.0117 58.9456 68.7231 54.8214 68.723C49.8336 68.723 44.8926 69.2522 40.0007 70.3073C35.2048 71.3624 30.408 73.1836 25.6121 75.7733C22.7345 77.308 19.8552 79.4177 16.9776 82.1034C14.0998 84.7893 11.846 87.9089 10.2153 91.4581C9.2563 93.4722 8.48989 95.5823 7.91443 97.7882C7.43485 99.8984 7.19434 102.008 7.1943 104.118C7.1943 107.284 7.86422 110.211 9.20716 112.897C10.6458 115.582 12.8524 117.644 15.8253 119.083C17.8398 119.946 19.9527 120.379 22.159 120.379C24.94 120.379 27.6247 119.753 30.2139 118.507C32.8039 117.164 34.8688 115.199 36.4036 112.609C37.4587 110.978 38.2249 109.202 38.7045 107.283C39.1839 105.269 39.4246 103.303 39.4246 101.385C39.4246 100.81 39.3765 100.233 39.2806 99.6571C39.2805 99.0821 39.2324 98.5072 39.1366 97.9323C38.9447 96.7812 38.5599 95.534 37.9843 94.1911C37.505 92.753 37.027 91.6975 36.5476 91.026C36.2599 90.5465 35.923 90.306 35.5394 90.3059C35.2516 90.3059 35.1073 90.4502 35.1073 90.738C35.1115 90.7463 35.2078 90.9389 35.3954 91.3141C36.066 92.2723 36.4961 93.3742 36.6881 94.6196L36.6916 94.6232C36.9792 95.8699 37.1202 97.1658 37.1202 98.5084C37.1201 101.002 36.7388 103.449 35.9715 105.847C35.3001 108.244 34.5784 110.066 33.8111 111.313C32.1804 113.807 30.2632 115.727 28.0571 117.07C25.8513 118.317 23.6928 118.939 21.5829 118.939C19.8563 118.939 18.1762 118.458 16.5455 117.499C15.1074 116.54 13.9072 115.151 12.9483 113.329C12.0852 111.411 11.6558 109.108 11.6556 106.423C11.6556 99.9 13.6689 94.4784 17.6977 90.1619C21.7264 85.7495 26.5228 82.2965 32.0863 79.8025C34.8559 78.5436 38.433 77.6148 42.818 77.0168L44.7466 76.7814C50.0224 76.11 55.2996 75.7733 60.5754 75.7733C63.549 75.7733 66.3801 75.8695 69.066 76.0613C71.7513 76.1573 74.1503 76.3978 76.2603 76.7814L103.165 81.5273C98.4648 83.9254 94.1497 87.3817 90.2168 91.8902C86.3803 96.3022 82.7823 101.337 79.4253 106.995C76.068 112.559 72.9003 118.365 69.9266 124.409C67.0492 130.355 64.173 136.159 61.2956 141.818C58.5139 147.382 55.6826 152.371 52.805 156.783C49.8318 161.29 46.6185 165.318 43.1658 168.867C39.8089 172.416 36.4032 174.766 32.9504 175.917C30.6484 176.781 28.0094 177.214 25.036 177.214C23.5972 177.214 22.1576 177.069 20.7187 176.781C19.6883 176.487 18.5744 175.937 17.3745 175.134L16.2574 174.337C14.627 173.09 13.9572 171.746 14.2446 170.307C14.4364 169.828 14.292 169.587 13.8125 169.587C13.4288 169.683 13.0921 169.924 12.8043 170.307C12.2293 170.979 11.9402 171.842 11.9401 172.896C11.9401 173.951 12.229 175.006 12.8043 176.061C13.4754 177.116 14.3872 177.931 15.5373 178.506C16.5921 179.082 17.8403 179.467 19.2785 179.659C20.7172 179.946 22.2533 180.091 23.8838 180.091C28.0085 180.091 31.5576 179.561 34.5312 178.506C39.9027 176.588 44.6993 173.76 48.9198 170.019C53.1405 166.278 56.93 162.056 60.2874 157.355C64.028 152.08 67.2409 146.565 69.9266 140.81C72.7083 135.055 75.3952 129.251 77.9851 123.4C80.5749 117.453 83.4062 111.698 86.4756 106.135C89.5452 100.475 93.1904 95.1499 97.4111 90.1619C100.864 86.1334 104.173 83.3982 107.338 81.9594C108.394 82.0553 109.929 82.2477 111.944 82.5355C113.958 82.8232 116.068 83.1119 118.274 83.3996C120.576 83.6873 122.541 83.9761 124.172 84.2638C118.609 91.4578 113.619 99.2747 109.207 107.716C104.891 116.06 101.152 124.07 97.9872 131.743C94.7258 139.609 91.9429 146.47 89.6407 152.322C87.3386 158.077 85.7546 162.585 84.8913 165.846H85.8995C86.2831 165.942 86.6681 165.99 87.0517 165.99C87.8187 165.99 88.6339 165.749 89.4966 165.27C90.3598 164.79 91.1744 163.735 91.9416 162.105C92.9967 159.995 94.3882 157.452 96.1148 154.478C97.8413 151.409 99.5217 148.485 101.152 145.703C102.879 142.634 104.7 139.755 106.618 137.069C108.537 134.287 110.409 131.841 112.232 129.73C114.246 127.333 116.308 125.367 118.418 123.832C120.624 122.202 122.638 121.384 124.46 121.384C125.227 121.384 125.949 121.673 126.62 122.248C127.291 122.823 127.625 123.687 127.625 124.837C127.625 125.892 127.291 127.044 126.62 128.29C124.702 132.415 122.303 136.397 119.426 140.234L118.376 141.681C115.994 145.081 114.087 148.628 112.66 152.322C111.989 154.143 111.656 155.966 111.656 157.788L111.684 158.641C111.82 160.614 112.434 162.439 113.524 164.118C114.867 165.94 117.17 166.854 120.431 166.854C122.445 166.854 124.27 166.373 125.9 165.414C127.531 164.359 128.971 163.208 130.218 161.961C132.999 159.179 135.35 156.207 137.268 153.042C138.266 151.474 139.225 149.903 140.152 148.334C139.901 149.856 139.762 151.376 139.762 152.898C139.762 154.72 140.003 156.494 140.482 158.22C140.668 158.89 140.908 159.522 141.195 160.12C139.45 162.552 137.487 164.864 135.304 167.047C133.665 168.687 131.82 170.153 129.806 171.456L129.68 171.537L129.547 171.614C126.738 173.266 123.642 174.048 120.431 174.048C115.948 174.048 110.958 172.764 107.732 168.386L107.609 168.217L107.493 168.042C105.482 164.948 104.461 161.473 104.461 157.788C104.461 156.395 104.593 155.019 104.848 153.663C104.038 155.075 103.219 156.523 102.385 158.005L102.361 158.048L102.336 158.093C100.654 160.989 99.3425 163.392 98.3771 165.323L98.3736 165.319C97.4154 167.32 95.8056 169.994 92.9919 171.558C91.3593 172.465 89.343 173.184 87.0517 173.184C86.4413 173.184 85.8381 173.132 85.2461 173.04H75.5472L77.9359 164.005C78.9116 160.319 80.6223 155.491 82.9593 149.648C85.2789 143.753 88.0752 136.865 91.3409 128.989C94.5935 121.105 98.4203 112.911 102.817 104.41L102.831 104.382C105.495 99.287 108.372 94.4056 111.448 89.7298L110.925 89.6595C110.11 89.543 109.395 89.4443 108.775 89.3644C107.155 90.4192 105.179 92.1546 102.874 94.8445C98.9789 99.4519 95.6228 104.356 92.7987 109.563L92.7882 109.584L92.7741 109.609C89.8154 114.972 87.0843 120.525 84.5822 126.27L84.5646 126.312C81.9557 132.207 79.2443 138.05 76.4429 143.849L76.4464 143.852C73.5745 150.006 70.1437 155.896 66.1573 161.518L66.1433 161.539C62.4796 166.668 58.3283 171.293 53.6938 175.401C48.7772 179.759 43.179 183.058 36.9516 185.283L36.9375 185.29C32.9953 186.688 28.59 187.285 23.8838 187.285C21.9453 187.285 20.0456 187.115 18.1965 186.768C16.1861 186.488 14.1899 185.917 12.323 184.938V184.942C12.2957 184.928 12.2695 184.91 12.2423 184.896C12.1938 184.87 12.143 184.849 12.0947 184.822V184.819C10.1968 183.828 8.56058 182.458 7.28212 180.723L6.73412 179.925L6.60414 179.718L6.48822 179.507C5.55148 177.79 4.92072 175.868 4.77746 173.796L4.74585 172.896L4.78098 171.979C4.93984 169.821 5.67921 167.565 7.34184 165.625C8.4043 164.342 9.95995 163.134 12.0666 162.607L12.9273 162.393H13.8125C14.741 162.393 18.3492 162.567 20.4482 166.064C21.1078 167.163 21.3949 168.249 21.4845 169.225C21.9595 169.535 22.2952 169.705 22.4997 169.791C23.3563 169.941 24.2 170.019 25.036 170.019C27.3222 170.019 29.0798 169.688 30.4247 169.183L30.5477 169.134L30.6741 169.092C32.6852 168.421 35.1286 166.895 37.9387 163.924L37.9738 163.886L38.0089 163.851C41.1195 160.654 44.055 156.985 46.8016 152.82C49.4987 148.682 52.1865 143.947 54.86 138.6L54.8811 138.555C57.7364 132.939 60.5947 127.178 63.4524 121.272L63.4735 121.229C66.5344 115.009 69.7968 109.024 73.2638 103.279C76.807 97.3117 80.6435 91.9328 84.7859 87.1689L84.793 87.1584C85.1956 86.6968 85.6105 86.2503 86.0224 85.8059L75.0097 83.8668L74.9711 83.8598C73.6983 83.6284 72.231 83.4507 70.5554 83.3399L68.8095 83.2521L68.6796 83.2451L68.5531 83.238C66.0544 83.0596 63.3954 82.9676 60.5754 82.9676C55.6059 82.9676 50.6333 83.2826 45.6564 83.916L45.5932 83.9266L45.5264 83.9336C43.5803 84.1459 41.8717 84.4173 40.3801 84.7275C41.2699 85.3982 41.937 86.1725 42.4 86.8422C43.4332 88.2887 44.1482 90.0115 44.6868 91.574C45.3906 93.2523 45.9384 94.9844 46.2325 96.7484C46.3605 97.5164 46.4347 98.2916 46.4608 99.0704C46.5623 99.837 46.6189 100.609 46.6189 101.385L46.6049 102.33C46.5363 104.538 46.2266 106.749 45.7021 108.952L45.695 108.991L45.6845 109.029C45.0395 111.609 44.0036 114.032 42.5897 116.273C40.3919 119.981 37.3506 122.91 33.5266 124.893L33.4317 124.942L33.3369 124.988C29.8071 126.688 26.0575 127.573 22.159 127.574C19.382 127.574 16.6789 127.094 14.0935 126.137L12.994 125.694L12.8429 125.631L12.6919 125.561C8.73573 123.646 5.51002 120.814 3.29504 117.056L2.86648 116.294L2.8173 116.203L2.77163 116.115C0.902146 112.376 0 108.339 0 104.118C4.24359e-05 101.458 0.303855 98.8133 0.899287 96.1934L0.923877 96.081L0.95198 95.9721C1.63964 93.3361 2.56136 90.7966 3.7201 88.3633H3.72361C5.74509 83.9944 8.53813 80.1412 12.0701 76.8447C15.3147 73.8165 18.6952 71.3085 22.2257 69.4256C27.5363 66.5614 32.9494 64.4893 38.4551 63.2781L38.4832 63.2746C43.872 62.1123 49.3218 61.5287 54.8214 61.5287C58.7232 61.5287 62.6533 61.7683 66.6105 62.2418L68.3107 62.4596C72.7791 63.0689 77.2827 63.9297 81.8211 65.038H81.8246C89.3119 66.8387 96.8972 68.5437 104.577 70.1562C110.931 71.4108 117.389 72.4322 123.951 73.2264C126.773 70.0764 129.728 67.1521 132.817 64.4584L134.419 63.0989C138.181 59.9868 142.142 57.3296 146.306 55.1529L146.366 55.1213L146.422 55.0932C149.348 53.6305 152.424 52.4604 155.64 51.5733C158.975 50.6533 162.308 50.1611 165.613 50.1611C171.274 50.1613 176.697 51.7719 180.729 55.9714C184.2 59.5873 186.188 64.0659 186.188 69.1551L186.142 70.4478C185.936 73.4444 185.022 76.2902 183.581 78.9313C181.712 82.3582 178.898 85.0323 175.568 87.0811L175.509 87.1162L175.445 87.1549C171.419 89.5228 167.052 91.1098 162.392 91.9253C158.122 92.6725 153.724 93.0389 149.208 93.0389C145.645 93.0388 142.041 92.886 138.395 92.5822C136.446 92.4197 134.529 92.2778 132.645 92.1466C130.637 95.3048 128.721 98.5636 126.905 101.926C125.042 105.44 123.32 108.859 121.741 112.187C122.557 111.994 123.391 111.85 124.242 111.773H124.26L125.725 111.678C129.135 111.545 133.033 112.034 136.193 114.432H136.196C136.237 114.462 136.276 114.497 136.316 114.527C136.355 114.557 136.397 114.584 136.435 114.615H136.432C139.897 117.279 141.297 121.141 141.297 124.981L141.251 126.256C141.059 129.17 140.221 132.044 139.007 134.81L139.01 134.814C138.941 134.98 138.86 135.143 138.789 135.309C139.799 134.751 141.062 134.336 142.59 134.336C143.398 134.336 144.237 134.468 145.056 134.74C144.196 136.283 143.441 137.827 142.786 139.37C142.418 140.229 142.08 141.127 141.764 142.057C141.752 142.073 141.738 142.09 141.726 142.106Z" fill="white"/>
</svg>
