<svg width="433" height="157" viewBox="0 0 433 157" fill="none" xmlns="http://www.w3.org/2000/svg">
<g filter="url(#filter0_d_1529_13128)">
<path d="M2.32 33.68C2 33.52 1.74667 33.2933 1.56 33C1.4 32.7067 1.32 32.4133 1.32 32.12C1.32 31.8267 1.4 31.5867 1.56 31.4C1.64 31.2933 1.73333 31.2267 1.84 31.2C1.97333 31.2 2.01333 31.2667 1.96 31.4C1.88 31.8 2.06667 32.1733 2.52 32.52C2.97333 32.8667 3.38667 33.0933 3.76 33.2C4.16 33.28 4.56 33.32 4.96 33.32C5.78667 33.32 6.52 33.2 7.16 32.96C8.12 32.64 9.06667 31.9867 10 31C10.96 30.0133 11.8533 28.8933 12.68 27.64C13.48 26.4133 14.2667 25.0267 15.04 23.48C15.84 21.9067 16.64 20.2933 17.44 18.64C18.2667 16.96 19.1467 15.3467 20.08 13.8C21.0133 12.2267 22.0133 10.8267 23.08 9.6C24.1733 8.34667 25.3733 7.38667 26.68 6.72L19.2 5.4C18.6133 5.29333 17.9467 5.22667 17.2 5.2C16.4533 5.14667 15.6667 5.12 14.84 5.12C13.3733 5.12 11.9067 5.21333 10.44 5.4C8.97333 5.56 7.8 5.84 6.92 6.24C5.37333 6.93333 4.04 7.89333 2.92 9.12C1.8 10.32 1.24 11.8267 1.24 13.64C1.24 14.3867 1.36 15.0267 1.6 15.56C1.86667 16.0667 2.2 16.4533 2.6 16.72C3.05333 16.9867 3.52 17.12 4 17.12C4.58667 17.12 5.18667 16.9467 5.8 16.6C6.41333 16.2267 6.94667 15.6933 7.4 15C7.61333 14.6533 7.81333 14.1467 8 13.48C8.21333 12.8133 8.32 12.1333 8.32 11.44C8.32 11.0667 8.28 10.7067 8.2 10.36C8.14667 10.0133 8.02667 9.70667 7.84 9.44C7.78667 9.33333 7.76 9.28 7.76 9.28C7.76 9.2 7.8 9.16 7.88 9.16C7.98667 9.16 8.08 9.22667 8.16 9.36C8.29333 9.54667 8.42667 9.84 8.56 10.24C8.72 10.6133 8.82667 10.96 8.88 11.28C8.90667 11.44 8.92 11.6 8.92 11.76C8.94667 11.92 8.96 12.08 8.96 12.24C8.96 12.7733 8.89333 13.32 8.76 13.88C8.62667 14.4133 8.41333 14.9067 8.12 15.36C7.69333 16.08 7.12 16.6267 6.4 17C5.68 17.3467 4.93333 17.52 4.16 17.52C3.54667 17.52 2.96 17.4 2.4 17.16C1.57333 16.76 0.96 16.1867 0.56 15.44C0.186667 14.6933 0 13.88 0 13C0 12.4133 0.0666667 11.8267 0.2 11.24C0.36 10.6267 0.573333 10.04 0.84 9.48C1.29333 8.49333 1.92 7.62667 2.72 6.88C3.52 6.13333 4.32 5.54667 5.12 5.12C6.45333 4.4 7.78667 3.89333 9.12 3.6C10.48 3.30667 11.8533 3.16 13.24 3.16C14.3867 3.16 15.5467 3.24 16.72 3.4C17.8933 3.56 19.08 3.78667 20.28 4.08C22.3867 4.58667 24.52 5.06667 26.68 5.52C28.84 5.94667 31.04 6.28 33.28 6.52C34.2133 5.4 35.2 4.38667 36.24 3.48C37.3067 2.54667 38.4267 1.77333 39.6 1.16C40.2933 0.813332 41.0267 0.533332 41.8 0.319998C42.5733 0.106666 43.32 0 44.04 0C45.24 0 46.16 0.333333 46.8 0.999999C47.44 1.66667 47.76 2.42666 47.76 3.28C47.76 3.86667 47.6 4.45333 47.28 5.04C46.96 5.62667 46.4533 6.13333 45.76 6.56C44.8533 7.09333 43.8667 7.45333 42.8 7.64C41.7333 7.82667 40.6267 7.92 39.48 7.92C38.5467 7.92 37.6 7.88 36.64 7.8C35.68 7.72 34.7467 7.65333 33.84 7.6C33.0133 8.82667 32.24 10.1067 31.52 11.44C30.8267 12.7467 30.2 14.0133 29.64 15.24C29.08 16.44 28.5867 17.52 28.16 18.48C27.84 19.2533 27.56 19.9067 27.32 20.44C27.1067 20.9467 26.9067 21.4133 26.72 21.84C26.56 22.2667 26.3733 22.7467 26.16 23.28C26.5867 22.64 27.0667 21.9467 27.6 21.2C28.16 20.4267 28.6533 19.8267 29.08 19.4C29.6933 18.7867 30.3067 18.2667 30.92 17.84C31.5333 17.4133 32.1333 17.1733 32.72 17.12C33.6267 17.04 34.28 17.16 34.68 17.48C35.08 17.7733 35.28 18.2133 35.28 18.8C35.28 19.3867 35.12 20.04 34.8 20.76C34.4533 21.5867 34.04 22.4133 33.56 23.24C33.08 24.0667 32.64 24.8667 32.24 25.64C32.1333 25.8533 31.9333 26.2667 31.64 26.88C31.3733 27.4667 31.2 28.0267 31.12 28.56C31.12 28.5867 31.1067 28.6267 31.08 28.68C31.08 28.7333 31.08 28.7867 31.08 28.84C31.08 29.1333 31.16 29.36 31.32 29.52C31.48 29.6533 31.6667 29.72 31.88 29.72C32.3333 29.72 32.76 29.5733 33.16 29.28C33.56 28.9867 33.9067 28.6667 34.2 28.32C34.8133 27.6533 35.3733 26.92 35.88 26.12C36.3867 25.32 36.8933 24.4667 37.4 23.56C37.48 23.4533 37.56 23.4 37.64 23.4C37.7467 23.4 37.8 23.48 37.8 23.64C37.8 23.7733 37.7733 23.88 37.72 23.96C37.24 24.84 36.72 25.72 36.16 26.6C35.6267 27.48 34.9733 28.3067 34.2 29.08C33.8533 29.4267 33.4533 29.7467 33 30.04C32.5467 30.3067 32.04 30.44 31.48 30.44C30.5733 30.44 29.9333 30.1867 29.56 29.68C29.2133 29.1467 29.04 28.56 29.04 27.92C29.04 27.4133 29.1333 26.9067 29.32 26.4C29.7733 25.2267 30.4 24.1067 31.2 23.04C32 21.9733 32.6667 20.8667 33.2 19.72C33.3867 19.3733 33.48 19.0533 33.48 18.76C33.48 18.44 33.3867 18.2 33.2 18.04C33.0133 17.88 32.8133 17.8 32.6 17.8C32.0933 17.8 31.5333 18.0267 30.92 18.48C30.3333 18.9067 29.76 19.4533 29.2 20.12C28.6933 20.7067 28.1733 21.3867 27.64 22.16C27.1067 22.9067 26.6 23.7067 26.12 24.56C25.6667 25.3333 25.2 26.1467 24.72 27C24.24 27.8267 23.8533 28.5333 23.56 29.12C23.3467 29.5733 23.12 29.8667 22.88 30C22.64 30.1333 22.4133 30.2 22.2 30.2C22.0933 30.2 21.9867 30.1867 21.88 30.16C21.7733 30.16 21.68 30.16 21.6 30.16C21.84 29.2533 22.28 28 22.92 26.4C23.56 24.7733 24.3333 22.8667 25.24 20.68C26.12 18.5467 27.16 16.32 28.36 14C29.5867 11.6533 30.9733 9.48 32.52 7.48C32.0667 7.4 31.52 7.32 30.88 7.24C30.2667 7.16 29.68 7.08 29.12 7C28.56 6.92 28.1333 6.86667 27.84 6.84C26.96 7.24 26.04 8 25.08 9.12C23.9067 10.5067 22.8933 11.9867 22.04 13.56C21.1867 15.1067 20.4 16.7067 19.68 18.36C18.96 19.9867 18.2133 21.6 17.44 23.2C16.6933 24.8 15.8 26.3333 14.76 27.8C13.8267 29.1067 12.7733 30.28 11.6 31.32C10.4267 32.36 9.09333 33.1467 7.6 33.68C6.77333 33.9733 5.78667 34.12 4.64 34.12C4.18667 34.12 3.76 34.08 3.36 34C2.96 33.9467 2.61333 33.84 2.32 33.68ZM34.52 6.64C35.24 6.69333 36.08 6.77333 37.04 6.88C38.0267 6.96 39.0133 7 40 7C41.0133 7 42.0133 6.93333 43 6.8C43.9867 6.64 44.8267 6.34667 45.52 5.92C46.0267 5.6 46.3867 5.24 46.6 4.84C46.84 4.44 46.96 4.02667 46.96 3.6C46.96 2.85333 46.64 2.18667 46 1.6C45.36 0.986665 44.52 0.679998 43.48 0.679998C42.9733 0.679998 42.4267 0.733332 41.84 0.839999C41.28 0.946666 40.6933 1.14667 40.08 1.44C39.0933 1.89333 38.1333 2.58667 37.2 3.52C36.2667 4.42667 35.3733 5.46667 34.52 6.64Z" fill="#000D05"/>
<path d="M41.4141 30.48C39.8674 30.48 38.7741 30.08 38.1341 29.28C37.8141 28.9333 37.5874 28.52 37.4541 28.04C37.3207 27.56 37.2541 27.0667 37.2541 26.56C37.2541 25.92 37.3341 25.28 37.4941 24.64C37.6541 23.9733 37.8541 23.36 38.0941 22.8C38.4674 21.92 38.9607 21.04 39.5741 20.16C40.1874 19.2533 40.9207 18.4933 41.7741 17.88C42.6541 17.2667 43.6141 16.96 44.6541 16.96C45.3474 16.96 45.8941 17.1333 46.2941 17.48C46.6941 17.8267 46.8941 18.36 46.8941 19.08C46.8941 19.9067 46.6407 20.7467 46.1341 21.6C45.6274 22.4267 44.9874 23.12 44.2141 23.68C43.4407 24.24 42.6407 24.52 41.8141 24.52C41.0674 24.52 40.4141 24.2533 39.8541 23.72C39.6941 24.1467 39.5607 24.6267 39.4541 25.16C39.3474 25.6667 39.2941 26.1867 39.2941 26.72C39.2941 27.5467 39.4541 28.2667 39.7741 28.88C40.1207 29.4933 40.7341 29.8 41.6141 29.8C42.2541 29.8 42.8674 29.64 43.4541 29.32C44.0674 28.9733 44.6141 28.56 45.0941 28.08C45.6274 27.52 46.1341 26.92 46.6141 26.28C47.0941 25.64 47.5607 24.8933 48.0141 24.04C48.0674 23.96 48.1074 23.92 48.1341 23.92C48.2407 23.92 48.2941 24.04 48.2941 24.28C48.2941 24.44 48.2407 24.6133 48.1341 24.8C47.7341 25.52 47.2674 26.2533 46.7341 27C46.2007 27.72 45.6541 28.3467 45.0941 28.88C44.5874 29.36 44.0407 29.7467 43.4541 30.04C42.8674 30.3333 42.1874 30.48 41.4141 30.48ZM40.0541 23.12C40.2407 23.3867 40.4541 23.5867 40.6941 23.72C40.9607 23.8267 41.2274 23.88 41.4941 23.88C42.1341 23.88 42.8007 23.64 43.4941 23.16C44.1874 22.6533 44.7474 22.0667 45.1741 21.4C45.3607 21.1067 45.5207 20.72 45.6541 20.24C45.8141 19.76 45.8941 19.3067 45.8941 18.88C45.8941 18.5067 45.8141 18.1867 45.6541 17.92C45.5207 17.6267 45.2407 17.48 44.8141 17.48C44.3341 17.48 43.7607 17.7733 43.0941 18.36C42.4541 18.9467 41.8407 19.7067 41.2541 20.64C41.0674 20.96 40.8541 21.3333 40.6141 21.76C40.4007 22.1867 40.2141 22.64 40.0541 23.12Z" fill="#000D05"/>
<path d="M103.5 19.56H83.8V68.16H60V19.56H40.3V1.56H103.5V19.56Z" fill="black"/>
<path d="M172.664 68.16H151.864C148.464 68.16 146.464 63.26 146.464 57.86V48.76C146.464 45.76 145.164 43.06 141.064 43.06H131.564V68.16H107.764V1.56H146.864C160.264 1.56 169.364 9.06 169.364 19.36V21.66C169.364 28.26 165.064 34.06 157.864 35.96C165.964 37.46 169.664 43.36 169.664 49.56V57.06C169.664 61.26 170.764 64.86 172.664 67.86V68.16ZM145.864 26.16V23.66C145.864 19.56 143.864 17.86 138.964 17.86H131.564V31.96H138.964C143.864 31.96 145.864 30.06 145.864 26.16Z" fill="black"/>
<path d="M233.025 68.16H176.225V1.56H233.025V18.76H200.025V28.86H221.725V39.46H200.025V49.66H233.025V68.16Z" fill="black"/>
<path d="M304.515 68.16H284.615L265.615 43.56L261.015 37.56V68.16H239.315V1.56H259.615L278.415 26.56L282.815 32.36V1.56H304.515V68.16Z" fill="black"/>
<path d="M377.473 42.36C377.473 57.06 367.773 68.16 345.073 68.16H312.073V1.56H345.073C367.773 1.56 377.473 13.36 377.473 28.16V42.36ZM353.373 42.86V26.76C353.373 20.46 350.073 17.66 343.673 17.66H335.873V51.96H343.673C350.073 51.96 353.373 49.26 353.373 42.86Z" fill="black"/>
<path d="M103.7 131.46C103.7 143.96 90.4 153.76 72.5 153.76C58.1 153.76 47.1 148.66 38.1 141.46L49.2 128.66C56.5 134.56 66 138.26 73 138.26C78.9 138.26 80.8 136.06 80.8 133.26C80.8 124.46 42.5 128.26 42.5 105.56C42.5 94.06 54.2 83.96 72.7 83.96C86.4 83.96 96.6 89.36 103.9 96.46L91.3 107.26C85.4 102.46 78.6 99.46 72.4 99.46C67.5 99.46 64.9 101.26 64.9 103.86C64.9 112.76 103.7 109.86 103.7 131.46Z" fill="black"/>
<path d="M165.541 152.16H108.741V85.56H165.541V102.76H132.541V112.86H154.241V123.46H132.541V133.66H165.541V152.16Z" fill="black"/>
<path d="M231.73 103.56H212.03V152.16H188.23V103.56H168.53V85.56H231.73V103.56Z" fill="black"/>
<path d="M295.895 103.56H276.195V152.16H252.395V103.56H232.695V85.56H295.895V103.56Z" fill="black"/>
<path d="M356.959 152.16H300.159V85.56H356.959V102.76H323.959V112.86H345.659V123.46H323.959V133.66H356.959V152.16Z" fill="black"/>
<path d="M428.148 152.16H407.348C403.948 152.16 401.948 147.26 401.948 141.86V132.76C401.948 129.76 400.648 127.06 396.548 127.06H387.048V152.16H363.248V85.56H402.348C415.748 85.56 424.848 93.06 424.848 103.36V105.66C424.848 112.26 420.548 118.06 413.348 119.96C421.448 121.46 425.148 127.36 425.148 133.56V141.06C425.148 145.26 426.248 148.86 428.148 151.86V152.16ZM401.348 110.16V107.66C401.348 103.56 399.348 101.86 394.448 101.86H387.048V115.96H394.448C399.348 115.96 401.348 114.06 401.348 110.16Z" fill="black"/>
</g>
<defs>
<filter id="filter0_d_1529_13128" x="0" y="0" width="432.148" height="156.762" filterUnits="userSpaceOnUse" color-interpolation-filters="sRGB">
<feFlood flood-opacity="0" result="BackgroundImageFix"/>
<feColorMatrix in="SourceAlpha" type="matrix" values="0 0 0 0 0 0 0 0 0 0 0 0 0 0 0 0 0 0 127 0" result="hardAlpha"/>
<feOffset dx="4" dy="3"/>
<feComposite in2="hardAlpha" operator="out"/>
<feColorMatrix type="matrix" values="0 0 0 0 1 0 0 0 0 1 0 0 0 0 1 0 0 0 1 0"/>
<feBlend mode="normal" in2="BackgroundImageFix" result="effect1_dropShadow_1529_13128"/>
<feBlend mode="normal" in="SourceGraphic" in2="effect1_dropShadow_1529_13128" result="shape"/>
</filter>
</defs>
</svg>
