<svg width="1577" height="310" viewBox="0 0 1577 310" fill="none" xmlns="http://www.w3.org/2000/svg">
<path d="M1576.57 301.145H1488.71L1404.83 191.548L1384.52 164.817V301.145H1288.71V4.43066H1378.34L1461.34 115.81L1480.77 141.65V4.43066H1576.57V301.145Z" fill="#000D05"/>
<path d="M1279.87 179.871C1279.87 260.258 1218.66 310 1131.73 310C1044.36 310 983.151 260.258 983.151 179.871V129.685C983.151 49.298 1044.36 0 1131.73 0C1218.66 0 1279.87 49.298 1279.87 129.685V179.871ZM1171.65 191.418V118.138C1171.65 89.2693 1156.12 75.9456 1131.73 75.9456C1106.89 75.9456 1091.37 89.2693 1091.37 118.138V191.418C1091.37 220.287 1106.89 233.61 1131.73 233.61C1156.12 233.61 1171.65 220.287 1171.65 191.418Z" fill="#000D05"/>
<path d="M974.29 301.145H868.004V4.43066H974.29V301.145Z" fill="#000D05"/>
<path d="M858.267 210.96C858.267 266.476 800.083 310 721.776 310C658.78 310 610.658 287.35 571.285 255.372L619.845 198.524C651.78 224.728 693.34 241.16 723.963 241.16C749.774 241.16 758.086 231.39 758.086 218.954C758.086 179.871 590.534 196.748 590.534 95.9312C590.534 44.8567 641.718 0 722.651 0C782.585 0 827.207 23.9828 859.142 55.5158L804.021 103.481C778.21 82.1633 748.462 68.8396 721.338 68.8396C699.902 68.8396 688.528 76.8338 688.528 88.3811C688.528 127.908 858.267 115.029 858.267 210.96Z" fill="#000D05"/>
<path d="M469.348 4.42285L455.472 41.0914V301.137H561.536V4.42285H469.348Z" fill="#000D05"/>
<path d="M459.007 4.42285L346.774 301.137H245.985L136.394 4.42285H248.626L304.522 179.511L362.179 4.42285H459.007Z" fill="#000D05"/>
<path d="M190.508 205.136C183.659 205.136 178.817 203.364 175.982 199.821C174.565 198.286 173.561 196.456 172.971 194.33C172.38 192.204 172.085 190.019 172.085 187.776C172.085 184.941 172.439 182.107 173.148 179.273C173.857 176.32 174.742 173.604 175.805 171.124C177.459 167.227 179.643 163.33 182.359 159.433C185.076 155.417 188.323 152.052 192.102 149.336C195.999 146.619 200.251 145.261 204.857 145.261C207.927 145.261 210.348 146.029 212.119 147.564C213.891 149.099 214.777 151.461 214.777 154.65C214.777 158.311 213.655 162.031 211.411 165.81C209.167 169.471 206.333 172.541 202.908 175.021C199.483 177.501 195.94 178.741 192.279 178.741C188.973 178.741 186.08 177.56 183.6 175.198C182.891 177.088 182.3 179.214 181.828 181.576C181.356 183.819 181.119 186.122 181.119 188.484C181.119 192.145 181.828 195.334 183.245 198.05C184.78 200.766 187.497 202.124 191.394 202.124C194.228 202.124 196.944 201.416 199.542 199.998C202.259 198.463 204.679 196.633 206.805 194.507C209.167 192.027 211.411 189.37 213.537 186.536C215.662 183.701 217.729 180.395 219.737 176.616C219.973 176.261 220.15 176.084 220.268 176.084C220.74 176.084 220.977 176.616 220.977 177.678C220.977 178.387 220.74 179.155 220.268 179.981C218.497 183.17 216.43 186.417 214.068 189.724C211.706 192.913 209.285 195.688 206.805 198.05C204.561 200.176 202.14 201.888 199.542 203.187C196.944 204.486 193.933 205.136 190.508 205.136ZM184.485 172.541C185.312 173.722 186.257 174.608 187.32 175.198C188.5 175.671 189.681 175.907 190.862 175.907C193.697 175.907 196.649 174.844 199.719 172.718C202.79 170.475 205.27 167.876 207.16 164.924C207.986 163.625 208.695 161.913 209.285 159.787C209.994 157.661 210.348 155.654 210.348 153.764C210.348 152.111 209.994 150.694 209.285 149.513C208.695 148.214 207.455 147.564 205.565 147.564C203.439 147.564 200.9 148.863 197.948 151.461C195.114 154.059 192.398 157.425 189.799 161.558C188.973 162.976 188.028 164.629 186.965 166.518C186.02 168.408 185.194 170.416 184.485 172.541Z" fill="#020B0D"/>
<path d="M19.1427 219.316C17.7256 218.608 16.6036 217.604 15.777 216.305C15.0684 215.006 14.7141 213.707 14.7141 212.408C14.7141 211.109 15.0684 210.046 15.777 209.219C16.1313 208.747 16.5446 208.452 17.017 208.334C17.6075 208.334 17.7846 208.629 17.5484 209.219C17.1941 210.991 18.0208 212.644 20.0284 214.179C22.036 215.715 23.8665 216.718 25.5198 217.191C27.2913 217.545 29.0627 217.722 30.8341 217.722C34.4951 217.722 37.7427 217.191 40.577 216.128C44.8284 214.711 49.0208 211.817 53.1541 207.448C57.4056 203.078 61.3618 198.118 65.0227 192.568C68.5656 187.135 72.0494 180.994 75.4741 174.145C79.017 167.177 82.5599 160.033 86.1027 152.711C89.7637 145.271 93.6608 138.126 97.7941 131.276C101.927 124.309 106.356 118.109 111.08 112.676C115.922 107.126 121.236 102.874 127.023 99.9221L93.897 94.0764C91.2989 93.604 88.3465 93.3088 85.0399 93.1907C81.7332 92.9545 78.2494 92.8364 74.5884 92.8364C68.0932 92.8364 61.5979 93.2497 55.1027 94.0764C48.6075 94.785 43.4113 96.025 39.5141 97.7964C32.6646 100.867 26.7598 105.118 21.7998 110.551C16.8398 115.865 14.3598 122.537 14.3598 130.568C14.3598 133.874 14.8913 136.709 15.9541 139.071C17.1351 141.314 18.6113 143.027 20.3827 144.208C22.3903 145.389 24.457 145.979 26.5827 145.979C29.1808 145.979 31.8379 145.212 34.5541 143.676C37.2703 142.023 39.6322 139.661 41.6398 136.591C42.5846 135.055 43.4703 132.812 44.297 129.859C45.2418 126.907 45.7141 123.895 45.7141 120.825C45.7141 119.172 45.537 117.577 45.1827 116.042C44.9465 114.507 44.4151 113.149 43.5884 111.968C43.3522 111.495 43.2341 111.259 43.2341 111.259C43.2341 110.905 43.4113 110.728 43.7656 110.728C44.2379 110.728 44.6513 111.023 45.0056 111.614C45.596 112.44 46.1865 113.739 46.777 115.511C47.4856 117.164 47.9579 118.699 48.1941 120.116C48.3122 120.825 48.3713 121.534 48.3713 122.242C48.4894 122.951 48.5484 123.659 48.5484 124.368C48.5484 126.73 48.2532 129.151 47.6627 131.631C47.0722 133.993 46.1275 136.177 44.8284 138.185C42.9389 141.374 40.3998 143.794 37.2113 145.448C34.0227 146.983 30.716 147.751 27.2913 147.751C24.5751 147.751 21.977 147.219 19.497 146.156C15.836 144.385 13.1198 141.846 11.3484 138.539C9.69508 135.233 8.86841 131.631 8.86841 127.734C8.86841 125.135 9.16365 122.537 9.75412 119.939C10.4627 117.223 11.4075 114.625 12.5884 112.145C14.596 107.775 17.3713 103.937 20.9141 100.631C24.457 97.324 27.9998 94.7259 31.5427 92.8364C37.4475 89.6478 43.3522 87.404 49.257 86.105C55.2798 84.8059 61.3618 84.1564 67.5027 84.1564C72.5808 84.1564 77.7179 84.5107 82.9141 85.2192C88.1103 85.9278 93.3656 86.9316 98.6799 88.2307C108.009 90.4745 117.457 92.6002 127.023 94.6078C136.588 96.4973 146.331 97.9735 156.251 99.0364C160.385 94.0764 164.754 89.5888 169.36 85.5735C174.084 81.4402 179.044 78.0154 184.24 75.2992C187.31 73.764 190.558 72.524 193.983 71.5792C197.407 70.6345 200.714 70.1621 203.903 70.1621C209.217 70.1621 213.291 71.6383 216.126 74.5907C218.96 77.5431 220.377 80.9088 220.377 84.6878C220.377 87.2859 219.668 89.884 218.251 92.4821C216.834 95.0802 214.59 97.324 211.52 99.2135C207.505 101.575 203.135 103.17 198.411 103.996C193.687 104.823 188.787 105.236 183.708 105.236C179.575 105.236 175.383 105.059 171.131 104.705C166.88 104.351 162.747 104.055 158.731 103.819C155.07 109.252 151.646 114.92 148.457 120.825C145.387 126.612 142.611 132.221 140.131 137.654C137.651 142.968 135.467 147.751 133.577 152.002C132.16 155.427 130.92 158.32 129.857 160.682C128.912 162.926 128.027 164.993 127.2 166.882C126.491 168.772 125.665 170.897 124.72 173.259C126.609 170.425 128.735 167.354 131.097 164.048C133.577 160.623 135.762 157.966 137.651 156.076C140.367 153.36 143.084 151.057 145.8 149.168C148.516 147.278 151.173 146.215 153.771 145.979C157.787 145.625 160.68 146.156 162.451 147.574C164.223 148.873 165.108 150.821 165.108 153.419C165.108 156.017 164.4 158.911 162.983 162.099C161.447 165.76 159.617 169.421 157.491 173.082C155.366 176.743 153.417 180.286 151.646 183.711C151.173 184.655 150.287 186.486 148.988 189.202C147.807 191.8 147.04 194.28 146.686 196.642C146.686 196.76 146.627 196.937 146.508 197.174C146.508 197.41 146.508 197.646 146.508 197.882C146.508 199.181 146.863 200.185 147.571 200.894C148.28 201.484 149.107 201.779 150.051 201.779C152.059 201.779 153.948 201.13 155.72 199.831C157.491 198.532 159.027 197.114 160.326 195.579C163.042 192.627 165.522 189.379 167.766 185.836C170.009 182.294 172.253 178.514 174.497 174.499C174.851 174.027 175.206 173.791 175.56 173.791C176.032 173.791 176.268 174.145 176.268 174.854C176.268 175.444 176.15 175.916 175.914 176.271C173.788 180.168 171.486 184.065 169.006 187.962C166.644 191.859 163.75 195.52 160.326 198.945C158.79 200.48 157.019 201.897 155.011 203.196C153.004 204.377 150.76 204.968 148.28 204.968C144.265 204.968 141.43 203.846 139.777 201.602C138.242 199.24 137.474 196.642 137.474 193.808C137.474 191.564 137.887 189.32 138.714 187.076C140.722 181.88 143.497 176.92 147.04 172.196C150.583 167.473 153.535 162.572 155.897 157.494C156.724 155.958 157.137 154.541 157.137 153.242C157.137 151.825 156.724 150.762 155.897 150.054C155.07 149.345 154.185 148.991 153.24 148.991C150.996 148.991 148.516 149.994 145.8 152.002C143.202 153.892 140.663 156.313 138.183 159.265C135.939 161.863 133.636 164.874 131.274 168.299C128.912 171.606 126.668 175.149 124.543 178.928C122.535 182.353 120.468 185.954 118.343 189.734C116.217 193.394 114.505 196.524 113.206 199.122C112.261 201.13 111.257 202.429 110.194 203.019C109.131 203.61 108.127 203.905 107.183 203.905C106.71 203.905 106.238 203.846 105.766 203.728C105.293 203.728 104.88 203.728 104.526 203.728C105.588 199.713 107.537 194.162 110.371 187.076C113.206 179.873 116.63 171.429 120.646 161.745C124.543 152.297 129.148 142.436 134.463 132.162C139.895 121.77 146.036 112.145 152.886 103.288C150.878 102.934 148.457 102.579 145.623 102.225C142.907 101.871 140.308 101.516 137.828 101.162C135.348 100.808 133.459 100.572 132.16 100.454C128.263 102.225 124.188 105.591 119.937 110.551C114.741 116.692 110.253 123.246 106.474 130.214C102.695 137.063 99.2113 144.149 96.0227 151.471C92.8341 158.674 89.5275 165.819 86.1027 172.905C82.796 179.991 78.8399 186.781 74.2341 193.276C70.1008 199.063 65.436 204.259 60.2399 208.865C55.0437 213.471 49.1389 216.955 42.5256 219.316C38.8646 220.615 34.4951 221.265 29.417 221.265C27.4094 221.265 25.5198 221.088 23.7484 220.734C21.977 220.497 20.4417 220.025 19.1427 219.316ZM161.743 99.5678C164.931 99.804 168.651 100.158 172.903 100.631C177.272 100.985 181.642 101.162 186.011 101.162C190.499 101.162 194.927 100.867 199.297 100.276C203.667 99.5678 207.387 98.2688 210.457 96.3793C212.701 94.9621 214.295 93.3678 215.24 91.5964C216.303 89.825 216.834 87.9945 216.834 86.105C216.834 82.7983 215.417 79.8459 212.583 77.2478C209.748 74.5316 206.028 73.1735 201.423 73.1735C199.179 73.1735 196.758 73.4097 194.16 73.8821C191.68 74.3545 189.082 75.2402 186.366 76.5392C181.996 78.5469 177.745 81.6173 173.611 85.7507C169.478 89.7659 165.522 94.3716 161.743 99.5678Z" fill="#020B0D"/>
<path d="M205.539 147.595C207.193 147.596 208.349 148.092 209.008 149.087L209.509 149.996C210.052 151.08 210.322 152.347 210.322 153.793C210.322 155.682 209.967 157.691 209.259 159.817C208.668 161.943 207.957 163.656 207.131 164.955C205.241 167.907 202.762 170.505 199.692 172.748C196.622 174.874 193.669 175.936 190.835 175.936C189.654 175.936 188.474 175.699 187.293 175.226C186.231 174.636 185.287 173.751 184.46 172.571C185.169 170.445 185.994 168.436 186.938 166.547C188 164.659 188.945 163.007 189.771 161.59C192.369 157.457 195.089 154.09 197.923 151.492C200.875 148.894 203.414 147.595 205.539 147.595ZM189.948 188.512C189.948 190.569 190.276 192.103 190.744 193.265C190.902 193.282 191.107 193.295 191.367 193.295C192.638 193.295 193.886 192.996 195.225 192.275C197.217 191.141 198.949 189.821 200.458 188.322C201.469 187.256 202.461 186.154 203.429 185.009C199.959 186.686 196.22 187.63 192.254 187.63C191.482 187.63 190.722 187.586 189.974 187.509C189.962 187.841 189.948 188.175 189.948 188.512ZM219.712 176.645C217.704 180.424 215.636 183.732 213.51 186.566C211.385 189.4 209.142 192.057 206.78 194.536C204.655 196.662 202.231 198.494 199.515 200.029C196.917 201.446 194.201 202.152 191.367 202.152C187.47 202.152 184.754 200.795 183.219 198.078C181.802 195.362 181.091 192.173 181.091 188.512C181.091 186.151 181.328 183.849 181.801 181.605C182.273 179.243 182.865 177.116 183.574 175.226C186.054 177.588 188.947 178.773 192.254 178.773C195.914 178.772 199.455 177.529 202.88 175.049C206.304 172.57 209.138 169.502 211.382 165.842C213.626 162.063 214.751 158.34 214.751 154.679C214.751 151.491 213.863 149.131 212.091 147.595C210.32 146.06 207.9 145.29 204.83 145.29C200.225 145.29 195.973 146.648 192.076 149.364C188.297 152.08 185.049 155.447 182.333 159.463C179.617 163.359 177.434 167.256 175.78 171.152C175.327 172.211 174.911 173.316 174.522 174.461C174.507 174.48 174.49 174.501 174.474 174.521C172.231 178.536 169.988 182.314 167.745 185.857C166.401 187.979 164.968 189.992 163.455 191.903C163.289 190.549 163.2 189.183 163.2 187.807C163.2 184.227 163.649 180.67 164.527 177.155C165.335 173.806 166.365 170.635 167.637 167.667C169.555 163.151 172.048 158.729 175.067 154.398C178.33 149.598 182.279 145.499 186.908 142.172L186.96 142.137L187.012 142.099C192.345 138.382 198.354 136.433 204.83 136.433C209.076 136.433 213.478 137.446 217.164 140.304L217.895 140.901C222.237 144.664 223.608 149.894 223.608 154.679L223.587 155.717C223.432 159.738 222.365 163.598 220.628 167.269C222.409 167.342 224.256 167.921 225.866 169.128C227.483 170.342 228.381 171.822 228.867 172.917C229.747 174.898 229.806 176.796 229.806 177.709C229.805 180.35 228.943 182.598 227.981 184.308C226.03 187.82 223.781 191.356 221.247 194.904L221.16 195.025C218.542 198.56 215.788 201.73 212.887 204.492L212.87 204.509C210.034 207.196 206.903 209.426 203.476 211.139C199.447 213.154 195.035 214.024 190.48 214.024C182.547 214.024 174.685 212.016 169.449 205.859C167.327 203.56 165.785 200.901 164.8 197.992L164.411 196.729C164.248 196.143 164.104 195.553 163.974 194.96C165.848 192.725 167.521 190.402 168.986 187.984C170.215 186.054 171.395 184.12 172.537 182.189C172.228 184.062 172.057 185.934 172.057 187.807L172.113 189.476C172.224 191.137 172.501 192.765 172.943 194.359C173.534 196.485 174.537 198.317 175.953 199.852C178.788 203.394 183.631 205.167 190.48 205.167C193.905 205.167 196.917 204.515 199.515 203.216C202.113 201.917 204.537 200.204 206.78 198.078C209.26 195.717 211.68 192.941 214.042 189.753C216.403 186.447 218.468 183.198 220.239 180.01C220.594 179.389 220.817 178.803 220.905 178.249L220.948 177.709C220.948 176.646 220.712 176.113 220.239 176.113C220.121 176.115 219.946 176.293 219.712 176.645Z" fill="white"/>
<path d="M183.582 175.219C184.043 175.657 184.525 176.046 185.014 176.404C184.86 177.658 184.48 179.092 183.673 180.521L183.678 180.525C182.913 181.926 182.119 183.321 181.312 184.72C181.429 183.667 181.593 182.626 181.809 181.598C182.282 179.236 182.874 177.108 183.582 175.219ZM184.703 171.897C184.84 172.378 184.936 172.832 184.997 173.246C184.818 173.03 184.638 172.805 184.469 172.563C184.544 172.339 184.625 172.118 184.703 171.897ZM34.369 111.048C32.1955 112.684 30.1791 114.507 28.3273 116.536L28.297 116.57L28.2624 116.605C24.9987 120.102 23.2068 124.54 23.2068 130.583L23.2241 131.435C23.2969 133.176 23.5982 134.388 23.9333 135.219C24.392 136.028 24.8012 136.464 25.101 136.706C25.7558 137.052 26.2147 137.135 26.5714 137.135C27.3383 137.134 28.4575 136.922 30.0312 136.058C31.3993 135.204 32.7839 133.894 34.1225 131.88C34.4496 131.318 35.0549 129.99 35.7573 127.482L35.8005 127.326L35.8481 127.17C36.5158 125.083 36.8426 122.983 36.8428 120.839L36.8255 120.091C36.7858 119.363 36.6872 118.683 36.54 118.045L36.4665 117.725L36.4146 117.401C36.3892 117.236 36.359 117.145 36.3454 117.111C36.3331 117.08 36.325 117.067 36.3195 117.059L35.9475 116.527L35.6535 115.943C35.6387 115.914 35.624 115.884 35.6102 115.857C35.6068 115.85 35.6093 115.85 35.6059 115.844L35.6016 115.839V115.835L35.5972 115.826L35.5929 115.822V115.813C35.5865 115.801 35.5862 115.809 35.5799 115.796C35.5751 115.786 35.5805 115.793 35.5756 115.783V115.779L35.5713 115.774C35.5524 115.737 35.573 115.774 35.554 115.736L35.5453 115.727V115.723L35.541 115.718L35.5324 115.701V115.692H35.528L35.4978 115.632C35.4872 115.611 35.4953 115.618 35.4848 115.597C35.4801 115.588 35.4805 115.593 35.4761 115.584L35.4718 115.58V115.576L35.4675 115.571V115.567L35.4632 115.558L35.4588 115.554V115.545L35.4545 115.537L35.4459 115.524L35.4415 115.515L35.4372 115.511L35.4329 115.502V115.498C35.4296 115.491 35.4319 115.496 35.4286 115.489V115.485H35.4242L35.4199 115.476V115.472C35.4158 115.464 35.4148 115.466 35.4113 115.459C35.4071 115.451 35.4022 115.441 35.3983 115.433C35.391 115.418 35.4017 115.435 35.394 115.42L35.3896 115.416V115.411C35.3751 115.382 35.3617 115.355 35.3507 115.333C35.3323 115.296 35.3352 115.307 35.3205 115.277V115.268H35.3161V115.264L35.3118 115.26L35.3075 115.243H35.3032V115.234H35.2988L34.3647 113.361V111.272C34.3647 111.2 34.3671 111.125 34.369 111.048ZM201.409 73.1841C206.015 73.1841 209.737 74.5462 212.571 77.2623C215.405 79.8601 216.823 82.8134 216.823 86.1195C216.822 88.0081 216.289 89.837 215.227 91.6076C214.282 93.3791 212.687 94.9737 210.444 96.3908C207.373 98.2801 203.655 99.5789 199.286 100.287C194.916 100.878 190.487 101.174 186 101.174C181.631 101.174 177.261 100.996 172.892 100.642C168.64 100.17 164.918 99.8187 161.729 99.5825C165.508 94.3863 169.468 89.7801 173.601 85.7649C177.734 81.6316 181.985 78.5607 186.355 76.5531C189.071 75.2542 191.668 74.3657 194.148 73.8933C196.745 73.4211 199.166 73.1842 201.409 73.1841ZM201.409 82.0412C199.794 82.0413 197.927 82.2085 195.787 82.5948C194.187 82.9013 192.322 83.5135 190.173 84.5409L190.052 84.6015C186.818 86.0876 183.409 88.4811 179.863 92.0271L179.816 92.0704L179.772 92.118C179.75 92.14 179.726 92.1608 179.703 92.1828C181.802 92.2693 183.902 92.3169 186 92.3169C190.057 92.3169 194.049 92.0512 197.98 91.5255C201.38 90.9622 203.901 90.005 205.764 88.8657C207.056 88.0411 207.381 87.5005 207.412 87.4429L207.516 87.2439L207.633 87.0536C207.948 86.5286 207.965 86.2564 207.966 86.1195L207.935 85.7519C207.872 85.3959 207.671 84.9045 207.027 84.2209L206.586 83.7884L206.512 83.7236L206.443 83.6544C205.54 82.789 204.155 82.0412 201.409 82.0412ZM174.483 174.514C172.24 178.528 169.997 182.307 167.754 185.849C165.51 189.392 163.031 192.64 160.315 195.593C159.016 197.128 157.48 198.545 155.709 199.844C153.938 201.143 152.047 201.79 150.039 201.79C149.095 201.79 148.266 201.498 147.557 200.908C146.849 200.199 146.497 199.192 146.497 197.893V197.184C146.614 196.95 146.674 196.774 146.675 196.656C147.029 194.295 147.795 191.812 148.976 189.214L151.635 183.725C152.964 181.157 154.389 178.521 155.917 175.82L157.478 173.095C159.604 169.434 161.435 165.771 162.971 162.11C164.387 158.922 165.098 156.028 165.098 153.43C165.098 150.833 164.209 148.886 162.439 147.588C160.667 146.17 157.774 145.637 153.759 145.992C151.161 146.228 148.504 147.29 145.788 149.179C143.072 151.069 140.357 153.374 137.64 156.09C135.751 157.98 133.564 160.636 131.084 164.061C128.722 167.367 126.599 170.438 124.709 173.272C125.654 170.911 126.479 168.783 127.187 166.893C128.014 165.005 128.898 162.939 129.843 160.696C130.906 158.334 132.149 155.441 133.566 152.016C135.456 147.765 137.639 142.981 140.118 137.667C142.598 132.235 145.373 126.625 148.444 120.839C151.632 114.934 155.059 109.266 158.719 103.834C162.734 104.07 166.867 104.362 171.118 104.716C175.369 105.07 179.562 105.248 183.695 105.248C188.773 105.248 193.675 104.838 198.399 104.011C203.123 103.184 207.493 101.59 211.508 99.2279C214.578 97.3384 216.824 95.0923 218.241 92.4942C219.658 89.8967 220.365 87.2985 220.365 84.701C220.365 80.9219 218.948 77.555 216.113 74.6026C213.279 71.6507 209.205 70.1742 203.892 70.174C200.703 70.174 197.395 70.6478 193.971 71.5926C190.546 72.5373 187.297 73.7767 184.227 75.3119C179.031 78.0279 174.073 81.4545 169.35 85.5875C164.744 89.6028 160.375 94.0906 156.241 99.0506C146.321 97.9877 136.576 96.5115 127.01 94.622C117.445 92.6145 107.999 90.4866 98.6698 88.243C93.3555 86.9439 88.0978 85.9415 82.9016 85.2329C77.7062 84.5244 72.5699 84.1691 67.4925 84.169C61.3518 84.169 55.2688 84.8206 49.2462 86.1195C43.3418 87.4185 37.4363 89.6606 31.5319 92.8488C27.9892 94.7383 24.4444 97.3356 20.9016 100.642C17.3588 103.949 14.5841 107.789 12.5765 112.159C11.3957 114.639 10.4522 117.236 9.74372 119.952C9.1533 122.55 8.85719 125.148 8.85714 127.745C8.85714 131.643 9.68191 135.246 11.3352 138.553C13.1064 141.859 15.8231 144.398 19.4831 146.169C21.9631 147.232 24.5645 147.765 27.2807 147.765C30.7045 147.765 34.0097 146.994 37.1974 145.46C40.386 143.806 42.9281 141.387 44.8177 138.198C46.1167 136.191 47.0599 134.004 47.6504 131.642C48.2407 129.163 48.5369 126.742 48.537 124.381C48.537 123.672 48.4777 122.962 48.3597 122.253C48.3596 121.545 48.3003 120.837 48.1823 120.13C47.9461 118.712 47.4724 117.177 46.7638 115.524C46.1736 113.753 45.5851 112.454 44.995 111.627C44.6408 111.037 44.226 110.741 43.7538 110.74C43.3995 110.74 43.2218 110.918 43.2218 111.272C43.2269 111.283 43.3455 111.52 43.5764 111.982C44.4021 113.161 44.9315 114.518 45.168 116.051L45.1723 116.056C45.5264 117.59 45.6999 119.186 45.6999 120.839C45.6998 123.909 45.2303 126.921 44.2857 129.873C43.4591 132.825 42.5706 135.068 41.626 136.603C39.6184 139.673 37.2581 142.038 34.542 143.691C31.8264 145.226 29.169 145.992 26.5714 145.992C24.4457 145.992 22.3773 145.4 20.3697 144.219C18.5992 143.038 17.1217 141.328 15.9411 139.085C14.8785 136.724 14.3498 133.888 14.3496 130.583C14.3496 122.552 16.8282 115.877 21.7882 110.563C26.7482 105.131 32.6531 100.88 39.5025 97.8094C42.9122 96.2595 47.3162 95.116 52.7147 94.3798L55.089 94.0901C61.5842 93.2634 68.0812 92.8488 74.5764 92.8488C78.2373 92.8488 81.7228 92.9673 85.0294 93.2035C88.3354 93.3216 91.2889 93.6178 93.8866 94.0901L127.01 99.9328C121.223 102.885 115.911 107.14 111.069 112.691C106.346 118.123 101.916 124.321 97.7832 131.287C93.6499 138.137 89.75 145.285 86.089 152.725C82.5465 160.046 79.0055 167.192 75.463 174.159C72.0384 181.008 68.5528 187.15 65.01 192.583C61.3496 198.132 57.3936 203.091 53.1429 207.46C49.0101 211.829 44.8173 214.722 40.5664 216.14C37.7323 217.202 34.4834 217.735 30.8227 217.735C29.0513 217.735 27.279 217.558 25.5075 217.203C24.2389 216.841 22.8675 216.163 21.3903 215.175L20.0151 214.193C18.0078 212.658 17.1831 211.004 17.537 209.233C17.7731 208.643 17.5954 208.346 17.005 208.346C16.5326 208.464 16.1181 208.761 15.7638 209.233C15.0559 210.059 14.6999 211.122 14.6999 212.42C14.6999 213.719 15.0556 215.018 15.7638 216.317C16.59 217.615 17.7125 218.618 19.1285 219.327C20.4271 220.035 21.9638 220.509 23.7344 220.745C25.5056 221.1 27.3968 221.277 29.4042 221.277C34.4822 221.277 38.8516 220.626 42.5126 219.327C49.1255 216.965 55.0308 213.484 60.2268 208.878C65.423 204.273 70.0885 199.074 74.2218 193.287C78.8271 186.793 82.7826 180.003 86.089 172.918C89.5136 165.832 92.8216 158.688 96.01 151.484C99.1985 144.163 102.684 137.077 106.463 130.228C110.242 123.26 114.73 116.704 119.926 110.563C124.177 105.604 128.251 102.236 132.148 100.465C133.447 100.583 135.338 100.82 137.818 101.174C140.297 101.528 142.895 101.884 145.611 102.238C148.445 102.592 150.865 102.948 152.872 103.302C146.023 112.159 139.881 121.782 134.449 132.174C129.135 142.447 124.532 152.309 120.635 161.756C116.62 171.439 113.194 179.886 110.36 187.09C107.526 194.175 105.575 199.725 104.513 203.74H105.754C106.226 203.858 106.7 203.918 107.172 203.918C108.117 203.917 109.12 203.621 110.182 203.031C111.245 202.441 112.248 201.142 113.192 199.135C114.491 196.536 116.204 193.406 118.33 189.745C120.456 185.967 122.525 182.367 124.532 178.942C126.658 175.163 128.899 171.618 131.261 168.312C133.623 164.887 135.928 161.876 138.172 159.277C140.652 156.326 143.191 153.905 145.788 152.016C148.504 150.009 150.983 149.002 153.227 149.002C154.172 149.002 155.06 149.357 155.887 150.066C156.712 150.774 157.123 151.837 157.123 153.253C157.123 154.551 156.712 155.97 155.887 157.504C153.525 162.582 150.572 167.485 147.029 172.209L145.736 173.99C142.804 178.176 140.457 182.543 138.7 187.09C137.874 189.333 137.463 191.576 137.463 193.819L137.498 194.87C137.665 197.299 138.421 199.546 139.764 201.613C141.417 203.856 144.252 204.981 148.266 204.982C150.746 204.982 152.992 204.389 155 203.209C157.007 201.91 158.78 200.492 160.315 198.957C163.739 195.533 166.633 191.873 168.995 187.977C170.223 186.046 171.404 184.112 172.546 182.181C172.236 184.054 172.066 185.926 172.066 187.799C172.066 190.042 172.362 192.226 172.952 194.351C173.181 195.176 173.477 195.955 173.83 196.691C171.681 199.686 169.265 202.532 166.577 205.22C164.559 207.238 162.288 209.043 159.809 210.647L159.653 210.747L159.489 210.842C156.032 212.876 152.219 213.839 148.266 213.839C142.748 213.839 136.604 212.257 132.632 206.867L132.481 206.66L132.338 206.443C129.863 202.635 128.606 198.356 128.606 193.819C128.606 192.105 128.767 190.411 129.082 188.742C128.085 190.48 127.076 192.263 126.05 194.088L126.02 194.139L125.989 194.196C123.919 197.761 122.304 200.719 121.115 203.096L121.111 203.092C119.931 205.555 117.949 208.847 114.485 210.773C112.476 211.889 109.993 212.775 107.172 212.775C106.421 212.775 105.678 212.71 104.949 212.598H93.0086L95.9495 201.474C97.1508 196.936 99.2568 190.992 102.134 183.799C104.99 176.541 108.432 168.061 112.453 158.365C116.457 148.659 121.169 138.57 126.582 128.104L126.599 128.07C129.878 121.797 133.42 115.788 137.208 110.031L136.563 109.945C135.56 109.801 134.68 109.68 133.917 109.581C131.922 110.88 129.49 113.016 126.651 116.328C121.856 122 117.724 128.039 114.248 134.449L114.235 134.475L114.217 134.505C110.575 141.107 107.212 147.944 104.132 155.018L104.11 155.069C100.898 162.326 97.5603 169.52 94.1115 176.659L94.1158 176.663C90.5801 184.24 86.3562 191.491 81.4485 198.412L81.4312 198.438C76.9207 204.753 71.8099 210.446 66.1042 215.504C60.0512 220.869 53.1591 224.931 45.4923 227.669L45.475 227.678C40.6216 229.4 35.1981 230.135 29.4042 230.135C27.0175 230.135 24.6788 229.926 22.4023 229.499C19.9273 229.153 17.4696 228.451 15.1713 227.246V227.25C15.1376 227.233 15.1054 227.211 15.0718 227.194C15.0122 227.162 14.9497 227.135 14.8902 227.103V227.099C12.5536 225.879 10.5392 224.191 8.96526 222.056L8.2906 221.074L8.13058 220.819L7.98786 220.56C6.83461 218.445 6.05806 216.079 5.8817 213.527L5.84277 212.42L5.88602 211.292C6.08161 208.634 6.99186 205.856 9.03878 203.468C10.3468 201.889 12.262 200.402 14.8556 199.753L15.9152 199.489H17.005C18.1481 199.489 22.5904 199.704 25.1745 204.009C25.9866 205.362 26.34 206.699 26.4503 207.901C27.0351 208.282 27.4483 208.491 27.7002 208.597C28.7547 208.782 29.7935 208.878 30.8227 208.878C33.6373 208.878 35.8012 208.47 37.4569 207.849L37.6083 207.788L37.7639 207.737C40.2398 206.911 43.248 205.032 46.7076 201.375L46.7508 201.327L46.7941 201.284C50.6237 197.348 54.2375 192.831 57.619 187.704C60.9395 182.609 64.2486 176.78 67.54 170.197L67.566 170.141C71.0812 163.228 74.6001 156.135 78.1184 148.863L78.1444 148.811C81.9128 141.153 85.9291 133.785 90.1975 126.712C94.5596 119.366 99.2829 112.743 104.383 106.878L104.391 106.865C104.887 106.297 105.398 105.748 105.905 105.2L92.347 102.813L92.2994 102.804C90.7324 102.52 88.9261 102.301 86.8631 102.164L84.7137 102.056L84.5537 102.048L84.398 102.039C81.3217 101.819 78.0482 101.706 74.5764 101.706C68.4583 101.706 62.3363 102.094 56.2091 102.874L56.1313 102.887L56.0491 102.895C53.6532 103.157 51.5497 103.491 49.7133 103.873C50.8088 104.698 51.6301 105.652 52.2001 106.476C53.4721 108.257 54.3523 110.378 55.0155 112.302C55.8819 114.368 56.5563 116.5 56.9184 118.672C57.076 119.618 57.1674 120.572 57.1995 121.531C57.3244 122.475 57.3941 123.425 57.3941 124.381L57.3768 125.544C57.2924 128.262 56.9111 130.984 56.2653 133.696L56.2567 133.744L56.2437 133.792C55.4497 136.968 54.1743 139.95 52.4336 142.709C49.7279 147.275 45.9836 150.881 41.2757 153.322L41.1589 153.383L41.0421 153.439C36.6965 155.531 32.0802 156.622 27.2807 156.622C23.8619 156.622 20.5339 156.032 17.351 154.853L15.9973 154.308L15.8114 154.23L15.6254 154.144C10.7549 151.787 6.78357 148.3 4.05664 143.674L3.52902 142.735L3.46847 142.623L3.41225 142.515C1.11066 137.911 0 132.941 0 127.745C5.22442e-05 124.47 0.374086 121.214 1.10714 117.989L1.13742 117.85L1.17201 117.716C2.01862 114.471 3.15338 111.345 4.57994 108.349H4.58426C7.07297 102.97 10.5116 98.2264 14.8599 94.1679C18.8544 90.4398 23.0163 87.3522 27.3629 85.034C33.9008 81.5078 40.5652 78.9568 47.3433 77.4656L47.3779 77.4613C54.0124 76.0303 60.7217 75.3119 67.4925 75.3119C72.2961 75.312 77.1346 75.6069 82.0064 76.1898L84.0996 76.4579C89.6008 77.2081 95.1454 78.2679 100.733 79.6323H100.737C109.955 81.8493 119.293 83.9483 128.749 85.9335C136.571 87.4781 144.521 88.7356 152.6 89.7134C156.074 85.8352 159.712 82.235 163.515 78.9187L165.488 77.245C170.12 73.4136 174.996 70.1422 180.123 67.4624L180.196 67.4235L180.265 67.3889C183.867 65.5882 187.655 64.1476 191.614 63.0555C195.719 61.9229 199.822 61.3169 203.892 61.3169C210.861 61.3171 217.537 63.2999 222.501 68.4701C226.775 72.9218 229.222 78.4355 229.222 84.701L229.166 86.2925C228.912 89.9817 227.786 93.4853 226.013 96.7368C223.711 100.956 220.247 104.248 216.148 106.77L216.074 106.814L215.997 106.861C211.04 109.776 205.663 111.73 199.926 112.734C194.669 113.654 189.255 114.105 183.695 114.105C179.309 114.105 174.871 113.917 170.383 113.543C167.983 113.343 165.623 113.168 163.304 113.007C160.832 116.895 158.472 120.907 156.237 125.047C153.943 129.372 151.823 133.582 149.879 137.679C150.884 137.441 151.911 137.264 152.959 137.169H152.98L154.784 137.052C158.982 136.889 163.781 137.49 167.672 140.443H167.676C167.726 140.48 167.773 140.523 167.823 140.56C167.871 140.597 167.922 140.63 167.97 140.668H167.966C172.231 143.948 173.955 148.703 173.955 153.43L173.899 155C173.662 158.588 172.631 162.126 171.136 165.531L171.14 165.535C171.054 165.74 170.955 165.941 170.868 166.145C172.111 165.458 173.666 164.947 175.547 164.947C176.543 164.947 177.576 165.11 178.583 165.445C177.525 167.344 176.595 169.245 175.789 171.145C175.336 172.203 174.92 173.309 174.531 174.453C174.516 174.472 174.498 174.493 174.483 174.514Z" fill="white"/>
</svg>
