<svg width="384" height="84" viewBox="0 0 384 84" fill="none" xmlns="http://www.w3.org/2000/svg">
<g filter="url(#filter0_d_1439_9504)">
<path d="M113.101 11.4008L87.6008 78.0008H64.7008L39.8008 11.4008H65.3008L78.0008 50.7008L91.1008 11.4008H113.101Z" fill="black"/>
<path d="M138.545 78.0008H114.745V11.4008H138.545V78.0008Z" fill="black"/>
<path d="M206.099 57.3008C206.099 69.8008 192.799 79.6008 174.899 79.6008C160.499 79.6008 149.499 74.5008 140.499 67.3008L151.599 54.5008C158.899 60.4008 168.399 64.1008 175.399 64.1008C181.299 64.1008 183.199 61.9008 183.199 59.1008C183.199 50.3008 144.899 54.1008 144.899 31.4008C144.899 19.9008 156.599 9.80078 175.099 9.80078C188.799 9.80078 198.999 15.2008 206.299 22.3008L193.699 33.1008C187.799 28.3008 180.999 25.3008 174.799 25.3008C169.899 25.3008 167.299 27.1008 167.299 29.7008C167.299 38.6008 206.099 35.7008 206.099 57.3008Z" fill="black"/>
<path d="M234.94 78.0008H211.14V11.4008H234.94V78.0008Z" fill="black"/>
<path d="M306.994 50.3008C306.994 68.4008 293.194 79.6008 273.594 79.6008C253.894 79.6008 240.094 68.4008 240.094 50.3008V39.0008C240.094 20.9008 253.894 9.80078 273.594 9.80078C293.194 9.80078 306.994 20.9008 306.994 39.0008V50.3008ZM282.594 52.9008V36.4008C282.594 29.9008 279.094 26.9008 273.594 26.9008C267.994 26.9008 264.494 29.9008 264.494 36.4008V52.9008C264.494 59.4008 267.994 62.4008 273.594 62.4008C279.094 62.4008 282.594 59.4008 282.594 52.9008Z" fill="black"/>
<path d="M377.52 78.0008H357.62L338.62 53.4008L334.02 47.4008V78.0008H312.32V11.4008H332.62L351.42 36.4008L355.82 42.2008V11.4008H377.52V78.0008Z" fill="black"/>
</g>
<mask id="path-2-outside-1_1439_9504" maskUnits="userSpaceOnUse" x="0" y="23.8398" width="53" height="39" fill="black">
<rect fill="white" y="23.8398" width="53" height="39"/>
<path d="M4.32 59.5198C4 59.3598 3.74667 59.1332 3.56 58.8398C3.4 58.5465 3.32 58.2532 3.32 57.9598C3.32 57.6665 3.4 57.4265 3.56 57.2398C3.64 57.1332 3.73333 57.0665 3.84 57.0398C3.97333 57.0398 4.01333 57.1065 3.96 57.2398C3.88 57.6398 4.06667 58.0132 4.52 58.3598C4.97333 58.7065 5.38667 58.9332 5.76 59.0398C6.16 59.1198 6.56 59.1598 6.96 59.1598C7.78667 59.1598 8.52 59.0398 9.16 58.7998C10.12 58.4798 11.0667 57.8265 12 56.8398C12.96 55.8532 13.8533 54.7332 14.68 53.4798C15.48 52.2532 16.2667 50.8665 17.04 49.3198C17.84 47.7465 18.64 46.1332 19.44 44.4798C20.2667 42.7998 21.1467 41.1865 22.08 39.6398C23.0133 38.0665 24.0133 36.6665 25.08 35.4398C26.1733 34.1865 27.3733 33.2265 28.68 32.5598L21.2 31.2398C20.6133 31.1332 19.9467 31.0665 19.2 31.0398C18.4533 30.9865 17.6667 30.9598 16.84 30.9598C15.3733 30.9598 13.9067 31.0532 12.44 31.2398C10.9733 31.3998 9.8 31.6798 8.92 32.0798C7.37333 32.7732 6.04 33.7332 4.92 34.9598C3.8 36.1598 3.24 37.6665 3.24 39.4798C3.24 40.2265 3.36 40.8665 3.6 41.3998C3.86667 41.9065 4.2 42.2932 4.6 42.5598C5.05333 42.8265 5.52 42.9598 6 42.9598C6.58667 42.9598 7.18667 42.7865 7.8 42.4398C8.41333 42.0665 8.94667 41.5332 9.4 40.8398C9.61333 40.4932 9.81333 39.9865 10 39.3198C10.2133 38.6532 10.32 37.9732 10.32 37.2798C10.32 36.9065 10.28 36.5465 10.2 36.1998C10.1467 35.8532 10.0267 35.5465 9.84 35.2798C9.78667 35.1732 9.76 35.1198 9.76 35.1198C9.76 35.0398 9.8 34.9998 9.88 34.9998C9.98667 34.9998 10.08 35.0665 10.16 35.1998C10.2933 35.3865 10.4267 35.6798 10.56 36.0798C10.72 36.4532 10.8267 36.7998 10.88 37.1198C10.9067 37.2798 10.92 37.4398 10.92 37.5998C10.9467 37.7598 10.96 37.9198 10.96 38.0798C10.96 38.6132 10.8933 39.1598 10.76 39.7198C10.6267 40.2532 10.4133 40.7465 10.12 41.1998C9.69333 41.9198 9.12 42.4665 8.4 42.8398C7.68 43.1865 6.93333 43.3598 6.16 43.3598C5.54667 43.3598 4.96 43.2398 4.4 42.9998C3.57333 42.5998 2.96 42.0265 2.56 41.2798C2.18667 40.5332 2 39.7198 2 38.8398C2 38.2532 2.06667 37.6665 2.2 37.0798C2.36 36.4665 2.57333 35.8798 2.84 35.3198C3.29333 34.3332 3.92 33.4665 4.72 32.7198C5.52 31.9732 6.32 31.3865 7.12 30.9598C8.45333 30.2398 9.78667 29.7332 11.12 29.4398C12.48 29.1465 13.8533 28.9998 15.24 28.9998C16.3867 28.9998 17.5467 29.0798 18.72 29.2398C19.8933 29.3998 21.08 29.6265 22.28 29.9198C24.3867 30.4265 26.52 30.9065 28.68 31.3598C30.84 31.7865 33.04 32.1198 35.28 32.3598C36.2133 31.2398 37.2 30.2265 38.24 29.3198C39.3067 28.3865 40.4267 27.6132 41.6 26.9998C42.2933 26.6532 43.0267 26.3732 43.8 26.1598C44.5733 25.9465 45.32 25.8398 46.04 25.8398C47.24 25.8398 48.16 26.1732 48.8 26.8398C49.44 27.5065 49.76 28.2665 49.76 29.1198C49.76 29.7065 49.6 30.2932 49.28 30.8798C48.96 31.4665 48.4533 31.9732 47.76 32.3998C46.8533 32.9332 45.8667 33.2932 44.8 33.4798C43.7333 33.6665 42.6267 33.7598 41.48 33.7598C40.5467 33.7598 39.6 33.7198 38.64 33.6398C37.68 33.5598 36.7467 33.4932 35.84 33.4398C35.0133 34.6665 34.24 35.9465 33.52 37.2798C32.8267 38.5865 32.2 39.8532 31.64 41.0798C31.08 42.2798 30.5867 43.3598 30.16 44.3198C29.84 45.0932 29.56 45.7465 29.32 46.2798C29.1067 46.7865 28.9067 47.2532 28.72 47.6798C28.56 48.1065 28.3733 48.5865 28.16 49.1198C28.5867 48.4798 29.0667 47.7865 29.6 47.0398C30.16 46.2665 30.6533 45.6665 31.08 45.2398C31.6933 44.6265 32.3067 44.1065 32.92 43.6798C33.5333 43.2532 34.1333 43.0132 34.72 42.9598C35.6267 42.8798 36.28 42.9998 36.68 43.3198C37.08 43.6132 37.28 44.0532 37.28 44.6398C37.28 45.2265 37.12 45.8798 36.8 46.5998C36.4533 47.4265 36.04 48.2532 35.56 49.0798C35.08 49.9065 34.64 50.7065 34.24 51.4798C34.1333 51.6932 33.9333 52.1065 33.64 52.7198C33.3733 53.3065 33.2 53.8665 33.12 54.3998C33.12 54.4265 33.1067 54.4665 33.08 54.5198C33.08 54.5732 33.08 54.6265 33.08 54.6798C33.08 54.9732 33.16 55.1998 33.32 55.3598C33.48 55.4932 33.6667 55.5598 33.88 55.5598C34.3333 55.5598 34.76 55.4132 35.16 55.1198C35.56 54.8265 35.9067 54.5065 36.2 54.1598C36.8133 53.4932 37.3733 52.7598 37.88 51.9598C38.3867 51.1598 38.8933 50.3065 39.4 49.3998C39.48 49.2932 39.56 49.2398 39.64 49.2398C39.7467 49.2398 39.8 49.3198 39.8 49.4798C39.8 49.6132 39.7733 49.7198 39.72 49.7998C39.24 50.6798 38.72 51.5598 38.16 52.4398C37.6267 53.3198 36.9733 54.1465 36.2 54.9198C35.8533 55.2665 35.4533 55.5865 35 55.8798C34.5467 56.1465 34.04 56.2798 33.48 56.2798C32.5733 56.2798 31.9333 56.0265 31.56 55.5198C31.2133 54.9865 31.04 54.3998 31.04 53.7598C31.04 53.2532 31.1333 52.7465 31.32 52.2398C31.7733 51.0665 32.4 49.9465 33.2 48.8798C34 47.8132 34.6667 46.7065 35.2 45.5598C35.3867 45.2132 35.48 44.8932 35.48 44.5998C35.48 44.2798 35.3867 44.0398 35.2 43.8798C35.0133 43.7198 34.8133 43.6398 34.6 43.6398C34.0933 43.6398 33.5333 43.8665 32.92 44.3198C32.3333 44.7465 31.76 45.2932 31.2 45.9598C30.6933 46.5465 30.1733 47.2265 29.64 47.9998C29.1067 48.7465 28.6 49.5465 28.12 50.3998C27.6667 51.1732 27.2 51.9865 26.72 52.8398C26.24 53.6665 25.8533 54.3732 25.56 54.9598C25.3467 55.4132 25.12 55.7065 24.88 55.8398C24.64 55.9732 24.4133 56.0398 24.2 56.0398C24.0933 56.0398 23.9867 56.0265 23.88 55.9998C23.7733 55.9998 23.68 55.9998 23.6 55.9998C23.84 55.0932 24.28 53.8398 24.92 52.2398C25.56 50.6132 26.3333 48.7065 27.24 46.5198C28.12 44.3865 29.16 42.1598 30.36 39.8398C31.5867 37.4932 32.9733 35.3198 34.52 33.3198C34.0667 33.2398 33.52 33.1598 32.88 33.0798C32.2667 32.9998 31.68 32.9198 31.12 32.8398C30.56 32.7598 30.1333 32.7065 29.84 32.6798C28.96 33.0798 28.04 33.8398 27.08 34.9598C25.9067 36.3465 24.8933 37.8265 24.04 39.3998C23.1867 40.9465 22.4 42.5465 21.68 44.1998C20.96 45.8265 20.2133 47.4398 19.44 49.0398C18.6933 50.6398 17.8 52.1732 16.76 53.6398C15.8267 54.9465 14.7733 56.1198 13.6 57.1598C12.4267 58.1998 11.0933 58.9865 9.6 59.5198C8.77333 59.8132 7.78667 59.9598 6.64 59.9598C6.18667 59.9598 5.76 59.9198 5.36 59.8398C4.96 59.7865 4.61333 59.6798 4.32 59.5198ZM36.52 32.4798C37.24 32.5332 38.08 32.6132 39.04 32.7198C40.0267 32.7998 41.0133 32.8398 42 32.8398C43.0133 32.8398 44.0133 32.7732 45 32.6398C45.9867 32.4798 46.8267 32.1865 47.52 31.7598C48.0267 31.4398 48.3867 31.0798 48.6 30.6798C48.84 30.2798 48.96 29.8665 48.96 29.4398C48.96 28.6932 48.64 28.0265 48 27.4398C47.36 26.8265 46.52 26.5198 45.48 26.5198C44.9733 26.5198 44.4267 26.5732 43.84 26.6798C43.28 26.7865 42.6933 26.9865 42.08 27.2798C41.0933 27.7332 40.1333 28.4265 39.2 29.3598C38.2667 30.2665 37.3733 31.3065 36.52 32.4798Z"/>
<path d="M43.4141 56.3198C41.8674 56.3198 40.7741 55.9198 40.1341 55.1198C39.8141 54.7732 39.5874 54.3598 39.4541 53.8798C39.3207 53.3998 39.2541 52.9065 39.2541 52.3998C39.2541 51.7598 39.3341 51.1198 39.4941 50.4798C39.6541 49.8132 39.8541 49.1998 40.0941 48.6398C40.4674 47.7598 40.9607 46.8798 41.5741 45.9998C42.1874 45.0932 42.9207 44.3332 43.7741 43.7198C44.6541 43.1065 45.6141 42.7998 46.6541 42.7998C47.3474 42.7998 47.8941 42.9732 48.2941 43.3198C48.6941 43.6665 48.8941 44.1998 48.8941 44.9198C48.8941 45.7465 48.6407 46.5865 48.1341 47.4398C47.6274 48.2665 46.9874 48.9598 46.2141 49.5198C45.4407 50.0798 44.6407 50.3598 43.8141 50.3598C43.0674 50.3598 42.4141 50.0932 41.8541 49.5598C41.6941 49.9865 41.5607 50.4665 41.4541 50.9998C41.3474 51.5065 41.2941 52.0265 41.2941 52.5598C41.2941 53.3865 41.4541 54.1065 41.7741 54.7198C42.1207 55.3332 42.7341 55.6398 43.6141 55.6398C44.2541 55.6398 44.8674 55.4798 45.4541 55.1598C46.0674 54.8132 46.6141 54.3998 47.0941 53.9198C47.6274 53.3598 48.1341 52.7598 48.6141 52.1198C49.0941 51.4798 49.5607 50.7332 50.0141 49.8798C50.0674 49.7998 50.1074 49.7598 50.1341 49.7598C50.2407 49.7598 50.2941 49.8798 50.2941 50.1198C50.2941 50.2798 50.2407 50.4532 50.1341 50.6398C49.7341 51.3598 49.2674 52.0932 48.7341 52.8398C48.2007 53.5598 47.6541 54.1865 47.0941 54.7198C46.5874 55.1998 46.0407 55.5865 45.4541 55.8798C44.8674 56.1732 44.1874 56.3198 43.4141 56.3198ZM42.0541 48.9598C42.2407 49.2265 42.4541 49.4265 42.6941 49.5598C42.9607 49.6665 43.2274 49.7198 43.4941 49.7198C44.1341 49.7198 44.8007 49.4798 45.4941 48.9998C46.1874 48.4932 46.7474 47.9065 47.1741 47.2398C47.3607 46.9465 47.5207 46.5598 47.6541 46.0798C47.8141 45.5998 47.8941 45.1465 47.8941 44.7198C47.8941 44.3465 47.8141 44.0265 47.6541 43.7598C47.5207 43.4665 47.2407 43.3198 46.8141 43.3198C46.3341 43.3198 45.7607 43.6132 45.0941 44.1998C44.4541 44.7865 43.8407 45.5465 43.2541 46.4798C43.0674 46.7998 42.8541 47.1732 42.6141 47.5998C42.4007 48.0265 42.2141 48.4798 42.0541 48.9598Z"/>
</mask>
<path d="M4.32 59.5198C4 59.3598 3.74667 59.1332 3.56 58.8398C3.4 58.5465 3.32 58.2532 3.32 57.9598C3.32 57.6665 3.4 57.4265 3.56 57.2398C3.64 57.1332 3.73333 57.0665 3.84 57.0398C3.97333 57.0398 4.01333 57.1065 3.96 57.2398C3.88 57.6398 4.06667 58.0132 4.52 58.3598C4.97333 58.7065 5.38667 58.9332 5.76 59.0398C6.16 59.1198 6.56 59.1598 6.96 59.1598C7.78667 59.1598 8.52 59.0398 9.16 58.7998C10.12 58.4798 11.0667 57.8265 12 56.8398C12.96 55.8532 13.8533 54.7332 14.68 53.4798C15.48 52.2532 16.2667 50.8665 17.04 49.3198C17.84 47.7465 18.64 46.1332 19.44 44.4798C20.2667 42.7998 21.1467 41.1865 22.08 39.6398C23.0133 38.0665 24.0133 36.6665 25.08 35.4398C26.1733 34.1865 27.3733 33.2265 28.68 32.5598L21.2 31.2398C20.6133 31.1332 19.9467 31.0665 19.2 31.0398C18.4533 30.9865 17.6667 30.9598 16.84 30.9598C15.3733 30.9598 13.9067 31.0532 12.44 31.2398C10.9733 31.3998 9.8 31.6798 8.92 32.0798C7.37333 32.7732 6.04 33.7332 4.92 34.9598C3.8 36.1598 3.24 37.6665 3.24 39.4798C3.24 40.2265 3.36 40.8665 3.6 41.3998C3.86667 41.9065 4.2 42.2932 4.6 42.5598C5.05333 42.8265 5.52 42.9598 6 42.9598C6.58667 42.9598 7.18667 42.7865 7.8 42.4398C8.41333 42.0665 8.94667 41.5332 9.4 40.8398C9.61333 40.4932 9.81333 39.9865 10 39.3198C10.2133 38.6532 10.32 37.9732 10.32 37.2798C10.32 36.9065 10.28 36.5465 10.2 36.1998C10.1467 35.8532 10.0267 35.5465 9.84 35.2798C9.78667 35.1732 9.76 35.1198 9.76 35.1198C9.76 35.0398 9.8 34.9998 9.88 34.9998C9.98667 34.9998 10.08 35.0665 10.16 35.1998C10.2933 35.3865 10.4267 35.6798 10.56 36.0798C10.72 36.4532 10.8267 36.7998 10.88 37.1198C10.9067 37.2798 10.92 37.4398 10.92 37.5998C10.9467 37.7598 10.96 37.9198 10.96 38.0798C10.96 38.6132 10.8933 39.1598 10.76 39.7198C10.6267 40.2532 10.4133 40.7465 10.12 41.1998C9.69333 41.9198 9.12 42.4665 8.4 42.8398C7.68 43.1865 6.93333 43.3598 6.16 43.3598C5.54667 43.3598 4.96 43.2398 4.4 42.9998C3.57333 42.5998 2.96 42.0265 2.56 41.2798C2.18667 40.5332 2 39.7198 2 38.8398C2 38.2532 2.06667 37.6665 2.2 37.0798C2.36 36.4665 2.57333 35.8798 2.84 35.3198C3.29333 34.3332 3.92 33.4665 4.72 32.7198C5.52 31.9732 6.32 31.3865 7.12 30.9598C8.45333 30.2398 9.78667 29.7332 11.12 29.4398C12.48 29.1465 13.8533 28.9998 15.24 28.9998C16.3867 28.9998 17.5467 29.0798 18.72 29.2398C19.8933 29.3998 21.08 29.6265 22.28 29.9198C24.3867 30.4265 26.52 30.9065 28.68 31.3598C30.84 31.7865 33.04 32.1198 35.28 32.3598C36.2133 31.2398 37.2 30.2265 38.24 29.3198C39.3067 28.3865 40.4267 27.6132 41.6 26.9998C42.2933 26.6532 43.0267 26.3732 43.8 26.1598C44.5733 25.9465 45.32 25.8398 46.04 25.8398C47.24 25.8398 48.16 26.1732 48.8 26.8398C49.44 27.5065 49.76 28.2665 49.76 29.1198C49.76 29.7065 49.6 30.2932 49.28 30.8798C48.96 31.4665 48.4533 31.9732 47.76 32.3998C46.8533 32.9332 45.8667 33.2932 44.8 33.4798C43.7333 33.6665 42.6267 33.7598 41.48 33.7598C40.5467 33.7598 39.6 33.7198 38.64 33.6398C37.68 33.5598 36.7467 33.4932 35.84 33.4398C35.0133 34.6665 34.24 35.9465 33.52 37.2798C32.8267 38.5865 32.2 39.8532 31.64 41.0798C31.08 42.2798 30.5867 43.3598 30.16 44.3198C29.84 45.0932 29.56 45.7465 29.32 46.2798C29.1067 46.7865 28.9067 47.2532 28.72 47.6798C28.56 48.1065 28.3733 48.5865 28.16 49.1198C28.5867 48.4798 29.0667 47.7865 29.6 47.0398C30.16 46.2665 30.6533 45.6665 31.08 45.2398C31.6933 44.6265 32.3067 44.1065 32.92 43.6798C33.5333 43.2532 34.1333 43.0132 34.72 42.9598C35.6267 42.8798 36.28 42.9998 36.68 43.3198C37.08 43.6132 37.28 44.0532 37.28 44.6398C37.28 45.2265 37.12 45.8798 36.8 46.5998C36.4533 47.4265 36.04 48.2532 35.56 49.0798C35.08 49.9065 34.64 50.7065 34.24 51.4798C34.1333 51.6932 33.9333 52.1065 33.64 52.7198C33.3733 53.3065 33.2 53.8665 33.12 54.3998C33.12 54.4265 33.1067 54.4665 33.08 54.5198C33.08 54.5732 33.08 54.6265 33.08 54.6798C33.08 54.9732 33.16 55.1998 33.32 55.3598C33.48 55.4932 33.6667 55.5598 33.88 55.5598C34.3333 55.5598 34.76 55.4132 35.16 55.1198C35.56 54.8265 35.9067 54.5065 36.2 54.1598C36.8133 53.4932 37.3733 52.7598 37.88 51.9598C38.3867 51.1598 38.8933 50.3065 39.4 49.3998C39.48 49.2932 39.56 49.2398 39.64 49.2398C39.7467 49.2398 39.8 49.3198 39.8 49.4798C39.8 49.6132 39.7733 49.7198 39.72 49.7998C39.24 50.6798 38.72 51.5598 38.16 52.4398C37.6267 53.3198 36.9733 54.1465 36.2 54.9198C35.8533 55.2665 35.4533 55.5865 35 55.8798C34.5467 56.1465 34.04 56.2798 33.48 56.2798C32.5733 56.2798 31.9333 56.0265 31.56 55.5198C31.2133 54.9865 31.04 54.3998 31.04 53.7598C31.04 53.2532 31.1333 52.7465 31.32 52.2398C31.7733 51.0665 32.4 49.9465 33.2 48.8798C34 47.8132 34.6667 46.7065 35.2 45.5598C35.3867 45.2132 35.48 44.8932 35.48 44.5998C35.48 44.2798 35.3867 44.0398 35.2 43.8798C35.0133 43.7198 34.8133 43.6398 34.6 43.6398C34.0933 43.6398 33.5333 43.8665 32.92 44.3198C32.3333 44.7465 31.76 45.2932 31.2 45.9598C30.6933 46.5465 30.1733 47.2265 29.64 47.9998C29.1067 48.7465 28.6 49.5465 28.12 50.3998C27.6667 51.1732 27.2 51.9865 26.72 52.8398C26.24 53.6665 25.8533 54.3732 25.56 54.9598C25.3467 55.4132 25.12 55.7065 24.88 55.8398C24.64 55.9732 24.4133 56.0398 24.2 56.0398C24.0933 56.0398 23.9867 56.0265 23.88 55.9998C23.7733 55.9998 23.68 55.9998 23.6 55.9998C23.84 55.0932 24.28 53.8398 24.92 52.2398C25.56 50.6132 26.3333 48.7065 27.24 46.5198C28.12 44.3865 29.16 42.1598 30.36 39.8398C31.5867 37.4932 32.9733 35.3198 34.52 33.3198C34.0667 33.2398 33.52 33.1598 32.88 33.0798C32.2667 32.9998 31.68 32.9198 31.12 32.8398C30.56 32.7598 30.1333 32.7065 29.84 32.6798C28.96 33.0798 28.04 33.8398 27.08 34.9598C25.9067 36.3465 24.8933 37.8265 24.04 39.3998C23.1867 40.9465 22.4 42.5465 21.68 44.1998C20.96 45.8265 20.2133 47.4398 19.44 49.0398C18.6933 50.6398 17.8 52.1732 16.76 53.6398C15.8267 54.9465 14.7733 56.1198 13.6 57.1598C12.4267 58.1998 11.0933 58.9865 9.6 59.5198C8.77333 59.8132 7.78667 59.9598 6.64 59.9598C6.18667 59.9598 5.76 59.9198 5.36 59.8398C4.96 59.7865 4.61333 59.6798 4.32 59.5198ZM36.52 32.4798C37.24 32.5332 38.08 32.6132 39.04 32.7198C40.0267 32.7998 41.0133 32.8398 42 32.8398C43.0133 32.8398 44.0133 32.7732 45 32.6398C45.9867 32.4798 46.8267 32.1865 47.52 31.7598C48.0267 31.4398 48.3867 31.0798 48.6 30.6798C48.84 30.2798 48.96 29.8665 48.96 29.4398C48.96 28.6932 48.64 28.0265 48 27.4398C47.36 26.8265 46.52 26.5198 45.48 26.5198C44.9733 26.5198 44.4267 26.5732 43.84 26.6798C43.28 26.7865 42.6933 26.9865 42.08 27.2798C41.0933 27.7332 40.1333 28.4265 39.2 29.3598C38.2667 30.2665 37.3733 31.3065 36.52 32.4798Z" fill="#000D05"/>
<path d="M43.4141 56.3198C41.8674 56.3198 40.7741 55.9198 40.1341 55.1198C39.8141 54.7732 39.5874 54.3598 39.4541 53.8798C39.3207 53.3998 39.2541 52.9065 39.2541 52.3998C39.2541 51.7598 39.3341 51.1198 39.4941 50.4798C39.6541 49.8132 39.8541 49.1998 40.0941 48.6398C40.4674 47.7598 40.9607 46.8798 41.5741 45.9998C42.1874 45.0932 42.9207 44.3332 43.7741 43.7198C44.6541 43.1065 45.6141 42.7998 46.6541 42.7998C47.3474 42.7998 47.8941 42.9732 48.2941 43.3198C48.6941 43.6665 48.8941 44.1998 48.8941 44.9198C48.8941 45.7465 48.6407 46.5865 48.1341 47.4398C47.6274 48.2665 46.9874 48.9598 46.2141 49.5198C45.4407 50.0798 44.6407 50.3598 43.8141 50.3598C43.0674 50.3598 42.4141 50.0932 41.8541 49.5598C41.6941 49.9865 41.5607 50.4665 41.4541 50.9998C41.3474 51.5065 41.2941 52.0265 41.2941 52.5598C41.2941 53.3865 41.4541 54.1065 41.7741 54.7198C42.1207 55.3332 42.7341 55.6398 43.6141 55.6398C44.2541 55.6398 44.8674 55.4798 45.4541 55.1598C46.0674 54.8132 46.6141 54.3998 47.0941 53.9198C47.6274 53.3598 48.1341 52.7598 48.6141 52.1198C49.0941 51.4798 49.5607 50.7332 50.0141 49.8798C50.0674 49.7998 50.1074 49.7598 50.1341 49.7598C50.2407 49.7598 50.2941 49.8798 50.2941 50.1198C50.2941 50.2798 50.2407 50.4532 50.1341 50.6398C49.7341 51.3598 49.2674 52.0932 48.7341 52.8398C48.2007 53.5598 47.6541 54.1865 47.0941 54.7198C46.5874 55.1998 46.0407 55.5865 45.4541 55.8798C44.8674 56.1732 44.1874 56.3198 43.4141 56.3198ZM42.0541 48.9598C42.2407 49.2265 42.4541 49.4265 42.6941 49.5598C42.9607 49.6665 43.2274 49.7198 43.4941 49.7198C44.1341 49.7198 44.8007 49.4798 45.4941 48.9998C46.1874 48.4932 46.7474 47.9065 47.1741 47.2398C47.3607 46.9465 47.5207 46.5598 47.6541 46.0798C47.8141 45.5998 47.8941 45.1465 47.8941 44.7198C47.8941 44.3465 47.8141 44.0265 47.6541 43.7598C47.5207 43.4665 47.2407 43.3198 46.8141 43.3198C46.3341 43.3198 45.7607 43.6132 45.0941 44.1998C44.4541 44.7865 43.8407 45.5465 43.2541 46.4798C43.0674 46.7998 42.8541 47.1732 42.6141 47.5998C42.4007 48.0265 42.2141 48.4798 42.0541 48.9598Z" fill="#000D05"/>
<path d="M4.32 59.5198C4 59.3598 3.74667 59.1332 3.56 58.8398C3.4 58.5465 3.32 58.2532 3.32 57.9598C3.32 57.6665 3.4 57.4265 3.56 57.2398C3.64 57.1332 3.73333 57.0665 3.84 57.0398C3.97333 57.0398 4.01333 57.1065 3.96 57.2398C3.88 57.6398 4.06667 58.0132 4.52 58.3598C4.97333 58.7065 5.38667 58.9332 5.76 59.0398C6.16 59.1198 6.56 59.1598 6.96 59.1598C7.78667 59.1598 8.52 59.0398 9.16 58.7998C10.12 58.4798 11.0667 57.8265 12 56.8398C12.96 55.8532 13.8533 54.7332 14.68 53.4798C15.48 52.2532 16.2667 50.8665 17.04 49.3198C17.84 47.7465 18.64 46.1332 19.44 44.4798C20.2667 42.7998 21.1467 41.1865 22.08 39.6398C23.0133 38.0665 24.0133 36.6665 25.08 35.4398C26.1733 34.1865 27.3733 33.2265 28.68 32.5598L21.2 31.2398C20.6133 31.1332 19.9467 31.0665 19.2 31.0398C18.4533 30.9865 17.6667 30.9598 16.84 30.9598C15.3733 30.9598 13.9067 31.0532 12.44 31.2398C10.9733 31.3998 9.8 31.6798 8.92 32.0798C7.37333 32.7732 6.04 33.7332 4.92 34.9598C3.8 36.1598 3.24 37.6665 3.24 39.4798C3.24 40.2265 3.36 40.8665 3.6 41.3998C3.86667 41.9065 4.2 42.2932 4.6 42.5598C5.05333 42.8265 5.52 42.9598 6 42.9598C6.58667 42.9598 7.18667 42.7865 7.8 42.4398C8.41333 42.0665 8.94667 41.5332 9.4 40.8398C9.61333 40.4932 9.81333 39.9865 10 39.3198C10.2133 38.6532 10.32 37.9732 10.32 37.2798C10.32 36.9065 10.28 36.5465 10.2 36.1998C10.1467 35.8532 10.0267 35.5465 9.84 35.2798C9.78667 35.1732 9.76 35.1198 9.76 35.1198C9.76 35.0398 9.8 34.9998 9.88 34.9998C9.98667 34.9998 10.08 35.0665 10.16 35.1998C10.2933 35.3865 10.4267 35.6798 10.56 36.0798C10.72 36.4532 10.8267 36.7998 10.88 37.1198C10.9067 37.2798 10.92 37.4398 10.92 37.5998C10.9467 37.7598 10.96 37.9198 10.96 38.0798C10.96 38.6132 10.8933 39.1598 10.76 39.7198C10.6267 40.2532 10.4133 40.7465 10.12 41.1998C9.69333 41.9198 9.12 42.4665 8.4 42.8398C7.68 43.1865 6.93333 43.3598 6.16 43.3598C5.54667 43.3598 4.96 43.2398 4.4 42.9998C3.57333 42.5998 2.96 42.0265 2.56 41.2798C2.18667 40.5332 2 39.7198 2 38.8398C2 38.2532 2.06667 37.6665 2.2 37.0798C2.36 36.4665 2.57333 35.8798 2.84 35.3198C3.29333 34.3332 3.92 33.4665 4.72 32.7198C5.52 31.9732 6.32 31.3865 7.12 30.9598C8.45333 30.2398 9.78667 29.7332 11.12 29.4398C12.48 29.1465 13.8533 28.9998 15.24 28.9998C16.3867 28.9998 17.5467 29.0798 18.72 29.2398C19.8933 29.3998 21.08 29.6265 22.28 29.9198C24.3867 30.4265 26.52 30.9065 28.68 31.3598C30.84 31.7865 33.04 32.1198 35.28 32.3598C36.2133 31.2398 37.2 30.2265 38.24 29.3198C39.3067 28.3865 40.4267 27.6132 41.6 26.9998C42.2933 26.6532 43.0267 26.3732 43.8 26.1598C44.5733 25.9465 45.32 25.8398 46.04 25.8398C47.24 25.8398 48.16 26.1732 48.8 26.8398C49.44 27.5065 49.76 28.2665 49.76 29.1198C49.76 29.7065 49.6 30.2932 49.28 30.8798C48.96 31.4665 48.4533 31.9732 47.76 32.3998C46.8533 32.9332 45.8667 33.2932 44.8 33.4798C43.7333 33.6665 42.6267 33.7598 41.48 33.7598C40.5467 33.7598 39.6 33.7198 38.64 33.6398C37.68 33.5598 36.7467 33.4932 35.84 33.4398C35.0133 34.6665 34.24 35.9465 33.52 37.2798C32.8267 38.5865 32.2 39.8532 31.64 41.0798C31.08 42.2798 30.5867 43.3598 30.16 44.3198C29.84 45.0932 29.56 45.7465 29.32 46.2798C29.1067 46.7865 28.9067 47.2532 28.72 47.6798C28.56 48.1065 28.3733 48.5865 28.16 49.1198C28.5867 48.4798 29.0667 47.7865 29.6 47.0398C30.16 46.2665 30.6533 45.6665 31.08 45.2398C31.6933 44.6265 32.3067 44.1065 32.92 43.6798C33.5333 43.2532 34.1333 43.0132 34.72 42.9598C35.6267 42.8798 36.28 42.9998 36.68 43.3198C37.08 43.6132 37.28 44.0532 37.28 44.6398C37.28 45.2265 37.12 45.8798 36.8 46.5998C36.4533 47.4265 36.04 48.2532 35.56 49.0798C35.08 49.9065 34.64 50.7065 34.24 51.4798C34.1333 51.6932 33.9333 52.1065 33.64 52.7198C33.3733 53.3065 33.2 53.8665 33.12 54.3998C33.12 54.4265 33.1067 54.4665 33.08 54.5198C33.08 54.5732 33.08 54.6265 33.08 54.6798C33.08 54.9732 33.16 55.1998 33.32 55.3598C33.48 55.4932 33.6667 55.5598 33.88 55.5598C34.3333 55.5598 34.76 55.4132 35.16 55.1198C35.56 54.8265 35.9067 54.5065 36.2 54.1598C36.8133 53.4932 37.3733 52.7598 37.88 51.9598C38.3867 51.1598 38.8933 50.3065 39.4 49.3998C39.48 49.2932 39.56 49.2398 39.64 49.2398C39.7467 49.2398 39.8 49.3198 39.8 49.4798C39.8 49.6132 39.7733 49.7198 39.72 49.7998C39.24 50.6798 38.72 51.5598 38.16 52.4398C37.6267 53.3198 36.9733 54.1465 36.2 54.9198C35.8533 55.2665 35.4533 55.5865 35 55.8798C34.5467 56.1465 34.04 56.2798 33.48 56.2798C32.5733 56.2798 31.9333 56.0265 31.56 55.5198C31.2133 54.9865 31.04 54.3998 31.04 53.7598C31.04 53.2532 31.1333 52.7465 31.32 52.2398C31.7733 51.0665 32.4 49.9465 33.2 48.8798C34 47.8132 34.6667 46.7065 35.2 45.5598C35.3867 45.2132 35.48 44.8932 35.48 44.5998C35.48 44.2798 35.3867 44.0398 35.2 43.8798C35.0133 43.7198 34.8133 43.6398 34.6 43.6398C34.0933 43.6398 33.5333 43.8665 32.92 44.3198C32.3333 44.7465 31.76 45.2932 31.2 45.9598C30.6933 46.5465 30.1733 47.2265 29.64 47.9998C29.1067 48.7465 28.6 49.5465 28.12 50.3998C27.6667 51.1732 27.2 51.9865 26.72 52.8398C26.24 53.6665 25.8533 54.3732 25.56 54.9598C25.3467 55.4132 25.12 55.7065 24.88 55.8398C24.64 55.9732 24.4133 56.0398 24.2 56.0398C24.0933 56.0398 23.9867 56.0265 23.88 55.9998C23.7733 55.9998 23.68 55.9998 23.6 55.9998C23.84 55.0932 24.28 53.8398 24.92 52.2398C25.56 50.6132 26.3333 48.7065 27.24 46.5198C28.12 44.3865 29.16 42.1598 30.36 39.8398C31.5867 37.4932 32.9733 35.3198 34.52 33.3198C34.0667 33.2398 33.52 33.1598 32.88 33.0798C32.2667 32.9998 31.68 32.9198 31.12 32.8398C30.56 32.7598 30.1333 32.7065 29.84 32.6798C28.96 33.0798 28.04 33.8398 27.08 34.9598C25.9067 36.3465 24.8933 37.8265 24.04 39.3998C23.1867 40.9465 22.4 42.5465 21.68 44.1998C20.96 45.8265 20.2133 47.4398 19.44 49.0398C18.6933 50.6398 17.8 52.1732 16.76 53.6398C15.8267 54.9465 14.7733 56.1198 13.6 57.1598C12.4267 58.1998 11.0933 58.9865 9.6 59.5198C8.77333 59.8132 7.78667 59.9598 6.64 59.9598C6.18667 59.9598 5.76 59.9198 5.36 59.8398C4.96 59.7865 4.61333 59.6798 4.32 59.5198ZM36.52 32.4798C37.24 32.5332 38.08 32.6132 39.04 32.7198C40.0267 32.7998 41.0133 32.8398 42 32.8398C43.0133 32.8398 44.0133 32.7732 45 32.6398C45.9867 32.4798 46.8267 32.1865 47.52 31.7598C48.0267 31.4398 48.3867 31.0798 48.6 30.6798C48.84 30.2798 48.96 29.8665 48.96 29.4398C48.96 28.6932 48.64 28.0265 48 27.4398C47.36 26.8265 46.52 26.5198 45.48 26.5198C44.9733 26.5198 44.4267 26.5732 43.84 26.6798C43.28 26.7865 42.6933 26.9865 42.08 27.2798C41.0933 27.7332 40.1333 28.4265 39.2 29.3598C38.2667 30.2665 37.3733 31.3065 36.52 32.4798Z" stroke="#C9EBF2" stroke-width="4" mask="url(#path-2-outside-1_1439_9504)"/>
<path d="M43.4141 56.3198C41.8674 56.3198 40.7741 55.9198 40.1341 55.1198C39.8141 54.7732 39.5874 54.3598 39.4541 53.8798C39.3207 53.3998 39.2541 52.9065 39.2541 52.3998C39.2541 51.7598 39.3341 51.1198 39.4941 50.4798C39.6541 49.8132 39.8541 49.1998 40.0941 48.6398C40.4674 47.7598 40.9607 46.8798 41.5741 45.9998C42.1874 45.0932 42.9207 44.3332 43.7741 43.7198C44.6541 43.1065 45.6141 42.7998 46.6541 42.7998C47.3474 42.7998 47.8941 42.9732 48.2941 43.3198C48.6941 43.6665 48.8941 44.1998 48.8941 44.9198C48.8941 45.7465 48.6407 46.5865 48.1341 47.4398C47.6274 48.2665 46.9874 48.9598 46.2141 49.5198C45.4407 50.0798 44.6407 50.3598 43.8141 50.3598C43.0674 50.3598 42.4141 50.0932 41.8541 49.5598C41.6941 49.9865 41.5607 50.4665 41.4541 50.9998C41.3474 51.5065 41.2941 52.0265 41.2941 52.5598C41.2941 53.3865 41.4541 54.1065 41.7741 54.7198C42.1207 55.3332 42.7341 55.6398 43.6141 55.6398C44.2541 55.6398 44.8674 55.4798 45.4541 55.1598C46.0674 54.8132 46.6141 54.3998 47.0941 53.9198C47.6274 53.3598 48.1341 52.7598 48.6141 52.1198C49.0941 51.4798 49.5607 50.7332 50.0141 49.8798C50.0674 49.7998 50.1074 49.7598 50.1341 49.7598C50.2407 49.7598 50.2941 49.8798 50.2941 50.1198C50.2941 50.2798 50.2407 50.4532 50.1341 50.6398C49.7341 51.3598 49.2674 52.0932 48.7341 52.8398C48.2007 53.5598 47.6541 54.1865 47.0941 54.7198C46.5874 55.1998 46.0407 55.5865 45.4541 55.8798C44.8674 56.1732 44.1874 56.3198 43.4141 56.3198ZM42.0541 48.9598C42.2407 49.2265 42.4541 49.4265 42.6941 49.5598C42.9607 49.6665 43.2274 49.7198 43.4941 49.7198C44.1341 49.7198 44.8007 49.4798 45.4941 48.9998C46.1874 48.4932 46.7474 47.9065 47.1741 47.2398C47.3607 46.9465 47.5207 46.5598 47.6541 46.0798C47.8141 45.5998 47.8941 45.1465 47.8941 44.7198C47.8941 44.3465 47.8141 44.0265 47.6541 43.7598C47.5207 43.4665 47.2407 43.3198 46.8141 43.3198C46.3341 43.3198 45.7607 43.6132 45.0941 44.1998C44.4541 44.7865 43.8407 45.5465 43.2541 46.4798C43.0674 46.7998 42.8541 47.1732 42.6141 47.5998C42.4007 48.0265 42.2141 48.4798 42.0541 48.9598Z" stroke="#C9EBF2" stroke-width="4" mask="url(#path-2-outside-1_1439_9504)"/>
<defs>
<filter id="filter0_d_1439_9504" x="39.8008" y="9.80078" width="341.719" height="72.8008" filterUnits="userSpaceOnUse" color-interpolation-filters="sRGB">
<feFlood flood-opacity="0" result="BackgroundImageFix"/>
<feColorMatrix in="SourceAlpha" type="matrix" values="0 0 0 0 0 0 0 0 0 0 0 0 0 0 0 0 0 0 127 0" result="hardAlpha"/>
<feOffset dx="4" dy="3"/>
<feComposite in2="hardAlpha" operator="out"/>
<feColorMatrix type="matrix" values="0 0 0 0 1 0 0 0 0 1 0 0 0 0 1 0 0 0 1 0"/>
<feBlend mode="normal" in2="BackgroundImageFix" result="effect1_dropShadow_1439_9504"/>
<feBlend mode="normal" in="SourceGraphic" in2="effect1_dropShadow_1439_9504" result="shape"/>
</filter>
</defs>
</svg>
