<svg width="374" height="56" viewBox="0 0 374 56" fill="none" xmlns="http://www.w3.org/2000/svg">
<rect width="373.998" height="56" rx="28" fill="#00FF64"/>
<path d="M82.08 35.16C81.0667 35.16 80.1467 34.96 79.32 34.56C78.4933 34.16 77.8267 33.5933 77.32 32.86C76.8133 32.1133 76.5267 31.24 76.46 30.24H78.76C78.8 30.7733 78.9667 31.26 79.26 31.7C79.5667 32.1267 79.9667 32.4667 80.46 32.72C80.9533 32.9733 81.4933 33.1 82.08 33.1C82.9467 33.1 83.64 32.9133 84.16 32.54C84.6933 32.1533 84.96 31.6533 84.96 31.04C84.96 30.48 84.78 30.04 84.42 29.72C84.06 29.3867 83.6067 29.14 83.06 28.98L80.58 28.26C79.94 28.0733 79.3467 27.8267 78.8 27.52C78.2667 27.2133 77.8333 26.8 77.5 26.28C77.18 25.76 77.02 25.0933 77.02 24.28C77.02 23.52 77.2267 22.8533 77.64 22.28C78.0667 21.6933 78.6533 21.24 79.4 20.92C80.1467 20.5867 81 20.42 81.96 20.42C82.9467 20.42 83.8133 20.5933 84.56 20.94C85.32 21.2733 85.9267 21.7533 86.38 22.38C86.8333 22.9933 87.0933 23.7267 87.16 24.58H84.86C84.7667 23.98 84.4667 23.48 83.96 23.08C83.4533 22.6667 82.7867 22.46 81.96 22.46C81.16 22.46 80.5333 22.62 80.08 22.94C79.6267 23.26 79.4 23.7 79.4 24.26C79.4 24.7533 79.56 25.14 79.88 25.42C80.2133 25.7 80.6467 25.9133 81.18 26.06L83.7 26.78C84.3667 26.9667 84.9733 27.22 85.52 27.54C86.08 27.8467 86.52 28.2733 86.84 28.82C87.1733 29.3667 87.34 30.0867 87.34 30.98C87.34 31.82 87.12 32.5533 86.68 33.18C86.2533 33.8067 85.6467 34.2933 84.86 34.64C84.0733 34.9867 83.1467 35.16 82.08 35.16ZM89.1722 35V20.42H91.3522V26.38C91.7255 25.7933 92.2055 25.3267 92.7922 24.98C93.3922 24.6333 94.0589 24.46 94.7922 24.46C95.8989 24.46 96.7989 24.8 97.4922 25.48C98.1855 26.1467 98.5322 27.04 98.5322 28.16V35H96.3722V28.64C96.3722 27.9867 96.1789 27.4533 95.7922 27.04C95.4055 26.6267 94.8789 26.42 94.2122 26.42C93.3189 26.42 92.6189 26.78 92.1122 27.5C91.6055 28.2067 91.3522 29.1867 91.3522 30.44V35H89.1722ZM103.813 35.16C103.119 35.16 102.499 35.0333 101.953 34.78C101.419 34.5267 100.999 34.18 100.693 33.74C100.386 33.2867 100.233 32.7667 100.233 32.18C100.233 31.2733 100.539 30.5467 101.153 30C101.779 29.4533 102.659 29.1067 103.793 28.96L106.013 28.66C106.613 28.58 106.913 28.2933 106.913 27.8C106.913 27.3467 106.719 26.9667 106.333 26.66C105.946 26.3533 105.413 26.2 104.733 26.2C104.106 26.2 103.579 26.3533 103.153 26.66C102.739 26.9667 102.506 27.4133 102.453 28H100.313C100.433 26.92 100.886 26.06 101.673 25.42C102.459 24.78 103.479 24.46 104.733 24.46C106.066 24.46 107.126 24.8133 107.913 25.52C108.699 26.2133 109.093 27.14 109.093 28.3V32.42C109.093 32.7133 109.153 32.9267 109.273 33.06C109.406 33.18 109.579 33.24 109.793 33.24C109.899 33.24 110.006 33.2267 110.113 33.2V35C110.006 35.0133 109.859 35.0333 109.673 35.06C109.499 35.1 109.306 35.12 109.093 35.12C108.559 35.12 108.113 34.9867 107.753 34.72C107.406 34.4533 107.213 34.04 107.173 33.48C106.919 34 106.493 34.4133 105.893 34.72C105.293 35.0133 104.599 35.16 103.813 35.16ZM104.153 33.46C105.046 33.46 105.739 33.18 106.233 32.62C106.726 32.06 106.973 31.3333 106.973 30.44V30.06L104.153 30.52C102.993 30.6933 102.413 31.22 102.413 32.1C102.413 32.5 102.573 32.8267 102.893 33.08C103.213 33.3333 103.633 33.46 104.153 33.46ZM117.695 26.6C117.562 26.5733 117.408 26.5467 117.235 26.52C117.062 26.4933 116.868 26.48 116.655 26.48C116.148 26.48 115.668 26.64 115.215 26.96C114.775 27.28 114.415 27.7867 114.135 28.48C113.868 29.16 113.735 30.04 113.735 31.12V35H111.555V24.62H113.735V26.6C113.895 26.1867 114.142 25.82 114.475 25.5C114.822 25.18 115.208 24.9267 115.635 24.74C116.062 24.5533 116.495 24.46 116.935 24.46C117.122 24.46 117.268 24.4667 117.375 24.48C117.495 24.48 117.602 24.4933 117.695 24.52V26.6ZM120.127 30.32C120.221 31.2667 120.534 32 121.067 32.52C121.614 33.04 122.307 33.3 123.147 33.3C123.787 33.3 124.341 33.16 124.807 32.88C125.274 32.5867 125.567 32.1733 125.687 31.64H127.827C127.654 32.7733 127.127 33.6467 126.247 34.26C125.381 34.86 124.327 35.16 123.087 35.16C121.994 35.16 121.067 34.9133 120.307 34.42C119.547 33.9133 118.967 33.2533 118.567 32.44C118.167 31.6133 117.967 30.7333 117.967 29.8C117.967 28.8667 118.154 27.9933 118.527 27.18C118.914 26.3667 119.481 25.7133 120.227 25.22C120.974 24.7133 121.894 24.46 122.987 24.46C124.067 24.46 124.967 24.7 125.687 25.18C126.421 25.6467 126.974 26.26 127.347 27.02C127.721 27.7667 127.901 28.5733 127.887 29.44C127.887 29.64 127.881 29.84 127.867 30.04C127.854 30.2267 127.847 30.32 127.847 30.32H120.127ZM122.987 26.18C122.254 26.18 121.647 26.3933 121.167 26.82C120.701 27.2467 120.387 27.84 120.227 28.6H125.547C125.494 27.8933 125.247 27.3133 124.807 26.86C124.381 26.4067 123.774 26.18 122.987 26.18ZM134.06 35V20.58H136.96L141.22 30.32C141.5 30.96 141.7 31.48 141.82 31.88C141.953 32.2667 142.02 32.46 142.02 32.46C142.02 32.46 142.08 32.2667 142.2 31.88C142.32 31.48 142.52 30.96 142.8 30.32L147.06 20.58H149.86V35H147.54V26.68C147.54 25.9733 147.553 25.4133 147.58 25C147.606 24.5867 147.62 24.38 147.62 24.38C147.62 24.38 147.54 24.58 147.38 24.98C147.233 25.3667 147.026 25.88 146.76 26.52L143.08 35H140.88L137.16 26.52C136.88 25.88 136.666 25.3667 136.52 24.98C136.373 24.58 136.3 24.38 136.3 24.38C136.3 24.38 136.306 24.5867 136.32 25C136.346 25.4133 136.36 25.9733 136.36 26.68V35H134.06ZM159.175 24.62H161.395L157.155 35.7C156.929 36.2867 156.649 36.82 156.315 37.3C155.995 37.7933 155.589 38.18 155.095 38.46C154.615 38.7533 154.009 38.9 153.275 38.9C153.035 38.9 152.802 38.88 152.575 38.84C152.349 38.8 152.142 38.7533 151.955 38.7V36.82C152.102 36.86 152.262 36.9 152.435 36.94C152.622 36.98 152.842 37 153.095 37C153.629 37 154.089 36.8533 154.475 36.56C154.862 36.28 155.195 35.78 155.475 35.06L151.375 24.62H153.595L156.415 32.42L159.175 24.62ZM166.599 35V20.58H172.639C174.065 20.58 175.185 20.9733 175.999 21.76C176.825 22.5467 177.239 23.5933 177.239 24.9C177.239 25.74 177.052 26.4867 176.679 27.14C176.305 27.7933 175.772 28.3133 175.079 28.7C174.399 29.0733 173.585 29.26 172.639 29.26H168.919V35H166.599ZM172.339 27.2C173.139 27.2 173.759 26.9933 174.199 26.58C174.652 26.1533 174.879 25.5933 174.879 24.9C174.879 24.22 174.652 23.6733 174.199 23.26C173.759 22.8467 173.139 22.64 172.339 22.64H168.919V27.2H172.339ZM178.782 35V20.42H180.962V35H178.782ZM186.332 35.16C185.639 35.16 185.019 35.0333 184.472 34.78C183.939 34.5267 183.519 34.18 183.212 33.74C182.906 33.2867 182.752 32.7667 182.752 32.18C182.752 31.2733 183.059 30.5467 183.672 30C184.299 29.4533 185.179 29.1067 186.312 28.96L188.532 28.66C189.132 28.58 189.432 28.2933 189.432 27.8C189.432 27.3467 189.239 26.9667 188.852 26.66C188.466 26.3533 187.932 26.2 187.252 26.2C186.626 26.2 186.099 26.3533 185.672 26.66C185.259 26.9667 185.026 27.4133 184.972 28H182.832C182.952 26.92 183.406 26.06 184.192 25.42C184.979 24.78 185.999 24.46 187.252 24.46C188.586 24.46 189.646 24.8133 190.432 25.52C191.219 26.2133 191.612 27.14 191.612 28.3V32.42C191.612 32.7133 191.672 32.9267 191.792 33.06C191.926 33.18 192.099 33.24 192.312 33.24C192.419 33.24 192.526 33.2267 192.632 33.2V35C192.526 35.0133 192.379 35.0333 192.192 35.06C192.019 35.1 191.826 35.12 191.612 35.12C191.079 35.12 190.632 34.9867 190.272 34.72C189.926 34.4533 189.732 34.04 189.692 33.48C189.439 34 189.012 34.4133 188.412 34.72C187.812 35.0133 187.119 35.16 186.332 35.16ZM186.672 33.46C187.566 33.46 188.259 33.18 188.752 32.62C189.246 32.06 189.492 31.3333 189.492 30.44V30.06L186.672 30.52C185.512 30.6933 184.932 31.22 184.932 32.1C184.932 32.5 185.092 32.8267 185.412 33.08C185.732 33.3333 186.152 33.46 186.672 33.46ZM200.347 24.62H202.567L198.327 35.7C198.101 36.2867 197.821 36.82 197.487 37.3C197.167 37.7933 196.761 38.18 196.267 38.46C195.787 38.7533 195.181 38.9 194.447 38.9C194.207 38.9 193.974 38.88 193.747 38.84C193.521 38.8 193.314 38.7533 193.127 38.7V36.82C193.274 36.86 193.434 36.9 193.607 36.94C193.794 36.98 194.014 37 194.267 37C194.801 37 195.261 36.8533 195.647 36.56C196.034 36.28 196.367 35.78 196.647 35.06L192.547 24.62H194.767L197.587 32.42L200.347 24.62ZM205.049 30.32C205.142 31.2667 205.456 32 205.989 32.52C206.536 33.04 207.229 33.3 208.069 33.3C208.709 33.3 209.262 33.16 209.729 32.88C210.196 32.5867 210.489 32.1733 210.609 31.64H212.749C212.576 32.7733 212.049 33.6467 211.169 34.26C210.302 34.86 209.249 35.16 208.009 35.16C206.916 35.16 205.989 34.9133 205.229 34.42C204.469 33.9133 203.889 33.2533 203.489 32.44C203.089 31.6133 202.889 30.7333 202.889 29.8C202.889 28.8667 203.076 27.9933 203.449 27.18C203.836 26.3667 204.402 25.7133 205.149 25.22C205.896 24.7133 206.816 24.46 207.909 24.46C208.989 24.46 209.889 24.7 210.609 25.18C211.342 25.6467 211.896 26.26 212.269 27.02C212.642 27.7667 212.822 28.5733 212.809 29.44C212.809 29.64 212.802 29.84 212.789 30.04C212.776 30.2267 212.769 30.32 212.769 30.32H205.049ZM207.909 26.18C207.176 26.18 206.569 26.3933 206.089 26.82C205.622 27.2467 205.309 27.84 205.149 28.6H210.469C210.416 27.8933 210.169 27.3133 209.729 26.86C209.302 26.4067 208.696 26.18 207.909 26.18ZM220.761 26.6C220.628 26.5733 220.475 26.5467 220.301 26.52C220.128 26.4933 219.935 26.48 219.721 26.48C219.215 26.48 218.735 26.64 218.281 26.96C217.841 27.28 217.481 27.7867 217.201 28.48C216.935 29.16 216.801 30.04 216.801 31.12V35H214.621V24.62H216.801V26.6C216.961 26.1867 217.208 25.82 217.541 25.5C217.888 25.18 218.275 24.9267 218.701 24.74C219.128 24.5533 219.561 24.46 220.001 24.46C220.188 24.46 220.335 24.4667 220.441 24.48C220.561 24.48 220.668 24.4933 220.761 24.52V26.6ZM232.471 35.16C231.538 35.16 230.645 35.0067 229.791 34.7C228.938 34.3933 228.178 33.9333 227.511 33.32C226.858 32.7067 226.338 31.94 225.951 31.02C225.578 30.1 225.391 29.02 225.391 27.78C225.391 26.5533 225.585 25.48 225.971 24.56C226.358 23.64 226.885 22.8733 227.551 22.26C228.218 21.6467 228.971 21.1867 229.811 20.88C230.665 20.5733 231.551 20.42 232.471 20.42C233.565 20.42 234.558 20.62 235.451 21.02C236.358 21.4067 237.105 21.98 237.691 22.74C238.278 23.4867 238.638 24.4 238.771 25.48H236.331C236.185 24.56 235.751 23.8267 235.031 23.28C234.325 22.7333 233.465 22.46 232.451 22.46C231.558 22.46 230.758 22.6667 230.051 23.08C229.345 23.4933 228.785 24.0933 228.371 24.88C227.958 25.6667 227.751 26.6333 227.751 27.78C227.751 28.9267 227.958 29.9 228.371 30.7C228.785 31.4867 229.345 32.0867 230.051 32.5C230.758 32.9 231.558 33.1 232.451 33.1C233.478 33.1 234.338 32.84 235.031 32.32C235.725 31.7867 236.158 31.0467 236.331 30.1H238.791C238.618 31.2067 238.231 32.14 237.631 32.9C237.031 33.6467 236.285 34.2133 235.391 34.6C234.511 34.9733 233.538 35.16 232.471 35.16ZM243.481 35.16C242.787 35.16 242.167 35.0333 241.621 34.78C241.087 34.5267 240.667 34.18 240.361 33.74C240.054 33.2867 239.901 32.7667 239.901 32.18C239.901 31.2733 240.207 30.5467 240.821 30C241.447 29.4533 242.327 29.1067 243.461 28.96L245.681 28.66C246.281 28.58 246.581 28.2933 246.581 27.8C246.581 27.3467 246.387 26.9667 246.001 26.66C245.614 26.3533 245.081 26.2 244.401 26.2C243.774 26.2 243.247 26.3533 242.821 26.66C242.407 26.9667 242.174 27.4133 242.121 28H239.981C240.101 26.92 240.554 26.06 241.341 25.42C242.127 24.78 243.147 24.46 244.401 24.46C245.734 24.46 246.794 24.8133 247.581 25.52C248.367 26.2133 248.761 27.14 248.761 28.3V32.42C248.761 32.7133 248.821 32.9267 248.941 33.06C249.074 33.18 249.247 33.24 249.461 33.24C249.567 33.24 249.674 33.2267 249.781 33.2V35C249.674 35.0133 249.527 35.0333 249.341 35.06C249.167 35.1 248.974 35.12 248.761 35.12C248.227 35.12 247.781 34.9867 247.421 34.72C247.074 34.4533 246.881 34.04 246.841 33.48C246.587 34 246.161 34.4133 245.561 34.72C244.961 35.0133 244.267 35.16 243.481 35.16ZM243.821 33.46C244.714 33.46 245.407 33.18 245.901 32.62C246.394 32.06 246.641 31.3333 246.641 30.44V30.06L243.821 30.52C242.661 30.6933 242.081 31.22 242.081 32.1C242.081 32.5 242.241 32.8267 242.561 33.08C242.881 33.3333 243.301 33.46 243.821 33.46ZM257.363 26.6C257.23 26.5733 257.076 26.5467 256.903 26.52C256.73 26.4933 256.536 26.48 256.323 26.48C255.816 26.48 255.336 26.64 254.883 26.96C254.443 27.28 254.083 27.7867 253.803 28.48C253.536 29.16 253.403 30.04 253.403 31.12V35H251.223V24.62H253.403V26.6C253.563 26.1867 253.81 25.82 254.143 25.5C254.49 25.18 254.876 24.9267 255.303 24.74C255.73 24.5533 256.163 24.46 256.603 24.46C256.79 24.46 256.936 24.4667 257.043 24.48C257.163 24.48 257.27 24.4933 257.363 24.52V26.6ZM262.674 35.16C261.634 35.16 260.74 34.9333 259.994 34.48C259.26 34.0133 258.694 33.38 258.294 32.58C257.907 31.7667 257.714 30.84 257.714 29.8C257.714 28.76 257.907 27.84 258.294 27.04C258.694 26.2267 259.26 25.5933 259.994 25.14C260.74 24.6867 261.62 24.46 262.634 24.46C263.3 24.46 263.914 24.6 264.474 24.88C265.047 25.1467 265.487 25.5 265.794 25.94V20.42H267.974V35H265.794V33.66C265.567 34.0733 265.167 34.4267 264.594 34.72C264.02 35.0133 263.38 35.16 262.674 35.16ZM262.954 33.26C263.847 33.26 264.567 32.9467 265.114 32.32C265.674 31.68 265.954 30.84 265.954 29.8C265.954 28.76 265.674 27.9267 265.114 27.3C264.567 26.6733 263.847 26.36 262.954 26.36C262.06 26.36 261.334 26.6733 260.774 27.3C260.227 27.9267 259.954 28.76 259.954 29.8C259.954 30.8267 260.227 31.66 260.774 32.3C261.334 32.94 262.06 33.26 262.954 33.26Z" fill="#000D05"/>
<path d="M284 19V21H279V35H293V30H295V36C295 36.5523 294.552 37 294 37H278C277.448 37 277 36.5523 277 36V20C277 19.4477 277.448 19 278 19H284ZM291.586 21H287V19H295V27H293V22.4142L286 29.4142L284.586 28L291.586 21Z" fill="#000D05"/>
</svg>
